G04 #@! TF.GenerationSoftware,KiCad,Pcbnew,(5.1.0)-1*
G04 #@! TF.CreationDate,2019-06-23T22:47:00+02:00*
G04 #@! TF.ProjectId,RF_433MHz_Receiver,52465f34-3333-44d4-987a-5f5265636569,00*
G04 #@! TF.SameCoordinates,Original*
G04 #@! TF.FileFunction,Soldermask,Top*
G04 #@! TF.FilePolarity,Negative*
%FSLAX46Y46*%
G04 Gerber Fmt 4.6, Leading zero omitted, Abs format (unit mm)*
G04 Created by KiCad (PCBNEW (5.1.0)-1) date 2019-06-23 22:47:00*
%MOMM*%
%LPD*%
G04 APERTURE LIST*
%ADD10C,0.250000*%
%ADD11C,0.100000*%
G04 APERTURE END LIST*
D10*
X93956142Y-80340571D02*
X93622809Y-80340571D01*
X93622809Y-80864380D02*
X93622809Y-79864380D01*
X94099000Y-79864380D01*
X94479952Y-80769142D02*
X94527571Y-80816761D01*
X94479952Y-80864380D01*
X94432333Y-80816761D01*
X94479952Y-80769142D01*
X94479952Y-80864380D01*
X94956142Y-80864380D02*
X94956142Y-79864380D01*
X95289476Y-80578666D01*
X95622809Y-79864380D01*
X95622809Y-80864380D01*
X96527571Y-80864380D02*
X96527571Y-80340571D01*
X96479952Y-80245333D01*
X96384714Y-80197714D01*
X96194238Y-80197714D01*
X96099000Y-80245333D01*
X96527571Y-80816761D02*
X96432333Y-80864380D01*
X96194238Y-80864380D01*
X96099000Y-80816761D01*
X96051380Y-80721523D01*
X96051380Y-80626285D01*
X96099000Y-80531047D01*
X96194238Y-80483428D01*
X96432333Y-80483428D01*
X96527571Y-80435809D01*
X96956142Y-80816761D02*
X97051380Y-80864380D01*
X97241857Y-80864380D01*
X97337095Y-80816761D01*
X97384714Y-80721523D01*
X97384714Y-80673904D01*
X97337095Y-80578666D01*
X97241857Y-80531047D01*
X97099000Y-80531047D01*
X97003761Y-80483428D01*
X96956142Y-80388190D01*
X96956142Y-80340571D01*
X97003761Y-80245333D01*
X97099000Y-80197714D01*
X97241857Y-80197714D01*
X97337095Y-80245333D01*
X97813285Y-80864380D02*
X97813285Y-79864380D01*
X97908523Y-80483428D02*
X98194238Y-80864380D01*
X98194238Y-80197714D02*
X97813285Y-80578666D01*
X99384714Y-80483428D02*
X100146619Y-80483428D01*
X101289476Y-80197714D02*
X101527571Y-80864380D01*
X101765666Y-80197714D01*
X102337095Y-79864380D02*
X102432333Y-79864380D01*
X102527571Y-79912000D01*
X102575190Y-79959619D01*
X102622809Y-80054857D01*
X102670428Y-80245333D01*
X102670428Y-80483428D01*
X102622809Y-80673904D01*
X102575190Y-80769142D01*
X102527571Y-80816761D01*
X102432333Y-80864380D01*
X102337095Y-80864380D01*
X102241857Y-80816761D01*
X102194238Y-80769142D01*
X102146619Y-80673904D01*
X102099000Y-80483428D01*
X102099000Y-80245333D01*
X102146619Y-80054857D01*
X102194238Y-79959619D01*
X102241857Y-79912000D01*
X102337095Y-79864380D01*
X103289476Y-79864380D02*
X103384714Y-79864380D01*
X103479952Y-79912000D01*
X103527571Y-79959619D01*
X103575190Y-80054857D01*
X103622809Y-80245333D01*
X103622809Y-80483428D01*
X103575190Y-80673904D01*
X103527571Y-80769142D01*
X103479952Y-80816761D01*
X103384714Y-80864380D01*
X103289476Y-80864380D01*
X103194238Y-80816761D01*
X103146619Y-80769142D01*
X103099000Y-80673904D01*
X103051380Y-80483428D01*
X103051380Y-80245333D01*
X103099000Y-80054857D01*
X103146619Y-79959619D01*
X103194238Y-79912000D01*
X103289476Y-79864380D01*
D11*
G36*
X89380285Y-86652234D02*
G01*
X89476981Y-86671468D01*
X89659151Y-86746926D01*
X89823100Y-86856473D01*
X89962527Y-86995900D01*
X90072074Y-87159849D01*
X90147532Y-87342019D01*
X90186000Y-87535410D01*
X90186000Y-87732590D01*
X90147532Y-87925981D01*
X90072074Y-88108151D01*
X89962527Y-88272100D01*
X89823100Y-88411527D01*
X89659151Y-88521074D01*
X89476981Y-88596532D01*
X89380285Y-88615766D01*
X89283591Y-88635000D01*
X89086409Y-88635000D01*
X88989715Y-88615766D01*
X88893019Y-88596532D01*
X88710849Y-88521074D01*
X88546900Y-88411527D01*
X88407473Y-88272100D01*
X88297926Y-88108151D01*
X88222468Y-87925981D01*
X88184000Y-87732590D01*
X88184000Y-87535410D01*
X88222468Y-87342019D01*
X88297926Y-87159849D01*
X88407473Y-86995900D01*
X88546900Y-86856473D01*
X88710849Y-86746926D01*
X88893019Y-86671468D01*
X88989715Y-86652234D01*
X89086409Y-86633000D01*
X89283591Y-86633000D01*
X89380285Y-86652234D01*
X89380285Y-86652234D01*
G37*
G36*
X86840285Y-86652234D02*
G01*
X86936981Y-86671468D01*
X87119151Y-86746926D01*
X87283100Y-86856473D01*
X87422527Y-86995900D01*
X87532074Y-87159849D01*
X87607532Y-87342019D01*
X87646000Y-87535410D01*
X87646000Y-87732590D01*
X87607532Y-87925981D01*
X87532074Y-88108151D01*
X87422527Y-88272100D01*
X87283100Y-88411527D01*
X87119151Y-88521074D01*
X86936981Y-88596532D01*
X86840285Y-88615766D01*
X86743591Y-88635000D01*
X86546409Y-88635000D01*
X86449715Y-88615766D01*
X86353019Y-88596532D01*
X86170849Y-88521074D01*
X86006900Y-88411527D01*
X85867473Y-88272100D01*
X85757926Y-88108151D01*
X85682468Y-87925981D01*
X85644000Y-87732590D01*
X85644000Y-87535410D01*
X85682468Y-87342019D01*
X85757926Y-87159849D01*
X85867473Y-86995900D01*
X86006900Y-86856473D01*
X86170849Y-86746926D01*
X86353019Y-86671468D01*
X86449715Y-86652234D01*
X86546409Y-86633000D01*
X86743591Y-86633000D01*
X86840285Y-86652234D01*
X86840285Y-86652234D01*
G37*
G36*
X84300285Y-86652234D02*
G01*
X84396981Y-86671468D01*
X84579151Y-86746926D01*
X84743100Y-86856473D01*
X84882527Y-86995900D01*
X84992074Y-87159849D01*
X85067532Y-87342019D01*
X85106000Y-87535410D01*
X85106000Y-87732590D01*
X85067532Y-87925981D01*
X84992074Y-88108151D01*
X84882527Y-88272100D01*
X84743100Y-88411527D01*
X84579151Y-88521074D01*
X84396981Y-88596532D01*
X84300285Y-88615766D01*
X84203591Y-88635000D01*
X84006409Y-88635000D01*
X83909715Y-88615766D01*
X83813019Y-88596532D01*
X83630849Y-88521074D01*
X83466900Y-88411527D01*
X83327473Y-88272100D01*
X83217926Y-88108151D01*
X83142468Y-87925981D01*
X83104000Y-87732590D01*
X83104000Y-87535410D01*
X83142468Y-87342019D01*
X83217926Y-87159849D01*
X83327473Y-86995900D01*
X83466900Y-86856473D01*
X83630849Y-86746926D01*
X83813019Y-86671468D01*
X83909715Y-86652234D01*
X84006409Y-86633000D01*
X84203591Y-86633000D01*
X84300285Y-86652234D01*
X84300285Y-86652234D01*
G37*
G36*
X81760285Y-86652234D02*
G01*
X81856981Y-86671468D01*
X82039151Y-86746926D01*
X82203100Y-86856473D01*
X82342527Y-86995900D01*
X82452074Y-87159849D01*
X82527532Y-87342019D01*
X82566000Y-87535410D01*
X82566000Y-87732590D01*
X82527532Y-87925981D01*
X82452074Y-88108151D01*
X82342527Y-88272100D01*
X82203100Y-88411527D01*
X82039151Y-88521074D01*
X81856981Y-88596532D01*
X81760285Y-88615766D01*
X81663591Y-88635000D01*
X81466409Y-88635000D01*
X81369715Y-88615766D01*
X81273019Y-88596532D01*
X81090849Y-88521074D01*
X80926900Y-88411527D01*
X80787473Y-88272100D01*
X80677926Y-88108151D01*
X80602468Y-87925981D01*
X80564000Y-87732590D01*
X80564000Y-87535410D01*
X80602468Y-87342019D01*
X80677926Y-87159849D01*
X80787473Y-86995900D01*
X80926900Y-86856473D01*
X81090849Y-86746926D01*
X81273019Y-86671468D01*
X81369715Y-86652234D01*
X81466409Y-86633000D01*
X81663591Y-86633000D01*
X81760285Y-86652234D01*
X81760285Y-86652234D01*
G37*
G36*
X76680285Y-86652234D02*
G01*
X76776981Y-86671468D01*
X76959151Y-86746926D01*
X77123100Y-86856473D01*
X77262527Y-86995900D01*
X77372074Y-87159849D01*
X77447532Y-87342019D01*
X77486000Y-87535410D01*
X77486000Y-87732590D01*
X77447532Y-87925981D01*
X77372074Y-88108151D01*
X77262527Y-88272100D01*
X77123100Y-88411527D01*
X76959151Y-88521074D01*
X76776981Y-88596532D01*
X76680285Y-88615766D01*
X76583591Y-88635000D01*
X76386409Y-88635000D01*
X76289715Y-88615766D01*
X76193019Y-88596532D01*
X76010849Y-88521074D01*
X75846900Y-88411527D01*
X75707473Y-88272100D01*
X75597926Y-88108151D01*
X75522468Y-87925981D01*
X75484000Y-87732590D01*
X75484000Y-87535410D01*
X75522468Y-87342019D01*
X75597926Y-87159849D01*
X75707473Y-86995900D01*
X75846900Y-86856473D01*
X76010849Y-86746926D01*
X76193019Y-86671468D01*
X76289715Y-86652234D01*
X76386409Y-86633000D01*
X76583591Y-86633000D01*
X76680285Y-86652234D01*
X76680285Y-86652234D01*
G37*
G36*
X79220285Y-86652234D02*
G01*
X79316981Y-86671468D01*
X79499151Y-86746926D01*
X79663100Y-86856473D01*
X79802527Y-86995900D01*
X79912074Y-87159849D01*
X79987532Y-87342019D01*
X80026000Y-87535410D01*
X80026000Y-87732590D01*
X79987532Y-87925981D01*
X79912074Y-88108151D01*
X79802527Y-88272100D01*
X79663100Y-88411527D01*
X79499151Y-88521074D01*
X79316981Y-88596532D01*
X79220285Y-88615766D01*
X79123591Y-88635000D01*
X78926409Y-88635000D01*
X78829715Y-88615766D01*
X78733019Y-88596532D01*
X78550849Y-88521074D01*
X78386900Y-88411527D01*
X78247473Y-88272100D01*
X78137926Y-88108151D01*
X78062468Y-87925981D01*
X78024000Y-87732590D01*
X78024000Y-87535410D01*
X78062468Y-87342019D01*
X78137926Y-87159849D01*
X78247473Y-86995900D01*
X78386900Y-86856473D01*
X78550849Y-86746926D01*
X78733019Y-86671468D01*
X78829715Y-86652234D01*
X78926409Y-86633000D01*
X79123591Y-86633000D01*
X79220285Y-86652234D01*
X79220285Y-86652234D01*
G37*
G36*
X74140285Y-86652234D02*
G01*
X74236981Y-86671468D01*
X74419151Y-86746926D01*
X74583100Y-86856473D01*
X74722527Y-86995900D01*
X74832074Y-87159849D01*
X74907532Y-87342019D01*
X74946000Y-87535410D01*
X74946000Y-87732590D01*
X74907532Y-87925981D01*
X74832074Y-88108151D01*
X74722527Y-88272100D01*
X74583100Y-88411527D01*
X74419151Y-88521074D01*
X74236981Y-88596532D01*
X74140285Y-88615766D01*
X74043591Y-88635000D01*
X73846409Y-88635000D01*
X73749715Y-88615766D01*
X73653019Y-88596532D01*
X73470849Y-88521074D01*
X73306900Y-88411527D01*
X73167473Y-88272100D01*
X73057926Y-88108151D01*
X72982468Y-87925981D01*
X72944000Y-87732590D01*
X72944000Y-87535410D01*
X72982468Y-87342019D01*
X73057926Y-87159849D01*
X73167473Y-86995900D01*
X73306900Y-86856473D01*
X73470849Y-86746926D01*
X73653019Y-86671468D01*
X73749715Y-86652234D01*
X73846409Y-86633000D01*
X74043591Y-86633000D01*
X74140285Y-86652234D01*
X74140285Y-86652234D01*
G37*
G36*
X77036000Y-85655000D02*
G01*
X75934000Y-85655000D01*
X75934000Y-84253000D01*
X77036000Y-84253000D01*
X77036000Y-85655000D01*
X77036000Y-85655000D01*
G37*
G36*
X79576000Y-85575000D02*
G01*
X78474000Y-85575000D01*
X78474000Y-84173000D01*
X79576000Y-84173000D01*
X79576000Y-85575000D01*
X79576000Y-85575000D01*
G37*
G36*
X84656000Y-85575000D02*
G01*
X83554000Y-85575000D01*
X83554000Y-84173000D01*
X84656000Y-84173000D01*
X84656000Y-85575000D01*
X84656000Y-85575000D01*
G37*
G36*
X82116000Y-85575000D02*
G01*
X81014000Y-85575000D01*
X81014000Y-84173000D01*
X82116000Y-84173000D01*
X82116000Y-85575000D01*
X82116000Y-85575000D01*
G37*
G36*
X74496000Y-85575000D02*
G01*
X73394000Y-85575000D01*
X73394000Y-84173000D01*
X74496000Y-84173000D01*
X74496000Y-85575000D01*
X74496000Y-85575000D01*
G37*
G36*
X91786000Y-84506000D02*
G01*
X89684000Y-84506000D01*
X89684000Y-82804000D01*
X91786000Y-82804000D01*
X91786000Y-84506000D01*
X91786000Y-84506000D01*
G37*
G36*
X87786000Y-84506000D02*
G01*
X85684000Y-84506000D01*
X85684000Y-82804000D01*
X87786000Y-82804000D01*
X87786000Y-84506000D01*
X87786000Y-84506000D01*
G37*
G36*
X77036000Y-83555000D02*
G01*
X75934000Y-83555000D01*
X75934000Y-82153000D01*
X77036000Y-82153000D01*
X77036000Y-83555000D01*
X77036000Y-83555000D01*
G37*
G36*
X74496000Y-83475000D02*
G01*
X73394000Y-83475000D01*
X73394000Y-82073000D01*
X74496000Y-82073000D01*
X74496000Y-83475000D01*
X74496000Y-83475000D01*
G37*
G36*
X79576000Y-83475000D02*
G01*
X78474000Y-83475000D01*
X78474000Y-82073000D01*
X79576000Y-82073000D01*
X79576000Y-83475000D01*
X79576000Y-83475000D01*
G37*
G36*
X82116000Y-83475000D02*
G01*
X81014000Y-83475000D01*
X81014000Y-82073000D01*
X82116000Y-82073000D01*
X82116000Y-83475000D01*
X82116000Y-83475000D01*
G37*
G36*
X84656000Y-83475000D02*
G01*
X83554000Y-83475000D01*
X83554000Y-82073000D01*
X84656000Y-82073000D01*
X84656000Y-83475000D01*
X84656000Y-83475000D01*
G37*
G36*
X100110442Y-74425518D02*
G01*
X100176627Y-74432037D01*
X100346466Y-74483557D01*
X100502991Y-74567222D01*
X100538729Y-74596552D01*
X100640186Y-74679814D01*
X100723448Y-74781271D01*
X100752778Y-74817009D01*
X100836443Y-74973534D01*
X100887963Y-75143373D01*
X100905359Y-75320000D01*
X100887963Y-75496627D01*
X100836443Y-75666466D01*
X100752778Y-75822991D01*
X100723448Y-75858729D01*
X100640186Y-75960186D01*
X100538729Y-76043448D01*
X100502991Y-76072778D01*
X100346466Y-76156443D01*
X100176627Y-76207963D01*
X100110442Y-76214482D01*
X100044260Y-76221000D01*
X99955740Y-76221000D01*
X99889558Y-76214482D01*
X99823373Y-76207963D01*
X99653534Y-76156443D01*
X99497009Y-76072778D01*
X99461271Y-76043448D01*
X99359814Y-75960186D01*
X99276552Y-75858729D01*
X99247222Y-75822991D01*
X99163557Y-75666466D01*
X99112037Y-75496627D01*
X99094641Y-75320000D01*
X99112037Y-75143373D01*
X99163557Y-74973534D01*
X99247222Y-74817009D01*
X99276552Y-74781271D01*
X99359814Y-74679814D01*
X99461271Y-74596552D01*
X99497009Y-74567222D01*
X99653534Y-74483557D01*
X99823373Y-74432037D01*
X99889558Y-74425518D01*
X99955740Y-74419000D01*
X100044260Y-74419000D01*
X100110442Y-74425518D01*
X100110442Y-74425518D01*
G37*
G36*
X95110442Y-74425518D02*
G01*
X95176627Y-74432037D01*
X95346466Y-74483557D01*
X95502991Y-74567222D01*
X95538729Y-74596552D01*
X95640186Y-74679814D01*
X95723448Y-74781271D01*
X95752778Y-74817009D01*
X95836443Y-74973534D01*
X95887963Y-75143373D01*
X95905359Y-75320000D01*
X95887963Y-75496627D01*
X95836443Y-75666466D01*
X95752778Y-75822991D01*
X95723448Y-75858729D01*
X95640186Y-75960186D01*
X95538729Y-76043448D01*
X95502991Y-76072778D01*
X95346466Y-76156443D01*
X95176627Y-76207963D01*
X95110442Y-76214482D01*
X95044260Y-76221000D01*
X94955740Y-76221000D01*
X94889558Y-76214482D01*
X94823373Y-76207963D01*
X94653534Y-76156443D01*
X94497009Y-76072778D01*
X94461271Y-76043448D01*
X94359814Y-75960186D01*
X94276552Y-75858729D01*
X94247222Y-75822991D01*
X94163557Y-75666466D01*
X94112037Y-75496627D01*
X94094641Y-75320000D01*
X94112037Y-75143373D01*
X94163557Y-74973534D01*
X94247222Y-74817009D01*
X94276552Y-74781271D01*
X94359814Y-74679814D01*
X94461271Y-74596552D01*
X94497009Y-74567222D01*
X94653534Y-74483557D01*
X94823373Y-74432037D01*
X94889558Y-74425518D01*
X94955740Y-74419000D01*
X95044260Y-74419000D01*
X95110442Y-74425518D01*
X95110442Y-74425518D01*
G37*
G36*
X60110442Y-74425518D02*
G01*
X60176627Y-74432037D01*
X60346466Y-74483557D01*
X60502991Y-74567222D01*
X60538729Y-74596552D01*
X60640186Y-74679814D01*
X60723448Y-74781271D01*
X60752778Y-74817009D01*
X60836443Y-74973534D01*
X60887963Y-75143373D01*
X60905359Y-75320000D01*
X60887963Y-75496627D01*
X60836443Y-75666466D01*
X60752778Y-75822991D01*
X60723448Y-75858729D01*
X60640186Y-75960186D01*
X60538729Y-76043448D01*
X60502991Y-76072778D01*
X60346466Y-76156443D01*
X60176627Y-76207963D01*
X60110442Y-76214482D01*
X60044260Y-76221000D01*
X59955740Y-76221000D01*
X59889558Y-76214482D01*
X59823373Y-76207963D01*
X59653534Y-76156443D01*
X59497009Y-76072778D01*
X59461271Y-76043448D01*
X59359814Y-75960186D01*
X59276552Y-75858729D01*
X59247222Y-75822991D01*
X59163557Y-75666466D01*
X59112037Y-75496627D01*
X59094641Y-75320000D01*
X59112037Y-75143373D01*
X59163557Y-74973534D01*
X59247222Y-74817009D01*
X59276552Y-74781271D01*
X59359814Y-74679814D01*
X59461271Y-74596552D01*
X59497009Y-74567222D01*
X59653534Y-74483557D01*
X59823373Y-74432037D01*
X59889558Y-74425518D01*
X59955740Y-74419000D01*
X60044260Y-74419000D01*
X60110442Y-74425518D01*
X60110442Y-74425518D01*
G37*
G36*
X55110442Y-74425518D02*
G01*
X55176627Y-74432037D01*
X55346466Y-74483557D01*
X55502991Y-74567222D01*
X55538729Y-74596552D01*
X55640186Y-74679814D01*
X55723448Y-74781271D01*
X55752778Y-74817009D01*
X55836443Y-74973534D01*
X55887963Y-75143373D01*
X55905359Y-75320000D01*
X55887963Y-75496627D01*
X55836443Y-75666466D01*
X55752778Y-75822991D01*
X55723448Y-75858729D01*
X55640186Y-75960186D01*
X55538729Y-76043448D01*
X55502991Y-76072778D01*
X55346466Y-76156443D01*
X55176627Y-76207963D01*
X55110442Y-76214482D01*
X55044260Y-76221000D01*
X54955740Y-76221000D01*
X54889558Y-76214482D01*
X54823373Y-76207963D01*
X54653534Y-76156443D01*
X54497009Y-76072778D01*
X54461271Y-76043448D01*
X54359814Y-75960186D01*
X54276552Y-75858729D01*
X54247222Y-75822991D01*
X54163557Y-75666466D01*
X54112037Y-75496627D01*
X54094641Y-75320000D01*
X54112037Y-75143373D01*
X54163557Y-74973534D01*
X54247222Y-74817009D01*
X54276552Y-74781271D01*
X54359814Y-74679814D01*
X54461271Y-74596552D01*
X54497009Y-74567222D01*
X54653534Y-74483557D01*
X54823373Y-74432037D01*
X54889558Y-74425518D01*
X54955740Y-74419000D01*
X55044260Y-74419000D01*
X55110442Y-74425518D01*
X55110442Y-74425518D01*
G37*
G36*
X80961000Y-74681000D02*
G01*
X79559000Y-74681000D01*
X79559000Y-73579000D01*
X80961000Y-73579000D01*
X80961000Y-74681000D01*
X80961000Y-74681000D01*
G37*
G36*
X78861000Y-74681000D02*
G01*
X77459000Y-74681000D01*
X77459000Y-73579000D01*
X78861000Y-73579000D01*
X78861000Y-74681000D01*
X78861000Y-74681000D01*
G37*
G36*
X76006000Y-74681000D02*
G01*
X74504000Y-74681000D01*
X74504000Y-73579000D01*
X76006000Y-73579000D01*
X76006000Y-74681000D01*
X76006000Y-74681000D01*
G37*
G36*
X73756000Y-74681000D02*
G01*
X72254000Y-74681000D01*
X72254000Y-73579000D01*
X73756000Y-73579000D01*
X73756000Y-74681000D01*
X73756000Y-74681000D01*
G37*
G36*
X55110443Y-71885519D02*
G01*
X55176627Y-71892037D01*
X55346466Y-71943557D01*
X55502991Y-72027222D01*
X55538729Y-72056552D01*
X55640186Y-72139814D01*
X55723448Y-72241271D01*
X55752778Y-72277009D01*
X55836443Y-72433534D01*
X55887963Y-72603373D01*
X55905359Y-72780000D01*
X55887963Y-72956627D01*
X55836443Y-73126466D01*
X55752778Y-73282991D01*
X55723448Y-73318729D01*
X55640186Y-73420186D01*
X55538729Y-73503448D01*
X55502991Y-73532778D01*
X55346466Y-73616443D01*
X55176627Y-73667963D01*
X55110443Y-73674481D01*
X55044260Y-73681000D01*
X54955740Y-73681000D01*
X54889557Y-73674481D01*
X54823373Y-73667963D01*
X54653534Y-73616443D01*
X54497009Y-73532778D01*
X54461271Y-73503448D01*
X54359814Y-73420186D01*
X54276552Y-73318729D01*
X54247222Y-73282991D01*
X54163557Y-73126466D01*
X54112037Y-72956627D01*
X54094641Y-72780000D01*
X54112037Y-72603373D01*
X54163557Y-72433534D01*
X54247222Y-72277009D01*
X54276552Y-72241271D01*
X54359814Y-72139814D01*
X54461271Y-72056552D01*
X54497009Y-72027222D01*
X54653534Y-71943557D01*
X54823373Y-71892037D01*
X54889557Y-71885519D01*
X54955740Y-71879000D01*
X55044260Y-71879000D01*
X55110443Y-71885519D01*
X55110443Y-71885519D01*
G37*
G36*
X95110443Y-71885519D02*
G01*
X95176627Y-71892037D01*
X95346466Y-71943557D01*
X95502991Y-72027222D01*
X95538729Y-72056552D01*
X95640186Y-72139814D01*
X95723448Y-72241271D01*
X95752778Y-72277009D01*
X95836443Y-72433534D01*
X95887963Y-72603373D01*
X95905359Y-72780000D01*
X95887963Y-72956627D01*
X95836443Y-73126466D01*
X95752778Y-73282991D01*
X95723448Y-73318729D01*
X95640186Y-73420186D01*
X95538729Y-73503448D01*
X95502991Y-73532778D01*
X95346466Y-73616443D01*
X95176627Y-73667963D01*
X95110443Y-73674481D01*
X95044260Y-73681000D01*
X94955740Y-73681000D01*
X94889557Y-73674481D01*
X94823373Y-73667963D01*
X94653534Y-73616443D01*
X94497009Y-73532778D01*
X94461271Y-73503448D01*
X94359814Y-73420186D01*
X94276552Y-73318729D01*
X94247222Y-73282991D01*
X94163557Y-73126466D01*
X94112037Y-72956627D01*
X94094641Y-72780000D01*
X94112037Y-72603373D01*
X94163557Y-72433534D01*
X94247222Y-72277009D01*
X94276552Y-72241271D01*
X94359814Y-72139814D01*
X94461271Y-72056552D01*
X94497009Y-72027222D01*
X94653534Y-71943557D01*
X94823373Y-71892037D01*
X94889557Y-71885519D01*
X94955740Y-71879000D01*
X95044260Y-71879000D01*
X95110443Y-71885519D01*
X95110443Y-71885519D01*
G37*
G36*
X60110443Y-71885519D02*
G01*
X60176627Y-71892037D01*
X60346466Y-71943557D01*
X60502991Y-72027222D01*
X60538729Y-72056552D01*
X60640186Y-72139814D01*
X60723448Y-72241271D01*
X60752778Y-72277009D01*
X60836443Y-72433534D01*
X60887963Y-72603373D01*
X60905359Y-72780000D01*
X60887963Y-72956627D01*
X60836443Y-73126466D01*
X60752778Y-73282991D01*
X60723448Y-73318729D01*
X60640186Y-73420186D01*
X60538729Y-73503448D01*
X60502991Y-73532778D01*
X60346466Y-73616443D01*
X60176627Y-73667963D01*
X60110443Y-73674481D01*
X60044260Y-73681000D01*
X59955740Y-73681000D01*
X59889557Y-73674481D01*
X59823373Y-73667963D01*
X59653534Y-73616443D01*
X59497009Y-73532778D01*
X59461271Y-73503448D01*
X59359814Y-73420186D01*
X59276552Y-73318729D01*
X59247222Y-73282991D01*
X59163557Y-73126466D01*
X59112037Y-72956627D01*
X59094641Y-72780000D01*
X59112037Y-72603373D01*
X59163557Y-72433534D01*
X59247222Y-72277009D01*
X59276552Y-72241271D01*
X59359814Y-72139814D01*
X59461271Y-72056552D01*
X59497009Y-72027222D01*
X59653534Y-71943557D01*
X59823373Y-71892037D01*
X59889557Y-71885519D01*
X59955740Y-71879000D01*
X60044260Y-71879000D01*
X60110443Y-71885519D01*
X60110443Y-71885519D01*
G37*
G36*
X100110443Y-71885519D02*
G01*
X100176627Y-71892037D01*
X100346466Y-71943557D01*
X100502991Y-72027222D01*
X100538729Y-72056552D01*
X100640186Y-72139814D01*
X100723448Y-72241271D01*
X100752778Y-72277009D01*
X100836443Y-72433534D01*
X100887963Y-72603373D01*
X100905359Y-72780000D01*
X100887963Y-72956627D01*
X100836443Y-73126466D01*
X100752778Y-73282991D01*
X100723448Y-73318729D01*
X100640186Y-73420186D01*
X100538729Y-73503448D01*
X100502991Y-73532778D01*
X100346466Y-73616443D01*
X100176627Y-73667963D01*
X100110443Y-73674481D01*
X100044260Y-73681000D01*
X99955740Y-73681000D01*
X99889557Y-73674481D01*
X99823373Y-73667963D01*
X99653534Y-73616443D01*
X99497009Y-73532778D01*
X99461271Y-73503448D01*
X99359814Y-73420186D01*
X99276552Y-73318729D01*
X99247222Y-73282991D01*
X99163557Y-73126466D01*
X99112037Y-72956627D01*
X99094641Y-72780000D01*
X99112037Y-72603373D01*
X99163557Y-72433534D01*
X99247222Y-72277009D01*
X99276552Y-72241271D01*
X99359814Y-72139814D01*
X99461271Y-72056552D01*
X99497009Y-72027222D01*
X99653534Y-71943557D01*
X99823373Y-71892037D01*
X99889557Y-71885519D01*
X99955740Y-71879000D01*
X100044260Y-71879000D01*
X100110443Y-71885519D01*
X100110443Y-71885519D01*
G37*
G36*
X60110443Y-69345519D02*
G01*
X60176627Y-69352037D01*
X60346466Y-69403557D01*
X60502991Y-69487222D01*
X60538729Y-69516552D01*
X60640186Y-69599814D01*
X60723448Y-69701271D01*
X60752778Y-69737009D01*
X60836443Y-69893534D01*
X60887963Y-70063373D01*
X60905359Y-70240000D01*
X60887963Y-70416627D01*
X60836443Y-70586466D01*
X60752778Y-70742991D01*
X60723448Y-70778729D01*
X60640186Y-70880186D01*
X60538729Y-70963448D01*
X60502991Y-70992778D01*
X60346466Y-71076443D01*
X60176627Y-71127963D01*
X60110442Y-71134482D01*
X60044260Y-71141000D01*
X59955740Y-71141000D01*
X59889558Y-71134482D01*
X59823373Y-71127963D01*
X59653534Y-71076443D01*
X59497009Y-70992778D01*
X59461271Y-70963448D01*
X59359814Y-70880186D01*
X59276552Y-70778729D01*
X59247222Y-70742991D01*
X59163557Y-70586466D01*
X59112037Y-70416627D01*
X59094641Y-70240000D01*
X59112037Y-70063373D01*
X59163557Y-69893534D01*
X59247222Y-69737009D01*
X59276552Y-69701271D01*
X59359814Y-69599814D01*
X59461271Y-69516552D01*
X59497009Y-69487222D01*
X59653534Y-69403557D01*
X59823373Y-69352037D01*
X59889557Y-69345519D01*
X59955740Y-69339000D01*
X60044260Y-69339000D01*
X60110443Y-69345519D01*
X60110443Y-69345519D01*
G37*
G36*
X95110443Y-69345519D02*
G01*
X95176627Y-69352037D01*
X95346466Y-69403557D01*
X95502991Y-69487222D01*
X95538729Y-69516552D01*
X95640186Y-69599814D01*
X95723448Y-69701271D01*
X95752778Y-69737009D01*
X95836443Y-69893534D01*
X95887963Y-70063373D01*
X95905359Y-70240000D01*
X95887963Y-70416627D01*
X95836443Y-70586466D01*
X95752778Y-70742991D01*
X95723448Y-70778729D01*
X95640186Y-70880186D01*
X95538729Y-70963448D01*
X95502991Y-70992778D01*
X95346466Y-71076443D01*
X95176627Y-71127963D01*
X95110442Y-71134482D01*
X95044260Y-71141000D01*
X94955740Y-71141000D01*
X94889558Y-71134482D01*
X94823373Y-71127963D01*
X94653534Y-71076443D01*
X94497009Y-70992778D01*
X94461271Y-70963448D01*
X94359814Y-70880186D01*
X94276552Y-70778729D01*
X94247222Y-70742991D01*
X94163557Y-70586466D01*
X94112037Y-70416627D01*
X94094641Y-70240000D01*
X94112037Y-70063373D01*
X94163557Y-69893534D01*
X94247222Y-69737009D01*
X94276552Y-69701271D01*
X94359814Y-69599814D01*
X94461271Y-69516552D01*
X94497009Y-69487222D01*
X94653534Y-69403557D01*
X94823373Y-69352037D01*
X94889557Y-69345519D01*
X94955740Y-69339000D01*
X95044260Y-69339000D01*
X95110443Y-69345519D01*
X95110443Y-69345519D01*
G37*
G36*
X55110443Y-69345519D02*
G01*
X55176627Y-69352037D01*
X55346466Y-69403557D01*
X55502991Y-69487222D01*
X55538729Y-69516552D01*
X55640186Y-69599814D01*
X55723448Y-69701271D01*
X55752778Y-69737009D01*
X55836443Y-69893534D01*
X55887963Y-70063373D01*
X55905359Y-70240000D01*
X55887963Y-70416627D01*
X55836443Y-70586466D01*
X55752778Y-70742991D01*
X55723448Y-70778729D01*
X55640186Y-70880186D01*
X55538729Y-70963448D01*
X55502991Y-70992778D01*
X55346466Y-71076443D01*
X55176627Y-71127963D01*
X55110442Y-71134482D01*
X55044260Y-71141000D01*
X54955740Y-71141000D01*
X54889558Y-71134482D01*
X54823373Y-71127963D01*
X54653534Y-71076443D01*
X54497009Y-70992778D01*
X54461271Y-70963448D01*
X54359814Y-70880186D01*
X54276552Y-70778729D01*
X54247222Y-70742991D01*
X54163557Y-70586466D01*
X54112037Y-70416627D01*
X54094641Y-70240000D01*
X54112037Y-70063373D01*
X54163557Y-69893534D01*
X54247222Y-69737009D01*
X54276552Y-69701271D01*
X54359814Y-69599814D01*
X54461271Y-69516552D01*
X54497009Y-69487222D01*
X54653534Y-69403557D01*
X54823373Y-69352037D01*
X54889557Y-69345519D01*
X54955740Y-69339000D01*
X55044260Y-69339000D01*
X55110443Y-69345519D01*
X55110443Y-69345519D01*
G37*
G36*
X100110443Y-69345519D02*
G01*
X100176627Y-69352037D01*
X100346466Y-69403557D01*
X100502991Y-69487222D01*
X100538729Y-69516552D01*
X100640186Y-69599814D01*
X100723448Y-69701271D01*
X100752778Y-69737009D01*
X100836443Y-69893534D01*
X100887963Y-70063373D01*
X100905359Y-70240000D01*
X100887963Y-70416627D01*
X100836443Y-70586466D01*
X100752778Y-70742991D01*
X100723448Y-70778729D01*
X100640186Y-70880186D01*
X100538729Y-70963448D01*
X100502991Y-70992778D01*
X100346466Y-71076443D01*
X100176627Y-71127963D01*
X100110442Y-71134482D01*
X100044260Y-71141000D01*
X99955740Y-71141000D01*
X99889558Y-71134482D01*
X99823373Y-71127963D01*
X99653534Y-71076443D01*
X99497009Y-70992778D01*
X99461271Y-70963448D01*
X99359814Y-70880186D01*
X99276552Y-70778729D01*
X99247222Y-70742991D01*
X99163557Y-70586466D01*
X99112037Y-70416627D01*
X99094641Y-70240000D01*
X99112037Y-70063373D01*
X99163557Y-69893534D01*
X99247222Y-69737009D01*
X99276552Y-69701271D01*
X99359814Y-69599814D01*
X99461271Y-69516552D01*
X99497009Y-69487222D01*
X99653534Y-69403557D01*
X99823373Y-69352037D01*
X99889557Y-69345519D01*
X99955740Y-69339000D01*
X100044260Y-69339000D01*
X100110443Y-69345519D01*
X100110443Y-69345519D01*
G37*
G36*
X100110443Y-66805519D02*
G01*
X100176627Y-66812037D01*
X100346466Y-66863557D01*
X100502991Y-66947222D01*
X100538729Y-66976552D01*
X100640186Y-67059814D01*
X100723448Y-67161271D01*
X100752778Y-67197009D01*
X100836443Y-67353534D01*
X100887963Y-67523373D01*
X100905359Y-67700000D01*
X100887963Y-67876627D01*
X100836443Y-68046466D01*
X100752778Y-68202991D01*
X100723448Y-68238729D01*
X100640186Y-68340186D01*
X100538729Y-68423448D01*
X100502991Y-68452778D01*
X100346466Y-68536443D01*
X100176627Y-68587963D01*
X100110443Y-68594481D01*
X100044260Y-68601000D01*
X99955740Y-68601000D01*
X99889557Y-68594481D01*
X99823373Y-68587963D01*
X99653534Y-68536443D01*
X99497009Y-68452778D01*
X99461271Y-68423448D01*
X99359814Y-68340186D01*
X99276552Y-68238729D01*
X99247222Y-68202991D01*
X99163557Y-68046466D01*
X99112037Y-67876627D01*
X99094641Y-67700000D01*
X99112037Y-67523373D01*
X99163557Y-67353534D01*
X99247222Y-67197009D01*
X99276552Y-67161271D01*
X99359814Y-67059814D01*
X99461271Y-66976552D01*
X99497009Y-66947222D01*
X99653534Y-66863557D01*
X99823373Y-66812037D01*
X99889557Y-66805519D01*
X99955740Y-66799000D01*
X100044260Y-66799000D01*
X100110443Y-66805519D01*
X100110443Y-66805519D01*
G37*
G36*
X95110443Y-66805519D02*
G01*
X95176627Y-66812037D01*
X95346466Y-66863557D01*
X95502991Y-66947222D01*
X95538729Y-66976552D01*
X95640186Y-67059814D01*
X95723448Y-67161271D01*
X95752778Y-67197009D01*
X95836443Y-67353534D01*
X95887963Y-67523373D01*
X95905359Y-67700000D01*
X95887963Y-67876627D01*
X95836443Y-68046466D01*
X95752778Y-68202991D01*
X95723448Y-68238729D01*
X95640186Y-68340186D01*
X95538729Y-68423448D01*
X95502991Y-68452778D01*
X95346466Y-68536443D01*
X95176627Y-68587963D01*
X95110443Y-68594481D01*
X95044260Y-68601000D01*
X94955740Y-68601000D01*
X94889557Y-68594481D01*
X94823373Y-68587963D01*
X94653534Y-68536443D01*
X94497009Y-68452778D01*
X94461271Y-68423448D01*
X94359814Y-68340186D01*
X94276552Y-68238729D01*
X94247222Y-68202991D01*
X94163557Y-68046466D01*
X94112037Y-67876627D01*
X94094641Y-67700000D01*
X94112037Y-67523373D01*
X94163557Y-67353534D01*
X94247222Y-67197009D01*
X94276552Y-67161271D01*
X94359814Y-67059814D01*
X94461271Y-66976552D01*
X94497009Y-66947222D01*
X94653534Y-66863557D01*
X94823373Y-66812037D01*
X94889557Y-66805519D01*
X94955740Y-66799000D01*
X95044260Y-66799000D01*
X95110443Y-66805519D01*
X95110443Y-66805519D01*
G37*
G36*
X55110443Y-66805519D02*
G01*
X55176627Y-66812037D01*
X55346466Y-66863557D01*
X55502991Y-66947222D01*
X55538729Y-66976552D01*
X55640186Y-67059814D01*
X55723448Y-67161271D01*
X55752778Y-67197009D01*
X55836443Y-67353534D01*
X55887963Y-67523373D01*
X55905359Y-67700000D01*
X55887963Y-67876627D01*
X55836443Y-68046466D01*
X55752778Y-68202991D01*
X55723448Y-68238729D01*
X55640186Y-68340186D01*
X55538729Y-68423448D01*
X55502991Y-68452778D01*
X55346466Y-68536443D01*
X55176627Y-68587963D01*
X55110443Y-68594481D01*
X55044260Y-68601000D01*
X54955740Y-68601000D01*
X54889557Y-68594481D01*
X54823373Y-68587963D01*
X54653534Y-68536443D01*
X54497009Y-68452778D01*
X54461271Y-68423448D01*
X54359814Y-68340186D01*
X54276552Y-68238729D01*
X54247222Y-68202991D01*
X54163557Y-68046466D01*
X54112037Y-67876627D01*
X54094641Y-67700000D01*
X54112037Y-67523373D01*
X54163557Y-67353534D01*
X54247222Y-67197009D01*
X54276552Y-67161271D01*
X54359814Y-67059814D01*
X54461271Y-66976552D01*
X54497009Y-66947222D01*
X54653534Y-66863557D01*
X54823373Y-66812037D01*
X54889557Y-66805519D01*
X54955740Y-66799000D01*
X55044260Y-66799000D01*
X55110443Y-66805519D01*
X55110443Y-66805519D01*
G37*
G36*
X60110443Y-66805519D02*
G01*
X60176627Y-66812037D01*
X60346466Y-66863557D01*
X60502991Y-66947222D01*
X60538729Y-66976552D01*
X60640186Y-67059814D01*
X60723448Y-67161271D01*
X60752778Y-67197009D01*
X60836443Y-67353534D01*
X60887963Y-67523373D01*
X60905359Y-67700000D01*
X60887963Y-67876627D01*
X60836443Y-68046466D01*
X60752778Y-68202991D01*
X60723448Y-68238729D01*
X60640186Y-68340186D01*
X60538729Y-68423448D01*
X60502991Y-68452778D01*
X60346466Y-68536443D01*
X60176627Y-68587963D01*
X60110443Y-68594481D01*
X60044260Y-68601000D01*
X59955740Y-68601000D01*
X59889557Y-68594481D01*
X59823373Y-68587963D01*
X59653534Y-68536443D01*
X59497009Y-68452778D01*
X59461271Y-68423448D01*
X59359814Y-68340186D01*
X59276552Y-68238729D01*
X59247222Y-68202991D01*
X59163557Y-68046466D01*
X59112037Y-67876627D01*
X59094641Y-67700000D01*
X59112037Y-67523373D01*
X59163557Y-67353534D01*
X59247222Y-67197009D01*
X59276552Y-67161271D01*
X59359814Y-67059814D01*
X59461271Y-66976552D01*
X59497009Y-66947222D01*
X59653534Y-66863557D01*
X59823373Y-66812037D01*
X59889557Y-66805519D01*
X59955740Y-66799000D01*
X60044260Y-66799000D01*
X60110443Y-66805519D01*
X60110443Y-66805519D01*
G37*
G36*
X81741000Y-68131000D02*
G01*
X79839000Y-68131000D01*
X79839000Y-67429000D01*
X81741000Y-67429000D01*
X81741000Y-68131000D01*
X81741000Y-68131000D01*
G37*
G36*
X76041000Y-68131000D02*
G01*
X74139000Y-68131000D01*
X74139000Y-67429000D01*
X76041000Y-67429000D01*
X76041000Y-68131000D01*
X76041000Y-68131000D01*
G37*
G36*
X76041000Y-66861000D02*
G01*
X74139000Y-66861000D01*
X74139000Y-66159000D01*
X76041000Y-66159000D01*
X76041000Y-66861000D01*
X76041000Y-66861000D01*
G37*
G36*
X81741000Y-66861000D02*
G01*
X79839000Y-66861000D01*
X79839000Y-66159000D01*
X81741000Y-66159000D01*
X81741000Y-66861000D01*
X81741000Y-66861000D01*
G37*
G36*
X88951000Y-66386000D02*
G01*
X87249000Y-66386000D01*
X87249000Y-64284000D01*
X88951000Y-64284000D01*
X88951000Y-66386000D01*
X88951000Y-66386000D01*
G37*
G36*
X60110442Y-64265518D02*
G01*
X60176627Y-64272037D01*
X60346466Y-64323557D01*
X60502991Y-64407222D01*
X60538729Y-64436552D01*
X60640186Y-64519814D01*
X60723448Y-64621271D01*
X60752778Y-64657009D01*
X60836443Y-64813534D01*
X60887963Y-64983373D01*
X60905359Y-65160000D01*
X60887963Y-65336627D01*
X60836443Y-65506466D01*
X60752778Y-65662991D01*
X60723448Y-65698729D01*
X60640186Y-65800186D01*
X60538729Y-65883448D01*
X60502991Y-65912778D01*
X60346466Y-65996443D01*
X60176627Y-66047963D01*
X60110442Y-66054482D01*
X60044260Y-66061000D01*
X59955740Y-66061000D01*
X59889558Y-66054482D01*
X59823373Y-66047963D01*
X59653534Y-65996443D01*
X59497009Y-65912778D01*
X59461271Y-65883448D01*
X59359814Y-65800186D01*
X59276552Y-65698729D01*
X59247222Y-65662991D01*
X59163557Y-65506466D01*
X59112037Y-65336627D01*
X59094641Y-65160000D01*
X59112037Y-64983373D01*
X59163557Y-64813534D01*
X59247222Y-64657009D01*
X59276552Y-64621271D01*
X59359814Y-64519814D01*
X59461271Y-64436552D01*
X59497009Y-64407222D01*
X59653534Y-64323557D01*
X59823373Y-64272037D01*
X59889558Y-64265518D01*
X59955740Y-64259000D01*
X60044260Y-64259000D01*
X60110442Y-64265518D01*
X60110442Y-64265518D01*
G37*
G36*
X55110442Y-64265518D02*
G01*
X55176627Y-64272037D01*
X55346466Y-64323557D01*
X55502991Y-64407222D01*
X55538729Y-64436552D01*
X55640186Y-64519814D01*
X55723448Y-64621271D01*
X55752778Y-64657009D01*
X55836443Y-64813534D01*
X55887963Y-64983373D01*
X55905359Y-65160000D01*
X55887963Y-65336627D01*
X55836443Y-65506466D01*
X55752778Y-65662991D01*
X55723448Y-65698729D01*
X55640186Y-65800186D01*
X55538729Y-65883448D01*
X55502991Y-65912778D01*
X55346466Y-65996443D01*
X55176627Y-66047963D01*
X55110442Y-66054482D01*
X55044260Y-66061000D01*
X54955740Y-66061000D01*
X54889558Y-66054482D01*
X54823373Y-66047963D01*
X54653534Y-65996443D01*
X54497009Y-65912778D01*
X54461271Y-65883448D01*
X54359814Y-65800186D01*
X54276552Y-65698729D01*
X54247222Y-65662991D01*
X54163557Y-65506466D01*
X54112037Y-65336627D01*
X54094641Y-65160000D01*
X54112037Y-64983373D01*
X54163557Y-64813534D01*
X54247222Y-64657009D01*
X54276552Y-64621271D01*
X54359814Y-64519814D01*
X54461271Y-64436552D01*
X54497009Y-64407222D01*
X54653534Y-64323557D01*
X54823373Y-64272037D01*
X54889558Y-64265518D01*
X54955740Y-64259000D01*
X55044260Y-64259000D01*
X55110442Y-64265518D01*
X55110442Y-64265518D01*
G37*
G36*
X95110442Y-64265518D02*
G01*
X95176627Y-64272037D01*
X95346466Y-64323557D01*
X95502991Y-64407222D01*
X95538729Y-64436552D01*
X95640186Y-64519814D01*
X95723448Y-64621271D01*
X95752778Y-64657009D01*
X95836443Y-64813534D01*
X95887963Y-64983373D01*
X95905359Y-65160000D01*
X95887963Y-65336627D01*
X95836443Y-65506466D01*
X95752778Y-65662991D01*
X95723448Y-65698729D01*
X95640186Y-65800186D01*
X95538729Y-65883448D01*
X95502991Y-65912778D01*
X95346466Y-65996443D01*
X95176627Y-66047963D01*
X95110442Y-66054482D01*
X95044260Y-66061000D01*
X94955740Y-66061000D01*
X94889558Y-66054482D01*
X94823373Y-66047963D01*
X94653534Y-65996443D01*
X94497009Y-65912778D01*
X94461271Y-65883448D01*
X94359814Y-65800186D01*
X94276552Y-65698729D01*
X94247222Y-65662991D01*
X94163557Y-65506466D01*
X94112037Y-65336627D01*
X94094641Y-65160000D01*
X94112037Y-64983373D01*
X94163557Y-64813534D01*
X94247222Y-64657009D01*
X94276552Y-64621271D01*
X94359814Y-64519814D01*
X94461271Y-64436552D01*
X94497009Y-64407222D01*
X94653534Y-64323557D01*
X94823373Y-64272037D01*
X94889558Y-64265518D01*
X94955740Y-64259000D01*
X95044260Y-64259000D01*
X95110442Y-64265518D01*
X95110442Y-64265518D01*
G37*
G36*
X100110442Y-64265518D02*
G01*
X100176627Y-64272037D01*
X100346466Y-64323557D01*
X100502991Y-64407222D01*
X100538729Y-64436552D01*
X100640186Y-64519814D01*
X100723448Y-64621271D01*
X100752778Y-64657009D01*
X100836443Y-64813534D01*
X100887963Y-64983373D01*
X100905359Y-65160000D01*
X100887963Y-65336627D01*
X100836443Y-65506466D01*
X100752778Y-65662991D01*
X100723448Y-65698729D01*
X100640186Y-65800186D01*
X100538729Y-65883448D01*
X100502991Y-65912778D01*
X100346466Y-65996443D01*
X100176627Y-66047963D01*
X100110442Y-66054482D01*
X100044260Y-66061000D01*
X99955740Y-66061000D01*
X99889558Y-66054482D01*
X99823373Y-66047963D01*
X99653534Y-65996443D01*
X99497009Y-65912778D01*
X99461271Y-65883448D01*
X99359814Y-65800186D01*
X99276552Y-65698729D01*
X99247222Y-65662991D01*
X99163557Y-65506466D01*
X99112037Y-65336627D01*
X99094641Y-65160000D01*
X99112037Y-64983373D01*
X99163557Y-64813534D01*
X99247222Y-64657009D01*
X99276552Y-64621271D01*
X99359814Y-64519814D01*
X99461271Y-64436552D01*
X99497009Y-64407222D01*
X99653534Y-64323557D01*
X99823373Y-64272037D01*
X99889558Y-64265518D01*
X99955740Y-64259000D01*
X100044260Y-64259000D01*
X100110442Y-64265518D01*
X100110442Y-64265518D01*
G37*
G36*
X81741000Y-65591000D02*
G01*
X79839000Y-65591000D01*
X79839000Y-64889000D01*
X81741000Y-64889000D01*
X81741000Y-65591000D01*
X81741000Y-65591000D01*
G37*
G36*
X76041000Y-65591000D02*
G01*
X74139000Y-65591000D01*
X74139000Y-64889000D01*
X76041000Y-64889000D01*
X76041000Y-65591000D01*
X76041000Y-65591000D01*
G37*
G36*
X67061000Y-64451000D02*
G01*
X65959000Y-64451000D01*
X65959000Y-63049000D01*
X67061000Y-63049000D01*
X67061000Y-64451000D01*
X67061000Y-64451000D01*
G37*
G36*
X76041000Y-64321000D02*
G01*
X74139000Y-64321000D01*
X74139000Y-63619000D01*
X76041000Y-63619000D01*
X76041000Y-64321000D01*
X76041000Y-64321000D01*
G37*
G36*
X81741000Y-64321000D02*
G01*
X79839000Y-64321000D01*
X79839000Y-63619000D01*
X81741000Y-63619000D01*
X81741000Y-64321000D01*
X81741000Y-64321000D01*
G37*
G36*
X95110443Y-61725519D02*
G01*
X95176627Y-61732037D01*
X95346466Y-61783557D01*
X95502991Y-61867222D01*
X95538729Y-61896552D01*
X95640186Y-61979814D01*
X95723448Y-62081271D01*
X95752778Y-62117009D01*
X95836443Y-62273534D01*
X95887963Y-62443373D01*
X95905359Y-62620000D01*
X95887963Y-62796627D01*
X95836443Y-62966466D01*
X95752778Y-63122991D01*
X95723448Y-63158729D01*
X95640186Y-63260186D01*
X95538729Y-63343448D01*
X95502991Y-63372778D01*
X95346466Y-63456443D01*
X95176627Y-63507963D01*
X95110443Y-63514481D01*
X95044260Y-63521000D01*
X94955740Y-63521000D01*
X94889557Y-63514481D01*
X94823373Y-63507963D01*
X94653534Y-63456443D01*
X94497009Y-63372778D01*
X94461271Y-63343448D01*
X94359814Y-63260186D01*
X94276552Y-63158729D01*
X94247222Y-63122991D01*
X94163557Y-62966466D01*
X94112037Y-62796627D01*
X94094641Y-62620000D01*
X94112037Y-62443373D01*
X94163557Y-62273534D01*
X94247222Y-62117009D01*
X94276552Y-62081271D01*
X94359814Y-61979814D01*
X94461271Y-61896552D01*
X94497009Y-61867222D01*
X94653534Y-61783557D01*
X94823373Y-61732037D01*
X94889557Y-61725519D01*
X94955740Y-61719000D01*
X95044260Y-61719000D01*
X95110443Y-61725519D01*
X95110443Y-61725519D01*
G37*
G36*
X60110443Y-61725519D02*
G01*
X60176627Y-61732037D01*
X60346466Y-61783557D01*
X60502991Y-61867222D01*
X60538729Y-61896552D01*
X60640186Y-61979814D01*
X60723448Y-62081271D01*
X60752778Y-62117009D01*
X60836443Y-62273534D01*
X60887963Y-62443373D01*
X60905359Y-62620000D01*
X60887963Y-62796627D01*
X60836443Y-62966466D01*
X60752778Y-63122991D01*
X60723448Y-63158729D01*
X60640186Y-63260186D01*
X60538729Y-63343448D01*
X60502991Y-63372778D01*
X60346466Y-63456443D01*
X60176627Y-63507963D01*
X60110443Y-63514481D01*
X60044260Y-63521000D01*
X59955740Y-63521000D01*
X59889557Y-63514481D01*
X59823373Y-63507963D01*
X59653534Y-63456443D01*
X59497009Y-63372778D01*
X59461271Y-63343448D01*
X59359814Y-63260186D01*
X59276552Y-63158729D01*
X59247222Y-63122991D01*
X59163557Y-62966466D01*
X59112037Y-62796627D01*
X59094641Y-62620000D01*
X59112037Y-62443373D01*
X59163557Y-62273534D01*
X59247222Y-62117009D01*
X59276552Y-62081271D01*
X59359814Y-61979814D01*
X59461271Y-61896552D01*
X59497009Y-61867222D01*
X59653534Y-61783557D01*
X59823373Y-61732037D01*
X59889557Y-61725519D01*
X59955740Y-61719000D01*
X60044260Y-61719000D01*
X60110443Y-61725519D01*
X60110443Y-61725519D01*
G37*
G36*
X55110443Y-61725519D02*
G01*
X55176627Y-61732037D01*
X55346466Y-61783557D01*
X55502991Y-61867222D01*
X55538729Y-61896552D01*
X55640186Y-61979814D01*
X55723448Y-62081271D01*
X55752778Y-62117009D01*
X55836443Y-62273534D01*
X55887963Y-62443373D01*
X55905359Y-62620000D01*
X55887963Y-62796627D01*
X55836443Y-62966466D01*
X55752778Y-63122991D01*
X55723448Y-63158729D01*
X55640186Y-63260186D01*
X55538729Y-63343448D01*
X55502991Y-63372778D01*
X55346466Y-63456443D01*
X55176627Y-63507963D01*
X55110443Y-63514481D01*
X55044260Y-63521000D01*
X54955740Y-63521000D01*
X54889557Y-63514481D01*
X54823373Y-63507963D01*
X54653534Y-63456443D01*
X54497009Y-63372778D01*
X54461271Y-63343448D01*
X54359814Y-63260186D01*
X54276552Y-63158729D01*
X54247222Y-63122991D01*
X54163557Y-62966466D01*
X54112037Y-62796627D01*
X54094641Y-62620000D01*
X54112037Y-62443373D01*
X54163557Y-62273534D01*
X54247222Y-62117009D01*
X54276552Y-62081271D01*
X54359814Y-61979814D01*
X54461271Y-61896552D01*
X54497009Y-61867222D01*
X54653534Y-61783557D01*
X54823373Y-61732037D01*
X54889557Y-61725519D01*
X54955740Y-61719000D01*
X55044260Y-61719000D01*
X55110443Y-61725519D01*
X55110443Y-61725519D01*
G37*
G36*
X100110443Y-61725519D02*
G01*
X100176627Y-61732037D01*
X100346466Y-61783557D01*
X100502991Y-61867222D01*
X100538729Y-61896552D01*
X100640186Y-61979814D01*
X100723448Y-62081271D01*
X100752778Y-62117009D01*
X100836443Y-62273534D01*
X100887963Y-62443373D01*
X100905359Y-62620000D01*
X100887963Y-62796627D01*
X100836443Y-62966466D01*
X100752778Y-63122991D01*
X100723448Y-63158729D01*
X100640186Y-63260186D01*
X100538729Y-63343448D01*
X100502991Y-63372778D01*
X100346466Y-63456443D01*
X100176627Y-63507963D01*
X100110443Y-63514481D01*
X100044260Y-63521000D01*
X99955740Y-63521000D01*
X99889557Y-63514481D01*
X99823373Y-63507963D01*
X99653534Y-63456443D01*
X99497009Y-63372778D01*
X99461271Y-63343448D01*
X99359814Y-63260186D01*
X99276552Y-63158729D01*
X99247222Y-63122991D01*
X99163557Y-62966466D01*
X99112037Y-62796627D01*
X99094641Y-62620000D01*
X99112037Y-62443373D01*
X99163557Y-62273534D01*
X99247222Y-62117009D01*
X99276552Y-62081271D01*
X99359814Y-61979814D01*
X99461271Y-61896552D01*
X99497009Y-61867222D01*
X99653534Y-61783557D01*
X99823373Y-61732037D01*
X99889557Y-61725519D01*
X99955740Y-61719000D01*
X100044260Y-61719000D01*
X100110443Y-61725519D01*
X100110443Y-61725519D01*
G37*
G36*
X76041000Y-63051000D02*
G01*
X74139000Y-63051000D01*
X74139000Y-62349000D01*
X76041000Y-62349000D01*
X76041000Y-63051000D01*
X76041000Y-63051000D01*
G37*
G36*
X81741000Y-63051000D02*
G01*
X79839000Y-63051000D01*
X79839000Y-62349000D01*
X81741000Y-62349000D01*
X81741000Y-63051000D01*
X81741000Y-63051000D01*
G37*
G36*
X88951000Y-62386000D02*
G01*
X87249000Y-62386000D01*
X87249000Y-60284000D01*
X88951000Y-60284000D01*
X88951000Y-62386000D01*
X88951000Y-62386000D01*
G37*
G36*
X67061000Y-62351000D02*
G01*
X65959000Y-62351000D01*
X65959000Y-60949000D01*
X67061000Y-60949000D01*
X67061000Y-62351000D01*
X67061000Y-62351000D01*
G37*
G36*
X81741000Y-61781000D02*
G01*
X79839000Y-61781000D01*
X79839000Y-61079000D01*
X81741000Y-61079000D01*
X81741000Y-61781000D01*
X81741000Y-61781000D01*
G37*
G36*
X76041000Y-61781000D02*
G01*
X74139000Y-61781000D01*
X74139000Y-61079000D01*
X76041000Y-61079000D01*
X76041000Y-61781000D01*
X76041000Y-61781000D01*
G37*
G36*
X95110442Y-59185518D02*
G01*
X95176627Y-59192037D01*
X95346466Y-59243557D01*
X95502991Y-59327222D01*
X95538729Y-59356552D01*
X95640186Y-59439814D01*
X95723448Y-59541271D01*
X95752778Y-59577009D01*
X95836443Y-59733534D01*
X95887963Y-59903373D01*
X95905359Y-60080000D01*
X95887963Y-60256627D01*
X95836443Y-60426466D01*
X95752778Y-60582991D01*
X95723448Y-60618729D01*
X95640186Y-60720186D01*
X95538729Y-60803448D01*
X95502991Y-60832778D01*
X95346466Y-60916443D01*
X95176627Y-60967963D01*
X95110443Y-60974481D01*
X95044260Y-60981000D01*
X94955740Y-60981000D01*
X94889557Y-60974481D01*
X94823373Y-60967963D01*
X94653534Y-60916443D01*
X94497009Y-60832778D01*
X94461271Y-60803448D01*
X94359814Y-60720186D01*
X94276552Y-60618729D01*
X94247222Y-60582991D01*
X94163557Y-60426466D01*
X94112037Y-60256627D01*
X94094641Y-60080000D01*
X94112037Y-59903373D01*
X94163557Y-59733534D01*
X94247222Y-59577009D01*
X94276552Y-59541271D01*
X94359814Y-59439814D01*
X94461271Y-59356552D01*
X94497009Y-59327222D01*
X94653534Y-59243557D01*
X94823373Y-59192037D01*
X94889558Y-59185518D01*
X94955740Y-59179000D01*
X95044260Y-59179000D01*
X95110442Y-59185518D01*
X95110442Y-59185518D01*
G37*
G36*
X60110442Y-59185518D02*
G01*
X60176627Y-59192037D01*
X60346466Y-59243557D01*
X60502991Y-59327222D01*
X60538729Y-59356552D01*
X60640186Y-59439814D01*
X60723448Y-59541271D01*
X60752778Y-59577009D01*
X60836443Y-59733534D01*
X60887963Y-59903373D01*
X60905359Y-60080000D01*
X60887963Y-60256627D01*
X60836443Y-60426466D01*
X60752778Y-60582991D01*
X60723448Y-60618729D01*
X60640186Y-60720186D01*
X60538729Y-60803448D01*
X60502991Y-60832778D01*
X60346466Y-60916443D01*
X60176627Y-60967963D01*
X60110443Y-60974481D01*
X60044260Y-60981000D01*
X59955740Y-60981000D01*
X59889557Y-60974481D01*
X59823373Y-60967963D01*
X59653534Y-60916443D01*
X59497009Y-60832778D01*
X59461271Y-60803448D01*
X59359814Y-60720186D01*
X59276552Y-60618729D01*
X59247222Y-60582991D01*
X59163557Y-60426466D01*
X59112037Y-60256627D01*
X59094641Y-60080000D01*
X59112037Y-59903373D01*
X59163557Y-59733534D01*
X59247222Y-59577009D01*
X59276552Y-59541271D01*
X59359814Y-59439814D01*
X59461271Y-59356552D01*
X59497009Y-59327222D01*
X59653534Y-59243557D01*
X59823373Y-59192037D01*
X59889558Y-59185518D01*
X59955740Y-59179000D01*
X60044260Y-59179000D01*
X60110442Y-59185518D01*
X60110442Y-59185518D01*
G37*
G36*
X100110442Y-59185518D02*
G01*
X100176627Y-59192037D01*
X100346466Y-59243557D01*
X100502991Y-59327222D01*
X100538729Y-59356552D01*
X100640186Y-59439814D01*
X100723448Y-59541271D01*
X100752778Y-59577009D01*
X100836443Y-59733534D01*
X100887963Y-59903373D01*
X100905359Y-60080000D01*
X100887963Y-60256627D01*
X100836443Y-60426466D01*
X100752778Y-60582991D01*
X100723448Y-60618729D01*
X100640186Y-60720186D01*
X100538729Y-60803448D01*
X100502991Y-60832778D01*
X100346466Y-60916443D01*
X100176627Y-60967963D01*
X100110443Y-60974481D01*
X100044260Y-60981000D01*
X99955740Y-60981000D01*
X99889557Y-60974481D01*
X99823373Y-60967963D01*
X99653534Y-60916443D01*
X99497009Y-60832778D01*
X99461271Y-60803448D01*
X99359814Y-60720186D01*
X99276552Y-60618729D01*
X99247222Y-60582991D01*
X99163557Y-60426466D01*
X99112037Y-60256627D01*
X99094641Y-60080000D01*
X99112037Y-59903373D01*
X99163557Y-59733534D01*
X99247222Y-59577009D01*
X99276552Y-59541271D01*
X99359814Y-59439814D01*
X99461271Y-59356552D01*
X99497009Y-59327222D01*
X99653534Y-59243557D01*
X99823373Y-59192037D01*
X99889558Y-59185518D01*
X99955740Y-59179000D01*
X100044260Y-59179000D01*
X100110442Y-59185518D01*
X100110442Y-59185518D01*
G37*
G36*
X55110442Y-59185518D02*
G01*
X55176627Y-59192037D01*
X55346466Y-59243557D01*
X55502991Y-59327222D01*
X55538729Y-59356552D01*
X55640186Y-59439814D01*
X55723448Y-59541271D01*
X55752778Y-59577009D01*
X55836443Y-59733534D01*
X55887963Y-59903373D01*
X55905359Y-60080000D01*
X55887963Y-60256627D01*
X55836443Y-60426466D01*
X55752778Y-60582991D01*
X55723448Y-60618729D01*
X55640186Y-60720186D01*
X55538729Y-60803448D01*
X55502991Y-60832778D01*
X55346466Y-60916443D01*
X55176627Y-60967963D01*
X55110443Y-60974481D01*
X55044260Y-60981000D01*
X54955740Y-60981000D01*
X54889557Y-60974481D01*
X54823373Y-60967963D01*
X54653534Y-60916443D01*
X54497009Y-60832778D01*
X54461271Y-60803448D01*
X54359814Y-60720186D01*
X54276552Y-60618729D01*
X54247222Y-60582991D01*
X54163557Y-60426466D01*
X54112037Y-60256627D01*
X54094641Y-60080000D01*
X54112037Y-59903373D01*
X54163557Y-59733534D01*
X54247222Y-59577009D01*
X54276552Y-59541271D01*
X54359814Y-59439814D01*
X54461271Y-59356552D01*
X54497009Y-59327222D01*
X54653534Y-59243557D01*
X54823373Y-59192037D01*
X54889558Y-59185518D01*
X54955740Y-59179000D01*
X55044260Y-59179000D01*
X55110442Y-59185518D01*
X55110442Y-59185518D01*
G37*
G36*
X76041000Y-60511000D02*
G01*
X74139000Y-60511000D01*
X74139000Y-59809000D01*
X76041000Y-59809000D01*
X76041000Y-60511000D01*
X76041000Y-60511000D01*
G37*
G36*
X81741000Y-60511000D02*
G01*
X79839000Y-60511000D01*
X79839000Y-59809000D01*
X81741000Y-59809000D01*
X81741000Y-60511000D01*
X81741000Y-60511000D01*
G37*
G36*
X100110443Y-56645519D02*
G01*
X100176627Y-56652037D01*
X100346466Y-56703557D01*
X100502991Y-56787222D01*
X100538729Y-56816552D01*
X100640186Y-56899814D01*
X100723448Y-57001271D01*
X100752778Y-57037009D01*
X100836443Y-57193534D01*
X100887963Y-57363373D01*
X100905359Y-57540000D01*
X100887963Y-57716627D01*
X100836443Y-57886466D01*
X100752778Y-58042991D01*
X100723448Y-58078729D01*
X100640186Y-58180186D01*
X100538729Y-58263448D01*
X100502991Y-58292778D01*
X100346466Y-58376443D01*
X100176627Y-58427963D01*
X100110443Y-58434481D01*
X100044260Y-58441000D01*
X99955740Y-58441000D01*
X99889557Y-58434481D01*
X99823373Y-58427963D01*
X99653534Y-58376443D01*
X99497009Y-58292778D01*
X99461271Y-58263448D01*
X99359814Y-58180186D01*
X99276552Y-58078729D01*
X99247222Y-58042991D01*
X99163557Y-57886466D01*
X99112037Y-57716627D01*
X99094641Y-57540000D01*
X99112037Y-57363373D01*
X99163557Y-57193534D01*
X99247222Y-57037009D01*
X99276552Y-57001271D01*
X99359814Y-56899814D01*
X99461271Y-56816552D01*
X99497009Y-56787222D01*
X99653534Y-56703557D01*
X99823373Y-56652037D01*
X99889557Y-56645519D01*
X99955740Y-56639000D01*
X100044260Y-56639000D01*
X100110443Y-56645519D01*
X100110443Y-56645519D01*
G37*
G36*
X55110443Y-56645519D02*
G01*
X55176627Y-56652037D01*
X55346466Y-56703557D01*
X55502991Y-56787222D01*
X55538729Y-56816552D01*
X55640186Y-56899814D01*
X55723448Y-57001271D01*
X55752778Y-57037009D01*
X55836443Y-57193534D01*
X55887963Y-57363373D01*
X55905359Y-57540000D01*
X55887963Y-57716627D01*
X55836443Y-57886466D01*
X55752778Y-58042991D01*
X55723448Y-58078729D01*
X55640186Y-58180186D01*
X55538729Y-58263448D01*
X55502991Y-58292778D01*
X55346466Y-58376443D01*
X55176627Y-58427963D01*
X55110443Y-58434481D01*
X55044260Y-58441000D01*
X54955740Y-58441000D01*
X54889557Y-58434481D01*
X54823373Y-58427963D01*
X54653534Y-58376443D01*
X54497009Y-58292778D01*
X54461271Y-58263448D01*
X54359814Y-58180186D01*
X54276552Y-58078729D01*
X54247222Y-58042991D01*
X54163557Y-57886466D01*
X54112037Y-57716627D01*
X54094641Y-57540000D01*
X54112037Y-57363373D01*
X54163557Y-57193534D01*
X54247222Y-57037009D01*
X54276552Y-57001271D01*
X54359814Y-56899814D01*
X54461271Y-56816552D01*
X54497009Y-56787222D01*
X54653534Y-56703557D01*
X54823373Y-56652037D01*
X54889557Y-56645519D01*
X54955740Y-56639000D01*
X55044260Y-56639000D01*
X55110443Y-56645519D01*
X55110443Y-56645519D01*
G37*
G36*
X95110443Y-56645519D02*
G01*
X95176627Y-56652037D01*
X95346466Y-56703557D01*
X95502991Y-56787222D01*
X95538729Y-56816552D01*
X95640186Y-56899814D01*
X95723448Y-57001271D01*
X95752778Y-57037009D01*
X95836443Y-57193534D01*
X95887963Y-57363373D01*
X95905359Y-57540000D01*
X95887963Y-57716627D01*
X95836443Y-57886466D01*
X95752778Y-58042991D01*
X95723448Y-58078729D01*
X95640186Y-58180186D01*
X95538729Y-58263448D01*
X95502991Y-58292778D01*
X95346466Y-58376443D01*
X95176627Y-58427963D01*
X95110443Y-58434481D01*
X95044260Y-58441000D01*
X94955740Y-58441000D01*
X94889557Y-58434481D01*
X94823373Y-58427963D01*
X94653534Y-58376443D01*
X94497009Y-58292778D01*
X94461271Y-58263448D01*
X94359814Y-58180186D01*
X94276552Y-58078729D01*
X94247222Y-58042991D01*
X94163557Y-57886466D01*
X94112037Y-57716627D01*
X94094641Y-57540000D01*
X94112037Y-57363373D01*
X94163557Y-57193534D01*
X94247222Y-57037009D01*
X94276552Y-57001271D01*
X94359814Y-56899814D01*
X94461271Y-56816552D01*
X94497009Y-56787222D01*
X94653534Y-56703557D01*
X94823373Y-56652037D01*
X94889557Y-56645519D01*
X94955740Y-56639000D01*
X95044260Y-56639000D01*
X95110443Y-56645519D01*
X95110443Y-56645519D01*
G37*
G36*
X60110443Y-56645519D02*
G01*
X60176627Y-56652037D01*
X60346466Y-56703557D01*
X60502991Y-56787222D01*
X60538729Y-56816552D01*
X60640186Y-56899814D01*
X60723448Y-57001271D01*
X60752778Y-57037009D01*
X60836443Y-57193534D01*
X60887963Y-57363373D01*
X60905359Y-57540000D01*
X60887963Y-57716627D01*
X60836443Y-57886466D01*
X60752778Y-58042991D01*
X60723448Y-58078729D01*
X60640186Y-58180186D01*
X60538729Y-58263448D01*
X60502991Y-58292778D01*
X60346466Y-58376443D01*
X60176627Y-58427963D01*
X60110443Y-58434481D01*
X60044260Y-58441000D01*
X59955740Y-58441000D01*
X59889557Y-58434481D01*
X59823373Y-58427963D01*
X59653534Y-58376443D01*
X59497009Y-58292778D01*
X59461271Y-58263448D01*
X59359814Y-58180186D01*
X59276552Y-58078729D01*
X59247222Y-58042991D01*
X59163557Y-57886466D01*
X59112037Y-57716627D01*
X59094641Y-57540000D01*
X59112037Y-57363373D01*
X59163557Y-57193534D01*
X59247222Y-57037009D01*
X59276552Y-57001271D01*
X59359814Y-56899814D01*
X59461271Y-56816552D01*
X59497009Y-56787222D01*
X59653534Y-56703557D01*
X59823373Y-56652037D01*
X59889557Y-56645519D01*
X59955740Y-56639000D01*
X60044260Y-56639000D01*
X60110443Y-56645519D01*
X60110443Y-56645519D01*
G37*
G36*
X60901000Y-55901000D02*
G01*
X59099000Y-55901000D01*
X59099000Y-54099000D01*
X60901000Y-54099000D01*
X60901000Y-55901000D01*
X60901000Y-55901000D01*
G37*
G36*
X100901000Y-55901000D02*
G01*
X99099000Y-55901000D01*
X99099000Y-54099000D01*
X100901000Y-54099000D01*
X100901000Y-55901000D01*
X100901000Y-55901000D01*
G37*
G36*
X95901000Y-55901000D02*
G01*
X94099000Y-55901000D01*
X94099000Y-54099000D01*
X95901000Y-54099000D01*
X95901000Y-55901000D01*
X95901000Y-55901000D01*
G37*
G36*
X55901000Y-55901000D02*
G01*
X54099000Y-55901000D01*
X54099000Y-54099000D01*
X55901000Y-54099000D01*
X55901000Y-55901000D01*
X55901000Y-55901000D01*
G37*
G36*
X80590443Y-51645519D02*
G01*
X80656627Y-51652037D01*
X80826466Y-51703557D01*
X80982991Y-51787222D01*
X81018729Y-51816552D01*
X81120186Y-51899814D01*
X81203448Y-52001271D01*
X81232778Y-52037009D01*
X81316443Y-52193534D01*
X81367963Y-52363373D01*
X81385359Y-52540000D01*
X81367963Y-52716627D01*
X81316443Y-52886466D01*
X81232778Y-53042991D01*
X81203448Y-53078729D01*
X81120186Y-53180186D01*
X81018729Y-53263448D01*
X80982991Y-53292778D01*
X80826466Y-53376443D01*
X80656627Y-53427963D01*
X80590443Y-53434481D01*
X80524260Y-53441000D01*
X80435740Y-53441000D01*
X80369557Y-53434481D01*
X80303373Y-53427963D01*
X80133534Y-53376443D01*
X79977009Y-53292778D01*
X79941271Y-53263448D01*
X79839814Y-53180186D01*
X79756552Y-53078729D01*
X79727222Y-53042991D01*
X79643557Y-52886466D01*
X79592037Y-52716627D01*
X79574641Y-52540000D01*
X79592037Y-52363373D01*
X79643557Y-52193534D01*
X79727222Y-52037009D01*
X79756552Y-52001271D01*
X79839814Y-51899814D01*
X79941271Y-51816552D01*
X79977009Y-51787222D01*
X80133534Y-51703557D01*
X80303373Y-51652037D01*
X80369557Y-51645519D01*
X80435740Y-51639000D01*
X80524260Y-51639000D01*
X80590443Y-51645519D01*
X80590443Y-51645519D01*
G37*
G36*
X78050443Y-51645519D02*
G01*
X78116627Y-51652037D01*
X78286466Y-51703557D01*
X78442991Y-51787222D01*
X78478729Y-51816552D01*
X78580186Y-51899814D01*
X78663448Y-52001271D01*
X78692778Y-52037009D01*
X78776443Y-52193534D01*
X78827963Y-52363373D01*
X78845359Y-52540000D01*
X78827963Y-52716627D01*
X78776443Y-52886466D01*
X78692778Y-53042991D01*
X78663448Y-53078729D01*
X78580186Y-53180186D01*
X78478729Y-53263448D01*
X78442991Y-53292778D01*
X78286466Y-53376443D01*
X78116627Y-53427963D01*
X78050443Y-53434481D01*
X77984260Y-53441000D01*
X77895740Y-53441000D01*
X77829557Y-53434481D01*
X77763373Y-53427963D01*
X77593534Y-53376443D01*
X77437009Y-53292778D01*
X77401271Y-53263448D01*
X77299814Y-53180186D01*
X77216552Y-53078729D01*
X77187222Y-53042991D01*
X77103557Y-52886466D01*
X77052037Y-52716627D01*
X77034641Y-52540000D01*
X77052037Y-52363373D01*
X77103557Y-52193534D01*
X77187222Y-52037009D01*
X77216552Y-52001271D01*
X77299814Y-51899814D01*
X77401271Y-51816552D01*
X77437009Y-51787222D01*
X77593534Y-51703557D01*
X77763373Y-51652037D01*
X77829557Y-51645519D01*
X77895740Y-51639000D01*
X77984260Y-51639000D01*
X78050443Y-51645519D01*
X78050443Y-51645519D01*
G37*
G36*
X75510443Y-51645519D02*
G01*
X75576627Y-51652037D01*
X75746466Y-51703557D01*
X75902991Y-51787222D01*
X75938729Y-51816552D01*
X76040186Y-51899814D01*
X76123448Y-52001271D01*
X76152778Y-52037009D01*
X76236443Y-52193534D01*
X76287963Y-52363373D01*
X76305359Y-52540000D01*
X76287963Y-52716627D01*
X76236443Y-52886466D01*
X76152778Y-53042991D01*
X76123448Y-53078729D01*
X76040186Y-53180186D01*
X75938729Y-53263448D01*
X75902991Y-53292778D01*
X75746466Y-53376443D01*
X75576627Y-53427963D01*
X75510443Y-53434481D01*
X75444260Y-53441000D01*
X75355740Y-53441000D01*
X75289557Y-53434481D01*
X75223373Y-53427963D01*
X75053534Y-53376443D01*
X74897009Y-53292778D01*
X74861271Y-53263448D01*
X74759814Y-53180186D01*
X74676552Y-53078729D01*
X74647222Y-53042991D01*
X74563557Y-52886466D01*
X74512037Y-52716627D01*
X74494641Y-52540000D01*
X74512037Y-52363373D01*
X74563557Y-52193534D01*
X74647222Y-52037009D01*
X74676552Y-52001271D01*
X74759814Y-51899814D01*
X74861271Y-51816552D01*
X74897009Y-51787222D01*
X75053534Y-51703557D01*
X75223373Y-51652037D01*
X75289557Y-51645519D01*
X75355740Y-51639000D01*
X75444260Y-51639000D01*
X75510443Y-51645519D01*
X75510443Y-51645519D01*
G37*
G36*
X72970443Y-51645519D02*
G01*
X73036627Y-51652037D01*
X73206466Y-51703557D01*
X73362991Y-51787222D01*
X73398729Y-51816552D01*
X73500186Y-51899814D01*
X73583448Y-52001271D01*
X73612778Y-52037009D01*
X73696443Y-52193534D01*
X73747963Y-52363373D01*
X73765359Y-52540000D01*
X73747963Y-52716627D01*
X73696443Y-52886466D01*
X73612778Y-53042991D01*
X73583448Y-53078729D01*
X73500186Y-53180186D01*
X73398729Y-53263448D01*
X73362991Y-53292778D01*
X73206466Y-53376443D01*
X73036627Y-53427963D01*
X72970443Y-53434481D01*
X72904260Y-53441000D01*
X72815740Y-53441000D01*
X72749557Y-53434481D01*
X72683373Y-53427963D01*
X72513534Y-53376443D01*
X72357009Y-53292778D01*
X72321271Y-53263448D01*
X72219814Y-53180186D01*
X72136552Y-53078729D01*
X72107222Y-53042991D01*
X72023557Y-52886466D01*
X71972037Y-52716627D01*
X71954641Y-52540000D01*
X71972037Y-52363373D01*
X72023557Y-52193534D01*
X72107222Y-52037009D01*
X72136552Y-52001271D01*
X72219814Y-51899814D01*
X72321271Y-51816552D01*
X72357009Y-51787222D01*
X72513534Y-51703557D01*
X72683373Y-51652037D01*
X72749557Y-51645519D01*
X72815740Y-51639000D01*
X72904260Y-51639000D01*
X72970443Y-51645519D01*
X72970443Y-51645519D01*
G37*
G36*
X71221000Y-53441000D02*
G01*
X69419000Y-53441000D01*
X69419000Y-51639000D01*
X71221000Y-51639000D01*
X71221000Y-53441000D01*
X71221000Y-53441000D01*
G37*
M02*
