M48
; DRILL file {KiCad (5.1.0)-1} date 24.06.2019 11:41:29
; FORMAT={-:-/ absolute / metric / decimal}
; #@! TF.CreationDate,2019-06-24T11:41:29+02:00
; #@! TF.GenerationSoftware,Kicad,Pcbnew,(5.1.0)-1
; #@! TF.FileFunction,Plated,1,2,PTH
FMAT,2
METRIC
T1C0.400
T2C1.000
T3C1.100
%
G90
G05
T1
X62.319Y-55.842
X62.319Y-62.573
X63.081Y-54.318
X63.081Y-60.033
X67.653Y-56.604
X67.653Y-75.273
X68.415Y-61.684
X68.415Y-72.86
X69.812Y-62.7
X69.812Y-78.702
X70.828Y-61.43
X70.828Y-80.099
X71.717Y-63.97
X71.717Y-65.24
X71.717Y-77.305
X72.606Y-66.51
X72.606Y-76.289
X72.86Y-60.16
X73.876Y-80.988
X75.4Y-56.604
X77.94Y-57.366
X78.067Y-63.97
X80.48Y-58.128
X83.401Y-58.128
X83.401Y-62.7
X84.163Y-57.366
X84.163Y-61.43
X84.925Y-54.318
X84.925Y-66.51
X85.687Y-55.842
X85.687Y-65.24
X86.449Y-56.604
X86.449Y-60.16
X90.005Y-55.08
X90.005Y-80.734
X90.767Y-56.604
X90.767Y-81.496
T2
X70.32Y-52.54
X72.86Y-52.54
X75.4Y-52.54
X77.94Y-52.54
X80.48Y-52.54
X95.0Y-55.0
X95.0Y-57.54
X95.0Y-60.08
X95.0Y-62.62
X95.0Y-65.16
X95.0Y-67.7
X95.0Y-70.24
X95.0Y-72.78
X95.0Y-75.32
X55.0Y-55.0
X55.0Y-57.54
X55.0Y-60.08
X55.0Y-62.62
X55.0Y-65.16
X55.0Y-67.7
X55.0Y-70.24
X55.0Y-72.78
X55.0Y-75.32
X100.0Y-55.0
X100.0Y-57.54
X100.0Y-60.08
X100.0Y-62.62
X100.0Y-65.16
X100.0Y-67.7
X100.0Y-70.24
X100.0Y-72.78
X100.0Y-75.32
X60.0Y-55.0
X60.0Y-57.54
X60.0Y-60.08
X60.0Y-62.62
X60.0Y-65.16
X60.0Y-67.7
X60.0Y-70.24
X60.0Y-72.78
X60.0Y-75.32
T3
X73.945Y-87.634
X76.485Y-87.634
X79.025Y-87.634
X81.565Y-87.634
X84.105Y-87.634
X86.645Y-87.634
X89.185Y-87.634
T0
M30
