G04 #@! TF.GenerationSoftware,KiCad,Pcbnew,(5.1.0)-1*
G04 #@! TF.CreationDate,2019-06-23T22:47:00+02:00*
G04 #@! TF.ProjectId,RF_433MHz_Receiver,52465f34-3333-44d4-987a-5f5265636569,00*
G04 #@! TF.SameCoordinates,Original*
G04 #@! TF.FileFunction,Legend,Top*
G04 #@! TF.FilePolarity,Positive*
%FSLAX46Y46*%
G04 Gerber Fmt 4.6, Leading zero omitted, Abs format (unit mm)*
G04 Created by KiCad (PCBNEW (5.1.0)-1) date 2019-06-23 22:47:00*
%MOMM*%
%LPD*%
G04 APERTURE LIST*
%ADD10C,0.120000*%
%ADD11C,0.150000*%
G04 APERTURE END LIST*
D10*
X90709000Y-86110000D02*
X87915000Y-86110000D01*
X90709000Y-88904000D02*
X90709000Y-86110000D01*
D11*
X56971904Y-81578571D02*
X57305238Y-81578571D01*
X57448095Y-82102380D02*
X56971904Y-82102380D01*
X56971904Y-81102380D01*
X57448095Y-81102380D01*
X57781428Y-81102380D02*
X58448095Y-82102380D01*
X58448095Y-81102380D02*
X57781428Y-82102380D01*
X58686190Y-81102380D02*
X59257619Y-81102380D01*
X58971904Y-82102380D02*
X58971904Y-81102380D01*
X59352857Y-82197619D02*
X60114761Y-82197619D01*
X60924285Y-82102380D02*
X60590952Y-81626190D01*
X60352857Y-82102380D02*
X60352857Y-81102380D01*
X60733809Y-81102380D01*
X60829047Y-81150000D01*
X60876666Y-81197619D01*
X60924285Y-81292857D01*
X60924285Y-81435714D01*
X60876666Y-81530952D01*
X60829047Y-81578571D01*
X60733809Y-81626190D01*
X60352857Y-81626190D01*
X61686190Y-81578571D02*
X61352857Y-81578571D01*
X61352857Y-82102380D02*
X61352857Y-81102380D01*
X61829047Y-81102380D01*
X61971904Y-82197619D02*
X62733809Y-82197619D01*
X63543333Y-82102380D02*
X63210000Y-81626190D01*
X62971904Y-82102380D02*
X62971904Y-81102380D01*
X63352857Y-81102380D01*
X63448095Y-81150000D01*
X63495714Y-81197619D01*
X63543333Y-81292857D01*
X63543333Y-81435714D01*
X63495714Y-81530952D01*
X63448095Y-81578571D01*
X63352857Y-81626190D01*
X62971904Y-81626190D01*
X63876666Y-81102380D02*
X64543333Y-82102380D01*
X64543333Y-81102380D02*
X63876666Y-82102380D01*
X54852857Y-82847619D02*
X54900476Y-82800000D01*
X54995714Y-82752380D01*
X55233809Y-82752380D01*
X55329047Y-82800000D01*
X55376666Y-82847619D01*
X55424285Y-82942857D01*
X55424285Y-83038095D01*
X55376666Y-83180952D01*
X54805238Y-83752380D01*
X55424285Y-83752380D01*
X55757619Y-82752380D02*
X56376666Y-82752380D01*
X56043333Y-83133333D01*
X56186190Y-83133333D01*
X56281428Y-83180952D01*
X56329047Y-83228571D01*
X56376666Y-83323809D01*
X56376666Y-83561904D01*
X56329047Y-83657142D01*
X56281428Y-83704761D01*
X56186190Y-83752380D01*
X55900476Y-83752380D01*
X55805238Y-83704761D01*
X55757619Y-83657142D01*
X56805238Y-83657142D02*
X56852857Y-83704761D01*
X56805238Y-83752380D01*
X56757619Y-83704761D01*
X56805238Y-83657142D01*
X56805238Y-83752380D01*
X57471904Y-82752380D02*
X57567142Y-82752380D01*
X57662380Y-82800000D01*
X57709999Y-82847619D01*
X57757619Y-82942857D01*
X57805238Y-83133333D01*
X57805238Y-83371428D01*
X57757619Y-83561904D01*
X57709999Y-83657142D01*
X57662380Y-83704761D01*
X57567142Y-83752380D01*
X57471904Y-83752380D01*
X57376666Y-83704761D01*
X57329047Y-83657142D01*
X57281428Y-83561904D01*
X57233809Y-83371428D01*
X57233809Y-83133333D01*
X57281428Y-82942857D01*
X57329047Y-82847619D01*
X57376666Y-82800000D01*
X57471904Y-82752380D01*
X58662380Y-82752380D02*
X58471904Y-82752380D01*
X58376666Y-82800000D01*
X58329047Y-82847619D01*
X58233809Y-82990476D01*
X58186190Y-83180952D01*
X58186190Y-83561904D01*
X58233809Y-83657142D01*
X58281428Y-83704761D01*
X58376666Y-83752380D01*
X58567142Y-83752380D01*
X58662380Y-83704761D01*
X58709999Y-83657142D01*
X58757619Y-83561904D01*
X58757619Y-83323809D01*
X58709999Y-83228571D01*
X58662380Y-83180952D01*
X58567142Y-83133333D01*
X58376666Y-83133333D01*
X58281428Y-83180952D01*
X58233809Y-83228571D01*
X58186190Y-83323809D01*
X59186190Y-83657142D02*
X59233809Y-83704761D01*
X59186190Y-83752380D01*
X59138571Y-83704761D01*
X59186190Y-83657142D01*
X59186190Y-83752380D01*
X60186190Y-83752380D02*
X59614761Y-83752380D01*
X59900476Y-83752380D02*
X59900476Y-82752380D01*
X59805238Y-82895238D01*
X59709999Y-82990476D01*
X59614761Y-83038095D01*
X60662380Y-83752380D02*
X60852857Y-83752380D01*
X60948095Y-83704761D01*
X60995714Y-83657142D01*
X61090952Y-83514285D01*
X61138571Y-83323809D01*
X61138571Y-82942857D01*
X61090952Y-82847619D01*
X61043333Y-82800000D01*
X60948095Y-82752380D01*
X60757619Y-82752380D01*
X60662380Y-82800000D01*
X60614761Y-82847619D01*
X60567142Y-82942857D01*
X60567142Y-83180952D01*
X60614761Y-83276190D01*
X60662380Y-83323809D01*
X60757619Y-83371428D01*
X60948095Y-83371428D01*
X61043333Y-83323809D01*
X61090952Y-83276190D01*
X61138571Y-83180952D01*
X62329047Y-83371428D02*
X63090952Y-83371428D01*
X64233809Y-83085714D02*
X64471904Y-83752380D01*
X64709999Y-83085714D01*
X65281428Y-82752380D02*
X65376666Y-82752380D01*
X65471904Y-82800000D01*
X65519523Y-82847619D01*
X65567142Y-82942857D01*
X65614761Y-83133333D01*
X65614761Y-83371428D01*
X65567142Y-83561904D01*
X65519523Y-83657142D01*
X65471904Y-83704761D01*
X65376666Y-83752380D01*
X65281428Y-83752380D01*
X65186190Y-83704761D01*
X65138571Y-83657142D01*
X65090952Y-83561904D01*
X65043333Y-83371428D01*
X65043333Y-83133333D01*
X65090952Y-82942857D01*
X65138571Y-82847619D01*
X65186190Y-82800000D01*
X65281428Y-82752380D01*
X66233809Y-82752380D02*
X66329047Y-82752380D01*
X66424285Y-82800000D01*
X66471904Y-82847619D01*
X66519523Y-82942857D01*
X66567142Y-83133333D01*
X66567142Y-83371428D01*
X66519523Y-83561904D01*
X66471904Y-83657142D01*
X66424285Y-83704761D01*
X66329047Y-83752380D01*
X66233809Y-83752380D01*
X66138571Y-83704761D01*
X66090952Y-83657142D01*
X66043333Y-83561904D01*
X65995714Y-83371428D01*
X65995714Y-83133333D01*
X66043333Y-82942857D01*
X66090952Y-82847619D01*
X66138571Y-82800000D01*
X66233809Y-82752380D01*
X57662380Y-84878571D02*
X57995714Y-84878571D01*
X58138571Y-85402380D02*
X57662380Y-85402380D01*
X57662380Y-84402380D01*
X58138571Y-84402380D01*
X58519523Y-85354761D02*
X58614761Y-85402380D01*
X58805238Y-85402380D01*
X58900476Y-85354761D01*
X58948095Y-85259523D01*
X58948095Y-85211904D01*
X58900476Y-85116666D01*
X58805238Y-85069047D01*
X58662380Y-85069047D01*
X58567142Y-85021428D01*
X58519523Y-84926190D01*
X58519523Y-84878571D01*
X58567142Y-84783333D01*
X58662380Y-84735714D01*
X58805238Y-84735714D01*
X58900476Y-84783333D01*
X59329047Y-85354761D02*
X59424285Y-85402380D01*
X59614761Y-85402380D01*
X59710000Y-85354761D01*
X59757619Y-85259523D01*
X59757619Y-85211904D01*
X59710000Y-85116666D01*
X59614761Y-85069047D01*
X59471904Y-85069047D01*
X59376666Y-85021428D01*
X59329047Y-84926190D01*
X59329047Y-84878571D01*
X59376666Y-84783333D01*
X59471904Y-84735714D01*
X59614761Y-84735714D01*
X59710000Y-84783333D01*
X60567142Y-85354761D02*
X60471904Y-85402380D01*
X60281428Y-85402380D01*
X60186190Y-85354761D01*
X60138571Y-85259523D01*
X60138571Y-84878571D01*
X60186190Y-84783333D01*
X60281428Y-84735714D01*
X60471904Y-84735714D01*
X60567142Y-84783333D01*
X60614761Y-84878571D01*
X60614761Y-84973809D01*
X60138571Y-85069047D01*
X61043333Y-85402380D02*
X61043333Y-84735714D01*
X61043333Y-84402380D02*
X60995714Y-84450000D01*
X61043333Y-84497619D01*
X61090952Y-84450000D01*
X61043333Y-84402380D01*
X61043333Y-84497619D01*
X61424285Y-84735714D02*
X61662380Y-85402380D01*
X61900476Y-84735714D01*
X62710000Y-85402380D02*
X62710000Y-84878571D01*
X62662380Y-84783333D01*
X62567142Y-84735714D01*
X62376666Y-84735714D01*
X62281428Y-84783333D01*
X62710000Y-85354761D02*
X62614761Y-85402380D01*
X62376666Y-85402380D01*
X62281428Y-85354761D01*
X62233809Y-85259523D01*
X62233809Y-85164285D01*
X62281428Y-85069047D01*
X62376666Y-85021428D01*
X62614761Y-85021428D01*
X62710000Y-84973809D01*
X63186190Y-85402380D02*
X63186190Y-84402380D01*
X63757619Y-85402380D01*
X63757619Y-84402380D01*
D10*
X89735000Y-82635000D02*
X87735000Y-82635000D01*
X87735000Y-84675000D02*
X89735000Y-84675000D01*
X87080000Y-62335000D02*
X87080000Y-64335000D01*
X89120000Y-64335000D02*
X89120000Y-62335000D01*
D11*
X72130000Y-73230000D02*
X72130000Y-75030000D01*
X74030000Y-75030000D02*
X74080000Y-75030000D01*
X72130000Y-75030000D02*
X74430000Y-75030000D01*
X72130000Y-73230000D02*
X74480000Y-73230000D01*
X75840000Y-59370000D02*
X74240000Y-59370000D01*
X75840000Y-59370000D02*
X75340000Y-58770000D01*
X80040000Y-59570000D02*
X80040000Y-59370000D01*
X80040000Y-59370000D02*
X75840000Y-59370000D01*
X80015000Y-68420000D02*
X80015000Y-68305000D01*
X75865000Y-68420000D02*
X75865000Y-68305000D01*
X75865000Y-68420000D02*
X80015000Y-68420000D01*
D10*
X68990000Y-53870000D02*
X68990000Y-52540000D01*
X70320000Y-53870000D02*
X68990000Y-53870000D01*
X71590000Y-53870000D02*
X71590000Y-51210000D01*
X71590000Y-51210000D02*
X81810000Y-51210000D01*
X71590000Y-53870000D02*
X81810000Y-53870000D01*
X81810000Y-53870000D02*
X81810000Y-51210000D01*
X67190000Y-62200000D02*
X67190000Y-63200000D01*
X65830000Y-63200000D02*
X65830000Y-62200000D01*
X84785000Y-83324000D02*
X84785000Y-84324000D01*
X83425000Y-84324000D02*
X83425000Y-83324000D01*
X80885000Y-84324000D02*
X80885000Y-83324000D01*
X82245000Y-83324000D02*
X82245000Y-84324000D01*
X79705000Y-83324000D02*
X79705000Y-84324000D01*
X78345000Y-84324000D02*
X78345000Y-83324000D01*
X75805000Y-84404000D02*
X75805000Y-83404000D01*
X77165000Y-83404000D02*
X77165000Y-84404000D01*
X74625000Y-83324000D02*
X74625000Y-84324000D01*
X73265000Y-84324000D02*
X73265000Y-83324000D01*
X78710000Y-73450000D02*
X79710000Y-73450000D01*
X79710000Y-74810000D02*
X78710000Y-74810000D01*
X53670000Y-76650000D02*
X56330000Y-76650000D01*
X53670000Y-56270000D02*
X53670000Y-76650000D01*
X56330000Y-56270000D02*
X56330000Y-76650000D01*
X53670000Y-56270000D02*
X56330000Y-56270000D01*
X53670000Y-55000000D02*
X53670000Y-53670000D01*
X53670000Y-53670000D02*
X55000000Y-53670000D01*
X93670000Y-53670000D02*
X95000000Y-53670000D01*
X93670000Y-55000000D02*
X93670000Y-53670000D01*
X93670000Y-56270000D02*
X96330000Y-56270000D01*
X96330000Y-56270000D02*
X96330000Y-76650000D01*
X93670000Y-56270000D02*
X93670000Y-76650000D01*
X93670000Y-76650000D02*
X96330000Y-76650000D01*
X58670000Y-53670000D02*
X60000000Y-53670000D01*
X58670000Y-55000000D02*
X58670000Y-53670000D01*
X58670000Y-56270000D02*
X61330000Y-56270000D01*
X61330000Y-56270000D02*
X61330000Y-76650000D01*
X58670000Y-56270000D02*
X58670000Y-76650000D01*
X58670000Y-76650000D02*
X61330000Y-76650000D01*
X98670000Y-76650000D02*
X101330000Y-76650000D01*
X98670000Y-56270000D02*
X98670000Y-76650000D01*
X101330000Y-56270000D02*
X101330000Y-76650000D01*
X98670000Y-56270000D02*
X101330000Y-56270000D01*
X98670000Y-55000000D02*
X98670000Y-53670000D01*
X98670000Y-53670000D02*
X100000000Y-53670000D01*
D11*
X88568333Y-82107142D02*
X88520714Y-82154761D01*
X88377857Y-82202380D01*
X88282619Y-82202380D01*
X88139761Y-82154761D01*
X88044523Y-82059523D01*
X87996904Y-81964285D01*
X87949285Y-81773809D01*
X87949285Y-81630952D01*
X87996904Y-81440476D01*
X88044523Y-81345238D01*
X88139761Y-81250000D01*
X88282619Y-81202380D01*
X88377857Y-81202380D01*
X88520714Y-81250000D01*
X88568333Y-81297619D01*
X88949285Y-81297619D02*
X88996904Y-81250000D01*
X89092142Y-81202380D01*
X89330238Y-81202380D01*
X89425476Y-81250000D01*
X89473095Y-81297619D01*
X89520714Y-81392857D01*
X89520714Y-81488095D01*
X89473095Y-81630952D01*
X88901666Y-82202380D01*
X89520714Y-82202380D01*
X90473333Y-63692142D02*
X90425714Y-63739761D01*
X90282857Y-63787380D01*
X90187619Y-63787380D01*
X90044761Y-63739761D01*
X89949523Y-63644523D01*
X89901904Y-63549285D01*
X89854285Y-63358809D01*
X89854285Y-63215952D01*
X89901904Y-63025476D01*
X89949523Y-62930238D01*
X90044761Y-62835000D01*
X90187619Y-62787380D01*
X90282857Y-62787380D01*
X90425714Y-62835000D01*
X90473333Y-62882619D01*
X91425714Y-63787380D02*
X90854285Y-63787380D01*
X91140000Y-63787380D02*
X91140000Y-62787380D01*
X91044761Y-62930238D01*
X90949523Y-63025476D01*
X90854285Y-63073095D01*
X73391904Y-72677380D02*
X73391904Y-71677380D01*
X73772857Y-71677380D01*
X73868095Y-71725000D01*
X73915714Y-71772619D01*
X73963333Y-71867857D01*
X73963333Y-72010714D01*
X73915714Y-72105952D01*
X73868095Y-72153571D01*
X73772857Y-72201190D01*
X73391904Y-72201190D01*
X74915714Y-72677380D02*
X74344285Y-72677380D01*
X74630000Y-72677380D02*
X74630000Y-71677380D01*
X74534761Y-71820238D01*
X74439523Y-71915476D01*
X74344285Y-71963095D01*
X77178095Y-69137380D02*
X77178095Y-69946904D01*
X77225714Y-70042142D01*
X77273333Y-70089761D01*
X77368571Y-70137380D01*
X77559047Y-70137380D01*
X77654285Y-70089761D01*
X77701904Y-70042142D01*
X77749523Y-69946904D01*
X77749523Y-69137380D01*
X78749523Y-70137380D02*
X78178095Y-70137380D01*
X78463809Y-70137380D02*
X78463809Y-69137380D01*
X78368571Y-69280238D01*
X78273333Y-69375476D01*
X78178095Y-69423095D01*
X91783095Y-86917380D02*
X91783095Y-87726904D01*
X91830714Y-87822142D01*
X91878333Y-87869761D01*
X91973571Y-87917380D01*
X92164047Y-87917380D01*
X92259285Y-87869761D01*
X92306904Y-87822142D01*
X92354523Y-87726904D01*
X92354523Y-86917380D01*
X92783095Y-87012619D02*
X92830714Y-86965000D01*
X92925952Y-86917380D01*
X93164047Y-86917380D01*
X93259285Y-86965000D01*
X93306904Y-87012619D01*
X93354523Y-87107857D01*
X93354523Y-87203095D01*
X93306904Y-87345952D01*
X92735476Y-87917380D01*
X93354523Y-87917380D01*
X67446666Y-51992380D02*
X67446666Y-52706666D01*
X67399047Y-52849523D01*
X67303809Y-52944761D01*
X67160952Y-52992380D01*
X67065714Y-52992380D01*
X68446666Y-52992380D02*
X67875238Y-52992380D01*
X68160952Y-52992380D02*
X68160952Y-51992380D01*
X68065714Y-52135238D01*
X67970476Y-52230476D01*
X67875238Y-52278095D01*
X64438333Y-63152380D02*
X64105000Y-62676190D01*
X63866904Y-63152380D02*
X63866904Y-62152380D01*
X64247857Y-62152380D01*
X64343095Y-62200000D01*
X64390714Y-62247619D01*
X64438333Y-62342857D01*
X64438333Y-62485714D01*
X64390714Y-62580952D01*
X64343095Y-62628571D01*
X64247857Y-62676190D01*
X63866904Y-62676190D01*
X65390714Y-63152380D02*
X64819285Y-63152380D01*
X65105000Y-63152380D02*
X65105000Y-62152380D01*
X65009761Y-62295238D01*
X64914523Y-62390476D01*
X64819285Y-62438095D01*
X84557380Y-80180666D02*
X84081190Y-80514000D01*
X84557380Y-80752095D02*
X83557380Y-80752095D01*
X83557380Y-80371142D01*
X83605000Y-80275904D01*
X83652619Y-80228285D01*
X83747857Y-80180666D01*
X83890714Y-80180666D01*
X83985952Y-80228285D01*
X84033571Y-80275904D01*
X84081190Y-80371142D01*
X84081190Y-80752095D01*
X83652619Y-79799714D02*
X83605000Y-79752095D01*
X83557380Y-79656857D01*
X83557380Y-79418761D01*
X83605000Y-79323523D01*
X83652619Y-79275904D01*
X83747857Y-79228285D01*
X83843095Y-79228285D01*
X83985952Y-79275904D01*
X84557380Y-79847333D01*
X84557380Y-79228285D01*
X82017380Y-80180666D02*
X81541190Y-80514000D01*
X82017380Y-80752095D02*
X81017380Y-80752095D01*
X81017380Y-80371142D01*
X81065000Y-80275904D01*
X81112619Y-80228285D01*
X81207857Y-80180666D01*
X81350714Y-80180666D01*
X81445952Y-80228285D01*
X81493571Y-80275904D01*
X81541190Y-80371142D01*
X81541190Y-80752095D01*
X81017380Y-79847333D02*
X81017380Y-79228285D01*
X81398333Y-79561619D01*
X81398333Y-79418761D01*
X81445952Y-79323523D01*
X81493571Y-79275904D01*
X81588809Y-79228285D01*
X81826904Y-79228285D01*
X81922142Y-79275904D01*
X81969761Y-79323523D01*
X82017380Y-79418761D01*
X82017380Y-79704476D01*
X81969761Y-79799714D01*
X81922142Y-79847333D01*
X79477380Y-80180666D02*
X79001190Y-80514000D01*
X79477380Y-80752095D02*
X78477380Y-80752095D01*
X78477380Y-80371142D01*
X78525000Y-80275904D01*
X78572619Y-80228285D01*
X78667857Y-80180666D01*
X78810714Y-80180666D01*
X78905952Y-80228285D01*
X78953571Y-80275904D01*
X79001190Y-80371142D01*
X79001190Y-80752095D01*
X78810714Y-79323523D02*
X79477380Y-79323523D01*
X78429761Y-79561619D02*
X79144047Y-79799714D01*
X79144047Y-79180666D01*
X76937380Y-80180666D02*
X76461190Y-80514000D01*
X76937380Y-80752095D02*
X75937380Y-80752095D01*
X75937380Y-80371142D01*
X75985000Y-80275904D01*
X76032619Y-80228285D01*
X76127857Y-80180666D01*
X76270714Y-80180666D01*
X76365952Y-80228285D01*
X76413571Y-80275904D01*
X76461190Y-80371142D01*
X76461190Y-80752095D01*
X75937380Y-79275904D02*
X75937380Y-79752095D01*
X76413571Y-79799714D01*
X76365952Y-79752095D01*
X76318333Y-79656857D01*
X76318333Y-79418761D01*
X76365952Y-79323523D01*
X76413571Y-79275904D01*
X76508809Y-79228285D01*
X76746904Y-79228285D01*
X76842142Y-79275904D01*
X76889761Y-79323523D01*
X76937380Y-79418761D01*
X76937380Y-79656857D01*
X76889761Y-79752095D01*
X76842142Y-79799714D01*
X74397380Y-80180666D02*
X73921190Y-80514000D01*
X74397380Y-80752095D02*
X73397380Y-80752095D01*
X73397380Y-80371142D01*
X73445000Y-80275904D01*
X73492619Y-80228285D01*
X73587857Y-80180666D01*
X73730714Y-80180666D01*
X73825952Y-80228285D01*
X73873571Y-80275904D01*
X73921190Y-80371142D01*
X73921190Y-80752095D01*
X73397380Y-79323523D02*
X73397380Y-79514000D01*
X73445000Y-79609238D01*
X73492619Y-79656857D01*
X73635476Y-79752095D01*
X73825952Y-79799714D01*
X74206904Y-79799714D01*
X74302142Y-79752095D01*
X74349761Y-79704476D01*
X74397380Y-79609238D01*
X74397380Y-79418761D01*
X74349761Y-79323523D01*
X74302142Y-79275904D01*
X74206904Y-79228285D01*
X73968809Y-79228285D01*
X73873571Y-79275904D01*
X73825952Y-79323523D01*
X73778333Y-79418761D01*
X73778333Y-79609238D01*
X73825952Y-79704476D01*
X73873571Y-79752095D01*
X73968809Y-79799714D01*
X79043333Y-72677380D02*
X78710000Y-72201190D01*
X78471904Y-72677380D02*
X78471904Y-71677380D01*
X78852857Y-71677380D01*
X78948095Y-71725000D01*
X78995714Y-71772619D01*
X79043333Y-71867857D01*
X79043333Y-72010714D01*
X78995714Y-72105952D01*
X78948095Y-72153571D01*
X78852857Y-72201190D01*
X78471904Y-72201190D01*
X79376666Y-71677380D02*
X80043333Y-71677380D01*
X79614761Y-72677380D01*
X54190476Y-51992380D02*
X54857142Y-52992380D01*
X54857142Y-51992380D02*
X54190476Y-52992380D01*
X55761904Y-52992380D02*
X55190476Y-52992380D01*
X55476190Y-52992380D02*
X55476190Y-51992380D01*
X55380952Y-52135238D01*
X55285714Y-52230476D01*
X55190476Y-52278095D01*
X94190476Y-51992380D02*
X94857142Y-52992380D01*
X94857142Y-51992380D02*
X94190476Y-52992380D01*
X95190476Y-52087619D02*
X95238095Y-52040000D01*
X95333333Y-51992380D01*
X95571428Y-51992380D01*
X95666666Y-52040000D01*
X95714285Y-52087619D01*
X95761904Y-52182857D01*
X95761904Y-52278095D01*
X95714285Y-52420952D01*
X95142857Y-52992380D01*
X95761904Y-52992380D01*
X59190476Y-51992380D02*
X59857142Y-52992380D01*
X59857142Y-51992380D02*
X59190476Y-52992380D01*
X60142857Y-51992380D02*
X60761904Y-51992380D01*
X60428571Y-52373333D01*
X60571428Y-52373333D01*
X60666666Y-52420952D01*
X60714285Y-52468571D01*
X60761904Y-52563809D01*
X60761904Y-52801904D01*
X60714285Y-52897142D01*
X60666666Y-52944761D01*
X60571428Y-52992380D01*
X60285714Y-52992380D01*
X60190476Y-52944761D01*
X60142857Y-52897142D01*
X99190476Y-51992380D02*
X99857142Y-52992380D01*
X99857142Y-51992380D02*
X99190476Y-52992380D01*
X100666666Y-52325714D02*
X100666666Y-52992380D01*
X100428571Y-51944761D02*
X100190476Y-52659047D01*
X100809523Y-52659047D01*
M02*
