G04 #@! TF.GenerationSoftware,KiCad,Pcbnew,(5.1.0)-1*
G04 #@! TF.CreationDate,2019-06-23T22:47:00+02:00*
G04 #@! TF.ProjectId,RF_433MHz_Receiver,52465f34-3333-44d4-987a-5f5265636569,00*
G04 #@! TF.SameCoordinates,Original*
G04 #@! TF.FileFunction,Copper,L1,Top*
G04 #@! TF.FilePolarity,Positive*
%FSLAX46Y46*%
G04 Gerber Fmt 4.6, Leading zero omitted, Abs format (unit mm)*
G04 Created by KiCad (PCBNEW (5.1.0)-1) date 2019-06-23 22:47:00*
%MOMM*%
%LPD*%
G04 APERTURE LIST*
%ADD10C,0.250000*%
%ADD11R,2.000000X1.600000*%
%ADD12R,1.600000X2.000000*%
%ADD13R,1.400000X1.000000*%
%ADD14R,1.800000X0.600000*%
%ADD15C,1.900000*%
%ADD16O,1.700000X1.700000*%
%ADD17R,1.700000X1.700000*%
%ADD18R,1.000000X1.300000*%
%ADD19R,1.300000X1.000000*%
%ADD20C,0.800000*%
%ADD21C,0.254000*%
G04 APERTURE END LIST*
D10*
X95202095Y-82800571D02*
X94868761Y-82800571D01*
X94868761Y-83324380D02*
X94868761Y-82324380D01*
X95344952Y-82324380D01*
X95725904Y-83229142D02*
X95773523Y-83276761D01*
X95725904Y-83324380D01*
X95678285Y-83276761D01*
X95725904Y-83229142D01*
X95725904Y-83324380D01*
X96773523Y-83229142D02*
X96725904Y-83276761D01*
X96583047Y-83324380D01*
X96487809Y-83324380D01*
X96344952Y-83276761D01*
X96249714Y-83181523D01*
X96202095Y-83086285D01*
X96154476Y-82895809D01*
X96154476Y-82752952D01*
X96202095Y-82562476D01*
X96249714Y-82467238D01*
X96344952Y-82372000D01*
X96487809Y-82324380D01*
X96583047Y-82324380D01*
X96725904Y-82372000D01*
X96773523Y-82419619D01*
X97630666Y-82657714D02*
X97630666Y-83324380D01*
X97202095Y-82657714D02*
X97202095Y-83181523D01*
X97249714Y-83276761D01*
X97344952Y-83324380D01*
X97487809Y-83324380D01*
X97583047Y-83276761D01*
X97630666Y-83229142D01*
X98868761Y-82943428D02*
X99630666Y-82943428D01*
X100773523Y-82657714D02*
X101011619Y-83324380D01*
X101249714Y-82657714D01*
X101821142Y-82324380D02*
X101916380Y-82324380D01*
X102011619Y-82372000D01*
X102059238Y-82419619D01*
X102106857Y-82514857D01*
X102154476Y-82705333D01*
X102154476Y-82943428D01*
X102106857Y-83133904D01*
X102059238Y-83229142D01*
X102011619Y-83276761D01*
X101916380Y-83324380D01*
X101821142Y-83324380D01*
X101725904Y-83276761D01*
X101678285Y-83229142D01*
X101630666Y-83133904D01*
X101583047Y-82943428D01*
X101583047Y-82705333D01*
X101630666Y-82514857D01*
X101678285Y-82419619D01*
X101725904Y-82372000D01*
X101821142Y-82324380D01*
X102773523Y-82324380D02*
X102868761Y-82324380D01*
X102964000Y-82372000D01*
X103011619Y-82419619D01*
X103059238Y-82514857D01*
X103106857Y-82705333D01*
X103106857Y-82943428D01*
X103059238Y-83133904D01*
X103011619Y-83229142D01*
X102964000Y-83276761D01*
X102868761Y-83324380D01*
X102773523Y-83324380D01*
X102678285Y-83276761D01*
X102630666Y-83229142D01*
X102583047Y-83133904D01*
X102535428Y-82943428D01*
X102535428Y-82705333D01*
X102583047Y-82514857D01*
X102630666Y-82419619D01*
X102678285Y-82372000D01*
X102773523Y-82324380D01*
D11*
X86735000Y-83655000D03*
X90735000Y-83655000D03*
D12*
X88100000Y-65335000D03*
X88100000Y-61335000D03*
D13*
X73005000Y-74130000D03*
X75255000Y-74130000D03*
D14*
X75090000Y-60160000D03*
X75090000Y-61430000D03*
X75090000Y-62700000D03*
X75090000Y-63970000D03*
X75090000Y-65240000D03*
X75090000Y-66510000D03*
X75090000Y-67780000D03*
X80790000Y-67780000D03*
X80790000Y-66510000D03*
X80790000Y-65240000D03*
X80790000Y-63970000D03*
X80790000Y-62700000D03*
X80790000Y-61430000D03*
X80790000Y-60160000D03*
D15*
X89185000Y-87634000D03*
X79025000Y-87634000D03*
X76485000Y-87634000D03*
X73945000Y-87634000D03*
X81565000Y-87634000D03*
X84105000Y-87634000D03*
X86645000Y-87634000D03*
D16*
X80480000Y-52540000D03*
X77940000Y-52540000D03*
X75400000Y-52540000D03*
X72860000Y-52540000D03*
D17*
X70320000Y-52540000D03*
D18*
X66510000Y-63750000D03*
X66510000Y-61650000D03*
X84105000Y-84874000D03*
X84105000Y-82774000D03*
X81565000Y-82774000D03*
X81565000Y-84874000D03*
X79025000Y-84874000D03*
X79025000Y-82774000D03*
X76485000Y-82854000D03*
X76485000Y-84954000D03*
X73945000Y-84874000D03*
X73945000Y-82774000D03*
D19*
X80260000Y-74130000D03*
X78160000Y-74130000D03*
D17*
X55000000Y-55000000D03*
D16*
X55000000Y-57540000D03*
X55000000Y-60080000D03*
X55000000Y-62620000D03*
X55000000Y-65160000D03*
X55000000Y-67700000D03*
X55000000Y-70240000D03*
X55000000Y-72780000D03*
X55000000Y-75320000D03*
X95000000Y-75320000D03*
X95000000Y-72780000D03*
X95000000Y-70240000D03*
X95000000Y-67700000D03*
X95000000Y-65160000D03*
X95000000Y-62620000D03*
X95000000Y-60080000D03*
X95000000Y-57540000D03*
D17*
X95000000Y-55000000D03*
D16*
X60000000Y-75320000D03*
X60000000Y-72780000D03*
X60000000Y-70240000D03*
X60000000Y-67700000D03*
X60000000Y-65160000D03*
X60000000Y-62620000D03*
X60000000Y-60080000D03*
X60000000Y-57540000D03*
D17*
X60000000Y-55000000D03*
X100000000Y-55000000D03*
D16*
X100000000Y-57540000D03*
X100000000Y-60080000D03*
X100000000Y-62620000D03*
X100000000Y-65160000D03*
X100000000Y-67700000D03*
X100000000Y-70240000D03*
X100000000Y-72780000D03*
X100000000Y-75320000D03*
D20*
X75400000Y-56604000D03*
X67653000Y-75273000D03*
X67653000Y-56604000D03*
X86449000Y-60160000D03*
X86449000Y-56604000D03*
X90767000Y-81496000D03*
X90767000Y-56604000D03*
X90005000Y-80734000D03*
X90005000Y-55080000D03*
X80480000Y-58128000D03*
X83401000Y-58128000D03*
X83401000Y-62700000D03*
X77940000Y-57366000D03*
X84163000Y-61430000D03*
X84163000Y-57366000D03*
X71717000Y-63970000D03*
X72606000Y-66510000D03*
X72606000Y-76289000D03*
X71717000Y-65240000D03*
X71717000Y-77305000D03*
X69812000Y-78702000D03*
X69812000Y-62700000D03*
X70828000Y-61430000D03*
X70828000Y-80099000D03*
X73876000Y-80988000D03*
X78067000Y-63970000D03*
X63081000Y-54318000D03*
X63081000Y-60033000D03*
X84925000Y-66510000D03*
X84925000Y-54318000D03*
X62319000Y-55842000D03*
X62319000Y-62573000D03*
X85687000Y-65240000D03*
X85687000Y-55842000D03*
X68415000Y-72860000D03*
X68415000Y-61684000D03*
X72860000Y-60160000D03*
D10*
X60000000Y-75320000D02*
X55000000Y-75320000D01*
X85306000Y-56604000D02*
X75400000Y-56604000D01*
X60000000Y-75320000D02*
X67606000Y-75320000D01*
X67606000Y-75320000D02*
X67653000Y-75273000D01*
X67653000Y-56604000D02*
X75400000Y-56604000D01*
X80790000Y-60160000D02*
X86449000Y-60160000D01*
X86449000Y-56604000D02*
X85306000Y-56604000D01*
X86449000Y-60160000D02*
X86449000Y-64732000D01*
X87052000Y-65335000D02*
X88100000Y-65335000D01*
X86449000Y-64732000D02*
X87052000Y-65335000D01*
X89878000Y-56604000D02*
X86449000Y-56604000D01*
X90735000Y-86084000D02*
X90735000Y-83655000D01*
X89185000Y-87634000D02*
X90735000Y-86084000D01*
X90735000Y-83655000D02*
X90735000Y-81528000D01*
X90735000Y-81528000D02*
X90767000Y-81496000D01*
X90767000Y-56604000D02*
X89878000Y-56604000D01*
X86645000Y-83844000D02*
X86665000Y-83824000D01*
X55000000Y-55000000D02*
X60000000Y-55000000D01*
X60000000Y-55000000D02*
X61350000Y-55000000D01*
X61350000Y-55000000D02*
X61430000Y-55080000D01*
X61430000Y-55080000D02*
X89624000Y-55080000D01*
X86645000Y-83745000D02*
X86735000Y-83655000D01*
X86645000Y-87634000D02*
X86645000Y-83745000D01*
X86735000Y-83655000D02*
X86735000Y-81972000D01*
X86735000Y-81972000D02*
X86735000Y-81464000D01*
X86735000Y-81464000D02*
X87465000Y-80734000D01*
X87465000Y-80734000D02*
X90005000Y-80734000D01*
X89624000Y-55080000D02*
X90005000Y-55080000D01*
X80480000Y-58128000D02*
X83401000Y-58128000D01*
X83401000Y-62700000D02*
X80790000Y-62700000D01*
X80790000Y-61430000D02*
X84163000Y-61430000D01*
X84163000Y-57366000D02*
X77940000Y-57366000D01*
X66730000Y-63970000D02*
X66510000Y-63750000D01*
X75090000Y-63970000D02*
X71717000Y-63970000D01*
X71717000Y-63970000D02*
X66730000Y-63970000D01*
X75090000Y-66510000D02*
X72606000Y-66510000D01*
X72606000Y-76289000D02*
X82004000Y-76289000D01*
X84105000Y-78390000D02*
X84105000Y-82774000D01*
X82004000Y-76289000D02*
X84105000Y-78390000D01*
X84105000Y-87634000D02*
X84105000Y-85254000D01*
X81565000Y-87634000D02*
X81565000Y-85254000D01*
X75090000Y-65240000D02*
X71717000Y-65240000D01*
X71717000Y-77305000D02*
X80226000Y-77305000D01*
X81565000Y-78644000D02*
X81565000Y-82774000D01*
X80226000Y-77305000D02*
X81565000Y-78644000D01*
X79025000Y-82774000D02*
X79025000Y-80295000D01*
X79025000Y-80295000D02*
X77432000Y-78702000D01*
X77432000Y-78702000D02*
X69812000Y-78702000D01*
X70377685Y-62700000D02*
X75090000Y-62700000D01*
X69812000Y-62700000D02*
X70377685Y-62700000D01*
X79025000Y-87634000D02*
X79025000Y-85254000D01*
X76485000Y-87634000D02*
X76485000Y-85254000D01*
X75090000Y-61430000D02*
X70828000Y-61430000D01*
X75781000Y-80099000D02*
X76485000Y-80803000D01*
X70828000Y-80099000D02*
X75781000Y-80099000D01*
X76485000Y-80803000D02*
X76485000Y-82854000D01*
X73945000Y-82774000D02*
X73945000Y-81057000D01*
X73945000Y-81057000D02*
X73876000Y-80988000D01*
X80790000Y-63970000D02*
X78067000Y-63970000D01*
X73945000Y-87634000D02*
X73945000Y-85174000D01*
X80260000Y-74130000D02*
X80260000Y-70862000D01*
X77178000Y-67780000D02*
X75090000Y-67780000D01*
X80260000Y-70862000D02*
X77178000Y-67780000D01*
X80790000Y-66510000D02*
X82258000Y-66510000D01*
X55000000Y-60080000D02*
X60000000Y-60080000D01*
X82258000Y-54318000D02*
X63081000Y-54318000D01*
X60047000Y-60033000D02*
X60000000Y-60080000D01*
X63081000Y-60033000D02*
X60047000Y-60033000D01*
X80790000Y-66510000D02*
X84925000Y-66510000D01*
X84925000Y-54318000D02*
X82258000Y-54318000D01*
X60000000Y-62620000D02*
X55000000Y-62620000D01*
X83020000Y-55842000D02*
X62319000Y-55842000D01*
X60047000Y-62573000D02*
X60000000Y-62620000D01*
X62319000Y-62573000D02*
X60047000Y-62573000D01*
X80790000Y-65240000D02*
X85687000Y-65240000D01*
X85687000Y-55842000D02*
X83020000Y-55842000D01*
X66510000Y-61650000D02*
X68381000Y-61650000D01*
X68381000Y-61650000D02*
X68415000Y-61684000D01*
X68415000Y-61684000D02*
X68415000Y-60795000D01*
X68415000Y-60795000D02*
X69050000Y-60160000D01*
X73005000Y-74130000D02*
X71209000Y-74130000D01*
X69939000Y-72860000D02*
X68415000Y-72860000D01*
X71209000Y-74130000D02*
X69939000Y-72860000D01*
X60000000Y-57540000D02*
X55000000Y-57540000D01*
X69050000Y-60160000D02*
X72860000Y-60160000D01*
X72860000Y-60160000D02*
X75090000Y-60160000D01*
X60000000Y-57540000D02*
X65287000Y-57540000D01*
X66510000Y-58763000D02*
X66510000Y-61650000D01*
X65287000Y-57540000D02*
X66510000Y-58763000D01*
X77559000Y-60160000D02*
X75090000Y-60160000D01*
X78702000Y-59017000D02*
X77559000Y-60160000D01*
X87465000Y-59017000D02*
X78702000Y-59017000D01*
X88100000Y-59652000D02*
X87465000Y-59017000D01*
X88100000Y-61335000D02*
X88100000Y-59652000D01*
X75255000Y-74130000D02*
X78160000Y-74130000D01*
X80790000Y-67780000D02*
X86068000Y-67780000D01*
X95000000Y-70240000D02*
X100000000Y-70240000D01*
X95000000Y-70240000D02*
X93608000Y-70240000D01*
X91148000Y-67780000D02*
X86068000Y-67780000D01*
X93608000Y-70240000D02*
X91148000Y-67780000D01*
X60000000Y-65160000D02*
X55000000Y-65160000D01*
X55000000Y-67700000D02*
X60000000Y-67700000D01*
X60000000Y-70240000D02*
X55000000Y-70240000D01*
X55000000Y-72780000D02*
X60000000Y-72780000D01*
X95000000Y-75320000D02*
X100000000Y-75320000D01*
X100000000Y-72780000D02*
X95000000Y-72780000D01*
X100000000Y-67700000D02*
X95000000Y-67700000D01*
X95000000Y-65160000D02*
X100000000Y-65160000D01*
X95000000Y-62620000D02*
X100000000Y-62620000D01*
X95000000Y-60080000D02*
X100000000Y-60080000D01*
X95000000Y-57540000D02*
X100000000Y-57540000D01*
X95000000Y-55000000D02*
X100000000Y-55000000D01*
D21*
G36*
X104290001Y-89290000D02*
G01*
X50710000Y-89290000D01*
X50710000Y-78600061D01*
X68777000Y-78600061D01*
X68777000Y-78803939D01*
X68816774Y-79003898D01*
X68894795Y-79192256D01*
X69008063Y-79361774D01*
X69152226Y-79505937D01*
X69321744Y-79619205D01*
X69510102Y-79697226D01*
X69710061Y-79737000D01*
X69857669Y-79737000D01*
X69832774Y-79797102D01*
X69793000Y-79997061D01*
X69793000Y-80200939D01*
X69832774Y-80400898D01*
X69910795Y-80589256D01*
X70024063Y-80758774D01*
X70168226Y-80902937D01*
X70337744Y-81016205D01*
X70526102Y-81094226D01*
X70726061Y-81134000D01*
X70929939Y-81134000D01*
X71129898Y-81094226D01*
X71318256Y-81016205D01*
X71487774Y-80902937D01*
X71531711Y-80859000D01*
X72846383Y-80859000D01*
X72841000Y-80886061D01*
X72841000Y-81089939D01*
X72880774Y-81289898D01*
X72958795Y-81478256D01*
X73055157Y-81622473D01*
X72993815Y-81672815D01*
X72914463Y-81769506D01*
X72855498Y-81879820D01*
X72819188Y-81999518D01*
X72806928Y-82124000D01*
X72806928Y-83424000D01*
X72819188Y-83548482D01*
X72855498Y-83668180D01*
X72914463Y-83778494D01*
X72951809Y-83824000D01*
X72914463Y-83869506D01*
X72855498Y-83979820D01*
X72819188Y-84099518D01*
X72806928Y-84224000D01*
X72806928Y-85524000D01*
X72819188Y-85648482D01*
X72855498Y-85768180D01*
X72914463Y-85878494D01*
X72993815Y-85975185D01*
X73090506Y-86054537D01*
X73185001Y-86105046D01*
X73185001Y-86235552D01*
X72934621Y-86402850D01*
X72713850Y-86623621D01*
X72540391Y-86883221D01*
X72420911Y-87171673D01*
X72360000Y-87477891D01*
X72360000Y-87790109D01*
X72420911Y-88096327D01*
X72540391Y-88384779D01*
X72713850Y-88644379D01*
X72934621Y-88865150D01*
X73194221Y-89038609D01*
X73482673Y-89158089D01*
X73788891Y-89219000D01*
X74101109Y-89219000D01*
X74407327Y-89158089D01*
X74695779Y-89038609D01*
X74955379Y-88865150D01*
X75176150Y-88644379D01*
X75215000Y-88586236D01*
X75253850Y-88644379D01*
X75474621Y-88865150D01*
X75734221Y-89038609D01*
X76022673Y-89158089D01*
X76328891Y-89219000D01*
X76641109Y-89219000D01*
X76947327Y-89158089D01*
X77235779Y-89038609D01*
X77495379Y-88865150D01*
X77716150Y-88644379D01*
X77755000Y-88586236D01*
X77793850Y-88644379D01*
X78014621Y-88865150D01*
X78274221Y-89038609D01*
X78562673Y-89158089D01*
X78868891Y-89219000D01*
X79181109Y-89219000D01*
X79487327Y-89158089D01*
X79775779Y-89038609D01*
X80035379Y-88865150D01*
X80256150Y-88644379D01*
X80295000Y-88586236D01*
X80333850Y-88644379D01*
X80554621Y-88865150D01*
X80814221Y-89038609D01*
X81102673Y-89158089D01*
X81408891Y-89219000D01*
X81721109Y-89219000D01*
X82027327Y-89158089D01*
X82315779Y-89038609D01*
X82575379Y-88865150D01*
X82796150Y-88644379D01*
X82835000Y-88586236D01*
X82873850Y-88644379D01*
X83094621Y-88865150D01*
X83354221Y-89038609D01*
X83642673Y-89158089D01*
X83948891Y-89219000D01*
X84261109Y-89219000D01*
X84567327Y-89158089D01*
X84855779Y-89038609D01*
X85115379Y-88865150D01*
X85336150Y-88644379D01*
X85375000Y-88586236D01*
X85413850Y-88644379D01*
X85634621Y-88865150D01*
X85894221Y-89038609D01*
X86182673Y-89158089D01*
X86488891Y-89219000D01*
X86801109Y-89219000D01*
X87107327Y-89158089D01*
X87395779Y-89038609D01*
X87655379Y-88865150D01*
X87876150Y-88644379D01*
X87915000Y-88586236D01*
X87953850Y-88644379D01*
X88174621Y-88865150D01*
X88434221Y-89038609D01*
X88722673Y-89158089D01*
X89028891Y-89219000D01*
X89341109Y-89219000D01*
X89647327Y-89158089D01*
X89935779Y-89038609D01*
X90195379Y-88865150D01*
X90416150Y-88644379D01*
X90589609Y-88384779D01*
X90709089Y-88096327D01*
X90770000Y-87790109D01*
X90770000Y-87477891D01*
X90711252Y-87182549D01*
X91246004Y-86647798D01*
X91275001Y-86624001D01*
X91301332Y-86591917D01*
X91369974Y-86508277D01*
X91440546Y-86376247D01*
X91440546Y-86376246D01*
X91484003Y-86232986D01*
X91495000Y-86121333D01*
X91495000Y-86121323D01*
X91498676Y-86084001D01*
X91495000Y-86046678D01*
X91495000Y-85093072D01*
X91735000Y-85093072D01*
X91859482Y-85080812D01*
X91979180Y-85044502D01*
X92089494Y-84985537D01*
X92186185Y-84906185D01*
X92265537Y-84809494D01*
X92324502Y-84699180D01*
X92360812Y-84579482D01*
X92373072Y-84455000D01*
X92373072Y-82855000D01*
X92360812Y-82730518D01*
X92324502Y-82610820D01*
X92265537Y-82500506D01*
X92186185Y-82403815D01*
X92089494Y-82324463D01*
X91979180Y-82265498D01*
X91859482Y-82229188D01*
X91735000Y-82216928D01*
X91509783Y-82216928D01*
X91570937Y-82155774D01*
X91684205Y-81986256D01*
X91762226Y-81797898D01*
X91802000Y-81597939D01*
X91802000Y-81454500D01*
X93870667Y-81454500D01*
X93870667Y-84474500D01*
X104057334Y-84474500D01*
X104057334Y-81454500D01*
X93870667Y-81454500D01*
X91802000Y-81454500D01*
X91802000Y-81394061D01*
X91762226Y-81194102D01*
X91684205Y-81005744D01*
X91570937Y-80836226D01*
X91426774Y-80692063D01*
X91257256Y-80578795D01*
X91068898Y-80500774D01*
X91011619Y-80489381D01*
X91000226Y-80432102D01*
X90922205Y-80243744D01*
X90808937Y-80074226D01*
X90664774Y-79930063D01*
X90495256Y-79816795D01*
X90306898Y-79738774D01*
X90106939Y-79699000D01*
X89903061Y-79699000D01*
X89703102Y-79738774D01*
X89514744Y-79816795D01*
X89345226Y-79930063D01*
X89301289Y-79974000D01*
X87502323Y-79974000D01*
X87465000Y-79970324D01*
X87427677Y-79974000D01*
X87427667Y-79974000D01*
X87316014Y-79984997D01*
X87172753Y-80028454D01*
X87040723Y-80099026D01*
X86983470Y-80146013D01*
X86924999Y-80193999D01*
X86901201Y-80222998D01*
X86223998Y-80900201D01*
X86195000Y-80923999D01*
X86100026Y-81039724D01*
X86029454Y-81171753D01*
X85985997Y-81315014D01*
X85975000Y-81426667D01*
X85975000Y-81426678D01*
X85971324Y-81464000D01*
X85975000Y-81501322D01*
X85975000Y-82009332D01*
X85975001Y-82009342D01*
X85975001Y-82216928D01*
X85735000Y-82216928D01*
X85610518Y-82229188D01*
X85490820Y-82265498D01*
X85380506Y-82324463D01*
X85283815Y-82403815D01*
X85243072Y-82453461D01*
X85243072Y-82124000D01*
X85230812Y-81999518D01*
X85194502Y-81879820D01*
X85135537Y-81769506D01*
X85056185Y-81672815D01*
X84959494Y-81593463D01*
X84865000Y-81542954D01*
X84865000Y-78427325D01*
X84868676Y-78390000D01*
X84865000Y-78352675D01*
X84865000Y-78352667D01*
X84854003Y-78241014D01*
X84810546Y-78097753D01*
X84739974Y-77965724D01*
X84645001Y-77849999D01*
X84616004Y-77826202D01*
X82567804Y-75778003D01*
X82544001Y-75748999D01*
X82428276Y-75654026D01*
X82296247Y-75583454D01*
X82152986Y-75539997D01*
X82041333Y-75529000D01*
X82041322Y-75529000D01*
X82004000Y-75525324D01*
X81966678Y-75529000D01*
X73309711Y-75529000D01*
X73265774Y-75485063D01*
X73096256Y-75371795D01*
X72907898Y-75293774D01*
X72726548Y-75257702D01*
X72878000Y-75106250D01*
X72878000Y-74257000D01*
X71828750Y-74257000D01*
X71670000Y-74415750D01*
X71666928Y-74630000D01*
X71679188Y-74754482D01*
X71715498Y-74874180D01*
X71774463Y-74984494D01*
X71853815Y-75081185D01*
X71950506Y-75160537D01*
X72060820Y-75219502D01*
X72180518Y-75255812D01*
X72305000Y-75268072D01*
X72438285Y-75267084D01*
X72304102Y-75293774D01*
X72115744Y-75371795D01*
X71946226Y-75485063D01*
X71802063Y-75629226D01*
X71688795Y-75798744D01*
X71610774Y-75987102D01*
X71571000Y-76187061D01*
X71571000Y-76278764D01*
X71415102Y-76309774D01*
X71226744Y-76387795D01*
X71057226Y-76501063D01*
X70913063Y-76645226D01*
X70799795Y-76814744D01*
X70721774Y-77003102D01*
X70682000Y-77203061D01*
X70682000Y-77406939D01*
X70721774Y-77606898D01*
X70799795Y-77795256D01*
X70897846Y-77942000D01*
X70515711Y-77942000D01*
X70471774Y-77898063D01*
X70302256Y-77784795D01*
X70113898Y-77706774D01*
X69913939Y-77667000D01*
X69710061Y-77667000D01*
X69510102Y-77706774D01*
X69321744Y-77784795D01*
X69152226Y-77898063D01*
X69008063Y-78042226D01*
X68894795Y-78211744D01*
X68816774Y-78400102D01*
X68777000Y-78600061D01*
X50710000Y-78600061D01*
X50710000Y-60080000D01*
X53507815Y-60080000D01*
X53536487Y-60371111D01*
X53621401Y-60651034D01*
X53759294Y-60909014D01*
X53944866Y-61135134D01*
X54170986Y-61320706D01*
X54225791Y-61350000D01*
X54170986Y-61379294D01*
X53944866Y-61564866D01*
X53759294Y-61790986D01*
X53621401Y-62048966D01*
X53536487Y-62328889D01*
X53507815Y-62620000D01*
X53536487Y-62911111D01*
X53621401Y-63191034D01*
X53759294Y-63449014D01*
X53944866Y-63675134D01*
X54170986Y-63860706D01*
X54225791Y-63890000D01*
X54170986Y-63919294D01*
X53944866Y-64104866D01*
X53759294Y-64330986D01*
X53621401Y-64588966D01*
X53536487Y-64868889D01*
X53507815Y-65160000D01*
X53536487Y-65451111D01*
X53621401Y-65731034D01*
X53759294Y-65989014D01*
X53944866Y-66215134D01*
X54170986Y-66400706D01*
X54225791Y-66430000D01*
X54170986Y-66459294D01*
X53944866Y-66644866D01*
X53759294Y-66870986D01*
X53621401Y-67128966D01*
X53536487Y-67408889D01*
X53507815Y-67700000D01*
X53536487Y-67991111D01*
X53621401Y-68271034D01*
X53759294Y-68529014D01*
X53944866Y-68755134D01*
X54170986Y-68940706D01*
X54225791Y-68970000D01*
X54170986Y-68999294D01*
X53944866Y-69184866D01*
X53759294Y-69410986D01*
X53621401Y-69668966D01*
X53536487Y-69948889D01*
X53507815Y-70240000D01*
X53536487Y-70531111D01*
X53621401Y-70811034D01*
X53759294Y-71069014D01*
X53944866Y-71295134D01*
X54170986Y-71480706D01*
X54225791Y-71510000D01*
X54170986Y-71539294D01*
X53944866Y-71724866D01*
X53759294Y-71950986D01*
X53621401Y-72208966D01*
X53536487Y-72488889D01*
X53507815Y-72780000D01*
X53536487Y-73071111D01*
X53621401Y-73351034D01*
X53759294Y-73609014D01*
X53944866Y-73835134D01*
X54170986Y-74020706D01*
X54225791Y-74050000D01*
X54170986Y-74079294D01*
X53944866Y-74264866D01*
X53759294Y-74490986D01*
X53621401Y-74748966D01*
X53536487Y-75028889D01*
X53507815Y-75320000D01*
X53536487Y-75611111D01*
X53621401Y-75891034D01*
X53759294Y-76149014D01*
X53944866Y-76375134D01*
X54170986Y-76560706D01*
X54428966Y-76698599D01*
X54708889Y-76783513D01*
X54927050Y-76805000D01*
X55072950Y-76805000D01*
X55291111Y-76783513D01*
X55571034Y-76698599D01*
X55829014Y-76560706D01*
X56055134Y-76375134D01*
X56240706Y-76149014D01*
X56277595Y-76080000D01*
X58722405Y-76080000D01*
X58759294Y-76149014D01*
X58944866Y-76375134D01*
X59170986Y-76560706D01*
X59428966Y-76698599D01*
X59708889Y-76783513D01*
X59927050Y-76805000D01*
X60072950Y-76805000D01*
X60291111Y-76783513D01*
X60571034Y-76698599D01*
X60829014Y-76560706D01*
X61055134Y-76375134D01*
X61240706Y-76149014D01*
X61277595Y-76080000D01*
X66997810Y-76080000D01*
X67162744Y-76190205D01*
X67351102Y-76268226D01*
X67551061Y-76308000D01*
X67754939Y-76308000D01*
X67954898Y-76268226D01*
X68143256Y-76190205D01*
X68312774Y-76076937D01*
X68456937Y-75932774D01*
X68570205Y-75763256D01*
X68648226Y-75574898D01*
X68688000Y-75374939D01*
X68688000Y-75171061D01*
X68648226Y-74971102D01*
X68570205Y-74782744D01*
X68456937Y-74613226D01*
X68312774Y-74469063D01*
X68143256Y-74355795D01*
X67954898Y-74277774D01*
X67754939Y-74238000D01*
X67551061Y-74238000D01*
X67351102Y-74277774D01*
X67162744Y-74355795D01*
X66993226Y-74469063D01*
X66902289Y-74560000D01*
X61277595Y-74560000D01*
X61240706Y-74490986D01*
X61055134Y-74264866D01*
X60829014Y-74079294D01*
X60774209Y-74050000D01*
X60829014Y-74020706D01*
X61055134Y-73835134D01*
X61223483Y-73630000D01*
X71666928Y-73630000D01*
X71670000Y-73844250D01*
X71828750Y-74003000D01*
X72878000Y-74003000D01*
X72878000Y-73153750D01*
X72719250Y-72995000D01*
X72305000Y-72991928D01*
X72180518Y-73004188D01*
X72060820Y-73040498D01*
X71950506Y-73099463D01*
X71853815Y-73178815D01*
X71774463Y-73275506D01*
X71715498Y-73385820D01*
X71679188Y-73505518D01*
X71666928Y-73630000D01*
X61223483Y-73630000D01*
X61240706Y-73609014D01*
X61378599Y-73351034D01*
X61463513Y-73071111D01*
X61492185Y-72780000D01*
X61463513Y-72488889D01*
X61378599Y-72208966D01*
X61240706Y-71950986D01*
X61055134Y-71724866D01*
X60829014Y-71539294D01*
X60774209Y-71510000D01*
X60829014Y-71480706D01*
X61055134Y-71295134D01*
X61240706Y-71069014D01*
X61378599Y-70811034D01*
X61463513Y-70531111D01*
X61492185Y-70240000D01*
X61463513Y-69948889D01*
X61378599Y-69668966D01*
X61240706Y-69410986D01*
X61055134Y-69184866D01*
X60829014Y-68999294D01*
X60774209Y-68970000D01*
X60829014Y-68940706D01*
X61055134Y-68755134D01*
X61240706Y-68529014D01*
X61378599Y-68271034D01*
X61463513Y-67991111D01*
X61492185Y-67700000D01*
X61463513Y-67408889D01*
X61378599Y-67128966D01*
X61240706Y-66870986D01*
X61055134Y-66644866D01*
X60829014Y-66459294D01*
X60774209Y-66430000D01*
X60829014Y-66400706D01*
X61055134Y-66215134D01*
X61240706Y-65989014D01*
X61378599Y-65731034D01*
X61463513Y-65451111D01*
X61492185Y-65160000D01*
X61463513Y-64868889D01*
X61378599Y-64588966D01*
X61240706Y-64330986D01*
X61055134Y-64104866D01*
X60829014Y-63919294D01*
X60774209Y-63890000D01*
X60829014Y-63860706D01*
X61055134Y-63675134D01*
X61240706Y-63449014D01*
X61302717Y-63333000D01*
X61615289Y-63333000D01*
X61659226Y-63376937D01*
X61828744Y-63490205D01*
X62017102Y-63568226D01*
X62217061Y-63608000D01*
X62420939Y-63608000D01*
X62620898Y-63568226D01*
X62809256Y-63490205D01*
X62978774Y-63376937D01*
X63122937Y-63232774D01*
X63236205Y-63063256D01*
X63314226Y-62874898D01*
X63354000Y-62674939D01*
X63354000Y-62471061D01*
X63319975Y-62300000D01*
X65371928Y-62300000D01*
X65384188Y-62424482D01*
X65420498Y-62544180D01*
X65479463Y-62654494D01*
X65516809Y-62700000D01*
X65479463Y-62745506D01*
X65420498Y-62855820D01*
X65384188Y-62975518D01*
X65371928Y-63100000D01*
X65371928Y-64400000D01*
X65384188Y-64524482D01*
X65420498Y-64644180D01*
X65479463Y-64754494D01*
X65558815Y-64851185D01*
X65655506Y-64930537D01*
X65765820Y-64989502D01*
X65885518Y-65025812D01*
X66010000Y-65038072D01*
X67010000Y-65038072D01*
X67134482Y-65025812D01*
X67254180Y-64989502D01*
X67364494Y-64930537D01*
X67461185Y-64851185D01*
X67540537Y-64754494D01*
X67553630Y-64730000D01*
X70812987Y-64730000D01*
X70799795Y-64749744D01*
X70721774Y-64938102D01*
X70682000Y-65138061D01*
X70682000Y-65341939D01*
X70721774Y-65541898D01*
X70799795Y-65730256D01*
X70913063Y-65899774D01*
X71057226Y-66043937D01*
X71226744Y-66157205D01*
X71415102Y-66235226D01*
X71598137Y-66271634D01*
X71571000Y-66408061D01*
X71571000Y-66611939D01*
X71610774Y-66811898D01*
X71688795Y-67000256D01*
X71802063Y-67169774D01*
X71946226Y-67313937D01*
X72115744Y-67427205D01*
X72304102Y-67505226D01*
X72504061Y-67545000D01*
X72707939Y-67545000D01*
X72907898Y-67505226D01*
X73096256Y-67427205D01*
X73265774Y-67313937D01*
X73309711Y-67270000D01*
X73590130Y-67270000D01*
X73564188Y-67355518D01*
X73551928Y-67480000D01*
X73551928Y-68080000D01*
X73564188Y-68204482D01*
X73600498Y-68324180D01*
X73659463Y-68434494D01*
X73738815Y-68531185D01*
X73835506Y-68610537D01*
X73945820Y-68669502D01*
X74065518Y-68705812D01*
X74190000Y-68718072D01*
X75990000Y-68718072D01*
X76114482Y-68705812D01*
X76234180Y-68669502D01*
X76344494Y-68610537D01*
X76430444Y-68540000D01*
X76863199Y-68540000D01*
X79500001Y-71176803D01*
X79500000Y-73002762D01*
X79485518Y-73004188D01*
X79365820Y-73040498D01*
X79255506Y-73099463D01*
X79210000Y-73136809D01*
X79164494Y-73099463D01*
X79054180Y-73040498D01*
X78934482Y-73004188D01*
X78810000Y-72991928D01*
X77510000Y-72991928D01*
X77385518Y-73004188D01*
X77265820Y-73040498D01*
X77155506Y-73099463D01*
X77058815Y-73178815D01*
X76979463Y-73275506D01*
X76928954Y-73370000D01*
X76536046Y-73370000D01*
X76485537Y-73275506D01*
X76406185Y-73178815D01*
X76309494Y-73099463D01*
X76199180Y-73040498D01*
X76079482Y-73004188D01*
X75955000Y-72991928D01*
X74555000Y-72991928D01*
X74430518Y-73004188D01*
X74310820Y-73040498D01*
X74200506Y-73099463D01*
X74130000Y-73157326D01*
X74059494Y-73099463D01*
X73949180Y-73040498D01*
X73829482Y-73004188D01*
X73705000Y-72991928D01*
X73290750Y-72995000D01*
X73132000Y-73153750D01*
X73132000Y-74003000D01*
X73152000Y-74003000D01*
X73152000Y-74257000D01*
X73132000Y-74257000D01*
X73132000Y-75106250D01*
X73290750Y-75265000D01*
X73705000Y-75268072D01*
X73829482Y-75255812D01*
X73949180Y-75219502D01*
X74059494Y-75160537D01*
X74130000Y-75102674D01*
X74200506Y-75160537D01*
X74310820Y-75219502D01*
X74430518Y-75255812D01*
X74555000Y-75268072D01*
X75955000Y-75268072D01*
X76079482Y-75255812D01*
X76199180Y-75219502D01*
X76309494Y-75160537D01*
X76406185Y-75081185D01*
X76485537Y-74984494D01*
X76536046Y-74890000D01*
X76928954Y-74890000D01*
X76979463Y-74984494D01*
X77058815Y-75081185D01*
X77155506Y-75160537D01*
X77265820Y-75219502D01*
X77385518Y-75255812D01*
X77510000Y-75268072D01*
X78810000Y-75268072D01*
X78934482Y-75255812D01*
X79054180Y-75219502D01*
X79164494Y-75160537D01*
X79210000Y-75123191D01*
X79255506Y-75160537D01*
X79365820Y-75219502D01*
X79485518Y-75255812D01*
X79610000Y-75268072D01*
X80910000Y-75268072D01*
X81034482Y-75255812D01*
X81154180Y-75219502D01*
X81264494Y-75160537D01*
X81361185Y-75081185D01*
X81440537Y-74984494D01*
X81499502Y-74874180D01*
X81535812Y-74754482D01*
X81548072Y-74630000D01*
X81548072Y-73630000D01*
X81535812Y-73505518D01*
X81499502Y-73385820D01*
X81440537Y-73275506D01*
X81361185Y-73178815D01*
X81264494Y-73099463D01*
X81154180Y-73040498D01*
X81034482Y-73004188D01*
X81020000Y-73002762D01*
X81020000Y-70899322D01*
X81023676Y-70861999D01*
X81020000Y-70824676D01*
X81020000Y-70824667D01*
X81009003Y-70713014D01*
X80965546Y-70569753D01*
X80894974Y-70437724D01*
X80800001Y-70321999D01*
X80771003Y-70298201D01*
X77741804Y-67269003D01*
X77718001Y-67239999D01*
X77602276Y-67145026D01*
X77470247Y-67074454D01*
X77326986Y-67030997D01*
X77215333Y-67020000D01*
X77215322Y-67020000D01*
X77178000Y-67016324D01*
X77140678Y-67020000D01*
X76589870Y-67020000D01*
X76615812Y-66934482D01*
X76628072Y-66810000D01*
X76628072Y-66210000D01*
X76615812Y-66085518D01*
X76579502Y-65965820D01*
X76530957Y-65875000D01*
X76579502Y-65784180D01*
X76615812Y-65664482D01*
X76628072Y-65540000D01*
X76628072Y-64940000D01*
X76615812Y-64815518D01*
X76579502Y-64695820D01*
X76530957Y-64605000D01*
X76579502Y-64514180D01*
X76615812Y-64394482D01*
X76628072Y-64270000D01*
X76628072Y-63868061D01*
X77032000Y-63868061D01*
X77032000Y-64071939D01*
X77071774Y-64271898D01*
X77149795Y-64460256D01*
X77263063Y-64629774D01*
X77407226Y-64773937D01*
X77576744Y-64887205D01*
X77765102Y-64965226D01*
X77965061Y-65005000D01*
X78168939Y-65005000D01*
X78368898Y-64965226D01*
X78557256Y-64887205D01*
X78726774Y-64773937D01*
X78770711Y-64730000D01*
X79290130Y-64730000D01*
X79264188Y-64815518D01*
X79251928Y-64940000D01*
X79251928Y-65540000D01*
X79264188Y-65664482D01*
X79300498Y-65784180D01*
X79349043Y-65875000D01*
X79300498Y-65965820D01*
X79264188Y-66085518D01*
X79251928Y-66210000D01*
X79251928Y-66810000D01*
X79264188Y-66934482D01*
X79300498Y-67054180D01*
X79349043Y-67145000D01*
X79300498Y-67235820D01*
X79264188Y-67355518D01*
X79251928Y-67480000D01*
X79251928Y-68080000D01*
X79264188Y-68204482D01*
X79300498Y-68324180D01*
X79359463Y-68434494D01*
X79438815Y-68531185D01*
X79535506Y-68610537D01*
X79645820Y-68669502D01*
X79765518Y-68705812D01*
X79890000Y-68718072D01*
X81690000Y-68718072D01*
X81814482Y-68705812D01*
X81934180Y-68669502D01*
X82044494Y-68610537D01*
X82130444Y-68540000D01*
X90833199Y-68540000D01*
X93044201Y-70751003D01*
X93067999Y-70780001D01*
X93183724Y-70874974D01*
X93315753Y-70945546D01*
X93459014Y-70989003D01*
X93570667Y-71000000D01*
X93570676Y-71000000D01*
X93607999Y-71003676D01*
X93645322Y-71000000D01*
X93722405Y-71000000D01*
X93759294Y-71069014D01*
X93944866Y-71295134D01*
X94170986Y-71480706D01*
X94225791Y-71510000D01*
X94170986Y-71539294D01*
X93944866Y-71724866D01*
X93759294Y-71950986D01*
X93621401Y-72208966D01*
X93536487Y-72488889D01*
X93507815Y-72780000D01*
X93536487Y-73071111D01*
X93621401Y-73351034D01*
X93759294Y-73609014D01*
X93944866Y-73835134D01*
X94170986Y-74020706D01*
X94225791Y-74050000D01*
X94170986Y-74079294D01*
X93944866Y-74264866D01*
X93759294Y-74490986D01*
X93621401Y-74748966D01*
X93536487Y-75028889D01*
X93507815Y-75320000D01*
X93536487Y-75611111D01*
X93621401Y-75891034D01*
X93759294Y-76149014D01*
X93944866Y-76375134D01*
X94170986Y-76560706D01*
X94428966Y-76698599D01*
X94708889Y-76783513D01*
X94927050Y-76805000D01*
X95072950Y-76805000D01*
X95291111Y-76783513D01*
X95571034Y-76698599D01*
X95829014Y-76560706D01*
X96055134Y-76375134D01*
X96240706Y-76149014D01*
X96277595Y-76080000D01*
X98722405Y-76080000D01*
X98759294Y-76149014D01*
X98944866Y-76375134D01*
X99170986Y-76560706D01*
X99428966Y-76698599D01*
X99708889Y-76783513D01*
X99927050Y-76805000D01*
X100072950Y-76805000D01*
X100291111Y-76783513D01*
X100571034Y-76698599D01*
X100829014Y-76560706D01*
X101055134Y-76375134D01*
X101240706Y-76149014D01*
X101378599Y-75891034D01*
X101463513Y-75611111D01*
X101492185Y-75320000D01*
X101463513Y-75028889D01*
X101378599Y-74748966D01*
X101240706Y-74490986D01*
X101055134Y-74264866D01*
X100829014Y-74079294D01*
X100774209Y-74050000D01*
X100829014Y-74020706D01*
X101055134Y-73835134D01*
X101240706Y-73609014D01*
X101378599Y-73351034D01*
X101463513Y-73071111D01*
X101492185Y-72780000D01*
X101463513Y-72488889D01*
X101378599Y-72208966D01*
X101240706Y-71950986D01*
X101055134Y-71724866D01*
X100829014Y-71539294D01*
X100774209Y-71510000D01*
X100829014Y-71480706D01*
X101055134Y-71295134D01*
X101240706Y-71069014D01*
X101378599Y-70811034D01*
X101463513Y-70531111D01*
X101492185Y-70240000D01*
X101463513Y-69948889D01*
X101378599Y-69668966D01*
X101240706Y-69410986D01*
X101055134Y-69184866D01*
X100829014Y-68999294D01*
X100774209Y-68970000D01*
X100829014Y-68940706D01*
X101055134Y-68755134D01*
X101240706Y-68529014D01*
X101378599Y-68271034D01*
X101463513Y-67991111D01*
X101492185Y-67700000D01*
X101463513Y-67408889D01*
X101378599Y-67128966D01*
X101240706Y-66870986D01*
X101055134Y-66644866D01*
X100829014Y-66459294D01*
X100774209Y-66430000D01*
X100829014Y-66400706D01*
X101055134Y-66215134D01*
X101240706Y-65989014D01*
X101378599Y-65731034D01*
X101463513Y-65451111D01*
X101492185Y-65160000D01*
X101463513Y-64868889D01*
X101378599Y-64588966D01*
X101240706Y-64330986D01*
X101055134Y-64104866D01*
X100829014Y-63919294D01*
X100774209Y-63890000D01*
X100829014Y-63860706D01*
X101055134Y-63675134D01*
X101240706Y-63449014D01*
X101378599Y-63191034D01*
X101463513Y-62911111D01*
X101492185Y-62620000D01*
X101463513Y-62328889D01*
X101378599Y-62048966D01*
X101240706Y-61790986D01*
X101055134Y-61564866D01*
X100829014Y-61379294D01*
X100774209Y-61350000D01*
X100829014Y-61320706D01*
X101055134Y-61135134D01*
X101240706Y-60909014D01*
X101378599Y-60651034D01*
X101463513Y-60371111D01*
X101492185Y-60080000D01*
X101463513Y-59788889D01*
X101378599Y-59508966D01*
X101240706Y-59250986D01*
X101055134Y-59024866D01*
X100829014Y-58839294D01*
X100774209Y-58810000D01*
X100829014Y-58780706D01*
X101055134Y-58595134D01*
X101240706Y-58369014D01*
X101378599Y-58111034D01*
X101463513Y-57831111D01*
X101492185Y-57540000D01*
X101463513Y-57248889D01*
X101378599Y-56968966D01*
X101240706Y-56710986D01*
X101055134Y-56484866D01*
X101025313Y-56460393D01*
X101094180Y-56439502D01*
X101204494Y-56380537D01*
X101301185Y-56301185D01*
X101380537Y-56204494D01*
X101439502Y-56094180D01*
X101475812Y-55974482D01*
X101488072Y-55850000D01*
X101488072Y-54150000D01*
X101475812Y-54025518D01*
X101439502Y-53905820D01*
X101380537Y-53795506D01*
X101301185Y-53698815D01*
X101204494Y-53619463D01*
X101094180Y-53560498D01*
X100974482Y-53524188D01*
X100850000Y-53511928D01*
X99150000Y-53511928D01*
X99025518Y-53524188D01*
X98905820Y-53560498D01*
X98795506Y-53619463D01*
X98698815Y-53698815D01*
X98619463Y-53795506D01*
X98560498Y-53905820D01*
X98524188Y-54025518D01*
X98511928Y-54150000D01*
X98511928Y-54240000D01*
X96488072Y-54240000D01*
X96488072Y-54150000D01*
X96475812Y-54025518D01*
X96439502Y-53905820D01*
X96380537Y-53795506D01*
X96301185Y-53698815D01*
X96204494Y-53619463D01*
X96094180Y-53560498D01*
X95974482Y-53524188D01*
X95850000Y-53511928D01*
X94150000Y-53511928D01*
X94025518Y-53524188D01*
X93905820Y-53560498D01*
X93795506Y-53619463D01*
X93698815Y-53698815D01*
X93619463Y-53795506D01*
X93560498Y-53905820D01*
X93524188Y-54025518D01*
X93511928Y-54150000D01*
X93511928Y-55850000D01*
X93524188Y-55974482D01*
X93560498Y-56094180D01*
X93619463Y-56204494D01*
X93698815Y-56301185D01*
X93795506Y-56380537D01*
X93905820Y-56439502D01*
X93974687Y-56460393D01*
X93944866Y-56484866D01*
X93759294Y-56710986D01*
X93621401Y-56968966D01*
X93536487Y-57248889D01*
X93507815Y-57540000D01*
X93536487Y-57831111D01*
X93621401Y-58111034D01*
X93759294Y-58369014D01*
X93944866Y-58595134D01*
X94170986Y-58780706D01*
X94225791Y-58810000D01*
X94170986Y-58839294D01*
X93944866Y-59024866D01*
X93759294Y-59250986D01*
X93621401Y-59508966D01*
X93536487Y-59788889D01*
X93507815Y-60080000D01*
X93536487Y-60371111D01*
X93621401Y-60651034D01*
X93759294Y-60909014D01*
X93944866Y-61135134D01*
X94170986Y-61320706D01*
X94225791Y-61350000D01*
X94170986Y-61379294D01*
X93944866Y-61564866D01*
X93759294Y-61790986D01*
X93621401Y-62048966D01*
X93536487Y-62328889D01*
X93507815Y-62620000D01*
X93536487Y-62911111D01*
X93621401Y-63191034D01*
X93759294Y-63449014D01*
X93944866Y-63675134D01*
X94170986Y-63860706D01*
X94225791Y-63890000D01*
X94170986Y-63919294D01*
X93944866Y-64104866D01*
X93759294Y-64330986D01*
X93621401Y-64588966D01*
X93536487Y-64868889D01*
X93507815Y-65160000D01*
X93536487Y-65451111D01*
X93621401Y-65731034D01*
X93759294Y-65989014D01*
X93944866Y-66215134D01*
X94170986Y-66400706D01*
X94225791Y-66430000D01*
X94170986Y-66459294D01*
X93944866Y-66644866D01*
X93759294Y-66870986D01*
X93621401Y-67128966D01*
X93536487Y-67408889D01*
X93507815Y-67700000D01*
X93536487Y-67991111D01*
X93621401Y-68271034D01*
X93759294Y-68529014D01*
X93944866Y-68755134D01*
X94170986Y-68940706D01*
X94225791Y-68970000D01*
X94170986Y-68999294D01*
X93944866Y-69184866D01*
X93801888Y-69359086D01*
X91711804Y-67269003D01*
X91688001Y-67239999D01*
X91572276Y-67145026D01*
X91440247Y-67074454D01*
X91296986Y-67030997D01*
X91185333Y-67020000D01*
X91185322Y-67020000D01*
X91148000Y-67016324D01*
X91110678Y-67020000D01*
X85829013Y-67020000D01*
X85842205Y-67000256D01*
X85920226Y-66811898D01*
X85960000Y-66611939D01*
X85960000Y-66408061D01*
X85928030Y-66247333D01*
X85988898Y-66235226D01*
X86177256Y-66157205D01*
X86346774Y-66043937D01*
X86490937Y-65899774D01*
X86509513Y-65871972D01*
X86511999Y-65875001D01*
X86627724Y-65969974D01*
X86661928Y-65988257D01*
X86661928Y-66335000D01*
X86674188Y-66459482D01*
X86710498Y-66579180D01*
X86769463Y-66689494D01*
X86848815Y-66786185D01*
X86945506Y-66865537D01*
X87055820Y-66924502D01*
X87175518Y-66960812D01*
X87300000Y-66973072D01*
X88900000Y-66973072D01*
X89024482Y-66960812D01*
X89144180Y-66924502D01*
X89254494Y-66865537D01*
X89351185Y-66786185D01*
X89430537Y-66689494D01*
X89489502Y-66579180D01*
X89525812Y-66459482D01*
X89538072Y-66335000D01*
X89538072Y-64335000D01*
X89525812Y-64210518D01*
X89489502Y-64090820D01*
X89430537Y-63980506D01*
X89351185Y-63883815D01*
X89254494Y-63804463D01*
X89144180Y-63745498D01*
X89024482Y-63709188D01*
X88900000Y-63696928D01*
X87300000Y-63696928D01*
X87209000Y-63705890D01*
X87209000Y-62964110D01*
X87300000Y-62973072D01*
X87814250Y-62970000D01*
X87973000Y-62811250D01*
X87973000Y-61462000D01*
X88227000Y-61462000D01*
X88227000Y-62811250D01*
X88385750Y-62970000D01*
X88900000Y-62973072D01*
X89024482Y-62960812D01*
X89144180Y-62924502D01*
X89254494Y-62865537D01*
X89351185Y-62786185D01*
X89430537Y-62689494D01*
X89489502Y-62579180D01*
X89525812Y-62459482D01*
X89538072Y-62335000D01*
X89535000Y-61620750D01*
X89376250Y-61462000D01*
X88227000Y-61462000D01*
X87973000Y-61462000D01*
X87953000Y-61462000D01*
X87953000Y-61208000D01*
X87973000Y-61208000D01*
X87973000Y-59858750D01*
X88227000Y-59858750D01*
X88227000Y-61208000D01*
X89376250Y-61208000D01*
X89535000Y-61049250D01*
X89538072Y-60335000D01*
X89525812Y-60210518D01*
X89489502Y-60090820D01*
X89430537Y-59980506D01*
X89351185Y-59883815D01*
X89254494Y-59804463D01*
X89144180Y-59745498D01*
X89024482Y-59709188D01*
X88900000Y-59696928D01*
X88385750Y-59700000D01*
X88227000Y-59858750D01*
X87973000Y-59858750D01*
X87814250Y-59700000D01*
X87377657Y-59697392D01*
X87366205Y-59669744D01*
X87252937Y-59500226D01*
X87108774Y-59356063D01*
X86939256Y-59242795D01*
X86750898Y-59164774D01*
X86550939Y-59125000D01*
X86347061Y-59125000D01*
X86147102Y-59164774D01*
X85958744Y-59242795D01*
X85789226Y-59356063D01*
X85745289Y-59400000D01*
X82130444Y-59400000D01*
X82044494Y-59329463D01*
X81934180Y-59270498D01*
X81814482Y-59234188D01*
X81690000Y-59221928D01*
X79890000Y-59221928D01*
X79765518Y-59234188D01*
X79645820Y-59270498D01*
X79535506Y-59329463D01*
X79438815Y-59408815D01*
X79359463Y-59505506D01*
X79300498Y-59615820D01*
X79264188Y-59735518D01*
X79251928Y-59860000D01*
X79251928Y-60460000D01*
X79264188Y-60584482D01*
X79300498Y-60704180D01*
X79349043Y-60795000D01*
X79300498Y-60885820D01*
X79264188Y-61005518D01*
X79251928Y-61130000D01*
X79251928Y-61730000D01*
X79264188Y-61854482D01*
X79300498Y-61974180D01*
X79349043Y-62065000D01*
X79300498Y-62155820D01*
X79264188Y-62275518D01*
X79251928Y-62400000D01*
X79251928Y-63000000D01*
X79264188Y-63124482D01*
X79290130Y-63210000D01*
X78770711Y-63210000D01*
X78726774Y-63166063D01*
X78557256Y-63052795D01*
X78368898Y-62974774D01*
X78168939Y-62935000D01*
X77965061Y-62935000D01*
X77765102Y-62974774D01*
X77576744Y-63052795D01*
X77407226Y-63166063D01*
X77263063Y-63310226D01*
X77149795Y-63479744D01*
X77071774Y-63668102D01*
X77032000Y-63868061D01*
X76628072Y-63868061D01*
X76628072Y-63670000D01*
X76615812Y-63545518D01*
X76579502Y-63425820D01*
X76530957Y-63335000D01*
X76579502Y-63244180D01*
X76615812Y-63124482D01*
X76628072Y-63000000D01*
X76628072Y-62400000D01*
X76615812Y-62275518D01*
X76579502Y-62155820D01*
X76530957Y-62065000D01*
X76579502Y-61974180D01*
X76615812Y-61854482D01*
X76628072Y-61730000D01*
X76628072Y-61130000D01*
X76615812Y-61005518D01*
X76579502Y-60885820D01*
X76530957Y-60795000D01*
X76579502Y-60704180D01*
X76615812Y-60584482D01*
X76628072Y-60460000D01*
X76625000Y-60445750D01*
X76466250Y-60287000D01*
X75217000Y-60287000D01*
X75217000Y-60307000D01*
X74963000Y-60307000D01*
X74963000Y-60287000D01*
X73713750Y-60287000D01*
X73555000Y-60445750D01*
X73551928Y-60460000D01*
X73564188Y-60584482D01*
X73590130Y-60670000D01*
X71531711Y-60670000D01*
X71487774Y-60626063D01*
X71318256Y-60512795D01*
X71129898Y-60434774D01*
X70929939Y-60395000D01*
X70726061Y-60395000D01*
X70526102Y-60434774D01*
X70337744Y-60512795D01*
X70168226Y-60626063D01*
X70024063Y-60770226D01*
X69910795Y-60939744D01*
X69832774Y-61128102D01*
X69793000Y-61328061D01*
X69793000Y-61531939D01*
X69819467Y-61665000D01*
X69710061Y-61665000D01*
X69510102Y-61704774D01*
X69321744Y-61782795D01*
X69152226Y-61896063D01*
X69008063Y-62040226D01*
X68894795Y-62209744D01*
X68816774Y-62398102D01*
X68777000Y-62598061D01*
X68777000Y-62801939D01*
X68816774Y-63001898D01*
X68894795Y-63190256D01*
X68907987Y-63210000D01*
X67648072Y-63210000D01*
X67648072Y-63100000D01*
X67635812Y-62975518D01*
X67599502Y-62855820D01*
X67540537Y-62745506D01*
X67503191Y-62700000D01*
X67540537Y-62654494D01*
X67599502Y-62544180D01*
X67635812Y-62424482D01*
X67648072Y-62300000D01*
X67645000Y-61935750D01*
X67486250Y-61777000D01*
X66637000Y-61777000D01*
X66637000Y-61797000D01*
X66383000Y-61797000D01*
X66383000Y-61777000D01*
X65533750Y-61777000D01*
X65375000Y-61935750D01*
X65371928Y-62300000D01*
X63319975Y-62300000D01*
X63314226Y-62271102D01*
X63236205Y-62082744D01*
X63122937Y-61913226D01*
X62978774Y-61769063D01*
X62809256Y-61655795D01*
X62620898Y-61577774D01*
X62420939Y-61538000D01*
X62217061Y-61538000D01*
X62017102Y-61577774D01*
X61828744Y-61655795D01*
X61659226Y-61769063D01*
X61615289Y-61813000D01*
X61252473Y-61813000D01*
X61240706Y-61790986D01*
X61055134Y-61564866D01*
X60829014Y-61379294D01*
X60774209Y-61350000D01*
X60829014Y-61320706D01*
X61055134Y-61135134D01*
X61240706Y-60909014D01*
X61302717Y-60793000D01*
X62377289Y-60793000D01*
X62421226Y-60836937D01*
X62590744Y-60950205D01*
X62779102Y-61028226D01*
X62979061Y-61068000D01*
X63182939Y-61068000D01*
X63382898Y-61028226D01*
X63451041Y-61000000D01*
X65371928Y-61000000D01*
X65375000Y-61364250D01*
X65533750Y-61523000D01*
X66383000Y-61523000D01*
X66383000Y-60523750D01*
X66637000Y-60523750D01*
X66637000Y-61523000D01*
X67486250Y-61523000D01*
X67645000Y-61364250D01*
X67648072Y-61000000D01*
X67635812Y-60875518D01*
X67599502Y-60755820D01*
X67540537Y-60645506D01*
X67461185Y-60548815D01*
X67364494Y-60469463D01*
X67254180Y-60410498D01*
X67134482Y-60374188D01*
X67010000Y-60361928D01*
X66795750Y-60365000D01*
X66637000Y-60523750D01*
X66383000Y-60523750D01*
X66224250Y-60365000D01*
X66010000Y-60361928D01*
X65885518Y-60374188D01*
X65765820Y-60410498D01*
X65655506Y-60469463D01*
X65558815Y-60548815D01*
X65479463Y-60645506D01*
X65420498Y-60755820D01*
X65384188Y-60875518D01*
X65371928Y-61000000D01*
X63451041Y-61000000D01*
X63571256Y-60950205D01*
X63740774Y-60836937D01*
X63884937Y-60692774D01*
X63998205Y-60523256D01*
X64076226Y-60334898D01*
X64116000Y-60134939D01*
X64116000Y-59931061D01*
X64101866Y-59860000D01*
X73551928Y-59860000D01*
X73555000Y-59874250D01*
X73713750Y-60033000D01*
X74963000Y-60033000D01*
X74963000Y-59383750D01*
X75217000Y-59383750D01*
X75217000Y-60033000D01*
X76466250Y-60033000D01*
X76625000Y-59874250D01*
X76628072Y-59860000D01*
X76615812Y-59735518D01*
X76579502Y-59615820D01*
X76520537Y-59505506D01*
X76441185Y-59408815D01*
X76344494Y-59329463D01*
X76234180Y-59270498D01*
X76114482Y-59234188D01*
X75990000Y-59221928D01*
X75375750Y-59225000D01*
X75217000Y-59383750D01*
X74963000Y-59383750D01*
X74804250Y-59225000D01*
X74190000Y-59221928D01*
X74065518Y-59234188D01*
X73945820Y-59270498D01*
X73835506Y-59329463D01*
X73738815Y-59408815D01*
X73659463Y-59505506D01*
X73600498Y-59615820D01*
X73564188Y-59735518D01*
X73551928Y-59860000D01*
X64101866Y-59860000D01*
X64076226Y-59731102D01*
X63998205Y-59542744D01*
X63884937Y-59373226D01*
X63740774Y-59229063D01*
X63571256Y-59115795D01*
X63382898Y-59037774D01*
X63182939Y-58998000D01*
X62979061Y-58998000D01*
X62779102Y-59037774D01*
X62590744Y-59115795D01*
X62421226Y-59229063D01*
X62377289Y-59273000D01*
X61252473Y-59273000D01*
X61240706Y-59250986D01*
X61055134Y-59024866D01*
X60829014Y-58839294D01*
X60764477Y-58804799D01*
X60881355Y-58735178D01*
X61097588Y-58540269D01*
X61271641Y-58306920D01*
X61396825Y-58044099D01*
X61441476Y-57896890D01*
X61320155Y-57667000D01*
X60127000Y-57667000D01*
X60127000Y-57687000D01*
X59873000Y-57687000D01*
X59873000Y-57667000D01*
X58679845Y-57667000D01*
X58558524Y-57896890D01*
X58603175Y-58044099D01*
X58728359Y-58306920D01*
X58902412Y-58540269D01*
X59118645Y-58735178D01*
X59235523Y-58804799D01*
X59170986Y-58839294D01*
X58944866Y-59024866D01*
X58759294Y-59250986D01*
X58722405Y-59320000D01*
X56277595Y-59320000D01*
X56240706Y-59250986D01*
X56055134Y-59024866D01*
X55829014Y-58839294D01*
X55764477Y-58804799D01*
X55881355Y-58735178D01*
X56097588Y-58540269D01*
X56271641Y-58306920D01*
X56396825Y-58044099D01*
X56441476Y-57896890D01*
X56320155Y-57667000D01*
X55127000Y-57667000D01*
X55127000Y-57687000D01*
X54873000Y-57687000D01*
X54873000Y-57667000D01*
X53679845Y-57667000D01*
X53558524Y-57896890D01*
X53603175Y-58044099D01*
X53728359Y-58306920D01*
X53902412Y-58540269D01*
X54118645Y-58735178D01*
X54235523Y-58804799D01*
X54170986Y-58839294D01*
X53944866Y-59024866D01*
X53759294Y-59250986D01*
X53621401Y-59508966D01*
X53536487Y-59788889D01*
X53507815Y-60080000D01*
X50710000Y-60080000D01*
X50710000Y-54150000D01*
X53511928Y-54150000D01*
X53511928Y-55850000D01*
X53524188Y-55974482D01*
X53560498Y-56094180D01*
X53619463Y-56204494D01*
X53698815Y-56301185D01*
X53795506Y-56380537D01*
X53905820Y-56439502D01*
X53986466Y-56463966D01*
X53902412Y-56539731D01*
X53728359Y-56773080D01*
X53603175Y-57035901D01*
X53558524Y-57183110D01*
X53679845Y-57413000D01*
X54873000Y-57413000D01*
X54873000Y-57393000D01*
X55127000Y-57393000D01*
X55127000Y-57413000D01*
X56320155Y-57413000D01*
X56441476Y-57183110D01*
X56396825Y-57035901D01*
X56271641Y-56773080D01*
X56097588Y-56539731D01*
X56013534Y-56463966D01*
X56094180Y-56439502D01*
X56204494Y-56380537D01*
X56301185Y-56301185D01*
X56380537Y-56204494D01*
X56439502Y-56094180D01*
X56475812Y-55974482D01*
X56488072Y-55850000D01*
X56488072Y-55760000D01*
X58511928Y-55760000D01*
X58511928Y-55850000D01*
X58524188Y-55974482D01*
X58560498Y-56094180D01*
X58619463Y-56204494D01*
X58698815Y-56301185D01*
X58795506Y-56380537D01*
X58905820Y-56439502D01*
X58986466Y-56463966D01*
X58902412Y-56539731D01*
X58728359Y-56773080D01*
X58603175Y-57035901D01*
X58558524Y-57183110D01*
X58679845Y-57413000D01*
X59873000Y-57413000D01*
X59873000Y-57393000D01*
X60127000Y-57393000D01*
X60127000Y-57413000D01*
X61320155Y-57413000D01*
X61441476Y-57183110D01*
X61396825Y-57035901D01*
X61271641Y-56773080D01*
X61097588Y-56539731D01*
X61013534Y-56463966D01*
X61094180Y-56439502D01*
X61204494Y-56380537D01*
X61301185Y-56301185D01*
X61359495Y-56230134D01*
X61401795Y-56332256D01*
X61515063Y-56501774D01*
X61659226Y-56645937D01*
X61828744Y-56759205D01*
X62017102Y-56837226D01*
X62217061Y-56877000D01*
X62420939Y-56877000D01*
X62620898Y-56837226D01*
X62809256Y-56759205D01*
X62978774Y-56645937D01*
X63022711Y-56602000D01*
X66618000Y-56602000D01*
X66618000Y-56705939D01*
X66657774Y-56905898D01*
X66735795Y-57094256D01*
X66849063Y-57263774D01*
X66993226Y-57407937D01*
X67162744Y-57521205D01*
X67351102Y-57599226D01*
X67551061Y-57639000D01*
X67754939Y-57639000D01*
X67954898Y-57599226D01*
X68143256Y-57521205D01*
X68312774Y-57407937D01*
X68356711Y-57364000D01*
X74696289Y-57364000D01*
X74740226Y-57407937D01*
X74909744Y-57521205D01*
X75098102Y-57599226D01*
X75298061Y-57639000D01*
X75501939Y-57639000D01*
X75701898Y-57599226D01*
X75890256Y-57521205D01*
X76059774Y-57407937D01*
X76103711Y-57364000D01*
X76905000Y-57364000D01*
X76905000Y-57467939D01*
X76944774Y-57667898D01*
X77022795Y-57856256D01*
X77136063Y-58025774D01*
X77280226Y-58169937D01*
X77449744Y-58283205D01*
X77638102Y-58361226D01*
X77838061Y-58401000D01*
X78041939Y-58401000D01*
X78241898Y-58361226D01*
X78430256Y-58283205D01*
X78599774Y-58169937D01*
X78643711Y-58126000D01*
X79445000Y-58126000D01*
X79445000Y-58229939D01*
X79484774Y-58429898D01*
X79562795Y-58618256D01*
X79676063Y-58787774D01*
X79820226Y-58931937D01*
X79989744Y-59045205D01*
X80178102Y-59123226D01*
X80378061Y-59163000D01*
X80581939Y-59163000D01*
X80781898Y-59123226D01*
X80970256Y-59045205D01*
X81139774Y-58931937D01*
X81183711Y-58888000D01*
X82697289Y-58888000D01*
X82741226Y-58931937D01*
X82910744Y-59045205D01*
X83099102Y-59123226D01*
X83299061Y-59163000D01*
X83502939Y-59163000D01*
X83702898Y-59123226D01*
X83891256Y-59045205D01*
X84060774Y-58931937D01*
X84204937Y-58787774D01*
X84318205Y-58618256D01*
X84396226Y-58429898D01*
X84407619Y-58372619D01*
X84464898Y-58361226D01*
X84653256Y-58283205D01*
X84822774Y-58169937D01*
X84966937Y-58025774D01*
X85080205Y-57856256D01*
X85158226Y-57667898D01*
X85198000Y-57467939D01*
X85198000Y-57364000D01*
X85745289Y-57364000D01*
X85789226Y-57407937D01*
X85958744Y-57521205D01*
X86147102Y-57599226D01*
X86347061Y-57639000D01*
X86550939Y-57639000D01*
X86750898Y-57599226D01*
X86939256Y-57521205D01*
X87108774Y-57407937D01*
X87152711Y-57364000D01*
X90063289Y-57364000D01*
X90107226Y-57407937D01*
X90276744Y-57521205D01*
X90465102Y-57599226D01*
X90665061Y-57639000D01*
X90868939Y-57639000D01*
X91068898Y-57599226D01*
X91257256Y-57521205D01*
X91426774Y-57407937D01*
X91570937Y-57263774D01*
X91684205Y-57094256D01*
X91762226Y-56905898D01*
X91802000Y-56705939D01*
X91802000Y-56502061D01*
X91762226Y-56302102D01*
X91684205Y-56113744D01*
X91570937Y-55944226D01*
X91426774Y-55800063D01*
X91257256Y-55686795D01*
X91068898Y-55608774D01*
X90916697Y-55578500D01*
X90922205Y-55570256D01*
X91000226Y-55381898D01*
X91040000Y-55181939D01*
X91040000Y-54978061D01*
X91000226Y-54778102D01*
X90922205Y-54589744D01*
X90808937Y-54420226D01*
X90664774Y-54276063D01*
X90495256Y-54162795D01*
X90306898Y-54084774D01*
X90106939Y-54045000D01*
X89903061Y-54045000D01*
X89703102Y-54084774D01*
X89514744Y-54162795D01*
X89345226Y-54276063D01*
X89301289Y-54320000D01*
X85960000Y-54320000D01*
X85960000Y-54216061D01*
X85920226Y-54016102D01*
X85842205Y-53827744D01*
X85728937Y-53658226D01*
X85584774Y-53514063D01*
X85415256Y-53400795D01*
X85226898Y-53322774D01*
X85026939Y-53283000D01*
X84823061Y-53283000D01*
X84623102Y-53322774D01*
X84434744Y-53400795D01*
X84265226Y-53514063D01*
X84221289Y-53558000D01*
X81565609Y-53558000D01*
X81720706Y-53369014D01*
X81858599Y-53111034D01*
X81943513Y-52831111D01*
X81972185Y-52540000D01*
X81943513Y-52248889D01*
X81858599Y-51968966D01*
X81720706Y-51710986D01*
X81535134Y-51484866D01*
X81309014Y-51299294D01*
X81051034Y-51161401D01*
X80771111Y-51076487D01*
X80552950Y-51055000D01*
X80407050Y-51055000D01*
X80188889Y-51076487D01*
X79908966Y-51161401D01*
X79650986Y-51299294D01*
X79424866Y-51484866D01*
X79239294Y-51710986D01*
X79210000Y-51765791D01*
X79180706Y-51710986D01*
X78995134Y-51484866D01*
X78769014Y-51299294D01*
X78511034Y-51161401D01*
X78231111Y-51076487D01*
X78012950Y-51055000D01*
X77867050Y-51055000D01*
X77648889Y-51076487D01*
X77368966Y-51161401D01*
X77110986Y-51299294D01*
X76884866Y-51484866D01*
X76699294Y-51710986D01*
X76670000Y-51765791D01*
X76640706Y-51710986D01*
X76455134Y-51484866D01*
X76229014Y-51299294D01*
X75971034Y-51161401D01*
X75691111Y-51076487D01*
X75472950Y-51055000D01*
X75327050Y-51055000D01*
X75108889Y-51076487D01*
X74828966Y-51161401D01*
X74570986Y-51299294D01*
X74344866Y-51484866D01*
X74159294Y-51710986D01*
X74124799Y-51775523D01*
X74055178Y-51658645D01*
X73860269Y-51442412D01*
X73626920Y-51268359D01*
X73364099Y-51143175D01*
X73216890Y-51098524D01*
X72987000Y-51219845D01*
X72987000Y-52413000D01*
X73007000Y-52413000D01*
X73007000Y-52667000D01*
X72987000Y-52667000D01*
X72987000Y-52687000D01*
X72733000Y-52687000D01*
X72733000Y-52667000D01*
X72713000Y-52667000D01*
X72713000Y-52413000D01*
X72733000Y-52413000D01*
X72733000Y-51219845D01*
X72503110Y-51098524D01*
X72355901Y-51143175D01*
X72093080Y-51268359D01*
X71859731Y-51442412D01*
X71783966Y-51526466D01*
X71759502Y-51445820D01*
X71700537Y-51335506D01*
X71621185Y-51238815D01*
X71524494Y-51159463D01*
X71414180Y-51100498D01*
X71294482Y-51064188D01*
X71170000Y-51051928D01*
X69470000Y-51051928D01*
X69345518Y-51064188D01*
X69225820Y-51100498D01*
X69115506Y-51159463D01*
X69018815Y-51238815D01*
X68939463Y-51335506D01*
X68880498Y-51445820D01*
X68844188Y-51565518D01*
X68831928Y-51690000D01*
X68831928Y-53390000D01*
X68844188Y-53514482D01*
X68857389Y-53558000D01*
X63784711Y-53558000D01*
X63740774Y-53514063D01*
X63571256Y-53400795D01*
X63382898Y-53322774D01*
X63182939Y-53283000D01*
X62979061Y-53283000D01*
X62779102Y-53322774D01*
X62590744Y-53400795D01*
X62421226Y-53514063D01*
X62277063Y-53658226D01*
X62163795Y-53827744D01*
X62085774Y-54016102D01*
X62046000Y-54216061D01*
X62046000Y-54320000D01*
X61690040Y-54320000D01*
X61642247Y-54294454D01*
X61498986Y-54250997D01*
X61488072Y-54249922D01*
X61488072Y-54150000D01*
X61475812Y-54025518D01*
X61439502Y-53905820D01*
X61380537Y-53795506D01*
X61301185Y-53698815D01*
X61204494Y-53619463D01*
X61094180Y-53560498D01*
X60974482Y-53524188D01*
X60850000Y-53511928D01*
X59150000Y-53511928D01*
X59025518Y-53524188D01*
X58905820Y-53560498D01*
X58795506Y-53619463D01*
X58698815Y-53698815D01*
X58619463Y-53795506D01*
X58560498Y-53905820D01*
X58524188Y-54025518D01*
X58511928Y-54150000D01*
X58511928Y-54240000D01*
X56488072Y-54240000D01*
X56488072Y-54150000D01*
X56475812Y-54025518D01*
X56439502Y-53905820D01*
X56380537Y-53795506D01*
X56301185Y-53698815D01*
X56204494Y-53619463D01*
X56094180Y-53560498D01*
X55974482Y-53524188D01*
X55850000Y-53511928D01*
X54150000Y-53511928D01*
X54025518Y-53524188D01*
X53905820Y-53560498D01*
X53795506Y-53619463D01*
X53698815Y-53698815D01*
X53619463Y-53795506D01*
X53560498Y-53905820D01*
X53524188Y-54025518D01*
X53511928Y-54150000D01*
X50710000Y-54150000D01*
X50710000Y-50710000D01*
X104290000Y-50710000D01*
X104290001Y-89290000D01*
X104290001Y-89290000D01*
G37*
X104290001Y-89290000D02*
X50710000Y-89290000D01*
X50710000Y-78600061D01*
X68777000Y-78600061D01*
X68777000Y-78803939D01*
X68816774Y-79003898D01*
X68894795Y-79192256D01*
X69008063Y-79361774D01*
X69152226Y-79505937D01*
X69321744Y-79619205D01*
X69510102Y-79697226D01*
X69710061Y-79737000D01*
X69857669Y-79737000D01*
X69832774Y-79797102D01*
X69793000Y-79997061D01*
X69793000Y-80200939D01*
X69832774Y-80400898D01*
X69910795Y-80589256D01*
X70024063Y-80758774D01*
X70168226Y-80902937D01*
X70337744Y-81016205D01*
X70526102Y-81094226D01*
X70726061Y-81134000D01*
X70929939Y-81134000D01*
X71129898Y-81094226D01*
X71318256Y-81016205D01*
X71487774Y-80902937D01*
X71531711Y-80859000D01*
X72846383Y-80859000D01*
X72841000Y-80886061D01*
X72841000Y-81089939D01*
X72880774Y-81289898D01*
X72958795Y-81478256D01*
X73055157Y-81622473D01*
X72993815Y-81672815D01*
X72914463Y-81769506D01*
X72855498Y-81879820D01*
X72819188Y-81999518D01*
X72806928Y-82124000D01*
X72806928Y-83424000D01*
X72819188Y-83548482D01*
X72855498Y-83668180D01*
X72914463Y-83778494D01*
X72951809Y-83824000D01*
X72914463Y-83869506D01*
X72855498Y-83979820D01*
X72819188Y-84099518D01*
X72806928Y-84224000D01*
X72806928Y-85524000D01*
X72819188Y-85648482D01*
X72855498Y-85768180D01*
X72914463Y-85878494D01*
X72993815Y-85975185D01*
X73090506Y-86054537D01*
X73185001Y-86105046D01*
X73185001Y-86235552D01*
X72934621Y-86402850D01*
X72713850Y-86623621D01*
X72540391Y-86883221D01*
X72420911Y-87171673D01*
X72360000Y-87477891D01*
X72360000Y-87790109D01*
X72420911Y-88096327D01*
X72540391Y-88384779D01*
X72713850Y-88644379D01*
X72934621Y-88865150D01*
X73194221Y-89038609D01*
X73482673Y-89158089D01*
X73788891Y-89219000D01*
X74101109Y-89219000D01*
X74407327Y-89158089D01*
X74695779Y-89038609D01*
X74955379Y-88865150D01*
X75176150Y-88644379D01*
X75215000Y-88586236D01*
X75253850Y-88644379D01*
X75474621Y-88865150D01*
X75734221Y-89038609D01*
X76022673Y-89158089D01*
X76328891Y-89219000D01*
X76641109Y-89219000D01*
X76947327Y-89158089D01*
X77235779Y-89038609D01*
X77495379Y-88865150D01*
X77716150Y-88644379D01*
X77755000Y-88586236D01*
X77793850Y-88644379D01*
X78014621Y-88865150D01*
X78274221Y-89038609D01*
X78562673Y-89158089D01*
X78868891Y-89219000D01*
X79181109Y-89219000D01*
X79487327Y-89158089D01*
X79775779Y-89038609D01*
X80035379Y-88865150D01*
X80256150Y-88644379D01*
X80295000Y-88586236D01*
X80333850Y-88644379D01*
X80554621Y-88865150D01*
X80814221Y-89038609D01*
X81102673Y-89158089D01*
X81408891Y-89219000D01*
X81721109Y-89219000D01*
X82027327Y-89158089D01*
X82315779Y-89038609D01*
X82575379Y-88865150D01*
X82796150Y-88644379D01*
X82835000Y-88586236D01*
X82873850Y-88644379D01*
X83094621Y-88865150D01*
X83354221Y-89038609D01*
X83642673Y-89158089D01*
X83948891Y-89219000D01*
X84261109Y-89219000D01*
X84567327Y-89158089D01*
X84855779Y-89038609D01*
X85115379Y-88865150D01*
X85336150Y-88644379D01*
X85375000Y-88586236D01*
X85413850Y-88644379D01*
X85634621Y-88865150D01*
X85894221Y-89038609D01*
X86182673Y-89158089D01*
X86488891Y-89219000D01*
X86801109Y-89219000D01*
X87107327Y-89158089D01*
X87395779Y-89038609D01*
X87655379Y-88865150D01*
X87876150Y-88644379D01*
X87915000Y-88586236D01*
X87953850Y-88644379D01*
X88174621Y-88865150D01*
X88434221Y-89038609D01*
X88722673Y-89158089D01*
X89028891Y-89219000D01*
X89341109Y-89219000D01*
X89647327Y-89158089D01*
X89935779Y-89038609D01*
X90195379Y-88865150D01*
X90416150Y-88644379D01*
X90589609Y-88384779D01*
X90709089Y-88096327D01*
X90770000Y-87790109D01*
X90770000Y-87477891D01*
X90711252Y-87182549D01*
X91246004Y-86647798D01*
X91275001Y-86624001D01*
X91301332Y-86591917D01*
X91369974Y-86508277D01*
X91440546Y-86376247D01*
X91440546Y-86376246D01*
X91484003Y-86232986D01*
X91495000Y-86121333D01*
X91495000Y-86121323D01*
X91498676Y-86084001D01*
X91495000Y-86046678D01*
X91495000Y-85093072D01*
X91735000Y-85093072D01*
X91859482Y-85080812D01*
X91979180Y-85044502D01*
X92089494Y-84985537D01*
X92186185Y-84906185D01*
X92265537Y-84809494D01*
X92324502Y-84699180D01*
X92360812Y-84579482D01*
X92373072Y-84455000D01*
X92373072Y-82855000D01*
X92360812Y-82730518D01*
X92324502Y-82610820D01*
X92265537Y-82500506D01*
X92186185Y-82403815D01*
X92089494Y-82324463D01*
X91979180Y-82265498D01*
X91859482Y-82229188D01*
X91735000Y-82216928D01*
X91509783Y-82216928D01*
X91570937Y-82155774D01*
X91684205Y-81986256D01*
X91762226Y-81797898D01*
X91802000Y-81597939D01*
X91802000Y-81454500D01*
X93870667Y-81454500D01*
X93870667Y-84474500D01*
X104057334Y-84474500D01*
X104057334Y-81454500D01*
X93870667Y-81454500D01*
X91802000Y-81454500D01*
X91802000Y-81394061D01*
X91762226Y-81194102D01*
X91684205Y-81005744D01*
X91570937Y-80836226D01*
X91426774Y-80692063D01*
X91257256Y-80578795D01*
X91068898Y-80500774D01*
X91011619Y-80489381D01*
X91000226Y-80432102D01*
X90922205Y-80243744D01*
X90808937Y-80074226D01*
X90664774Y-79930063D01*
X90495256Y-79816795D01*
X90306898Y-79738774D01*
X90106939Y-79699000D01*
X89903061Y-79699000D01*
X89703102Y-79738774D01*
X89514744Y-79816795D01*
X89345226Y-79930063D01*
X89301289Y-79974000D01*
X87502323Y-79974000D01*
X87465000Y-79970324D01*
X87427677Y-79974000D01*
X87427667Y-79974000D01*
X87316014Y-79984997D01*
X87172753Y-80028454D01*
X87040723Y-80099026D01*
X86983470Y-80146013D01*
X86924999Y-80193999D01*
X86901201Y-80222998D01*
X86223998Y-80900201D01*
X86195000Y-80923999D01*
X86100026Y-81039724D01*
X86029454Y-81171753D01*
X85985997Y-81315014D01*
X85975000Y-81426667D01*
X85975000Y-81426678D01*
X85971324Y-81464000D01*
X85975000Y-81501322D01*
X85975000Y-82009332D01*
X85975001Y-82009342D01*
X85975001Y-82216928D01*
X85735000Y-82216928D01*
X85610518Y-82229188D01*
X85490820Y-82265498D01*
X85380506Y-82324463D01*
X85283815Y-82403815D01*
X85243072Y-82453461D01*
X85243072Y-82124000D01*
X85230812Y-81999518D01*
X85194502Y-81879820D01*
X85135537Y-81769506D01*
X85056185Y-81672815D01*
X84959494Y-81593463D01*
X84865000Y-81542954D01*
X84865000Y-78427325D01*
X84868676Y-78390000D01*
X84865000Y-78352675D01*
X84865000Y-78352667D01*
X84854003Y-78241014D01*
X84810546Y-78097753D01*
X84739974Y-77965724D01*
X84645001Y-77849999D01*
X84616004Y-77826202D01*
X82567804Y-75778003D01*
X82544001Y-75748999D01*
X82428276Y-75654026D01*
X82296247Y-75583454D01*
X82152986Y-75539997D01*
X82041333Y-75529000D01*
X82041322Y-75529000D01*
X82004000Y-75525324D01*
X81966678Y-75529000D01*
X73309711Y-75529000D01*
X73265774Y-75485063D01*
X73096256Y-75371795D01*
X72907898Y-75293774D01*
X72726548Y-75257702D01*
X72878000Y-75106250D01*
X72878000Y-74257000D01*
X71828750Y-74257000D01*
X71670000Y-74415750D01*
X71666928Y-74630000D01*
X71679188Y-74754482D01*
X71715498Y-74874180D01*
X71774463Y-74984494D01*
X71853815Y-75081185D01*
X71950506Y-75160537D01*
X72060820Y-75219502D01*
X72180518Y-75255812D01*
X72305000Y-75268072D01*
X72438285Y-75267084D01*
X72304102Y-75293774D01*
X72115744Y-75371795D01*
X71946226Y-75485063D01*
X71802063Y-75629226D01*
X71688795Y-75798744D01*
X71610774Y-75987102D01*
X71571000Y-76187061D01*
X71571000Y-76278764D01*
X71415102Y-76309774D01*
X71226744Y-76387795D01*
X71057226Y-76501063D01*
X70913063Y-76645226D01*
X70799795Y-76814744D01*
X70721774Y-77003102D01*
X70682000Y-77203061D01*
X70682000Y-77406939D01*
X70721774Y-77606898D01*
X70799795Y-77795256D01*
X70897846Y-77942000D01*
X70515711Y-77942000D01*
X70471774Y-77898063D01*
X70302256Y-77784795D01*
X70113898Y-77706774D01*
X69913939Y-77667000D01*
X69710061Y-77667000D01*
X69510102Y-77706774D01*
X69321744Y-77784795D01*
X69152226Y-77898063D01*
X69008063Y-78042226D01*
X68894795Y-78211744D01*
X68816774Y-78400102D01*
X68777000Y-78600061D01*
X50710000Y-78600061D01*
X50710000Y-60080000D01*
X53507815Y-60080000D01*
X53536487Y-60371111D01*
X53621401Y-60651034D01*
X53759294Y-60909014D01*
X53944866Y-61135134D01*
X54170986Y-61320706D01*
X54225791Y-61350000D01*
X54170986Y-61379294D01*
X53944866Y-61564866D01*
X53759294Y-61790986D01*
X53621401Y-62048966D01*
X53536487Y-62328889D01*
X53507815Y-62620000D01*
X53536487Y-62911111D01*
X53621401Y-63191034D01*
X53759294Y-63449014D01*
X53944866Y-63675134D01*
X54170986Y-63860706D01*
X54225791Y-63890000D01*
X54170986Y-63919294D01*
X53944866Y-64104866D01*
X53759294Y-64330986D01*
X53621401Y-64588966D01*
X53536487Y-64868889D01*
X53507815Y-65160000D01*
X53536487Y-65451111D01*
X53621401Y-65731034D01*
X53759294Y-65989014D01*
X53944866Y-66215134D01*
X54170986Y-66400706D01*
X54225791Y-66430000D01*
X54170986Y-66459294D01*
X53944866Y-66644866D01*
X53759294Y-66870986D01*
X53621401Y-67128966D01*
X53536487Y-67408889D01*
X53507815Y-67700000D01*
X53536487Y-67991111D01*
X53621401Y-68271034D01*
X53759294Y-68529014D01*
X53944866Y-68755134D01*
X54170986Y-68940706D01*
X54225791Y-68970000D01*
X54170986Y-68999294D01*
X53944866Y-69184866D01*
X53759294Y-69410986D01*
X53621401Y-69668966D01*
X53536487Y-69948889D01*
X53507815Y-70240000D01*
X53536487Y-70531111D01*
X53621401Y-70811034D01*
X53759294Y-71069014D01*
X53944866Y-71295134D01*
X54170986Y-71480706D01*
X54225791Y-71510000D01*
X54170986Y-71539294D01*
X53944866Y-71724866D01*
X53759294Y-71950986D01*
X53621401Y-72208966D01*
X53536487Y-72488889D01*
X53507815Y-72780000D01*
X53536487Y-73071111D01*
X53621401Y-73351034D01*
X53759294Y-73609014D01*
X53944866Y-73835134D01*
X54170986Y-74020706D01*
X54225791Y-74050000D01*
X54170986Y-74079294D01*
X53944866Y-74264866D01*
X53759294Y-74490986D01*
X53621401Y-74748966D01*
X53536487Y-75028889D01*
X53507815Y-75320000D01*
X53536487Y-75611111D01*
X53621401Y-75891034D01*
X53759294Y-76149014D01*
X53944866Y-76375134D01*
X54170986Y-76560706D01*
X54428966Y-76698599D01*
X54708889Y-76783513D01*
X54927050Y-76805000D01*
X55072950Y-76805000D01*
X55291111Y-76783513D01*
X55571034Y-76698599D01*
X55829014Y-76560706D01*
X56055134Y-76375134D01*
X56240706Y-76149014D01*
X56277595Y-76080000D01*
X58722405Y-76080000D01*
X58759294Y-76149014D01*
X58944866Y-76375134D01*
X59170986Y-76560706D01*
X59428966Y-76698599D01*
X59708889Y-76783513D01*
X59927050Y-76805000D01*
X60072950Y-76805000D01*
X60291111Y-76783513D01*
X60571034Y-76698599D01*
X60829014Y-76560706D01*
X61055134Y-76375134D01*
X61240706Y-76149014D01*
X61277595Y-76080000D01*
X66997810Y-76080000D01*
X67162744Y-76190205D01*
X67351102Y-76268226D01*
X67551061Y-76308000D01*
X67754939Y-76308000D01*
X67954898Y-76268226D01*
X68143256Y-76190205D01*
X68312774Y-76076937D01*
X68456937Y-75932774D01*
X68570205Y-75763256D01*
X68648226Y-75574898D01*
X68688000Y-75374939D01*
X68688000Y-75171061D01*
X68648226Y-74971102D01*
X68570205Y-74782744D01*
X68456937Y-74613226D01*
X68312774Y-74469063D01*
X68143256Y-74355795D01*
X67954898Y-74277774D01*
X67754939Y-74238000D01*
X67551061Y-74238000D01*
X67351102Y-74277774D01*
X67162744Y-74355795D01*
X66993226Y-74469063D01*
X66902289Y-74560000D01*
X61277595Y-74560000D01*
X61240706Y-74490986D01*
X61055134Y-74264866D01*
X60829014Y-74079294D01*
X60774209Y-74050000D01*
X60829014Y-74020706D01*
X61055134Y-73835134D01*
X61223483Y-73630000D01*
X71666928Y-73630000D01*
X71670000Y-73844250D01*
X71828750Y-74003000D01*
X72878000Y-74003000D01*
X72878000Y-73153750D01*
X72719250Y-72995000D01*
X72305000Y-72991928D01*
X72180518Y-73004188D01*
X72060820Y-73040498D01*
X71950506Y-73099463D01*
X71853815Y-73178815D01*
X71774463Y-73275506D01*
X71715498Y-73385820D01*
X71679188Y-73505518D01*
X71666928Y-73630000D01*
X61223483Y-73630000D01*
X61240706Y-73609014D01*
X61378599Y-73351034D01*
X61463513Y-73071111D01*
X61492185Y-72780000D01*
X61463513Y-72488889D01*
X61378599Y-72208966D01*
X61240706Y-71950986D01*
X61055134Y-71724866D01*
X60829014Y-71539294D01*
X60774209Y-71510000D01*
X60829014Y-71480706D01*
X61055134Y-71295134D01*
X61240706Y-71069014D01*
X61378599Y-70811034D01*
X61463513Y-70531111D01*
X61492185Y-70240000D01*
X61463513Y-69948889D01*
X61378599Y-69668966D01*
X61240706Y-69410986D01*
X61055134Y-69184866D01*
X60829014Y-68999294D01*
X60774209Y-68970000D01*
X60829014Y-68940706D01*
X61055134Y-68755134D01*
X61240706Y-68529014D01*
X61378599Y-68271034D01*
X61463513Y-67991111D01*
X61492185Y-67700000D01*
X61463513Y-67408889D01*
X61378599Y-67128966D01*
X61240706Y-66870986D01*
X61055134Y-66644866D01*
X60829014Y-66459294D01*
X60774209Y-66430000D01*
X60829014Y-66400706D01*
X61055134Y-66215134D01*
X61240706Y-65989014D01*
X61378599Y-65731034D01*
X61463513Y-65451111D01*
X61492185Y-65160000D01*
X61463513Y-64868889D01*
X61378599Y-64588966D01*
X61240706Y-64330986D01*
X61055134Y-64104866D01*
X60829014Y-63919294D01*
X60774209Y-63890000D01*
X60829014Y-63860706D01*
X61055134Y-63675134D01*
X61240706Y-63449014D01*
X61302717Y-63333000D01*
X61615289Y-63333000D01*
X61659226Y-63376937D01*
X61828744Y-63490205D01*
X62017102Y-63568226D01*
X62217061Y-63608000D01*
X62420939Y-63608000D01*
X62620898Y-63568226D01*
X62809256Y-63490205D01*
X62978774Y-63376937D01*
X63122937Y-63232774D01*
X63236205Y-63063256D01*
X63314226Y-62874898D01*
X63354000Y-62674939D01*
X63354000Y-62471061D01*
X63319975Y-62300000D01*
X65371928Y-62300000D01*
X65384188Y-62424482D01*
X65420498Y-62544180D01*
X65479463Y-62654494D01*
X65516809Y-62700000D01*
X65479463Y-62745506D01*
X65420498Y-62855820D01*
X65384188Y-62975518D01*
X65371928Y-63100000D01*
X65371928Y-64400000D01*
X65384188Y-64524482D01*
X65420498Y-64644180D01*
X65479463Y-64754494D01*
X65558815Y-64851185D01*
X65655506Y-64930537D01*
X65765820Y-64989502D01*
X65885518Y-65025812D01*
X66010000Y-65038072D01*
X67010000Y-65038072D01*
X67134482Y-65025812D01*
X67254180Y-64989502D01*
X67364494Y-64930537D01*
X67461185Y-64851185D01*
X67540537Y-64754494D01*
X67553630Y-64730000D01*
X70812987Y-64730000D01*
X70799795Y-64749744D01*
X70721774Y-64938102D01*
X70682000Y-65138061D01*
X70682000Y-65341939D01*
X70721774Y-65541898D01*
X70799795Y-65730256D01*
X70913063Y-65899774D01*
X71057226Y-66043937D01*
X71226744Y-66157205D01*
X71415102Y-66235226D01*
X71598137Y-66271634D01*
X71571000Y-66408061D01*
X71571000Y-66611939D01*
X71610774Y-66811898D01*
X71688795Y-67000256D01*
X71802063Y-67169774D01*
X71946226Y-67313937D01*
X72115744Y-67427205D01*
X72304102Y-67505226D01*
X72504061Y-67545000D01*
X72707939Y-67545000D01*
X72907898Y-67505226D01*
X73096256Y-67427205D01*
X73265774Y-67313937D01*
X73309711Y-67270000D01*
X73590130Y-67270000D01*
X73564188Y-67355518D01*
X73551928Y-67480000D01*
X73551928Y-68080000D01*
X73564188Y-68204482D01*
X73600498Y-68324180D01*
X73659463Y-68434494D01*
X73738815Y-68531185D01*
X73835506Y-68610537D01*
X73945820Y-68669502D01*
X74065518Y-68705812D01*
X74190000Y-68718072D01*
X75990000Y-68718072D01*
X76114482Y-68705812D01*
X76234180Y-68669502D01*
X76344494Y-68610537D01*
X76430444Y-68540000D01*
X76863199Y-68540000D01*
X79500001Y-71176803D01*
X79500000Y-73002762D01*
X79485518Y-73004188D01*
X79365820Y-73040498D01*
X79255506Y-73099463D01*
X79210000Y-73136809D01*
X79164494Y-73099463D01*
X79054180Y-73040498D01*
X78934482Y-73004188D01*
X78810000Y-72991928D01*
X77510000Y-72991928D01*
X77385518Y-73004188D01*
X77265820Y-73040498D01*
X77155506Y-73099463D01*
X77058815Y-73178815D01*
X76979463Y-73275506D01*
X76928954Y-73370000D01*
X76536046Y-73370000D01*
X76485537Y-73275506D01*
X76406185Y-73178815D01*
X76309494Y-73099463D01*
X76199180Y-73040498D01*
X76079482Y-73004188D01*
X75955000Y-72991928D01*
X74555000Y-72991928D01*
X74430518Y-73004188D01*
X74310820Y-73040498D01*
X74200506Y-73099463D01*
X74130000Y-73157326D01*
X74059494Y-73099463D01*
X73949180Y-73040498D01*
X73829482Y-73004188D01*
X73705000Y-72991928D01*
X73290750Y-72995000D01*
X73132000Y-73153750D01*
X73132000Y-74003000D01*
X73152000Y-74003000D01*
X73152000Y-74257000D01*
X73132000Y-74257000D01*
X73132000Y-75106250D01*
X73290750Y-75265000D01*
X73705000Y-75268072D01*
X73829482Y-75255812D01*
X73949180Y-75219502D01*
X74059494Y-75160537D01*
X74130000Y-75102674D01*
X74200506Y-75160537D01*
X74310820Y-75219502D01*
X74430518Y-75255812D01*
X74555000Y-75268072D01*
X75955000Y-75268072D01*
X76079482Y-75255812D01*
X76199180Y-75219502D01*
X76309494Y-75160537D01*
X76406185Y-75081185D01*
X76485537Y-74984494D01*
X76536046Y-74890000D01*
X76928954Y-74890000D01*
X76979463Y-74984494D01*
X77058815Y-75081185D01*
X77155506Y-75160537D01*
X77265820Y-75219502D01*
X77385518Y-75255812D01*
X77510000Y-75268072D01*
X78810000Y-75268072D01*
X78934482Y-75255812D01*
X79054180Y-75219502D01*
X79164494Y-75160537D01*
X79210000Y-75123191D01*
X79255506Y-75160537D01*
X79365820Y-75219502D01*
X79485518Y-75255812D01*
X79610000Y-75268072D01*
X80910000Y-75268072D01*
X81034482Y-75255812D01*
X81154180Y-75219502D01*
X81264494Y-75160537D01*
X81361185Y-75081185D01*
X81440537Y-74984494D01*
X81499502Y-74874180D01*
X81535812Y-74754482D01*
X81548072Y-74630000D01*
X81548072Y-73630000D01*
X81535812Y-73505518D01*
X81499502Y-73385820D01*
X81440537Y-73275506D01*
X81361185Y-73178815D01*
X81264494Y-73099463D01*
X81154180Y-73040498D01*
X81034482Y-73004188D01*
X81020000Y-73002762D01*
X81020000Y-70899322D01*
X81023676Y-70861999D01*
X81020000Y-70824676D01*
X81020000Y-70824667D01*
X81009003Y-70713014D01*
X80965546Y-70569753D01*
X80894974Y-70437724D01*
X80800001Y-70321999D01*
X80771003Y-70298201D01*
X77741804Y-67269003D01*
X77718001Y-67239999D01*
X77602276Y-67145026D01*
X77470247Y-67074454D01*
X77326986Y-67030997D01*
X77215333Y-67020000D01*
X77215322Y-67020000D01*
X77178000Y-67016324D01*
X77140678Y-67020000D01*
X76589870Y-67020000D01*
X76615812Y-66934482D01*
X76628072Y-66810000D01*
X76628072Y-66210000D01*
X76615812Y-66085518D01*
X76579502Y-65965820D01*
X76530957Y-65875000D01*
X76579502Y-65784180D01*
X76615812Y-65664482D01*
X76628072Y-65540000D01*
X76628072Y-64940000D01*
X76615812Y-64815518D01*
X76579502Y-64695820D01*
X76530957Y-64605000D01*
X76579502Y-64514180D01*
X76615812Y-64394482D01*
X76628072Y-64270000D01*
X76628072Y-63868061D01*
X77032000Y-63868061D01*
X77032000Y-64071939D01*
X77071774Y-64271898D01*
X77149795Y-64460256D01*
X77263063Y-64629774D01*
X77407226Y-64773937D01*
X77576744Y-64887205D01*
X77765102Y-64965226D01*
X77965061Y-65005000D01*
X78168939Y-65005000D01*
X78368898Y-64965226D01*
X78557256Y-64887205D01*
X78726774Y-64773937D01*
X78770711Y-64730000D01*
X79290130Y-64730000D01*
X79264188Y-64815518D01*
X79251928Y-64940000D01*
X79251928Y-65540000D01*
X79264188Y-65664482D01*
X79300498Y-65784180D01*
X79349043Y-65875000D01*
X79300498Y-65965820D01*
X79264188Y-66085518D01*
X79251928Y-66210000D01*
X79251928Y-66810000D01*
X79264188Y-66934482D01*
X79300498Y-67054180D01*
X79349043Y-67145000D01*
X79300498Y-67235820D01*
X79264188Y-67355518D01*
X79251928Y-67480000D01*
X79251928Y-68080000D01*
X79264188Y-68204482D01*
X79300498Y-68324180D01*
X79359463Y-68434494D01*
X79438815Y-68531185D01*
X79535506Y-68610537D01*
X79645820Y-68669502D01*
X79765518Y-68705812D01*
X79890000Y-68718072D01*
X81690000Y-68718072D01*
X81814482Y-68705812D01*
X81934180Y-68669502D01*
X82044494Y-68610537D01*
X82130444Y-68540000D01*
X90833199Y-68540000D01*
X93044201Y-70751003D01*
X93067999Y-70780001D01*
X93183724Y-70874974D01*
X93315753Y-70945546D01*
X93459014Y-70989003D01*
X93570667Y-71000000D01*
X93570676Y-71000000D01*
X93607999Y-71003676D01*
X93645322Y-71000000D01*
X93722405Y-71000000D01*
X93759294Y-71069014D01*
X93944866Y-71295134D01*
X94170986Y-71480706D01*
X94225791Y-71510000D01*
X94170986Y-71539294D01*
X93944866Y-71724866D01*
X93759294Y-71950986D01*
X93621401Y-72208966D01*
X93536487Y-72488889D01*
X93507815Y-72780000D01*
X93536487Y-73071111D01*
X93621401Y-73351034D01*
X93759294Y-73609014D01*
X93944866Y-73835134D01*
X94170986Y-74020706D01*
X94225791Y-74050000D01*
X94170986Y-74079294D01*
X93944866Y-74264866D01*
X93759294Y-74490986D01*
X93621401Y-74748966D01*
X93536487Y-75028889D01*
X93507815Y-75320000D01*
X93536487Y-75611111D01*
X93621401Y-75891034D01*
X93759294Y-76149014D01*
X93944866Y-76375134D01*
X94170986Y-76560706D01*
X94428966Y-76698599D01*
X94708889Y-76783513D01*
X94927050Y-76805000D01*
X95072950Y-76805000D01*
X95291111Y-76783513D01*
X95571034Y-76698599D01*
X95829014Y-76560706D01*
X96055134Y-76375134D01*
X96240706Y-76149014D01*
X96277595Y-76080000D01*
X98722405Y-76080000D01*
X98759294Y-76149014D01*
X98944866Y-76375134D01*
X99170986Y-76560706D01*
X99428966Y-76698599D01*
X99708889Y-76783513D01*
X99927050Y-76805000D01*
X100072950Y-76805000D01*
X100291111Y-76783513D01*
X100571034Y-76698599D01*
X100829014Y-76560706D01*
X101055134Y-76375134D01*
X101240706Y-76149014D01*
X101378599Y-75891034D01*
X101463513Y-75611111D01*
X101492185Y-75320000D01*
X101463513Y-75028889D01*
X101378599Y-74748966D01*
X101240706Y-74490986D01*
X101055134Y-74264866D01*
X100829014Y-74079294D01*
X100774209Y-74050000D01*
X100829014Y-74020706D01*
X101055134Y-73835134D01*
X101240706Y-73609014D01*
X101378599Y-73351034D01*
X101463513Y-73071111D01*
X101492185Y-72780000D01*
X101463513Y-72488889D01*
X101378599Y-72208966D01*
X101240706Y-71950986D01*
X101055134Y-71724866D01*
X100829014Y-71539294D01*
X100774209Y-71510000D01*
X100829014Y-71480706D01*
X101055134Y-71295134D01*
X101240706Y-71069014D01*
X101378599Y-70811034D01*
X101463513Y-70531111D01*
X101492185Y-70240000D01*
X101463513Y-69948889D01*
X101378599Y-69668966D01*
X101240706Y-69410986D01*
X101055134Y-69184866D01*
X100829014Y-68999294D01*
X100774209Y-68970000D01*
X100829014Y-68940706D01*
X101055134Y-68755134D01*
X101240706Y-68529014D01*
X101378599Y-68271034D01*
X101463513Y-67991111D01*
X101492185Y-67700000D01*
X101463513Y-67408889D01*
X101378599Y-67128966D01*
X101240706Y-66870986D01*
X101055134Y-66644866D01*
X100829014Y-66459294D01*
X100774209Y-66430000D01*
X100829014Y-66400706D01*
X101055134Y-66215134D01*
X101240706Y-65989014D01*
X101378599Y-65731034D01*
X101463513Y-65451111D01*
X101492185Y-65160000D01*
X101463513Y-64868889D01*
X101378599Y-64588966D01*
X101240706Y-64330986D01*
X101055134Y-64104866D01*
X100829014Y-63919294D01*
X100774209Y-63890000D01*
X100829014Y-63860706D01*
X101055134Y-63675134D01*
X101240706Y-63449014D01*
X101378599Y-63191034D01*
X101463513Y-62911111D01*
X101492185Y-62620000D01*
X101463513Y-62328889D01*
X101378599Y-62048966D01*
X101240706Y-61790986D01*
X101055134Y-61564866D01*
X100829014Y-61379294D01*
X100774209Y-61350000D01*
X100829014Y-61320706D01*
X101055134Y-61135134D01*
X101240706Y-60909014D01*
X101378599Y-60651034D01*
X101463513Y-60371111D01*
X101492185Y-60080000D01*
X101463513Y-59788889D01*
X101378599Y-59508966D01*
X101240706Y-59250986D01*
X101055134Y-59024866D01*
X100829014Y-58839294D01*
X100774209Y-58810000D01*
X100829014Y-58780706D01*
X101055134Y-58595134D01*
X101240706Y-58369014D01*
X101378599Y-58111034D01*
X101463513Y-57831111D01*
X101492185Y-57540000D01*
X101463513Y-57248889D01*
X101378599Y-56968966D01*
X101240706Y-56710986D01*
X101055134Y-56484866D01*
X101025313Y-56460393D01*
X101094180Y-56439502D01*
X101204494Y-56380537D01*
X101301185Y-56301185D01*
X101380537Y-56204494D01*
X101439502Y-56094180D01*
X101475812Y-55974482D01*
X101488072Y-55850000D01*
X101488072Y-54150000D01*
X101475812Y-54025518D01*
X101439502Y-53905820D01*
X101380537Y-53795506D01*
X101301185Y-53698815D01*
X101204494Y-53619463D01*
X101094180Y-53560498D01*
X100974482Y-53524188D01*
X100850000Y-53511928D01*
X99150000Y-53511928D01*
X99025518Y-53524188D01*
X98905820Y-53560498D01*
X98795506Y-53619463D01*
X98698815Y-53698815D01*
X98619463Y-53795506D01*
X98560498Y-53905820D01*
X98524188Y-54025518D01*
X98511928Y-54150000D01*
X98511928Y-54240000D01*
X96488072Y-54240000D01*
X96488072Y-54150000D01*
X96475812Y-54025518D01*
X96439502Y-53905820D01*
X96380537Y-53795506D01*
X96301185Y-53698815D01*
X96204494Y-53619463D01*
X96094180Y-53560498D01*
X95974482Y-53524188D01*
X95850000Y-53511928D01*
X94150000Y-53511928D01*
X94025518Y-53524188D01*
X93905820Y-53560498D01*
X93795506Y-53619463D01*
X93698815Y-53698815D01*
X93619463Y-53795506D01*
X93560498Y-53905820D01*
X93524188Y-54025518D01*
X93511928Y-54150000D01*
X93511928Y-55850000D01*
X93524188Y-55974482D01*
X93560498Y-56094180D01*
X93619463Y-56204494D01*
X93698815Y-56301185D01*
X93795506Y-56380537D01*
X93905820Y-56439502D01*
X93974687Y-56460393D01*
X93944866Y-56484866D01*
X93759294Y-56710986D01*
X93621401Y-56968966D01*
X93536487Y-57248889D01*
X93507815Y-57540000D01*
X93536487Y-57831111D01*
X93621401Y-58111034D01*
X93759294Y-58369014D01*
X93944866Y-58595134D01*
X94170986Y-58780706D01*
X94225791Y-58810000D01*
X94170986Y-58839294D01*
X93944866Y-59024866D01*
X93759294Y-59250986D01*
X93621401Y-59508966D01*
X93536487Y-59788889D01*
X93507815Y-60080000D01*
X93536487Y-60371111D01*
X93621401Y-60651034D01*
X93759294Y-60909014D01*
X93944866Y-61135134D01*
X94170986Y-61320706D01*
X94225791Y-61350000D01*
X94170986Y-61379294D01*
X93944866Y-61564866D01*
X93759294Y-61790986D01*
X93621401Y-62048966D01*
X93536487Y-62328889D01*
X93507815Y-62620000D01*
X93536487Y-62911111D01*
X93621401Y-63191034D01*
X93759294Y-63449014D01*
X93944866Y-63675134D01*
X94170986Y-63860706D01*
X94225791Y-63890000D01*
X94170986Y-63919294D01*
X93944866Y-64104866D01*
X93759294Y-64330986D01*
X93621401Y-64588966D01*
X93536487Y-64868889D01*
X93507815Y-65160000D01*
X93536487Y-65451111D01*
X93621401Y-65731034D01*
X93759294Y-65989014D01*
X93944866Y-66215134D01*
X94170986Y-66400706D01*
X94225791Y-66430000D01*
X94170986Y-66459294D01*
X93944866Y-66644866D01*
X93759294Y-66870986D01*
X93621401Y-67128966D01*
X93536487Y-67408889D01*
X93507815Y-67700000D01*
X93536487Y-67991111D01*
X93621401Y-68271034D01*
X93759294Y-68529014D01*
X93944866Y-68755134D01*
X94170986Y-68940706D01*
X94225791Y-68970000D01*
X94170986Y-68999294D01*
X93944866Y-69184866D01*
X93801888Y-69359086D01*
X91711804Y-67269003D01*
X91688001Y-67239999D01*
X91572276Y-67145026D01*
X91440247Y-67074454D01*
X91296986Y-67030997D01*
X91185333Y-67020000D01*
X91185322Y-67020000D01*
X91148000Y-67016324D01*
X91110678Y-67020000D01*
X85829013Y-67020000D01*
X85842205Y-67000256D01*
X85920226Y-66811898D01*
X85960000Y-66611939D01*
X85960000Y-66408061D01*
X85928030Y-66247333D01*
X85988898Y-66235226D01*
X86177256Y-66157205D01*
X86346774Y-66043937D01*
X86490937Y-65899774D01*
X86509513Y-65871972D01*
X86511999Y-65875001D01*
X86627724Y-65969974D01*
X86661928Y-65988257D01*
X86661928Y-66335000D01*
X86674188Y-66459482D01*
X86710498Y-66579180D01*
X86769463Y-66689494D01*
X86848815Y-66786185D01*
X86945506Y-66865537D01*
X87055820Y-66924502D01*
X87175518Y-66960812D01*
X87300000Y-66973072D01*
X88900000Y-66973072D01*
X89024482Y-66960812D01*
X89144180Y-66924502D01*
X89254494Y-66865537D01*
X89351185Y-66786185D01*
X89430537Y-66689494D01*
X89489502Y-66579180D01*
X89525812Y-66459482D01*
X89538072Y-66335000D01*
X89538072Y-64335000D01*
X89525812Y-64210518D01*
X89489502Y-64090820D01*
X89430537Y-63980506D01*
X89351185Y-63883815D01*
X89254494Y-63804463D01*
X89144180Y-63745498D01*
X89024482Y-63709188D01*
X88900000Y-63696928D01*
X87300000Y-63696928D01*
X87209000Y-63705890D01*
X87209000Y-62964110D01*
X87300000Y-62973072D01*
X87814250Y-62970000D01*
X87973000Y-62811250D01*
X87973000Y-61462000D01*
X88227000Y-61462000D01*
X88227000Y-62811250D01*
X88385750Y-62970000D01*
X88900000Y-62973072D01*
X89024482Y-62960812D01*
X89144180Y-62924502D01*
X89254494Y-62865537D01*
X89351185Y-62786185D01*
X89430537Y-62689494D01*
X89489502Y-62579180D01*
X89525812Y-62459482D01*
X89538072Y-62335000D01*
X89535000Y-61620750D01*
X89376250Y-61462000D01*
X88227000Y-61462000D01*
X87973000Y-61462000D01*
X87953000Y-61462000D01*
X87953000Y-61208000D01*
X87973000Y-61208000D01*
X87973000Y-59858750D01*
X88227000Y-59858750D01*
X88227000Y-61208000D01*
X89376250Y-61208000D01*
X89535000Y-61049250D01*
X89538072Y-60335000D01*
X89525812Y-60210518D01*
X89489502Y-60090820D01*
X89430537Y-59980506D01*
X89351185Y-59883815D01*
X89254494Y-59804463D01*
X89144180Y-59745498D01*
X89024482Y-59709188D01*
X88900000Y-59696928D01*
X88385750Y-59700000D01*
X88227000Y-59858750D01*
X87973000Y-59858750D01*
X87814250Y-59700000D01*
X87377657Y-59697392D01*
X87366205Y-59669744D01*
X87252937Y-59500226D01*
X87108774Y-59356063D01*
X86939256Y-59242795D01*
X86750898Y-59164774D01*
X86550939Y-59125000D01*
X86347061Y-59125000D01*
X86147102Y-59164774D01*
X85958744Y-59242795D01*
X85789226Y-59356063D01*
X85745289Y-59400000D01*
X82130444Y-59400000D01*
X82044494Y-59329463D01*
X81934180Y-59270498D01*
X81814482Y-59234188D01*
X81690000Y-59221928D01*
X79890000Y-59221928D01*
X79765518Y-59234188D01*
X79645820Y-59270498D01*
X79535506Y-59329463D01*
X79438815Y-59408815D01*
X79359463Y-59505506D01*
X79300498Y-59615820D01*
X79264188Y-59735518D01*
X79251928Y-59860000D01*
X79251928Y-60460000D01*
X79264188Y-60584482D01*
X79300498Y-60704180D01*
X79349043Y-60795000D01*
X79300498Y-60885820D01*
X79264188Y-61005518D01*
X79251928Y-61130000D01*
X79251928Y-61730000D01*
X79264188Y-61854482D01*
X79300498Y-61974180D01*
X79349043Y-62065000D01*
X79300498Y-62155820D01*
X79264188Y-62275518D01*
X79251928Y-62400000D01*
X79251928Y-63000000D01*
X79264188Y-63124482D01*
X79290130Y-63210000D01*
X78770711Y-63210000D01*
X78726774Y-63166063D01*
X78557256Y-63052795D01*
X78368898Y-62974774D01*
X78168939Y-62935000D01*
X77965061Y-62935000D01*
X77765102Y-62974774D01*
X77576744Y-63052795D01*
X77407226Y-63166063D01*
X77263063Y-63310226D01*
X77149795Y-63479744D01*
X77071774Y-63668102D01*
X77032000Y-63868061D01*
X76628072Y-63868061D01*
X76628072Y-63670000D01*
X76615812Y-63545518D01*
X76579502Y-63425820D01*
X76530957Y-63335000D01*
X76579502Y-63244180D01*
X76615812Y-63124482D01*
X76628072Y-63000000D01*
X76628072Y-62400000D01*
X76615812Y-62275518D01*
X76579502Y-62155820D01*
X76530957Y-62065000D01*
X76579502Y-61974180D01*
X76615812Y-61854482D01*
X76628072Y-61730000D01*
X76628072Y-61130000D01*
X76615812Y-61005518D01*
X76579502Y-60885820D01*
X76530957Y-60795000D01*
X76579502Y-60704180D01*
X76615812Y-60584482D01*
X76628072Y-60460000D01*
X76625000Y-60445750D01*
X76466250Y-60287000D01*
X75217000Y-60287000D01*
X75217000Y-60307000D01*
X74963000Y-60307000D01*
X74963000Y-60287000D01*
X73713750Y-60287000D01*
X73555000Y-60445750D01*
X73551928Y-60460000D01*
X73564188Y-60584482D01*
X73590130Y-60670000D01*
X71531711Y-60670000D01*
X71487774Y-60626063D01*
X71318256Y-60512795D01*
X71129898Y-60434774D01*
X70929939Y-60395000D01*
X70726061Y-60395000D01*
X70526102Y-60434774D01*
X70337744Y-60512795D01*
X70168226Y-60626063D01*
X70024063Y-60770226D01*
X69910795Y-60939744D01*
X69832774Y-61128102D01*
X69793000Y-61328061D01*
X69793000Y-61531939D01*
X69819467Y-61665000D01*
X69710061Y-61665000D01*
X69510102Y-61704774D01*
X69321744Y-61782795D01*
X69152226Y-61896063D01*
X69008063Y-62040226D01*
X68894795Y-62209744D01*
X68816774Y-62398102D01*
X68777000Y-62598061D01*
X68777000Y-62801939D01*
X68816774Y-63001898D01*
X68894795Y-63190256D01*
X68907987Y-63210000D01*
X67648072Y-63210000D01*
X67648072Y-63100000D01*
X67635812Y-62975518D01*
X67599502Y-62855820D01*
X67540537Y-62745506D01*
X67503191Y-62700000D01*
X67540537Y-62654494D01*
X67599502Y-62544180D01*
X67635812Y-62424482D01*
X67648072Y-62300000D01*
X67645000Y-61935750D01*
X67486250Y-61777000D01*
X66637000Y-61777000D01*
X66637000Y-61797000D01*
X66383000Y-61797000D01*
X66383000Y-61777000D01*
X65533750Y-61777000D01*
X65375000Y-61935750D01*
X65371928Y-62300000D01*
X63319975Y-62300000D01*
X63314226Y-62271102D01*
X63236205Y-62082744D01*
X63122937Y-61913226D01*
X62978774Y-61769063D01*
X62809256Y-61655795D01*
X62620898Y-61577774D01*
X62420939Y-61538000D01*
X62217061Y-61538000D01*
X62017102Y-61577774D01*
X61828744Y-61655795D01*
X61659226Y-61769063D01*
X61615289Y-61813000D01*
X61252473Y-61813000D01*
X61240706Y-61790986D01*
X61055134Y-61564866D01*
X60829014Y-61379294D01*
X60774209Y-61350000D01*
X60829014Y-61320706D01*
X61055134Y-61135134D01*
X61240706Y-60909014D01*
X61302717Y-60793000D01*
X62377289Y-60793000D01*
X62421226Y-60836937D01*
X62590744Y-60950205D01*
X62779102Y-61028226D01*
X62979061Y-61068000D01*
X63182939Y-61068000D01*
X63382898Y-61028226D01*
X63451041Y-61000000D01*
X65371928Y-61000000D01*
X65375000Y-61364250D01*
X65533750Y-61523000D01*
X66383000Y-61523000D01*
X66383000Y-60523750D01*
X66637000Y-60523750D01*
X66637000Y-61523000D01*
X67486250Y-61523000D01*
X67645000Y-61364250D01*
X67648072Y-61000000D01*
X67635812Y-60875518D01*
X67599502Y-60755820D01*
X67540537Y-60645506D01*
X67461185Y-60548815D01*
X67364494Y-60469463D01*
X67254180Y-60410498D01*
X67134482Y-60374188D01*
X67010000Y-60361928D01*
X66795750Y-60365000D01*
X66637000Y-60523750D01*
X66383000Y-60523750D01*
X66224250Y-60365000D01*
X66010000Y-60361928D01*
X65885518Y-60374188D01*
X65765820Y-60410498D01*
X65655506Y-60469463D01*
X65558815Y-60548815D01*
X65479463Y-60645506D01*
X65420498Y-60755820D01*
X65384188Y-60875518D01*
X65371928Y-61000000D01*
X63451041Y-61000000D01*
X63571256Y-60950205D01*
X63740774Y-60836937D01*
X63884937Y-60692774D01*
X63998205Y-60523256D01*
X64076226Y-60334898D01*
X64116000Y-60134939D01*
X64116000Y-59931061D01*
X64101866Y-59860000D01*
X73551928Y-59860000D01*
X73555000Y-59874250D01*
X73713750Y-60033000D01*
X74963000Y-60033000D01*
X74963000Y-59383750D01*
X75217000Y-59383750D01*
X75217000Y-60033000D01*
X76466250Y-60033000D01*
X76625000Y-59874250D01*
X76628072Y-59860000D01*
X76615812Y-59735518D01*
X76579502Y-59615820D01*
X76520537Y-59505506D01*
X76441185Y-59408815D01*
X76344494Y-59329463D01*
X76234180Y-59270498D01*
X76114482Y-59234188D01*
X75990000Y-59221928D01*
X75375750Y-59225000D01*
X75217000Y-59383750D01*
X74963000Y-59383750D01*
X74804250Y-59225000D01*
X74190000Y-59221928D01*
X74065518Y-59234188D01*
X73945820Y-59270498D01*
X73835506Y-59329463D01*
X73738815Y-59408815D01*
X73659463Y-59505506D01*
X73600498Y-59615820D01*
X73564188Y-59735518D01*
X73551928Y-59860000D01*
X64101866Y-59860000D01*
X64076226Y-59731102D01*
X63998205Y-59542744D01*
X63884937Y-59373226D01*
X63740774Y-59229063D01*
X63571256Y-59115795D01*
X63382898Y-59037774D01*
X63182939Y-58998000D01*
X62979061Y-58998000D01*
X62779102Y-59037774D01*
X62590744Y-59115795D01*
X62421226Y-59229063D01*
X62377289Y-59273000D01*
X61252473Y-59273000D01*
X61240706Y-59250986D01*
X61055134Y-59024866D01*
X60829014Y-58839294D01*
X60764477Y-58804799D01*
X60881355Y-58735178D01*
X61097588Y-58540269D01*
X61271641Y-58306920D01*
X61396825Y-58044099D01*
X61441476Y-57896890D01*
X61320155Y-57667000D01*
X60127000Y-57667000D01*
X60127000Y-57687000D01*
X59873000Y-57687000D01*
X59873000Y-57667000D01*
X58679845Y-57667000D01*
X58558524Y-57896890D01*
X58603175Y-58044099D01*
X58728359Y-58306920D01*
X58902412Y-58540269D01*
X59118645Y-58735178D01*
X59235523Y-58804799D01*
X59170986Y-58839294D01*
X58944866Y-59024866D01*
X58759294Y-59250986D01*
X58722405Y-59320000D01*
X56277595Y-59320000D01*
X56240706Y-59250986D01*
X56055134Y-59024866D01*
X55829014Y-58839294D01*
X55764477Y-58804799D01*
X55881355Y-58735178D01*
X56097588Y-58540269D01*
X56271641Y-58306920D01*
X56396825Y-58044099D01*
X56441476Y-57896890D01*
X56320155Y-57667000D01*
X55127000Y-57667000D01*
X55127000Y-57687000D01*
X54873000Y-57687000D01*
X54873000Y-57667000D01*
X53679845Y-57667000D01*
X53558524Y-57896890D01*
X53603175Y-58044099D01*
X53728359Y-58306920D01*
X53902412Y-58540269D01*
X54118645Y-58735178D01*
X54235523Y-58804799D01*
X54170986Y-58839294D01*
X53944866Y-59024866D01*
X53759294Y-59250986D01*
X53621401Y-59508966D01*
X53536487Y-59788889D01*
X53507815Y-60080000D01*
X50710000Y-60080000D01*
X50710000Y-54150000D01*
X53511928Y-54150000D01*
X53511928Y-55850000D01*
X53524188Y-55974482D01*
X53560498Y-56094180D01*
X53619463Y-56204494D01*
X53698815Y-56301185D01*
X53795506Y-56380537D01*
X53905820Y-56439502D01*
X53986466Y-56463966D01*
X53902412Y-56539731D01*
X53728359Y-56773080D01*
X53603175Y-57035901D01*
X53558524Y-57183110D01*
X53679845Y-57413000D01*
X54873000Y-57413000D01*
X54873000Y-57393000D01*
X55127000Y-57393000D01*
X55127000Y-57413000D01*
X56320155Y-57413000D01*
X56441476Y-57183110D01*
X56396825Y-57035901D01*
X56271641Y-56773080D01*
X56097588Y-56539731D01*
X56013534Y-56463966D01*
X56094180Y-56439502D01*
X56204494Y-56380537D01*
X56301185Y-56301185D01*
X56380537Y-56204494D01*
X56439502Y-56094180D01*
X56475812Y-55974482D01*
X56488072Y-55850000D01*
X56488072Y-55760000D01*
X58511928Y-55760000D01*
X58511928Y-55850000D01*
X58524188Y-55974482D01*
X58560498Y-56094180D01*
X58619463Y-56204494D01*
X58698815Y-56301185D01*
X58795506Y-56380537D01*
X58905820Y-56439502D01*
X58986466Y-56463966D01*
X58902412Y-56539731D01*
X58728359Y-56773080D01*
X58603175Y-57035901D01*
X58558524Y-57183110D01*
X58679845Y-57413000D01*
X59873000Y-57413000D01*
X59873000Y-57393000D01*
X60127000Y-57393000D01*
X60127000Y-57413000D01*
X61320155Y-57413000D01*
X61441476Y-57183110D01*
X61396825Y-57035901D01*
X61271641Y-56773080D01*
X61097588Y-56539731D01*
X61013534Y-56463966D01*
X61094180Y-56439502D01*
X61204494Y-56380537D01*
X61301185Y-56301185D01*
X61359495Y-56230134D01*
X61401795Y-56332256D01*
X61515063Y-56501774D01*
X61659226Y-56645937D01*
X61828744Y-56759205D01*
X62017102Y-56837226D01*
X62217061Y-56877000D01*
X62420939Y-56877000D01*
X62620898Y-56837226D01*
X62809256Y-56759205D01*
X62978774Y-56645937D01*
X63022711Y-56602000D01*
X66618000Y-56602000D01*
X66618000Y-56705939D01*
X66657774Y-56905898D01*
X66735795Y-57094256D01*
X66849063Y-57263774D01*
X66993226Y-57407937D01*
X67162744Y-57521205D01*
X67351102Y-57599226D01*
X67551061Y-57639000D01*
X67754939Y-57639000D01*
X67954898Y-57599226D01*
X68143256Y-57521205D01*
X68312774Y-57407937D01*
X68356711Y-57364000D01*
X74696289Y-57364000D01*
X74740226Y-57407937D01*
X74909744Y-57521205D01*
X75098102Y-57599226D01*
X75298061Y-57639000D01*
X75501939Y-57639000D01*
X75701898Y-57599226D01*
X75890256Y-57521205D01*
X76059774Y-57407937D01*
X76103711Y-57364000D01*
X76905000Y-57364000D01*
X76905000Y-57467939D01*
X76944774Y-57667898D01*
X77022795Y-57856256D01*
X77136063Y-58025774D01*
X77280226Y-58169937D01*
X77449744Y-58283205D01*
X77638102Y-58361226D01*
X77838061Y-58401000D01*
X78041939Y-58401000D01*
X78241898Y-58361226D01*
X78430256Y-58283205D01*
X78599774Y-58169937D01*
X78643711Y-58126000D01*
X79445000Y-58126000D01*
X79445000Y-58229939D01*
X79484774Y-58429898D01*
X79562795Y-58618256D01*
X79676063Y-58787774D01*
X79820226Y-58931937D01*
X79989744Y-59045205D01*
X80178102Y-59123226D01*
X80378061Y-59163000D01*
X80581939Y-59163000D01*
X80781898Y-59123226D01*
X80970256Y-59045205D01*
X81139774Y-58931937D01*
X81183711Y-58888000D01*
X82697289Y-58888000D01*
X82741226Y-58931937D01*
X82910744Y-59045205D01*
X83099102Y-59123226D01*
X83299061Y-59163000D01*
X83502939Y-59163000D01*
X83702898Y-59123226D01*
X83891256Y-59045205D01*
X84060774Y-58931937D01*
X84204937Y-58787774D01*
X84318205Y-58618256D01*
X84396226Y-58429898D01*
X84407619Y-58372619D01*
X84464898Y-58361226D01*
X84653256Y-58283205D01*
X84822774Y-58169937D01*
X84966937Y-58025774D01*
X85080205Y-57856256D01*
X85158226Y-57667898D01*
X85198000Y-57467939D01*
X85198000Y-57364000D01*
X85745289Y-57364000D01*
X85789226Y-57407937D01*
X85958744Y-57521205D01*
X86147102Y-57599226D01*
X86347061Y-57639000D01*
X86550939Y-57639000D01*
X86750898Y-57599226D01*
X86939256Y-57521205D01*
X87108774Y-57407937D01*
X87152711Y-57364000D01*
X90063289Y-57364000D01*
X90107226Y-57407937D01*
X90276744Y-57521205D01*
X90465102Y-57599226D01*
X90665061Y-57639000D01*
X90868939Y-57639000D01*
X91068898Y-57599226D01*
X91257256Y-57521205D01*
X91426774Y-57407937D01*
X91570937Y-57263774D01*
X91684205Y-57094256D01*
X91762226Y-56905898D01*
X91802000Y-56705939D01*
X91802000Y-56502061D01*
X91762226Y-56302102D01*
X91684205Y-56113744D01*
X91570937Y-55944226D01*
X91426774Y-55800063D01*
X91257256Y-55686795D01*
X91068898Y-55608774D01*
X90916697Y-55578500D01*
X90922205Y-55570256D01*
X91000226Y-55381898D01*
X91040000Y-55181939D01*
X91040000Y-54978061D01*
X91000226Y-54778102D01*
X90922205Y-54589744D01*
X90808937Y-54420226D01*
X90664774Y-54276063D01*
X90495256Y-54162795D01*
X90306898Y-54084774D01*
X90106939Y-54045000D01*
X89903061Y-54045000D01*
X89703102Y-54084774D01*
X89514744Y-54162795D01*
X89345226Y-54276063D01*
X89301289Y-54320000D01*
X85960000Y-54320000D01*
X85960000Y-54216061D01*
X85920226Y-54016102D01*
X85842205Y-53827744D01*
X85728937Y-53658226D01*
X85584774Y-53514063D01*
X85415256Y-53400795D01*
X85226898Y-53322774D01*
X85026939Y-53283000D01*
X84823061Y-53283000D01*
X84623102Y-53322774D01*
X84434744Y-53400795D01*
X84265226Y-53514063D01*
X84221289Y-53558000D01*
X81565609Y-53558000D01*
X81720706Y-53369014D01*
X81858599Y-53111034D01*
X81943513Y-52831111D01*
X81972185Y-52540000D01*
X81943513Y-52248889D01*
X81858599Y-51968966D01*
X81720706Y-51710986D01*
X81535134Y-51484866D01*
X81309014Y-51299294D01*
X81051034Y-51161401D01*
X80771111Y-51076487D01*
X80552950Y-51055000D01*
X80407050Y-51055000D01*
X80188889Y-51076487D01*
X79908966Y-51161401D01*
X79650986Y-51299294D01*
X79424866Y-51484866D01*
X79239294Y-51710986D01*
X79210000Y-51765791D01*
X79180706Y-51710986D01*
X78995134Y-51484866D01*
X78769014Y-51299294D01*
X78511034Y-51161401D01*
X78231111Y-51076487D01*
X78012950Y-51055000D01*
X77867050Y-51055000D01*
X77648889Y-51076487D01*
X77368966Y-51161401D01*
X77110986Y-51299294D01*
X76884866Y-51484866D01*
X76699294Y-51710986D01*
X76670000Y-51765791D01*
X76640706Y-51710986D01*
X76455134Y-51484866D01*
X76229014Y-51299294D01*
X75971034Y-51161401D01*
X75691111Y-51076487D01*
X75472950Y-51055000D01*
X75327050Y-51055000D01*
X75108889Y-51076487D01*
X74828966Y-51161401D01*
X74570986Y-51299294D01*
X74344866Y-51484866D01*
X74159294Y-51710986D01*
X74124799Y-51775523D01*
X74055178Y-51658645D01*
X73860269Y-51442412D01*
X73626920Y-51268359D01*
X73364099Y-51143175D01*
X73216890Y-51098524D01*
X72987000Y-51219845D01*
X72987000Y-52413000D01*
X73007000Y-52413000D01*
X73007000Y-52667000D01*
X72987000Y-52667000D01*
X72987000Y-52687000D01*
X72733000Y-52687000D01*
X72733000Y-52667000D01*
X72713000Y-52667000D01*
X72713000Y-52413000D01*
X72733000Y-52413000D01*
X72733000Y-51219845D01*
X72503110Y-51098524D01*
X72355901Y-51143175D01*
X72093080Y-51268359D01*
X71859731Y-51442412D01*
X71783966Y-51526466D01*
X71759502Y-51445820D01*
X71700537Y-51335506D01*
X71621185Y-51238815D01*
X71524494Y-51159463D01*
X71414180Y-51100498D01*
X71294482Y-51064188D01*
X71170000Y-51051928D01*
X69470000Y-51051928D01*
X69345518Y-51064188D01*
X69225820Y-51100498D01*
X69115506Y-51159463D01*
X69018815Y-51238815D01*
X68939463Y-51335506D01*
X68880498Y-51445820D01*
X68844188Y-51565518D01*
X68831928Y-51690000D01*
X68831928Y-53390000D01*
X68844188Y-53514482D01*
X68857389Y-53558000D01*
X63784711Y-53558000D01*
X63740774Y-53514063D01*
X63571256Y-53400795D01*
X63382898Y-53322774D01*
X63182939Y-53283000D01*
X62979061Y-53283000D01*
X62779102Y-53322774D01*
X62590744Y-53400795D01*
X62421226Y-53514063D01*
X62277063Y-53658226D01*
X62163795Y-53827744D01*
X62085774Y-54016102D01*
X62046000Y-54216061D01*
X62046000Y-54320000D01*
X61690040Y-54320000D01*
X61642247Y-54294454D01*
X61498986Y-54250997D01*
X61488072Y-54249922D01*
X61488072Y-54150000D01*
X61475812Y-54025518D01*
X61439502Y-53905820D01*
X61380537Y-53795506D01*
X61301185Y-53698815D01*
X61204494Y-53619463D01*
X61094180Y-53560498D01*
X60974482Y-53524188D01*
X60850000Y-53511928D01*
X59150000Y-53511928D01*
X59025518Y-53524188D01*
X58905820Y-53560498D01*
X58795506Y-53619463D01*
X58698815Y-53698815D01*
X58619463Y-53795506D01*
X58560498Y-53905820D01*
X58524188Y-54025518D01*
X58511928Y-54150000D01*
X58511928Y-54240000D01*
X56488072Y-54240000D01*
X56488072Y-54150000D01*
X56475812Y-54025518D01*
X56439502Y-53905820D01*
X56380537Y-53795506D01*
X56301185Y-53698815D01*
X56204494Y-53619463D01*
X56094180Y-53560498D01*
X55974482Y-53524188D01*
X55850000Y-53511928D01*
X54150000Y-53511928D01*
X54025518Y-53524188D01*
X53905820Y-53560498D01*
X53795506Y-53619463D01*
X53698815Y-53698815D01*
X53619463Y-53795506D01*
X53560498Y-53905820D01*
X53524188Y-54025518D01*
X53511928Y-54150000D01*
X50710000Y-54150000D01*
X50710000Y-50710000D01*
X104290000Y-50710000D01*
X104290001Y-89290000D01*
M02*
