G04 #@! TF.GenerationSoftware,KiCad,Pcbnew,(5.1.0)-1*
G04 #@! TF.CreationDate,2019-06-23T22:47:00+02:00*
G04 #@! TF.ProjectId,RF_433MHz_Receiver,52465f34-3333-44d4-987a-5f5265636569,00*
G04 #@! TF.SameCoordinates,Original*
G04 #@! TF.FileFunction,Copper,L2,Bot*
G04 #@! TF.FilePolarity,Positive*
%FSLAX46Y46*%
G04 Gerber Fmt 4.6, Leading zero omitted, Abs format (unit mm)*
G04 Created by KiCad (PCBNEW (5.1.0)-1) date 2019-06-23 22:47:00*
%MOMM*%
%LPD*%
G04 APERTURE LIST*
%ADD10C,0.250000*%
%ADD11C,1.900000*%
%ADD12O,1.700000X1.700000*%
%ADD13R,1.700000X1.700000*%
%ADD14C,0.800000*%
%ADD15C,0.254000*%
G04 APERTURE END LIST*
D10*
X102797333Y-82800571D02*
X102654476Y-82848190D01*
X102606857Y-82895809D01*
X102559238Y-82991047D01*
X102559238Y-83133904D01*
X102606857Y-83229142D01*
X102654476Y-83276761D01*
X102749714Y-83324380D01*
X103130666Y-83324380D01*
X103130666Y-82324380D01*
X102797333Y-82324380D01*
X102702095Y-82372000D01*
X102654476Y-82419619D01*
X102606857Y-82514857D01*
X102606857Y-82610095D01*
X102654476Y-82705333D01*
X102702095Y-82752952D01*
X102797333Y-82800571D01*
X103130666Y-82800571D01*
X102130666Y-83229142D02*
X102083047Y-83276761D01*
X102130666Y-83324380D01*
X102178285Y-83276761D01*
X102130666Y-83229142D01*
X102130666Y-83324380D01*
X101083047Y-83229142D02*
X101130666Y-83276761D01*
X101273523Y-83324380D01*
X101368761Y-83324380D01*
X101511619Y-83276761D01*
X101606857Y-83181523D01*
X101654476Y-83086285D01*
X101702095Y-82895809D01*
X101702095Y-82752952D01*
X101654476Y-82562476D01*
X101606857Y-82467238D01*
X101511619Y-82372000D01*
X101368761Y-82324380D01*
X101273523Y-82324380D01*
X101130666Y-82372000D01*
X101083047Y-82419619D01*
X100225904Y-82657714D02*
X100225904Y-83324380D01*
X100654476Y-82657714D02*
X100654476Y-83181523D01*
X100606857Y-83276761D01*
X100511619Y-83324380D01*
X100368761Y-83324380D01*
X100273523Y-83276761D01*
X100225904Y-83229142D01*
X98987809Y-82943428D02*
X98225904Y-82943428D01*
X97083047Y-82657714D02*
X96844952Y-83324380D01*
X96606857Y-82657714D01*
X96035428Y-82324380D02*
X95940190Y-82324380D01*
X95844952Y-82372000D01*
X95797333Y-82419619D01*
X95749714Y-82514857D01*
X95702095Y-82705333D01*
X95702095Y-82943428D01*
X95749714Y-83133904D01*
X95797333Y-83229142D01*
X95844952Y-83276761D01*
X95940190Y-83324380D01*
X96035428Y-83324380D01*
X96130666Y-83276761D01*
X96178285Y-83229142D01*
X96225904Y-83133904D01*
X96273523Y-82943428D01*
X96273523Y-82705333D01*
X96225904Y-82514857D01*
X96178285Y-82419619D01*
X96130666Y-82372000D01*
X96035428Y-82324380D01*
X95083047Y-82324380D02*
X94987809Y-82324380D01*
X94892571Y-82372000D01*
X94844952Y-82419619D01*
X94797333Y-82514857D01*
X94749714Y-82705333D01*
X94749714Y-82943428D01*
X94797333Y-83133904D01*
X94844952Y-83229142D01*
X94892571Y-83276761D01*
X94987809Y-83324380D01*
X95083047Y-83324380D01*
X95178285Y-83276761D01*
X95225904Y-83229142D01*
X95273523Y-83133904D01*
X95321142Y-82943428D01*
X95321142Y-82705333D01*
X95273523Y-82514857D01*
X95225904Y-82419619D01*
X95178285Y-82372000D01*
X95083047Y-82324380D01*
D11*
X89185000Y-87634000D03*
X79025000Y-87634000D03*
X76485000Y-87634000D03*
X73945000Y-87634000D03*
X81565000Y-87634000D03*
X84105000Y-87634000D03*
X86645000Y-87634000D03*
D12*
X80480000Y-52540000D03*
X77940000Y-52540000D03*
X75400000Y-52540000D03*
X72860000Y-52540000D03*
D13*
X70320000Y-52540000D03*
X55000000Y-55000000D03*
D12*
X55000000Y-57540000D03*
X55000000Y-60080000D03*
X55000000Y-62620000D03*
X55000000Y-65160000D03*
X55000000Y-67700000D03*
X55000000Y-70240000D03*
X55000000Y-72780000D03*
X55000000Y-75320000D03*
X95000000Y-75320000D03*
X95000000Y-72780000D03*
X95000000Y-70240000D03*
X95000000Y-67700000D03*
X95000000Y-65160000D03*
X95000000Y-62620000D03*
X95000000Y-60080000D03*
X95000000Y-57540000D03*
D13*
X95000000Y-55000000D03*
D12*
X60000000Y-75320000D03*
X60000000Y-72780000D03*
X60000000Y-70240000D03*
X60000000Y-67700000D03*
X60000000Y-65160000D03*
X60000000Y-62620000D03*
X60000000Y-60080000D03*
X60000000Y-57540000D03*
D13*
X60000000Y-55000000D03*
X100000000Y-55000000D03*
D12*
X100000000Y-57540000D03*
X100000000Y-60080000D03*
X100000000Y-62620000D03*
X100000000Y-65160000D03*
X100000000Y-67700000D03*
X100000000Y-70240000D03*
X100000000Y-72780000D03*
X100000000Y-75320000D03*
D14*
X75400000Y-56604000D03*
X67653000Y-75273000D03*
X67653000Y-56604000D03*
X86449000Y-60160000D03*
X86449000Y-56604000D03*
X90767000Y-81496000D03*
X90767000Y-56604000D03*
X90005000Y-80734000D03*
X90005000Y-55080000D03*
X80480000Y-58128000D03*
X83401000Y-58128000D03*
X83401000Y-62700000D03*
X77940000Y-57366000D03*
X84163000Y-61430000D03*
X84163000Y-57366000D03*
X71717000Y-63970000D03*
X72606000Y-66510000D03*
X72606000Y-76289000D03*
X71717000Y-65240000D03*
X71717000Y-77305000D03*
X69812000Y-78702000D03*
X69812000Y-62700000D03*
X70828000Y-61430000D03*
X70828000Y-80099000D03*
X73876000Y-80988000D03*
X78067000Y-63970000D03*
X63081000Y-54318000D03*
X63081000Y-60033000D03*
X84925000Y-66510000D03*
X84925000Y-54318000D03*
X62319000Y-55842000D03*
X62319000Y-62573000D03*
X85687000Y-65240000D03*
X85687000Y-55842000D03*
X68415000Y-72860000D03*
X68415000Y-61684000D03*
X72860000Y-60160000D03*
D10*
X75400000Y-52540000D02*
X75400000Y-56604000D01*
X67653000Y-75273000D02*
X67653000Y-56604000D01*
X86449000Y-60160000D02*
X86449000Y-56604000D01*
X90767000Y-81496000D02*
X90767000Y-56604000D01*
X90005000Y-80734000D02*
X90005000Y-55080000D01*
X80480000Y-52540000D02*
X80480000Y-58128000D01*
X83401000Y-58128000D02*
X83401000Y-62700000D01*
X77940000Y-52540000D02*
X77940000Y-57366000D01*
X84163000Y-61430000D02*
X84163000Y-57366000D01*
X70320000Y-52540000D02*
X70320000Y-57366000D01*
X71717000Y-58763000D02*
X71717000Y-63970000D01*
X70320000Y-57366000D02*
X71717000Y-58763000D01*
X72606000Y-66510000D02*
X72606000Y-76289000D01*
X71717000Y-65240000D02*
X71717000Y-77305000D01*
X69812000Y-78702000D02*
X69812000Y-62700000D01*
X70828000Y-77178000D02*
X70828000Y-80099000D01*
X70828000Y-61430000D02*
X70828000Y-77178000D01*
X75019000Y-63970000D02*
X78067000Y-63970000D01*
X73876000Y-80988000D02*
X73876000Y-65113000D01*
X73876000Y-65113000D02*
X75019000Y-63970000D01*
X63081000Y-54318000D02*
X63081000Y-60033000D01*
X84925000Y-66510000D02*
X84925000Y-54318000D01*
X62319000Y-55842000D02*
X62319000Y-62573000D01*
X85687000Y-65240000D02*
X85687000Y-55842000D01*
X68415000Y-61684000D02*
X68415000Y-72860000D01*
X72860000Y-52540000D02*
X72860000Y-60160000D01*
D15*
G36*
X104290001Y-89290000D02*
G01*
X50710000Y-89290000D01*
X50710000Y-87477891D01*
X72360000Y-87477891D01*
X72360000Y-87790109D01*
X72420911Y-88096327D01*
X72540391Y-88384779D01*
X72713850Y-88644379D01*
X72934621Y-88865150D01*
X73194221Y-89038609D01*
X73482673Y-89158089D01*
X73788891Y-89219000D01*
X74101109Y-89219000D01*
X74407327Y-89158089D01*
X74695779Y-89038609D01*
X74955379Y-88865150D01*
X75176150Y-88644379D01*
X75215000Y-88586236D01*
X75253850Y-88644379D01*
X75474621Y-88865150D01*
X75734221Y-89038609D01*
X76022673Y-89158089D01*
X76328891Y-89219000D01*
X76641109Y-89219000D01*
X76947327Y-89158089D01*
X77235779Y-89038609D01*
X77495379Y-88865150D01*
X77716150Y-88644379D01*
X77755000Y-88586236D01*
X77793850Y-88644379D01*
X78014621Y-88865150D01*
X78274221Y-89038609D01*
X78562673Y-89158089D01*
X78868891Y-89219000D01*
X79181109Y-89219000D01*
X79487327Y-89158089D01*
X79775779Y-89038609D01*
X80035379Y-88865150D01*
X80256150Y-88644379D01*
X80295000Y-88586236D01*
X80333850Y-88644379D01*
X80554621Y-88865150D01*
X80814221Y-89038609D01*
X81102673Y-89158089D01*
X81408891Y-89219000D01*
X81721109Y-89219000D01*
X82027327Y-89158089D01*
X82315779Y-89038609D01*
X82575379Y-88865150D01*
X82796150Y-88644379D01*
X82835000Y-88586236D01*
X82873850Y-88644379D01*
X83094621Y-88865150D01*
X83354221Y-89038609D01*
X83642673Y-89158089D01*
X83948891Y-89219000D01*
X84261109Y-89219000D01*
X84567327Y-89158089D01*
X84855779Y-89038609D01*
X85115379Y-88865150D01*
X85336150Y-88644379D01*
X85375000Y-88586236D01*
X85413850Y-88644379D01*
X85634621Y-88865150D01*
X85894221Y-89038609D01*
X86182673Y-89158089D01*
X86488891Y-89219000D01*
X86801109Y-89219000D01*
X87107327Y-89158089D01*
X87395779Y-89038609D01*
X87655379Y-88865150D01*
X87786777Y-88733752D01*
X88264853Y-88733752D01*
X88354579Y-88993042D01*
X88635671Y-89128935D01*
X88937873Y-89207379D01*
X89249573Y-89225359D01*
X89558791Y-89182184D01*
X89853644Y-89079513D01*
X90015421Y-88993042D01*
X90105147Y-88733752D01*
X89185000Y-87813605D01*
X88264853Y-88733752D01*
X87786777Y-88733752D01*
X87876150Y-88644379D01*
X87964387Y-88512324D01*
X88085248Y-88554147D01*
X89005395Y-87634000D01*
X89364605Y-87634000D01*
X90284752Y-88554147D01*
X90544042Y-88464421D01*
X90679935Y-88183329D01*
X90758379Y-87881127D01*
X90776359Y-87569427D01*
X90733184Y-87260209D01*
X90630513Y-86965356D01*
X90544042Y-86803579D01*
X90284752Y-86713853D01*
X89364605Y-87634000D01*
X89005395Y-87634000D01*
X88085248Y-86713853D01*
X87964387Y-86755676D01*
X87876150Y-86623621D01*
X87786777Y-86534248D01*
X88264853Y-86534248D01*
X89185000Y-87454395D01*
X90105147Y-86534248D01*
X90015421Y-86274958D01*
X89734329Y-86139065D01*
X89432127Y-86060621D01*
X89120427Y-86042641D01*
X88811209Y-86085816D01*
X88516356Y-86188487D01*
X88354579Y-86274958D01*
X88264853Y-86534248D01*
X87786777Y-86534248D01*
X87655379Y-86402850D01*
X87395779Y-86229391D01*
X87107327Y-86109911D01*
X86801109Y-86049000D01*
X86488891Y-86049000D01*
X86182673Y-86109911D01*
X85894221Y-86229391D01*
X85634621Y-86402850D01*
X85413850Y-86623621D01*
X85375000Y-86681764D01*
X85336150Y-86623621D01*
X85115379Y-86402850D01*
X84855779Y-86229391D01*
X84567327Y-86109911D01*
X84261109Y-86049000D01*
X83948891Y-86049000D01*
X83642673Y-86109911D01*
X83354221Y-86229391D01*
X83094621Y-86402850D01*
X82873850Y-86623621D01*
X82835000Y-86681764D01*
X82796150Y-86623621D01*
X82575379Y-86402850D01*
X82315779Y-86229391D01*
X82027327Y-86109911D01*
X81721109Y-86049000D01*
X81408891Y-86049000D01*
X81102673Y-86109911D01*
X80814221Y-86229391D01*
X80554621Y-86402850D01*
X80333850Y-86623621D01*
X80295000Y-86681764D01*
X80256150Y-86623621D01*
X80035379Y-86402850D01*
X79775779Y-86229391D01*
X79487327Y-86109911D01*
X79181109Y-86049000D01*
X78868891Y-86049000D01*
X78562673Y-86109911D01*
X78274221Y-86229391D01*
X78014621Y-86402850D01*
X77793850Y-86623621D01*
X77755000Y-86681764D01*
X77716150Y-86623621D01*
X77495379Y-86402850D01*
X77235779Y-86229391D01*
X76947327Y-86109911D01*
X76641109Y-86049000D01*
X76328891Y-86049000D01*
X76022673Y-86109911D01*
X75734221Y-86229391D01*
X75474621Y-86402850D01*
X75253850Y-86623621D01*
X75215000Y-86681764D01*
X75176150Y-86623621D01*
X74955379Y-86402850D01*
X74695779Y-86229391D01*
X74407327Y-86109911D01*
X74101109Y-86049000D01*
X73788891Y-86049000D01*
X73482673Y-86109911D01*
X73194221Y-86229391D01*
X72934621Y-86402850D01*
X72713850Y-86623621D01*
X72540391Y-86883221D01*
X72420911Y-87171673D01*
X72360000Y-87477891D01*
X50710000Y-87477891D01*
X50710000Y-75676890D01*
X53558524Y-75676890D01*
X53603175Y-75824099D01*
X53728359Y-76086920D01*
X53902412Y-76320269D01*
X54118645Y-76515178D01*
X54368748Y-76664157D01*
X54643109Y-76761481D01*
X54873000Y-76640814D01*
X54873000Y-75447000D01*
X55127000Y-75447000D01*
X55127000Y-76640814D01*
X55356891Y-76761481D01*
X55631252Y-76664157D01*
X55881355Y-76515178D01*
X56097588Y-76320269D01*
X56271641Y-76086920D01*
X56396825Y-75824099D01*
X56441476Y-75676890D01*
X58558524Y-75676890D01*
X58603175Y-75824099D01*
X58728359Y-76086920D01*
X58902412Y-76320269D01*
X59118645Y-76515178D01*
X59368748Y-76664157D01*
X59643109Y-76761481D01*
X59873000Y-76640814D01*
X59873000Y-75447000D01*
X60127000Y-75447000D01*
X60127000Y-76640814D01*
X60356891Y-76761481D01*
X60631252Y-76664157D01*
X60881355Y-76515178D01*
X61097588Y-76320269D01*
X61271641Y-76086920D01*
X61396825Y-75824099D01*
X61441476Y-75676890D01*
X61320155Y-75447000D01*
X60127000Y-75447000D01*
X59873000Y-75447000D01*
X58679845Y-75447000D01*
X58558524Y-75676890D01*
X56441476Y-75676890D01*
X56320155Y-75447000D01*
X55127000Y-75447000D01*
X54873000Y-75447000D01*
X53679845Y-75447000D01*
X53558524Y-75676890D01*
X50710000Y-75676890D01*
X50710000Y-57540000D01*
X53507815Y-57540000D01*
X53536487Y-57831111D01*
X53621401Y-58111034D01*
X53759294Y-58369014D01*
X53944866Y-58595134D01*
X54170986Y-58780706D01*
X54225791Y-58810000D01*
X54170986Y-58839294D01*
X53944866Y-59024866D01*
X53759294Y-59250986D01*
X53621401Y-59508966D01*
X53536487Y-59788889D01*
X53507815Y-60080000D01*
X53536487Y-60371111D01*
X53621401Y-60651034D01*
X53759294Y-60909014D01*
X53944866Y-61135134D01*
X54170986Y-61320706D01*
X54225791Y-61350000D01*
X54170986Y-61379294D01*
X53944866Y-61564866D01*
X53759294Y-61790986D01*
X53621401Y-62048966D01*
X53536487Y-62328889D01*
X53507815Y-62620000D01*
X53536487Y-62911111D01*
X53621401Y-63191034D01*
X53759294Y-63449014D01*
X53944866Y-63675134D01*
X54170986Y-63860706D01*
X54225791Y-63890000D01*
X54170986Y-63919294D01*
X53944866Y-64104866D01*
X53759294Y-64330986D01*
X53621401Y-64588966D01*
X53536487Y-64868889D01*
X53507815Y-65160000D01*
X53536487Y-65451111D01*
X53621401Y-65731034D01*
X53759294Y-65989014D01*
X53944866Y-66215134D01*
X54170986Y-66400706D01*
X54225791Y-66430000D01*
X54170986Y-66459294D01*
X53944866Y-66644866D01*
X53759294Y-66870986D01*
X53621401Y-67128966D01*
X53536487Y-67408889D01*
X53507815Y-67700000D01*
X53536487Y-67991111D01*
X53621401Y-68271034D01*
X53759294Y-68529014D01*
X53944866Y-68755134D01*
X54170986Y-68940706D01*
X54225791Y-68970000D01*
X54170986Y-68999294D01*
X53944866Y-69184866D01*
X53759294Y-69410986D01*
X53621401Y-69668966D01*
X53536487Y-69948889D01*
X53507815Y-70240000D01*
X53536487Y-70531111D01*
X53621401Y-70811034D01*
X53759294Y-71069014D01*
X53944866Y-71295134D01*
X54170986Y-71480706D01*
X54225791Y-71510000D01*
X54170986Y-71539294D01*
X53944866Y-71724866D01*
X53759294Y-71950986D01*
X53621401Y-72208966D01*
X53536487Y-72488889D01*
X53507815Y-72780000D01*
X53536487Y-73071111D01*
X53621401Y-73351034D01*
X53759294Y-73609014D01*
X53944866Y-73835134D01*
X54170986Y-74020706D01*
X54235523Y-74055201D01*
X54118645Y-74124822D01*
X53902412Y-74319731D01*
X53728359Y-74553080D01*
X53603175Y-74815901D01*
X53558524Y-74963110D01*
X53679845Y-75193000D01*
X54873000Y-75193000D01*
X54873000Y-75173000D01*
X55127000Y-75173000D01*
X55127000Y-75193000D01*
X56320155Y-75193000D01*
X56441476Y-74963110D01*
X56396825Y-74815901D01*
X56271641Y-74553080D01*
X56097588Y-74319731D01*
X55881355Y-74124822D01*
X55764477Y-74055201D01*
X55829014Y-74020706D01*
X56055134Y-73835134D01*
X56240706Y-73609014D01*
X56378599Y-73351034D01*
X56463513Y-73071111D01*
X56492185Y-72780000D01*
X56463513Y-72488889D01*
X56378599Y-72208966D01*
X56240706Y-71950986D01*
X56055134Y-71724866D01*
X55829014Y-71539294D01*
X55774209Y-71510000D01*
X55829014Y-71480706D01*
X56055134Y-71295134D01*
X56240706Y-71069014D01*
X56378599Y-70811034D01*
X56463513Y-70531111D01*
X56492185Y-70240000D01*
X56463513Y-69948889D01*
X56378599Y-69668966D01*
X56240706Y-69410986D01*
X56055134Y-69184866D01*
X55829014Y-68999294D01*
X55774209Y-68970000D01*
X55829014Y-68940706D01*
X56055134Y-68755134D01*
X56240706Y-68529014D01*
X56378599Y-68271034D01*
X56463513Y-67991111D01*
X56492185Y-67700000D01*
X56463513Y-67408889D01*
X56378599Y-67128966D01*
X56240706Y-66870986D01*
X56055134Y-66644866D01*
X55829014Y-66459294D01*
X55774209Y-66430000D01*
X55829014Y-66400706D01*
X56055134Y-66215134D01*
X56240706Y-65989014D01*
X56378599Y-65731034D01*
X56463513Y-65451111D01*
X56492185Y-65160000D01*
X56463513Y-64868889D01*
X56378599Y-64588966D01*
X56240706Y-64330986D01*
X56055134Y-64104866D01*
X55829014Y-63919294D01*
X55774209Y-63890000D01*
X55829014Y-63860706D01*
X56055134Y-63675134D01*
X56240706Y-63449014D01*
X56378599Y-63191034D01*
X56463513Y-62911111D01*
X56492185Y-62620000D01*
X56463513Y-62328889D01*
X56378599Y-62048966D01*
X56240706Y-61790986D01*
X56055134Y-61564866D01*
X55829014Y-61379294D01*
X55774209Y-61350000D01*
X55829014Y-61320706D01*
X56055134Y-61135134D01*
X56240706Y-60909014D01*
X56378599Y-60651034D01*
X56463513Y-60371111D01*
X56492185Y-60080000D01*
X56463513Y-59788889D01*
X56378599Y-59508966D01*
X56240706Y-59250986D01*
X56055134Y-59024866D01*
X55829014Y-58839294D01*
X55774209Y-58810000D01*
X55829014Y-58780706D01*
X56055134Y-58595134D01*
X56240706Y-58369014D01*
X56378599Y-58111034D01*
X56463513Y-57831111D01*
X56492185Y-57540000D01*
X58507815Y-57540000D01*
X58536487Y-57831111D01*
X58621401Y-58111034D01*
X58759294Y-58369014D01*
X58944866Y-58595134D01*
X59170986Y-58780706D01*
X59225791Y-58810000D01*
X59170986Y-58839294D01*
X58944866Y-59024866D01*
X58759294Y-59250986D01*
X58621401Y-59508966D01*
X58536487Y-59788889D01*
X58507815Y-60080000D01*
X58536487Y-60371111D01*
X58621401Y-60651034D01*
X58759294Y-60909014D01*
X58944866Y-61135134D01*
X59170986Y-61320706D01*
X59225791Y-61350000D01*
X59170986Y-61379294D01*
X58944866Y-61564866D01*
X58759294Y-61790986D01*
X58621401Y-62048966D01*
X58536487Y-62328889D01*
X58507815Y-62620000D01*
X58536487Y-62911111D01*
X58621401Y-63191034D01*
X58759294Y-63449014D01*
X58944866Y-63675134D01*
X59170986Y-63860706D01*
X59225791Y-63890000D01*
X59170986Y-63919294D01*
X58944866Y-64104866D01*
X58759294Y-64330986D01*
X58621401Y-64588966D01*
X58536487Y-64868889D01*
X58507815Y-65160000D01*
X58536487Y-65451111D01*
X58621401Y-65731034D01*
X58759294Y-65989014D01*
X58944866Y-66215134D01*
X59170986Y-66400706D01*
X59225791Y-66430000D01*
X59170986Y-66459294D01*
X58944866Y-66644866D01*
X58759294Y-66870986D01*
X58621401Y-67128966D01*
X58536487Y-67408889D01*
X58507815Y-67700000D01*
X58536487Y-67991111D01*
X58621401Y-68271034D01*
X58759294Y-68529014D01*
X58944866Y-68755134D01*
X59170986Y-68940706D01*
X59225791Y-68970000D01*
X59170986Y-68999294D01*
X58944866Y-69184866D01*
X58759294Y-69410986D01*
X58621401Y-69668966D01*
X58536487Y-69948889D01*
X58507815Y-70240000D01*
X58536487Y-70531111D01*
X58621401Y-70811034D01*
X58759294Y-71069014D01*
X58944866Y-71295134D01*
X59170986Y-71480706D01*
X59225791Y-71510000D01*
X59170986Y-71539294D01*
X58944866Y-71724866D01*
X58759294Y-71950986D01*
X58621401Y-72208966D01*
X58536487Y-72488889D01*
X58507815Y-72780000D01*
X58536487Y-73071111D01*
X58621401Y-73351034D01*
X58759294Y-73609014D01*
X58944866Y-73835134D01*
X59170986Y-74020706D01*
X59235523Y-74055201D01*
X59118645Y-74124822D01*
X58902412Y-74319731D01*
X58728359Y-74553080D01*
X58603175Y-74815901D01*
X58558524Y-74963110D01*
X58679845Y-75193000D01*
X59873000Y-75193000D01*
X59873000Y-75173000D01*
X60127000Y-75173000D01*
X60127000Y-75193000D01*
X61320155Y-75193000D01*
X61441476Y-74963110D01*
X61396825Y-74815901D01*
X61271641Y-74553080D01*
X61097588Y-74319731D01*
X60881355Y-74124822D01*
X60764477Y-74055201D01*
X60829014Y-74020706D01*
X61055134Y-73835134D01*
X61240706Y-73609014D01*
X61378599Y-73351034D01*
X61463513Y-73071111D01*
X61492185Y-72780000D01*
X61463513Y-72488889D01*
X61378599Y-72208966D01*
X61240706Y-71950986D01*
X61055134Y-71724866D01*
X60829014Y-71539294D01*
X60774209Y-71510000D01*
X60829014Y-71480706D01*
X61055134Y-71295134D01*
X61240706Y-71069014D01*
X61378599Y-70811034D01*
X61463513Y-70531111D01*
X61492185Y-70240000D01*
X61463513Y-69948889D01*
X61378599Y-69668966D01*
X61240706Y-69410986D01*
X61055134Y-69184866D01*
X60829014Y-68999294D01*
X60774209Y-68970000D01*
X60829014Y-68940706D01*
X61055134Y-68755134D01*
X61240706Y-68529014D01*
X61378599Y-68271034D01*
X61463513Y-67991111D01*
X61492185Y-67700000D01*
X61463513Y-67408889D01*
X61378599Y-67128966D01*
X61240706Y-66870986D01*
X61055134Y-66644866D01*
X60829014Y-66459294D01*
X60774209Y-66430000D01*
X60829014Y-66400706D01*
X61055134Y-66215134D01*
X61240706Y-65989014D01*
X61378599Y-65731034D01*
X61463513Y-65451111D01*
X61492185Y-65160000D01*
X61463513Y-64868889D01*
X61378599Y-64588966D01*
X61240706Y-64330986D01*
X61055134Y-64104866D01*
X60829014Y-63919294D01*
X60774209Y-63890000D01*
X60829014Y-63860706D01*
X61055134Y-63675134D01*
X61240706Y-63449014D01*
X61378599Y-63191034D01*
X61412500Y-63079277D01*
X61515063Y-63232774D01*
X61659226Y-63376937D01*
X61828744Y-63490205D01*
X62017102Y-63568226D01*
X62217061Y-63608000D01*
X62420939Y-63608000D01*
X62620898Y-63568226D01*
X62809256Y-63490205D01*
X62978774Y-63376937D01*
X63122937Y-63232774D01*
X63236205Y-63063256D01*
X63314226Y-62874898D01*
X63354000Y-62674939D01*
X63354000Y-62471061D01*
X63314226Y-62271102D01*
X63236205Y-62082744D01*
X63122937Y-61913226D01*
X63079000Y-61869289D01*
X63079000Y-61582061D01*
X67380000Y-61582061D01*
X67380000Y-61785939D01*
X67419774Y-61985898D01*
X67497795Y-62174256D01*
X67611063Y-62343774D01*
X67655000Y-62387711D01*
X67655001Y-72156288D01*
X67611063Y-72200226D01*
X67497795Y-72369744D01*
X67419774Y-72558102D01*
X67380000Y-72758061D01*
X67380000Y-72961939D01*
X67419774Y-73161898D01*
X67497795Y-73350256D01*
X67611063Y-73519774D01*
X67755226Y-73663937D01*
X67924744Y-73777205D01*
X68113102Y-73855226D01*
X68313061Y-73895000D01*
X68516939Y-73895000D01*
X68716898Y-73855226D01*
X68905256Y-73777205D01*
X69052000Y-73679154D01*
X69052000Y-77998289D01*
X69008063Y-78042226D01*
X68894795Y-78211744D01*
X68816774Y-78400102D01*
X68777000Y-78600061D01*
X68777000Y-78803939D01*
X68816774Y-79003898D01*
X68894795Y-79192256D01*
X69008063Y-79361774D01*
X69152226Y-79505937D01*
X69321744Y-79619205D01*
X69510102Y-79697226D01*
X69710061Y-79737000D01*
X69857669Y-79737000D01*
X69832774Y-79797102D01*
X69793000Y-79997061D01*
X69793000Y-80200939D01*
X69832774Y-80400898D01*
X69910795Y-80589256D01*
X70024063Y-80758774D01*
X70168226Y-80902937D01*
X70337744Y-81016205D01*
X70526102Y-81094226D01*
X70726061Y-81134000D01*
X70929939Y-81134000D01*
X71129898Y-81094226D01*
X71318256Y-81016205D01*
X71487774Y-80902937D01*
X71631937Y-80758774D01*
X71745205Y-80589256D01*
X71823226Y-80400898D01*
X71863000Y-80200939D01*
X71863000Y-79997061D01*
X71823226Y-79797102D01*
X71745205Y-79608744D01*
X71631937Y-79439226D01*
X71588000Y-79395289D01*
X71588000Y-78334617D01*
X71615061Y-78340000D01*
X71818939Y-78340000D01*
X72018898Y-78300226D01*
X72207256Y-78222205D01*
X72376774Y-78108937D01*
X72520937Y-77964774D01*
X72634205Y-77795256D01*
X72712226Y-77606898D01*
X72752000Y-77406939D01*
X72752000Y-77315236D01*
X72907898Y-77284226D01*
X73096256Y-77206205D01*
X73116000Y-77193012D01*
X73116000Y-80284289D01*
X73072063Y-80328226D01*
X72958795Y-80497744D01*
X72880774Y-80686102D01*
X72841000Y-80886061D01*
X72841000Y-81089939D01*
X72880774Y-81289898D01*
X72958795Y-81478256D01*
X73072063Y-81647774D01*
X73216226Y-81791937D01*
X73385744Y-81905205D01*
X73574102Y-81983226D01*
X73774061Y-82023000D01*
X73977939Y-82023000D01*
X74177898Y-81983226D01*
X74366256Y-81905205D01*
X74535774Y-81791937D01*
X74679937Y-81647774D01*
X74793205Y-81478256D01*
X74871226Y-81289898D01*
X74911000Y-81089939D01*
X74911000Y-80886061D01*
X74871226Y-80686102D01*
X74793205Y-80497744D01*
X74679937Y-80328226D01*
X74636000Y-80284289D01*
X74636000Y-65427801D01*
X75333802Y-64730000D01*
X77363289Y-64730000D01*
X77407226Y-64773937D01*
X77576744Y-64887205D01*
X77765102Y-64965226D01*
X77965061Y-65005000D01*
X78168939Y-65005000D01*
X78368898Y-64965226D01*
X78557256Y-64887205D01*
X78726774Y-64773937D01*
X78870937Y-64629774D01*
X78984205Y-64460256D01*
X79062226Y-64271898D01*
X79102000Y-64071939D01*
X79102000Y-63868061D01*
X79062226Y-63668102D01*
X78984205Y-63479744D01*
X78870937Y-63310226D01*
X78726774Y-63166063D01*
X78557256Y-63052795D01*
X78368898Y-62974774D01*
X78168939Y-62935000D01*
X77965061Y-62935000D01*
X77765102Y-62974774D01*
X77576744Y-63052795D01*
X77407226Y-63166063D01*
X77363289Y-63210000D01*
X75056322Y-63210000D01*
X75018999Y-63206324D01*
X74981676Y-63210000D01*
X74981667Y-63210000D01*
X74870014Y-63220997D01*
X74726753Y-63264454D01*
X74594723Y-63335026D01*
X74564568Y-63359774D01*
X74478999Y-63429999D01*
X74455201Y-63458997D01*
X73364998Y-64549201D01*
X73336000Y-64572999D01*
X73312202Y-64601997D01*
X73312201Y-64601998D01*
X73241026Y-64688724D01*
X73170454Y-64820754D01*
X73155853Y-64868889D01*
X73131931Y-64947754D01*
X73126998Y-64964015D01*
X73112324Y-65113000D01*
X73116001Y-65150333D01*
X73116001Y-65605988D01*
X73096256Y-65592795D01*
X72907898Y-65514774D01*
X72724863Y-65478366D01*
X72752000Y-65341939D01*
X72752000Y-65138061D01*
X72712226Y-64938102D01*
X72634205Y-64749744D01*
X72537490Y-64605000D01*
X72634205Y-64460256D01*
X72712226Y-64271898D01*
X72752000Y-64071939D01*
X72752000Y-63868061D01*
X72712226Y-63668102D01*
X72634205Y-63479744D01*
X72520937Y-63310226D01*
X72477000Y-63266289D01*
X72477000Y-61121632D01*
X72558102Y-61155226D01*
X72758061Y-61195000D01*
X72961939Y-61195000D01*
X73161898Y-61155226D01*
X73350256Y-61077205D01*
X73519774Y-60963937D01*
X73663937Y-60819774D01*
X73777205Y-60650256D01*
X73855226Y-60461898D01*
X73895000Y-60261939D01*
X73895000Y-60058061D01*
X73855226Y-59858102D01*
X73777205Y-59669744D01*
X73663937Y-59500226D01*
X73620000Y-59456289D01*
X73620000Y-53817595D01*
X73689014Y-53780706D01*
X73915134Y-53595134D01*
X74100706Y-53369014D01*
X74135201Y-53304477D01*
X74204822Y-53421355D01*
X74399731Y-53637588D01*
X74633080Y-53811641D01*
X74895901Y-53936825D01*
X75043110Y-53981476D01*
X75273000Y-53860155D01*
X75273000Y-52667000D01*
X75253000Y-52667000D01*
X75253000Y-52413000D01*
X75273000Y-52413000D01*
X75273000Y-51219845D01*
X75527000Y-51219845D01*
X75527000Y-52413000D01*
X75547000Y-52413000D01*
X75547000Y-52667000D01*
X75527000Y-52667000D01*
X75527000Y-53860155D01*
X75756890Y-53981476D01*
X75904099Y-53936825D01*
X76166920Y-53811641D01*
X76400269Y-53637588D01*
X76595178Y-53421355D01*
X76664799Y-53304477D01*
X76699294Y-53369014D01*
X76884866Y-53595134D01*
X77110986Y-53780706D01*
X77180000Y-53817595D01*
X77180001Y-56662288D01*
X77136063Y-56706226D01*
X77022795Y-56875744D01*
X76944774Y-57064102D01*
X76905000Y-57264061D01*
X76905000Y-57467939D01*
X76944774Y-57667898D01*
X77022795Y-57856256D01*
X77136063Y-58025774D01*
X77280226Y-58169937D01*
X77449744Y-58283205D01*
X77638102Y-58361226D01*
X77838061Y-58401000D01*
X78041939Y-58401000D01*
X78241898Y-58361226D01*
X78430256Y-58283205D01*
X78599774Y-58169937D01*
X78743937Y-58025774D01*
X78857205Y-57856256D01*
X78935226Y-57667898D01*
X78975000Y-57467939D01*
X78975000Y-57264061D01*
X78935226Y-57064102D01*
X78857205Y-56875744D01*
X78743937Y-56706226D01*
X78700000Y-56662289D01*
X78700000Y-53817595D01*
X78769014Y-53780706D01*
X78995134Y-53595134D01*
X79180706Y-53369014D01*
X79210000Y-53314209D01*
X79239294Y-53369014D01*
X79424866Y-53595134D01*
X79650986Y-53780706D01*
X79720000Y-53817595D01*
X79720001Y-57424288D01*
X79676063Y-57468226D01*
X79562795Y-57637744D01*
X79484774Y-57826102D01*
X79445000Y-58026061D01*
X79445000Y-58229939D01*
X79484774Y-58429898D01*
X79562795Y-58618256D01*
X79676063Y-58787774D01*
X79820226Y-58931937D01*
X79989744Y-59045205D01*
X80178102Y-59123226D01*
X80378061Y-59163000D01*
X80581939Y-59163000D01*
X80781898Y-59123226D01*
X80970256Y-59045205D01*
X81139774Y-58931937D01*
X81283937Y-58787774D01*
X81397205Y-58618256D01*
X81475226Y-58429898D01*
X81515000Y-58229939D01*
X81515000Y-58026061D01*
X82366000Y-58026061D01*
X82366000Y-58229939D01*
X82405774Y-58429898D01*
X82483795Y-58618256D01*
X82597063Y-58787774D01*
X82641000Y-58831711D01*
X82641001Y-61996288D01*
X82597063Y-62040226D01*
X82483795Y-62209744D01*
X82405774Y-62398102D01*
X82366000Y-62598061D01*
X82366000Y-62801939D01*
X82405774Y-63001898D01*
X82483795Y-63190256D01*
X82597063Y-63359774D01*
X82741226Y-63503937D01*
X82910744Y-63617205D01*
X83099102Y-63695226D01*
X83299061Y-63735000D01*
X83502939Y-63735000D01*
X83702898Y-63695226D01*
X83891256Y-63617205D01*
X84060774Y-63503937D01*
X84165000Y-63399711D01*
X84165000Y-65806289D01*
X84121063Y-65850226D01*
X84007795Y-66019744D01*
X83929774Y-66208102D01*
X83890000Y-66408061D01*
X83890000Y-66611939D01*
X83929774Y-66811898D01*
X84007795Y-67000256D01*
X84121063Y-67169774D01*
X84265226Y-67313937D01*
X84434744Y-67427205D01*
X84623102Y-67505226D01*
X84823061Y-67545000D01*
X85026939Y-67545000D01*
X85226898Y-67505226D01*
X85415256Y-67427205D01*
X85584774Y-67313937D01*
X85728937Y-67169774D01*
X85842205Y-67000256D01*
X85920226Y-66811898D01*
X85960000Y-66611939D01*
X85960000Y-66408061D01*
X85928030Y-66247333D01*
X85988898Y-66235226D01*
X86177256Y-66157205D01*
X86346774Y-66043937D01*
X86490937Y-65899774D01*
X86604205Y-65730256D01*
X86682226Y-65541898D01*
X86722000Y-65341939D01*
X86722000Y-65138061D01*
X86682226Y-64938102D01*
X86604205Y-64749744D01*
X86490937Y-64580226D01*
X86447000Y-64536289D01*
X86447000Y-56545711D01*
X86490937Y-56501774D01*
X86604205Y-56332256D01*
X86682226Y-56143898D01*
X86722000Y-55943939D01*
X86722000Y-55740061D01*
X86682226Y-55540102D01*
X86604205Y-55351744D01*
X86490937Y-55182226D01*
X86346774Y-55038063D01*
X86256975Y-54978061D01*
X88970000Y-54978061D01*
X88970000Y-55181939D01*
X89009774Y-55381898D01*
X89087795Y-55570256D01*
X89201063Y-55739774D01*
X89245001Y-55783712D01*
X89245000Y-80030289D01*
X89201063Y-80074226D01*
X89087795Y-80243744D01*
X89009774Y-80432102D01*
X88970000Y-80632061D01*
X88970000Y-80835939D01*
X89009774Y-81035898D01*
X89087795Y-81224256D01*
X89201063Y-81393774D01*
X89345226Y-81537937D01*
X89514744Y-81651205D01*
X89703102Y-81729226D01*
X89903061Y-81769000D01*
X90106939Y-81769000D01*
X90306898Y-81729226D01*
X90495256Y-81651205D01*
X90664774Y-81537937D01*
X90748211Y-81454500D01*
X93799238Y-81454500D01*
X93799238Y-84474500D01*
X104128762Y-84474500D01*
X104128762Y-81454500D01*
X93799238Y-81454500D01*
X90748211Y-81454500D01*
X90808937Y-81393774D01*
X90922205Y-81224256D01*
X91000226Y-81035898D01*
X91040000Y-80835939D01*
X91040000Y-80632061D01*
X91000226Y-80432102D01*
X90922205Y-80243744D01*
X90808937Y-80074226D01*
X90765000Y-80030289D01*
X90765000Y-57540000D01*
X93507815Y-57540000D01*
X93536487Y-57831111D01*
X93621401Y-58111034D01*
X93759294Y-58369014D01*
X93944866Y-58595134D01*
X94170986Y-58780706D01*
X94225791Y-58810000D01*
X94170986Y-58839294D01*
X93944866Y-59024866D01*
X93759294Y-59250986D01*
X93621401Y-59508966D01*
X93536487Y-59788889D01*
X93507815Y-60080000D01*
X93536487Y-60371111D01*
X93621401Y-60651034D01*
X93759294Y-60909014D01*
X93944866Y-61135134D01*
X94170986Y-61320706D01*
X94225791Y-61350000D01*
X94170986Y-61379294D01*
X93944866Y-61564866D01*
X93759294Y-61790986D01*
X93621401Y-62048966D01*
X93536487Y-62328889D01*
X93507815Y-62620000D01*
X93536487Y-62911111D01*
X93621401Y-63191034D01*
X93759294Y-63449014D01*
X93944866Y-63675134D01*
X94170986Y-63860706D01*
X94225791Y-63890000D01*
X94170986Y-63919294D01*
X93944866Y-64104866D01*
X93759294Y-64330986D01*
X93621401Y-64588966D01*
X93536487Y-64868889D01*
X93507815Y-65160000D01*
X93536487Y-65451111D01*
X93621401Y-65731034D01*
X93759294Y-65989014D01*
X93944866Y-66215134D01*
X94170986Y-66400706D01*
X94225791Y-66430000D01*
X94170986Y-66459294D01*
X93944866Y-66644866D01*
X93759294Y-66870986D01*
X93621401Y-67128966D01*
X93536487Y-67408889D01*
X93507815Y-67700000D01*
X93536487Y-67991111D01*
X93621401Y-68271034D01*
X93759294Y-68529014D01*
X93944866Y-68755134D01*
X94170986Y-68940706D01*
X94225791Y-68970000D01*
X94170986Y-68999294D01*
X93944866Y-69184866D01*
X93759294Y-69410986D01*
X93621401Y-69668966D01*
X93536487Y-69948889D01*
X93507815Y-70240000D01*
X93536487Y-70531111D01*
X93621401Y-70811034D01*
X93759294Y-71069014D01*
X93944866Y-71295134D01*
X94170986Y-71480706D01*
X94225791Y-71510000D01*
X94170986Y-71539294D01*
X93944866Y-71724866D01*
X93759294Y-71950986D01*
X93621401Y-72208966D01*
X93536487Y-72488889D01*
X93507815Y-72780000D01*
X93536487Y-73071111D01*
X93621401Y-73351034D01*
X93759294Y-73609014D01*
X93944866Y-73835134D01*
X94170986Y-74020706D01*
X94225791Y-74050000D01*
X94170986Y-74079294D01*
X93944866Y-74264866D01*
X93759294Y-74490986D01*
X93621401Y-74748966D01*
X93536487Y-75028889D01*
X93507815Y-75320000D01*
X93536487Y-75611111D01*
X93621401Y-75891034D01*
X93759294Y-76149014D01*
X93944866Y-76375134D01*
X94170986Y-76560706D01*
X94428966Y-76698599D01*
X94708889Y-76783513D01*
X94927050Y-76805000D01*
X95072950Y-76805000D01*
X95291111Y-76783513D01*
X95571034Y-76698599D01*
X95829014Y-76560706D01*
X96055134Y-76375134D01*
X96240706Y-76149014D01*
X96378599Y-75891034D01*
X96463513Y-75611111D01*
X96492185Y-75320000D01*
X96463513Y-75028889D01*
X96378599Y-74748966D01*
X96240706Y-74490986D01*
X96055134Y-74264866D01*
X95829014Y-74079294D01*
X95774209Y-74050000D01*
X95829014Y-74020706D01*
X96055134Y-73835134D01*
X96240706Y-73609014D01*
X96378599Y-73351034D01*
X96463513Y-73071111D01*
X96492185Y-72780000D01*
X96463513Y-72488889D01*
X96378599Y-72208966D01*
X96240706Y-71950986D01*
X96055134Y-71724866D01*
X95829014Y-71539294D01*
X95774209Y-71510000D01*
X95829014Y-71480706D01*
X96055134Y-71295134D01*
X96240706Y-71069014D01*
X96378599Y-70811034D01*
X96463513Y-70531111D01*
X96492185Y-70240000D01*
X96463513Y-69948889D01*
X96378599Y-69668966D01*
X96240706Y-69410986D01*
X96055134Y-69184866D01*
X95829014Y-68999294D01*
X95774209Y-68970000D01*
X95829014Y-68940706D01*
X96055134Y-68755134D01*
X96240706Y-68529014D01*
X96378599Y-68271034D01*
X96463513Y-67991111D01*
X96492185Y-67700000D01*
X96463513Y-67408889D01*
X96378599Y-67128966D01*
X96240706Y-66870986D01*
X96055134Y-66644866D01*
X95829014Y-66459294D01*
X95774209Y-66430000D01*
X95829014Y-66400706D01*
X96055134Y-66215134D01*
X96240706Y-65989014D01*
X96378599Y-65731034D01*
X96463513Y-65451111D01*
X96492185Y-65160000D01*
X96463513Y-64868889D01*
X96378599Y-64588966D01*
X96240706Y-64330986D01*
X96055134Y-64104866D01*
X95829014Y-63919294D01*
X95774209Y-63890000D01*
X95829014Y-63860706D01*
X96055134Y-63675134D01*
X96240706Y-63449014D01*
X96378599Y-63191034D01*
X96463513Y-62911111D01*
X96492185Y-62620000D01*
X96463513Y-62328889D01*
X96378599Y-62048966D01*
X96240706Y-61790986D01*
X96055134Y-61564866D01*
X95829014Y-61379294D01*
X95774209Y-61350000D01*
X95829014Y-61320706D01*
X96055134Y-61135134D01*
X96240706Y-60909014D01*
X96378599Y-60651034D01*
X96463513Y-60371111D01*
X96492185Y-60080000D01*
X96463513Y-59788889D01*
X96378599Y-59508966D01*
X96240706Y-59250986D01*
X96055134Y-59024866D01*
X95829014Y-58839294D01*
X95774209Y-58810000D01*
X95829014Y-58780706D01*
X96055134Y-58595134D01*
X96240706Y-58369014D01*
X96378599Y-58111034D01*
X96463513Y-57831111D01*
X96492185Y-57540000D01*
X98507815Y-57540000D01*
X98536487Y-57831111D01*
X98621401Y-58111034D01*
X98759294Y-58369014D01*
X98944866Y-58595134D01*
X99170986Y-58780706D01*
X99225791Y-58810000D01*
X99170986Y-58839294D01*
X98944866Y-59024866D01*
X98759294Y-59250986D01*
X98621401Y-59508966D01*
X98536487Y-59788889D01*
X98507815Y-60080000D01*
X98536487Y-60371111D01*
X98621401Y-60651034D01*
X98759294Y-60909014D01*
X98944866Y-61135134D01*
X99170986Y-61320706D01*
X99225791Y-61350000D01*
X99170986Y-61379294D01*
X98944866Y-61564866D01*
X98759294Y-61790986D01*
X98621401Y-62048966D01*
X98536487Y-62328889D01*
X98507815Y-62620000D01*
X98536487Y-62911111D01*
X98621401Y-63191034D01*
X98759294Y-63449014D01*
X98944866Y-63675134D01*
X99170986Y-63860706D01*
X99225791Y-63890000D01*
X99170986Y-63919294D01*
X98944866Y-64104866D01*
X98759294Y-64330986D01*
X98621401Y-64588966D01*
X98536487Y-64868889D01*
X98507815Y-65160000D01*
X98536487Y-65451111D01*
X98621401Y-65731034D01*
X98759294Y-65989014D01*
X98944866Y-66215134D01*
X99170986Y-66400706D01*
X99225791Y-66430000D01*
X99170986Y-66459294D01*
X98944866Y-66644866D01*
X98759294Y-66870986D01*
X98621401Y-67128966D01*
X98536487Y-67408889D01*
X98507815Y-67700000D01*
X98536487Y-67991111D01*
X98621401Y-68271034D01*
X98759294Y-68529014D01*
X98944866Y-68755134D01*
X99170986Y-68940706D01*
X99225791Y-68970000D01*
X99170986Y-68999294D01*
X98944866Y-69184866D01*
X98759294Y-69410986D01*
X98621401Y-69668966D01*
X98536487Y-69948889D01*
X98507815Y-70240000D01*
X98536487Y-70531111D01*
X98621401Y-70811034D01*
X98759294Y-71069014D01*
X98944866Y-71295134D01*
X99170986Y-71480706D01*
X99225791Y-71510000D01*
X99170986Y-71539294D01*
X98944866Y-71724866D01*
X98759294Y-71950986D01*
X98621401Y-72208966D01*
X98536487Y-72488889D01*
X98507815Y-72780000D01*
X98536487Y-73071111D01*
X98621401Y-73351034D01*
X98759294Y-73609014D01*
X98944866Y-73835134D01*
X99170986Y-74020706D01*
X99225791Y-74050000D01*
X99170986Y-74079294D01*
X98944866Y-74264866D01*
X98759294Y-74490986D01*
X98621401Y-74748966D01*
X98536487Y-75028889D01*
X98507815Y-75320000D01*
X98536487Y-75611111D01*
X98621401Y-75891034D01*
X98759294Y-76149014D01*
X98944866Y-76375134D01*
X99170986Y-76560706D01*
X99428966Y-76698599D01*
X99708889Y-76783513D01*
X99927050Y-76805000D01*
X100072950Y-76805000D01*
X100291111Y-76783513D01*
X100571034Y-76698599D01*
X100829014Y-76560706D01*
X101055134Y-76375134D01*
X101240706Y-76149014D01*
X101378599Y-75891034D01*
X101463513Y-75611111D01*
X101492185Y-75320000D01*
X101463513Y-75028889D01*
X101378599Y-74748966D01*
X101240706Y-74490986D01*
X101055134Y-74264866D01*
X100829014Y-74079294D01*
X100774209Y-74050000D01*
X100829014Y-74020706D01*
X101055134Y-73835134D01*
X101240706Y-73609014D01*
X101378599Y-73351034D01*
X101463513Y-73071111D01*
X101492185Y-72780000D01*
X101463513Y-72488889D01*
X101378599Y-72208966D01*
X101240706Y-71950986D01*
X101055134Y-71724866D01*
X100829014Y-71539294D01*
X100774209Y-71510000D01*
X100829014Y-71480706D01*
X101055134Y-71295134D01*
X101240706Y-71069014D01*
X101378599Y-70811034D01*
X101463513Y-70531111D01*
X101492185Y-70240000D01*
X101463513Y-69948889D01*
X101378599Y-69668966D01*
X101240706Y-69410986D01*
X101055134Y-69184866D01*
X100829014Y-68999294D01*
X100774209Y-68970000D01*
X100829014Y-68940706D01*
X101055134Y-68755134D01*
X101240706Y-68529014D01*
X101378599Y-68271034D01*
X101463513Y-67991111D01*
X101492185Y-67700000D01*
X101463513Y-67408889D01*
X101378599Y-67128966D01*
X101240706Y-66870986D01*
X101055134Y-66644866D01*
X100829014Y-66459294D01*
X100774209Y-66430000D01*
X100829014Y-66400706D01*
X101055134Y-66215134D01*
X101240706Y-65989014D01*
X101378599Y-65731034D01*
X101463513Y-65451111D01*
X101492185Y-65160000D01*
X101463513Y-64868889D01*
X101378599Y-64588966D01*
X101240706Y-64330986D01*
X101055134Y-64104866D01*
X100829014Y-63919294D01*
X100774209Y-63890000D01*
X100829014Y-63860706D01*
X101055134Y-63675134D01*
X101240706Y-63449014D01*
X101378599Y-63191034D01*
X101463513Y-62911111D01*
X101492185Y-62620000D01*
X101463513Y-62328889D01*
X101378599Y-62048966D01*
X101240706Y-61790986D01*
X101055134Y-61564866D01*
X100829014Y-61379294D01*
X100774209Y-61350000D01*
X100829014Y-61320706D01*
X101055134Y-61135134D01*
X101240706Y-60909014D01*
X101378599Y-60651034D01*
X101463513Y-60371111D01*
X101492185Y-60080000D01*
X101463513Y-59788889D01*
X101378599Y-59508966D01*
X101240706Y-59250986D01*
X101055134Y-59024866D01*
X100829014Y-58839294D01*
X100774209Y-58810000D01*
X100829014Y-58780706D01*
X101055134Y-58595134D01*
X101240706Y-58369014D01*
X101378599Y-58111034D01*
X101463513Y-57831111D01*
X101492185Y-57540000D01*
X101463513Y-57248889D01*
X101378599Y-56968966D01*
X101240706Y-56710986D01*
X101055134Y-56484866D01*
X101025313Y-56460393D01*
X101094180Y-56439502D01*
X101204494Y-56380537D01*
X101301185Y-56301185D01*
X101380537Y-56204494D01*
X101439502Y-56094180D01*
X101475812Y-55974482D01*
X101488072Y-55850000D01*
X101488072Y-54150000D01*
X101475812Y-54025518D01*
X101439502Y-53905820D01*
X101380537Y-53795506D01*
X101301185Y-53698815D01*
X101204494Y-53619463D01*
X101094180Y-53560498D01*
X100974482Y-53524188D01*
X100850000Y-53511928D01*
X99150000Y-53511928D01*
X99025518Y-53524188D01*
X98905820Y-53560498D01*
X98795506Y-53619463D01*
X98698815Y-53698815D01*
X98619463Y-53795506D01*
X98560498Y-53905820D01*
X98524188Y-54025518D01*
X98511928Y-54150000D01*
X98511928Y-55850000D01*
X98524188Y-55974482D01*
X98560498Y-56094180D01*
X98619463Y-56204494D01*
X98698815Y-56301185D01*
X98795506Y-56380537D01*
X98905820Y-56439502D01*
X98974687Y-56460393D01*
X98944866Y-56484866D01*
X98759294Y-56710986D01*
X98621401Y-56968966D01*
X98536487Y-57248889D01*
X98507815Y-57540000D01*
X96492185Y-57540000D01*
X96463513Y-57248889D01*
X96378599Y-56968966D01*
X96240706Y-56710986D01*
X96055134Y-56484866D01*
X96025313Y-56460393D01*
X96094180Y-56439502D01*
X96204494Y-56380537D01*
X96301185Y-56301185D01*
X96380537Y-56204494D01*
X96439502Y-56094180D01*
X96475812Y-55974482D01*
X96488072Y-55850000D01*
X96488072Y-54150000D01*
X96475812Y-54025518D01*
X96439502Y-53905820D01*
X96380537Y-53795506D01*
X96301185Y-53698815D01*
X96204494Y-53619463D01*
X96094180Y-53560498D01*
X95974482Y-53524188D01*
X95850000Y-53511928D01*
X94150000Y-53511928D01*
X94025518Y-53524188D01*
X93905820Y-53560498D01*
X93795506Y-53619463D01*
X93698815Y-53698815D01*
X93619463Y-53795506D01*
X93560498Y-53905820D01*
X93524188Y-54025518D01*
X93511928Y-54150000D01*
X93511928Y-55850000D01*
X93524188Y-55974482D01*
X93560498Y-56094180D01*
X93619463Y-56204494D01*
X93698815Y-56301185D01*
X93795506Y-56380537D01*
X93905820Y-56439502D01*
X93974687Y-56460393D01*
X93944866Y-56484866D01*
X93759294Y-56710986D01*
X93621401Y-56968966D01*
X93536487Y-57248889D01*
X93507815Y-57540000D01*
X90765000Y-57540000D01*
X90765000Y-55783711D01*
X90808937Y-55739774D01*
X90922205Y-55570256D01*
X91000226Y-55381898D01*
X91040000Y-55181939D01*
X91040000Y-54978061D01*
X91000226Y-54778102D01*
X90922205Y-54589744D01*
X90808937Y-54420226D01*
X90664774Y-54276063D01*
X90495256Y-54162795D01*
X90306898Y-54084774D01*
X90106939Y-54045000D01*
X89903061Y-54045000D01*
X89703102Y-54084774D01*
X89514744Y-54162795D01*
X89345226Y-54276063D01*
X89201063Y-54420226D01*
X89087795Y-54589744D01*
X89009774Y-54778102D01*
X88970000Y-54978061D01*
X86256975Y-54978061D01*
X86177256Y-54924795D01*
X85988898Y-54846774D01*
X85836697Y-54816500D01*
X85842205Y-54808256D01*
X85920226Y-54619898D01*
X85960000Y-54419939D01*
X85960000Y-54216061D01*
X85920226Y-54016102D01*
X85842205Y-53827744D01*
X85728937Y-53658226D01*
X85584774Y-53514063D01*
X85415256Y-53400795D01*
X85226898Y-53322774D01*
X85026939Y-53283000D01*
X84823061Y-53283000D01*
X84623102Y-53322774D01*
X84434744Y-53400795D01*
X84265226Y-53514063D01*
X84121063Y-53658226D01*
X84007795Y-53827744D01*
X83929774Y-54016102D01*
X83890000Y-54216061D01*
X83890000Y-54419939D01*
X83929774Y-54619898D01*
X84007795Y-54808256D01*
X84121063Y-54977774D01*
X84165001Y-55021712D01*
X84165001Y-56331000D01*
X84061061Y-56331000D01*
X83861102Y-56370774D01*
X83672744Y-56448795D01*
X83503226Y-56562063D01*
X83359063Y-56706226D01*
X83245795Y-56875744D01*
X83167774Y-57064102D01*
X83156381Y-57121381D01*
X83099102Y-57132774D01*
X82910744Y-57210795D01*
X82741226Y-57324063D01*
X82597063Y-57468226D01*
X82483795Y-57637744D01*
X82405774Y-57826102D01*
X82366000Y-58026061D01*
X81515000Y-58026061D01*
X81475226Y-57826102D01*
X81397205Y-57637744D01*
X81283937Y-57468226D01*
X81240000Y-57424289D01*
X81240000Y-53817595D01*
X81309014Y-53780706D01*
X81535134Y-53595134D01*
X81720706Y-53369014D01*
X81858599Y-53111034D01*
X81943513Y-52831111D01*
X81972185Y-52540000D01*
X81943513Y-52248889D01*
X81858599Y-51968966D01*
X81720706Y-51710986D01*
X81535134Y-51484866D01*
X81309014Y-51299294D01*
X81051034Y-51161401D01*
X80771111Y-51076487D01*
X80552950Y-51055000D01*
X80407050Y-51055000D01*
X80188889Y-51076487D01*
X79908966Y-51161401D01*
X79650986Y-51299294D01*
X79424866Y-51484866D01*
X79239294Y-51710986D01*
X79210000Y-51765791D01*
X79180706Y-51710986D01*
X78995134Y-51484866D01*
X78769014Y-51299294D01*
X78511034Y-51161401D01*
X78231111Y-51076487D01*
X78012950Y-51055000D01*
X77867050Y-51055000D01*
X77648889Y-51076487D01*
X77368966Y-51161401D01*
X77110986Y-51299294D01*
X76884866Y-51484866D01*
X76699294Y-51710986D01*
X76664799Y-51775523D01*
X76595178Y-51658645D01*
X76400269Y-51442412D01*
X76166920Y-51268359D01*
X75904099Y-51143175D01*
X75756890Y-51098524D01*
X75527000Y-51219845D01*
X75273000Y-51219845D01*
X75043110Y-51098524D01*
X74895901Y-51143175D01*
X74633080Y-51268359D01*
X74399731Y-51442412D01*
X74204822Y-51658645D01*
X74135201Y-51775523D01*
X74100706Y-51710986D01*
X73915134Y-51484866D01*
X73689014Y-51299294D01*
X73431034Y-51161401D01*
X73151111Y-51076487D01*
X72932950Y-51055000D01*
X72787050Y-51055000D01*
X72568889Y-51076487D01*
X72288966Y-51161401D01*
X72030986Y-51299294D01*
X71804866Y-51484866D01*
X71780393Y-51514687D01*
X71759502Y-51445820D01*
X71700537Y-51335506D01*
X71621185Y-51238815D01*
X71524494Y-51159463D01*
X71414180Y-51100498D01*
X71294482Y-51064188D01*
X71170000Y-51051928D01*
X69470000Y-51051928D01*
X69345518Y-51064188D01*
X69225820Y-51100498D01*
X69115506Y-51159463D01*
X69018815Y-51238815D01*
X68939463Y-51335506D01*
X68880498Y-51445820D01*
X68844188Y-51565518D01*
X68831928Y-51690000D01*
X68831928Y-53390000D01*
X68844188Y-53514482D01*
X68880498Y-53634180D01*
X68939463Y-53744494D01*
X69018815Y-53841185D01*
X69115506Y-53920537D01*
X69225820Y-53979502D01*
X69345518Y-54015812D01*
X69470000Y-54028072D01*
X69560000Y-54028072D01*
X69560001Y-57328667D01*
X69556324Y-57366000D01*
X69560001Y-57403333D01*
X69566393Y-57468226D01*
X69570998Y-57514985D01*
X69614454Y-57658246D01*
X69685026Y-57790276D01*
X69739175Y-57856256D01*
X69780000Y-57906001D01*
X69808998Y-57929799D01*
X70957000Y-59077802D01*
X70957000Y-60400383D01*
X70929939Y-60395000D01*
X70726061Y-60395000D01*
X70526102Y-60434774D01*
X70337744Y-60512795D01*
X70168226Y-60626063D01*
X70024063Y-60770226D01*
X69910795Y-60939744D01*
X69832774Y-61128102D01*
X69793000Y-61328061D01*
X69793000Y-61531939D01*
X69819467Y-61665000D01*
X69710061Y-61665000D01*
X69510102Y-61704774D01*
X69450000Y-61729669D01*
X69450000Y-61582061D01*
X69410226Y-61382102D01*
X69332205Y-61193744D01*
X69218937Y-61024226D01*
X69074774Y-60880063D01*
X68905256Y-60766795D01*
X68716898Y-60688774D01*
X68516939Y-60649000D01*
X68313061Y-60649000D01*
X68113102Y-60688774D01*
X67924744Y-60766795D01*
X67755226Y-60880063D01*
X67611063Y-61024226D01*
X67497795Y-61193744D01*
X67419774Y-61382102D01*
X67380000Y-61582061D01*
X63079000Y-61582061D01*
X63079000Y-61068000D01*
X63182939Y-61068000D01*
X63382898Y-61028226D01*
X63571256Y-60950205D01*
X63740774Y-60836937D01*
X63884937Y-60692774D01*
X63998205Y-60523256D01*
X64076226Y-60334898D01*
X64116000Y-60134939D01*
X64116000Y-59931061D01*
X64076226Y-59731102D01*
X63998205Y-59542744D01*
X63884937Y-59373226D01*
X63841000Y-59329289D01*
X63841000Y-55021711D01*
X63884937Y-54977774D01*
X63998205Y-54808256D01*
X64076226Y-54619898D01*
X64116000Y-54419939D01*
X64116000Y-54216061D01*
X64076226Y-54016102D01*
X63998205Y-53827744D01*
X63884937Y-53658226D01*
X63740774Y-53514063D01*
X63571256Y-53400795D01*
X63382898Y-53322774D01*
X63182939Y-53283000D01*
X62979061Y-53283000D01*
X62779102Y-53322774D01*
X62590744Y-53400795D01*
X62421226Y-53514063D01*
X62277063Y-53658226D01*
X62163795Y-53827744D01*
X62085774Y-54016102D01*
X62046000Y-54216061D01*
X62046000Y-54419939D01*
X62085774Y-54619898D01*
X62163795Y-54808256D01*
X62169303Y-54816500D01*
X62017102Y-54846774D01*
X61828744Y-54924795D01*
X61659226Y-55038063D01*
X61515063Y-55182226D01*
X61488072Y-55222621D01*
X61488072Y-54150000D01*
X61475812Y-54025518D01*
X61439502Y-53905820D01*
X61380537Y-53795506D01*
X61301185Y-53698815D01*
X61204494Y-53619463D01*
X61094180Y-53560498D01*
X60974482Y-53524188D01*
X60850000Y-53511928D01*
X59150000Y-53511928D01*
X59025518Y-53524188D01*
X58905820Y-53560498D01*
X58795506Y-53619463D01*
X58698815Y-53698815D01*
X58619463Y-53795506D01*
X58560498Y-53905820D01*
X58524188Y-54025518D01*
X58511928Y-54150000D01*
X58511928Y-55850000D01*
X58524188Y-55974482D01*
X58560498Y-56094180D01*
X58619463Y-56204494D01*
X58698815Y-56301185D01*
X58795506Y-56380537D01*
X58905820Y-56439502D01*
X58974687Y-56460393D01*
X58944866Y-56484866D01*
X58759294Y-56710986D01*
X58621401Y-56968966D01*
X58536487Y-57248889D01*
X58507815Y-57540000D01*
X56492185Y-57540000D01*
X56463513Y-57248889D01*
X56378599Y-56968966D01*
X56240706Y-56710986D01*
X56055134Y-56484866D01*
X56025313Y-56460393D01*
X56094180Y-56439502D01*
X56204494Y-56380537D01*
X56301185Y-56301185D01*
X56380537Y-56204494D01*
X56439502Y-56094180D01*
X56475812Y-55974482D01*
X56488072Y-55850000D01*
X56488072Y-54150000D01*
X56475812Y-54025518D01*
X56439502Y-53905820D01*
X56380537Y-53795506D01*
X56301185Y-53698815D01*
X56204494Y-53619463D01*
X56094180Y-53560498D01*
X55974482Y-53524188D01*
X55850000Y-53511928D01*
X54150000Y-53511928D01*
X54025518Y-53524188D01*
X53905820Y-53560498D01*
X53795506Y-53619463D01*
X53698815Y-53698815D01*
X53619463Y-53795506D01*
X53560498Y-53905820D01*
X53524188Y-54025518D01*
X53511928Y-54150000D01*
X53511928Y-55850000D01*
X53524188Y-55974482D01*
X53560498Y-56094180D01*
X53619463Y-56204494D01*
X53698815Y-56301185D01*
X53795506Y-56380537D01*
X53905820Y-56439502D01*
X53974687Y-56460393D01*
X53944866Y-56484866D01*
X53759294Y-56710986D01*
X53621401Y-56968966D01*
X53536487Y-57248889D01*
X53507815Y-57540000D01*
X50710000Y-57540000D01*
X50710000Y-50710000D01*
X104290000Y-50710000D01*
X104290001Y-89290000D01*
X104290001Y-89290000D01*
G37*
X104290001Y-89290000D02*
X50710000Y-89290000D01*
X50710000Y-87477891D01*
X72360000Y-87477891D01*
X72360000Y-87790109D01*
X72420911Y-88096327D01*
X72540391Y-88384779D01*
X72713850Y-88644379D01*
X72934621Y-88865150D01*
X73194221Y-89038609D01*
X73482673Y-89158089D01*
X73788891Y-89219000D01*
X74101109Y-89219000D01*
X74407327Y-89158089D01*
X74695779Y-89038609D01*
X74955379Y-88865150D01*
X75176150Y-88644379D01*
X75215000Y-88586236D01*
X75253850Y-88644379D01*
X75474621Y-88865150D01*
X75734221Y-89038609D01*
X76022673Y-89158089D01*
X76328891Y-89219000D01*
X76641109Y-89219000D01*
X76947327Y-89158089D01*
X77235779Y-89038609D01*
X77495379Y-88865150D01*
X77716150Y-88644379D01*
X77755000Y-88586236D01*
X77793850Y-88644379D01*
X78014621Y-88865150D01*
X78274221Y-89038609D01*
X78562673Y-89158089D01*
X78868891Y-89219000D01*
X79181109Y-89219000D01*
X79487327Y-89158089D01*
X79775779Y-89038609D01*
X80035379Y-88865150D01*
X80256150Y-88644379D01*
X80295000Y-88586236D01*
X80333850Y-88644379D01*
X80554621Y-88865150D01*
X80814221Y-89038609D01*
X81102673Y-89158089D01*
X81408891Y-89219000D01*
X81721109Y-89219000D01*
X82027327Y-89158089D01*
X82315779Y-89038609D01*
X82575379Y-88865150D01*
X82796150Y-88644379D01*
X82835000Y-88586236D01*
X82873850Y-88644379D01*
X83094621Y-88865150D01*
X83354221Y-89038609D01*
X83642673Y-89158089D01*
X83948891Y-89219000D01*
X84261109Y-89219000D01*
X84567327Y-89158089D01*
X84855779Y-89038609D01*
X85115379Y-88865150D01*
X85336150Y-88644379D01*
X85375000Y-88586236D01*
X85413850Y-88644379D01*
X85634621Y-88865150D01*
X85894221Y-89038609D01*
X86182673Y-89158089D01*
X86488891Y-89219000D01*
X86801109Y-89219000D01*
X87107327Y-89158089D01*
X87395779Y-89038609D01*
X87655379Y-88865150D01*
X87786777Y-88733752D01*
X88264853Y-88733752D01*
X88354579Y-88993042D01*
X88635671Y-89128935D01*
X88937873Y-89207379D01*
X89249573Y-89225359D01*
X89558791Y-89182184D01*
X89853644Y-89079513D01*
X90015421Y-88993042D01*
X90105147Y-88733752D01*
X89185000Y-87813605D01*
X88264853Y-88733752D01*
X87786777Y-88733752D01*
X87876150Y-88644379D01*
X87964387Y-88512324D01*
X88085248Y-88554147D01*
X89005395Y-87634000D01*
X89364605Y-87634000D01*
X90284752Y-88554147D01*
X90544042Y-88464421D01*
X90679935Y-88183329D01*
X90758379Y-87881127D01*
X90776359Y-87569427D01*
X90733184Y-87260209D01*
X90630513Y-86965356D01*
X90544042Y-86803579D01*
X90284752Y-86713853D01*
X89364605Y-87634000D01*
X89005395Y-87634000D01*
X88085248Y-86713853D01*
X87964387Y-86755676D01*
X87876150Y-86623621D01*
X87786777Y-86534248D01*
X88264853Y-86534248D01*
X89185000Y-87454395D01*
X90105147Y-86534248D01*
X90015421Y-86274958D01*
X89734329Y-86139065D01*
X89432127Y-86060621D01*
X89120427Y-86042641D01*
X88811209Y-86085816D01*
X88516356Y-86188487D01*
X88354579Y-86274958D01*
X88264853Y-86534248D01*
X87786777Y-86534248D01*
X87655379Y-86402850D01*
X87395779Y-86229391D01*
X87107327Y-86109911D01*
X86801109Y-86049000D01*
X86488891Y-86049000D01*
X86182673Y-86109911D01*
X85894221Y-86229391D01*
X85634621Y-86402850D01*
X85413850Y-86623621D01*
X85375000Y-86681764D01*
X85336150Y-86623621D01*
X85115379Y-86402850D01*
X84855779Y-86229391D01*
X84567327Y-86109911D01*
X84261109Y-86049000D01*
X83948891Y-86049000D01*
X83642673Y-86109911D01*
X83354221Y-86229391D01*
X83094621Y-86402850D01*
X82873850Y-86623621D01*
X82835000Y-86681764D01*
X82796150Y-86623621D01*
X82575379Y-86402850D01*
X82315779Y-86229391D01*
X82027327Y-86109911D01*
X81721109Y-86049000D01*
X81408891Y-86049000D01*
X81102673Y-86109911D01*
X80814221Y-86229391D01*
X80554621Y-86402850D01*
X80333850Y-86623621D01*
X80295000Y-86681764D01*
X80256150Y-86623621D01*
X80035379Y-86402850D01*
X79775779Y-86229391D01*
X79487327Y-86109911D01*
X79181109Y-86049000D01*
X78868891Y-86049000D01*
X78562673Y-86109911D01*
X78274221Y-86229391D01*
X78014621Y-86402850D01*
X77793850Y-86623621D01*
X77755000Y-86681764D01*
X77716150Y-86623621D01*
X77495379Y-86402850D01*
X77235779Y-86229391D01*
X76947327Y-86109911D01*
X76641109Y-86049000D01*
X76328891Y-86049000D01*
X76022673Y-86109911D01*
X75734221Y-86229391D01*
X75474621Y-86402850D01*
X75253850Y-86623621D01*
X75215000Y-86681764D01*
X75176150Y-86623621D01*
X74955379Y-86402850D01*
X74695779Y-86229391D01*
X74407327Y-86109911D01*
X74101109Y-86049000D01*
X73788891Y-86049000D01*
X73482673Y-86109911D01*
X73194221Y-86229391D01*
X72934621Y-86402850D01*
X72713850Y-86623621D01*
X72540391Y-86883221D01*
X72420911Y-87171673D01*
X72360000Y-87477891D01*
X50710000Y-87477891D01*
X50710000Y-75676890D01*
X53558524Y-75676890D01*
X53603175Y-75824099D01*
X53728359Y-76086920D01*
X53902412Y-76320269D01*
X54118645Y-76515178D01*
X54368748Y-76664157D01*
X54643109Y-76761481D01*
X54873000Y-76640814D01*
X54873000Y-75447000D01*
X55127000Y-75447000D01*
X55127000Y-76640814D01*
X55356891Y-76761481D01*
X55631252Y-76664157D01*
X55881355Y-76515178D01*
X56097588Y-76320269D01*
X56271641Y-76086920D01*
X56396825Y-75824099D01*
X56441476Y-75676890D01*
X58558524Y-75676890D01*
X58603175Y-75824099D01*
X58728359Y-76086920D01*
X58902412Y-76320269D01*
X59118645Y-76515178D01*
X59368748Y-76664157D01*
X59643109Y-76761481D01*
X59873000Y-76640814D01*
X59873000Y-75447000D01*
X60127000Y-75447000D01*
X60127000Y-76640814D01*
X60356891Y-76761481D01*
X60631252Y-76664157D01*
X60881355Y-76515178D01*
X61097588Y-76320269D01*
X61271641Y-76086920D01*
X61396825Y-75824099D01*
X61441476Y-75676890D01*
X61320155Y-75447000D01*
X60127000Y-75447000D01*
X59873000Y-75447000D01*
X58679845Y-75447000D01*
X58558524Y-75676890D01*
X56441476Y-75676890D01*
X56320155Y-75447000D01*
X55127000Y-75447000D01*
X54873000Y-75447000D01*
X53679845Y-75447000D01*
X53558524Y-75676890D01*
X50710000Y-75676890D01*
X50710000Y-57540000D01*
X53507815Y-57540000D01*
X53536487Y-57831111D01*
X53621401Y-58111034D01*
X53759294Y-58369014D01*
X53944866Y-58595134D01*
X54170986Y-58780706D01*
X54225791Y-58810000D01*
X54170986Y-58839294D01*
X53944866Y-59024866D01*
X53759294Y-59250986D01*
X53621401Y-59508966D01*
X53536487Y-59788889D01*
X53507815Y-60080000D01*
X53536487Y-60371111D01*
X53621401Y-60651034D01*
X53759294Y-60909014D01*
X53944866Y-61135134D01*
X54170986Y-61320706D01*
X54225791Y-61350000D01*
X54170986Y-61379294D01*
X53944866Y-61564866D01*
X53759294Y-61790986D01*
X53621401Y-62048966D01*
X53536487Y-62328889D01*
X53507815Y-62620000D01*
X53536487Y-62911111D01*
X53621401Y-63191034D01*
X53759294Y-63449014D01*
X53944866Y-63675134D01*
X54170986Y-63860706D01*
X54225791Y-63890000D01*
X54170986Y-63919294D01*
X53944866Y-64104866D01*
X53759294Y-64330986D01*
X53621401Y-64588966D01*
X53536487Y-64868889D01*
X53507815Y-65160000D01*
X53536487Y-65451111D01*
X53621401Y-65731034D01*
X53759294Y-65989014D01*
X53944866Y-66215134D01*
X54170986Y-66400706D01*
X54225791Y-66430000D01*
X54170986Y-66459294D01*
X53944866Y-66644866D01*
X53759294Y-66870986D01*
X53621401Y-67128966D01*
X53536487Y-67408889D01*
X53507815Y-67700000D01*
X53536487Y-67991111D01*
X53621401Y-68271034D01*
X53759294Y-68529014D01*
X53944866Y-68755134D01*
X54170986Y-68940706D01*
X54225791Y-68970000D01*
X54170986Y-68999294D01*
X53944866Y-69184866D01*
X53759294Y-69410986D01*
X53621401Y-69668966D01*
X53536487Y-69948889D01*
X53507815Y-70240000D01*
X53536487Y-70531111D01*
X53621401Y-70811034D01*
X53759294Y-71069014D01*
X53944866Y-71295134D01*
X54170986Y-71480706D01*
X54225791Y-71510000D01*
X54170986Y-71539294D01*
X53944866Y-71724866D01*
X53759294Y-71950986D01*
X53621401Y-72208966D01*
X53536487Y-72488889D01*
X53507815Y-72780000D01*
X53536487Y-73071111D01*
X53621401Y-73351034D01*
X53759294Y-73609014D01*
X53944866Y-73835134D01*
X54170986Y-74020706D01*
X54235523Y-74055201D01*
X54118645Y-74124822D01*
X53902412Y-74319731D01*
X53728359Y-74553080D01*
X53603175Y-74815901D01*
X53558524Y-74963110D01*
X53679845Y-75193000D01*
X54873000Y-75193000D01*
X54873000Y-75173000D01*
X55127000Y-75173000D01*
X55127000Y-75193000D01*
X56320155Y-75193000D01*
X56441476Y-74963110D01*
X56396825Y-74815901D01*
X56271641Y-74553080D01*
X56097588Y-74319731D01*
X55881355Y-74124822D01*
X55764477Y-74055201D01*
X55829014Y-74020706D01*
X56055134Y-73835134D01*
X56240706Y-73609014D01*
X56378599Y-73351034D01*
X56463513Y-73071111D01*
X56492185Y-72780000D01*
X56463513Y-72488889D01*
X56378599Y-72208966D01*
X56240706Y-71950986D01*
X56055134Y-71724866D01*
X55829014Y-71539294D01*
X55774209Y-71510000D01*
X55829014Y-71480706D01*
X56055134Y-71295134D01*
X56240706Y-71069014D01*
X56378599Y-70811034D01*
X56463513Y-70531111D01*
X56492185Y-70240000D01*
X56463513Y-69948889D01*
X56378599Y-69668966D01*
X56240706Y-69410986D01*
X56055134Y-69184866D01*
X55829014Y-68999294D01*
X55774209Y-68970000D01*
X55829014Y-68940706D01*
X56055134Y-68755134D01*
X56240706Y-68529014D01*
X56378599Y-68271034D01*
X56463513Y-67991111D01*
X56492185Y-67700000D01*
X56463513Y-67408889D01*
X56378599Y-67128966D01*
X56240706Y-66870986D01*
X56055134Y-66644866D01*
X55829014Y-66459294D01*
X55774209Y-66430000D01*
X55829014Y-66400706D01*
X56055134Y-66215134D01*
X56240706Y-65989014D01*
X56378599Y-65731034D01*
X56463513Y-65451111D01*
X56492185Y-65160000D01*
X56463513Y-64868889D01*
X56378599Y-64588966D01*
X56240706Y-64330986D01*
X56055134Y-64104866D01*
X55829014Y-63919294D01*
X55774209Y-63890000D01*
X55829014Y-63860706D01*
X56055134Y-63675134D01*
X56240706Y-63449014D01*
X56378599Y-63191034D01*
X56463513Y-62911111D01*
X56492185Y-62620000D01*
X56463513Y-62328889D01*
X56378599Y-62048966D01*
X56240706Y-61790986D01*
X56055134Y-61564866D01*
X55829014Y-61379294D01*
X55774209Y-61350000D01*
X55829014Y-61320706D01*
X56055134Y-61135134D01*
X56240706Y-60909014D01*
X56378599Y-60651034D01*
X56463513Y-60371111D01*
X56492185Y-60080000D01*
X56463513Y-59788889D01*
X56378599Y-59508966D01*
X56240706Y-59250986D01*
X56055134Y-59024866D01*
X55829014Y-58839294D01*
X55774209Y-58810000D01*
X55829014Y-58780706D01*
X56055134Y-58595134D01*
X56240706Y-58369014D01*
X56378599Y-58111034D01*
X56463513Y-57831111D01*
X56492185Y-57540000D01*
X58507815Y-57540000D01*
X58536487Y-57831111D01*
X58621401Y-58111034D01*
X58759294Y-58369014D01*
X58944866Y-58595134D01*
X59170986Y-58780706D01*
X59225791Y-58810000D01*
X59170986Y-58839294D01*
X58944866Y-59024866D01*
X58759294Y-59250986D01*
X58621401Y-59508966D01*
X58536487Y-59788889D01*
X58507815Y-60080000D01*
X58536487Y-60371111D01*
X58621401Y-60651034D01*
X58759294Y-60909014D01*
X58944866Y-61135134D01*
X59170986Y-61320706D01*
X59225791Y-61350000D01*
X59170986Y-61379294D01*
X58944866Y-61564866D01*
X58759294Y-61790986D01*
X58621401Y-62048966D01*
X58536487Y-62328889D01*
X58507815Y-62620000D01*
X58536487Y-62911111D01*
X58621401Y-63191034D01*
X58759294Y-63449014D01*
X58944866Y-63675134D01*
X59170986Y-63860706D01*
X59225791Y-63890000D01*
X59170986Y-63919294D01*
X58944866Y-64104866D01*
X58759294Y-64330986D01*
X58621401Y-64588966D01*
X58536487Y-64868889D01*
X58507815Y-65160000D01*
X58536487Y-65451111D01*
X58621401Y-65731034D01*
X58759294Y-65989014D01*
X58944866Y-66215134D01*
X59170986Y-66400706D01*
X59225791Y-66430000D01*
X59170986Y-66459294D01*
X58944866Y-66644866D01*
X58759294Y-66870986D01*
X58621401Y-67128966D01*
X58536487Y-67408889D01*
X58507815Y-67700000D01*
X58536487Y-67991111D01*
X58621401Y-68271034D01*
X58759294Y-68529014D01*
X58944866Y-68755134D01*
X59170986Y-68940706D01*
X59225791Y-68970000D01*
X59170986Y-68999294D01*
X58944866Y-69184866D01*
X58759294Y-69410986D01*
X58621401Y-69668966D01*
X58536487Y-69948889D01*
X58507815Y-70240000D01*
X58536487Y-70531111D01*
X58621401Y-70811034D01*
X58759294Y-71069014D01*
X58944866Y-71295134D01*
X59170986Y-71480706D01*
X59225791Y-71510000D01*
X59170986Y-71539294D01*
X58944866Y-71724866D01*
X58759294Y-71950986D01*
X58621401Y-72208966D01*
X58536487Y-72488889D01*
X58507815Y-72780000D01*
X58536487Y-73071111D01*
X58621401Y-73351034D01*
X58759294Y-73609014D01*
X58944866Y-73835134D01*
X59170986Y-74020706D01*
X59235523Y-74055201D01*
X59118645Y-74124822D01*
X58902412Y-74319731D01*
X58728359Y-74553080D01*
X58603175Y-74815901D01*
X58558524Y-74963110D01*
X58679845Y-75193000D01*
X59873000Y-75193000D01*
X59873000Y-75173000D01*
X60127000Y-75173000D01*
X60127000Y-75193000D01*
X61320155Y-75193000D01*
X61441476Y-74963110D01*
X61396825Y-74815901D01*
X61271641Y-74553080D01*
X61097588Y-74319731D01*
X60881355Y-74124822D01*
X60764477Y-74055201D01*
X60829014Y-74020706D01*
X61055134Y-73835134D01*
X61240706Y-73609014D01*
X61378599Y-73351034D01*
X61463513Y-73071111D01*
X61492185Y-72780000D01*
X61463513Y-72488889D01*
X61378599Y-72208966D01*
X61240706Y-71950986D01*
X61055134Y-71724866D01*
X60829014Y-71539294D01*
X60774209Y-71510000D01*
X60829014Y-71480706D01*
X61055134Y-71295134D01*
X61240706Y-71069014D01*
X61378599Y-70811034D01*
X61463513Y-70531111D01*
X61492185Y-70240000D01*
X61463513Y-69948889D01*
X61378599Y-69668966D01*
X61240706Y-69410986D01*
X61055134Y-69184866D01*
X60829014Y-68999294D01*
X60774209Y-68970000D01*
X60829014Y-68940706D01*
X61055134Y-68755134D01*
X61240706Y-68529014D01*
X61378599Y-68271034D01*
X61463513Y-67991111D01*
X61492185Y-67700000D01*
X61463513Y-67408889D01*
X61378599Y-67128966D01*
X61240706Y-66870986D01*
X61055134Y-66644866D01*
X60829014Y-66459294D01*
X60774209Y-66430000D01*
X60829014Y-66400706D01*
X61055134Y-66215134D01*
X61240706Y-65989014D01*
X61378599Y-65731034D01*
X61463513Y-65451111D01*
X61492185Y-65160000D01*
X61463513Y-64868889D01*
X61378599Y-64588966D01*
X61240706Y-64330986D01*
X61055134Y-64104866D01*
X60829014Y-63919294D01*
X60774209Y-63890000D01*
X60829014Y-63860706D01*
X61055134Y-63675134D01*
X61240706Y-63449014D01*
X61378599Y-63191034D01*
X61412500Y-63079277D01*
X61515063Y-63232774D01*
X61659226Y-63376937D01*
X61828744Y-63490205D01*
X62017102Y-63568226D01*
X62217061Y-63608000D01*
X62420939Y-63608000D01*
X62620898Y-63568226D01*
X62809256Y-63490205D01*
X62978774Y-63376937D01*
X63122937Y-63232774D01*
X63236205Y-63063256D01*
X63314226Y-62874898D01*
X63354000Y-62674939D01*
X63354000Y-62471061D01*
X63314226Y-62271102D01*
X63236205Y-62082744D01*
X63122937Y-61913226D01*
X63079000Y-61869289D01*
X63079000Y-61582061D01*
X67380000Y-61582061D01*
X67380000Y-61785939D01*
X67419774Y-61985898D01*
X67497795Y-62174256D01*
X67611063Y-62343774D01*
X67655000Y-62387711D01*
X67655001Y-72156288D01*
X67611063Y-72200226D01*
X67497795Y-72369744D01*
X67419774Y-72558102D01*
X67380000Y-72758061D01*
X67380000Y-72961939D01*
X67419774Y-73161898D01*
X67497795Y-73350256D01*
X67611063Y-73519774D01*
X67755226Y-73663937D01*
X67924744Y-73777205D01*
X68113102Y-73855226D01*
X68313061Y-73895000D01*
X68516939Y-73895000D01*
X68716898Y-73855226D01*
X68905256Y-73777205D01*
X69052000Y-73679154D01*
X69052000Y-77998289D01*
X69008063Y-78042226D01*
X68894795Y-78211744D01*
X68816774Y-78400102D01*
X68777000Y-78600061D01*
X68777000Y-78803939D01*
X68816774Y-79003898D01*
X68894795Y-79192256D01*
X69008063Y-79361774D01*
X69152226Y-79505937D01*
X69321744Y-79619205D01*
X69510102Y-79697226D01*
X69710061Y-79737000D01*
X69857669Y-79737000D01*
X69832774Y-79797102D01*
X69793000Y-79997061D01*
X69793000Y-80200939D01*
X69832774Y-80400898D01*
X69910795Y-80589256D01*
X70024063Y-80758774D01*
X70168226Y-80902937D01*
X70337744Y-81016205D01*
X70526102Y-81094226D01*
X70726061Y-81134000D01*
X70929939Y-81134000D01*
X71129898Y-81094226D01*
X71318256Y-81016205D01*
X71487774Y-80902937D01*
X71631937Y-80758774D01*
X71745205Y-80589256D01*
X71823226Y-80400898D01*
X71863000Y-80200939D01*
X71863000Y-79997061D01*
X71823226Y-79797102D01*
X71745205Y-79608744D01*
X71631937Y-79439226D01*
X71588000Y-79395289D01*
X71588000Y-78334617D01*
X71615061Y-78340000D01*
X71818939Y-78340000D01*
X72018898Y-78300226D01*
X72207256Y-78222205D01*
X72376774Y-78108937D01*
X72520937Y-77964774D01*
X72634205Y-77795256D01*
X72712226Y-77606898D01*
X72752000Y-77406939D01*
X72752000Y-77315236D01*
X72907898Y-77284226D01*
X73096256Y-77206205D01*
X73116000Y-77193012D01*
X73116000Y-80284289D01*
X73072063Y-80328226D01*
X72958795Y-80497744D01*
X72880774Y-80686102D01*
X72841000Y-80886061D01*
X72841000Y-81089939D01*
X72880774Y-81289898D01*
X72958795Y-81478256D01*
X73072063Y-81647774D01*
X73216226Y-81791937D01*
X73385744Y-81905205D01*
X73574102Y-81983226D01*
X73774061Y-82023000D01*
X73977939Y-82023000D01*
X74177898Y-81983226D01*
X74366256Y-81905205D01*
X74535774Y-81791937D01*
X74679937Y-81647774D01*
X74793205Y-81478256D01*
X74871226Y-81289898D01*
X74911000Y-81089939D01*
X74911000Y-80886061D01*
X74871226Y-80686102D01*
X74793205Y-80497744D01*
X74679937Y-80328226D01*
X74636000Y-80284289D01*
X74636000Y-65427801D01*
X75333802Y-64730000D01*
X77363289Y-64730000D01*
X77407226Y-64773937D01*
X77576744Y-64887205D01*
X77765102Y-64965226D01*
X77965061Y-65005000D01*
X78168939Y-65005000D01*
X78368898Y-64965226D01*
X78557256Y-64887205D01*
X78726774Y-64773937D01*
X78870937Y-64629774D01*
X78984205Y-64460256D01*
X79062226Y-64271898D01*
X79102000Y-64071939D01*
X79102000Y-63868061D01*
X79062226Y-63668102D01*
X78984205Y-63479744D01*
X78870937Y-63310226D01*
X78726774Y-63166063D01*
X78557256Y-63052795D01*
X78368898Y-62974774D01*
X78168939Y-62935000D01*
X77965061Y-62935000D01*
X77765102Y-62974774D01*
X77576744Y-63052795D01*
X77407226Y-63166063D01*
X77363289Y-63210000D01*
X75056322Y-63210000D01*
X75018999Y-63206324D01*
X74981676Y-63210000D01*
X74981667Y-63210000D01*
X74870014Y-63220997D01*
X74726753Y-63264454D01*
X74594723Y-63335026D01*
X74564568Y-63359774D01*
X74478999Y-63429999D01*
X74455201Y-63458997D01*
X73364998Y-64549201D01*
X73336000Y-64572999D01*
X73312202Y-64601997D01*
X73312201Y-64601998D01*
X73241026Y-64688724D01*
X73170454Y-64820754D01*
X73155853Y-64868889D01*
X73131931Y-64947754D01*
X73126998Y-64964015D01*
X73112324Y-65113000D01*
X73116001Y-65150333D01*
X73116001Y-65605988D01*
X73096256Y-65592795D01*
X72907898Y-65514774D01*
X72724863Y-65478366D01*
X72752000Y-65341939D01*
X72752000Y-65138061D01*
X72712226Y-64938102D01*
X72634205Y-64749744D01*
X72537490Y-64605000D01*
X72634205Y-64460256D01*
X72712226Y-64271898D01*
X72752000Y-64071939D01*
X72752000Y-63868061D01*
X72712226Y-63668102D01*
X72634205Y-63479744D01*
X72520937Y-63310226D01*
X72477000Y-63266289D01*
X72477000Y-61121632D01*
X72558102Y-61155226D01*
X72758061Y-61195000D01*
X72961939Y-61195000D01*
X73161898Y-61155226D01*
X73350256Y-61077205D01*
X73519774Y-60963937D01*
X73663937Y-60819774D01*
X73777205Y-60650256D01*
X73855226Y-60461898D01*
X73895000Y-60261939D01*
X73895000Y-60058061D01*
X73855226Y-59858102D01*
X73777205Y-59669744D01*
X73663937Y-59500226D01*
X73620000Y-59456289D01*
X73620000Y-53817595D01*
X73689014Y-53780706D01*
X73915134Y-53595134D01*
X74100706Y-53369014D01*
X74135201Y-53304477D01*
X74204822Y-53421355D01*
X74399731Y-53637588D01*
X74633080Y-53811641D01*
X74895901Y-53936825D01*
X75043110Y-53981476D01*
X75273000Y-53860155D01*
X75273000Y-52667000D01*
X75253000Y-52667000D01*
X75253000Y-52413000D01*
X75273000Y-52413000D01*
X75273000Y-51219845D01*
X75527000Y-51219845D01*
X75527000Y-52413000D01*
X75547000Y-52413000D01*
X75547000Y-52667000D01*
X75527000Y-52667000D01*
X75527000Y-53860155D01*
X75756890Y-53981476D01*
X75904099Y-53936825D01*
X76166920Y-53811641D01*
X76400269Y-53637588D01*
X76595178Y-53421355D01*
X76664799Y-53304477D01*
X76699294Y-53369014D01*
X76884866Y-53595134D01*
X77110986Y-53780706D01*
X77180000Y-53817595D01*
X77180001Y-56662288D01*
X77136063Y-56706226D01*
X77022795Y-56875744D01*
X76944774Y-57064102D01*
X76905000Y-57264061D01*
X76905000Y-57467939D01*
X76944774Y-57667898D01*
X77022795Y-57856256D01*
X77136063Y-58025774D01*
X77280226Y-58169937D01*
X77449744Y-58283205D01*
X77638102Y-58361226D01*
X77838061Y-58401000D01*
X78041939Y-58401000D01*
X78241898Y-58361226D01*
X78430256Y-58283205D01*
X78599774Y-58169937D01*
X78743937Y-58025774D01*
X78857205Y-57856256D01*
X78935226Y-57667898D01*
X78975000Y-57467939D01*
X78975000Y-57264061D01*
X78935226Y-57064102D01*
X78857205Y-56875744D01*
X78743937Y-56706226D01*
X78700000Y-56662289D01*
X78700000Y-53817595D01*
X78769014Y-53780706D01*
X78995134Y-53595134D01*
X79180706Y-53369014D01*
X79210000Y-53314209D01*
X79239294Y-53369014D01*
X79424866Y-53595134D01*
X79650986Y-53780706D01*
X79720000Y-53817595D01*
X79720001Y-57424288D01*
X79676063Y-57468226D01*
X79562795Y-57637744D01*
X79484774Y-57826102D01*
X79445000Y-58026061D01*
X79445000Y-58229939D01*
X79484774Y-58429898D01*
X79562795Y-58618256D01*
X79676063Y-58787774D01*
X79820226Y-58931937D01*
X79989744Y-59045205D01*
X80178102Y-59123226D01*
X80378061Y-59163000D01*
X80581939Y-59163000D01*
X80781898Y-59123226D01*
X80970256Y-59045205D01*
X81139774Y-58931937D01*
X81283937Y-58787774D01*
X81397205Y-58618256D01*
X81475226Y-58429898D01*
X81515000Y-58229939D01*
X81515000Y-58026061D01*
X82366000Y-58026061D01*
X82366000Y-58229939D01*
X82405774Y-58429898D01*
X82483795Y-58618256D01*
X82597063Y-58787774D01*
X82641000Y-58831711D01*
X82641001Y-61996288D01*
X82597063Y-62040226D01*
X82483795Y-62209744D01*
X82405774Y-62398102D01*
X82366000Y-62598061D01*
X82366000Y-62801939D01*
X82405774Y-63001898D01*
X82483795Y-63190256D01*
X82597063Y-63359774D01*
X82741226Y-63503937D01*
X82910744Y-63617205D01*
X83099102Y-63695226D01*
X83299061Y-63735000D01*
X83502939Y-63735000D01*
X83702898Y-63695226D01*
X83891256Y-63617205D01*
X84060774Y-63503937D01*
X84165000Y-63399711D01*
X84165000Y-65806289D01*
X84121063Y-65850226D01*
X84007795Y-66019744D01*
X83929774Y-66208102D01*
X83890000Y-66408061D01*
X83890000Y-66611939D01*
X83929774Y-66811898D01*
X84007795Y-67000256D01*
X84121063Y-67169774D01*
X84265226Y-67313937D01*
X84434744Y-67427205D01*
X84623102Y-67505226D01*
X84823061Y-67545000D01*
X85026939Y-67545000D01*
X85226898Y-67505226D01*
X85415256Y-67427205D01*
X85584774Y-67313937D01*
X85728937Y-67169774D01*
X85842205Y-67000256D01*
X85920226Y-66811898D01*
X85960000Y-66611939D01*
X85960000Y-66408061D01*
X85928030Y-66247333D01*
X85988898Y-66235226D01*
X86177256Y-66157205D01*
X86346774Y-66043937D01*
X86490937Y-65899774D01*
X86604205Y-65730256D01*
X86682226Y-65541898D01*
X86722000Y-65341939D01*
X86722000Y-65138061D01*
X86682226Y-64938102D01*
X86604205Y-64749744D01*
X86490937Y-64580226D01*
X86447000Y-64536289D01*
X86447000Y-56545711D01*
X86490937Y-56501774D01*
X86604205Y-56332256D01*
X86682226Y-56143898D01*
X86722000Y-55943939D01*
X86722000Y-55740061D01*
X86682226Y-55540102D01*
X86604205Y-55351744D01*
X86490937Y-55182226D01*
X86346774Y-55038063D01*
X86256975Y-54978061D01*
X88970000Y-54978061D01*
X88970000Y-55181939D01*
X89009774Y-55381898D01*
X89087795Y-55570256D01*
X89201063Y-55739774D01*
X89245001Y-55783712D01*
X89245000Y-80030289D01*
X89201063Y-80074226D01*
X89087795Y-80243744D01*
X89009774Y-80432102D01*
X88970000Y-80632061D01*
X88970000Y-80835939D01*
X89009774Y-81035898D01*
X89087795Y-81224256D01*
X89201063Y-81393774D01*
X89345226Y-81537937D01*
X89514744Y-81651205D01*
X89703102Y-81729226D01*
X89903061Y-81769000D01*
X90106939Y-81769000D01*
X90306898Y-81729226D01*
X90495256Y-81651205D01*
X90664774Y-81537937D01*
X90748211Y-81454500D01*
X93799238Y-81454500D01*
X93799238Y-84474500D01*
X104128762Y-84474500D01*
X104128762Y-81454500D01*
X93799238Y-81454500D01*
X90748211Y-81454500D01*
X90808937Y-81393774D01*
X90922205Y-81224256D01*
X91000226Y-81035898D01*
X91040000Y-80835939D01*
X91040000Y-80632061D01*
X91000226Y-80432102D01*
X90922205Y-80243744D01*
X90808937Y-80074226D01*
X90765000Y-80030289D01*
X90765000Y-57540000D01*
X93507815Y-57540000D01*
X93536487Y-57831111D01*
X93621401Y-58111034D01*
X93759294Y-58369014D01*
X93944866Y-58595134D01*
X94170986Y-58780706D01*
X94225791Y-58810000D01*
X94170986Y-58839294D01*
X93944866Y-59024866D01*
X93759294Y-59250986D01*
X93621401Y-59508966D01*
X93536487Y-59788889D01*
X93507815Y-60080000D01*
X93536487Y-60371111D01*
X93621401Y-60651034D01*
X93759294Y-60909014D01*
X93944866Y-61135134D01*
X94170986Y-61320706D01*
X94225791Y-61350000D01*
X94170986Y-61379294D01*
X93944866Y-61564866D01*
X93759294Y-61790986D01*
X93621401Y-62048966D01*
X93536487Y-62328889D01*
X93507815Y-62620000D01*
X93536487Y-62911111D01*
X93621401Y-63191034D01*
X93759294Y-63449014D01*
X93944866Y-63675134D01*
X94170986Y-63860706D01*
X94225791Y-63890000D01*
X94170986Y-63919294D01*
X93944866Y-64104866D01*
X93759294Y-64330986D01*
X93621401Y-64588966D01*
X93536487Y-64868889D01*
X93507815Y-65160000D01*
X93536487Y-65451111D01*
X93621401Y-65731034D01*
X93759294Y-65989014D01*
X93944866Y-66215134D01*
X94170986Y-66400706D01*
X94225791Y-66430000D01*
X94170986Y-66459294D01*
X93944866Y-66644866D01*
X93759294Y-66870986D01*
X93621401Y-67128966D01*
X93536487Y-67408889D01*
X93507815Y-67700000D01*
X93536487Y-67991111D01*
X93621401Y-68271034D01*
X93759294Y-68529014D01*
X93944866Y-68755134D01*
X94170986Y-68940706D01*
X94225791Y-68970000D01*
X94170986Y-68999294D01*
X93944866Y-69184866D01*
X93759294Y-69410986D01*
X93621401Y-69668966D01*
X93536487Y-69948889D01*
X93507815Y-70240000D01*
X93536487Y-70531111D01*
X93621401Y-70811034D01*
X93759294Y-71069014D01*
X93944866Y-71295134D01*
X94170986Y-71480706D01*
X94225791Y-71510000D01*
X94170986Y-71539294D01*
X93944866Y-71724866D01*
X93759294Y-71950986D01*
X93621401Y-72208966D01*
X93536487Y-72488889D01*
X93507815Y-72780000D01*
X93536487Y-73071111D01*
X93621401Y-73351034D01*
X93759294Y-73609014D01*
X93944866Y-73835134D01*
X94170986Y-74020706D01*
X94225791Y-74050000D01*
X94170986Y-74079294D01*
X93944866Y-74264866D01*
X93759294Y-74490986D01*
X93621401Y-74748966D01*
X93536487Y-75028889D01*
X93507815Y-75320000D01*
X93536487Y-75611111D01*
X93621401Y-75891034D01*
X93759294Y-76149014D01*
X93944866Y-76375134D01*
X94170986Y-76560706D01*
X94428966Y-76698599D01*
X94708889Y-76783513D01*
X94927050Y-76805000D01*
X95072950Y-76805000D01*
X95291111Y-76783513D01*
X95571034Y-76698599D01*
X95829014Y-76560706D01*
X96055134Y-76375134D01*
X96240706Y-76149014D01*
X96378599Y-75891034D01*
X96463513Y-75611111D01*
X96492185Y-75320000D01*
X96463513Y-75028889D01*
X96378599Y-74748966D01*
X96240706Y-74490986D01*
X96055134Y-74264866D01*
X95829014Y-74079294D01*
X95774209Y-74050000D01*
X95829014Y-74020706D01*
X96055134Y-73835134D01*
X96240706Y-73609014D01*
X96378599Y-73351034D01*
X96463513Y-73071111D01*
X96492185Y-72780000D01*
X96463513Y-72488889D01*
X96378599Y-72208966D01*
X96240706Y-71950986D01*
X96055134Y-71724866D01*
X95829014Y-71539294D01*
X95774209Y-71510000D01*
X95829014Y-71480706D01*
X96055134Y-71295134D01*
X96240706Y-71069014D01*
X96378599Y-70811034D01*
X96463513Y-70531111D01*
X96492185Y-70240000D01*
X96463513Y-69948889D01*
X96378599Y-69668966D01*
X96240706Y-69410986D01*
X96055134Y-69184866D01*
X95829014Y-68999294D01*
X95774209Y-68970000D01*
X95829014Y-68940706D01*
X96055134Y-68755134D01*
X96240706Y-68529014D01*
X96378599Y-68271034D01*
X96463513Y-67991111D01*
X96492185Y-67700000D01*
X96463513Y-67408889D01*
X96378599Y-67128966D01*
X96240706Y-66870986D01*
X96055134Y-66644866D01*
X95829014Y-66459294D01*
X95774209Y-66430000D01*
X95829014Y-66400706D01*
X96055134Y-66215134D01*
X96240706Y-65989014D01*
X96378599Y-65731034D01*
X96463513Y-65451111D01*
X96492185Y-65160000D01*
X96463513Y-64868889D01*
X96378599Y-64588966D01*
X96240706Y-64330986D01*
X96055134Y-64104866D01*
X95829014Y-63919294D01*
X95774209Y-63890000D01*
X95829014Y-63860706D01*
X96055134Y-63675134D01*
X96240706Y-63449014D01*
X96378599Y-63191034D01*
X96463513Y-62911111D01*
X96492185Y-62620000D01*
X96463513Y-62328889D01*
X96378599Y-62048966D01*
X96240706Y-61790986D01*
X96055134Y-61564866D01*
X95829014Y-61379294D01*
X95774209Y-61350000D01*
X95829014Y-61320706D01*
X96055134Y-61135134D01*
X96240706Y-60909014D01*
X96378599Y-60651034D01*
X96463513Y-60371111D01*
X96492185Y-60080000D01*
X96463513Y-59788889D01*
X96378599Y-59508966D01*
X96240706Y-59250986D01*
X96055134Y-59024866D01*
X95829014Y-58839294D01*
X95774209Y-58810000D01*
X95829014Y-58780706D01*
X96055134Y-58595134D01*
X96240706Y-58369014D01*
X96378599Y-58111034D01*
X96463513Y-57831111D01*
X96492185Y-57540000D01*
X98507815Y-57540000D01*
X98536487Y-57831111D01*
X98621401Y-58111034D01*
X98759294Y-58369014D01*
X98944866Y-58595134D01*
X99170986Y-58780706D01*
X99225791Y-58810000D01*
X99170986Y-58839294D01*
X98944866Y-59024866D01*
X98759294Y-59250986D01*
X98621401Y-59508966D01*
X98536487Y-59788889D01*
X98507815Y-60080000D01*
X98536487Y-60371111D01*
X98621401Y-60651034D01*
X98759294Y-60909014D01*
X98944866Y-61135134D01*
X99170986Y-61320706D01*
X99225791Y-61350000D01*
X99170986Y-61379294D01*
X98944866Y-61564866D01*
X98759294Y-61790986D01*
X98621401Y-62048966D01*
X98536487Y-62328889D01*
X98507815Y-62620000D01*
X98536487Y-62911111D01*
X98621401Y-63191034D01*
X98759294Y-63449014D01*
X98944866Y-63675134D01*
X99170986Y-63860706D01*
X99225791Y-63890000D01*
X99170986Y-63919294D01*
X98944866Y-64104866D01*
X98759294Y-64330986D01*
X98621401Y-64588966D01*
X98536487Y-64868889D01*
X98507815Y-65160000D01*
X98536487Y-65451111D01*
X98621401Y-65731034D01*
X98759294Y-65989014D01*
X98944866Y-66215134D01*
X99170986Y-66400706D01*
X99225791Y-66430000D01*
X99170986Y-66459294D01*
X98944866Y-66644866D01*
X98759294Y-66870986D01*
X98621401Y-67128966D01*
X98536487Y-67408889D01*
X98507815Y-67700000D01*
X98536487Y-67991111D01*
X98621401Y-68271034D01*
X98759294Y-68529014D01*
X98944866Y-68755134D01*
X99170986Y-68940706D01*
X99225791Y-68970000D01*
X99170986Y-68999294D01*
X98944866Y-69184866D01*
X98759294Y-69410986D01*
X98621401Y-69668966D01*
X98536487Y-69948889D01*
X98507815Y-70240000D01*
X98536487Y-70531111D01*
X98621401Y-70811034D01*
X98759294Y-71069014D01*
X98944866Y-71295134D01*
X99170986Y-71480706D01*
X99225791Y-71510000D01*
X99170986Y-71539294D01*
X98944866Y-71724866D01*
X98759294Y-71950986D01*
X98621401Y-72208966D01*
X98536487Y-72488889D01*
X98507815Y-72780000D01*
X98536487Y-73071111D01*
X98621401Y-73351034D01*
X98759294Y-73609014D01*
X98944866Y-73835134D01*
X99170986Y-74020706D01*
X99225791Y-74050000D01*
X99170986Y-74079294D01*
X98944866Y-74264866D01*
X98759294Y-74490986D01*
X98621401Y-74748966D01*
X98536487Y-75028889D01*
X98507815Y-75320000D01*
X98536487Y-75611111D01*
X98621401Y-75891034D01*
X98759294Y-76149014D01*
X98944866Y-76375134D01*
X99170986Y-76560706D01*
X99428966Y-76698599D01*
X99708889Y-76783513D01*
X99927050Y-76805000D01*
X100072950Y-76805000D01*
X100291111Y-76783513D01*
X100571034Y-76698599D01*
X100829014Y-76560706D01*
X101055134Y-76375134D01*
X101240706Y-76149014D01*
X101378599Y-75891034D01*
X101463513Y-75611111D01*
X101492185Y-75320000D01*
X101463513Y-75028889D01*
X101378599Y-74748966D01*
X101240706Y-74490986D01*
X101055134Y-74264866D01*
X100829014Y-74079294D01*
X100774209Y-74050000D01*
X100829014Y-74020706D01*
X101055134Y-73835134D01*
X101240706Y-73609014D01*
X101378599Y-73351034D01*
X101463513Y-73071111D01*
X101492185Y-72780000D01*
X101463513Y-72488889D01*
X101378599Y-72208966D01*
X101240706Y-71950986D01*
X101055134Y-71724866D01*
X100829014Y-71539294D01*
X100774209Y-71510000D01*
X100829014Y-71480706D01*
X101055134Y-71295134D01*
X101240706Y-71069014D01*
X101378599Y-70811034D01*
X101463513Y-70531111D01*
X101492185Y-70240000D01*
X101463513Y-69948889D01*
X101378599Y-69668966D01*
X101240706Y-69410986D01*
X101055134Y-69184866D01*
X100829014Y-68999294D01*
X100774209Y-68970000D01*
X100829014Y-68940706D01*
X101055134Y-68755134D01*
X101240706Y-68529014D01*
X101378599Y-68271034D01*
X101463513Y-67991111D01*
X101492185Y-67700000D01*
X101463513Y-67408889D01*
X101378599Y-67128966D01*
X101240706Y-66870986D01*
X101055134Y-66644866D01*
X100829014Y-66459294D01*
X100774209Y-66430000D01*
X100829014Y-66400706D01*
X101055134Y-66215134D01*
X101240706Y-65989014D01*
X101378599Y-65731034D01*
X101463513Y-65451111D01*
X101492185Y-65160000D01*
X101463513Y-64868889D01*
X101378599Y-64588966D01*
X101240706Y-64330986D01*
X101055134Y-64104866D01*
X100829014Y-63919294D01*
X100774209Y-63890000D01*
X100829014Y-63860706D01*
X101055134Y-63675134D01*
X101240706Y-63449014D01*
X101378599Y-63191034D01*
X101463513Y-62911111D01*
X101492185Y-62620000D01*
X101463513Y-62328889D01*
X101378599Y-62048966D01*
X101240706Y-61790986D01*
X101055134Y-61564866D01*
X100829014Y-61379294D01*
X100774209Y-61350000D01*
X100829014Y-61320706D01*
X101055134Y-61135134D01*
X101240706Y-60909014D01*
X101378599Y-60651034D01*
X101463513Y-60371111D01*
X101492185Y-60080000D01*
X101463513Y-59788889D01*
X101378599Y-59508966D01*
X101240706Y-59250986D01*
X101055134Y-59024866D01*
X100829014Y-58839294D01*
X100774209Y-58810000D01*
X100829014Y-58780706D01*
X101055134Y-58595134D01*
X101240706Y-58369014D01*
X101378599Y-58111034D01*
X101463513Y-57831111D01*
X101492185Y-57540000D01*
X101463513Y-57248889D01*
X101378599Y-56968966D01*
X101240706Y-56710986D01*
X101055134Y-56484866D01*
X101025313Y-56460393D01*
X101094180Y-56439502D01*
X101204494Y-56380537D01*
X101301185Y-56301185D01*
X101380537Y-56204494D01*
X101439502Y-56094180D01*
X101475812Y-55974482D01*
X101488072Y-55850000D01*
X101488072Y-54150000D01*
X101475812Y-54025518D01*
X101439502Y-53905820D01*
X101380537Y-53795506D01*
X101301185Y-53698815D01*
X101204494Y-53619463D01*
X101094180Y-53560498D01*
X100974482Y-53524188D01*
X100850000Y-53511928D01*
X99150000Y-53511928D01*
X99025518Y-53524188D01*
X98905820Y-53560498D01*
X98795506Y-53619463D01*
X98698815Y-53698815D01*
X98619463Y-53795506D01*
X98560498Y-53905820D01*
X98524188Y-54025518D01*
X98511928Y-54150000D01*
X98511928Y-55850000D01*
X98524188Y-55974482D01*
X98560498Y-56094180D01*
X98619463Y-56204494D01*
X98698815Y-56301185D01*
X98795506Y-56380537D01*
X98905820Y-56439502D01*
X98974687Y-56460393D01*
X98944866Y-56484866D01*
X98759294Y-56710986D01*
X98621401Y-56968966D01*
X98536487Y-57248889D01*
X98507815Y-57540000D01*
X96492185Y-57540000D01*
X96463513Y-57248889D01*
X96378599Y-56968966D01*
X96240706Y-56710986D01*
X96055134Y-56484866D01*
X96025313Y-56460393D01*
X96094180Y-56439502D01*
X96204494Y-56380537D01*
X96301185Y-56301185D01*
X96380537Y-56204494D01*
X96439502Y-56094180D01*
X96475812Y-55974482D01*
X96488072Y-55850000D01*
X96488072Y-54150000D01*
X96475812Y-54025518D01*
X96439502Y-53905820D01*
X96380537Y-53795506D01*
X96301185Y-53698815D01*
X96204494Y-53619463D01*
X96094180Y-53560498D01*
X95974482Y-53524188D01*
X95850000Y-53511928D01*
X94150000Y-53511928D01*
X94025518Y-53524188D01*
X93905820Y-53560498D01*
X93795506Y-53619463D01*
X93698815Y-53698815D01*
X93619463Y-53795506D01*
X93560498Y-53905820D01*
X93524188Y-54025518D01*
X93511928Y-54150000D01*
X93511928Y-55850000D01*
X93524188Y-55974482D01*
X93560498Y-56094180D01*
X93619463Y-56204494D01*
X93698815Y-56301185D01*
X93795506Y-56380537D01*
X93905820Y-56439502D01*
X93974687Y-56460393D01*
X93944866Y-56484866D01*
X93759294Y-56710986D01*
X93621401Y-56968966D01*
X93536487Y-57248889D01*
X93507815Y-57540000D01*
X90765000Y-57540000D01*
X90765000Y-55783711D01*
X90808937Y-55739774D01*
X90922205Y-55570256D01*
X91000226Y-55381898D01*
X91040000Y-55181939D01*
X91040000Y-54978061D01*
X91000226Y-54778102D01*
X90922205Y-54589744D01*
X90808937Y-54420226D01*
X90664774Y-54276063D01*
X90495256Y-54162795D01*
X90306898Y-54084774D01*
X90106939Y-54045000D01*
X89903061Y-54045000D01*
X89703102Y-54084774D01*
X89514744Y-54162795D01*
X89345226Y-54276063D01*
X89201063Y-54420226D01*
X89087795Y-54589744D01*
X89009774Y-54778102D01*
X88970000Y-54978061D01*
X86256975Y-54978061D01*
X86177256Y-54924795D01*
X85988898Y-54846774D01*
X85836697Y-54816500D01*
X85842205Y-54808256D01*
X85920226Y-54619898D01*
X85960000Y-54419939D01*
X85960000Y-54216061D01*
X85920226Y-54016102D01*
X85842205Y-53827744D01*
X85728937Y-53658226D01*
X85584774Y-53514063D01*
X85415256Y-53400795D01*
X85226898Y-53322774D01*
X85026939Y-53283000D01*
X84823061Y-53283000D01*
X84623102Y-53322774D01*
X84434744Y-53400795D01*
X84265226Y-53514063D01*
X84121063Y-53658226D01*
X84007795Y-53827744D01*
X83929774Y-54016102D01*
X83890000Y-54216061D01*
X83890000Y-54419939D01*
X83929774Y-54619898D01*
X84007795Y-54808256D01*
X84121063Y-54977774D01*
X84165001Y-55021712D01*
X84165001Y-56331000D01*
X84061061Y-56331000D01*
X83861102Y-56370774D01*
X83672744Y-56448795D01*
X83503226Y-56562063D01*
X83359063Y-56706226D01*
X83245795Y-56875744D01*
X83167774Y-57064102D01*
X83156381Y-57121381D01*
X83099102Y-57132774D01*
X82910744Y-57210795D01*
X82741226Y-57324063D01*
X82597063Y-57468226D01*
X82483795Y-57637744D01*
X82405774Y-57826102D01*
X82366000Y-58026061D01*
X81515000Y-58026061D01*
X81475226Y-57826102D01*
X81397205Y-57637744D01*
X81283937Y-57468226D01*
X81240000Y-57424289D01*
X81240000Y-53817595D01*
X81309014Y-53780706D01*
X81535134Y-53595134D01*
X81720706Y-53369014D01*
X81858599Y-53111034D01*
X81943513Y-52831111D01*
X81972185Y-52540000D01*
X81943513Y-52248889D01*
X81858599Y-51968966D01*
X81720706Y-51710986D01*
X81535134Y-51484866D01*
X81309014Y-51299294D01*
X81051034Y-51161401D01*
X80771111Y-51076487D01*
X80552950Y-51055000D01*
X80407050Y-51055000D01*
X80188889Y-51076487D01*
X79908966Y-51161401D01*
X79650986Y-51299294D01*
X79424866Y-51484866D01*
X79239294Y-51710986D01*
X79210000Y-51765791D01*
X79180706Y-51710986D01*
X78995134Y-51484866D01*
X78769014Y-51299294D01*
X78511034Y-51161401D01*
X78231111Y-51076487D01*
X78012950Y-51055000D01*
X77867050Y-51055000D01*
X77648889Y-51076487D01*
X77368966Y-51161401D01*
X77110986Y-51299294D01*
X76884866Y-51484866D01*
X76699294Y-51710986D01*
X76664799Y-51775523D01*
X76595178Y-51658645D01*
X76400269Y-51442412D01*
X76166920Y-51268359D01*
X75904099Y-51143175D01*
X75756890Y-51098524D01*
X75527000Y-51219845D01*
X75273000Y-51219845D01*
X75043110Y-51098524D01*
X74895901Y-51143175D01*
X74633080Y-51268359D01*
X74399731Y-51442412D01*
X74204822Y-51658645D01*
X74135201Y-51775523D01*
X74100706Y-51710986D01*
X73915134Y-51484866D01*
X73689014Y-51299294D01*
X73431034Y-51161401D01*
X73151111Y-51076487D01*
X72932950Y-51055000D01*
X72787050Y-51055000D01*
X72568889Y-51076487D01*
X72288966Y-51161401D01*
X72030986Y-51299294D01*
X71804866Y-51484866D01*
X71780393Y-51514687D01*
X71759502Y-51445820D01*
X71700537Y-51335506D01*
X71621185Y-51238815D01*
X71524494Y-51159463D01*
X71414180Y-51100498D01*
X71294482Y-51064188D01*
X71170000Y-51051928D01*
X69470000Y-51051928D01*
X69345518Y-51064188D01*
X69225820Y-51100498D01*
X69115506Y-51159463D01*
X69018815Y-51238815D01*
X68939463Y-51335506D01*
X68880498Y-51445820D01*
X68844188Y-51565518D01*
X68831928Y-51690000D01*
X68831928Y-53390000D01*
X68844188Y-53514482D01*
X68880498Y-53634180D01*
X68939463Y-53744494D01*
X69018815Y-53841185D01*
X69115506Y-53920537D01*
X69225820Y-53979502D01*
X69345518Y-54015812D01*
X69470000Y-54028072D01*
X69560000Y-54028072D01*
X69560001Y-57328667D01*
X69556324Y-57366000D01*
X69560001Y-57403333D01*
X69566393Y-57468226D01*
X69570998Y-57514985D01*
X69614454Y-57658246D01*
X69685026Y-57790276D01*
X69739175Y-57856256D01*
X69780000Y-57906001D01*
X69808998Y-57929799D01*
X70957000Y-59077802D01*
X70957000Y-60400383D01*
X70929939Y-60395000D01*
X70726061Y-60395000D01*
X70526102Y-60434774D01*
X70337744Y-60512795D01*
X70168226Y-60626063D01*
X70024063Y-60770226D01*
X69910795Y-60939744D01*
X69832774Y-61128102D01*
X69793000Y-61328061D01*
X69793000Y-61531939D01*
X69819467Y-61665000D01*
X69710061Y-61665000D01*
X69510102Y-61704774D01*
X69450000Y-61729669D01*
X69450000Y-61582061D01*
X69410226Y-61382102D01*
X69332205Y-61193744D01*
X69218937Y-61024226D01*
X69074774Y-60880063D01*
X68905256Y-60766795D01*
X68716898Y-60688774D01*
X68516939Y-60649000D01*
X68313061Y-60649000D01*
X68113102Y-60688774D01*
X67924744Y-60766795D01*
X67755226Y-60880063D01*
X67611063Y-61024226D01*
X67497795Y-61193744D01*
X67419774Y-61382102D01*
X67380000Y-61582061D01*
X63079000Y-61582061D01*
X63079000Y-61068000D01*
X63182939Y-61068000D01*
X63382898Y-61028226D01*
X63571256Y-60950205D01*
X63740774Y-60836937D01*
X63884937Y-60692774D01*
X63998205Y-60523256D01*
X64076226Y-60334898D01*
X64116000Y-60134939D01*
X64116000Y-59931061D01*
X64076226Y-59731102D01*
X63998205Y-59542744D01*
X63884937Y-59373226D01*
X63841000Y-59329289D01*
X63841000Y-55021711D01*
X63884937Y-54977774D01*
X63998205Y-54808256D01*
X64076226Y-54619898D01*
X64116000Y-54419939D01*
X64116000Y-54216061D01*
X64076226Y-54016102D01*
X63998205Y-53827744D01*
X63884937Y-53658226D01*
X63740774Y-53514063D01*
X63571256Y-53400795D01*
X63382898Y-53322774D01*
X63182939Y-53283000D01*
X62979061Y-53283000D01*
X62779102Y-53322774D01*
X62590744Y-53400795D01*
X62421226Y-53514063D01*
X62277063Y-53658226D01*
X62163795Y-53827744D01*
X62085774Y-54016102D01*
X62046000Y-54216061D01*
X62046000Y-54419939D01*
X62085774Y-54619898D01*
X62163795Y-54808256D01*
X62169303Y-54816500D01*
X62017102Y-54846774D01*
X61828744Y-54924795D01*
X61659226Y-55038063D01*
X61515063Y-55182226D01*
X61488072Y-55222621D01*
X61488072Y-54150000D01*
X61475812Y-54025518D01*
X61439502Y-53905820D01*
X61380537Y-53795506D01*
X61301185Y-53698815D01*
X61204494Y-53619463D01*
X61094180Y-53560498D01*
X60974482Y-53524188D01*
X60850000Y-53511928D01*
X59150000Y-53511928D01*
X59025518Y-53524188D01*
X58905820Y-53560498D01*
X58795506Y-53619463D01*
X58698815Y-53698815D01*
X58619463Y-53795506D01*
X58560498Y-53905820D01*
X58524188Y-54025518D01*
X58511928Y-54150000D01*
X58511928Y-55850000D01*
X58524188Y-55974482D01*
X58560498Y-56094180D01*
X58619463Y-56204494D01*
X58698815Y-56301185D01*
X58795506Y-56380537D01*
X58905820Y-56439502D01*
X58974687Y-56460393D01*
X58944866Y-56484866D01*
X58759294Y-56710986D01*
X58621401Y-56968966D01*
X58536487Y-57248889D01*
X58507815Y-57540000D01*
X56492185Y-57540000D01*
X56463513Y-57248889D01*
X56378599Y-56968966D01*
X56240706Y-56710986D01*
X56055134Y-56484866D01*
X56025313Y-56460393D01*
X56094180Y-56439502D01*
X56204494Y-56380537D01*
X56301185Y-56301185D01*
X56380537Y-56204494D01*
X56439502Y-56094180D01*
X56475812Y-55974482D01*
X56488072Y-55850000D01*
X56488072Y-54150000D01*
X56475812Y-54025518D01*
X56439502Y-53905820D01*
X56380537Y-53795506D01*
X56301185Y-53698815D01*
X56204494Y-53619463D01*
X56094180Y-53560498D01*
X55974482Y-53524188D01*
X55850000Y-53511928D01*
X54150000Y-53511928D01*
X54025518Y-53524188D01*
X53905820Y-53560498D01*
X53795506Y-53619463D01*
X53698815Y-53698815D01*
X53619463Y-53795506D01*
X53560498Y-53905820D01*
X53524188Y-54025518D01*
X53511928Y-54150000D01*
X53511928Y-55850000D01*
X53524188Y-55974482D01*
X53560498Y-56094180D01*
X53619463Y-56204494D01*
X53698815Y-56301185D01*
X53795506Y-56380537D01*
X53905820Y-56439502D01*
X53974687Y-56460393D01*
X53944866Y-56484866D01*
X53759294Y-56710986D01*
X53621401Y-56968966D01*
X53536487Y-57248889D01*
X53507815Y-57540000D01*
X50710000Y-57540000D01*
X50710000Y-50710000D01*
X104290000Y-50710000D01*
X104290001Y-89290000D01*
M02*
