G04 #@! TF.GenerationSoftware,KiCad,Pcbnew,(5.1.0)-1*
G04 #@! TF.CreationDate,2019-06-23T22:19:15+02:00*
G04 #@! TF.ProjectId,USB_Tool,5553425f-546f-46f6-9c2e-6b696361645f,4*
G04 #@! TF.SameCoordinates,Original*
G04 #@! TF.FileFunction,Legend,Top*
G04 #@! TF.FilePolarity,Positive*
%FSLAX46Y46*%
G04 Gerber Fmt 4.6, Leading zero omitted, Abs format (unit mm)*
G04 Created by KiCad (PCBNEW (5.1.0)-1) date 2019-06-23 22:19:15*
%MOMM*%
%LPD*%
G04 APERTURE LIST*
%ADD10C,0.300000*%
%ADD11C,0.150000*%
%ADD12C,0.120000*%
%ADD13C,0.304800*%
G04 APERTURE END LIST*
D10*
X127301428Y-114407142D02*
X126158571Y-114407142D01*
X126730000Y-114978571D02*
X126730000Y-113835714D01*
D11*
X74582380Y-56712976D02*
X74106190Y-57046309D01*
X74582380Y-57284404D02*
X73582380Y-57284404D01*
X73582380Y-56903452D01*
X73630000Y-56808214D01*
X73677619Y-56760595D01*
X73772857Y-56712976D01*
X73915714Y-56712976D01*
X74010952Y-56760595D01*
X74058571Y-56808214D01*
X74106190Y-56903452D01*
X74106190Y-57284404D01*
X73630000Y-55760595D02*
X73582380Y-55855833D01*
X73582380Y-55998690D01*
X73630000Y-56141547D01*
X73725238Y-56236785D01*
X73820476Y-56284404D01*
X74010952Y-56332023D01*
X74153809Y-56332023D01*
X74344285Y-56284404D01*
X74439523Y-56236785D01*
X74534761Y-56141547D01*
X74582380Y-55998690D01*
X74582380Y-55903452D01*
X74534761Y-55760595D01*
X74487142Y-55712976D01*
X74153809Y-55712976D01*
X74153809Y-55903452D01*
X74058571Y-54951071D02*
X74106190Y-54808214D01*
X74153809Y-54760595D01*
X74249047Y-54712976D01*
X74391904Y-54712976D01*
X74487142Y-54760595D01*
X74534761Y-54808214D01*
X74582380Y-54903452D01*
X74582380Y-55284404D01*
X73582380Y-55284404D01*
X73582380Y-54951071D01*
X73630000Y-54855833D01*
X73677619Y-54808214D01*
X73772857Y-54760595D01*
X73868095Y-54760595D01*
X73963333Y-54808214D01*
X74010952Y-54855833D01*
X74058571Y-54951071D01*
X74058571Y-55284404D01*
X82837380Y-56808214D02*
X82837380Y-57284404D01*
X81837380Y-57284404D01*
X82313571Y-56474880D02*
X82313571Y-56141547D01*
X82837380Y-55998690D02*
X82837380Y-56474880D01*
X81837380Y-56474880D01*
X81837380Y-55998690D01*
X82837380Y-55570119D02*
X81837380Y-55570119D01*
X81837380Y-55332023D01*
X81885000Y-55189166D01*
X81980238Y-55093928D01*
X82075476Y-55046309D01*
X82265952Y-54998690D01*
X82408809Y-54998690D01*
X82599285Y-55046309D01*
X82694523Y-55093928D01*
X82789761Y-55189166D01*
X82837380Y-55332023D01*
X82837380Y-55570119D01*
X81932619Y-54617738D02*
X81885000Y-54570119D01*
X81837380Y-54474880D01*
X81837380Y-54236785D01*
X81885000Y-54141547D01*
X81932619Y-54093928D01*
X82027857Y-54046309D01*
X82123095Y-54046309D01*
X82265952Y-54093928D01*
X82837380Y-54665357D01*
X82837380Y-54046309D01*
X80297380Y-56808214D02*
X80297380Y-57284404D01*
X79297380Y-57284404D01*
X79773571Y-56474880D02*
X79773571Y-56141547D01*
X80297380Y-55998690D02*
X80297380Y-56474880D01*
X79297380Y-56474880D01*
X79297380Y-55998690D01*
X80297380Y-55570119D02*
X79297380Y-55570119D01*
X79297380Y-55332023D01*
X79345000Y-55189166D01*
X79440238Y-55093928D01*
X79535476Y-55046309D01*
X79725952Y-54998690D01*
X79868809Y-54998690D01*
X80059285Y-55046309D01*
X80154523Y-55093928D01*
X80249761Y-55189166D01*
X80297380Y-55332023D01*
X80297380Y-55570119D01*
X80297380Y-54046309D02*
X80297380Y-54617738D01*
X80297380Y-54332023D02*
X79297380Y-54332023D01*
X79440238Y-54427261D01*
X79535476Y-54522500D01*
X79583095Y-54617738D01*
X77757380Y-56808214D02*
X77757380Y-57284404D01*
X76757380Y-57284404D01*
X77233571Y-56474880D02*
X77233571Y-56141547D01*
X77757380Y-55998690D02*
X77757380Y-56474880D01*
X76757380Y-56474880D01*
X76757380Y-55998690D01*
X77757380Y-55570119D02*
X76757380Y-55570119D01*
X76757380Y-55332023D01*
X76805000Y-55189166D01*
X76900238Y-55093928D01*
X76995476Y-55046309D01*
X77185952Y-54998690D01*
X77328809Y-54998690D01*
X77519285Y-55046309D01*
X77614523Y-55093928D01*
X77709761Y-55189166D01*
X77757380Y-55332023D01*
X77757380Y-55570119D01*
X76757380Y-54379642D02*
X76757380Y-54284404D01*
X76805000Y-54189166D01*
X76852619Y-54141547D01*
X76947857Y-54093928D01*
X77138333Y-54046309D01*
X77376428Y-54046309D01*
X77566904Y-54093928D01*
X77662142Y-54141547D01*
X77709761Y-54189166D01*
X77757380Y-54284404D01*
X77757380Y-54379642D01*
X77709761Y-54474880D01*
X77662142Y-54522500D01*
X77566904Y-54570119D01*
X77376428Y-54617738D01*
X77138333Y-54617738D01*
X76947857Y-54570119D01*
X76852619Y-54522500D01*
X76805000Y-54474880D01*
X76757380Y-54379642D01*
X70248571Y-57284404D02*
X70248571Y-56951071D01*
X70772380Y-56808214D02*
X70772380Y-57284404D01*
X69772380Y-57284404D01*
X69772380Y-56808214D01*
X69772380Y-56474880D02*
X70772380Y-55808214D01*
X69772380Y-55808214D02*
X70772380Y-56474880D01*
X69772380Y-55570119D02*
X69772380Y-54998690D01*
X70772380Y-55284404D02*
X69772380Y-55284404D01*
X69867619Y-54712976D02*
X69820000Y-54665357D01*
X69772380Y-54570119D01*
X69772380Y-54332023D01*
X69820000Y-54236785D01*
X69867619Y-54189166D01*
X69962857Y-54141547D01*
X70058095Y-54141547D01*
X70200952Y-54189166D01*
X70772380Y-54760595D01*
X70772380Y-54141547D01*
X67708571Y-57284404D02*
X67708571Y-56951071D01*
X68232380Y-56808214D02*
X68232380Y-57284404D01*
X67232380Y-57284404D01*
X67232380Y-56808214D01*
X67232380Y-56474880D02*
X68232380Y-55808214D01*
X67232380Y-55808214D02*
X68232380Y-56474880D01*
X67232380Y-55570119D02*
X67232380Y-54998690D01*
X68232380Y-55284404D02*
X67232380Y-55284404D01*
X68232380Y-54141547D02*
X68232380Y-54712976D01*
X68232380Y-54427261D02*
X67232380Y-54427261D01*
X67375238Y-54522500D01*
X67470476Y-54617738D01*
X67518095Y-54712976D01*
X64692380Y-57379642D02*
X64692380Y-56760595D01*
X65073333Y-57093928D01*
X65073333Y-56951071D01*
X65120952Y-56855833D01*
X65168571Y-56808214D01*
X65263809Y-56760595D01*
X65501904Y-56760595D01*
X65597142Y-56808214D01*
X65644761Y-56855833D01*
X65692380Y-56951071D01*
X65692380Y-57236785D01*
X65644761Y-57332023D01*
X65597142Y-57379642D01*
X64692380Y-56474880D02*
X65692380Y-56141547D01*
X64692380Y-55808214D01*
X64692380Y-55570119D02*
X64692380Y-54951071D01*
X65073333Y-55284404D01*
X65073333Y-55141547D01*
X65120952Y-55046309D01*
X65168571Y-54998690D01*
X65263809Y-54951071D01*
X65501904Y-54951071D01*
X65597142Y-54998690D01*
X65644761Y-55046309D01*
X65692380Y-55141547D01*
X65692380Y-55427261D01*
X65644761Y-55522500D01*
X65597142Y-55570119D01*
X62152380Y-56808214D02*
X62152380Y-57284404D01*
X62628571Y-57332023D01*
X62580952Y-57284404D01*
X62533333Y-57189166D01*
X62533333Y-56951071D01*
X62580952Y-56855833D01*
X62628571Y-56808214D01*
X62723809Y-56760595D01*
X62961904Y-56760595D01*
X63057142Y-56808214D01*
X63104761Y-56855833D01*
X63152380Y-56951071D01*
X63152380Y-57189166D01*
X63104761Y-57284404D01*
X63057142Y-57332023D01*
X62152380Y-56474880D02*
X63152380Y-56141547D01*
X62152380Y-55808214D01*
D10*
X70636428Y-74938571D02*
X70922142Y-74938571D01*
X71065000Y-75010000D01*
X71207857Y-75152857D01*
X71279285Y-75438571D01*
X71279285Y-75938571D01*
X71207857Y-76224285D01*
X71065000Y-76367142D01*
X70922142Y-76438571D01*
X70636428Y-76438571D01*
X70493571Y-76367142D01*
X70350714Y-76224285D01*
X70279285Y-75938571D01*
X70279285Y-75438571D01*
X70350714Y-75152857D01*
X70493571Y-75010000D01*
X70636428Y-74938571D01*
X72422142Y-75652857D02*
X71922142Y-75652857D01*
X71922142Y-76438571D02*
X71922142Y-74938571D01*
X72636428Y-74938571D01*
X73707857Y-75652857D02*
X73207857Y-75652857D01*
X73207857Y-76438571D02*
X73207857Y-74938571D01*
X73922142Y-74938571D01*
X64786428Y-74938571D02*
X65072142Y-74938571D01*
X65215000Y-75010000D01*
X65357857Y-75152857D01*
X65429285Y-75438571D01*
X65429285Y-75938571D01*
X65357857Y-76224285D01*
X65215000Y-76367142D01*
X65072142Y-76438571D01*
X64786428Y-76438571D01*
X64643571Y-76367142D01*
X64500714Y-76224285D01*
X64429285Y-75938571D01*
X64429285Y-75438571D01*
X64500714Y-75152857D01*
X64643571Y-75010000D01*
X64786428Y-74938571D01*
X66072142Y-76438571D02*
X66072142Y-74938571D01*
X66929285Y-76438571D01*
X66929285Y-74938571D01*
X132285714Y-66628571D02*
X132285714Y-67842857D01*
X132357142Y-67985714D01*
X132428571Y-68057142D01*
X132571428Y-68128571D01*
X132857142Y-68128571D01*
X133000000Y-68057142D01*
X133071428Y-67985714D01*
X133142857Y-67842857D01*
X133142857Y-66628571D01*
X133785714Y-68057142D02*
X134000000Y-68128571D01*
X134357142Y-68128571D01*
X134500000Y-68057142D01*
X134571428Y-67985714D01*
X134642857Y-67842857D01*
X134642857Y-67700000D01*
X134571428Y-67557142D01*
X134500000Y-67485714D01*
X134357142Y-67414285D01*
X134071428Y-67342857D01*
X133928571Y-67271428D01*
X133857142Y-67200000D01*
X133785714Y-67057142D01*
X133785714Y-66914285D01*
X133857142Y-66771428D01*
X133928571Y-66700000D01*
X134071428Y-66628571D01*
X134428571Y-66628571D01*
X134642857Y-66700000D01*
X135785714Y-67342857D02*
X136000000Y-67414285D01*
X136071428Y-67485714D01*
X136142857Y-67628571D01*
X136142857Y-67842857D01*
X136071428Y-67985714D01*
X136000000Y-68057142D01*
X135857142Y-68128571D01*
X135285714Y-68128571D01*
X135285714Y-66628571D01*
X135785714Y-66628571D01*
X135928571Y-66700000D01*
X136000000Y-66771428D01*
X136071428Y-66914285D01*
X136071428Y-67057142D01*
X136000000Y-67200000D01*
X135928571Y-67271428D01*
X135785714Y-67342857D01*
X135285714Y-67342857D01*
X136428571Y-68271428D02*
X137571428Y-68271428D01*
X137714285Y-66628571D02*
X138571428Y-66628571D01*
X138142857Y-68128571D02*
X138142857Y-66628571D01*
X139357142Y-66628571D02*
X139642857Y-66628571D01*
X139785714Y-66700000D01*
X139928571Y-66842857D01*
X140000000Y-67128571D01*
X140000000Y-67628571D01*
X139928571Y-67914285D01*
X139785714Y-68057142D01*
X139642857Y-68128571D01*
X139357142Y-68128571D01*
X139214285Y-68057142D01*
X139071428Y-67914285D01*
X139000000Y-67628571D01*
X139000000Y-67128571D01*
X139071428Y-66842857D01*
X139214285Y-66700000D01*
X139357142Y-66628571D01*
X140928571Y-66628571D02*
X141214285Y-66628571D01*
X141357142Y-66700000D01*
X141500000Y-66842857D01*
X141571428Y-67128571D01*
X141571428Y-67628571D01*
X141500000Y-67914285D01*
X141357142Y-68057142D01*
X141214285Y-68128571D01*
X140928571Y-68128571D01*
X140785714Y-68057142D01*
X140642857Y-67914285D01*
X140571428Y-67628571D01*
X140571428Y-67128571D01*
X140642857Y-66842857D01*
X140785714Y-66700000D01*
X140928571Y-66628571D01*
X142928571Y-68128571D02*
X142214285Y-68128571D01*
X142214285Y-66628571D01*
X130928571Y-69321428D02*
X131000000Y-69250000D01*
X131142857Y-69178571D01*
X131500000Y-69178571D01*
X131642857Y-69250000D01*
X131714285Y-69321428D01*
X131785714Y-69464285D01*
X131785714Y-69607142D01*
X131714285Y-69821428D01*
X130857142Y-70678571D01*
X131785714Y-70678571D01*
X132285714Y-69178571D02*
X133214285Y-69178571D01*
X132714285Y-69750000D01*
X132928571Y-69750000D01*
X133071428Y-69821428D01*
X133142857Y-69892857D01*
X133214285Y-70035714D01*
X133214285Y-70392857D01*
X133142857Y-70535714D01*
X133071428Y-70607142D01*
X132928571Y-70678571D01*
X132500000Y-70678571D01*
X132357142Y-70607142D01*
X132285714Y-70535714D01*
X133857142Y-70535714D02*
X133928571Y-70607142D01*
X133857142Y-70678571D01*
X133785714Y-70607142D01*
X133857142Y-70535714D01*
X133857142Y-70678571D01*
X134857142Y-69178571D02*
X135000000Y-69178571D01*
X135142857Y-69250000D01*
X135214285Y-69321428D01*
X135285714Y-69464285D01*
X135357142Y-69750000D01*
X135357142Y-70107142D01*
X135285714Y-70392857D01*
X135214285Y-70535714D01*
X135142857Y-70607142D01*
X135000000Y-70678571D01*
X134857142Y-70678571D01*
X134714285Y-70607142D01*
X134642857Y-70535714D01*
X134571428Y-70392857D01*
X134500000Y-70107142D01*
X134500000Y-69750000D01*
X134571428Y-69464285D01*
X134642857Y-69321428D01*
X134714285Y-69250000D01*
X134857142Y-69178571D01*
X136642857Y-69178571D02*
X136357142Y-69178571D01*
X136214285Y-69250000D01*
X136142857Y-69321428D01*
X136000000Y-69535714D01*
X135928571Y-69821428D01*
X135928571Y-70392857D01*
X136000000Y-70535714D01*
X136071428Y-70607142D01*
X136214285Y-70678571D01*
X136500000Y-70678571D01*
X136642857Y-70607142D01*
X136714285Y-70535714D01*
X136785714Y-70392857D01*
X136785714Y-70035714D01*
X136714285Y-69892857D01*
X136642857Y-69821428D01*
X136500000Y-69750000D01*
X136214285Y-69750000D01*
X136071428Y-69821428D01*
X136000000Y-69892857D01*
X135928571Y-70035714D01*
X137428571Y-70535714D02*
X137500000Y-70607142D01*
X137428571Y-70678571D01*
X137357142Y-70607142D01*
X137428571Y-70535714D01*
X137428571Y-70678571D01*
X138928571Y-70678571D02*
X138071428Y-70678571D01*
X138500000Y-70678571D02*
X138500000Y-69178571D01*
X138357142Y-69392857D01*
X138214285Y-69535714D01*
X138071428Y-69607142D01*
X139642857Y-70678571D02*
X139928571Y-70678571D01*
X140071428Y-70607142D01*
X140142857Y-70535714D01*
X140285714Y-70321428D01*
X140357142Y-70035714D01*
X140357142Y-69464285D01*
X140285714Y-69321428D01*
X140214285Y-69250000D01*
X140071428Y-69178571D01*
X139785714Y-69178571D01*
X139642857Y-69250000D01*
X139571428Y-69321428D01*
X139500000Y-69464285D01*
X139500000Y-69821428D01*
X139571428Y-69964285D01*
X139642857Y-70035714D01*
X139785714Y-70107142D01*
X140071428Y-70107142D01*
X140214285Y-70035714D01*
X140285714Y-69964285D01*
X140357142Y-69821428D01*
X142000000Y-69678571D02*
X142357142Y-70678571D01*
X142714285Y-69678571D01*
X143928571Y-69678571D02*
X143928571Y-70678571D01*
X143571428Y-69107142D02*
X143214285Y-70178571D01*
X144142857Y-70178571D01*
X132928571Y-72442857D02*
X133428571Y-72442857D01*
X133642857Y-73228571D02*
X132928571Y-73228571D01*
X132928571Y-71728571D01*
X133642857Y-71728571D01*
X134214285Y-73157142D02*
X134357142Y-73228571D01*
X134642857Y-73228571D01*
X134785714Y-73157142D01*
X134857142Y-73014285D01*
X134857142Y-72942857D01*
X134785714Y-72800000D01*
X134642857Y-72728571D01*
X134428571Y-72728571D01*
X134285714Y-72657142D01*
X134214285Y-72514285D01*
X134214285Y-72442857D01*
X134285714Y-72300000D01*
X134428571Y-72228571D01*
X134642857Y-72228571D01*
X134785714Y-72300000D01*
X135428571Y-73157142D02*
X135571428Y-73228571D01*
X135857142Y-73228571D01*
X136000000Y-73157142D01*
X136071428Y-73014285D01*
X136071428Y-72942857D01*
X136000000Y-72800000D01*
X135857142Y-72728571D01*
X135642857Y-72728571D01*
X135500000Y-72657142D01*
X135428571Y-72514285D01*
X135428571Y-72442857D01*
X135500000Y-72300000D01*
X135642857Y-72228571D01*
X135857142Y-72228571D01*
X136000000Y-72300000D01*
X137285714Y-73157142D02*
X137142857Y-73228571D01*
X136857142Y-73228571D01*
X136714285Y-73157142D01*
X136642857Y-73014285D01*
X136642857Y-72442857D01*
X136714285Y-72300000D01*
X136857142Y-72228571D01*
X137142857Y-72228571D01*
X137285714Y-72300000D01*
X137357142Y-72442857D01*
X137357142Y-72585714D01*
X136642857Y-72728571D01*
X138000000Y-73228571D02*
X138000000Y-72228571D01*
X138000000Y-71728571D02*
X137928571Y-71800000D01*
X138000000Y-71871428D01*
X138071428Y-71800000D01*
X138000000Y-71728571D01*
X138000000Y-71871428D01*
X138571428Y-72228571D02*
X138928571Y-73228571D01*
X139285714Y-72228571D01*
X140500000Y-73228571D02*
X140500000Y-72442857D01*
X140428571Y-72300000D01*
X140285714Y-72228571D01*
X140000000Y-72228571D01*
X139857142Y-72300000D01*
X140500000Y-73157142D02*
X140357142Y-73228571D01*
X140000000Y-73228571D01*
X139857142Y-73157142D01*
X139785714Y-73014285D01*
X139785714Y-72871428D01*
X139857142Y-72728571D01*
X140000000Y-72657142D01*
X140357142Y-72657142D01*
X140500000Y-72585714D01*
X141214285Y-73228571D02*
X141214285Y-71728571D01*
X142071428Y-73228571D01*
X142071428Y-71728571D01*
D12*
X51210000Y-116100000D02*
X53870000Y-116100000D01*
X51210000Y-105880000D02*
X51210000Y-116100000D01*
X53870000Y-105880000D02*
X53870000Y-116100000D01*
X51210000Y-105880000D02*
X53870000Y-105880000D01*
X51210000Y-104610000D02*
X51210000Y-103280000D01*
X51210000Y-103280000D02*
X52540000Y-103280000D01*
D11*
X84252000Y-133820000D02*
X97968000Y-133820000D01*
X66140000Y-59430000D02*
X66140000Y-61780000D01*
X64340000Y-59430000D02*
X64340000Y-61730000D01*
X64340000Y-61330000D02*
X64340000Y-61380000D01*
X66140000Y-59430000D02*
X64340000Y-59430000D01*
X63600000Y-59430000D02*
X63600000Y-61780000D01*
X61800000Y-59430000D02*
X61800000Y-61730000D01*
X61800000Y-61330000D02*
X61800000Y-61380000D01*
X63600000Y-59430000D02*
X61800000Y-59430000D01*
D12*
X79710000Y-75820000D02*
X78710000Y-75820000D01*
X78710000Y-77520000D02*
X79710000Y-77520000D01*
X55580000Y-93225000D02*
X54580000Y-93225000D01*
X54580000Y-91865000D02*
X55580000Y-91865000D01*
X106560000Y-90140000D02*
X106560000Y-91140000D01*
X105200000Y-91140000D02*
X105200000Y-90140000D01*
X109100000Y-90140000D02*
X109100000Y-91140000D01*
X107740000Y-91140000D02*
X107740000Y-90140000D01*
X80110000Y-78870000D02*
X77660000Y-78870000D01*
X78310000Y-82090000D02*
X80110000Y-82090000D01*
X77170000Y-102750000D02*
X76170000Y-102750000D01*
X76170000Y-101390000D02*
X77170000Y-101390000D01*
D11*
X71730000Y-59830000D02*
X72330000Y-59830000D01*
X71730000Y-62430000D02*
X71730000Y-59830000D01*
X71730000Y-62430000D02*
X72330000Y-63030000D01*
X75930000Y-59830000D02*
X75930000Y-63030000D01*
X72330000Y-63030000D02*
X72330000Y-59830000D01*
D12*
X78710000Y-84505000D02*
X79710000Y-84505000D01*
X79710000Y-82805000D02*
X78710000Y-82805000D01*
X54580000Y-90855000D02*
X55580000Y-90855000D01*
X55580000Y-89155000D02*
X54580000Y-89155000D01*
D11*
X99625000Y-101975000D02*
X100292000Y-101308000D01*
X99625000Y-101975000D02*
X99050000Y-101975000D01*
X99625000Y-101975000D02*
X99625000Y-102650000D01*
D12*
X66764000Y-62430000D02*
X66764000Y-58636000D01*
X68796000Y-58636000D02*
X68796000Y-62430000D01*
X68796000Y-58636000D02*
X66764000Y-58636000D01*
X68050000Y-94200000D02*
X70050000Y-94200000D01*
X70050000Y-92160000D02*
X68050000Y-92160000D01*
X75615000Y-144480000D02*
X75615000Y-143480000D01*
X73915000Y-143480000D02*
X73915000Y-144480000D01*
D11*
X78205000Y-59430000D02*
X78205000Y-61780000D01*
X76405000Y-59430000D02*
X76405000Y-61730000D01*
X76405000Y-61330000D02*
X76405000Y-61380000D01*
X78205000Y-59430000D02*
X76405000Y-59430000D01*
X71220000Y-59430000D02*
X71220000Y-61780000D01*
X69420000Y-59430000D02*
X69420000Y-61730000D01*
X69420000Y-61330000D02*
X69420000Y-61380000D01*
X71220000Y-59430000D02*
X69420000Y-59430000D01*
X80745000Y-59430000D02*
X80745000Y-61780000D01*
X78945000Y-59430000D02*
X78945000Y-61730000D01*
X78945000Y-61330000D02*
X78945000Y-61380000D01*
X80745000Y-59430000D02*
X78945000Y-59430000D01*
D12*
X81369000Y-62430000D02*
X81369000Y-58636000D01*
X83401000Y-58636000D02*
X83401000Y-62430000D01*
X83401000Y-58636000D02*
X81369000Y-58636000D01*
D11*
X71375000Y-90725000D02*
X71375000Y-90600000D01*
X66725000Y-90725000D02*
X66725000Y-90500000D01*
X66725000Y-85475000D02*
X66725000Y-85700000D01*
X71375000Y-85475000D02*
X71375000Y-85700000D01*
X71375000Y-90725000D02*
X66725000Y-90725000D01*
X71375000Y-85475000D02*
X66725000Y-85475000D01*
X71375000Y-90600000D02*
X72725000Y-90600000D01*
D12*
X125400000Y-135630000D02*
X125400000Y-134300000D01*
X126730000Y-135630000D02*
X125400000Y-135630000D01*
X128000000Y-135630000D02*
X128000000Y-132970000D01*
X128000000Y-132970000D02*
X148380000Y-132970000D01*
X128000000Y-135630000D02*
X148380000Y-135630000D01*
X148380000Y-135630000D02*
X148380000Y-132970000D01*
X148380000Y-95630000D02*
X148380000Y-92970000D01*
X128000000Y-95630000D02*
X148380000Y-95630000D01*
X128000000Y-92970000D02*
X148380000Y-92970000D01*
X128000000Y-95630000D02*
X128000000Y-92970000D01*
X126730000Y-95630000D02*
X125400000Y-95630000D01*
X125400000Y-95630000D02*
X125400000Y-94300000D01*
X107920000Y-81070000D02*
X108920000Y-81070000D01*
X108920000Y-82430000D02*
X107920000Y-82430000D01*
X108920000Y-79890000D02*
X107920000Y-79890000D01*
X107920000Y-78530000D02*
X108920000Y-78530000D01*
X107920000Y-75990000D02*
X108920000Y-75990000D01*
X108920000Y-77350000D02*
X107920000Y-77350000D01*
D11*
X51714285Y-101452380D02*
X52380952Y-102452380D01*
X52380952Y-101452380D02*
X51714285Y-102452380D01*
X53285714Y-102452380D02*
X52714285Y-102452380D01*
X53000000Y-102452380D02*
X53000000Y-101452380D01*
X52904761Y-101595238D01*
X52809523Y-101690476D01*
X52714285Y-101738095D01*
X53666666Y-101547619D02*
X53714285Y-101500000D01*
X53809523Y-101452380D01*
X54047619Y-101452380D01*
X54142857Y-101500000D01*
X54190476Y-101547619D01*
X54238095Y-101642857D01*
X54238095Y-101738095D01*
X54190476Y-101880952D01*
X53619047Y-102452380D01*
X54238095Y-102452380D01*
X119040476Y-51452380D02*
X119707142Y-52452380D01*
X119707142Y-51452380D02*
X119040476Y-52452380D01*
X119992857Y-51452380D02*
X120611904Y-51452380D01*
X120278571Y-51833333D01*
X120421428Y-51833333D01*
X120516666Y-51880952D01*
X120564285Y-51928571D01*
X120611904Y-52023809D01*
X120611904Y-52261904D01*
X120564285Y-52357142D01*
X120516666Y-52404761D01*
X120421428Y-52452380D01*
X120135714Y-52452380D01*
X120040476Y-52404761D01*
X119992857Y-52357142D01*
X89830476Y-62787380D02*
X90497142Y-63787380D01*
X90497142Y-62787380D02*
X89830476Y-63787380D01*
X91401904Y-63787380D02*
X90830476Y-63787380D01*
X91116190Y-63787380D02*
X91116190Y-62787380D01*
X91020952Y-62930238D01*
X90925714Y-63025476D01*
X90830476Y-63073095D01*
X90348095Y-132002380D02*
X90348095Y-132811904D01*
X90395714Y-132907142D01*
X90443333Y-132954761D01*
X90538571Y-133002380D01*
X90729047Y-133002380D01*
X90824285Y-132954761D01*
X90871904Y-132907142D01*
X90919523Y-132811904D01*
X90919523Y-132002380D01*
X91919523Y-133002380D02*
X91348095Y-133002380D01*
X91633809Y-133002380D02*
X91633809Y-132002380D01*
X91538571Y-132145238D01*
X91443333Y-132240476D01*
X91348095Y-132288095D01*
X55167380Y-75733333D02*
X55881666Y-75733333D01*
X56024523Y-75780952D01*
X56119761Y-75876190D01*
X56167380Y-76019047D01*
X56167380Y-76114285D01*
X56167380Y-74733333D02*
X56167380Y-75304761D01*
X56167380Y-75019047D02*
X55167380Y-75019047D01*
X55310238Y-75114285D01*
X55405476Y-75209523D01*
X55453095Y-75304761D01*
X58666666Y-72904761D02*
X58809523Y-72952380D01*
X59047619Y-72952380D01*
X59142857Y-72904761D01*
X59190476Y-72857142D01*
X59238095Y-72761904D01*
X59238095Y-72666666D01*
X59190476Y-72571428D01*
X59142857Y-72523809D01*
X59047619Y-72476190D01*
X58857142Y-72428571D01*
X58761904Y-72380952D01*
X58714285Y-72333333D01*
X58666666Y-72238095D01*
X58666666Y-72142857D01*
X58714285Y-72047619D01*
X58761904Y-72000000D01*
X58857142Y-71952380D01*
X59095238Y-71952380D01*
X59238095Y-72000000D01*
X59571428Y-71952380D02*
X59809523Y-72952380D01*
X60000000Y-72238095D01*
X60190476Y-72952380D01*
X60428571Y-71952380D01*
X61333333Y-72952380D02*
X60761904Y-72952380D01*
X61047619Y-72952380D02*
X61047619Y-71952380D01*
X60952380Y-72095238D01*
X60857142Y-72190476D01*
X60761904Y-72238095D01*
X107610476Y-51357380D02*
X108277142Y-52357380D01*
X108277142Y-51357380D02*
X107610476Y-52357380D01*
X108562857Y-51357380D02*
X109229523Y-51357380D01*
X108800952Y-52357380D01*
X99990476Y-62787380D02*
X100657142Y-63787380D01*
X100657142Y-62787380D02*
X99990476Y-63787380D01*
X101514285Y-62787380D02*
X101038095Y-62787380D01*
X100990476Y-63263571D01*
X101038095Y-63215952D01*
X101133333Y-63168333D01*
X101371428Y-63168333D01*
X101466666Y-63215952D01*
X101514285Y-63263571D01*
X101561904Y-63358809D01*
X101561904Y-63596904D01*
X101514285Y-63692142D01*
X101466666Y-63739761D01*
X101371428Y-63787380D01*
X101133333Y-63787380D01*
X101038095Y-63739761D01*
X100990476Y-63692142D01*
X110150476Y-62787380D02*
X110817142Y-63787380D01*
X110817142Y-62787380D02*
X110150476Y-63787380D01*
X111626666Y-63120714D02*
X111626666Y-63787380D01*
X111388571Y-62739761D02*
X111150476Y-63454047D01*
X111769523Y-63454047D01*
X64501904Y-65692380D02*
X64501904Y-64692380D01*
X64882857Y-64692380D01*
X64978095Y-64740000D01*
X65025714Y-64787619D01*
X65073333Y-64882857D01*
X65073333Y-65025714D01*
X65025714Y-65120952D01*
X64978095Y-65168571D01*
X64882857Y-65216190D01*
X64501904Y-65216190D01*
X65930476Y-65025714D02*
X65930476Y-65692380D01*
X65692380Y-64644761D02*
X65454285Y-65359047D01*
X66073333Y-65359047D01*
X61961904Y-65692380D02*
X61961904Y-64692380D01*
X62342857Y-64692380D01*
X62438095Y-64740000D01*
X62485714Y-64787619D01*
X62533333Y-64882857D01*
X62533333Y-65025714D01*
X62485714Y-65120952D01*
X62438095Y-65168571D01*
X62342857Y-65216190D01*
X61961904Y-65216190D01*
X62866666Y-64692380D02*
X63485714Y-64692380D01*
X63152380Y-65073333D01*
X63295238Y-65073333D01*
X63390476Y-65120952D01*
X63438095Y-65168571D01*
X63485714Y-65263809D01*
X63485714Y-65501904D01*
X63438095Y-65597142D01*
X63390476Y-65644761D01*
X63295238Y-65692380D01*
X63009523Y-65692380D01*
X62914285Y-65644761D01*
X62866666Y-65597142D01*
X79043333Y-75122142D02*
X78995714Y-75169761D01*
X78852857Y-75217380D01*
X78757619Y-75217380D01*
X78614761Y-75169761D01*
X78519523Y-75074523D01*
X78471904Y-74979285D01*
X78424285Y-74788809D01*
X78424285Y-74645952D01*
X78471904Y-74455476D01*
X78519523Y-74360238D01*
X78614761Y-74265000D01*
X78757619Y-74217380D01*
X78852857Y-74217380D01*
X78995714Y-74265000D01*
X79043333Y-74312619D01*
X79424285Y-74312619D02*
X79471904Y-74265000D01*
X79567142Y-74217380D01*
X79805238Y-74217380D01*
X79900476Y-74265000D01*
X79948095Y-74312619D01*
X79995714Y-74407857D01*
X79995714Y-74503095D01*
X79948095Y-74645952D01*
X79376666Y-75217380D01*
X79995714Y-75217380D01*
X54913333Y-94902380D02*
X54580000Y-94426190D01*
X54341904Y-94902380D02*
X54341904Y-93902380D01*
X54722857Y-93902380D01*
X54818095Y-93950000D01*
X54865714Y-93997619D01*
X54913333Y-94092857D01*
X54913333Y-94235714D01*
X54865714Y-94330952D01*
X54818095Y-94378571D01*
X54722857Y-94426190D01*
X54341904Y-94426190D01*
X55865714Y-94902380D02*
X55294285Y-94902380D01*
X55580000Y-94902380D02*
X55580000Y-93902380D01*
X55484761Y-94045238D01*
X55389523Y-94140476D01*
X55294285Y-94188095D01*
X98720476Y-51357380D02*
X99387142Y-52357380D01*
X99387142Y-51357380D02*
X98720476Y-52357380D01*
X100196666Y-51357380D02*
X100006190Y-51357380D01*
X99910952Y-51405000D01*
X99863333Y-51452619D01*
X99768095Y-51595476D01*
X99720476Y-51785952D01*
X99720476Y-52166904D01*
X99768095Y-52262142D01*
X99815714Y-52309761D01*
X99910952Y-52357380D01*
X100101428Y-52357380D01*
X100196666Y-52309761D01*
X100244285Y-52262142D01*
X100291904Y-52166904D01*
X100291904Y-51928809D01*
X100244285Y-51833571D01*
X100196666Y-51785952D01*
X100101428Y-51738333D01*
X99910952Y-51738333D01*
X99815714Y-51785952D01*
X99768095Y-51833571D01*
X99720476Y-51928809D01*
X121690476Y-62787380D02*
X122357142Y-63787380D01*
X122357142Y-62787380D02*
X121690476Y-63787380D01*
X122690476Y-62882619D02*
X122738095Y-62835000D01*
X122833333Y-62787380D01*
X123071428Y-62787380D01*
X123166666Y-62835000D01*
X123214285Y-62882619D01*
X123261904Y-62977857D01*
X123261904Y-63073095D01*
X123214285Y-63215952D01*
X122642857Y-63787380D01*
X123261904Y-63787380D01*
X102777142Y-91222380D02*
X102443809Y-90746190D01*
X102205714Y-91222380D02*
X102205714Y-90222380D01*
X102586666Y-90222380D01*
X102681904Y-90270000D01*
X102729523Y-90317619D01*
X102777142Y-90412857D01*
X102777142Y-90555714D01*
X102729523Y-90650952D01*
X102681904Y-90698571D01*
X102586666Y-90746190D01*
X102205714Y-90746190D01*
X103729523Y-91222380D02*
X103158095Y-91222380D01*
X103443809Y-91222380D02*
X103443809Y-90222380D01*
X103348571Y-90365238D01*
X103253333Y-90460476D01*
X103158095Y-90508095D01*
X104062857Y-90222380D02*
X104681904Y-90222380D01*
X104348571Y-90603333D01*
X104491428Y-90603333D01*
X104586666Y-90650952D01*
X104634285Y-90698571D01*
X104681904Y-90793809D01*
X104681904Y-91031904D01*
X104634285Y-91127142D01*
X104586666Y-91174761D01*
X104491428Y-91222380D01*
X104205714Y-91222380D01*
X104110476Y-91174761D01*
X104062857Y-91127142D01*
X110277142Y-91222380D02*
X109943809Y-90746190D01*
X109705714Y-91222380D02*
X109705714Y-90222380D01*
X110086666Y-90222380D01*
X110181904Y-90270000D01*
X110229523Y-90317619D01*
X110277142Y-90412857D01*
X110277142Y-90555714D01*
X110229523Y-90650952D01*
X110181904Y-90698571D01*
X110086666Y-90746190D01*
X109705714Y-90746190D01*
X111229523Y-91222380D02*
X110658095Y-91222380D01*
X110943809Y-91222380D02*
X110943809Y-90222380D01*
X110848571Y-90365238D01*
X110753333Y-90460476D01*
X110658095Y-90508095D01*
X111610476Y-90317619D02*
X111658095Y-90270000D01*
X111753333Y-90222380D01*
X111991428Y-90222380D01*
X112086666Y-90270000D01*
X112134285Y-90317619D01*
X112181904Y-90412857D01*
X112181904Y-90508095D01*
X112134285Y-90650952D01*
X111562857Y-91222380D01*
X112181904Y-91222380D01*
X82258095Y-79932380D02*
X82258095Y-80741904D01*
X82305714Y-80837142D01*
X82353333Y-80884761D01*
X82448571Y-80932380D01*
X82639047Y-80932380D01*
X82734285Y-80884761D01*
X82781904Y-80837142D01*
X82829523Y-80741904D01*
X82829523Y-79932380D01*
X83258095Y-80027619D02*
X83305714Y-79980000D01*
X83400952Y-79932380D01*
X83639047Y-79932380D01*
X83734285Y-79980000D01*
X83781904Y-80027619D01*
X83829523Y-80122857D01*
X83829523Y-80218095D01*
X83781904Y-80360952D01*
X83210476Y-80932380D01*
X83829523Y-80932380D01*
X76027142Y-104427380D02*
X75693809Y-103951190D01*
X75455714Y-104427380D02*
X75455714Y-103427380D01*
X75836666Y-103427380D01*
X75931904Y-103475000D01*
X75979523Y-103522619D01*
X76027142Y-103617857D01*
X76027142Y-103760714D01*
X75979523Y-103855952D01*
X75931904Y-103903571D01*
X75836666Y-103951190D01*
X75455714Y-103951190D01*
X76979523Y-104427380D02*
X76408095Y-104427380D01*
X76693809Y-104427380D02*
X76693809Y-103427380D01*
X76598571Y-103570238D01*
X76503333Y-103665476D01*
X76408095Y-103713095D01*
X77931904Y-104427380D02*
X77360476Y-104427380D01*
X77646190Y-104427380D02*
X77646190Y-103427380D01*
X77550952Y-103570238D01*
X77455714Y-103665476D01*
X77360476Y-103713095D01*
X73391904Y-65692380D02*
X73391904Y-64692380D01*
X73772857Y-64692380D01*
X73868095Y-64740000D01*
X73915714Y-64787619D01*
X73963333Y-64882857D01*
X73963333Y-65025714D01*
X73915714Y-65120952D01*
X73868095Y-65168571D01*
X73772857Y-65216190D01*
X73391904Y-65216190D01*
X74344285Y-64787619D02*
X74391904Y-64740000D01*
X74487142Y-64692380D01*
X74725238Y-64692380D01*
X74820476Y-64740000D01*
X74868095Y-64787619D01*
X74915714Y-64882857D01*
X74915714Y-64978095D01*
X74868095Y-65120952D01*
X74296666Y-65692380D01*
X74915714Y-65692380D01*
X79043333Y-85917142D02*
X78995714Y-85964761D01*
X78852857Y-86012380D01*
X78757619Y-86012380D01*
X78614761Y-85964761D01*
X78519523Y-85869523D01*
X78471904Y-85774285D01*
X78424285Y-85583809D01*
X78424285Y-85440952D01*
X78471904Y-85250476D01*
X78519523Y-85155238D01*
X78614761Y-85060000D01*
X78757619Y-85012380D01*
X78852857Y-85012380D01*
X78995714Y-85060000D01*
X79043333Y-85107619D01*
X79376666Y-85012380D02*
X80043333Y-85012380D01*
X79614761Y-86012380D01*
X54913333Y-88457142D02*
X54865714Y-88504761D01*
X54722857Y-88552380D01*
X54627619Y-88552380D01*
X54484761Y-88504761D01*
X54389523Y-88409523D01*
X54341904Y-88314285D01*
X54294285Y-88123809D01*
X54294285Y-87980952D01*
X54341904Y-87790476D01*
X54389523Y-87695238D01*
X54484761Y-87600000D01*
X54627619Y-87552380D01*
X54722857Y-87552380D01*
X54865714Y-87600000D01*
X54913333Y-87647619D01*
X55865714Y-88552380D02*
X55294285Y-88552380D01*
X55580000Y-88552380D02*
X55580000Y-87552380D01*
X55484761Y-87695238D01*
X55389523Y-87790476D01*
X55294285Y-87838095D01*
D13*
D11*
X99403095Y-98982380D02*
X99403095Y-99791904D01*
X99450714Y-99887142D01*
X99498333Y-99934761D01*
X99593571Y-99982380D01*
X99784047Y-99982380D01*
X99879285Y-99934761D01*
X99926904Y-99887142D01*
X99974523Y-99791904D01*
X99974523Y-98982380D01*
X100879285Y-99315714D02*
X100879285Y-99982380D01*
X100641190Y-98934761D02*
X100403095Y-99649047D01*
X101022142Y-99649047D01*
X67041904Y-65692380D02*
X67041904Y-64692380D01*
X67422857Y-64692380D01*
X67518095Y-64740000D01*
X67565714Y-64787619D01*
X67613333Y-64882857D01*
X67613333Y-65025714D01*
X67565714Y-65120952D01*
X67518095Y-65168571D01*
X67422857Y-65216190D01*
X67041904Y-65216190D01*
X68518095Y-64692380D02*
X68041904Y-64692380D01*
X67994285Y-65168571D01*
X68041904Y-65120952D01*
X68137142Y-65073333D01*
X68375238Y-65073333D01*
X68470476Y-65120952D01*
X68518095Y-65168571D01*
X68565714Y-65263809D01*
X68565714Y-65501904D01*
X68518095Y-65597142D01*
X68470476Y-65644761D01*
X68375238Y-65692380D01*
X68137142Y-65692380D01*
X68041904Y-65644761D01*
X67994285Y-65597142D01*
X68883333Y-95442142D02*
X68835714Y-95489761D01*
X68692857Y-95537380D01*
X68597619Y-95537380D01*
X68454761Y-95489761D01*
X68359523Y-95394523D01*
X68311904Y-95299285D01*
X68264285Y-95108809D01*
X68264285Y-94965952D01*
X68311904Y-94775476D01*
X68359523Y-94680238D01*
X68454761Y-94585000D01*
X68597619Y-94537380D01*
X68692857Y-94537380D01*
X68835714Y-94585000D01*
X68883333Y-94632619D01*
X69788095Y-94537380D02*
X69311904Y-94537380D01*
X69264285Y-95013571D01*
X69311904Y-94965952D01*
X69407142Y-94918333D01*
X69645238Y-94918333D01*
X69740476Y-94965952D01*
X69788095Y-95013571D01*
X69835714Y-95108809D01*
X69835714Y-95346904D01*
X69788095Y-95442142D01*
X69740476Y-95489761D01*
X69645238Y-95537380D01*
X69407142Y-95537380D01*
X69311904Y-95489761D01*
X69264285Y-95442142D01*
X76833333Y-144357142D02*
X76785714Y-144404761D01*
X76642857Y-144452380D01*
X76547619Y-144452380D01*
X76404761Y-144404761D01*
X76309523Y-144309523D01*
X76261904Y-144214285D01*
X76214285Y-144023809D01*
X76214285Y-143880952D01*
X76261904Y-143690476D01*
X76309523Y-143595238D01*
X76404761Y-143500000D01*
X76547619Y-143452380D01*
X76642857Y-143452380D01*
X76785714Y-143500000D01*
X76833333Y-143547619D01*
X77690476Y-143452380D02*
X77500000Y-143452380D01*
X77404761Y-143500000D01*
X77357142Y-143547619D01*
X77261904Y-143690476D01*
X77214285Y-143880952D01*
X77214285Y-144261904D01*
X77261904Y-144357142D01*
X77309523Y-144404761D01*
X77404761Y-144452380D01*
X77595238Y-144452380D01*
X77690476Y-144404761D01*
X77738095Y-144357142D01*
X77785714Y-144261904D01*
X77785714Y-144023809D01*
X77738095Y-143928571D01*
X77690476Y-143880952D01*
X77595238Y-143833333D01*
X77404761Y-143833333D01*
X77309523Y-143880952D01*
X77261904Y-143928571D01*
X77214285Y-144023809D01*
X76566904Y-65692380D02*
X76566904Y-64692380D01*
X76947857Y-64692380D01*
X77043095Y-64740000D01*
X77090714Y-64787619D01*
X77138333Y-64882857D01*
X77138333Y-65025714D01*
X77090714Y-65120952D01*
X77043095Y-65168571D01*
X76947857Y-65216190D01*
X76566904Y-65216190D01*
X78090714Y-65692380D02*
X77519285Y-65692380D01*
X77805000Y-65692380D02*
X77805000Y-64692380D01*
X77709761Y-64835238D01*
X77614523Y-64930476D01*
X77519285Y-64978095D01*
X69581904Y-65692380D02*
X69581904Y-64692380D01*
X69962857Y-64692380D01*
X70058095Y-64740000D01*
X70105714Y-64787619D01*
X70153333Y-64882857D01*
X70153333Y-65025714D01*
X70105714Y-65120952D01*
X70058095Y-65168571D01*
X69962857Y-65216190D01*
X69581904Y-65216190D01*
X71010476Y-64692380D02*
X70820000Y-64692380D01*
X70724761Y-64740000D01*
X70677142Y-64787619D01*
X70581904Y-64930476D01*
X70534285Y-65120952D01*
X70534285Y-65501904D01*
X70581904Y-65597142D01*
X70629523Y-65644761D01*
X70724761Y-65692380D01*
X70915238Y-65692380D01*
X71010476Y-65644761D01*
X71058095Y-65597142D01*
X71105714Y-65501904D01*
X71105714Y-65263809D01*
X71058095Y-65168571D01*
X71010476Y-65120952D01*
X70915238Y-65073333D01*
X70724761Y-65073333D01*
X70629523Y-65120952D01*
X70581904Y-65168571D01*
X70534285Y-65263809D01*
X79106904Y-65692380D02*
X79106904Y-64692380D01*
X79487857Y-64692380D01*
X79583095Y-64740000D01*
X79630714Y-64787619D01*
X79678333Y-64882857D01*
X79678333Y-65025714D01*
X79630714Y-65120952D01*
X79583095Y-65168571D01*
X79487857Y-65216190D01*
X79106904Y-65216190D01*
X80011666Y-64692380D02*
X80678333Y-64692380D01*
X80249761Y-65692380D01*
X81646904Y-65692380D02*
X81646904Y-64692380D01*
X82027857Y-64692380D01*
X82123095Y-64740000D01*
X82170714Y-64787619D01*
X82218333Y-64882857D01*
X82218333Y-65025714D01*
X82170714Y-65120952D01*
X82123095Y-65168571D01*
X82027857Y-65216190D01*
X81646904Y-65216190D01*
X82789761Y-65120952D02*
X82694523Y-65073333D01*
X82646904Y-65025714D01*
X82599285Y-64930476D01*
X82599285Y-64882857D01*
X82646904Y-64787619D01*
X82694523Y-64740000D01*
X82789761Y-64692380D01*
X82980238Y-64692380D01*
X83075476Y-64740000D01*
X83123095Y-64787619D01*
X83170714Y-64882857D01*
X83170714Y-64930476D01*
X83123095Y-65025714D01*
X83075476Y-65073333D01*
X82980238Y-65120952D01*
X82789761Y-65120952D01*
X82694523Y-65168571D01*
X82646904Y-65216190D01*
X82599285Y-65311428D01*
X82599285Y-65501904D01*
X82646904Y-65597142D01*
X82694523Y-65644761D01*
X82789761Y-65692380D01*
X82980238Y-65692380D01*
X83075476Y-65644761D01*
X83123095Y-65597142D01*
X83170714Y-65501904D01*
X83170714Y-65311428D01*
X83123095Y-65216190D01*
X83075476Y-65168571D01*
X82980238Y-65120952D01*
X89354285Y-51357380D02*
X90020952Y-52357380D01*
X90020952Y-51357380D02*
X89354285Y-52357380D01*
X90925714Y-52357380D02*
X90354285Y-52357380D01*
X90640000Y-52357380D02*
X90640000Y-51357380D01*
X90544761Y-51500238D01*
X90449523Y-51595476D01*
X90354285Y-51643095D01*
X91878095Y-52357380D02*
X91306666Y-52357380D01*
X91592380Y-52357380D02*
X91592380Y-51357380D01*
X91497142Y-51500238D01*
X91401904Y-51595476D01*
X91306666Y-51643095D01*
X68288095Y-83742380D02*
X68288095Y-84551904D01*
X68335714Y-84647142D01*
X68383333Y-84694761D01*
X68478571Y-84742380D01*
X68669047Y-84742380D01*
X68764285Y-84694761D01*
X68811904Y-84647142D01*
X68859523Y-84551904D01*
X68859523Y-83742380D01*
X69240476Y-83742380D02*
X69859523Y-83742380D01*
X69526190Y-84123333D01*
X69669047Y-84123333D01*
X69764285Y-84170952D01*
X69811904Y-84218571D01*
X69859523Y-84313809D01*
X69859523Y-84551904D01*
X69811904Y-84647142D01*
X69764285Y-84694761D01*
X69669047Y-84742380D01*
X69383333Y-84742380D01*
X69288095Y-84694761D01*
X69240476Y-84647142D01*
X123852380Y-135109523D02*
X124852380Y-134442857D01*
X123852380Y-134442857D02*
X124852380Y-135109523D01*
X124852380Y-134014285D02*
X124852380Y-133823809D01*
X124804761Y-133728571D01*
X124757142Y-133680952D01*
X124614285Y-133585714D01*
X124423809Y-133538095D01*
X124042857Y-133538095D01*
X123947619Y-133585714D01*
X123900000Y-133633333D01*
X123852380Y-133728571D01*
X123852380Y-133919047D01*
X123900000Y-134014285D01*
X123947619Y-134061904D01*
X124042857Y-134109523D01*
X124280952Y-134109523D01*
X124376190Y-134061904D01*
X124423809Y-134014285D01*
X124471428Y-133919047D01*
X124471428Y-133728571D01*
X124423809Y-133633333D01*
X124376190Y-133585714D01*
X124280952Y-133538095D01*
X123852380Y-95585714D02*
X124852380Y-94919047D01*
X123852380Y-94919047D02*
X124852380Y-95585714D01*
X124852380Y-94014285D02*
X124852380Y-94585714D01*
X124852380Y-94300000D02*
X123852380Y-94300000D01*
X123995238Y-94395238D01*
X124090476Y-94490476D01*
X124138095Y-94585714D01*
X123852380Y-93395238D02*
X123852380Y-93300000D01*
X123900000Y-93204761D01*
X123947619Y-93157142D01*
X124042857Y-93109523D01*
X124233333Y-93061904D01*
X124471428Y-93061904D01*
X124661904Y-93109523D01*
X124757142Y-93157142D01*
X124804761Y-93204761D01*
X124852380Y-93300000D01*
X124852380Y-93395238D01*
X124804761Y-93490476D01*
X124757142Y-93538095D01*
X124661904Y-93585714D01*
X124471428Y-93633333D01*
X124233333Y-93633333D01*
X124042857Y-93585714D01*
X123947619Y-93538095D01*
X123900000Y-93490476D01*
X123852380Y-93395238D01*
X111587142Y-82202380D02*
X111253809Y-81726190D01*
X111015714Y-82202380D02*
X111015714Y-81202380D01*
X111396666Y-81202380D01*
X111491904Y-81250000D01*
X111539523Y-81297619D01*
X111587142Y-81392857D01*
X111587142Y-81535714D01*
X111539523Y-81630952D01*
X111491904Y-81678571D01*
X111396666Y-81726190D01*
X111015714Y-81726190D01*
X111968095Y-81297619D02*
X112015714Y-81250000D01*
X112110952Y-81202380D01*
X112349047Y-81202380D01*
X112444285Y-81250000D01*
X112491904Y-81297619D01*
X112539523Y-81392857D01*
X112539523Y-81488095D01*
X112491904Y-81630952D01*
X111920476Y-82202380D01*
X112539523Y-82202380D01*
X113491904Y-82202380D02*
X112920476Y-82202380D01*
X113206190Y-82202380D02*
X113206190Y-81202380D01*
X113110952Y-81345238D01*
X113015714Y-81440476D01*
X112920476Y-81488095D01*
X111587142Y-79662380D02*
X111253809Y-79186190D01*
X111015714Y-79662380D02*
X111015714Y-78662380D01*
X111396666Y-78662380D01*
X111491904Y-78710000D01*
X111539523Y-78757619D01*
X111587142Y-78852857D01*
X111587142Y-78995714D01*
X111539523Y-79090952D01*
X111491904Y-79138571D01*
X111396666Y-79186190D01*
X111015714Y-79186190D01*
X111968095Y-78757619D02*
X112015714Y-78710000D01*
X112110952Y-78662380D01*
X112349047Y-78662380D01*
X112444285Y-78710000D01*
X112491904Y-78757619D01*
X112539523Y-78852857D01*
X112539523Y-78948095D01*
X112491904Y-79090952D01*
X111920476Y-79662380D01*
X112539523Y-79662380D01*
X112920476Y-78757619D02*
X112968095Y-78710000D01*
X113063333Y-78662380D01*
X113301428Y-78662380D01*
X113396666Y-78710000D01*
X113444285Y-78757619D01*
X113491904Y-78852857D01*
X113491904Y-78948095D01*
X113444285Y-79090952D01*
X112872857Y-79662380D01*
X113491904Y-79662380D01*
X111587142Y-77122380D02*
X111253809Y-76646190D01*
X111015714Y-77122380D02*
X111015714Y-76122380D01*
X111396666Y-76122380D01*
X111491904Y-76170000D01*
X111539523Y-76217619D01*
X111587142Y-76312857D01*
X111587142Y-76455714D01*
X111539523Y-76550952D01*
X111491904Y-76598571D01*
X111396666Y-76646190D01*
X111015714Y-76646190D01*
X111968095Y-76217619D02*
X112015714Y-76170000D01*
X112110952Y-76122380D01*
X112349047Y-76122380D01*
X112444285Y-76170000D01*
X112491904Y-76217619D01*
X112539523Y-76312857D01*
X112539523Y-76408095D01*
X112491904Y-76550952D01*
X111920476Y-77122380D01*
X112539523Y-77122380D01*
X112872857Y-76122380D02*
X113491904Y-76122380D01*
X113158571Y-76503333D01*
X113301428Y-76503333D01*
X113396666Y-76550952D01*
X113444285Y-76598571D01*
X113491904Y-76693809D01*
X113491904Y-76931904D01*
X113444285Y-77027142D01*
X113396666Y-77074761D01*
X113301428Y-77122380D01*
X113015714Y-77122380D01*
X112920476Y-77074761D01*
X112872857Y-77027142D01*
M02*
