G04 #@! TF.GenerationSoftware,KiCad,Pcbnew,(5.1.0)-1*
G04 #@! TF.CreationDate,2019-06-23T22:19:15+02:00*
G04 #@! TF.ProjectId,USB_Tool,5553425f-546f-46f6-9c2e-6b696361645f,4*
G04 #@! TF.SameCoordinates,Original*
G04 #@! TF.FileFunction,Soldermask,Top*
G04 #@! TF.FilePolarity,Negative*
%FSLAX46Y46*%
G04 Gerber Fmt 4.6, Leading zero omitted, Abs format (unit mm)*
G04 Created by KiCad (PCBNEW (5.1.0)-1) date 2019-06-23 22:19:15*
%MOMM*%
%LPD*%
G04 APERTURE LIST*
%ADD10C,0.300000*%
%ADD11C,0.100000*%
G04 APERTURE END LIST*
D10*
X131380000Y-80372857D02*
X130880000Y-80372857D01*
X130880000Y-81158571D02*
X130880000Y-79658571D01*
X131594285Y-79658571D01*
X132165714Y-81015714D02*
X132237142Y-81087142D01*
X132165714Y-81158571D01*
X132094285Y-81087142D01*
X132165714Y-81015714D01*
X132165714Y-81158571D01*
X132880000Y-81158571D02*
X132880000Y-79658571D01*
X133380000Y-80730000D01*
X133880000Y-79658571D01*
X133880000Y-81158571D01*
X135237142Y-81158571D02*
X135237142Y-80372857D01*
X135165714Y-80230000D01*
X135022857Y-80158571D01*
X134737142Y-80158571D01*
X134594285Y-80230000D01*
X135237142Y-81087142D02*
X135094285Y-81158571D01*
X134737142Y-81158571D01*
X134594285Y-81087142D01*
X134522857Y-80944285D01*
X134522857Y-80801428D01*
X134594285Y-80658571D01*
X134737142Y-80587142D01*
X135094285Y-80587142D01*
X135237142Y-80515714D01*
X135880000Y-81087142D02*
X136022857Y-81158571D01*
X136308571Y-81158571D01*
X136451428Y-81087142D01*
X136522857Y-80944285D01*
X136522857Y-80872857D01*
X136451428Y-80730000D01*
X136308571Y-80658571D01*
X136094285Y-80658571D01*
X135951428Y-80587142D01*
X135880000Y-80444285D01*
X135880000Y-80372857D01*
X135951428Y-80230000D01*
X136094285Y-80158571D01*
X136308571Y-80158571D01*
X136451428Y-80230000D01*
X137165714Y-81158571D02*
X137165714Y-79658571D01*
X137308571Y-80587142D02*
X137737142Y-81158571D01*
X137737142Y-80158571D02*
X137165714Y-80730000D01*
X139522857Y-80587142D02*
X140665714Y-80587142D01*
X142380000Y-80158571D02*
X142737142Y-81158571D01*
X143094285Y-80158571D01*
X144308571Y-80158571D02*
X144308571Y-81158571D01*
X143951428Y-79587142D02*
X143594285Y-80658571D01*
X144522857Y-80658571D01*
D11*
G36*
X102083000Y-148857000D02*
G01*
X98933000Y-148857000D01*
X98933000Y-146723000D01*
X102083000Y-146723000D01*
X102083000Y-148857000D01*
X102083000Y-148857000D01*
G37*
G36*
X83287000Y-148857000D02*
G01*
X80137000Y-148857000D01*
X80137000Y-146723000D01*
X83287000Y-146723000D01*
X83287000Y-148857000D01*
X83287000Y-148857000D01*
G37*
G36*
X55448903Y-142743213D02*
G01*
X55671177Y-142787426D01*
X56089932Y-142960880D01*
X56466802Y-143212696D01*
X56787304Y-143533198D01*
X57039120Y-143910068D01*
X57212574Y-144328823D01*
X57301000Y-144773371D01*
X57301000Y-145226629D01*
X57212574Y-145671177D01*
X57039120Y-146089932D01*
X56787304Y-146466802D01*
X56466802Y-146787304D01*
X56089932Y-147039120D01*
X55671177Y-147212574D01*
X55448903Y-147256787D01*
X55226630Y-147301000D01*
X54773370Y-147301000D01*
X54551097Y-147256787D01*
X54328823Y-147212574D01*
X53910068Y-147039120D01*
X53533198Y-146787304D01*
X53212696Y-146466802D01*
X52960880Y-146089932D01*
X52787426Y-145671177D01*
X52699000Y-145226629D01*
X52699000Y-144773371D01*
X52787426Y-144328823D01*
X52960880Y-143910068D01*
X53212696Y-143533198D01*
X53533198Y-143212696D01*
X53910068Y-142960880D01*
X54328823Y-142787426D01*
X54551097Y-142743213D01*
X54773370Y-142699000D01*
X55226630Y-142699000D01*
X55448903Y-142743213D01*
X55448903Y-142743213D01*
G37*
G36*
X145448903Y-142743213D02*
G01*
X145671177Y-142787426D01*
X146089932Y-142960880D01*
X146466802Y-143212696D01*
X146787304Y-143533198D01*
X147039120Y-143910068D01*
X147212574Y-144328823D01*
X147301000Y-144773371D01*
X147301000Y-145226629D01*
X147212574Y-145671177D01*
X147039120Y-146089932D01*
X146787304Y-146466802D01*
X146466802Y-146787304D01*
X146089932Y-147039120D01*
X145671177Y-147212574D01*
X145448903Y-147256787D01*
X145226630Y-147301000D01*
X144773370Y-147301000D01*
X144551097Y-147256787D01*
X144328823Y-147212574D01*
X143910068Y-147039120D01*
X143533198Y-146787304D01*
X143212696Y-146466802D01*
X142960880Y-146089932D01*
X142787426Y-145671177D01*
X142699000Y-145226629D01*
X142699000Y-144773371D01*
X142787426Y-144328823D01*
X142960880Y-143910068D01*
X143212696Y-143533198D01*
X143533198Y-143212696D01*
X143910068Y-142960880D01*
X144328823Y-142787426D01*
X144551097Y-142743213D01*
X144773370Y-142699000D01*
X145226630Y-142699000D01*
X145448903Y-142743213D01*
X145448903Y-142743213D01*
G37*
G36*
X102083000Y-146317000D02*
G01*
X98933000Y-146317000D01*
X98933000Y-144183000D01*
X102083000Y-144183000D01*
X102083000Y-146317000D01*
X102083000Y-146317000D01*
G37*
G36*
X83287000Y-146317000D02*
G01*
X80137000Y-146317000D01*
X80137000Y-144183000D01*
X83287000Y-144183000D01*
X83287000Y-146317000D01*
X83287000Y-146317000D01*
G37*
G36*
X75441000Y-146031000D02*
G01*
X74089000Y-146031000D01*
X74089000Y-144429000D01*
X75441000Y-144429000D01*
X75441000Y-146031000D01*
X75441000Y-146031000D01*
G37*
G36*
X102083000Y-143777000D02*
G01*
X98933000Y-143777000D01*
X98933000Y-141643000D01*
X102083000Y-141643000D01*
X102083000Y-143777000D01*
X102083000Y-143777000D01*
G37*
G36*
X83287000Y-143777000D02*
G01*
X80137000Y-143777000D01*
X80137000Y-141643000D01*
X83287000Y-141643000D01*
X83287000Y-143777000D01*
X83287000Y-143777000D01*
G37*
G36*
X75441000Y-143531000D02*
G01*
X74089000Y-143531000D01*
X74089000Y-141929000D01*
X75441000Y-141929000D01*
X75441000Y-143531000D01*
X75441000Y-143531000D01*
G37*
G36*
X102083000Y-141237000D02*
G01*
X98933000Y-141237000D01*
X98933000Y-139103000D01*
X102083000Y-139103000D01*
X102083000Y-141237000D01*
X102083000Y-141237000D01*
G37*
G36*
X83287000Y-141237000D02*
G01*
X80137000Y-141237000D01*
X80137000Y-139103000D01*
X83287000Y-139103000D01*
X83287000Y-141237000D01*
X83287000Y-141237000D01*
G37*
G36*
X102083000Y-138697000D02*
G01*
X98933000Y-138697000D01*
X98933000Y-136563000D01*
X102083000Y-136563000D01*
X102083000Y-138697000D01*
X102083000Y-138697000D01*
G37*
G36*
X83287000Y-138697000D02*
G01*
X80137000Y-138697000D01*
X80137000Y-136563000D01*
X83287000Y-136563000D01*
X83287000Y-138697000D01*
X83287000Y-138697000D01*
G37*
G36*
X102083000Y-136157000D02*
G01*
X98933000Y-136157000D01*
X98933000Y-134023000D01*
X102083000Y-134023000D01*
X102083000Y-136157000D01*
X102083000Y-136157000D01*
G37*
G36*
X83287000Y-136157000D02*
G01*
X80137000Y-136157000D01*
X80137000Y-134023000D01*
X83287000Y-134023000D01*
X83287000Y-136157000D01*
X83287000Y-136157000D01*
G37*
G36*
X129380443Y-133405519D02*
G01*
X129446627Y-133412037D01*
X129616466Y-133463557D01*
X129772991Y-133547222D01*
X129808729Y-133576552D01*
X129910186Y-133659814D01*
X129993448Y-133761271D01*
X130022778Y-133797009D01*
X130106443Y-133953534D01*
X130157963Y-134123373D01*
X130175359Y-134300000D01*
X130157963Y-134476627D01*
X130106443Y-134646466D01*
X130022778Y-134802991D01*
X129993448Y-134838729D01*
X129910186Y-134940186D01*
X129808729Y-135023448D01*
X129772991Y-135052778D01*
X129616466Y-135136443D01*
X129446627Y-135187963D01*
X129380443Y-135194481D01*
X129314260Y-135201000D01*
X129225740Y-135201000D01*
X129159557Y-135194481D01*
X129093373Y-135187963D01*
X128923534Y-135136443D01*
X128767009Y-135052778D01*
X128731271Y-135023448D01*
X128629814Y-134940186D01*
X128546552Y-134838729D01*
X128517222Y-134802991D01*
X128433557Y-134646466D01*
X128382037Y-134476627D01*
X128364641Y-134300000D01*
X128382037Y-134123373D01*
X128433557Y-133953534D01*
X128517222Y-133797009D01*
X128546552Y-133761271D01*
X128629814Y-133659814D01*
X128731271Y-133576552D01*
X128767009Y-133547222D01*
X128923534Y-133463557D01*
X129093373Y-133412037D01*
X129159557Y-133405519D01*
X129225740Y-133399000D01*
X129314260Y-133399000D01*
X129380443Y-133405519D01*
X129380443Y-133405519D01*
G37*
G36*
X147160443Y-133405519D02*
G01*
X147226627Y-133412037D01*
X147396466Y-133463557D01*
X147552991Y-133547222D01*
X147588729Y-133576552D01*
X147690186Y-133659814D01*
X147773448Y-133761271D01*
X147802778Y-133797009D01*
X147886443Y-133953534D01*
X147937963Y-134123373D01*
X147955359Y-134300000D01*
X147937963Y-134476627D01*
X147886443Y-134646466D01*
X147802778Y-134802991D01*
X147773448Y-134838729D01*
X147690186Y-134940186D01*
X147588729Y-135023448D01*
X147552991Y-135052778D01*
X147396466Y-135136443D01*
X147226627Y-135187963D01*
X147160443Y-135194481D01*
X147094260Y-135201000D01*
X147005740Y-135201000D01*
X146939557Y-135194481D01*
X146873373Y-135187963D01*
X146703534Y-135136443D01*
X146547009Y-135052778D01*
X146511271Y-135023448D01*
X146409814Y-134940186D01*
X146326552Y-134838729D01*
X146297222Y-134802991D01*
X146213557Y-134646466D01*
X146162037Y-134476627D01*
X146144641Y-134300000D01*
X146162037Y-134123373D01*
X146213557Y-133953534D01*
X146297222Y-133797009D01*
X146326552Y-133761271D01*
X146409814Y-133659814D01*
X146511271Y-133576552D01*
X146547009Y-133547222D01*
X146703534Y-133463557D01*
X146873373Y-133412037D01*
X146939557Y-133405519D01*
X147005740Y-133399000D01*
X147094260Y-133399000D01*
X147160443Y-133405519D01*
X147160443Y-133405519D01*
G37*
G36*
X144620443Y-133405519D02*
G01*
X144686627Y-133412037D01*
X144856466Y-133463557D01*
X145012991Y-133547222D01*
X145048729Y-133576552D01*
X145150186Y-133659814D01*
X145233448Y-133761271D01*
X145262778Y-133797009D01*
X145346443Y-133953534D01*
X145397963Y-134123373D01*
X145415359Y-134300000D01*
X145397963Y-134476627D01*
X145346443Y-134646466D01*
X145262778Y-134802991D01*
X145233448Y-134838729D01*
X145150186Y-134940186D01*
X145048729Y-135023448D01*
X145012991Y-135052778D01*
X144856466Y-135136443D01*
X144686627Y-135187963D01*
X144620443Y-135194481D01*
X144554260Y-135201000D01*
X144465740Y-135201000D01*
X144399557Y-135194481D01*
X144333373Y-135187963D01*
X144163534Y-135136443D01*
X144007009Y-135052778D01*
X143971271Y-135023448D01*
X143869814Y-134940186D01*
X143786552Y-134838729D01*
X143757222Y-134802991D01*
X143673557Y-134646466D01*
X143622037Y-134476627D01*
X143604641Y-134300000D01*
X143622037Y-134123373D01*
X143673557Y-133953534D01*
X143757222Y-133797009D01*
X143786552Y-133761271D01*
X143869814Y-133659814D01*
X143971271Y-133576552D01*
X144007009Y-133547222D01*
X144163534Y-133463557D01*
X144333373Y-133412037D01*
X144399557Y-133405519D01*
X144465740Y-133399000D01*
X144554260Y-133399000D01*
X144620443Y-133405519D01*
X144620443Y-133405519D01*
G37*
G36*
X127631000Y-135201000D02*
G01*
X125829000Y-135201000D01*
X125829000Y-133399000D01*
X127631000Y-133399000D01*
X127631000Y-135201000D01*
X127631000Y-135201000D01*
G37*
G36*
X134460443Y-133405519D02*
G01*
X134526627Y-133412037D01*
X134696466Y-133463557D01*
X134852991Y-133547222D01*
X134888729Y-133576552D01*
X134990186Y-133659814D01*
X135073448Y-133761271D01*
X135102778Y-133797009D01*
X135186443Y-133953534D01*
X135237963Y-134123373D01*
X135255359Y-134300000D01*
X135237963Y-134476627D01*
X135186443Y-134646466D01*
X135102778Y-134802991D01*
X135073448Y-134838729D01*
X134990186Y-134940186D01*
X134888729Y-135023448D01*
X134852991Y-135052778D01*
X134696466Y-135136443D01*
X134526627Y-135187963D01*
X134460443Y-135194481D01*
X134394260Y-135201000D01*
X134305740Y-135201000D01*
X134239557Y-135194481D01*
X134173373Y-135187963D01*
X134003534Y-135136443D01*
X133847009Y-135052778D01*
X133811271Y-135023448D01*
X133709814Y-134940186D01*
X133626552Y-134838729D01*
X133597222Y-134802991D01*
X133513557Y-134646466D01*
X133462037Y-134476627D01*
X133444641Y-134300000D01*
X133462037Y-134123373D01*
X133513557Y-133953534D01*
X133597222Y-133797009D01*
X133626552Y-133761271D01*
X133709814Y-133659814D01*
X133811271Y-133576552D01*
X133847009Y-133547222D01*
X134003534Y-133463557D01*
X134173373Y-133412037D01*
X134239557Y-133405519D01*
X134305740Y-133399000D01*
X134394260Y-133399000D01*
X134460443Y-133405519D01*
X134460443Y-133405519D01*
G37*
G36*
X137000443Y-133405519D02*
G01*
X137066627Y-133412037D01*
X137236466Y-133463557D01*
X137392991Y-133547222D01*
X137428729Y-133576552D01*
X137530186Y-133659814D01*
X137613448Y-133761271D01*
X137642778Y-133797009D01*
X137726443Y-133953534D01*
X137777963Y-134123373D01*
X137795359Y-134300000D01*
X137777963Y-134476627D01*
X137726443Y-134646466D01*
X137642778Y-134802991D01*
X137613448Y-134838729D01*
X137530186Y-134940186D01*
X137428729Y-135023448D01*
X137392991Y-135052778D01*
X137236466Y-135136443D01*
X137066627Y-135187963D01*
X137000443Y-135194481D01*
X136934260Y-135201000D01*
X136845740Y-135201000D01*
X136779557Y-135194481D01*
X136713373Y-135187963D01*
X136543534Y-135136443D01*
X136387009Y-135052778D01*
X136351271Y-135023448D01*
X136249814Y-134940186D01*
X136166552Y-134838729D01*
X136137222Y-134802991D01*
X136053557Y-134646466D01*
X136002037Y-134476627D01*
X135984641Y-134300000D01*
X136002037Y-134123373D01*
X136053557Y-133953534D01*
X136137222Y-133797009D01*
X136166552Y-133761271D01*
X136249814Y-133659814D01*
X136351271Y-133576552D01*
X136387009Y-133547222D01*
X136543534Y-133463557D01*
X136713373Y-133412037D01*
X136779557Y-133405519D01*
X136845740Y-133399000D01*
X136934260Y-133399000D01*
X137000443Y-133405519D01*
X137000443Y-133405519D01*
G37*
G36*
X139540443Y-133405519D02*
G01*
X139606627Y-133412037D01*
X139776466Y-133463557D01*
X139932991Y-133547222D01*
X139968729Y-133576552D01*
X140070186Y-133659814D01*
X140153448Y-133761271D01*
X140182778Y-133797009D01*
X140266443Y-133953534D01*
X140317963Y-134123373D01*
X140335359Y-134300000D01*
X140317963Y-134476627D01*
X140266443Y-134646466D01*
X140182778Y-134802991D01*
X140153448Y-134838729D01*
X140070186Y-134940186D01*
X139968729Y-135023448D01*
X139932991Y-135052778D01*
X139776466Y-135136443D01*
X139606627Y-135187963D01*
X139540443Y-135194481D01*
X139474260Y-135201000D01*
X139385740Y-135201000D01*
X139319557Y-135194481D01*
X139253373Y-135187963D01*
X139083534Y-135136443D01*
X138927009Y-135052778D01*
X138891271Y-135023448D01*
X138789814Y-134940186D01*
X138706552Y-134838729D01*
X138677222Y-134802991D01*
X138593557Y-134646466D01*
X138542037Y-134476627D01*
X138524641Y-134300000D01*
X138542037Y-134123373D01*
X138593557Y-133953534D01*
X138677222Y-133797009D01*
X138706552Y-133761271D01*
X138789814Y-133659814D01*
X138891271Y-133576552D01*
X138927009Y-133547222D01*
X139083534Y-133463557D01*
X139253373Y-133412037D01*
X139319557Y-133405519D01*
X139385740Y-133399000D01*
X139474260Y-133399000D01*
X139540443Y-133405519D01*
X139540443Y-133405519D01*
G37*
G36*
X142080443Y-133405519D02*
G01*
X142146627Y-133412037D01*
X142316466Y-133463557D01*
X142472991Y-133547222D01*
X142508729Y-133576552D01*
X142610186Y-133659814D01*
X142693448Y-133761271D01*
X142722778Y-133797009D01*
X142806443Y-133953534D01*
X142857963Y-134123373D01*
X142875359Y-134300000D01*
X142857963Y-134476627D01*
X142806443Y-134646466D01*
X142722778Y-134802991D01*
X142693448Y-134838729D01*
X142610186Y-134940186D01*
X142508729Y-135023448D01*
X142472991Y-135052778D01*
X142316466Y-135136443D01*
X142146627Y-135187963D01*
X142080443Y-135194481D01*
X142014260Y-135201000D01*
X141925740Y-135201000D01*
X141859557Y-135194481D01*
X141793373Y-135187963D01*
X141623534Y-135136443D01*
X141467009Y-135052778D01*
X141431271Y-135023448D01*
X141329814Y-134940186D01*
X141246552Y-134838729D01*
X141217222Y-134802991D01*
X141133557Y-134646466D01*
X141082037Y-134476627D01*
X141064641Y-134300000D01*
X141082037Y-134123373D01*
X141133557Y-133953534D01*
X141217222Y-133797009D01*
X141246552Y-133761271D01*
X141329814Y-133659814D01*
X141431271Y-133576552D01*
X141467009Y-133547222D01*
X141623534Y-133463557D01*
X141793373Y-133412037D01*
X141859557Y-133405519D01*
X141925740Y-133399000D01*
X142014260Y-133399000D01*
X142080443Y-133405519D01*
X142080443Y-133405519D01*
G37*
G36*
X131920443Y-133405519D02*
G01*
X131986627Y-133412037D01*
X132156466Y-133463557D01*
X132312991Y-133547222D01*
X132348729Y-133576552D01*
X132450186Y-133659814D01*
X132533448Y-133761271D01*
X132562778Y-133797009D01*
X132646443Y-133953534D01*
X132697963Y-134123373D01*
X132715359Y-134300000D01*
X132697963Y-134476627D01*
X132646443Y-134646466D01*
X132562778Y-134802991D01*
X132533448Y-134838729D01*
X132450186Y-134940186D01*
X132348729Y-135023448D01*
X132312991Y-135052778D01*
X132156466Y-135136443D01*
X131986627Y-135187963D01*
X131920443Y-135194481D01*
X131854260Y-135201000D01*
X131765740Y-135201000D01*
X131699557Y-135194481D01*
X131633373Y-135187963D01*
X131463534Y-135136443D01*
X131307009Y-135052778D01*
X131271271Y-135023448D01*
X131169814Y-134940186D01*
X131086552Y-134838729D01*
X131057222Y-134802991D01*
X130973557Y-134646466D01*
X130922037Y-134476627D01*
X130904641Y-134300000D01*
X130922037Y-134123373D01*
X130973557Y-133953534D01*
X131057222Y-133797009D01*
X131086552Y-133761271D01*
X131169814Y-133659814D01*
X131271271Y-133576552D01*
X131307009Y-133547222D01*
X131463534Y-133463557D01*
X131633373Y-133412037D01*
X131699557Y-133405519D01*
X131765740Y-133399000D01*
X131854260Y-133399000D01*
X131920443Y-133405519D01*
X131920443Y-133405519D01*
G37*
G36*
X52650443Y-113875519D02*
G01*
X52716627Y-113882037D01*
X52886466Y-113933557D01*
X53042991Y-114017222D01*
X53078729Y-114046552D01*
X53180186Y-114129814D01*
X53263448Y-114231271D01*
X53292778Y-114267009D01*
X53376443Y-114423534D01*
X53427963Y-114593373D01*
X53445359Y-114770000D01*
X53427963Y-114946627D01*
X53376443Y-115116466D01*
X53292778Y-115272991D01*
X53263448Y-115308729D01*
X53180186Y-115410186D01*
X53078729Y-115493448D01*
X53042991Y-115522778D01*
X52886466Y-115606443D01*
X52716627Y-115657963D01*
X52650442Y-115664482D01*
X52584260Y-115671000D01*
X52495740Y-115671000D01*
X52429558Y-115664482D01*
X52363373Y-115657963D01*
X52193534Y-115606443D01*
X52037009Y-115522778D01*
X52001271Y-115493448D01*
X51899814Y-115410186D01*
X51816552Y-115308729D01*
X51787222Y-115272991D01*
X51703557Y-115116466D01*
X51652037Y-114946627D01*
X51634641Y-114770000D01*
X51652037Y-114593373D01*
X51703557Y-114423534D01*
X51787222Y-114267009D01*
X51816552Y-114231271D01*
X51899814Y-114129814D01*
X52001271Y-114046552D01*
X52037009Y-114017222D01*
X52193534Y-113933557D01*
X52363373Y-113882037D01*
X52429557Y-113875519D01*
X52495740Y-113869000D01*
X52584260Y-113869000D01*
X52650443Y-113875519D01*
X52650443Y-113875519D01*
G37*
G36*
X98776000Y-113651000D02*
G01*
X90124000Y-113651000D01*
X90124000Y-112049000D01*
X98776000Y-112049000D01*
X98776000Y-113651000D01*
X98776000Y-113651000D01*
G37*
G36*
X52650442Y-111335518D02*
G01*
X52716627Y-111342037D01*
X52886466Y-111393557D01*
X53042991Y-111477222D01*
X53078729Y-111506552D01*
X53180186Y-111589814D01*
X53263448Y-111691271D01*
X53292778Y-111727009D01*
X53376443Y-111883534D01*
X53427963Y-112053373D01*
X53445359Y-112230000D01*
X53427963Y-112406627D01*
X53376443Y-112576466D01*
X53292778Y-112732991D01*
X53263448Y-112768729D01*
X53180186Y-112870186D01*
X53078729Y-112953448D01*
X53042991Y-112982778D01*
X52886466Y-113066443D01*
X52716627Y-113117963D01*
X52650442Y-113124482D01*
X52584260Y-113131000D01*
X52495740Y-113131000D01*
X52429558Y-113124482D01*
X52363373Y-113117963D01*
X52193534Y-113066443D01*
X52037009Y-112982778D01*
X52001271Y-112953448D01*
X51899814Y-112870186D01*
X51816552Y-112768729D01*
X51787222Y-112732991D01*
X51703557Y-112576466D01*
X51652037Y-112406627D01*
X51634641Y-112230000D01*
X51652037Y-112053373D01*
X51703557Y-111883534D01*
X51787222Y-111727009D01*
X51816552Y-111691271D01*
X51899814Y-111589814D01*
X52001271Y-111506552D01*
X52037009Y-111477222D01*
X52193534Y-111393557D01*
X52363373Y-111342037D01*
X52429558Y-111335518D01*
X52495740Y-111329000D01*
X52584260Y-111329000D01*
X52650442Y-111335518D01*
X52650442Y-111335518D01*
G37*
G36*
X89551000Y-111476000D02*
G01*
X87949000Y-111476000D01*
X87949000Y-102824000D01*
X89551000Y-102824000D01*
X89551000Y-111476000D01*
X89551000Y-111476000D01*
G37*
G36*
X100951000Y-111476000D02*
G01*
X99349000Y-111476000D01*
X99349000Y-102824000D01*
X100951000Y-102824000D01*
X100951000Y-111476000D01*
X100951000Y-111476000D01*
G37*
G36*
X52650442Y-108795518D02*
G01*
X52716627Y-108802037D01*
X52886466Y-108853557D01*
X53042991Y-108937222D01*
X53078729Y-108966552D01*
X53180186Y-109049814D01*
X53263448Y-109151271D01*
X53292778Y-109187009D01*
X53376443Y-109343534D01*
X53427963Y-109513373D01*
X53445359Y-109690000D01*
X53427963Y-109866627D01*
X53376443Y-110036466D01*
X53292778Y-110192991D01*
X53263448Y-110228729D01*
X53180186Y-110330186D01*
X53078729Y-110413448D01*
X53042991Y-110442778D01*
X52886466Y-110526443D01*
X52716627Y-110577963D01*
X52650442Y-110584482D01*
X52584260Y-110591000D01*
X52495740Y-110591000D01*
X52429558Y-110584482D01*
X52363373Y-110577963D01*
X52193534Y-110526443D01*
X52037009Y-110442778D01*
X52001271Y-110413448D01*
X51899814Y-110330186D01*
X51816552Y-110228729D01*
X51787222Y-110192991D01*
X51703557Y-110036466D01*
X51652037Y-109866627D01*
X51634641Y-109690000D01*
X51652037Y-109513373D01*
X51703557Y-109343534D01*
X51787222Y-109187009D01*
X51816552Y-109151271D01*
X51899814Y-109049814D01*
X52001271Y-108966552D01*
X52037009Y-108937222D01*
X52193534Y-108853557D01*
X52363373Y-108802037D01*
X52429558Y-108795518D01*
X52495740Y-108789000D01*
X52584260Y-108789000D01*
X52650442Y-108795518D01*
X52650442Y-108795518D01*
G37*
G36*
X52650443Y-106255519D02*
G01*
X52716627Y-106262037D01*
X52886466Y-106313557D01*
X53042991Y-106397222D01*
X53078729Y-106426552D01*
X53180186Y-106509814D01*
X53263448Y-106611271D01*
X53292778Y-106647009D01*
X53376443Y-106803534D01*
X53427963Y-106973373D01*
X53445359Y-107150000D01*
X53427963Y-107326627D01*
X53376443Y-107496466D01*
X53292778Y-107652991D01*
X53263448Y-107688729D01*
X53180186Y-107790186D01*
X53078729Y-107873448D01*
X53042991Y-107902778D01*
X52886466Y-107986443D01*
X52716627Y-108037963D01*
X52650443Y-108044481D01*
X52584260Y-108051000D01*
X52495740Y-108051000D01*
X52429557Y-108044481D01*
X52363373Y-108037963D01*
X52193534Y-107986443D01*
X52037009Y-107902778D01*
X52001271Y-107873448D01*
X51899814Y-107790186D01*
X51816552Y-107688729D01*
X51787222Y-107652991D01*
X51703557Y-107496466D01*
X51652037Y-107326627D01*
X51634641Y-107150000D01*
X51652037Y-106973373D01*
X51703557Y-106803534D01*
X51787222Y-106647009D01*
X51816552Y-106611271D01*
X51899814Y-106509814D01*
X52001271Y-106426552D01*
X52037009Y-106397222D01*
X52193534Y-106313557D01*
X52363373Y-106262037D01*
X52429557Y-106255519D01*
X52495740Y-106249000D01*
X52584260Y-106249000D01*
X52650443Y-106255519D01*
X52650443Y-106255519D01*
G37*
G36*
X53441000Y-105511000D02*
G01*
X51639000Y-105511000D01*
X51639000Y-103709000D01*
X53441000Y-103709000D01*
X53441000Y-105511000D01*
X53441000Y-105511000D01*
G37*
G36*
X78421000Y-102621000D02*
G01*
X77019000Y-102621000D01*
X77019000Y-101519000D01*
X78421000Y-101519000D01*
X78421000Y-102621000D01*
X78421000Y-102621000D01*
G37*
G36*
X76321000Y-102621000D02*
G01*
X74919000Y-102621000D01*
X74919000Y-101519000D01*
X76321000Y-101519000D01*
X76321000Y-102621000D01*
X76321000Y-102621000D01*
G37*
G36*
X98776000Y-102251000D02*
G01*
X90124000Y-102251000D01*
X90124000Y-100649000D01*
X98776000Y-100649000D01*
X98776000Y-102251000D01*
X98776000Y-102251000D01*
G37*
G36*
X127631000Y-95201000D02*
G01*
X125829000Y-95201000D01*
X125829000Y-93399000D01*
X127631000Y-93399000D01*
X127631000Y-95201000D01*
X127631000Y-95201000D01*
G37*
G36*
X142080443Y-93405519D02*
G01*
X142146627Y-93412037D01*
X142316466Y-93463557D01*
X142472991Y-93547222D01*
X142508729Y-93576552D01*
X142610186Y-93659814D01*
X142693448Y-93761271D01*
X142722778Y-93797009D01*
X142806443Y-93953534D01*
X142857963Y-94123373D01*
X142875359Y-94300000D01*
X142857963Y-94476627D01*
X142806443Y-94646466D01*
X142722778Y-94802991D01*
X142693448Y-94838729D01*
X142610186Y-94940186D01*
X142508729Y-95023448D01*
X142472991Y-95052778D01*
X142316466Y-95136443D01*
X142146627Y-95187963D01*
X142080443Y-95194481D01*
X142014260Y-95201000D01*
X141925740Y-95201000D01*
X141859557Y-95194481D01*
X141793373Y-95187963D01*
X141623534Y-95136443D01*
X141467009Y-95052778D01*
X141431271Y-95023448D01*
X141329814Y-94940186D01*
X141246552Y-94838729D01*
X141217222Y-94802991D01*
X141133557Y-94646466D01*
X141082037Y-94476627D01*
X141064641Y-94300000D01*
X141082037Y-94123373D01*
X141133557Y-93953534D01*
X141217222Y-93797009D01*
X141246552Y-93761271D01*
X141329814Y-93659814D01*
X141431271Y-93576552D01*
X141467009Y-93547222D01*
X141623534Y-93463557D01*
X141793373Y-93412037D01*
X141859558Y-93405518D01*
X141925740Y-93399000D01*
X142014260Y-93399000D01*
X142080443Y-93405519D01*
X142080443Y-93405519D01*
G37*
G36*
X144620443Y-93405519D02*
G01*
X144686627Y-93412037D01*
X144856466Y-93463557D01*
X145012991Y-93547222D01*
X145048729Y-93576552D01*
X145150186Y-93659814D01*
X145233448Y-93761271D01*
X145262778Y-93797009D01*
X145346443Y-93953534D01*
X145397963Y-94123373D01*
X145415359Y-94300000D01*
X145397963Y-94476627D01*
X145346443Y-94646466D01*
X145262778Y-94802991D01*
X145233448Y-94838729D01*
X145150186Y-94940186D01*
X145048729Y-95023448D01*
X145012991Y-95052778D01*
X144856466Y-95136443D01*
X144686627Y-95187963D01*
X144620443Y-95194481D01*
X144554260Y-95201000D01*
X144465740Y-95201000D01*
X144399557Y-95194481D01*
X144333373Y-95187963D01*
X144163534Y-95136443D01*
X144007009Y-95052778D01*
X143971271Y-95023448D01*
X143869814Y-94940186D01*
X143786552Y-94838729D01*
X143757222Y-94802991D01*
X143673557Y-94646466D01*
X143622037Y-94476627D01*
X143604641Y-94300000D01*
X143622037Y-94123373D01*
X143673557Y-93953534D01*
X143757222Y-93797009D01*
X143786552Y-93761271D01*
X143869814Y-93659814D01*
X143971271Y-93576552D01*
X144007009Y-93547222D01*
X144163534Y-93463557D01*
X144333373Y-93412037D01*
X144399558Y-93405518D01*
X144465740Y-93399000D01*
X144554260Y-93399000D01*
X144620443Y-93405519D01*
X144620443Y-93405519D01*
G37*
G36*
X147160443Y-93405519D02*
G01*
X147226627Y-93412037D01*
X147396466Y-93463557D01*
X147552991Y-93547222D01*
X147588729Y-93576552D01*
X147690186Y-93659814D01*
X147773448Y-93761271D01*
X147802778Y-93797009D01*
X147886443Y-93953534D01*
X147937963Y-94123373D01*
X147955359Y-94300000D01*
X147937963Y-94476627D01*
X147886443Y-94646466D01*
X147802778Y-94802991D01*
X147773448Y-94838729D01*
X147690186Y-94940186D01*
X147588729Y-95023448D01*
X147552991Y-95052778D01*
X147396466Y-95136443D01*
X147226627Y-95187963D01*
X147160443Y-95194481D01*
X147094260Y-95201000D01*
X147005740Y-95201000D01*
X146939557Y-95194481D01*
X146873373Y-95187963D01*
X146703534Y-95136443D01*
X146547009Y-95052778D01*
X146511271Y-95023448D01*
X146409814Y-94940186D01*
X146326552Y-94838729D01*
X146297222Y-94802991D01*
X146213557Y-94646466D01*
X146162037Y-94476627D01*
X146144641Y-94300000D01*
X146162037Y-94123373D01*
X146213557Y-93953534D01*
X146297222Y-93797009D01*
X146326552Y-93761271D01*
X146409814Y-93659814D01*
X146511271Y-93576552D01*
X146547009Y-93547222D01*
X146703534Y-93463557D01*
X146873373Y-93412037D01*
X146939558Y-93405518D01*
X147005740Y-93399000D01*
X147094260Y-93399000D01*
X147160443Y-93405519D01*
X147160443Y-93405519D01*
G37*
G36*
X139540443Y-93405519D02*
G01*
X139606627Y-93412037D01*
X139776466Y-93463557D01*
X139932991Y-93547222D01*
X139968729Y-93576552D01*
X140070186Y-93659814D01*
X140153448Y-93761271D01*
X140182778Y-93797009D01*
X140266443Y-93953534D01*
X140317963Y-94123373D01*
X140335359Y-94300000D01*
X140317963Y-94476627D01*
X140266443Y-94646466D01*
X140182778Y-94802991D01*
X140153448Y-94838729D01*
X140070186Y-94940186D01*
X139968729Y-95023448D01*
X139932991Y-95052778D01*
X139776466Y-95136443D01*
X139606627Y-95187963D01*
X139540443Y-95194481D01*
X139474260Y-95201000D01*
X139385740Y-95201000D01*
X139319557Y-95194481D01*
X139253373Y-95187963D01*
X139083534Y-95136443D01*
X138927009Y-95052778D01*
X138891271Y-95023448D01*
X138789814Y-94940186D01*
X138706552Y-94838729D01*
X138677222Y-94802991D01*
X138593557Y-94646466D01*
X138542037Y-94476627D01*
X138524641Y-94300000D01*
X138542037Y-94123373D01*
X138593557Y-93953534D01*
X138677222Y-93797009D01*
X138706552Y-93761271D01*
X138789814Y-93659814D01*
X138891271Y-93576552D01*
X138927009Y-93547222D01*
X139083534Y-93463557D01*
X139253373Y-93412037D01*
X139319558Y-93405518D01*
X139385740Y-93399000D01*
X139474260Y-93399000D01*
X139540443Y-93405519D01*
X139540443Y-93405519D01*
G37*
G36*
X131920443Y-93405519D02*
G01*
X131986627Y-93412037D01*
X132156466Y-93463557D01*
X132312991Y-93547222D01*
X132348729Y-93576552D01*
X132450186Y-93659814D01*
X132533448Y-93761271D01*
X132562778Y-93797009D01*
X132646443Y-93953534D01*
X132697963Y-94123373D01*
X132715359Y-94300000D01*
X132697963Y-94476627D01*
X132646443Y-94646466D01*
X132562778Y-94802991D01*
X132533448Y-94838729D01*
X132450186Y-94940186D01*
X132348729Y-95023448D01*
X132312991Y-95052778D01*
X132156466Y-95136443D01*
X131986627Y-95187963D01*
X131920443Y-95194481D01*
X131854260Y-95201000D01*
X131765740Y-95201000D01*
X131699557Y-95194481D01*
X131633373Y-95187963D01*
X131463534Y-95136443D01*
X131307009Y-95052778D01*
X131271271Y-95023448D01*
X131169814Y-94940186D01*
X131086552Y-94838729D01*
X131057222Y-94802991D01*
X130973557Y-94646466D01*
X130922037Y-94476627D01*
X130904641Y-94300000D01*
X130922037Y-94123373D01*
X130973557Y-93953534D01*
X131057222Y-93797009D01*
X131086552Y-93761271D01*
X131169814Y-93659814D01*
X131271271Y-93576552D01*
X131307009Y-93547222D01*
X131463534Y-93463557D01*
X131633373Y-93412037D01*
X131699558Y-93405518D01*
X131765740Y-93399000D01*
X131854260Y-93399000D01*
X131920443Y-93405519D01*
X131920443Y-93405519D01*
G37*
G36*
X134460443Y-93405519D02*
G01*
X134526627Y-93412037D01*
X134696466Y-93463557D01*
X134852991Y-93547222D01*
X134888729Y-93576552D01*
X134990186Y-93659814D01*
X135073448Y-93761271D01*
X135102778Y-93797009D01*
X135186443Y-93953534D01*
X135237963Y-94123373D01*
X135255359Y-94300000D01*
X135237963Y-94476627D01*
X135186443Y-94646466D01*
X135102778Y-94802991D01*
X135073448Y-94838729D01*
X134990186Y-94940186D01*
X134888729Y-95023448D01*
X134852991Y-95052778D01*
X134696466Y-95136443D01*
X134526627Y-95187963D01*
X134460443Y-95194481D01*
X134394260Y-95201000D01*
X134305740Y-95201000D01*
X134239557Y-95194481D01*
X134173373Y-95187963D01*
X134003534Y-95136443D01*
X133847009Y-95052778D01*
X133811271Y-95023448D01*
X133709814Y-94940186D01*
X133626552Y-94838729D01*
X133597222Y-94802991D01*
X133513557Y-94646466D01*
X133462037Y-94476627D01*
X133444641Y-94300000D01*
X133462037Y-94123373D01*
X133513557Y-93953534D01*
X133597222Y-93797009D01*
X133626552Y-93761271D01*
X133709814Y-93659814D01*
X133811271Y-93576552D01*
X133847009Y-93547222D01*
X134003534Y-93463557D01*
X134173373Y-93412037D01*
X134239558Y-93405518D01*
X134305740Y-93399000D01*
X134394260Y-93399000D01*
X134460443Y-93405519D01*
X134460443Y-93405519D01*
G37*
G36*
X137000443Y-93405519D02*
G01*
X137066627Y-93412037D01*
X137236466Y-93463557D01*
X137392991Y-93547222D01*
X137428729Y-93576552D01*
X137530186Y-93659814D01*
X137613448Y-93761271D01*
X137642778Y-93797009D01*
X137726443Y-93953534D01*
X137777963Y-94123373D01*
X137795359Y-94300000D01*
X137777963Y-94476627D01*
X137726443Y-94646466D01*
X137642778Y-94802991D01*
X137613448Y-94838729D01*
X137530186Y-94940186D01*
X137428729Y-95023448D01*
X137392991Y-95052778D01*
X137236466Y-95136443D01*
X137066627Y-95187963D01*
X137000443Y-95194481D01*
X136934260Y-95201000D01*
X136845740Y-95201000D01*
X136779557Y-95194481D01*
X136713373Y-95187963D01*
X136543534Y-95136443D01*
X136387009Y-95052778D01*
X136351271Y-95023448D01*
X136249814Y-94940186D01*
X136166552Y-94838729D01*
X136137222Y-94802991D01*
X136053557Y-94646466D01*
X136002037Y-94476627D01*
X135984641Y-94300000D01*
X136002037Y-94123373D01*
X136053557Y-93953534D01*
X136137222Y-93797009D01*
X136166552Y-93761271D01*
X136249814Y-93659814D01*
X136351271Y-93576552D01*
X136387009Y-93547222D01*
X136543534Y-93463557D01*
X136713373Y-93412037D01*
X136779558Y-93405518D01*
X136845740Y-93399000D01*
X136934260Y-93399000D01*
X137000443Y-93405519D01*
X137000443Y-93405519D01*
G37*
G36*
X129380443Y-93405519D02*
G01*
X129446627Y-93412037D01*
X129616466Y-93463557D01*
X129772991Y-93547222D01*
X129808729Y-93576552D01*
X129910186Y-93659814D01*
X129993448Y-93761271D01*
X130022778Y-93797009D01*
X130106443Y-93953534D01*
X130157963Y-94123373D01*
X130175359Y-94300000D01*
X130157963Y-94476627D01*
X130106443Y-94646466D01*
X130022778Y-94802991D01*
X129993448Y-94838729D01*
X129910186Y-94940186D01*
X129808729Y-95023448D01*
X129772991Y-95052778D01*
X129616466Y-95136443D01*
X129446627Y-95187963D01*
X129380443Y-95194481D01*
X129314260Y-95201000D01*
X129225740Y-95201000D01*
X129159557Y-95194481D01*
X129093373Y-95187963D01*
X128923534Y-95136443D01*
X128767009Y-95052778D01*
X128731271Y-95023448D01*
X128629814Y-94940186D01*
X128546552Y-94838729D01*
X128517222Y-94802991D01*
X128433557Y-94646466D01*
X128382037Y-94476627D01*
X128364641Y-94300000D01*
X128382037Y-94123373D01*
X128433557Y-93953534D01*
X128517222Y-93797009D01*
X128546552Y-93761271D01*
X128629814Y-93659814D01*
X128731271Y-93576552D01*
X128767009Y-93547222D01*
X128923534Y-93463557D01*
X129093373Y-93412037D01*
X129159558Y-93405518D01*
X129225740Y-93399000D01*
X129314260Y-93399000D01*
X129380443Y-93405519D01*
X129380443Y-93405519D01*
G37*
G36*
X68101000Y-94031000D02*
G01*
X65999000Y-94031000D01*
X65999000Y-92329000D01*
X68101000Y-92329000D01*
X68101000Y-94031000D01*
X68101000Y-94031000D01*
G37*
G36*
X72101000Y-94031000D02*
G01*
X69999000Y-94031000D01*
X69999000Y-92329000D01*
X72101000Y-92329000D01*
X72101000Y-94031000D01*
X72101000Y-94031000D01*
G37*
G36*
X56831000Y-93096000D02*
G01*
X55429000Y-93096000D01*
X55429000Y-91994000D01*
X56831000Y-91994000D01*
X56831000Y-93096000D01*
X56831000Y-93096000D01*
G37*
G36*
X54731000Y-93096000D02*
G01*
X53329000Y-93096000D01*
X53329000Y-91994000D01*
X54731000Y-91994000D01*
X54731000Y-93096000D01*
X54731000Y-93096000D01*
G37*
G36*
X108971000Y-92391000D02*
G01*
X107869000Y-92391000D01*
X107869000Y-90989000D01*
X108971000Y-90989000D01*
X108971000Y-92391000D01*
X108971000Y-92391000D01*
G37*
G36*
X106431000Y-92391000D02*
G01*
X105329000Y-92391000D01*
X105329000Y-90989000D01*
X106431000Y-90989000D01*
X106431000Y-92391000D01*
X106431000Y-92391000D01*
G37*
G36*
X57131000Y-90681000D02*
G01*
X55529000Y-90681000D01*
X55529000Y-89329000D01*
X57131000Y-89329000D01*
X57131000Y-90681000D01*
X57131000Y-90681000D01*
G37*
G36*
X54631000Y-90681000D02*
G01*
X53029000Y-90681000D01*
X53029000Y-89329000D01*
X54631000Y-89329000D01*
X54631000Y-90681000D01*
X54631000Y-90681000D01*
G37*
G36*
X72776000Y-90326000D02*
G01*
X71224000Y-90326000D01*
X71224000Y-85874000D01*
X72776000Y-85874000D01*
X72776000Y-90326000D01*
X72776000Y-90326000D01*
G37*
G36*
X66876000Y-90326000D02*
G01*
X65324000Y-90326000D01*
X65324000Y-85874000D01*
X66876000Y-85874000D01*
X66876000Y-90326000D01*
X66876000Y-90326000D01*
G37*
G36*
X108971000Y-90291000D02*
G01*
X107869000Y-90291000D01*
X107869000Y-88889000D01*
X108971000Y-88889000D01*
X108971000Y-90291000D01*
X108971000Y-90291000D01*
G37*
G36*
X106431000Y-90291000D02*
G01*
X105329000Y-90291000D01*
X105329000Y-88889000D01*
X106431000Y-88889000D01*
X106431000Y-90291000D01*
X106431000Y-90291000D01*
G37*
G36*
X53541000Y-86131000D02*
G01*
X51539000Y-86131000D01*
X51539000Y-83029000D01*
X53541000Y-83029000D01*
X53541000Y-86131000D01*
X53541000Y-86131000D01*
G37*
G36*
X78761000Y-84331000D02*
G01*
X77159000Y-84331000D01*
X77159000Y-82979000D01*
X78761000Y-82979000D01*
X78761000Y-84331000D01*
X78761000Y-84331000D01*
G37*
G36*
X81261000Y-84331000D02*
G01*
X79659000Y-84331000D01*
X79659000Y-82979000D01*
X81261000Y-82979000D01*
X81261000Y-84331000D01*
X81261000Y-84331000D01*
G37*
G36*
X108071000Y-82301000D02*
G01*
X106669000Y-82301000D01*
X106669000Y-81199000D01*
X108071000Y-81199000D01*
X108071000Y-82301000D01*
X108071000Y-82301000D01*
G37*
G36*
X110171000Y-82301000D02*
G01*
X108769000Y-82301000D01*
X108769000Y-81199000D01*
X110171000Y-81199000D01*
X110171000Y-82301000D01*
X110171000Y-82301000D01*
G37*
G36*
X56791000Y-82056000D02*
G01*
X54489000Y-82056000D01*
X54489000Y-78904000D01*
X56791000Y-78904000D01*
X56791000Y-82056000D01*
X56791000Y-82056000D01*
G37*
G36*
X78691000Y-81806000D02*
G01*
X77029000Y-81806000D01*
X77029000Y-79154000D01*
X78691000Y-79154000D01*
X78691000Y-81806000D01*
X78691000Y-81806000D01*
G37*
G36*
X81391000Y-81806000D02*
G01*
X79729000Y-81806000D01*
X79729000Y-81054000D01*
X81391000Y-81054000D01*
X81391000Y-81806000D01*
X81391000Y-81806000D01*
G37*
G36*
X81391000Y-79906000D02*
G01*
X79729000Y-79906000D01*
X79729000Y-79154000D01*
X81391000Y-79154000D01*
X81391000Y-79906000D01*
X81391000Y-79906000D01*
G37*
G36*
X110171000Y-79761000D02*
G01*
X108769000Y-79761000D01*
X108769000Y-78659000D01*
X110171000Y-78659000D01*
X110171000Y-79761000D01*
X110171000Y-79761000D01*
G37*
G36*
X108071000Y-79761000D02*
G01*
X106669000Y-79761000D01*
X106669000Y-78659000D01*
X108071000Y-78659000D01*
X108071000Y-79761000D01*
X108071000Y-79761000D01*
G37*
G36*
X53541000Y-77931000D02*
G01*
X51539000Y-77931000D01*
X51539000Y-74829000D01*
X53541000Y-74829000D01*
X53541000Y-77931000D01*
X53541000Y-77931000D01*
G37*
G36*
X81261000Y-77346000D02*
G01*
X79659000Y-77346000D01*
X79659000Y-75994000D01*
X81261000Y-75994000D01*
X81261000Y-77346000D01*
X81261000Y-77346000D01*
G37*
G36*
X78761000Y-77346000D02*
G01*
X77159000Y-77346000D01*
X77159000Y-75994000D01*
X78761000Y-75994000D01*
X78761000Y-77346000D01*
X78761000Y-77346000D01*
G37*
G36*
X108071000Y-77221000D02*
G01*
X106669000Y-77221000D01*
X106669000Y-76119000D01*
X108071000Y-76119000D01*
X108071000Y-77221000D01*
X108071000Y-77221000D01*
G37*
G36*
X110171000Y-77221000D02*
G01*
X108769000Y-77221000D01*
X108769000Y-76119000D01*
X110171000Y-76119000D01*
X110171000Y-77221000D01*
X110171000Y-77221000D01*
G37*
G36*
X66127395Y-69405546D02*
G01*
X66300466Y-69477234D01*
X66300467Y-69477235D01*
X66456227Y-69581310D01*
X66588690Y-69713773D01*
X66588691Y-69713775D01*
X66692766Y-69869534D01*
X66764454Y-70042605D01*
X66801000Y-70226333D01*
X66801000Y-70413667D01*
X66764454Y-70597395D01*
X66692766Y-70770466D01*
X66692765Y-70770467D01*
X66588690Y-70926227D01*
X66456227Y-71058690D01*
X66377818Y-71111081D01*
X66300466Y-71162766D01*
X66127395Y-71234454D01*
X65943667Y-71271000D01*
X65756333Y-71271000D01*
X65572605Y-71234454D01*
X65399534Y-71162766D01*
X65322182Y-71111081D01*
X65243773Y-71058690D01*
X65111310Y-70926227D01*
X65007235Y-70770467D01*
X65007234Y-70770466D01*
X64935546Y-70597395D01*
X64899000Y-70413667D01*
X64899000Y-70226333D01*
X64935546Y-70042605D01*
X65007234Y-69869534D01*
X65111309Y-69713775D01*
X65111310Y-69713773D01*
X65243773Y-69581310D01*
X65399533Y-69477235D01*
X65399534Y-69477234D01*
X65572605Y-69405546D01*
X65756333Y-69369000D01*
X65943667Y-69369000D01*
X66127395Y-69405546D01*
X66127395Y-69405546D01*
G37*
G36*
X72527395Y-69405546D02*
G01*
X72700466Y-69477234D01*
X72700467Y-69477235D01*
X72856227Y-69581310D01*
X72988690Y-69713773D01*
X72988691Y-69713775D01*
X73092766Y-69869534D01*
X73164454Y-70042605D01*
X73201000Y-70226333D01*
X73201000Y-70413667D01*
X73164454Y-70597395D01*
X73092766Y-70770466D01*
X73092765Y-70770467D01*
X72988690Y-70926227D01*
X72856227Y-71058690D01*
X72777818Y-71111081D01*
X72700466Y-71162766D01*
X72527395Y-71234454D01*
X72343667Y-71271000D01*
X72156333Y-71271000D01*
X71972605Y-71234454D01*
X71799534Y-71162766D01*
X71722182Y-71111081D01*
X71643773Y-71058690D01*
X71511310Y-70926227D01*
X71407235Y-70770467D01*
X71407234Y-70770466D01*
X71335546Y-70597395D01*
X71299000Y-70413667D01*
X71299000Y-70226333D01*
X71335546Y-70042605D01*
X71407234Y-69869534D01*
X71511309Y-69713775D01*
X71511310Y-69713773D01*
X71643773Y-69581310D01*
X71799533Y-69477235D01*
X71799534Y-69477234D01*
X71972605Y-69405546D01*
X72156333Y-69369000D01*
X72343667Y-69369000D01*
X72527395Y-69405546D01*
X72527395Y-69405546D01*
G37*
G36*
X69327395Y-69405546D02*
G01*
X69500466Y-69477234D01*
X69500467Y-69477235D01*
X69656227Y-69581310D01*
X69788690Y-69713773D01*
X69788691Y-69713775D01*
X69892766Y-69869534D01*
X69964454Y-70042605D01*
X70001000Y-70226333D01*
X70001000Y-70413667D01*
X69964454Y-70597395D01*
X69892766Y-70770466D01*
X69892765Y-70770467D01*
X69788690Y-70926227D01*
X69656227Y-71058690D01*
X69577818Y-71111081D01*
X69500466Y-71162766D01*
X69327395Y-71234454D01*
X69143667Y-71271000D01*
X68956333Y-71271000D01*
X68772605Y-71234454D01*
X68599534Y-71162766D01*
X68522182Y-71111081D01*
X68443773Y-71058690D01*
X68311310Y-70926227D01*
X68207235Y-70770467D01*
X68207234Y-70770466D01*
X68135546Y-70597395D01*
X68099000Y-70413667D01*
X68099000Y-70226333D01*
X68135546Y-70042605D01*
X68207234Y-69869534D01*
X68311309Y-69713775D01*
X68311310Y-69713773D01*
X68443773Y-69581310D01*
X68599533Y-69477235D01*
X68599534Y-69477234D01*
X68772605Y-69405546D01*
X68956333Y-69369000D01*
X69143667Y-69369000D01*
X69327395Y-69405546D01*
X69327395Y-69405546D01*
G37*
G36*
X92241000Y-70751000D02*
G01*
X91539000Y-70751000D01*
X91539000Y-68149000D01*
X92241000Y-68149000D01*
X92241000Y-70751000D01*
X92241000Y-70751000D01*
G37*
G36*
X90991000Y-70751000D02*
G01*
X90289000Y-70751000D01*
X90289000Y-68149000D01*
X90991000Y-68149000D01*
X90991000Y-70751000D01*
X90991000Y-70751000D01*
G37*
G36*
X110061000Y-70751000D02*
G01*
X109359000Y-70751000D01*
X109359000Y-68149000D01*
X110061000Y-68149000D01*
X110061000Y-70751000D01*
X110061000Y-70751000D01*
G37*
G36*
X111311000Y-70751000D02*
G01*
X110609000Y-70751000D01*
X110609000Y-68149000D01*
X111311000Y-68149000D01*
X111311000Y-70751000D01*
X111311000Y-70751000D01*
G37*
G36*
X112561000Y-70751000D02*
G01*
X111859000Y-70751000D01*
X111859000Y-68149000D01*
X112561000Y-68149000D01*
X112561000Y-70751000D01*
X112561000Y-70751000D01*
G37*
G36*
X121491000Y-70751000D02*
G01*
X120789000Y-70751000D01*
X120789000Y-68149000D01*
X121491000Y-68149000D01*
X121491000Y-70751000D01*
X121491000Y-70751000D01*
G37*
G36*
X122741000Y-70751000D02*
G01*
X122039000Y-70751000D01*
X122039000Y-68149000D01*
X122741000Y-68149000D01*
X122741000Y-70751000D01*
X122741000Y-70751000D01*
G37*
G36*
X125241000Y-70751000D02*
G01*
X124539000Y-70751000D01*
X124539000Y-68149000D01*
X125241000Y-68149000D01*
X125241000Y-70751000D01*
X125241000Y-70751000D01*
G37*
G36*
X99901000Y-70751000D02*
G01*
X99199000Y-70751000D01*
X99199000Y-68149000D01*
X99901000Y-68149000D01*
X99901000Y-70751000D01*
X99901000Y-70751000D01*
G37*
G36*
X101151000Y-70751000D02*
G01*
X100449000Y-70751000D01*
X100449000Y-68149000D01*
X101151000Y-68149000D01*
X101151000Y-70751000D01*
X101151000Y-70751000D01*
G37*
G36*
X102401000Y-70751000D02*
G01*
X101699000Y-70751000D01*
X101699000Y-68149000D01*
X102401000Y-68149000D01*
X102401000Y-70751000D01*
X102401000Y-70751000D01*
G37*
G36*
X120241000Y-70751000D02*
G01*
X119539000Y-70751000D01*
X119539000Y-68149000D01*
X120241000Y-68149000D01*
X120241000Y-70751000D01*
X120241000Y-70751000D01*
G37*
G36*
X89741000Y-70751000D02*
G01*
X89039000Y-70751000D01*
X89039000Y-68149000D01*
X89741000Y-68149000D01*
X89741000Y-70751000D01*
X89741000Y-70751000D01*
G37*
G36*
X123991000Y-70751000D02*
G01*
X123289000Y-70751000D01*
X123289000Y-68149000D01*
X123991000Y-68149000D01*
X123991000Y-70751000D01*
X123991000Y-70751000D01*
G37*
G36*
X128291000Y-67151000D02*
G01*
X126189000Y-67151000D01*
X126189000Y-63549000D01*
X128291000Y-63549000D01*
X128291000Y-67151000D01*
X128291000Y-67151000D01*
G37*
G36*
X88091000Y-67151000D02*
G01*
X85989000Y-67151000D01*
X85989000Y-63549000D01*
X88091000Y-63549000D01*
X88091000Y-67151000D01*
X88091000Y-67151000D01*
G37*
G36*
X98251000Y-67151000D02*
G01*
X96149000Y-67151000D01*
X96149000Y-63549000D01*
X98251000Y-63549000D01*
X98251000Y-67151000D01*
X98251000Y-67151000D01*
G37*
G36*
X105451000Y-67151000D02*
G01*
X103349000Y-67151000D01*
X103349000Y-63549000D01*
X105451000Y-63549000D01*
X105451000Y-67151000D01*
X105451000Y-67151000D01*
G37*
G36*
X108411000Y-67151000D02*
G01*
X106309000Y-67151000D01*
X106309000Y-63549000D01*
X108411000Y-63549000D01*
X108411000Y-67151000D01*
X108411000Y-67151000D01*
G37*
G36*
X95291000Y-67151000D02*
G01*
X93189000Y-67151000D01*
X93189000Y-63549000D01*
X95291000Y-63549000D01*
X95291000Y-67151000D01*
X95291000Y-67151000D01*
G37*
G36*
X115611000Y-67151000D02*
G01*
X113509000Y-67151000D01*
X113509000Y-63549000D01*
X115611000Y-63549000D01*
X115611000Y-67151000D01*
X115611000Y-67151000D01*
G37*
G36*
X118591000Y-67151000D02*
G01*
X116489000Y-67151000D01*
X116489000Y-63549000D01*
X118591000Y-63549000D01*
X118591000Y-67151000D01*
X118591000Y-67151000D01*
G37*
G36*
X73931000Y-64481000D02*
G01*
X72929000Y-64481000D01*
X72929000Y-62179000D01*
X73931000Y-62179000D01*
X73931000Y-64481000D01*
X73931000Y-64481000D01*
G37*
G36*
X75331000Y-64481000D02*
G01*
X74329000Y-64481000D01*
X74329000Y-62179000D01*
X75331000Y-62179000D01*
X75331000Y-64481000D01*
X75331000Y-64481000D01*
G37*
G36*
X83136000Y-63781000D02*
G01*
X81634000Y-63781000D01*
X81634000Y-61979000D01*
X83136000Y-61979000D01*
X83136000Y-63781000D01*
X83136000Y-63781000D01*
G37*
G36*
X68531000Y-63781000D02*
G01*
X67029000Y-63781000D01*
X67029000Y-61979000D01*
X68531000Y-61979000D01*
X68531000Y-63781000D01*
X68531000Y-63781000D01*
G37*
G36*
X80396000Y-63306000D02*
G01*
X79294000Y-63306000D01*
X79294000Y-61804000D01*
X80396000Y-61804000D01*
X80396000Y-63306000D01*
X80396000Y-63306000D01*
G37*
G36*
X77856000Y-63306000D02*
G01*
X76754000Y-63306000D01*
X76754000Y-61804000D01*
X77856000Y-61804000D01*
X77856000Y-63306000D01*
X77856000Y-63306000D01*
G37*
G36*
X65791000Y-63306000D02*
G01*
X64689000Y-63306000D01*
X64689000Y-61804000D01*
X65791000Y-61804000D01*
X65791000Y-63306000D01*
X65791000Y-63306000D01*
G37*
G36*
X70871000Y-63306000D02*
G01*
X69769000Y-63306000D01*
X69769000Y-61804000D01*
X70871000Y-61804000D01*
X70871000Y-63306000D01*
X70871000Y-63306000D01*
G37*
G36*
X63251000Y-63306000D02*
G01*
X62149000Y-63306000D01*
X62149000Y-61804000D01*
X63251000Y-61804000D01*
X63251000Y-63306000D01*
X63251000Y-63306000D01*
G37*
G36*
X77856000Y-61056000D02*
G01*
X76754000Y-61056000D01*
X76754000Y-59554000D01*
X77856000Y-59554000D01*
X77856000Y-61056000D01*
X77856000Y-61056000D01*
G37*
G36*
X80396000Y-61056000D02*
G01*
X79294000Y-61056000D01*
X79294000Y-59554000D01*
X80396000Y-59554000D01*
X80396000Y-61056000D01*
X80396000Y-61056000D01*
G37*
G36*
X70871000Y-61056000D02*
G01*
X69769000Y-61056000D01*
X69769000Y-59554000D01*
X70871000Y-59554000D01*
X70871000Y-61056000D01*
X70871000Y-61056000D01*
G37*
G36*
X63251000Y-61056000D02*
G01*
X62149000Y-61056000D01*
X62149000Y-59554000D01*
X63251000Y-59554000D01*
X63251000Y-61056000D01*
X63251000Y-61056000D01*
G37*
G36*
X65791000Y-61056000D02*
G01*
X64689000Y-61056000D01*
X64689000Y-59554000D01*
X65791000Y-59554000D01*
X65791000Y-61056000D01*
X65791000Y-61056000D01*
G37*
G36*
X68531000Y-60881000D02*
G01*
X67029000Y-60881000D01*
X67029000Y-59079000D01*
X68531000Y-59079000D01*
X68531000Y-60881000D01*
X68531000Y-60881000D01*
G37*
G36*
X83136000Y-60881000D02*
G01*
X81634000Y-60881000D01*
X81634000Y-59079000D01*
X83136000Y-59079000D01*
X83136000Y-60881000D01*
X83136000Y-60881000D01*
G37*
G36*
X75331000Y-60681000D02*
G01*
X74329000Y-60681000D01*
X74329000Y-58379000D01*
X75331000Y-58379000D01*
X75331000Y-60681000D01*
X75331000Y-60681000D01*
G37*
G36*
X73931000Y-60681000D02*
G01*
X72929000Y-60681000D01*
X72929000Y-58379000D01*
X73931000Y-58379000D01*
X73931000Y-60681000D01*
X73931000Y-60681000D01*
G37*
G36*
X123326000Y-59321000D02*
G01*
X122624000Y-59321000D01*
X122624000Y-56719000D01*
X123326000Y-56719000D01*
X123326000Y-59321000D01*
X123326000Y-59321000D01*
G37*
G36*
X108146000Y-59321000D02*
G01*
X107444000Y-59321000D01*
X107444000Y-56719000D01*
X108146000Y-56719000D01*
X108146000Y-59321000D01*
X108146000Y-59321000D01*
G37*
G36*
X120826000Y-59321000D02*
G01*
X120124000Y-59321000D01*
X120124000Y-56719000D01*
X120826000Y-56719000D01*
X120826000Y-59321000D01*
X120826000Y-59321000D01*
G37*
G36*
X99256000Y-59321000D02*
G01*
X98554000Y-59321000D01*
X98554000Y-56719000D01*
X99256000Y-56719000D01*
X99256000Y-59321000D01*
X99256000Y-59321000D01*
G37*
G36*
X100506000Y-59321000D02*
G01*
X99804000Y-59321000D01*
X99804000Y-56719000D01*
X100506000Y-56719000D01*
X100506000Y-59321000D01*
X100506000Y-59321000D01*
G37*
G36*
X119576000Y-59321000D02*
G01*
X118874000Y-59321000D01*
X118874000Y-56719000D01*
X119576000Y-56719000D01*
X119576000Y-59321000D01*
X119576000Y-59321000D01*
G37*
G36*
X118326000Y-59321000D02*
G01*
X117624000Y-59321000D01*
X117624000Y-56719000D01*
X118326000Y-56719000D01*
X118326000Y-59321000D01*
X118326000Y-59321000D01*
G37*
G36*
X117076000Y-59321000D02*
G01*
X116374000Y-59321000D01*
X116374000Y-56719000D01*
X117076000Y-56719000D01*
X117076000Y-59321000D01*
X117076000Y-59321000D01*
G37*
G36*
X122076000Y-59321000D02*
G01*
X121374000Y-59321000D01*
X121374000Y-56719000D01*
X122076000Y-56719000D01*
X122076000Y-59321000D01*
X122076000Y-59321000D01*
G37*
G36*
X109396000Y-59321000D02*
G01*
X108694000Y-59321000D01*
X108694000Y-56719000D01*
X109396000Y-56719000D01*
X109396000Y-59321000D01*
X109396000Y-59321000D01*
G37*
G36*
X91616000Y-59321000D02*
G01*
X90914000Y-59321000D01*
X90914000Y-56719000D01*
X91616000Y-56719000D01*
X91616000Y-59321000D01*
X91616000Y-59321000D01*
G37*
G36*
X90366000Y-59321000D02*
G01*
X89664000Y-59321000D01*
X89664000Y-56719000D01*
X90366000Y-56719000D01*
X90366000Y-59321000D01*
X90366000Y-59321000D01*
G37*
G36*
X145448903Y-52743213D02*
G01*
X145671177Y-52787426D01*
X146089932Y-52960880D01*
X146466802Y-53212696D01*
X146787304Y-53533198D01*
X147039120Y-53910068D01*
X147212574Y-54328823D01*
X147301000Y-54773371D01*
X147301000Y-55226629D01*
X147212574Y-55671177D01*
X147039120Y-56089932D01*
X146787304Y-56466802D01*
X146466802Y-56787304D01*
X146089932Y-57039120D01*
X145671177Y-57212574D01*
X145448903Y-57256787D01*
X145226630Y-57301000D01*
X144773370Y-57301000D01*
X144551097Y-57256787D01*
X144328823Y-57212574D01*
X143910068Y-57039120D01*
X143533198Y-56787304D01*
X143212696Y-56466802D01*
X142960880Y-56089932D01*
X142787426Y-55671177D01*
X142699000Y-55226629D01*
X142699000Y-54773371D01*
X142787426Y-54328823D01*
X142960880Y-53910068D01*
X143212696Y-53533198D01*
X143533198Y-53212696D01*
X143910068Y-52960880D01*
X144328823Y-52787426D01*
X144551097Y-52743213D01*
X144773370Y-52699000D01*
X145226630Y-52699000D01*
X145448903Y-52743213D01*
X145448903Y-52743213D01*
G37*
G36*
X55448903Y-52743213D02*
G01*
X55671177Y-52787426D01*
X56089932Y-52960880D01*
X56466802Y-53212696D01*
X56787304Y-53533198D01*
X57039120Y-53910068D01*
X57212574Y-54328823D01*
X57301000Y-54773371D01*
X57301000Y-55226629D01*
X57212574Y-55671177D01*
X57039120Y-56089932D01*
X56787304Y-56466802D01*
X56466802Y-56787304D01*
X56089932Y-57039120D01*
X55671177Y-57212574D01*
X55448903Y-57256787D01*
X55226630Y-57301000D01*
X54773370Y-57301000D01*
X54551097Y-57256787D01*
X54328823Y-57212574D01*
X53910068Y-57039120D01*
X53533198Y-56787304D01*
X53212696Y-56466802D01*
X52960880Y-56089932D01*
X52787426Y-55671177D01*
X52699000Y-55226629D01*
X52699000Y-54773371D01*
X52787426Y-54328823D01*
X52960880Y-53910068D01*
X53212696Y-53533198D01*
X53533198Y-53212696D01*
X53910068Y-52960880D01*
X54328823Y-52787426D01*
X54551097Y-52743213D01*
X54773370Y-52699000D01*
X55226630Y-52699000D01*
X55448903Y-52743213D01*
X55448903Y-52743213D01*
G37*
G36*
X112446000Y-55721000D02*
G01*
X110344000Y-55721000D01*
X110344000Y-52119000D01*
X112446000Y-52119000D01*
X112446000Y-55721000D01*
X112446000Y-55721000D01*
G37*
G36*
X103556000Y-55721000D02*
G01*
X101454000Y-55721000D01*
X101454000Y-52119000D01*
X103556000Y-52119000D01*
X103556000Y-55721000D01*
X103556000Y-55721000D01*
G37*
G36*
X97606000Y-55721000D02*
G01*
X95504000Y-55721000D01*
X95504000Y-52119000D01*
X97606000Y-52119000D01*
X97606000Y-55721000D01*
X97606000Y-55721000D01*
G37*
G36*
X106496000Y-55721000D02*
G01*
X104394000Y-55721000D01*
X104394000Y-52119000D01*
X106496000Y-52119000D01*
X106496000Y-55721000D01*
X106496000Y-55721000D01*
G37*
G36*
X126376000Y-55721000D02*
G01*
X124274000Y-55721000D01*
X124274000Y-52119000D01*
X126376000Y-52119000D01*
X126376000Y-55721000D01*
X126376000Y-55721000D01*
G37*
G36*
X115426000Y-55721000D02*
G01*
X113324000Y-55721000D01*
X113324000Y-52119000D01*
X115426000Y-52119000D01*
X115426000Y-55721000D01*
X115426000Y-55721000D01*
G37*
G36*
X88716000Y-55721000D02*
G01*
X86614000Y-55721000D01*
X86614000Y-52119000D01*
X88716000Y-52119000D01*
X88716000Y-55721000D01*
X88716000Y-55721000D01*
G37*
G36*
X94666000Y-55721000D02*
G01*
X92564000Y-55721000D01*
X92564000Y-52119000D01*
X94666000Y-52119000D01*
X94666000Y-55721000D01*
X94666000Y-55721000D01*
G37*
M02*
