M48
; DRILL file {KiCad (5.1.0)-1} date 22.05.2019 11:23:53
; FORMAT={-:-/ absolute / inch / decimal}
; #@! TF.CreationDate,2019-05-22T11:23:53+02:00
; #@! TF.GenerationSoftware,Kicad,Pcbnew,(5.1.0)-1
; #@! TF.FileFunction,Plated,1,2,PTH
FMAT,2
INCH
T1C0.0157
T2C0.0315
T3C0.0394
%
G90
G05
T1
X2.5098Y-2.8678
X2.5398Y-2.4678
X2.5398Y-2.9878
X2.5398Y-3.0578
X2.6698Y-3.1078
X2.7098Y-3.0578
X2.7498Y-3.1078
X2.7498Y-3.8778
X2.7598Y-2.3378
X2.8698Y-3.1078
X2.9598Y-3.7878
X2.9898Y-3.0578
X3.0498Y-3.2578
X3.1698Y-2.8778
X3.1898Y-3.0578
X3.2698Y-2.6428
X3.2698Y-3.0078
X3.3598Y-4.2678
X3.4098Y-4.2278
X3.5798Y-3.0478
X3.6073Y-4.1628
X3.6398Y-2.9278
X3.6398Y-3.0878
X3.6412Y-2.9791
X3.6498Y-2.5878
X3.6498Y-2.7578
X3.6548Y-4.1928
X3.7548Y-3.6628
X3.8198Y-3.0478
X3.8198Y-3.3678
X3.8648Y-3.2428
X3.8648Y-3.3978
X3.8998Y-3.2728
X3.8998Y-3.4328
X3.9098Y-2.8678
X3.9348Y-3.3078
X3.9348Y-3.4678
X3.9498Y-2.3378
X3.9598Y-4.2678
X3.9773Y-2.9378
X3.9773Y-3.8478
X4.0072Y-2.9085
X4.0072Y-3.8752
X4.0098Y-4.2278
X4.0437Y-2.8907
X4.0437Y-3.9039
X4.0598Y-4.1178
X4.0998Y-2.0378
X4.0998Y-3.8028
X4.1098Y-4.1578
X4.1298Y-3.3978
X4.1548Y-4.1928
X4.1584Y-2.873
X4.1598Y-2.0378
X4.1598Y-2.6478
X4.1873Y-4.0778
X4.1873Y-4.1578
X4.1875Y-2.8445
X4.1998Y-2.1378
X4.1998Y-2.4707
X4.2198Y-1.7378
X4.2198Y-1.8378
X4.2198Y-2.9728
X4.2198Y-3.6278
X4.2398Y-2.2378
X4.2398Y-2.5278
X4.2998Y-3.6928
X4.3013Y-2.4993
X4.3548Y-3.4478
X4.3723Y-2.3851
X4.3724Y-2.9754
X4.4148Y-2.6478
X4.4373Y-2.3851
X4.4453Y-2.9961
X4.4598Y-4.2678
X4.4723Y-2.6178
X4.4738Y-3.025
X4.5023Y-2.5578
X4.5023Y-3.0528
X4.5098Y-4.2278
X4.5309Y-2.9878
X4.5348Y-3.3378
X4.5348Y-3.3828
X4.5594Y-2.4422
X4.5598Y-4.1178
X4.5683Y-3.0128
X4.588Y-2.9655
X4.6098Y-4.1578
X4.6198Y-2.4422
X4.6548Y-4.1928
X4.6748Y-2.3878
X4.6948Y-3.3028
X4.6998Y-3.3478
X4.7048Y-3.4328
X4.7548Y-2.4422
X4.7598Y-3.6378
X4.7598Y-3.8028
X4.7862Y-2.8965
X4.7873Y-3.0253
X4.8148Y-2.5878
X4.8152Y-2.9968
X4.8373Y-4.0503
X4.8437Y-2.9682
X4.8438Y-2.5278
X4.8669Y-3.9795
X4.8838Y-2.4718
X4.8838Y-2.9638
X4.8973Y-4.0203
X4.9298Y-2.6528
X4.9298Y-4.0828
X4.9598Y-4.2678
X4.9713Y-3.8643
X4.9748Y-2.4728
X4.9998Y-3.9028
X4.9998Y-4.0278
X5.0013Y-3.3028
X5.0098Y-4.0878
X5.0098Y-4.2278
X5.0298Y-2.7978
X5.0298Y-3.7578
X5.0598Y-2.8478
X5.0598Y-3.7278
X5.0598Y-4.1178
X5.0898Y-2.8978
X5.0898Y-3.6978
X5.1098Y-4.1578
X5.1198Y-2.9478
X5.1198Y-3.4608
X5.1498Y-2.9978
X5.1498Y-3.4293
X5.1598Y-3.8378
X5.1598Y-4.1928
X5.1798Y-2.2378
X5.1798Y-2.5878
X5.1798Y-3.0478
X5.1798Y-3.3978
X5.2098Y-3.0978
X5.2098Y-3.3678
X5.2398Y-2.0378
X5.2398Y-2.7278
X5.2398Y-3.6378
X5.2408Y-2.3268
X5.2698Y-2.2378
X5.2698Y-2.3565
X5.2698Y-2.6978
X5.2698Y-3.6653
X5.2984Y-3.7868
X5.2991Y-2.6693
X5.3073Y-2.3403
X5.3073Y-2.4428
X5.3291Y-2.6407
X5.3298Y-3.4953
X5.3523Y-2.2378
X5.3523Y-2.4378
X5.4198Y-3.4078
X5.4198Y-3.8378
X5.4198Y-3.9028
X5.4748Y-3.1428
X5.5898Y-3.9028
X5.5914Y-2.6122
X5.5942Y-2.4878
X5.621Y-2.6407
X5.6228Y-2.1928
X5.6498Y-2.1428
X5.6513Y-2.6693
X5.6798Y-2.2478
X5.6798Y-2.7278
X5.6998Y-3.1378
X5.7098Y-2.2878
X5.7098Y-2.6978
X5.7398Y-2.4378
T2
X2.9098Y-2.9878
X2.9886Y-2.9878
T3
X2.3598Y-3.7878
X2.3598Y-3.8878
X2.3598Y-3.9878
X2.3598Y-4.0878
X2.3598Y-4.1878
X2.3598Y-4.2878
X2.3598Y-4.3878
X2.3598Y-4.4878
X3.1098Y-3.7378
X3.2098Y-3.7378
X3.3098Y-3.7378
X2.4339Y-3.3378
X2.5598Y-3.3378
X2.6858Y-3.3378
T0
M30
