G04 #@! TF.GenerationSoftware,KiCad,Pcbnew,(5.1.0)-1*
G04 #@! TF.CreationDate,2019-05-22T11:13:20+02:00*
G04 #@! TF.ProjectId,USB_Tool,5553425f-546f-46f6-9c2e-6b696361645f,0*
G04 #@! TF.SameCoordinates,Original*
G04 #@! TF.FileFunction,Copper,L2,Bot*
G04 #@! TF.FilePolarity,Positive*
%FSLAX46Y46*%
G04 Gerber Fmt 4.6, Leading zero omitted, Abs format (unit mm)*
G04 Created by KiCad (PCBNEW (5.1.0)-1) date 2019-05-22 11:13:20*
%MOMM*%
%LPD*%
G04 APERTURE LIST*
%ADD10C,0.300000*%
%ADD11R,1.600000X2.000000*%
%ADD12R,1.600000X1.600000*%
%ADD13C,1.600000*%
%ADD14R,1.250000X1.500000*%
%ADD15R,1.500000X1.250000*%
%ADD16R,2.030000X2.650000*%
%ADD17R,1.300000X1.000000*%
%ADD18C,1.800000*%
%ADD19R,0.650000X1.560000*%
%ADD20R,1.350000X1.650000*%
%ADD21O,1.700000X1.700000*%
%ADD22R,1.700000X1.700000*%
%ADD23C,0.800000*%
%ADD24C,0.250000*%
%ADD25C,0.254000*%
G04 APERTURE END LIST*
D10*
X82120714Y-51652857D02*
X81906428Y-51724285D01*
X81835000Y-51795714D01*
X81763571Y-51938571D01*
X81763571Y-52152857D01*
X81835000Y-52295714D01*
X81906428Y-52367142D01*
X82049285Y-52438571D01*
X82620714Y-52438571D01*
X82620714Y-50938571D01*
X82120714Y-50938571D01*
X81977857Y-51010000D01*
X81906428Y-51081428D01*
X81835000Y-51224285D01*
X81835000Y-51367142D01*
X81906428Y-51510000D01*
X81977857Y-51581428D01*
X82120714Y-51652857D01*
X82620714Y-51652857D01*
X81120714Y-52295714D02*
X81049285Y-52367142D01*
X81120714Y-52438571D01*
X81192142Y-52367142D01*
X81120714Y-52295714D01*
X81120714Y-52438571D01*
X79549285Y-52295714D02*
X79620714Y-52367142D01*
X79835000Y-52438571D01*
X79977857Y-52438571D01*
X80192142Y-52367142D01*
X80335000Y-52224285D01*
X80406428Y-52081428D01*
X80477857Y-51795714D01*
X80477857Y-51581428D01*
X80406428Y-51295714D01*
X80335000Y-51152857D01*
X80192142Y-51010000D01*
X79977857Y-50938571D01*
X79835000Y-50938571D01*
X79620714Y-51010000D01*
X79549285Y-51081428D01*
X78263571Y-51438571D02*
X78263571Y-52438571D01*
X78906428Y-51438571D02*
X78906428Y-52224285D01*
X78835000Y-52367142D01*
X78692142Y-52438571D01*
X78477857Y-52438571D01*
X78335000Y-52367142D01*
X78263571Y-52295714D01*
X76406428Y-51867142D02*
X75263571Y-51867142D01*
X73549285Y-51438571D02*
X73192142Y-52438571D01*
X72835000Y-51438571D01*
X71477857Y-52438571D02*
X72335000Y-52438571D01*
X71906428Y-52438571D02*
X71906428Y-50938571D01*
X72049285Y-51152857D01*
X72192142Y-51295714D01*
X72335000Y-51367142D01*
D11*
X99310000Y-70715000D03*
X99310000Y-74715000D03*
D12*
X73910000Y-75890000D03*
D13*
X75910000Y-75890000D03*
D14*
X78990000Y-73390000D03*
X78990000Y-75890000D03*
D15*
X67580000Y-70810000D03*
X70080000Y-70810000D03*
D11*
X117090000Y-86780000D03*
X117090000Y-82780000D03*
D16*
X75180000Y-82690000D03*
X75180000Y-86870000D03*
D17*
X99090000Y-68270000D03*
X96990000Y-68270000D03*
D18*
X68220000Y-84780000D03*
X65020000Y-84780000D03*
X61820000Y-84780000D03*
D19*
X69780000Y-75970000D03*
X68830000Y-75970000D03*
X67880000Y-75970000D03*
X67880000Y-73270000D03*
X69780000Y-73270000D03*
D20*
X96400000Y-70780000D03*
X96400000Y-73380000D03*
X94600000Y-73380000D03*
X94600000Y-70780000D03*
D21*
X59940000Y-113990000D03*
X59940000Y-111450000D03*
X59940000Y-108910000D03*
X59940000Y-106370000D03*
X59940000Y-103830000D03*
X59940000Y-101290000D03*
X59940000Y-98750000D03*
D22*
X59940000Y-96210000D03*
X84070000Y-94940000D03*
D21*
X81530000Y-94940000D03*
X78990000Y-94940000D03*
D23*
X64512000Y-62682000D03*
X68830000Y-77668000D03*
X64512000Y-75890000D03*
X64512000Y-77668000D03*
X75942000Y-77668000D03*
X81022000Y-77668000D03*
X92833000Y-106497000D03*
X131060000Y-106497000D03*
X118233000Y-106497000D03*
X105533000Y-106497000D03*
X97024000Y-77414000D03*
X137664000Y-97480000D03*
X137664000Y-86558000D03*
X144776000Y-79700000D03*
X97024000Y-85542000D03*
X139061000Y-79827000D03*
X131060000Y-97480000D03*
X90928000Y-77414000D03*
X107184000Y-44140000D03*
X69846000Y-98496000D03*
X99310000Y-72842000D03*
X119376000Y-85034000D03*
X115185000Y-85923000D03*
X80514000Y-73096000D03*
X77466000Y-82748000D03*
X63750000Y-72842000D03*
X101024500Y-74620000D03*
X101024500Y-97734000D03*
X102710277Y-73424899D03*
X102710277Y-99159723D03*
X101783758Y-73874909D03*
X101783758Y-98429758D03*
X128520000Y-104592000D03*
X103120000Y-104592000D03*
X115820000Y-104592000D03*
X105623000Y-72974889D03*
X104390000Y-105608000D03*
X129790000Y-105608000D03*
X117090000Y-105608000D03*
X106361782Y-72249889D03*
X106358500Y-103576000D03*
X106358500Y-105608000D03*
X92706000Y-70048000D03*
X92706000Y-65730000D03*
X121598500Y-76842500D03*
X121569000Y-73570000D03*
X107184000Y-46680000D03*
X104898000Y-86304000D03*
X133854000Y-56840000D03*
X112909500Y-76100555D03*
X112708500Y-60581000D03*
X133854000Y-59856000D03*
X104136000Y-51760000D03*
X120900000Y-92400000D03*
X120900000Y-96591000D03*
X104136000Y-96591000D03*
X133116603Y-59099500D03*
X133092000Y-51760000D03*
X111057500Y-60581000D03*
X107184000Y-92146000D03*
X107184000Y-75509000D03*
X111059501Y-75574501D03*
X105660000Y-51760000D03*
X105660000Y-67254000D03*
X112137000Y-67254000D03*
X110613000Y-87574000D03*
X106676000Y-62756000D03*
X106676000Y-54300000D03*
X124049600Y-75280400D03*
X124049600Y-62783600D03*
X124392500Y-102115500D03*
X131568000Y-56840000D03*
X131568000Y-65730000D03*
X122305608Y-76117500D03*
X122297000Y-65730000D03*
X122868500Y-102877500D03*
X107692000Y-56840000D03*
X107692000Y-64206000D03*
X123030608Y-75392500D03*
X123033600Y-64206000D03*
X123620001Y-101078319D03*
X116534500Y-75324910D03*
X117344000Y-62031000D03*
X115809500Y-62031000D03*
X116035000Y-76525000D03*
X109253000Y-63481000D03*
X109216000Y-93797000D03*
X114359500Y-77541000D03*
X114359500Y-64968000D03*
X113634500Y-76833892D03*
X113597500Y-66492000D03*
X92452000Y-74366000D03*
X133092000Y-92400000D03*
X133092000Y-69286000D03*
X144268000Y-69286000D03*
X144268000Y-57094000D03*
X133854000Y-68524000D03*
X145030000Y-68524000D03*
X145030000Y-58110000D03*
X133854000Y-93098500D03*
X129282000Y-93924000D03*
X129282000Y-73604000D03*
X128520000Y-94686000D03*
X128520000Y-72334000D03*
X127758000Y-95448000D03*
X127758000Y-71064000D03*
X134579000Y-96183500D03*
X134597295Y-67799000D03*
X143543000Y-67799000D03*
X143506000Y-54427000D03*
X120773000Y-62031000D03*
X134806500Y-62047000D03*
X134806500Y-59443500D03*
X119503000Y-87193000D03*
X91626500Y-105735000D03*
X95373000Y-93035000D03*
X132330000Y-85542000D03*
X132330000Y-78684000D03*
X131568000Y-86305000D03*
X131568000Y-77414000D03*
X130806000Y-87105000D03*
X130806000Y-76144000D03*
X130044000Y-87905000D03*
X130044000Y-74874000D03*
X142818000Y-55697000D03*
X142772506Y-67074000D03*
X135359825Y-67074000D03*
X135378000Y-88780500D03*
X67814000Y-78938000D03*
X69846000Y-78938000D03*
X75180000Y-96210000D03*
X72894000Y-78938000D03*
X113280000Y-108402000D03*
X125980000Y-108402000D03*
X100580000Y-108402000D03*
X85340000Y-108402000D03*
X126996000Y-102306000D03*
X142093000Y-63190000D03*
X142020733Y-66349000D03*
X125218000Y-67381000D03*
X125218000Y-103703000D03*
X86610000Y-107386000D03*
X127250000Y-107386000D03*
X114550000Y-107386000D03*
X101850000Y-107386000D03*
X145792000Y-61920000D03*
X135949500Y-61920000D03*
X135949500Y-56840000D03*
X127250000Y-103830000D03*
X70100000Y-59380000D03*
X100326000Y-59380000D03*
X126361000Y-62809000D03*
X126270999Y-98151999D03*
X137664000Y-99131000D03*
X141982000Y-99131000D03*
X127033000Y-83891000D03*
X126996000Y-99131000D03*
X92486000Y-75670000D03*
X92452000Y-78430000D03*
X119249000Y-83891000D03*
X115185000Y-84780000D03*
X83054000Y-67127000D03*
X83054000Y-76398000D03*
X98167000Y-82367000D03*
X98167000Y-86304000D03*
X99056000Y-83129000D03*
X99056000Y-87193000D03*
X99945000Y-84018000D03*
X99945000Y-88082000D03*
X115084500Y-75890000D03*
X118741000Y-60650000D03*
D24*
X64512000Y-62682000D02*
X64512000Y-70810000D01*
X68830000Y-75970000D02*
X68830000Y-77668000D01*
X64512000Y-75890000D02*
X64512000Y-77668000D01*
X64512000Y-75324315D02*
X64512000Y-70810000D01*
X64512000Y-75890000D02*
X64512000Y-75324315D01*
X66580000Y-70810000D02*
X64512000Y-70810000D01*
X67580000Y-70810000D02*
X66580000Y-70810000D01*
X75910000Y-75890000D02*
X75910000Y-77636000D01*
X75910000Y-77636000D02*
X75942000Y-77668000D01*
X81022000Y-77668000D02*
X79498000Y-77668000D01*
X78990000Y-77160000D02*
X78990000Y-75890000D01*
X79498000Y-77668000D02*
X78990000Y-77160000D01*
X118233000Y-106497000D02*
X131060000Y-106497000D01*
X92833000Y-106497000D02*
X105533000Y-106497000D01*
X105533000Y-106497000D02*
X118233000Y-106497000D01*
X96400000Y-74455000D02*
X96400000Y-73380000D01*
X96660000Y-74715000D02*
X96400000Y-74455000D01*
X97183000Y-77255000D02*
X97024000Y-77414000D01*
X97183000Y-74715000D02*
X97183000Y-77255000D01*
X97183000Y-74715000D02*
X96660000Y-74715000D01*
X99310000Y-74715000D02*
X97183000Y-74715000D01*
X137664000Y-97480000D02*
X137664000Y-86558000D01*
X97024000Y-85542000D02*
X97024000Y-77414000D01*
X144649000Y-79827000D02*
X144776000Y-79700000D01*
X139061000Y-79827000D02*
X144649000Y-79827000D01*
X90928000Y-60396000D02*
X107184000Y-44140000D01*
X90928000Y-77414000D02*
X90928000Y-60396000D01*
X69846000Y-81224000D02*
X68830000Y-80208000D01*
X68830000Y-80208000D02*
X68830000Y-77668000D01*
X69846000Y-98496000D02*
X69846000Y-81224000D01*
X131060000Y-97480000D02*
X131060000Y-106497000D01*
X99310000Y-72842000D02*
X99310000Y-74715000D01*
X119376000Y-85034000D02*
X119376000Y-85923000D01*
X118519000Y-86780000D02*
X117090000Y-86780000D01*
X119376000Y-85923000D02*
X118519000Y-86780000D01*
X115476315Y-86780000D02*
X117090000Y-86780000D01*
X115185000Y-85923000D02*
X115185000Y-86488685D01*
X115185000Y-86488685D02*
X115476315Y-86780000D01*
X79284000Y-73096000D02*
X78990000Y-73390000D01*
X80514000Y-73096000D02*
X79284000Y-73096000D01*
X75180000Y-82690000D02*
X77408000Y-82690000D01*
X77408000Y-82690000D02*
X77466000Y-82748000D01*
X61820000Y-74772000D02*
X61820000Y-84780000D01*
X63750000Y-72842000D02*
X61820000Y-74772000D01*
X101024500Y-74620000D02*
X101024500Y-97734000D01*
X102710277Y-73424899D02*
X102710277Y-99159723D01*
X101783758Y-73874909D02*
X101783758Y-98429758D01*
X128520000Y-104592000D02*
X115820000Y-104592000D01*
X115820000Y-104592000D02*
X111756000Y-104592000D01*
X111756000Y-104592000D02*
X111502000Y-104592000D01*
X111502000Y-104592000D02*
X105596500Y-104592000D01*
X105596500Y-104592000D02*
X103120000Y-104592000D01*
X105623000Y-104565500D02*
X105596500Y-104592000D01*
X105623000Y-72974889D02*
X105623000Y-104565500D01*
X117090000Y-105608000D02*
X129790000Y-105608000D01*
X110740000Y-105608000D02*
X117090000Y-105608000D01*
X110232000Y-105608000D02*
X110740000Y-105608000D01*
X106361782Y-103572718D02*
X106358500Y-103576000D01*
X104390000Y-105608000D02*
X106358500Y-105608000D01*
X106358500Y-105608000D02*
X110232000Y-105608000D01*
X106358500Y-72253171D02*
X106361782Y-72249889D01*
X106358500Y-103576000D02*
X106358500Y-72253171D01*
X92706000Y-70048000D02*
X92706000Y-65730000D01*
X96400000Y-70780000D02*
X96400000Y-69656000D01*
X96990000Y-69066000D02*
X96990000Y-68270000D01*
X96400000Y-69656000D02*
X96990000Y-69066000D01*
X121569000Y-76813000D02*
X121598500Y-76842500D01*
X121569000Y-73570000D02*
X121569000Y-76813000D01*
X107184000Y-46680000D02*
X107184000Y-48966000D01*
X107184000Y-48966000D02*
X104898000Y-51252000D01*
X104898000Y-51252000D02*
X104898000Y-86304000D01*
X112708500Y-66676002D02*
X112708500Y-60581000D01*
X112909500Y-76100555D02*
X112909500Y-66877002D01*
X112909500Y-66877002D02*
X112708500Y-66676002D01*
X133854000Y-59856000D02*
X133854000Y-56840000D01*
X104136000Y-51760000D02*
X104136000Y-96210000D01*
X120900000Y-92400000D02*
X120900000Y-96591000D01*
X104136000Y-96591000D02*
X104136000Y-96210000D01*
X133116603Y-59099500D02*
X133116603Y-51784603D01*
X133116603Y-51784603D02*
X133092000Y-51760000D01*
X111059501Y-60583001D02*
X111057500Y-60581000D01*
X107184000Y-92146000D02*
X107184000Y-75509000D01*
X111059501Y-75574501D02*
X111059501Y-60583001D01*
X105660000Y-51760000D02*
X105660000Y-67254000D01*
X112184500Y-67301500D02*
X112137000Y-67254000D01*
X112184500Y-75387020D02*
X112184500Y-67301500D01*
X110613000Y-79446000D02*
X110613000Y-87574000D01*
X112184500Y-75387020D02*
X112184500Y-77874500D01*
X112184500Y-77874500D02*
X110613000Y-79446000D01*
X106676000Y-62756000D02*
X106676000Y-54300000D01*
X124049600Y-75280400D02*
X124049600Y-62783600D01*
X124392500Y-75623300D02*
X124049600Y-75280400D01*
X124392500Y-97145502D02*
X124392500Y-102115500D01*
X124392500Y-75623300D02*
X124392500Y-97145502D01*
X131568000Y-56840000D02*
X131568000Y-65730000D01*
X122305608Y-65738608D02*
X122297000Y-65730000D01*
X122305608Y-76117500D02*
X122305608Y-65738608D01*
X122895001Y-102850999D02*
X122868500Y-102877500D01*
X122895001Y-76706893D02*
X122305608Y-76117500D01*
X122895001Y-85636001D02*
X122895001Y-76706893D01*
X122868500Y-85662502D02*
X122895001Y-85636001D01*
X122868500Y-102877500D02*
X122868500Y-85662502D01*
X107692000Y-56840000D02*
X107692000Y-64206000D01*
X123033600Y-75389508D02*
X123030608Y-75392500D01*
X123033600Y-64206000D02*
X123033600Y-75389508D01*
X123030608Y-75392500D02*
X123620001Y-75981893D01*
X123620001Y-101078319D02*
X123620001Y-75981893D01*
X116534500Y-64158500D02*
X116534500Y-63999500D01*
X116534500Y-64158500D02*
X116534500Y-75324910D01*
X116534500Y-63999500D02*
X117344000Y-63190000D01*
X117344000Y-63190000D02*
X117344000Y-62031000D01*
X116035000Y-75959315D02*
X116035000Y-76525000D01*
X116035000Y-75898412D02*
X116035000Y-75959315D01*
X115809499Y-75672911D02*
X116035000Y-75898412D01*
X115809500Y-62031000D02*
X115809499Y-75672911D01*
X109216000Y-63518000D02*
X109253000Y-63481000D01*
X109216000Y-93797000D02*
X109216000Y-63518000D01*
X114359500Y-77541000D02*
X114359500Y-64968000D01*
X113634500Y-66529000D02*
X113597500Y-66492000D01*
X113634500Y-76833892D02*
X113634500Y-66529000D01*
X93438000Y-73380000D02*
X94600000Y-73380000D01*
X92452000Y-74366000D02*
X93438000Y-73380000D01*
X133092000Y-92400000D02*
X133092000Y-69286000D01*
X144268000Y-69286000D02*
X144268000Y-57094000D01*
X133924051Y-68594051D02*
X133854000Y-68524000D01*
X145030000Y-68524000D02*
X145030000Y-58110000D01*
X133854000Y-69089685D02*
X133854000Y-68524000D01*
X133854000Y-92711002D02*
X133854000Y-69089685D01*
X133854000Y-92711002D02*
X133854000Y-93098500D01*
X129282000Y-93924000D02*
X129282000Y-73604000D01*
X128520000Y-94686000D02*
X128520000Y-72334000D01*
X127758000Y-95448000D02*
X127758000Y-71064000D01*
X134579000Y-96183500D02*
X134579000Y-67817295D01*
X134579000Y-67817295D02*
X134597295Y-67799000D01*
X143543000Y-67799000D02*
X143543000Y-54464000D01*
X143543000Y-54464000D02*
X143506000Y-54427000D01*
X120773000Y-81033500D02*
X120773000Y-62031000D01*
X134806500Y-62047000D02*
X134806500Y-59443500D01*
X120068685Y-87193000D02*
X120773000Y-86488685D01*
X119503000Y-87193000D02*
X120068685Y-87193000D01*
X120773000Y-86488685D02*
X120773000Y-81033500D01*
X95373000Y-105100000D02*
X94738000Y-105735000D01*
X94738000Y-105735000D02*
X91626500Y-105735000D01*
X95373000Y-105100000D02*
X95373000Y-93035000D01*
X132330000Y-85542000D02*
X132330000Y-78684000D01*
X131568000Y-86305000D02*
X131568000Y-77414000D01*
X130806000Y-87105000D02*
X130806000Y-76144000D01*
X130044000Y-87905000D02*
X130044000Y-74874000D01*
X142818000Y-55697000D02*
X142818000Y-67028506D01*
X142818000Y-67028506D02*
X142772506Y-67074000D01*
X135359825Y-67074000D02*
X135359825Y-88762325D01*
X135359825Y-88762325D02*
X135378000Y-88780500D01*
X67880000Y-75970000D02*
X67880000Y-78872000D01*
X67880000Y-78872000D02*
X67814000Y-78938000D01*
X69846000Y-76036000D02*
X69780000Y-75970000D01*
X69846000Y-78938000D02*
X69846000Y-76036000D01*
X75180000Y-87180000D02*
X75180000Y-96210000D01*
X75180000Y-86870000D02*
X75180000Y-87180000D01*
X73910000Y-77922000D02*
X73910000Y-75890000D01*
X72894000Y-78938000D02*
X73910000Y-77922000D01*
X72894000Y-85849000D02*
X72894000Y-78938000D01*
X73915000Y-86870000D02*
X72894000Y-85849000D01*
X75180000Y-86870000D02*
X73915000Y-86870000D01*
X113280000Y-108402000D02*
X125980000Y-108402000D01*
X113280000Y-108402000D02*
X100580000Y-108402000D01*
X85340000Y-108402000D02*
X100580000Y-108402000D01*
X85340000Y-108402000D02*
X85340000Y-107386000D01*
X75180000Y-97226000D02*
X75180000Y-96210000D01*
X85340000Y-107386000D02*
X75180000Y-97226000D01*
X142093000Y-63190000D02*
X142093000Y-66276733D01*
X142093000Y-66276733D02*
X142020733Y-66349000D01*
X125218000Y-67381000D02*
X125218000Y-103703000D01*
X69780000Y-71110000D02*
X70080000Y-70810000D01*
X69780000Y-72014000D02*
X69780000Y-71110000D01*
X69780000Y-73270000D02*
X69780000Y-72014000D01*
X114550000Y-107386000D02*
X127250000Y-107386000D01*
X86610000Y-107386000D02*
X101850000Y-107386000D01*
X101850000Y-107386000D02*
X114550000Y-107386000D01*
X99090000Y-70359990D02*
X99310000Y-70579990D01*
X99090000Y-68270000D02*
X99090000Y-70359990D01*
X94600000Y-70780000D02*
X94600000Y-68408000D01*
X94600000Y-68408000D02*
X96008000Y-67000000D01*
X96008000Y-67000000D02*
X98802000Y-67000000D01*
X145792000Y-68835002D02*
X145792000Y-61920000D01*
X145792000Y-82240000D02*
X145792000Y-68835002D01*
X135949500Y-61920000D02*
X135949500Y-56840000D01*
X100326000Y-60396000D02*
X100326000Y-66238000D01*
X100326000Y-66238000D02*
X99564000Y-67000000D01*
X99090000Y-67034000D02*
X99056000Y-67000000D01*
X99090000Y-68270000D02*
X99090000Y-67034000D01*
X99564000Y-67000000D02*
X99056000Y-67000000D01*
X99056000Y-67000000D02*
X98802000Y-67000000D01*
X70080000Y-70810000D02*
X70080000Y-59400000D01*
X70080000Y-59400000D02*
X70100000Y-59380000D01*
X100326000Y-59380000D02*
X100326000Y-60396000D01*
X126270999Y-62899001D02*
X126361000Y-62809000D01*
X127250000Y-103830000D02*
X126270999Y-102850999D01*
X126270999Y-102850999D02*
X126270999Y-98151999D01*
X126270999Y-98151999D02*
X126270999Y-62899001D01*
X86610000Y-107386000D02*
X86610000Y-103957000D01*
X84070000Y-101417000D02*
X84070000Y-94940000D01*
X86610000Y-103957000D02*
X84070000Y-101417000D01*
X137664000Y-99131000D02*
X141982000Y-99131000D01*
X127033000Y-83891000D02*
X127033000Y-99094000D01*
X127033000Y-99094000D02*
X126996000Y-99131000D01*
X92486000Y-78396000D02*
X92452000Y-78430000D01*
X92486000Y-75670000D02*
X92486000Y-78396000D01*
X81530000Y-94940000D02*
X81530000Y-91003000D01*
X92452000Y-80081000D02*
X92452000Y-79954000D01*
X81530000Y-91003000D02*
X92452000Y-80081000D01*
X92452000Y-78430000D02*
X92452000Y-79954000D01*
X118140000Y-82780000D02*
X117090000Y-82780000D01*
X118703685Y-82780000D02*
X118140000Y-82780000D01*
X119249000Y-83325315D02*
X118703685Y-82780000D01*
X119249000Y-83891000D02*
X119249000Y-83325315D01*
X115185000Y-84780000D02*
X115185000Y-83383000D01*
X115788000Y-82780000D02*
X117090000Y-82780000D01*
X115185000Y-83383000D02*
X115788000Y-82780000D01*
X83054000Y-67127000D02*
X83054000Y-76398000D01*
X98167000Y-82367000D02*
X98167000Y-86304000D01*
X99056000Y-83129000D02*
X99056000Y-87193000D01*
X99945000Y-84018000D02*
X99945000Y-88082000D01*
X115084500Y-60930500D02*
X115084500Y-75890000D01*
X118741000Y-60650000D02*
X115365000Y-60650000D01*
X115365000Y-60650000D02*
X115084500Y-60930500D01*
D25*
G36*
X106803000Y-43177539D02*
G01*
X106693744Y-43222795D01*
X106524226Y-43336063D01*
X106380063Y-43480226D01*
X106266795Y-43649744D01*
X106188774Y-43838102D01*
X106149000Y-44038061D01*
X106149000Y-44100198D01*
X90416998Y-59832201D01*
X90388000Y-59855999D01*
X90364202Y-59884997D01*
X90364201Y-59884998D01*
X90293026Y-59971724D01*
X90222454Y-60103754D01*
X90178998Y-60247015D01*
X90164324Y-60396000D01*
X90168001Y-60433333D01*
X90168000Y-76710289D01*
X90124063Y-76754226D01*
X90010795Y-76923744D01*
X89932774Y-77112102D01*
X89893000Y-77312061D01*
X89893000Y-77515939D01*
X89932774Y-77715898D01*
X90010795Y-77904256D01*
X90124063Y-78073774D01*
X90268226Y-78217937D01*
X90437744Y-78331205D01*
X90626102Y-78409226D01*
X90826061Y-78449000D01*
X91029939Y-78449000D01*
X91229898Y-78409226D01*
X91417000Y-78331725D01*
X91417000Y-78531939D01*
X91456774Y-78731898D01*
X91534795Y-78920256D01*
X91648063Y-79089774D01*
X91692000Y-79133711D01*
X91692001Y-79766197D01*
X81018998Y-90439201D01*
X80990000Y-90462999D01*
X80966202Y-90491997D01*
X80966201Y-90491998D01*
X80895026Y-90578724D01*
X80824454Y-90710754D01*
X80780998Y-90854015D01*
X80766324Y-91003000D01*
X80770001Y-91040332D01*
X80770000Y-93662405D01*
X80700986Y-93699294D01*
X80474866Y-93884866D01*
X80289294Y-94110986D01*
X80254799Y-94175523D01*
X80185178Y-94058645D01*
X79990269Y-93842412D01*
X79756920Y-93668359D01*
X79494099Y-93543175D01*
X79346890Y-93498524D01*
X79117000Y-93619845D01*
X79117000Y-94813000D01*
X79137000Y-94813000D01*
X79137000Y-95067000D01*
X79117000Y-95067000D01*
X79117000Y-96260155D01*
X79346890Y-96381476D01*
X79494099Y-96336825D01*
X79756920Y-96211641D01*
X79990269Y-96037588D01*
X80185178Y-95821355D01*
X80254799Y-95704477D01*
X80289294Y-95769014D01*
X80474866Y-95995134D01*
X80700986Y-96180706D01*
X80958966Y-96318599D01*
X81238889Y-96403513D01*
X81457050Y-96425000D01*
X81602950Y-96425000D01*
X81821111Y-96403513D01*
X82101034Y-96318599D01*
X82359014Y-96180706D01*
X82585134Y-95995134D01*
X82609607Y-95965313D01*
X82630498Y-96034180D01*
X82689463Y-96144494D01*
X82768815Y-96241185D01*
X82865506Y-96320537D01*
X82975820Y-96379502D01*
X83095518Y-96415812D01*
X83220000Y-96428072D01*
X83310001Y-96428072D01*
X83310000Y-101379677D01*
X83306324Y-101417000D01*
X83310000Y-101454322D01*
X83310000Y-101454332D01*
X83320997Y-101565985D01*
X83338973Y-101625244D01*
X83364454Y-101709246D01*
X83435026Y-101841276D01*
X83468658Y-101882256D01*
X83529999Y-101957001D01*
X83559003Y-101980804D01*
X85850001Y-104271804D01*
X85850000Y-106682289D01*
X85806063Y-106726226D01*
X85692795Y-106895744D01*
X85614774Y-107084102D01*
X85575000Y-107284061D01*
X85575000Y-107487939D01*
X85614774Y-107687898D01*
X85692795Y-107876256D01*
X85806063Y-108045774D01*
X85950226Y-108189937D01*
X86119744Y-108303205D01*
X86308102Y-108381226D01*
X86508061Y-108421000D01*
X86711939Y-108421000D01*
X86911898Y-108381226D01*
X87100256Y-108303205D01*
X87269774Y-108189937D01*
X87313711Y-108146000D01*
X101146289Y-108146000D01*
X101190226Y-108189937D01*
X101359744Y-108303205D01*
X101548102Y-108381226D01*
X101748061Y-108421000D01*
X101951939Y-108421000D01*
X102151898Y-108381226D01*
X102340256Y-108303205D01*
X102509774Y-108189937D01*
X102553711Y-108146000D01*
X113846289Y-108146000D01*
X113890226Y-108189937D01*
X114059744Y-108303205D01*
X114248102Y-108381226D01*
X114448061Y-108421000D01*
X114651939Y-108421000D01*
X114851898Y-108381226D01*
X115040256Y-108303205D01*
X115209774Y-108189937D01*
X115253711Y-108146000D01*
X126546289Y-108146000D01*
X126590226Y-108189937D01*
X126759744Y-108303205D01*
X126948102Y-108381226D01*
X127148061Y-108421000D01*
X127351939Y-108421000D01*
X127551898Y-108381226D01*
X127740256Y-108303205D01*
X127909774Y-108189937D01*
X128053937Y-108045774D01*
X128167205Y-107876256D01*
X128245226Y-107687898D01*
X128285000Y-107487939D01*
X128285000Y-107284061D01*
X128279617Y-107257000D01*
X130356289Y-107257000D01*
X130400226Y-107300937D01*
X130569744Y-107414205D01*
X130758102Y-107492226D01*
X130958061Y-107532000D01*
X131161939Y-107532000D01*
X131361898Y-107492226D01*
X131550256Y-107414205D01*
X131719774Y-107300937D01*
X131863937Y-107156774D01*
X131977205Y-106987256D01*
X132055226Y-106798898D01*
X132095000Y-106598939D01*
X132095000Y-106395061D01*
X132055226Y-106195102D01*
X131977205Y-106006744D01*
X131863937Y-105837226D01*
X131820000Y-105793289D01*
X131820000Y-98183711D01*
X131863937Y-98139774D01*
X131977205Y-97970256D01*
X132055226Y-97781898D01*
X132095000Y-97581939D01*
X132095000Y-97378061D01*
X132055226Y-97178102D01*
X131977205Y-96989744D01*
X131863937Y-96820226D01*
X131719774Y-96676063D01*
X131550256Y-96562795D01*
X131361898Y-96484774D01*
X131161939Y-96445000D01*
X130958061Y-96445000D01*
X130758102Y-96484774D01*
X130569744Y-96562795D01*
X130400226Y-96676063D01*
X130256063Y-96820226D01*
X130142795Y-96989744D01*
X130064774Y-97178102D01*
X130025000Y-97378061D01*
X130025000Y-97581939D01*
X130064774Y-97781898D01*
X130142795Y-97970256D01*
X130256063Y-98139774D01*
X130300000Y-98183711D01*
X130300001Y-104703988D01*
X130280256Y-104690795D01*
X130091898Y-104612774D01*
X129891939Y-104573000D01*
X129688061Y-104573000D01*
X129555000Y-104599467D01*
X129555000Y-104490061D01*
X129515226Y-104290102D01*
X129437205Y-104101744D01*
X129323937Y-103932226D01*
X129179774Y-103788063D01*
X129010256Y-103674795D01*
X128821898Y-103596774D01*
X128621939Y-103557000D01*
X128418061Y-103557000D01*
X128257333Y-103588970D01*
X128245226Y-103528102D01*
X128167205Y-103339744D01*
X128053937Y-103170226D01*
X127909774Y-103026063D01*
X127740256Y-102912795D01*
X127551898Y-102834774D01*
X127351939Y-102795000D01*
X127289802Y-102795000D01*
X127030999Y-102536198D01*
X127030999Y-100166000D01*
X127097939Y-100166000D01*
X127297898Y-100126226D01*
X127486256Y-100048205D01*
X127655774Y-99934937D01*
X127799937Y-99790774D01*
X127913205Y-99621256D01*
X127991226Y-99432898D01*
X128031000Y-99232939D01*
X128031000Y-99029061D01*
X127991226Y-98829102D01*
X127913205Y-98640744D01*
X127799937Y-98471226D01*
X127793000Y-98464289D01*
X127793000Y-96483000D01*
X127859939Y-96483000D01*
X128059898Y-96443226D01*
X128248256Y-96365205D01*
X128417774Y-96251937D01*
X128561937Y-96107774D01*
X128675205Y-95938256D01*
X128753226Y-95749898D01*
X128764619Y-95692619D01*
X128821898Y-95681226D01*
X129010256Y-95603205D01*
X129179774Y-95489937D01*
X129323937Y-95345774D01*
X129437205Y-95176256D01*
X129515226Y-94987898D01*
X129526619Y-94930619D01*
X129583898Y-94919226D01*
X129772256Y-94841205D01*
X129941774Y-94727937D01*
X130085937Y-94583774D01*
X130199205Y-94414256D01*
X130277226Y-94225898D01*
X130317000Y-94025939D01*
X130317000Y-93822061D01*
X130277226Y-93622102D01*
X130199205Y-93433744D01*
X130085937Y-93264226D01*
X130042000Y-93220289D01*
X130042000Y-88940000D01*
X130145939Y-88940000D01*
X130345898Y-88900226D01*
X130534256Y-88822205D01*
X130703774Y-88708937D01*
X130847937Y-88564774D01*
X130961205Y-88395256D01*
X131039226Y-88206898D01*
X131058489Y-88110054D01*
X131107898Y-88100226D01*
X131296256Y-88022205D01*
X131465774Y-87908937D01*
X131609937Y-87764774D01*
X131723205Y-87595256D01*
X131801226Y-87406898D01*
X131820489Y-87310054D01*
X131869898Y-87300226D01*
X132058256Y-87222205D01*
X132227774Y-87108937D01*
X132332000Y-87004711D01*
X132332000Y-91696289D01*
X132288063Y-91740226D01*
X132174795Y-91909744D01*
X132096774Y-92098102D01*
X132057000Y-92298061D01*
X132057000Y-92501939D01*
X132096774Y-92701898D01*
X132174795Y-92890256D01*
X132288063Y-93059774D01*
X132432226Y-93203937D01*
X132601744Y-93317205D01*
X132790102Y-93395226D01*
X132862605Y-93409648D01*
X132936795Y-93588756D01*
X133050063Y-93758274D01*
X133194226Y-93902437D01*
X133363744Y-94015705D01*
X133552102Y-94093726D01*
X133752061Y-94133500D01*
X133819000Y-94133500D01*
X133819000Y-95479789D01*
X133775063Y-95523726D01*
X133661795Y-95693244D01*
X133583774Y-95881602D01*
X133544000Y-96081561D01*
X133544000Y-96285439D01*
X133583774Y-96485398D01*
X133661795Y-96673756D01*
X133775063Y-96843274D01*
X133919226Y-96987437D01*
X134088744Y-97100705D01*
X134277102Y-97178726D01*
X134477061Y-97218500D01*
X134680939Y-97218500D01*
X134880898Y-97178726D01*
X135069256Y-97100705D01*
X135238774Y-96987437D01*
X135382937Y-96843274D01*
X135496205Y-96673756D01*
X135574226Y-96485398D01*
X135614000Y-96285439D01*
X135614000Y-96081561D01*
X135574226Y-95881602D01*
X135496205Y-95693244D01*
X135382937Y-95523726D01*
X135339000Y-95479789D01*
X135339000Y-89815500D01*
X135479939Y-89815500D01*
X135679898Y-89775726D01*
X135868256Y-89697705D01*
X136037774Y-89584437D01*
X136181937Y-89440274D01*
X136295205Y-89270756D01*
X136373226Y-89082398D01*
X136413000Y-88882439D01*
X136413000Y-88678561D01*
X136373226Y-88478602D01*
X136295205Y-88290244D01*
X136181937Y-88120726D01*
X136119825Y-88058614D01*
X136119825Y-86456061D01*
X136629000Y-86456061D01*
X136629000Y-86659939D01*
X136668774Y-86859898D01*
X136746795Y-87048256D01*
X136860063Y-87217774D01*
X136904001Y-87261712D01*
X136904000Y-96776289D01*
X136860063Y-96820226D01*
X136746795Y-96989744D01*
X136668774Y-97178102D01*
X136629000Y-97378061D01*
X136629000Y-97581939D01*
X136668774Y-97781898D01*
X136746795Y-97970256D01*
X136860063Y-98139774D01*
X137004226Y-98283937D01*
X137036497Y-98305500D01*
X137004226Y-98327063D01*
X136860063Y-98471226D01*
X136746795Y-98640744D01*
X136668774Y-98829102D01*
X136629000Y-99029061D01*
X136629000Y-99232939D01*
X136668774Y-99432898D01*
X136746795Y-99621256D01*
X136860063Y-99790774D01*
X137004226Y-99934937D01*
X137173744Y-100048205D01*
X137362102Y-100126226D01*
X137562061Y-100166000D01*
X137765939Y-100166000D01*
X137965898Y-100126226D01*
X138154256Y-100048205D01*
X138323774Y-99934937D01*
X138367711Y-99891000D01*
X141278289Y-99891000D01*
X141322226Y-99934937D01*
X141491744Y-100048205D01*
X141680102Y-100126226D01*
X141880061Y-100166000D01*
X142083939Y-100166000D01*
X142283898Y-100126226D01*
X142472256Y-100048205D01*
X142641774Y-99934937D01*
X142785937Y-99790774D01*
X142899205Y-99621256D01*
X142977226Y-99432898D01*
X143017000Y-99232939D01*
X143017000Y-99029061D01*
X142977226Y-98829102D01*
X142899205Y-98640744D01*
X142785937Y-98471226D01*
X142641774Y-98327063D01*
X142472256Y-98213795D01*
X142283898Y-98135774D01*
X142083939Y-98096000D01*
X141880061Y-98096000D01*
X141680102Y-98135774D01*
X141491744Y-98213795D01*
X141322226Y-98327063D01*
X141278289Y-98371000D01*
X138367711Y-98371000D01*
X138323774Y-98327063D01*
X138291503Y-98305500D01*
X138323774Y-98283937D01*
X138467937Y-98139774D01*
X138581205Y-97970256D01*
X138659226Y-97781898D01*
X138699000Y-97581939D01*
X138699000Y-97378061D01*
X138659226Y-97178102D01*
X138581205Y-96989744D01*
X138467937Y-96820226D01*
X138424000Y-96776289D01*
X138424000Y-87261711D01*
X138467937Y-87217774D01*
X138581205Y-87048256D01*
X138659226Y-86859898D01*
X138699000Y-86659939D01*
X138699000Y-86456061D01*
X138659226Y-86256102D01*
X138581205Y-86067744D01*
X138467937Y-85898226D01*
X138323774Y-85754063D01*
X138154256Y-85640795D01*
X137965898Y-85562774D01*
X137765939Y-85523000D01*
X137562061Y-85523000D01*
X137362102Y-85562774D01*
X137173744Y-85640795D01*
X137004226Y-85754063D01*
X136860063Y-85898226D01*
X136746795Y-86067744D01*
X136668774Y-86256102D01*
X136629000Y-86456061D01*
X136119825Y-86456061D01*
X136119825Y-79725061D01*
X138026000Y-79725061D01*
X138026000Y-79928939D01*
X138065774Y-80128898D01*
X138143795Y-80317256D01*
X138257063Y-80486774D01*
X138401226Y-80630937D01*
X138570744Y-80744205D01*
X138759102Y-80822226D01*
X138959061Y-80862000D01*
X139162939Y-80862000D01*
X139362898Y-80822226D01*
X139551256Y-80744205D01*
X139720774Y-80630937D01*
X139764711Y-80587000D01*
X144240539Y-80587000D01*
X144285744Y-80617205D01*
X144474102Y-80695226D01*
X144674061Y-80735000D01*
X144877939Y-80735000D01*
X145032000Y-80704356D01*
X145032000Y-82277332D01*
X145042997Y-82388985D01*
X145086454Y-82532246D01*
X145157026Y-82664275D01*
X145251999Y-82780001D01*
X145367724Y-82874974D01*
X145499753Y-82945546D01*
X145643014Y-82989003D01*
X145792000Y-83003677D01*
X145940985Y-82989003D01*
X146084246Y-82945546D01*
X146216275Y-82874974D01*
X146332001Y-82780001D01*
X146426974Y-82664276D01*
X146497546Y-82532247D01*
X146541003Y-82388986D01*
X146552000Y-82277333D01*
X146552000Y-62623711D01*
X146595937Y-62579774D01*
X146709205Y-62410256D01*
X146787226Y-62221898D01*
X146827000Y-62021939D01*
X146827000Y-61818061D01*
X146787226Y-61618102D01*
X146709205Y-61429744D01*
X146595937Y-61260226D01*
X146451774Y-61116063D01*
X146282256Y-61002795D01*
X146093898Y-60924774D01*
X145893939Y-60885000D01*
X145790000Y-60885000D01*
X145790000Y-58813711D01*
X145833937Y-58769774D01*
X145947205Y-58600256D01*
X146025226Y-58411898D01*
X146065000Y-58211939D01*
X146065000Y-58008061D01*
X146025226Y-57808102D01*
X145947205Y-57619744D01*
X145833937Y-57450226D01*
X145689774Y-57306063D01*
X145520256Y-57192795D01*
X145331898Y-57114774D01*
X145303000Y-57109026D01*
X145303000Y-56992061D01*
X145263226Y-56792102D01*
X145185205Y-56603744D01*
X145071937Y-56434226D01*
X144927774Y-56290063D01*
X144758256Y-56176795D01*
X144569898Y-56098774D01*
X144369939Y-56059000D01*
X144303000Y-56059000D01*
X144303000Y-55093711D01*
X144309937Y-55086774D01*
X144423205Y-54917256D01*
X144501226Y-54728898D01*
X144541000Y-54528939D01*
X144541000Y-54325061D01*
X144501226Y-54125102D01*
X144423205Y-53936744D01*
X144309937Y-53767226D01*
X144165774Y-53623063D01*
X143996256Y-53509795D01*
X143807898Y-53431774D01*
X143607939Y-53392000D01*
X143404061Y-53392000D01*
X143204102Y-53431774D01*
X143015744Y-53509795D01*
X142846226Y-53623063D01*
X142702063Y-53767226D01*
X142588795Y-53936744D01*
X142510774Y-54125102D01*
X142471000Y-54325061D01*
X142471000Y-54528939D01*
X142506195Y-54705878D01*
X142327744Y-54779795D01*
X142158226Y-54893063D01*
X142014063Y-55037226D01*
X141900795Y-55206744D01*
X141822774Y-55395102D01*
X141783000Y-55595061D01*
X141783000Y-55798939D01*
X141822774Y-55998898D01*
X141900795Y-56187256D01*
X142014063Y-56356774D01*
X142058000Y-56400711D01*
X142058001Y-66324794D01*
X141968569Y-66414226D01*
X141855301Y-66583744D01*
X141777280Y-66772102D01*
X141737506Y-66972061D01*
X141737506Y-67175939D01*
X141777280Y-67375898D01*
X141855301Y-67564256D01*
X141968569Y-67733774D01*
X142112732Y-67877937D01*
X142282250Y-67991205D01*
X142470608Y-68069226D01*
X142544393Y-68083903D01*
X142547774Y-68100898D01*
X142625795Y-68289256D01*
X142739063Y-68458774D01*
X142883226Y-68602937D01*
X143052744Y-68716205D01*
X143241102Y-68794226D01*
X143343026Y-68814500D01*
X143272774Y-68984102D01*
X143233000Y-69184061D01*
X143233000Y-69387939D01*
X143272774Y-69587898D01*
X143350795Y-69776256D01*
X143464063Y-69945774D01*
X143608226Y-70089937D01*
X143777744Y-70203205D01*
X143966102Y-70281226D01*
X144166061Y-70321000D01*
X144369939Y-70321000D01*
X144569898Y-70281226D01*
X144758256Y-70203205D01*
X144927774Y-70089937D01*
X145032001Y-69985710D01*
X145032000Y-78695644D01*
X144877939Y-78665000D01*
X144674061Y-78665000D01*
X144474102Y-78704774D01*
X144285744Y-78782795D01*
X144116226Y-78896063D01*
X143972063Y-79040226D01*
X143954173Y-79067000D01*
X139764711Y-79067000D01*
X139720774Y-79023063D01*
X139551256Y-78909795D01*
X139362898Y-78831774D01*
X139162939Y-78792000D01*
X138959061Y-78792000D01*
X138759102Y-78831774D01*
X138570744Y-78909795D01*
X138401226Y-79023063D01*
X138257063Y-79167226D01*
X138143795Y-79336744D01*
X138065774Y-79525102D01*
X138026000Y-79725061D01*
X136119825Y-79725061D01*
X136119825Y-67777711D01*
X136163762Y-67733774D01*
X136277030Y-67564256D01*
X136355051Y-67375898D01*
X136394825Y-67175939D01*
X136394825Y-66972061D01*
X136355051Y-66772102D01*
X136277030Y-66583744D01*
X136163762Y-66414226D01*
X136019599Y-66270063D01*
X135850081Y-66156795D01*
X135661723Y-66078774D01*
X135461764Y-66039000D01*
X135257886Y-66039000D01*
X135057927Y-66078774D01*
X134869569Y-66156795D01*
X134700051Y-66270063D01*
X134555888Y-66414226D01*
X134442620Y-66583744D01*
X134364599Y-66772102D01*
X134360890Y-66790747D01*
X134295397Y-66803774D01*
X134107039Y-66881795D01*
X133937521Y-66995063D01*
X133793358Y-67139226D01*
X133680090Y-67308744D01*
X133602069Y-67497102D01*
X133597568Y-67519730D01*
X133552102Y-67528774D01*
X133363744Y-67606795D01*
X133194226Y-67720063D01*
X133050063Y-67864226D01*
X132936795Y-68033744D01*
X132858774Y-68222102D01*
X132847381Y-68279381D01*
X132790102Y-68290774D01*
X132601744Y-68368795D01*
X132432226Y-68482063D01*
X132288063Y-68626226D01*
X132174795Y-68795744D01*
X132096774Y-68984102D01*
X132057000Y-69184061D01*
X132057000Y-69387939D01*
X132096774Y-69587898D01*
X132174795Y-69776256D01*
X132288063Y-69945774D01*
X132332001Y-69989712D01*
X132332001Y-76714290D01*
X132227774Y-76610063D01*
X132058256Y-76496795D01*
X131869898Y-76418774D01*
X131809030Y-76406667D01*
X131841000Y-76245939D01*
X131841000Y-76042061D01*
X131801226Y-75842102D01*
X131723205Y-75653744D01*
X131609937Y-75484226D01*
X131465774Y-75340063D01*
X131296256Y-75226795D01*
X131107898Y-75148774D01*
X131047030Y-75136667D01*
X131079000Y-74975939D01*
X131079000Y-74772061D01*
X131039226Y-74572102D01*
X130961205Y-74383744D01*
X130847937Y-74214226D01*
X130703774Y-74070063D01*
X130534256Y-73956795D01*
X130345898Y-73878774D01*
X130285030Y-73866667D01*
X130317000Y-73705939D01*
X130317000Y-73502061D01*
X130277226Y-73302102D01*
X130199205Y-73113744D01*
X130085937Y-72944226D01*
X129941774Y-72800063D01*
X129772256Y-72686795D01*
X129583898Y-72608774D01*
X129523030Y-72596667D01*
X129555000Y-72435939D01*
X129555000Y-72232061D01*
X129515226Y-72032102D01*
X129437205Y-71843744D01*
X129323937Y-71674226D01*
X129179774Y-71530063D01*
X129010256Y-71416795D01*
X128821898Y-71338774D01*
X128761030Y-71326667D01*
X128793000Y-71165939D01*
X128793000Y-70962061D01*
X128753226Y-70762102D01*
X128675205Y-70573744D01*
X128561937Y-70404226D01*
X128417774Y-70260063D01*
X128248256Y-70146795D01*
X128059898Y-70068774D01*
X127859939Y-70029000D01*
X127656061Y-70029000D01*
X127456102Y-70068774D01*
X127267744Y-70146795D01*
X127098226Y-70260063D01*
X127030999Y-70327290D01*
X127030999Y-63602712D01*
X127164937Y-63468774D01*
X127278205Y-63299256D01*
X127356226Y-63110898D01*
X127396000Y-62910939D01*
X127396000Y-62707061D01*
X127356226Y-62507102D01*
X127278205Y-62318744D01*
X127164937Y-62149226D01*
X127020774Y-62005063D01*
X126851256Y-61891795D01*
X126662898Y-61813774D01*
X126462939Y-61774000D01*
X126259061Y-61774000D01*
X126059102Y-61813774D01*
X125870744Y-61891795D01*
X125701226Y-62005063D01*
X125557063Y-62149226D01*
X125443795Y-62318744D01*
X125365774Y-62507102D01*
X125326000Y-62707061D01*
X125326000Y-62910939D01*
X125365774Y-63110898D01*
X125443795Y-63299256D01*
X125511000Y-63399836D01*
X125510999Y-97448288D01*
X125467062Y-97492225D01*
X125353794Y-97661743D01*
X125275773Y-97850101D01*
X125235999Y-98050060D01*
X125235999Y-98253938D01*
X125275773Y-98453897D01*
X125353794Y-98642255D01*
X125467062Y-98811773D01*
X125511000Y-98855711D01*
X125510999Y-102813676D01*
X125507323Y-102850999D01*
X125510999Y-102888321D01*
X125510999Y-102888331D01*
X125521996Y-102999984D01*
X125548011Y-103085744D01*
X125565453Y-103143245D01*
X125636025Y-103275275D01*
X125657774Y-103301776D01*
X125730998Y-103391000D01*
X125760001Y-103414802D01*
X126177198Y-103832000D01*
X123268719Y-103832000D01*
X123358756Y-103794705D01*
X123528274Y-103681437D01*
X123672437Y-103537274D01*
X123785705Y-103367756D01*
X123863726Y-103179398D01*
X123894000Y-103027197D01*
X123902244Y-103032705D01*
X124090602Y-103110726D01*
X124290561Y-103150500D01*
X124494439Y-103150500D01*
X124694398Y-103110726D01*
X124882756Y-103032705D01*
X125052274Y-102919437D01*
X125196437Y-102775274D01*
X125309705Y-102605756D01*
X125387726Y-102417398D01*
X125427500Y-102217439D01*
X125427500Y-102013561D01*
X125387726Y-101813602D01*
X125309705Y-101625244D01*
X125196437Y-101455726D01*
X125152500Y-101411789D01*
X125152500Y-75660623D01*
X125156176Y-75623300D01*
X125152500Y-75585977D01*
X125152500Y-75585967D01*
X125141503Y-75474314D01*
X125098046Y-75331053D01*
X125084600Y-75305898D01*
X125084600Y-75178461D01*
X125044826Y-74978502D01*
X124966805Y-74790144D01*
X124853537Y-74620626D01*
X124809600Y-74576689D01*
X124809600Y-63487311D01*
X124853537Y-63443374D01*
X124966805Y-63273856D01*
X125044826Y-63085498D01*
X125084600Y-62885539D01*
X125084600Y-62681661D01*
X125044826Y-62481702D01*
X124966805Y-62293344D01*
X124853537Y-62123826D01*
X124709374Y-61979663D01*
X124539856Y-61866395D01*
X124351498Y-61788374D01*
X124151539Y-61748600D01*
X123947661Y-61748600D01*
X123747702Y-61788374D01*
X123559344Y-61866395D01*
X123389826Y-61979663D01*
X123245663Y-62123826D01*
X123132395Y-62293344D01*
X123054374Y-62481702D01*
X123014600Y-62681661D01*
X123014600Y-62885539D01*
X123054374Y-63085498D01*
X123089790Y-63171000D01*
X122931661Y-63171000D01*
X122731702Y-63210774D01*
X122543344Y-63288795D01*
X122373826Y-63402063D01*
X122229663Y-63546226D01*
X122116395Y-63715744D01*
X122038374Y-63904102D01*
X121998600Y-64104061D01*
X121998600Y-64307939D01*
X122038374Y-64507898D01*
X122116395Y-64696256D01*
X122124883Y-64708959D01*
X121995102Y-64734774D01*
X121806744Y-64812795D01*
X121637226Y-64926063D01*
X121533000Y-65030289D01*
X121533000Y-62734711D01*
X121576937Y-62690774D01*
X121690205Y-62521256D01*
X121768226Y-62332898D01*
X121808000Y-62132939D01*
X121808000Y-61929061D01*
X121768226Y-61729102D01*
X121690205Y-61540744D01*
X121576937Y-61371226D01*
X121432774Y-61227063D01*
X121263256Y-61113795D01*
X121074898Y-61035774D01*
X120874939Y-60996000D01*
X120671061Y-60996000D01*
X120471102Y-61035774D01*
X120282744Y-61113795D01*
X120113226Y-61227063D01*
X119969063Y-61371226D01*
X119855795Y-61540744D01*
X119777774Y-61729102D01*
X119738000Y-61929061D01*
X119738000Y-62132939D01*
X119777774Y-62332898D01*
X119855795Y-62521256D01*
X119969063Y-62690774D01*
X120013001Y-62734712D01*
X120013000Y-81070832D01*
X120013001Y-81070842D01*
X120013001Y-83191290D01*
X119997987Y-83176276D01*
X119954546Y-83033068D01*
X119883974Y-82901039D01*
X119789001Y-82785314D01*
X119760002Y-82761515D01*
X119267488Y-82269002D01*
X119243686Y-82239999D01*
X119127961Y-82145026D01*
X118995932Y-82074454D01*
X118852671Y-82030997D01*
X118741018Y-82020000D01*
X118741007Y-82020000D01*
X118703685Y-82016324D01*
X118666363Y-82020000D01*
X118528072Y-82020000D01*
X118528072Y-81780000D01*
X118515812Y-81655518D01*
X118479502Y-81535820D01*
X118420537Y-81425506D01*
X118341185Y-81328815D01*
X118244494Y-81249463D01*
X118134180Y-81190498D01*
X118014482Y-81154188D01*
X117890000Y-81141928D01*
X116290000Y-81141928D01*
X116165518Y-81154188D01*
X116045820Y-81190498D01*
X115935506Y-81249463D01*
X115838815Y-81328815D01*
X115759463Y-81425506D01*
X115700498Y-81535820D01*
X115664188Y-81655518D01*
X115651928Y-81780000D01*
X115651928Y-82029725D01*
X115639014Y-82030997D01*
X115495753Y-82074454D01*
X115363724Y-82145026D01*
X115247999Y-82239999D01*
X115224200Y-82268998D01*
X114673998Y-82819201D01*
X114645000Y-82842999D01*
X114621202Y-82871997D01*
X114621201Y-82871998D01*
X114550026Y-82958724D01*
X114479454Y-83090754D01*
X114455132Y-83170937D01*
X114435998Y-83234014D01*
X114431055Y-83284205D01*
X114421324Y-83383000D01*
X114425001Y-83420332D01*
X114425001Y-84076288D01*
X114381063Y-84120226D01*
X114267795Y-84289744D01*
X114189774Y-84478102D01*
X114150000Y-84678061D01*
X114150000Y-84881939D01*
X114189774Y-85081898D01*
X114267795Y-85270256D01*
X114322080Y-85351500D01*
X114267795Y-85432744D01*
X114189774Y-85621102D01*
X114150000Y-85821061D01*
X114150000Y-86024939D01*
X114189774Y-86224898D01*
X114267795Y-86413256D01*
X114381063Y-86582774D01*
X114436013Y-86637724D01*
X114479454Y-86780932D01*
X114504037Y-86826921D01*
X114550026Y-86912961D01*
X114618996Y-86997000D01*
X114645000Y-87028686D01*
X114673998Y-87052484D01*
X114912511Y-87290997D01*
X114936314Y-87320001D01*
X115052039Y-87414974D01*
X115184068Y-87485546D01*
X115327326Y-87529002D01*
X115327329Y-87529003D01*
X115476315Y-87543677D01*
X115513648Y-87540000D01*
X115651928Y-87540000D01*
X115651928Y-87780000D01*
X115664188Y-87904482D01*
X115700498Y-88024180D01*
X115759463Y-88134494D01*
X115838815Y-88231185D01*
X115935506Y-88310537D01*
X116045820Y-88369502D01*
X116165518Y-88405812D01*
X116290000Y-88418072D01*
X117890000Y-88418072D01*
X118014482Y-88405812D01*
X118134180Y-88369502D01*
X118244494Y-88310537D01*
X118341185Y-88231185D01*
X118420537Y-88134494D01*
X118479502Y-88024180D01*
X118515812Y-87904482D01*
X118528072Y-87780000D01*
X118528072Y-87543901D01*
X118585795Y-87683256D01*
X118699063Y-87852774D01*
X118843226Y-87996937D01*
X119012744Y-88110205D01*
X119201102Y-88188226D01*
X119401061Y-88228000D01*
X119604939Y-88228000D01*
X119804898Y-88188226D01*
X119993256Y-88110205D01*
X120162774Y-87996937D01*
X120217724Y-87941987D01*
X120360932Y-87898546D01*
X120492961Y-87827974D01*
X120608686Y-87733001D01*
X120632488Y-87703998D01*
X121284004Y-87052483D01*
X121313001Y-87028686D01*
X121407974Y-86912961D01*
X121478546Y-86780932D01*
X121522003Y-86637671D01*
X121533000Y-86526018D01*
X121533000Y-86526008D01*
X121536676Y-86488685D01*
X121533000Y-86451362D01*
X121533000Y-77877500D01*
X121700439Y-77877500D01*
X121900398Y-77837726D01*
X122088756Y-77759705D01*
X122135002Y-77728805D01*
X122135001Y-85462408D01*
X122119498Y-85513516D01*
X122113016Y-85579332D01*
X122104824Y-85662502D01*
X122108501Y-85699835D01*
X122108500Y-102173789D01*
X122064563Y-102217726D01*
X121951295Y-102387244D01*
X121873274Y-102575602D01*
X121833500Y-102775561D01*
X121833500Y-102979439D01*
X121873274Y-103179398D01*
X121951295Y-103367756D01*
X122064563Y-103537274D01*
X122208726Y-103681437D01*
X122378244Y-103794705D01*
X122468281Y-103832000D01*
X116523711Y-103832000D01*
X116479774Y-103788063D01*
X116310256Y-103674795D01*
X116121898Y-103596774D01*
X115921939Y-103557000D01*
X115718061Y-103557000D01*
X115518102Y-103596774D01*
X115329744Y-103674795D01*
X115160226Y-103788063D01*
X115116289Y-103832000D01*
X107362856Y-103832000D01*
X107393500Y-103677939D01*
X107393500Y-103474061D01*
X107353726Y-103274102D01*
X107275705Y-103085744D01*
X107162437Y-102916226D01*
X107118500Y-102872289D01*
X107118500Y-93181000D01*
X107285939Y-93181000D01*
X107485898Y-93141226D01*
X107674256Y-93063205D01*
X107843774Y-92949937D01*
X107987937Y-92805774D01*
X108101205Y-92636256D01*
X108179226Y-92447898D01*
X108219000Y-92247939D01*
X108219000Y-92044061D01*
X108179226Y-91844102D01*
X108101205Y-91655744D01*
X107987937Y-91486226D01*
X107944000Y-91442289D01*
X107944000Y-76212711D01*
X107987937Y-76168774D01*
X108101205Y-75999256D01*
X108179226Y-75810898D01*
X108219000Y-75610939D01*
X108219000Y-75407061D01*
X108179226Y-75207102D01*
X108101205Y-75018744D01*
X107987937Y-74849226D01*
X107843774Y-74705063D01*
X107674256Y-74591795D01*
X107485898Y-74513774D01*
X107285939Y-74474000D01*
X107118500Y-74474000D01*
X107118500Y-72956882D01*
X107165719Y-72909663D01*
X107278987Y-72740145D01*
X107357008Y-72551787D01*
X107396782Y-72351828D01*
X107396782Y-72147950D01*
X107357008Y-71947991D01*
X107278987Y-71759633D01*
X107165719Y-71590115D01*
X107021556Y-71445952D01*
X106852038Y-71332684D01*
X106663680Y-71254663D01*
X106463721Y-71214889D01*
X106259843Y-71214889D01*
X106059884Y-71254663D01*
X105871526Y-71332684D01*
X105702008Y-71445952D01*
X105658000Y-71489960D01*
X105658000Y-68289000D01*
X105761939Y-68289000D01*
X105961898Y-68249226D01*
X106150256Y-68171205D01*
X106319774Y-68057937D01*
X106463937Y-67913774D01*
X106577205Y-67744256D01*
X106655226Y-67555898D01*
X106695000Y-67355939D01*
X106695000Y-67152061D01*
X106655226Y-66952102D01*
X106577205Y-66763744D01*
X106463937Y-66594226D01*
X106420000Y-66550289D01*
X106420000Y-63760356D01*
X106574061Y-63791000D01*
X106743623Y-63791000D01*
X106696774Y-63904102D01*
X106657000Y-64104061D01*
X106657000Y-64307939D01*
X106696774Y-64507898D01*
X106774795Y-64696256D01*
X106888063Y-64865774D01*
X107032226Y-65009937D01*
X107201744Y-65123205D01*
X107390102Y-65201226D01*
X107590061Y-65241000D01*
X107793939Y-65241000D01*
X107993898Y-65201226D01*
X108182256Y-65123205D01*
X108351774Y-65009937D01*
X108456001Y-64905710D01*
X108456000Y-93093289D01*
X108412063Y-93137226D01*
X108298795Y-93306744D01*
X108220774Y-93495102D01*
X108181000Y-93695061D01*
X108181000Y-93898939D01*
X108220774Y-94098898D01*
X108298795Y-94287256D01*
X108412063Y-94456774D01*
X108556226Y-94600937D01*
X108725744Y-94714205D01*
X108914102Y-94792226D01*
X109114061Y-94832000D01*
X109317939Y-94832000D01*
X109517898Y-94792226D01*
X109706256Y-94714205D01*
X109875774Y-94600937D01*
X110019937Y-94456774D01*
X110133205Y-94287256D01*
X110211226Y-94098898D01*
X110251000Y-93898939D01*
X110251000Y-93695061D01*
X110211226Y-93495102D01*
X110133205Y-93306744D01*
X110019937Y-93137226D01*
X109976000Y-93093289D01*
X109976000Y-92298061D01*
X119865000Y-92298061D01*
X119865000Y-92501939D01*
X119904774Y-92701898D01*
X119982795Y-92890256D01*
X120096063Y-93059774D01*
X120140000Y-93103711D01*
X120140001Y-95887288D01*
X120096063Y-95931226D01*
X119982795Y-96100744D01*
X119904774Y-96289102D01*
X119865000Y-96489061D01*
X119865000Y-96692939D01*
X119904774Y-96892898D01*
X119982795Y-97081256D01*
X120096063Y-97250774D01*
X120240226Y-97394937D01*
X120409744Y-97508205D01*
X120598102Y-97586226D01*
X120798061Y-97626000D01*
X121001939Y-97626000D01*
X121201898Y-97586226D01*
X121390256Y-97508205D01*
X121559774Y-97394937D01*
X121703937Y-97250774D01*
X121817205Y-97081256D01*
X121895226Y-96892898D01*
X121935000Y-96692939D01*
X121935000Y-96489061D01*
X121895226Y-96289102D01*
X121817205Y-96100744D01*
X121703937Y-95931226D01*
X121660000Y-95887289D01*
X121660000Y-93103711D01*
X121703937Y-93059774D01*
X121817205Y-92890256D01*
X121895226Y-92701898D01*
X121935000Y-92501939D01*
X121935000Y-92298061D01*
X121895226Y-92098102D01*
X121817205Y-91909744D01*
X121703937Y-91740226D01*
X121559774Y-91596063D01*
X121390256Y-91482795D01*
X121201898Y-91404774D01*
X121001939Y-91365000D01*
X120798061Y-91365000D01*
X120598102Y-91404774D01*
X120409744Y-91482795D01*
X120240226Y-91596063D01*
X120096063Y-91740226D01*
X119982795Y-91909744D01*
X119904774Y-92098102D01*
X119865000Y-92298061D01*
X109976000Y-92298061D01*
X109976000Y-88393154D01*
X110122744Y-88491205D01*
X110311102Y-88569226D01*
X110511061Y-88609000D01*
X110714939Y-88609000D01*
X110914898Y-88569226D01*
X111103256Y-88491205D01*
X111272774Y-88377937D01*
X111416937Y-88233774D01*
X111530205Y-88064256D01*
X111608226Y-87875898D01*
X111648000Y-87675939D01*
X111648000Y-87472061D01*
X111608226Y-87272102D01*
X111530205Y-87083744D01*
X111416937Y-86914226D01*
X111373000Y-86870289D01*
X111373000Y-79760801D01*
X112695503Y-78438299D01*
X112724501Y-78414501D01*
X112819474Y-78298776D01*
X112890046Y-78166747D01*
X112933503Y-78023486D01*
X112944500Y-77911833D01*
X112948177Y-77874500D01*
X112944500Y-77837167D01*
X112944500Y-77607603D01*
X112974726Y-77637829D01*
X113144244Y-77751097D01*
X113332602Y-77829118D01*
X113362725Y-77835110D01*
X113364274Y-77842898D01*
X113442295Y-78031256D01*
X113555563Y-78200774D01*
X113699726Y-78344937D01*
X113869244Y-78458205D01*
X114057602Y-78536226D01*
X114257561Y-78576000D01*
X114461439Y-78576000D01*
X114661398Y-78536226D01*
X114849756Y-78458205D01*
X115019274Y-78344937D01*
X115163437Y-78200774D01*
X115276705Y-78031256D01*
X115354726Y-77842898D01*
X115394500Y-77642939D01*
X115394500Y-77439061D01*
X115371942Y-77325653D01*
X115375226Y-77328937D01*
X115544744Y-77442205D01*
X115733102Y-77520226D01*
X115933061Y-77560000D01*
X116136939Y-77560000D01*
X116336898Y-77520226D01*
X116525256Y-77442205D01*
X116694774Y-77328937D01*
X116838937Y-77184774D01*
X116952205Y-77015256D01*
X117030226Y-76826898D01*
X117070000Y-76626939D01*
X117070000Y-76423061D01*
X117032923Y-76236658D01*
X117194274Y-76128847D01*
X117338437Y-75984684D01*
X117451705Y-75815166D01*
X117529726Y-75626808D01*
X117569500Y-75426849D01*
X117569500Y-75222971D01*
X117529726Y-75023012D01*
X117451705Y-74834654D01*
X117338437Y-74665136D01*
X117294500Y-74621199D01*
X117294500Y-64314301D01*
X117855004Y-63753798D01*
X117884001Y-63730001D01*
X117910332Y-63697917D01*
X117978974Y-63614277D01*
X118049546Y-63482247D01*
X118061338Y-63443374D01*
X118093003Y-63338986D01*
X118104000Y-63227333D01*
X118104000Y-63227323D01*
X118107676Y-63190000D01*
X118104000Y-63152677D01*
X118104000Y-62734711D01*
X118147937Y-62690774D01*
X118261205Y-62521256D01*
X118339226Y-62332898D01*
X118379000Y-62132939D01*
X118379000Y-61929061D01*
X118339226Y-61729102D01*
X118276602Y-61577916D01*
X118439102Y-61645226D01*
X118639061Y-61685000D01*
X118842939Y-61685000D01*
X119042898Y-61645226D01*
X119231256Y-61567205D01*
X119400774Y-61453937D01*
X119544937Y-61309774D01*
X119658205Y-61140256D01*
X119736226Y-60951898D01*
X119776000Y-60751939D01*
X119776000Y-60548061D01*
X119736226Y-60348102D01*
X119658205Y-60159744D01*
X119544937Y-59990226D01*
X119400774Y-59846063D01*
X119231256Y-59732795D01*
X119042898Y-59654774D01*
X118842939Y-59615000D01*
X118639061Y-59615000D01*
X118439102Y-59654774D01*
X118250744Y-59732795D01*
X118081226Y-59846063D01*
X118037289Y-59890000D01*
X115402323Y-59890000D01*
X115365000Y-59886324D01*
X115327677Y-59890000D01*
X115327667Y-59890000D01*
X115216014Y-59900997D01*
X115072753Y-59944454D01*
X114940724Y-60015026D01*
X114824999Y-60109999D01*
X114801196Y-60139003D01*
X114573503Y-60366696D01*
X114544499Y-60390499D01*
X114489371Y-60457674D01*
X114449526Y-60506224D01*
X114428443Y-60545668D01*
X114378954Y-60638254D01*
X114335497Y-60781515D01*
X114324500Y-60893168D01*
X114324500Y-60893178D01*
X114320824Y-60930500D01*
X114324500Y-60967822D01*
X114324500Y-63933000D01*
X114257561Y-63933000D01*
X114057602Y-63972774D01*
X113869244Y-64050795D01*
X113699726Y-64164063D01*
X113555563Y-64308226D01*
X113468500Y-64438525D01*
X113468500Y-61284711D01*
X113512437Y-61240774D01*
X113625705Y-61071256D01*
X113703726Y-60882898D01*
X113743500Y-60682939D01*
X113743500Y-60479061D01*
X113703726Y-60279102D01*
X113625705Y-60090744D01*
X113512437Y-59921226D01*
X113368274Y-59777063D01*
X113198756Y-59663795D01*
X113010398Y-59585774D01*
X112810439Y-59546000D01*
X112606561Y-59546000D01*
X112406602Y-59585774D01*
X112218244Y-59663795D01*
X112048726Y-59777063D01*
X111904563Y-59921226D01*
X111883000Y-59953497D01*
X111861437Y-59921226D01*
X111717274Y-59777063D01*
X111547756Y-59663795D01*
X111359398Y-59585774D01*
X111159439Y-59546000D01*
X110955561Y-59546000D01*
X110755602Y-59585774D01*
X110567244Y-59663795D01*
X110397726Y-59777063D01*
X110253563Y-59921226D01*
X110140295Y-60090744D01*
X110062274Y-60279102D01*
X110022500Y-60479061D01*
X110022500Y-60682939D01*
X110062274Y-60882898D01*
X110140295Y-61071256D01*
X110253563Y-61240774D01*
X110299502Y-61286713D01*
X110299501Y-74870790D01*
X110255564Y-74914727D01*
X110142296Y-75084245D01*
X110064275Y-75272603D01*
X110024501Y-75472562D01*
X110024501Y-75676440D01*
X110064275Y-75876399D01*
X110142296Y-76064757D01*
X110255564Y-76234275D01*
X110399727Y-76378438D01*
X110569245Y-76491706D01*
X110757603Y-76569727D01*
X110957562Y-76609501D01*
X111161440Y-76609501D01*
X111361399Y-76569727D01*
X111424500Y-76543589D01*
X111424501Y-77559697D01*
X110102003Y-78882196D01*
X110072999Y-78905999D01*
X110036070Y-78950998D01*
X109978026Y-79021724D01*
X109976000Y-79025514D01*
X109976000Y-64221711D01*
X110056937Y-64140774D01*
X110170205Y-63971256D01*
X110248226Y-63782898D01*
X110288000Y-63582939D01*
X110288000Y-63379061D01*
X110248226Y-63179102D01*
X110170205Y-62990744D01*
X110056937Y-62821226D01*
X109912774Y-62677063D01*
X109743256Y-62563795D01*
X109554898Y-62485774D01*
X109354939Y-62446000D01*
X109151061Y-62446000D01*
X108951102Y-62485774D01*
X108762744Y-62563795D01*
X108593226Y-62677063D01*
X108452000Y-62818289D01*
X108452000Y-59507000D01*
X130808000Y-59507000D01*
X130808001Y-65026288D01*
X130764063Y-65070226D01*
X130650795Y-65239744D01*
X130572774Y-65428102D01*
X130533000Y-65628061D01*
X130533000Y-65831939D01*
X130572774Y-66031898D01*
X130650795Y-66220256D01*
X130764063Y-66389774D01*
X130908226Y-66533937D01*
X131077744Y-66647205D01*
X131266102Y-66725226D01*
X131466061Y-66765000D01*
X131669939Y-66765000D01*
X131869898Y-66725226D01*
X132058256Y-66647205D01*
X132227774Y-66533937D01*
X132371937Y-66389774D01*
X132485205Y-66220256D01*
X132563226Y-66031898D01*
X132603000Y-65831939D01*
X132603000Y-65628061D01*
X132563226Y-65428102D01*
X132485205Y-65239744D01*
X132371937Y-65070226D01*
X132328000Y-65026289D01*
X132328000Y-59774608D01*
X132456829Y-59903437D01*
X132626347Y-60016705D01*
X132814705Y-60094726D01*
X132847506Y-60101251D01*
X132858774Y-60157898D01*
X132936795Y-60346256D01*
X133050063Y-60515774D01*
X133194226Y-60659937D01*
X133363744Y-60773205D01*
X133552102Y-60851226D01*
X133752061Y-60891000D01*
X133955939Y-60891000D01*
X134046500Y-60872986D01*
X134046500Y-61343289D01*
X134002563Y-61387226D01*
X133889295Y-61556744D01*
X133811274Y-61745102D01*
X133771500Y-61945061D01*
X133771500Y-62148939D01*
X133811274Y-62348898D01*
X133889295Y-62537256D01*
X134002563Y-62706774D01*
X134146726Y-62850937D01*
X134316244Y-62964205D01*
X134504602Y-63042226D01*
X134704561Y-63082000D01*
X134908439Y-63082000D01*
X135108398Y-63042226D01*
X135296756Y-62964205D01*
X135466274Y-62850937D01*
X135473925Y-62843286D01*
X135647602Y-62915226D01*
X135847561Y-62955000D01*
X136051439Y-62955000D01*
X136251398Y-62915226D01*
X136439756Y-62837205D01*
X136609274Y-62723937D01*
X136753437Y-62579774D01*
X136866705Y-62410256D01*
X136944726Y-62221898D01*
X136984500Y-62021939D01*
X136984500Y-61818061D01*
X136944726Y-61618102D01*
X136866705Y-61429744D01*
X136753437Y-61260226D01*
X136709500Y-61216289D01*
X136709500Y-57543711D01*
X136753437Y-57499774D01*
X136866705Y-57330256D01*
X136944726Y-57141898D01*
X136984500Y-56941939D01*
X136984500Y-56738061D01*
X136944726Y-56538102D01*
X136866705Y-56349744D01*
X136753437Y-56180226D01*
X136609274Y-56036063D01*
X136439756Y-55922795D01*
X136251398Y-55844774D01*
X136051439Y-55805000D01*
X135847561Y-55805000D01*
X135647602Y-55844774D01*
X135459244Y-55922795D01*
X135289726Y-56036063D01*
X135145563Y-56180226D01*
X135032295Y-56349744D01*
X134954274Y-56538102D01*
X134914500Y-56738061D01*
X134914500Y-56941939D01*
X134954274Y-57141898D01*
X135032295Y-57330256D01*
X135145563Y-57499774D01*
X135189501Y-57543712D01*
X135189501Y-58481868D01*
X135108398Y-58448274D01*
X134908439Y-58408500D01*
X134704561Y-58408500D01*
X134614000Y-58426514D01*
X134614000Y-57543711D01*
X134657937Y-57499774D01*
X134771205Y-57330256D01*
X134849226Y-57141898D01*
X134889000Y-56941939D01*
X134889000Y-56738061D01*
X134849226Y-56538102D01*
X134771205Y-56349744D01*
X134657937Y-56180226D01*
X134513774Y-56036063D01*
X134344256Y-55922795D01*
X134155898Y-55844774D01*
X133955939Y-55805000D01*
X133876603Y-55805000D01*
X133876603Y-52439108D01*
X133895937Y-52419774D01*
X134009205Y-52250256D01*
X134087226Y-52061898D01*
X134127000Y-51861939D01*
X134127000Y-51658061D01*
X134087226Y-51458102D01*
X134009205Y-51269744D01*
X133895937Y-51100226D01*
X133751774Y-50956063D01*
X133582256Y-50842795D01*
X133393898Y-50764774D01*
X133193939Y-50725000D01*
X132990061Y-50725000D01*
X132790102Y-50764774D01*
X132601744Y-50842795D01*
X132457000Y-50939510D01*
X132457000Y-42260000D01*
X147003000Y-42260000D01*
X147003000Y-50600000D01*
X147005440Y-50624776D01*
X147012667Y-50648601D01*
X147024403Y-50670557D01*
X147040197Y-50689803D01*
X147059443Y-50705597D01*
X147081399Y-50717333D01*
X147105224Y-50724560D01*
X147130000Y-50727000D01*
X155470000Y-50727000D01*
X155470001Y-117940000D01*
X147257000Y-117940000D01*
X147257000Y-105600000D01*
X147254560Y-105575224D01*
X147247333Y-105551399D01*
X147235597Y-105529443D01*
X147219803Y-105510197D01*
X147200557Y-105494403D01*
X147178601Y-105482667D01*
X147154776Y-105475440D01*
X147130000Y-105473000D01*
X135130000Y-105473000D01*
X135105224Y-105475440D01*
X135081399Y-105482667D01*
X135059443Y-105494403D01*
X135040197Y-105510197D01*
X135024403Y-105529443D01*
X135012667Y-105551399D01*
X135005440Y-105575224D01*
X135003000Y-105600000D01*
X135003000Y-117940000D01*
X79257000Y-117940000D01*
X79257000Y-104600000D01*
X79254560Y-104575224D01*
X79247333Y-104551399D01*
X79235597Y-104529443D01*
X79219803Y-104510197D01*
X79200557Y-104494403D01*
X79178601Y-104482667D01*
X79154776Y-104475440D01*
X79130000Y-104473000D01*
X67130000Y-104473000D01*
X67105224Y-104475440D01*
X67081399Y-104482667D01*
X67059443Y-104494403D01*
X67040197Y-104510197D01*
X67024403Y-104529443D01*
X67012667Y-104551399D01*
X67005440Y-104575224D01*
X67003000Y-104600000D01*
X67003000Y-117940000D01*
X56790000Y-117940000D01*
X56790000Y-98750000D01*
X58447815Y-98750000D01*
X58476487Y-99041111D01*
X58561401Y-99321034D01*
X58699294Y-99579014D01*
X58884866Y-99805134D01*
X59110986Y-99990706D01*
X59165791Y-100020000D01*
X59110986Y-100049294D01*
X58884866Y-100234866D01*
X58699294Y-100460986D01*
X58561401Y-100718966D01*
X58476487Y-100998889D01*
X58447815Y-101290000D01*
X58476487Y-101581111D01*
X58561401Y-101861034D01*
X58699294Y-102119014D01*
X58884866Y-102345134D01*
X59110986Y-102530706D01*
X59165791Y-102560000D01*
X59110986Y-102589294D01*
X58884866Y-102774866D01*
X58699294Y-103000986D01*
X58561401Y-103258966D01*
X58476487Y-103538889D01*
X58447815Y-103830000D01*
X58476487Y-104121111D01*
X58561401Y-104401034D01*
X58699294Y-104659014D01*
X58884866Y-104885134D01*
X59110986Y-105070706D01*
X59165791Y-105100000D01*
X59110986Y-105129294D01*
X58884866Y-105314866D01*
X58699294Y-105540986D01*
X58561401Y-105798966D01*
X58476487Y-106078889D01*
X58447815Y-106370000D01*
X58476487Y-106661111D01*
X58561401Y-106941034D01*
X58699294Y-107199014D01*
X58884866Y-107425134D01*
X59110986Y-107610706D01*
X59165791Y-107640000D01*
X59110986Y-107669294D01*
X58884866Y-107854866D01*
X58699294Y-108080986D01*
X58561401Y-108338966D01*
X58476487Y-108618889D01*
X58447815Y-108910000D01*
X58476487Y-109201111D01*
X58561401Y-109481034D01*
X58699294Y-109739014D01*
X58884866Y-109965134D01*
X59110986Y-110150706D01*
X59165791Y-110180000D01*
X59110986Y-110209294D01*
X58884866Y-110394866D01*
X58699294Y-110620986D01*
X58561401Y-110878966D01*
X58476487Y-111158889D01*
X58447815Y-111450000D01*
X58476487Y-111741111D01*
X58561401Y-112021034D01*
X58699294Y-112279014D01*
X58884866Y-112505134D01*
X59110986Y-112690706D01*
X59165791Y-112720000D01*
X59110986Y-112749294D01*
X58884866Y-112934866D01*
X58699294Y-113160986D01*
X58561401Y-113418966D01*
X58476487Y-113698889D01*
X58447815Y-113990000D01*
X58476487Y-114281111D01*
X58561401Y-114561034D01*
X58699294Y-114819014D01*
X58884866Y-115045134D01*
X59110986Y-115230706D01*
X59368966Y-115368599D01*
X59648889Y-115453513D01*
X59867050Y-115475000D01*
X60012950Y-115475000D01*
X60231111Y-115453513D01*
X60511034Y-115368599D01*
X60769014Y-115230706D01*
X60995134Y-115045134D01*
X61180706Y-114819014D01*
X61318599Y-114561034D01*
X61403513Y-114281111D01*
X61432185Y-113990000D01*
X61403513Y-113698889D01*
X61318599Y-113418966D01*
X61180706Y-113160986D01*
X60995134Y-112934866D01*
X60769014Y-112749294D01*
X60714209Y-112720000D01*
X60769014Y-112690706D01*
X60995134Y-112505134D01*
X61180706Y-112279014D01*
X61318599Y-112021034D01*
X61403513Y-111741111D01*
X61432185Y-111450000D01*
X61403513Y-111158889D01*
X61318599Y-110878966D01*
X61180706Y-110620986D01*
X60995134Y-110394866D01*
X60769014Y-110209294D01*
X60714209Y-110180000D01*
X60769014Y-110150706D01*
X60995134Y-109965134D01*
X61180706Y-109739014D01*
X61318599Y-109481034D01*
X61403513Y-109201111D01*
X61432185Y-108910000D01*
X61403513Y-108618889D01*
X61318599Y-108338966D01*
X61180706Y-108080986D01*
X60995134Y-107854866D01*
X60769014Y-107669294D01*
X60714209Y-107640000D01*
X60769014Y-107610706D01*
X60995134Y-107425134D01*
X61180706Y-107199014D01*
X61318599Y-106941034D01*
X61403513Y-106661111D01*
X61432185Y-106370000D01*
X61403513Y-106078889D01*
X61318599Y-105798966D01*
X61180706Y-105540986D01*
X60995134Y-105314866D01*
X60769014Y-105129294D01*
X60714209Y-105100000D01*
X60769014Y-105070706D01*
X60995134Y-104885134D01*
X61180706Y-104659014D01*
X61318599Y-104401034D01*
X61403513Y-104121111D01*
X61432185Y-103830000D01*
X61403513Y-103538889D01*
X61318599Y-103258966D01*
X61180706Y-103000986D01*
X60995134Y-102774866D01*
X60769014Y-102589294D01*
X60714209Y-102560000D01*
X60769014Y-102530706D01*
X60995134Y-102345134D01*
X61180706Y-102119014D01*
X61318599Y-101861034D01*
X61403513Y-101581111D01*
X61432185Y-101290000D01*
X61403513Y-100998889D01*
X61318599Y-100718966D01*
X61180706Y-100460986D01*
X60995134Y-100234866D01*
X60769014Y-100049294D01*
X60714209Y-100020000D01*
X60769014Y-99990706D01*
X60995134Y-99805134D01*
X61180706Y-99579014D01*
X61318599Y-99321034D01*
X61403513Y-99041111D01*
X61432185Y-98750000D01*
X61403513Y-98458889D01*
X61318599Y-98178966D01*
X61180706Y-97920986D01*
X60995134Y-97694866D01*
X60965313Y-97670393D01*
X61034180Y-97649502D01*
X61144494Y-97590537D01*
X61241185Y-97511185D01*
X61320537Y-97414494D01*
X61379502Y-97304180D01*
X61415812Y-97184482D01*
X61428072Y-97060000D01*
X61428072Y-95360000D01*
X61415812Y-95235518D01*
X61379502Y-95115820D01*
X61320537Y-95005506D01*
X61241185Y-94908815D01*
X61144494Y-94829463D01*
X61034180Y-94770498D01*
X60914482Y-94734188D01*
X60790000Y-94721928D01*
X59090000Y-94721928D01*
X58965518Y-94734188D01*
X58845820Y-94770498D01*
X58735506Y-94829463D01*
X58638815Y-94908815D01*
X58559463Y-95005506D01*
X58500498Y-95115820D01*
X58464188Y-95235518D01*
X58451928Y-95360000D01*
X58451928Y-97060000D01*
X58464188Y-97184482D01*
X58500498Y-97304180D01*
X58559463Y-97414494D01*
X58638815Y-97511185D01*
X58735506Y-97590537D01*
X58845820Y-97649502D01*
X58914687Y-97670393D01*
X58884866Y-97694866D01*
X58699294Y-97920986D01*
X58561401Y-98178966D01*
X58476487Y-98458889D01*
X58447815Y-98750000D01*
X56790000Y-98750000D01*
X56790000Y-84628816D01*
X60285000Y-84628816D01*
X60285000Y-84931184D01*
X60343989Y-85227743D01*
X60459701Y-85507095D01*
X60627688Y-85758505D01*
X60841495Y-85972312D01*
X61092905Y-86140299D01*
X61372257Y-86256011D01*
X61668816Y-86315000D01*
X61971184Y-86315000D01*
X62267743Y-86256011D01*
X62547095Y-86140299D01*
X62798505Y-85972312D01*
X63012312Y-85758505D01*
X63180299Y-85507095D01*
X63296011Y-85227743D01*
X63355000Y-84931184D01*
X63355000Y-84628816D01*
X63485000Y-84628816D01*
X63485000Y-84931184D01*
X63543989Y-85227743D01*
X63659701Y-85507095D01*
X63827688Y-85758505D01*
X64041495Y-85972312D01*
X64292905Y-86140299D01*
X64572257Y-86256011D01*
X64868816Y-86315000D01*
X65171184Y-86315000D01*
X65467743Y-86256011D01*
X65747095Y-86140299D01*
X65998505Y-85972312D01*
X66212312Y-85758505D01*
X66380299Y-85507095D01*
X66496011Y-85227743D01*
X66555000Y-84931184D01*
X66555000Y-84628816D01*
X66496011Y-84332257D01*
X66380299Y-84052905D01*
X66212312Y-83801495D01*
X65998505Y-83587688D01*
X65747095Y-83419701D01*
X65467743Y-83303989D01*
X65171184Y-83245000D01*
X64868816Y-83245000D01*
X64572257Y-83303989D01*
X64292905Y-83419701D01*
X64041495Y-83587688D01*
X63827688Y-83801495D01*
X63659701Y-84052905D01*
X63543989Y-84332257D01*
X63485000Y-84628816D01*
X63355000Y-84628816D01*
X63296011Y-84332257D01*
X63180299Y-84052905D01*
X63012312Y-83801495D01*
X62798505Y-83587688D01*
X62580000Y-83441687D01*
X62580000Y-75086801D01*
X63752000Y-73914801D01*
X63752000Y-75186289D01*
X63708063Y-75230226D01*
X63594795Y-75399744D01*
X63516774Y-75588102D01*
X63477000Y-75788061D01*
X63477000Y-75991939D01*
X63516774Y-76191898D01*
X63594795Y-76380256D01*
X63708063Y-76549774D01*
X63752000Y-76593711D01*
X63752001Y-76964288D01*
X63708063Y-77008226D01*
X63594795Y-77177744D01*
X63516774Y-77366102D01*
X63477000Y-77566061D01*
X63477000Y-77769939D01*
X63516774Y-77969898D01*
X63594795Y-78158256D01*
X63708063Y-78327774D01*
X63852226Y-78471937D01*
X64021744Y-78585205D01*
X64210102Y-78663226D01*
X64410061Y-78703000D01*
X64613939Y-78703000D01*
X64813898Y-78663226D01*
X65002256Y-78585205D01*
X65171774Y-78471937D01*
X65315937Y-78327774D01*
X65429205Y-78158256D01*
X65507226Y-77969898D01*
X65547000Y-77769939D01*
X65547000Y-77566061D01*
X65507226Y-77366102D01*
X65429205Y-77177744D01*
X65315937Y-77008226D01*
X65272000Y-76964289D01*
X65272000Y-76593711D01*
X65315937Y-76549774D01*
X65429205Y-76380256D01*
X65507226Y-76191898D01*
X65547000Y-75991939D01*
X65547000Y-75788061D01*
X65507226Y-75588102D01*
X65429205Y-75399744D01*
X65315937Y-75230226D01*
X65272000Y-75186289D01*
X65272000Y-71570000D01*
X66207379Y-71570000D01*
X66240498Y-71679180D01*
X66299463Y-71789494D01*
X66378815Y-71886185D01*
X66475506Y-71965537D01*
X66585820Y-72024502D01*
X66705518Y-72060812D01*
X66830000Y-72073072D01*
X67075701Y-72073072D01*
X67024463Y-72135506D01*
X66965498Y-72245820D01*
X66929188Y-72365518D01*
X66916928Y-72490000D01*
X66916928Y-74050000D01*
X66929188Y-74174482D01*
X66965498Y-74294180D01*
X67024463Y-74404494D01*
X67103815Y-74501185D01*
X67200506Y-74580537D01*
X67274335Y-74620000D01*
X67200506Y-74659463D01*
X67103815Y-74738815D01*
X67024463Y-74835506D01*
X66965498Y-74945820D01*
X66929188Y-75065518D01*
X66916928Y-75190000D01*
X66920000Y-75684250D01*
X67078750Y-75843000D01*
X67753000Y-75843000D01*
X67753000Y-75823000D01*
X67866928Y-75823000D01*
X67866928Y-76117000D01*
X67753000Y-76117000D01*
X67753000Y-76097000D01*
X67078750Y-76097000D01*
X66920000Y-76255750D01*
X66916928Y-76750000D01*
X66929188Y-76874482D01*
X66965498Y-76994180D01*
X67024463Y-77104494D01*
X67103815Y-77201185D01*
X67200506Y-77280537D01*
X67310820Y-77339502D01*
X67430518Y-77375812D01*
X67555000Y-77388072D01*
X67594250Y-77385000D01*
X67752998Y-77226252D01*
X67752998Y-77385000D01*
X67831015Y-77385000D01*
X67795000Y-77566061D01*
X67795000Y-77769939D01*
X67834774Y-77969898D01*
X67912795Y-78158256D01*
X68026063Y-78327774D01*
X68070001Y-78371712D01*
X68070000Y-80170677D01*
X68066324Y-80208000D01*
X68070000Y-80245322D01*
X68070000Y-80245332D01*
X68080997Y-80356985D01*
X68112344Y-80460323D01*
X68124454Y-80500246D01*
X68195026Y-80632276D01*
X68234871Y-80680826D01*
X68289999Y-80748001D01*
X68319002Y-80771804D01*
X69086001Y-81538803D01*
X69086001Y-83512515D01*
X68947095Y-83419701D01*
X68667743Y-83303989D01*
X68371184Y-83245000D01*
X68068816Y-83245000D01*
X67772257Y-83303989D01*
X67492905Y-83419701D01*
X67241495Y-83587688D01*
X67027688Y-83801495D01*
X66859701Y-84052905D01*
X66743989Y-84332257D01*
X66685000Y-84628816D01*
X66685000Y-84931184D01*
X66743989Y-85227743D01*
X66859701Y-85507095D01*
X67027688Y-85758505D01*
X67241495Y-85972312D01*
X67492905Y-86140299D01*
X67772257Y-86256011D01*
X68068816Y-86315000D01*
X68371184Y-86315000D01*
X68667743Y-86256011D01*
X68947095Y-86140299D01*
X69086001Y-86047485D01*
X69086000Y-97792289D01*
X69042063Y-97836226D01*
X68928795Y-98005744D01*
X68850774Y-98194102D01*
X68811000Y-98394061D01*
X68811000Y-98597939D01*
X68850774Y-98797898D01*
X68928795Y-98986256D01*
X69042063Y-99155774D01*
X69186226Y-99299937D01*
X69355744Y-99413205D01*
X69544102Y-99491226D01*
X69744061Y-99531000D01*
X69947939Y-99531000D01*
X70147898Y-99491226D01*
X70336256Y-99413205D01*
X70505774Y-99299937D01*
X70649937Y-99155774D01*
X70763205Y-98986256D01*
X70841226Y-98797898D01*
X70881000Y-98597939D01*
X70881000Y-98394061D01*
X70841226Y-98194102D01*
X70763205Y-98005744D01*
X70649937Y-97836226D01*
X70606000Y-97792289D01*
X70606000Y-95296891D01*
X77548519Y-95296891D01*
X77645843Y-95571252D01*
X77794822Y-95821355D01*
X77989731Y-96037588D01*
X78223080Y-96211641D01*
X78485901Y-96336825D01*
X78633110Y-96381476D01*
X78863000Y-96260155D01*
X78863000Y-95067000D01*
X77669186Y-95067000D01*
X77548519Y-95296891D01*
X70606000Y-95296891D01*
X70606000Y-94583109D01*
X77548519Y-94583109D01*
X77669186Y-94813000D01*
X78863000Y-94813000D01*
X78863000Y-93619845D01*
X78633110Y-93498524D01*
X78485901Y-93543175D01*
X78223080Y-93668359D01*
X77989731Y-93842412D01*
X77794822Y-94058645D01*
X77645843Y-94308748D01*
X77548519Y-94583109D01*
X70606000Y-94583109D01*
X70606000Y-88195000D01*
X73526928Y-88195000D01*
X73539188Y-88319482D01*
X73575498Y-88439180D01*
X73634463Y-88549494D01*
X73713815Y-88646185D01*
X73810506Y-88725537D01*
X73920820Y-88784502D01*
X74040518Y-88820812D01*
X74165000Y-88833072D01*
X74894250Y-88830000D01*
X75053000Y-88671250D01*
X75053000Y-86997000D01*
X75307000Y-86997000D01*
X75307000Y-88671250D01*
X75465750Y-88830000D01*
X76195000Y-88833072D01*
X76319482Y-88820812D01*
X76439180Y-88784502D01*
X76549494Y-88725537D01*
X76646185Y-88646185D01*
X76725537Y-88549494D01*
X76784502Y-88439180D01*
X76820812Y-88319482D01*
X76833072Y-88195000D01*
X76830000Y-87155750D01*
X76671250Y-86997000D01*
X75307000Y-86997000D01*
X75053000Y-86997000D01*
X73688750Y-86997000D01*
X73530000Y-87155750D01*
X73526928Y-88195000D01*
X70606000Y-88195000D01*
X70606000Y-85545000D01*
X73526928Y-85545000D01*
X73530000Y-86584250D01*
X73688750Y-86743000D01*
X75053000Y-86743000D01*
X75053000Y-85068750D01*
X75307000Y-85068750D01*
X75307000Y-86743000D01*
X76671250Y-86743000D01*
X76830000Y-86584250D01*
X76833072Y-85545000D01*
X76820812Y-85420518D01*
X76784502Y-85300820D01*
X76725537Y-85190506D01*
X76646185Y-85093815D01*
X76549494Y-85014463D01*
X76439180Y-84955498D01*
X76319482Y-84919188D01*
X76195000Y-84906928D01*
X75465750Y-84910000D01*
X75307000Y-85068750D01*
X75053000Y-85068750D01*
X74894250Y-84910000D01*
X74165000Y-84906928D01*
X74040518Y-84919188D01*
X73920820Y-84955498D01*
X73810506Y-85014463D01*
X73713815Y-85093815D01*
X73634463Y-85190506D01*
X73575498Y-85300820D01*
X73539188Y-85420518D01*
X73526928Y-85545000D01*
X70606000Y-85545000D01*
X70606000Y-81365000D01*
X73526928Y-81365000D01*
X73526928Y-84015000D01*
X73539188Y-84139482D01*
X73575498Y-84259180D01*
X73634463Y-84369494D01*
X73713815Y-84466185D01*
X73810506Y-84545537D01*
X73920820Y-84604502D01*
X74040518Y-84640812D01*
X74165000Y-84653072D01*
X76195000Y-84653072D01*
X76319482Y-84640812D01*
X76439180Y-84604502D01*
X76549494Y-84545537D01*
X76646185Y-84466185D01*
X76725537Y-84369494D01*
X76784502Y-84259180D01*
X76820812Y-84139482D01*
X76833072Y-84015000D01*
X76833072Y-83569875D01*
X76975744Y-83665205D01*
X77164102Y-83743226D01*
X77364061Y-83783000D01*
X77567939Y-83783000D01*
X77767898Y-83743226D01*
X77956256Y-83665205D01*
X78125774Y-83551937D01*
X78269937Y-83407774D01*
X78383205Y-83238256D01*
X78461226Y-83049898D01*
X78501000Y-82849939D01*
X78501000Y-82646061D01*
X78461226Y-82446102D01*
X78383205Y-82257744D01*
X78269937Y-82088226D01*
X78125774Y-81944063D01*
X77956256Y-81830795D01*
X77767898Y-81752774D01*
X77567939Y-81713000D01*
X77364061Y-81713000D01*
X77164102Y-81752774D01*
X76975744Y-81830795D01*
X76833072Y-81926125D01*
X76833072Y-81365000D01*
X76820812Y-81240518D01*
X76784502Y-81120820D01*
X76725537Y-81010506D01*
X76646185Y-80913815D01*
X76549494Y-80834463D01*
X76439180Y-80775498D01*
X76319482Y-80739188D01*
X76195000Y-80726928D01*
X74165000Y-80726928D01*
X74040518Y-80739188D01*
X73920820Y-80775498D01*
X73810506Y-80834463D01*
X73713815Y-80913815D01*
X73634463Y-81010506D01*
X73575498Y-81120820D01*
X73539188Y-81240518D01*
X73526928Y-81365000D01*
X70606000Y-81365000D01*
X70606000Y-81261322D01*
X70609676Y-81224000D01*
X70606000Y-81186677D01*
X70606000Y-81186667D01*
X70595003Y-81075014D01*
X70551546Y-80931753D01*
X70514262Y-80862000D01*
X70480974Y-80799723D01*
X70409799Y-80712997D01*
X70386001Y-80683999D01*
X70357003Y-80660201D01*
X69590000Y-79893199D01*
X69590000Y-78371711D01*
X69633937Y-78327774D01*
X69747205Y-78158256D01*
X69825226Y-77969898D01*
X69865000Y-77769939D01*
X69865000Y-77566061D01*
X69828985Y-77385000D01*
X69907002Y-77385000D01*
X69907002Y-77226252D01*
X70065750Y-77385000D01*
X70105000Y-77388072D01*
X70229482Y-77375812D01*
X70349180Y-77339502D01*
X70459494Y-77280537D01*
X70556185Y-77201185D01*
X70635537Y-77104494D01*
X70694502Y-76994180D01*
X70730812Y-76874482D01*
X70743072Y-76750000D01*
X70742700Y-76690000D01*
X72471928Y-76690000D01*
X72484188Y-76814482D01*
X72520498Y-76934180D01*
X72579463Y-77044494D01*
X72658815Y-77141185D01*
X72755506Y-77220537D01*
X72865820Y-77279502D01*
X72985518Y-77315812D01*
X73110000Y-77328072D01*
X73624250Y-77325000D01*
X73783000Y-77166250D01*
X73783000Y-76017000D01*
X72633750Y-76017000D01*
X72475000Y-76175750D01*
X72471928Y-76690000D01*
X70742700Y-76690000D01*
X70740000Y-76255750D01*
X70581250Y-76097000D01*
X69907000Y-76097000D01*
X69907000Y-76117000D01*
X69793072Y-76117000D01*
X69793072Y-75823000D01*
X69907000Y-75823000D01*
X69907000Y-75843000D01*
X70581250Y-75843000D01*
X70740000Y-75684250D01*
X70743072Y-75190000D01*
X70733224Y-75090000D01*
X72471928Y-75090000D01*
X72475000Y-75604250D01*
X72633750Y-75763000D01*
X73783000Y-75763000D01*
X73783000Y-74613750D01*
X74037000Y-74613750D01*
X74037000Y-75763000D01*
X74057000Y-75763000D01*
X74057000Y-76017000D01*
X74037000Y-76017000D01*
X74037000Y-77166250D01*
X74195750Y-77325000D01*
X74710000Y-77328072D01*
X74834482Y-77315812D01*
X74954180Y-77279502D01*
X74990740Y-77259960D01*
X74946774Y-77366102D01*
X74907000Y-77566061D01*
X74907000Y-77769939D01*
X74946774Y-77969898D01*
X75024795Y-78158256D01*
X75138063Y-78327774D01*
X75282226Y-78471937D01*
X75451744Y-78585205D01*
X75640102Y-78663226D01*
X75840061Y-78703000D01*
X76043939Y-78703000D01*
X76243898Y-78663226D01*
X76432256Y-78585205D01*
X76601774Y-78471937D01*
X76745937Y-78327774D01*
X76859205Y-78158256D01*
X76937226Y-77969898D01*
X76977000Y-77769939D01*
X76977000Y-77566061D01*
X76937226Y-77366102D01*
X76859205Y-77177744D01*
X76768608Y-77042156D01*
X76824759Y-77004637D01*
X77024637Y-76804759D01*
X77181680Y-76569727D01*
X77289853Y-76308574D01*
X77345000Y-76031335D01*
X77345000Y-75748665D01*
X77289853Y-75471426D01*
X77181680Y-75210273D01*
X77024637Y-74975241D01*
X76824759Y-74775363D01*
X76589727Y-74618320D01*
X76328574Y-74510147D01*
X76051335Y-74455000D01*
X75768665Y-74455000D01*
X75491426Y-74510147D01*
X75230273Y-74618320D01*
X75174790Y-74655393D01*
X75161185Y-74638815D01*
X75064494Y-74559463D01*
X74954180Y-74500498D01*
X74834482Y-74464188D01*
X74710000Y-74451928D01*
X74195750Y-74455000D01*
X74037000Y-74613750D01*
X73783000Y-74613750D01*
X73624250Y-74455000D01*
X73110000Y-74451928D01*
X72985518Y-74464188D01*
X72865820Y-74500498D01*
X72755506Y-74559463D01*
X72658815Y-74638815D01*
X72579463Y-74735506D01*
X72520498Y-74845820D01*
X72484188Y-74965518D01*
X72471928Y-75090000D01*
X70733224Y-75090000D01*
X70730812Y-75065518D01*
X70694502Y-74945820D01*
X70635537Y-74835506D01*
X70556185Y-74738815D01*
X70459494Y-74659463D01*
X70385665Y-74620000D01*
X70459494Y-74580537D01*
X70556185Y-74501185D01*
X70635537Y-74404494D01*
X70694502Y-74294180D01*
X70730812Y-74174482D01*
X70743072Y-74050000D01*
X70743072Y-72640000D01*
X77726928Y-72640000D01*
X77726928Y-74140000D01*
X77739188Y-74264482D01*
X77775498Y-74384180D01*
X77834463Y-74494494D01*
X77913815Y-74591185D01*
X77973296Y-74640000D01*
X77913815Y-74688815D01*
X77834463Y-74785506D01*
X77775498Y-74895820D01*
X77739188Y-75015518D01*
X77726928Y-75140000D01*
X77726928Y-76640000D01*
X77739188Y-76764482D01*
X77775498Y-76884180D01*
X77834463Y-76994494D01*
X77913815Y-77091185D01*
X78010506Y-77170537D01*
X78120820Y-77229502D01*
X78236629Y-77264632D01*
X78240997Y-77308985D01*
X78281408Y-77442205D01*
X78284454Y-77452246D01*
X78355026Y-77584276D01*
X78389320Y-77626063D01*
X78449999Y-77700001D01*
X78479002Y-77723803D01*
X78934200Y-78179002D01*
X78957999Y-78208001D01*
X79073724Y-78302974D01*
X79205753Y-78373546D01*
X79349014Y-78417003D01*
X79460667Y-78428000D01*
X79460676Y-78428000D01*
X79497999Y-78431676D01*
X79535322Y-78428000D01*
X80318289Y-78428000D01*
X80362226Y-78471937D01*
X80531744Y-78585205D01*
X80720102Y-78663226D01*
X80920061Y-78703000D01*
X81123939Y-78703000D01*
X81323898Y-78663226D01*
X81512256Y-78585205D01*
X81681774Y-78471937D01*
X81825937Y-78327774D01*
X81939205Y-78158256D01*
X82017226Y-77969898D01*
X82057000Y-77769939D01*
X82057000Y-77566061D01*
X82017226Y-77366102D01*
X81939205Y-77177744D01*
X81825937Y-77008226D01*
X81681774Y-76864063D01*
X81512256Y-76750795D01*
X81323898Y-76672774D01*
X81123939Y-76633000D01*
X80920061Y-76633000D01*
X80720102Y-76672774D01*
X80531744Y-76750795D01*
X80362226Y-76864063D01*
X80318289Y-76908000D01*
X80191770Y-76908000D01*
X80204502Y-76884180D01*
X80240812Y-76764482D01*
X80253072Y-76640000D01*
X80253072Y-75140000D01*
X80240812Y-75015518D01*
X80204502Y-74895820D01*
X80145537Y-74785506D01*
X80066185Y-74688815D01*
X80006704Y-74640000D01*
X80066185Y-74591185D01*
X80145537Y-74494494D01*
X80204502Y-74384180D01*
X80240812Y-74264482D01*
X80253072Y-74140000D01*
X80253072Y-74099375D01*
X80412061Y-74131000D01*
X80615939Y-74131000D01*
X80815898Y-74091226D01*
X81004256Y-74013205D01*
X81173774Y-73899937D01*
X81317937Y-73755774D01*
X81431205Y-73586256D01*
X81509226Y-73397898D01*
X81549000Y-73197939D01*
X81549000Y-72994061D01*
X81509226Y-72794102D01*
X81431205Y-72605744D01*
X81317937Y-72436226D01*
X81173774Y-72292063D01*
X81004256Y-72178795D01*
X80815898Y-72100774D01*
X80615939Y-72061000D01*
X80412061Y-72061000D01*
X80212102Y-72100774D01*
X80043835Y-72170473D01*
X79969494Y-72109463D01*
X79859180Y-72050498D01*
X79739482Y-72014188D01*
X79615000Y-72001928D01*
X78365000Y-72001928D01*
X78240518Y-72014188D01*
X78120820Y-72050498D01*
X78010506Y-72109463D01*
X77913815Y-72188815D01*
X77834463Y-72285506D01*
X77775498Y-72395820D01*
X77739188Y-72515518D01*
X77726928Y-72640000D01*
X70743072Y-72640000D01*
X70743072Y-72490000D01*
X70730812Y-72365518D01*
X70694502Y-72245820D01*
X70635537Y-72135506D01*
X70584299Y-72073072D01*
X70830000Y-72073072D01*
X70954482Y-72060812D01*
X71074180Y-72024502D01*
X71184494Y-71965537D01*
X71281185Y-71886185D01*
X71360537Y-71789494D01*
X71419502Y-71679180D01*
X71455812Y-71559482D01*
X71468072Y-71435000D01*
X71468072Y-70185000D01*
X71455812Y-70060518D01*
X71419502Y-69940820D01*
X71360537Y-69830506D01*
X71281185Y-69733815D01*
X71184494Y-69654463D01*
X71074180Y-69595498D01*
X70954482Y-69559188D01*
X70840000Y-69547913D01*
X70840000Y-67025061D01*
X82019000Y-67025061D01*
X82019000Y-67228939D01*
X82058774Y-67428898D01*
X82136795Y-67617256D01*
X82250063Y-67786774D01*
X82294000Y-67830711D01*
X82294001Y-75694288D01*
X82250063Y-75738226D01*
X82136795Y-75907744D01*
X82058774Y-76096102D01*
X82019000Y-76296061D01*
X82019000Y-76499939D01*
X82058774Y-76699898D01*
X82136795Y-76888256D01*
X82250063Y-77057774D01*
X82394226Y-77201937D01*
X82563744Y-77315205D01*
X82752102Y-77393226D01*
X82952061Y-77433000D01*
X83155939Y-77433000D01*
X83355898Y-77393226D01*
X83544256Y-77315205D01*
X83713774Y-77201937D01*
X83857937Y-77057774D01*
X83971205Y-76888256D01*
X84049226Y-76699898D01*
X84089000Y-76499939D01*
X84089000Y-76296061D01*
X84049226Y-76096102D01*
X83971205Y-75907744D01*
X83857937Y-75738226D01*
X83814000Y-75694289D01*
X83814000Y-67830711D01*
X83857937Y-67786774D01*
X83971205Y-67617256D01*
X84049226Y-67428898D01*
X84089000Y-67228939D01*
X84089000Y-67025061D01*
X84049226Y-66825102D01*
X83971205Y-66636744D01*
X83857937Y-66467226D01*
X83713774Y-66323063D01*
X83544256Y-66209795D01*
X83355898Y-66131774D01*
X83155939Y-66092000D01*
X82952061Y-66092000D01*
X82752102Y-66131774D01*
X82563744Y-66209795D01*
X82394226Y-66323063D01*
X82250063Y-66467226D01*
X82136795Y-66636744D01*
X82058774Y-66825102D01*
X82019000Y-67025061D01*
X70840000Y-67025061D01*
X70840000Y-60103711D01*
X70903937Y-60039774D01*
X71017205Y-59870256D01*
X71095226Y-59681898D01*
X71135000Y-59481939D01*
X71135000Y-59278061D01*
X71095226Y-59078102D01*
X71017205Y-58889744D01*
X70903937Y-58720226D01*
X70759774Y-58576063D01*
X70590256Y-58462795D01*
X70401898Y-58384774D01*
X70201939Y-58345000D01*
X69998061Y-58345000D01*
X69798102Y-58384774D01*
X69609744Y-58462795D01*
X69440226Y-58576063D01*
X69296063Y-58720226D01*
X69182795Y-58889744D01*
X69104774Y-59078102D01*
X69065000Y-59278061D01*
X69065000Y-59481939D01*
X69104774Y-59681898D01*
X69182795Y-59870256D01*
X69296063Y-60039774D01*
X69320001Y-60063712D01*
X69320000Y-69547913D01*
X69205518Y-69559188D01*
X69085820Y-69595498D01*
X68975506Y-69654463D01*
X68878815Y-69733815D01*
X68830000Y-69793296D01*
X68781185Y-69733815D01*
X68684494Y-69654463D01*
X68574180Y-69595498D01*
X68454482Y-69559188D01*
X68330000Y-69546928D01*
X66830000Y-69546928D01*
X66705518Y-69559188D01*
X66585820Y-69595498D01*
X66475506Y-69654463D01*
X66378815Y-69733815D01*
X66299463Y-69830506D01*
X66240498Y-69940820D01*
X66207379Y-70050000D01*
X65272000Y-70050000D01*
X65272000Y-63385711D01*
X65315937Y-63341774D01*
X65429205Y-63172256D01*
X65507226Y-62983898D01*
X65547000Y-62783939D01*
X65547000Y-62580061D01*
X65507226Y-62380102D01*
X65429205Y-62191744D01*
X65315937Y-62022226D01*
X65171774Y-61878063D01*
X65002256Y-61764795D01*
X64813898Y-61686774D01*
X64613939Y-61647000D01*
X64410061Y-61647000D01*
X64210102Y-61686774D01*
X64021744Y-61764795D01*
X63852226Y-61878063D01*
X63708063Y-62022226D01*
X63594795Y-62191744D01*
X63516774Y-62380102D01*
X63477000Y-62580061D01*
X63477000Y-62783939D01*
X63516774Y-62983898D01*
X63594795Y-63172256D01*
X63708063Y-63341774D01*
X63752000Y-63385711D01*
X63752001Y-70772657D01*
X63748323Y-70810000D01*
X63752001Y-70847343D01*
X63752001Y-71807000D01*
X63648061Y-71807000D01*
X63448102Y-71846774D01*
X63259744Y-71924795D01*
X63090226Y-72038063D01*
X62946063Y-72182226D01*
X62832795Y-72351744D01*
X62754774Y-72540102D01*
X62715000Y-72740061D01*
X62715000Y-72802198D01*
X61309003Y-74208196D01*
X61279999Y-74231999D01*
X61236360Y-74285174D01*
X61185026Y-74347724D01*
X61127685Y-74455000D01*
X61114454Y-74479754D01*
X61070997Y-74623015D01*
X61060000Y-74734668D01*
X61060000Y-74734678D01*
X61056324Y-74772000D01*
X61060000Y-74809322D01*
X61060001Y-83441687D01*
X60841495Y-83587688D01*
X60627688Y-83801495D01*
X60459701Y-84052905D01*
X60343989Y-84332257D01*
X60285000Y-84628816D01*
X56790000Y-84628816D01*
X56790000Y-52727000D01*
X67130000Y-52727000D01*
X67154776Y-52724560D01*
X67178601Y-52717333D01*
X67200557Y-52705597D01*
X67219803Y-52689803D01*
X67235597Y-52670557D01*
X67247333Y-52648601D01*
X67254560Y-52624776D01*
X67257000Y-52600000D01*
X67257000Y-49970000D01*
X70407143Y-49970000D01*
X70407143Y-53790000D01*
X83762857Y-53790000D01*
X83762857Y-49970000D01*
X70407143Y-49970000D01*
X67257000Y-49970000D01*
X67257000Y-42260000D01*
X106803000Y-42260000D01*
X106803000Y-43177539D01*
X106803000Y-43177539D01*
G37*
X106803000Y-43177539D02*
X106693744Y-43222795D01*
X106524226Y-43336063D01*
X106380063Y-43480226D01*
X106266795Y-43649744D01*
X106188774Y-43838102D01*
X106149000Y-44038061D01*
X106149000Y-44100198D01*
X90416998Y-59832201D01*
X90388000Y-59855999D01*
X90364202Y-59884997D01*
X90364201Y-59884998D01*
X90293026Y-59971724D01*
X90222454Y-60103754D01*
X90178998Y-60247015D01*
X90164324Y-60396000D01*
X90168001Y-60433333D01*
X90168000Y-76710289D01*
X90124063Y-76754226D01*
X90010795Y-76923744D01*
X89932774Y-77112102D01*
X89893000Y-77312061D01*
X89893000Y-77515939D01*
X89932774Y-77715898D01*
X90010795Y-77904256D01*
X90124063Y-78073774D01*
X90268226Y-78217937D01*
X90437744Y-78331205D01*
X90626102Y-78409226D01*
X90826061Y-78449000D01*
X91029939Y-78449000D01*
X91229898Y-78409226D01*
X91417000Y-78331725D01*
X91417000Y-78531939D01*
X91456774Y-78731898D01*
X91534795Y-78920256D01*
X91648063Y-79089774D01*
X91692000Y-79133711D01*
X91692001Y-79766197D01*
X81018998Y-90439201D01*
X80990000Y-90462999D01*
X80966202Y-90491997D01*
X80966201Y-90491998D01*
X80895026Y-90578724D01*
X80824454Y-90710754D01*
X80780998Y-90854015D01*
X80766324Y-91003000D01*
X80770001Y-91040332D01*
X80770000Y-93662405D01*
X80700986Y-93699294D01*
X80474866Y-93884866D01*
X80289294Y-94110986D01*
X80254799Y-94175523D01*
X80185178Y-94058645D01*
X79990269Y-93842412D01*
X79756920Y-93668359D01*
X79494099Y-93543175D01*
X79346890Y-93498524D01*
X79117000Y-93619845D01*
X79117000Y-94813000D01*
X79137000Y-94813000D01*
X79137000Y-95067000D01*
X79117000Y-95067000D01*
X79117000Y-96260155D01*
X79346890Y-96381476D01*
X79494099Y-96336825D01*
X79756920Y-96211641D01*
X79990269Y-96037588D01*
X80185178Y-95821355D01*
X80254799Y-95704477D01*
X80289294Y-95769014D01*
X80474866Y-95995134D01*
X80700986Y-96180706D01*
X80958966Y-96318599D01*
X81238889Y-96403513D01*
X81457050Y-96425000D01*
X81602950Y-96425000D01*
X81821111Y-96403513D01*
X82101034Y-96318599D01*
X82359014Y-96180706D01*
X82585134Y-95995134D01*
X82609607Y-95965313D01*
X82630498Y-96034180D01*
X82689463Y-96144494D01*
X82768815Y-96241185D01*
X82865506Y-96320537D01*
X82975820Y-96379502D01*
X83095518Y-96415812D01*
X83220000Y-96428072D01*
X83310001Y-96428072D01*
X83310000Y-101379677D01*
X83306324Y-101417000D01*
X83310000Y-101454322D01*
X83310000Y-101454332D01*
X83320997Y-101565985D01*
X83338973Y-101625244D01*
X83364454Y-101709246D01*
X83435026Y-101841276D01*
X83468658Y-101882256D01*
X83529999Y-101957001D01*
X83559003Y-101980804D01*
X85850001Y-104271804D01*
X85850000Y-106682289D01*
X85806063Y-106726226D01*
X85692795Y-106895744D01*
X85614774Y-107084102D01*
X85575000Y-107284061D01*
X85575000Y-107487939D01*
X85614774Y-107687898D01*
X85692795Y-107876256D01*
X85806063Y-108045774D01*
X85950226Y-108189937D01*
X86119744Y-108303205D01*
X86308102Y-108381226D01*
X86508061Y-108421000D01*
X86711939Y-108421000D01*
X86911898Y-108381226D01*
X87100256Y-108303205D01*
X87269774Y-108189937D01*
X87313711Y-108146000D01*
X101146289Y-108146000D01*
X101190226Y-108189937D01*
X101359744Y-108303205D01*
X101548102Y-108381226D01*
X101748061Y-108421000D01*
X101951939Y-108421000D01*
X102151898Y-108381226D01*
X102340256Y-108303205D01*
X102509774Y-108189937D01*
X102553711Y-108146000D01*
X113846289Y-108146000D01*
X113890226Y-108189937D01*
X114059744Y-108303205D01*
X114248102Y-108381226D01*
X114448061Y-108421000D01*
X114651939Y-108421000D01*
X114851898Y-108381226D01*
X115040256Y-108303205D01*
X115209774Y-108189937D01*
X115253711Y-108146000D01*
X126546289Y-108146000D01*
X126590226Y-108189937D01*
X126759744Y-108303205D01*
X126948102Y-108381226D01*
X127148061Y-108421000D01*
X127351939Y-108421000D01*
X127551898Y-108381226D01*
X127740256Y-108303205D01*
X127909774Y-108189937D01*
X128053937Y-108045774D01*
X128167205Y-107876256D01*
X128245226Y-107687898D01*
X128285000Y-107487939D01*
X128285000Y-107284061D01*
X128279617Y-107257000D01*
X130356289Y-107257000D01*
X130400226Y-107300937D01*
X130569744Y-107414205D01*
X130758102Y-107492226D01*
X130958061Y-107532000D01*
X131161939Y-107532000D01*
X131361898Y-107492226D01*
X131550256Y-107414205D01*
X131719774Y-107300937D01*
X131863937Y-107156774D01*
X131977205Y-106987256D01*
X132055226Y-106798898D01*
X132095000Y-106598939D01*
X132095000Y-106395061D01*
X132055226Y-106195102D01*
X131977205Y-106006744D01*
X131863937Y-105837226D01*
X131820000Y-105793289D01*
X131820000Y-98183711D01*
X131863937Y-98139774D01*
X131977205Y-97970256D01*
X132055226Y-97781898D01*
X132095000Y-97581939D01*
X132095000Y-97378061D01*
X132055226Y-97178102D01*
X131977205Y-96989744D01*
X131863937Y-96820226D01*
X131719774Y-96676063D01*
X131550256Y-96562795D01*
X131361898Y-96484774D01*
X131161939Y-96445000D01*
X130958061Y-96445000D01*
X130758102Y-96484774D01*
X130569744Y-96562795D01*
X130400226Y-96676063D01*
X130256063Y-96820226D01*
X130142795Y-96989744D01*
X130064774Y-97178102D01*
X130025000Y-97378061D01*
X130025000Y-97581939D01*
X130064774Y-97781898D01*
X130142795Y-97970256D01*
X130256063Y-98139774D01*
X130300000Y-98183711D01*
X130300001Y-104703988D01*
X130280256Y-104690795D01*
X130091898Y-104612774D01*
X129891939Y-104573000D01*
X129688061Y-104573000D01*
X129555000Y-104599467D01*
X129555000Y-104490061D01*
X129515226Y-104290102D01*
X129437205Y-104101744D01*
X129323937Y-103932226D01*
X129179774Y-103788063D01*
X129010256Y-103674795D01*
X128821898Y-103596774D01*
X128621939Y-103557000D01*
X128418061Y-103557000D01*
X128257333Y-103588970D01*
X128245226Y-103528102D01*
X128167205Y-103339744D01*
X128053937Y-103170226D01*
X127909774Y-103026063D01*
X127740256Y-102912795D01*
X127551898Y-102834774D01*
X127351939Y-102795000D01*
X127289802Y-102795000D01*
X127030999Y-102536198D01*
X127030999Y-100166000D01*
X127097939Y-100166000D01*
X127297898Y-100126226D01*
X127486256Y-100048205D01*
X127655774Y-99934937D01*
X127799937Y-99790774D01*
X127913205Y-99621256D01*
X127991226Y-99432898D01*
X128031000Y-99232939D01*
X128031000Y-99029061D01*
X127991226Y-98829102D01*
X127913205Y-98640744D01*
X127799937Y-98471226D01*
X127793000Y-98464289D01*
X127793000Y-96483000D01*
X127859939Y-96483000D01*
X128059898Y-96443226D01*
X128248256Y-96365205D01*
X128417774Y-96251937D01*
X128561937Y-96107774D01*
X128675205Y-95938256D01*
X128753226Y-95749898D01*
X128764619Y-95692619D01*
X128821898Y-95681226D01*
X129010256Y-95603205D01*
X129179774Y-95489937D01*
X129323937Y-95345774D01*
X129437205Y-95176256D01*
X129515226Y-94987898D01*
X129526619Y-94930619D01*
X129583898Y-94919226D01*
X129772256Y-94841205D01*
X129941774Y-94727937D01*
X130085937Y-94583774D01*
X130199205Y-94414256D01*
X130277226Y-94225898D01*
X130317000Y-94025939D01*
X130317000Y-93822061D01*
X130277226Y-93622102D01*
X130199205Y-93433744D01*
X130085937Y-93264226D01*
X130042000Y-93220289D01*
X130042000Y-88940000D01*
X130145939Y-88940000D01*
X130345898Y-88900226D01*
X130534256Y-88822205D01*
X130703774Y-88708937D01*
X130847937Y-88564774D01*
X130961205Y-88395256D01*
X131039226Y-88206898D01*
X131058489Y-88110054D01*
X131107898Y-88100226D01*
X131296256Y-88022205D01*
X131465774Y-87908937D01*
X131609937Y-87764774D01*
X131723205Y-87595256D01*
X131801226Y-87406898D01*
X131820489Y-87310054D01*
X131869898Y-87300226D01*
X132058256Y-87222205D01*
X132227774Y-87108937D01*
X132332000Y-87004711D01*
X132332000Y-91696289D01*
X132288063Y-91740226D01*
X132174795Y-91909744D01*
X132096774Y-92098102D01*
X132057000Y-92298061D01*
X132057000Y-92501939D01*
X132096774Y-92701898D01*
X132174795Y-92890256D01*
X132288063Y-93059774D01*
X132432226Y-93203937D01*
X132601744Y-93317205D01*
X132790102Y-93395226D01*
X132862605Y-93409648D01*
X132936795Y-93588756D01*
X133050063Y-93758274D01*
X133194226Y-93902437D01*
X133363744Y-94015705D01*
X133552102Y-94093726D01*
X133752061Y-94133500D01*
X133819000Y-94133500D01*
X133819000Y-95479789D01*
X133775063Y-95523726D01*
X133661795Y-95693244D01*
X133583774Y-95881602D01*
X133544000Y-96081561D01*
X133544000Y-96285439D01*
X133583774Y-96485398D01*
X133661795Y-96673756D01*
X133775063Y-96843274D01*
X133919226Y-96987437D01*
X134088744Y-97100705D01*
X134277102Y-97178726D01*
X134477061Y-97218500D01*
X134680939Y-97218500D01*
X134880898Y-97178726D01*
X135069256Y-97100705D01*
X135238774Y-96987437D01*
X135382937Y-96843274D01*
X135496205Y-96673756D01*
X135574226Y-96485398D01*
X135614000Y-96285439D01*
X135614000Y-96081561D01*
X135574226Y-95881602D01*
X135496205Y-95693244D01*
X135382937Y-95523726D01*
X135339000Y-95479789D01*
X135339000Y-89815500D01*
X135479939Y-89815500D01*
X135679898Y-89775726D01*
X135868256Y-89697705D01*
X136037774Y-89584437D01*
X136181937Y-89440274D01*
X136295205Y-89270756D01*
X136373226Y-89082398D01*
X136413000Y-88882439D01*
X136413000Y-88678561D01*
X136373226Y-88478602D01*
X136295205Y-88290244D01*
X136181937Y-88120726D01*
X136119825Y-88058614D01*
X136119825Y-86456061D01*
X136629000Y-86456061D01*
X136629000Y-86659939D01*
X136668774Y-86859898D01*
X136746795Y-87048256D01*
X136860063Y-87217774D01*
X136904001Y-87261712D01*
X136904000Y-96776289D01*
X136860063Y-96820226D01*
X136746795Y-96989744D01*
X136668774Y-97178102D01*
X136629000Y-97378061D01*
X136629000Y-97581939D01*
X136668774Y-97781898D01*
X136746795Y-97970256D01*
X136860063Y-98139774D01*
X137004226Y-98283937D01*
X137036497Y-98305500D01*
X137004226Y-98327063D01*
X136860063Y-98471226D01*
X136746795Y-98640744D01*
X136668774Y-98829102D01*
X136629000Y-99029061D01*
X136629000Y-99232939D01*
X136668774Y-99432898D01*
X136746795Y-99621256D01*
X136860063Y-99790774D01*
X137004226Y-99934937D01*
X137173744Y-100048205D01*
X137362102Y-100126226D01*
X137562061Y-100166000D01*
X137765939Y-100166000D01*
X137965898Y-100126226D01*
X138154256Y-100048205D01*
X138323774Y-99934937D01*
X138367711Y-99891000D01*
X141278289Y-99891000D01*
X141322226Y-99934937D01*
X141491744Y-100048205D01*
X141680102Y-100126226D01*
X141880061Y-100166000D01*
X142083939Y-100166000D01*
X142283898Y-100126226D01*
X142472256Y-100048205D01*
X142641774Y-99934937D01*
X142785937Y-99790774D01*
X142899205Y-99621256D01*
X142977226Y-99432898D01*
X143017000Y-99232939D01*
X143017000Y-99029061D01*
X142977226Y-98829102D01*
X142899205Y-98640744D01*
X142785937Y-98471226D01*
X142641774Y-98327063D01*
X142472256Y-98213795D01*
X142283898Y-98135774D01*
X142083939Y-98096000D01*
X141880061Y-98096000D01*
X141680102Y-98135774D01*
X141491744Y-98213795D01*
X141322226Y-98327063D01*
X141278289Y-98371000D01*
X138367711Y-98371000D01*
X138323774Y-98327063D01*
X138291503Y-98305500D01*
X138323774Y-98283937D01*
X138467937Y-98139774D01*
X138581205Y-97970256D01*
X138659226Y-97781898D01*
X138699000Y-97581939D01*
X138699000Y-97378061D01*
X138659226Y-97178102D01*
X138581205Y-96989744D01*
X138467937Y-96820226D01*
X138424000Y-96776289D01*
X138424000Y-87261711D01*
X138467937Y-87217774D01*
X138581205Y-87048256D01*
X138659226Y-86859898D01*
X138699000Y-86659939D01*
X138699000Y-86456061D01*
X138659226Y-86256102D01*
X138581205Y-86067744D01*
X138467937Y-85898226D01*
X138323774Y-85754063D01*
X138154256Y-85640795D01*
X137965898Y-85562774D01*
X137765939Y-85523000D01*
X137562061Y-85523000D01*
X137362102Y-85562774D01*
X137173744Y-85640795D01*
X137004226Y-85754063D01*
X136860063Y-85898226D01*
X136746795Y-86067744D01*
X136668774Y-86256102D01*
X136629000Y-86456061D01*
X136119825Y-86456061D01*
X136119825Y-79725061D01*
X138026000Y-79725061D01*
X138026000Y-79928939D01*
X138065774Y-80128898D01*
X138143795Y-80317256D01*
X138257063Y-80486774D01*
X138401226Y-80630937D01*
X138570744Y-80744205D01*
X138759102Y-80822226D01*
X138959061Y-80862000D01*
X139162939Y-80862000D01*
X139362898Y-80822226D01*
X139551256Y-80744205D01*
X139720774Y-80630937D01*
X139764711Y-80587000D01*
X144240539Y-80587000D01*
X144285744Y-80617205D01*
X144474102Y-80695226D01*
X144674061Y-80735000D01*
X144877939Y-80735000D01*
X145032000Y-80704356D01*
X145032000Y-82277332D01*
X145042997Y-82388985D01*
X145086454Y-82532246D01*
X145157026Y-82664275D01*
X145251999Y-82780001D01*
X145367724Y-82874974D01*
X145499753Y-82945546D01*
X145643014Y-82989003D01*
X145792000Y-83003677D01*
X145940985Y-82989003D01*
X146084246Y-82945546D01*
X146216275Y-82874974D01*
X146332001Y-82780001D01*
X146426974Y-82664276D01*
X146497546Y-82532247D01*
X146541003Y-82388986D01*
X146552000Y-82277333D01*
X146552000Y-62623711D01*
X146595937Y-62579774D01*
X146709205Y-62410256D01*
X146787226Y-62221898D01*
X146827000Y-62021939D01*
X146827000Y-61818061D01*
X146787226Y-61618102D01*
X146709205Y-61429744D01*
X146595937Y-61260226D01*
X146451774Y-61116063D01*
X146282256Y-61002795D01*
X146093898Y-60924774D01*
X145893939Y-60885000D01*
X145790000Y-60885000D01*
X145790000Y-58813711D01*
X145833937Y-58769774D01*
X145947205Y-58600256D01*
X146025226Y-58411898D01*
X146065000Y-58211939D01*
X146065000Y-58008061D01*
X146025226Y-57808102D01*
X145947205Y-57619744D01*
X145833937Y-57450226D01*
X145689774Y-57306063D01*
X145520256Y-57192795D01*
X145331898Y-57114774D01*
X145303000Y-57109026D01*
X145303000Y-56992061D01*
X145263226Y-56792102D01*
X145185205Y-56603744D01*
X145071937Y-56434226D01*
X144927774Y-56290063D01*
X144758256Y-56176795D01*
X144569898Y-56098774D01*
X144369939Y-56059000D01*
X144303000Y-56059000D01*
X144303000Y-55093711D01*
X144309937Y-55086774D01*
X144423205Y-54917256D01*
X144501226Y-54728898D01*
X144541000Y-54528939D01*
X144541000Y-54325061D01*
X144501226Y-54125102D01*
X144423205Y-53936744D01*
X144309937Y-53767226D01*
X144165774Y-53623063D01*
X143996256Y-53509795D01*
X143807898Y-53431774D01*
X143607939Y-53392000D01*
X143404061Y-53392000D01*
X143204102Y-53431774D01*
X143015744Y-53509795D01*
X142846226Y-53623063D01*
X142702063Y-53767226D01*
X142588795Y-53936744D01*
X142510774Y-54125102D01*
X142471000Y-54325061D01*
X142471000Y-54528939D01*
X142506195Y-54705878D01*
X142327744Y-54779795D01*
X142158226Y-54893063D01*
X142014063Y-55037226D01*
X141900795Y-55206744D01*
X141822774Y-55395102D01*
X141783000Y-55595061D01*
X141783000Y-55798939D01*
X141822774Y-55998898D01*
X141900795Y-56187256D01*
X142014063Y-56356774D01*
X142058000Y-56400711D01*
X142058001Y-66324794D01*
X141968569Y-66414226D01*
X141855301Y-66583744D01*
X141777280Y-66772102D01*
X141737506Y-66972061D01*
X141737506Y-67175939D01*
X141777280Y-67375898D01*
X141855301Y-67564256D01*
X141968569Y-67733774D01*
X142112732Y-67877937D01*
X142282250Y-67991205D01*
X142470608Y-68069226D01*
X142544393Y-68083903D01*
X142547774Y-68100898D01*
X142625795Y-68289256D01*
X142739063Y-68458774D01*
X142883226Y-68602937D01*
X143052744Y-68716205D01*
X143241102Y-68794226D01*
X143343026Y-68814500D01*
X143272774Y-68984102D01*
X143233000Y-69184061D01*
X143233000Y-69387939D01*
X143272774Y-69587898D01*
X143350795Y-69776256D01*
X143464063Y-69945774D01*
X143608226Y-70089937D01*
X143777744Y-70203205D01*
X143966102Y-70281226D01*
X144166061Y-70321000D01*
X144369939Y-70321000D01*
X144569898Y-70281226D01*
X144758256Y-70203205D01*
X144927774Y-70089937D01*
X145032001Y-69985710D01*
X145032000Y-78695644D01*
X144877939Y-78665000D01*
X144674061Y-78665000D01*
X144474102Y-78704774D01*
X144285744Y-78782795D01*
X144116226Y-78896063D01*
X143972063Y-79040226D01*
X143954173Y-79067000D01*
X139764711Y-79067000D01*
X139720774Y-79023063D01*
X139551256Y-78909795D01*
X139362898Y-78831774D01*
X139162939Y-78792000D01*
X138959061Y-78792000D01*
X138759102Y-78831774D01*
X138570744Y-78909795D01*
X138401226Y-79023063D01*
X138257063Y-79167226D01*
X138143795Y-79336744D01*
X138065774Y-79525102D01*
X138026000Y-79725061D01*
X136119825Y-79725061D01*
X136119825Y-67777711D01*
X136163762Y-67733774D01*
X136277030Y-67564256D01*
X136355051Y-67375898D01*
X136394825Y-67175939D01*
X136394825Y-66972061D01*
X136355051Y-66772102D01*
X136277030Y-66583744D01*
X136163762Y-66414226D01*
X136019599Y-66270063D01*
X135850081Y-66156795D01*
X135661723Y-66078774D01*
X135461764Y-66039000D01*
X135257886Y-66039000D01*
X135057927Y-66078774D01*
X134869569Y-66156795D01*
X134700051Y-66270063D01*
X134555888Y-66414226D01*
X134442620Y-66583744D01*
X134364599Y-66772102D01*
X134360890Y-66790747D01*
X134295397Y-66803774D01*
X134107039Y-66881795D01*
X133937521Y-66995063D01*
X133793358Y-67139226D01*
X133680090Y-67308744D01*
X133602069Y-67497102D01*
X133597568Y-67519730D01*
X133552102Y-67528774D01*
X133363744Y-67606795D01*
X133194226Y-67720063D01*
X133050063Y-67864226D01*
X132936795Y-68033744D01*
X132858774Y-68222102D01*
X132847381Y-68279381D01*
X132790102Y-68290774D01*
X132601744Y-68368795D01*
X132432226Y-68482063D01*
X132288063Y-68626226D01*
X132174795Y-68795744D01*
X132096774Y-68984102D01*
X132057000Y-69184061D01*
X132057000Y-69387939D01*
X132096774Y-69587898D01*
X132174795Y-69776256D01*
X132288063Y-69945774D01*
X132332001Y-69989712D01*
X132332001Y-76714290D01*
X132227774Y-76610063D01*
X132058256Y-76496795D01*
X131869898Y-76418774D01*
X131809030Y-76406667D01*
X131841000Y-76245939D01*
X131841000Y-76042061D01*
X131801226Y-75842102D01*
X131723205Y-75653744D01*
X131609937Y-75484226D01*
X131465774Y-75340063D01*
X131296256Y-75226795D01*
X131107898Y-75148774D01*
X131047030Y-75136667D01*
X131079000Y-74975939D01*
X131079000Y-74772061D01*
X131039226Y-74572102D01*
X130961205Y-74383744D01*
X130847937Y-74214226D01*
X130703774Y-74070063D01*
X130534256Y-73956795D01*
X130345898Y-73878774D01*
X130285030Y-73866667D01*
X130317000Y-73705939D01*
X130317000Y-73502061D01*
X130277226Y-73302102D01*
X130199205Y-73113744D01*
X130085937Y-72944226D01*
X129941774Y-72800063D01*
X129772256Y-72686795D01*
X129583898Y-72608774D01*
X129523030Y-72596667D01*
X129555000Y-72435939D01*
X129555000Y-72232061D01*
X129515226Y-72032102D01*
X129437205Y-71843744D01*
X129323937Y-71674226D01*
X129179774Y-71530063D01*
X129010256Y-71416795D01*
X128821898Y-71338774D01*
X128761030Y-71326667D01*
X128793000Y-71165939D01*
X128793000Y-70962061D01*
X128753226Y-70762102D01*
X128675205Y-70573744D01*
X128561937Y-70404226D01*
X128417774Y-70260063D01*
X128248256Y-70146795D01*
X128059898Y-70068774D01*
X127859939Y-70029000D01*
X127656061Y-70029000D01*
X127456102Y-70068774D01*
X127267744Y-70146795D01*
X127098226Y-70260063D01*
X127030999Y-70327290D01*
X127030999Y-63602712D01*
X127164937Y-63468774D01*
X127278205Y-63299256D01*
X127356226Y-63110898D01*
X127396000Y-62910939D01*
X127396000Y-62707061D01*
X127356226Y-62507102D01*
X127278205Y-62318744D01*
X127164937Y-62149226D01*
X127020774Y-62005063D01*
X126851256Y-61891795D01*
X126662898Y-61813774D01*
X126462939Y-61774000D01*
X126259061Y-61774000D01*
X126059102Y-61813774D01*
X125870744Y-61891795D01*
X125701226Y-62005063D01*
X125557063Y-62149226D01*
X125443795Y-62318744D01*
X125365774Y-62507102D01*
X125326000Y-62707061D01*
X125326000Y-62910939D01*
X125365774Y-63110898D01*
X125443795Y-63299256D01*
X125511000Y-63399836D01*
X125510999Y-97448288D01*
X125467062Y-97492225D01*
X125353794Y-97661743D01*
X125275773Y-97850101D01*
X125235999Y-98050060D01*
X125235999Y-98253938D01*
X125275773Y-98453897D01*
X125353794Y-98642255D01*
X125467062Y-98811773D01*
X125511000Y-98855711D01*
X125510999Y-102813676D01*
X125507323Y-102850999D01*
X125510999Y-102888321D01*
X125510999Y-102888331D01*
X125521996Y-102999984D01*
X125548011Y-103085744D01*
X125565453Y-103143245D01*
X125636025Y-103275275D01*
X125657774Y-103301776D01*
X125730998Y-103391000D01*
X125760001Y-103414802D01*
X126177198Y-103832000D01*
X123268719Y-103832000D01*
X123358756Y-103794705D01*
X123528274Y-103681437D01*
X123672437Y-103537274D01*
X123785705Y-103367756D01*
X123863726Y-103179398D01*
X123894000Y-103027197D01*
X123902244Y-103032705D01*
X124090602Y-103110726D01*
X124290561Y-103150500D01*
X124494439Y-103150500D01*
X124694398Y-103110726D01*
X124882756Y-103032705D01*
X125052274Y-102919437D01*
X125196437Y-102775274D01*
X125309705Y-102605756D01*
X125387726Y-102417398D01*
X125427500Y-102217439D01*
X125427500Y-102013561D01*
X125387726Y-101813602D01*
X125309705Y-101625244D01*
X125196437Y-101455726D01*
X125152500Y-101411789D01*
X125152500Y-75660623D01*
X125156176Y-75623300D01*
X125152500Y-75585977D01*
X125152500Y-75585967D01*
X125141503Y-75474314D01*
X125098046Y-75331053D01*
X125084600Y-75305898D01*
X125084600Y-75178461D01*
X125044826Y-74978502D01*
X124966805Y-74790144D01*
X124853537Y-74620626D01*
X124809600Y-74576689D01*
X124809600Y-63487311D01*
X124853537Y-63443374D01*
X124966805Y-63273856D01*
X125044826Y-63085498D01*
X125084600Y-62885539D01*
X125084600Y-62681661D01*
X125044826Y-62481702D01*
X124966805Y-62293344D01*
X124853537Y-62123826D01*
X124709374Y-61979663D01*
X124539856Y-61866395D01*
X124351498Y-61788374D01*
X124151539Y-61748600D01*
X123947661Y-61748600D01*
X123747702Y-61788374D01*
X123559344Y-61866395D01*
X123389826Y-61979663D01*
X123245663Y-62123826D01*
X123132395Y-62293344D01*
X123054374Y-62481702D01*
X123014600Y-62681661D01*
X123014600Y-62885539D01*
X123054374Y-63085498D01*
X123089790Y-63171000D01*
X122931661Y-63171000D01*
X122731702Y-63210774D01*
X122543344Y-63288795D01*
X122373826Y-63402063D01*
X122229663Y-63546226D01*
X122116395Y-63715744D01*
X122038374Y-63904102D01*
X121998600Y-64104061D01*
X121998600Y-64307939D01*
X122038374Y-64507898D01*
X122116395Y-64696256D01*
X122124883Y-64708959D01*
X121995102Y-64734774D01*
X121806744Y-64812795D01*
X121637226Y-64926063D01*
X121533000Y-65030289D01*
X121533000Y-62734711D01*
X121576937Y-62690774D01*
X121690205Y-62521256D01*
X121768226Y-62332898D01*
X121808000Y-62132939D01*
X121808000Y-61929061D01*
X121768226Y-61729102D01*
X121690205Y-61540744D01*
X121576937Y-61371226D01*
X121432774Y-61227063D01*
X121263256Y-61113795D01*
X121074898Y-61035774D01*
X120874939Y-60996000D01*
X120671061Y-60996000D01*
X120471102Y-61035774D01*
X120282744Y-61113795D01*
X120113226Y-61227063D01*
X119969063Y-61371226D01*
X119855795Y-61540744D01*
X119777774Y-61729102D01*
X119738000Y-61929061D01*
X119738000Y-62132939D01*
X119777774Y-62332898D01*
X119855795Y-62521256D01*
X119969063Y-62690774D01*
X120013001Y-62734712D01*
X120013000Y-81070832D01*
X120013001Y-81070842D01*
X120013001Y-83191290D01*
X119997987Y-83176276D01*
X119954546Y-83033068D01*
X119883974Y-82901039D01*
X119789001Y-82785314D01*
X119760002Y-82761515D01*
X119267488Y-82269002D01*
X119243686Y-82239999D01*
X119127961Y-82145026D01*
X118995932Y-82074454D01*
X118852671Y-82030997D01*
X118741018Y-82020000D01*
X118741007Y-82020000D01*
X118703685Y-82016324D01*
X118666363Y-82020000D01*
X118528072Y-82020000D01*
X118528072Y-81780000D01*
X118515812Y-81655518D01*
X118479502Y-81535820D01*
X118420537Y-81425506D01*
X118341185Y-81328815D01*
X118244494Y-81249463D01*
X118134180Y-81190498D01*
X118014482Y-81154188D01*
X117890000Y-81141928D01*
X116290000Y-81141928D01*
X116165518Y-81154188D01*
X116045820Y-81190498D01*
X115935506Y-81249463D01*
X115838815Y-81328815D01*
X115759463Y-81425506D01*
X115700498Y-81535820D01*
X115664188Y-81655518D01*
X115651928Y-81780000D01*
X115651928Y-82029725D01*
X115639014Y-82030997D01*
X115495753Y-82074454D01*
X115363724Y-82145026D01*
X115247999Y-82239999D01*
X115224200Y-82268998D01*
X114673998Y-82819201D01*
X114645000Y-82842999D01*
X114621202Y-82871997D01*
X114621201Y-82871998D01*
X114550026Y-82958724D01*
X114479454Y-83090754D01*
X114455132Y-83170937D01*
X114435998Y-83234014D01*
X114431055Y-83284205D01*
X114421324Y-83383000D01*
X114425001Y-83420332D01*
X114425001Y-84076288D01*
X114381063Y-84120226D01*
X114267795Y-84289744D01*
X114189774Y-84478102D01*
X114150000Y-84678061D01*
X114150000Y-84881939D01*
X114189774Y-85081898D01*
X114267795Y-85270256D01*
X114322080Y-85351500D01*
X114267795Y-85432744D01*
X114189774Y-85621102D01*
X114150000Y-85821061D01*
X114150000Y-86024939D01*
X114189774Y-86224898D01*
X114267795Y-86413256D01*
X114381063Y-86582774D01*
X114436013Y-86637724D01*
X114479454Y-86780932D01*
X114504037Y-86826921D01*
X114550026Y-86912961D01*
X114618996Y-86997000D01*
X114645000Y-87028686D01*
X114673998Y-87052484D01*
X114912511Y-87290997D01*
X114936314Y-87320001D01*
X115052039Y-87414974D01*
X115184068Y-87485546D01*
X115327326Y-87529002D01*
X115327329Y-87529003D01*
X115476315Y-87543677D01*
X115513648Y-87540000D01*
X115651928Y-87540000D01*
X115651928Y-87780000D01*
X115664188Y-87904482D01*
X115700498Y-88024180D01*
X115759463Y-88134494D01*
X115838815Y-88231185D01*
X115935506Y-88310537D01*
X116045820Y-88369502D01*
X116165518Y-88405812D01*
X116290000Y-88418072D01*
X117890000Y-88418072D01*
X118014482Y-88405812D01*
X118134180Y-88369502D01*
X118244494Y-88310537D01*
X118341185Y-88231185D01*
X118420537Y-88134494D01*
X118479502Y-88024180D01*
X118515812Y-87904482D01*
X118528072Y-87780000D01*
X118528072Y-87543901D01*
X118585795Y-87683256D01*
X118699063Y-87852774D01*
X118843226Y-87996937D01*
X119012744Y-88110205D01*
X119201102Y-88188226D01*
X119401061Y-88228000D01*
X119604939Y-88228000D01*
X119804898Y-88188226D01*
X119993256Y-88110205D01*
X120162774Y-87996937D01*
X120217724Y-87941987D01*
X120360932Y-87898546D01*
X120492961Y-87827974D01*
X120608686Y-87733001D01*
X120632488Y-87703998D01*
X121284004Y-87052483D01*
X121313001Y-87028686D01*
X121407974Y-86912961D01*
X121478546Y-86780932D01*
X121522003Y-86637671D01*
X121533000Y-86526018D01*
X121533000Y-86526008D01*
X121536676Y-86488685D01*
X121533000Y-86451362D01*
X121533000Y-77877500D01*
X121700439Y-77877500D01*
X121900398Y-77837726D01*
X122088756Y-77759705D01*
X122135002Y-77728805D01*
X122135001Y-85462408D01*
X122119498Y-85513516D01*
X122113016Y-85579332D01*
X122104824Y-85662502D01*
X122108501Y-85699835D01*
X122108500Y-102173789D01*
X122064563Y-102217726D01*
X121951295Y-102387244D01*
X121873274Y-102575602D01*
X121833500Y-102775561D01*
X121833500Y-102979439D01*
X121873274Y-103179398D01*
X121951295Y-103367756D01*
X122064563Y-103537274D01*
X122208726Y-103681437D01*
X122378244Y-103794705D01*
X122468281Y-103832000D01*
X116523711Y-103832000D01*
X116479774Y-103788063D01*
X116310256Y-103674795D01*
X116121898Y-103596774D01*
X115921939Y-103557000D01*
X115718061Y-103557000D01*
X115518102Y-103596774D01*
X115329744Y-103674795D01*
X115160226Y-103788063D01*
X115116289Y-103832000D01*
X107362856Y-103832000D01*
X107393500Y-103677939D01*
X107393500Y-103474061D01*
X107353726Y-103274102D01*
X107275705Y-103085744D01*
X107162437Y-102916226D01*
X107118500Y-102872289D01*
X107118500Y-93181000D01*
X107285939Y-93181000D01*
X107485898Y-93141226D01*
X107674256Y-93063205D01*
X107843774Y-92949937D01*
X107987937Y-92805774D01*
X108101205Y-92636256D01*
X108179226Y-92447898D01*
X108219000Y-92247939D01*
X108219000Y-92044061D01*
X108179226Y-91844102D01*
X108101205Y-91655744D01*
X107987937Y-91486226D01*
X107944000Y-91442289D01*
X107944000Y-76212711D01*
X107987937Y-76168774D01*
X108101205Y-75999256D01*
X108179226Y-75810898D01*
X108219000Y-75610939D01*
X108219000Y-75407061D01*
X108179226Y-75207102D01*
X108101205Y-75018744D01*
X107987937Y-74849226D01*
X107843774Y-74705063D01*
X107674256Y-74591795D01*
X107485898Y-74513774D01*
X107285939Y-74474000D01*
X107118500Y-74474000D01*
X107118500Y-72956882D01*
X107165719Y-72909663D01*
X107278987Y-72740145D01*
X107357008Y-72551787D01*
X107396782Y-72351828D01*
X107396782Y-72147950D01*
X107357008Y-71947991D01*
X107278987Y-71759633D01*
X107165719Y-71590115D01*
X107021556Y-71445952D01*
X106852038Y-71332684D01*
X106663680Y-71254663D01*
X106463721Y-71214889D01*
X106259843Y-71214889D01*
X106059884Y-71254663D01*
X105871526Y-71332684D01*
X105702008Y-71445952D01*
X105658000Y-71489960D01*
X105658000Y-68289000D01*
X105761939Y-68289000D01*
X105961898Y-68249226D01*
X106150256Y-68171205D01*
X106319774Y-68057937D01*
X106463937Y-67913774D01*
X106577205Y-67744256D01*
X106655226Y-67555898D01*
X106695000Y-67355939D01*
X106695000Y-67152061D01*
X106655226Y-66952102D01*
X106577205Y-66763744D01*
X106463937Y-66594226D01*
X106420000Y-66550289D01*
X106420000Y-63760356D01*
X106574061Y-63791000D01*
X106743623Y-63791000D01*
X106696774Y-63904102D01*
X106657000Y-64104061D01*
X106657000Y-64307939D01*
X106696774Y-64507898D01*
X106774795Y-64696256D01*
X106888063Y-64865774D01*
X107032226Y-65009937D01*
X107201744Y-65123205D01*
X107390102Y-65201226D01*
X107590061Y-65241000D01*
X107793939Y-65241000D01*
X107993898Y-65201226D01*
X108182256Y-65123205D01*
X108351774Y-65009937D01*
X108456001Y-64905710D01*
X108456000Y-93093289D01*
X108412063Y-93137226D01*
X108298795Y-93306744D01*
X108220774Y-93495102D01*
X108181000Y-93695061D01*
X108181000Y-93898939D01*
X108220774Y-94098898D01*
X108298795Y-94287256D01*
X108412063Y-94456774D01*
X108556226Y-94600937D01*
X108725744Y-94714205D01*
X108914102Y-94792226D01*
X109114061Y-94832000D01*
X109317939Y-94832000D01*
X109517898Y-94792226D01*
X109706256Y-94714205D01*
X109875774Y-94600937D01*
X110019937Y-94456774D01*
X110133205Y-94287256D01*
X110211226Y-94098898D01*
X110251000Y-93898939D01*
X110251000Y-93695061D01*
X110211226Y-93495102D01*
X110133205Y-93306744D01*
X110019937Y-93137226D01*
X109976000Y-93093289D01*
X109976000Y-92298061D01*
X119865000Y-92298061D01*
X119865000Y-92501939D01*
X119904774Y-92701898D01*
X119982795Y-92890256D01*
X120096063Y-93059774D01*
X120140000Y-93103711D01*
X120140001Y-95887288D01*
X120096063Y-95931226D01*
X119982795Y-96100744D01*
X119904774Y-96289102D01*
X119865000Y-96489061D01*
X119865000Y-96692939D01*
X119904774Y-96892898D01*
X119982795Y-97081256D01*
X120096063Y-97250774D01*
X120240226Y-97394937D01*
X120409744Y-97508205D01*
X120598102Y-97586226D01*
X120798061Y-97626000D01*
X121001939Y-97626000D01*
X121201898Y-97586226D01*
X121390256Y-97508205D01*
X121559774Y-97394937D01*
X121703937Y-97250774D01*
X121817205Y-97081256D01*
X121895226Y-96892898D01*
X121935000Y-96692939D01*
X121935000Y-96489061D01*
X121895226Y-96289102D01*
X121817205Y-96100744D01*
X121703937Y-95931226D01*
X121660000Y-95887289D01*
X121660000Y-93103711D01*
X121703937Y-93059774D01*
X121817205Y-92890256D01*
X121895226Y-92701898D01*
X121935000Y-92501939D01*
X121935000Y-92298061D01*
X121895226Y-92098102D01*
X121817205Y-91909744D01*
X121703937Y-91740226D01*
X121559774Y-91596063D01*
X121390256Y-91482795D01*
X121201898Y-91404774D01*
X121001939Y-91365000D01*
X120798061Y-91365000D01*
X120598102Y-91404774D01*
X120409744Y-91482795D01*
X120240226Y-91596063D01*
X120096063Y-91740226D01*
X119982795Y-91909744D01*
X119904774Y-92098102D01*
X119865000Y-92298061D01*
X109976000Y-92298061D01*
X109976000Y-88393154D01*
X110122744Y-88491205D01*
X110311102Y-88569226D01*
X110511061Y-88609000D01*
X110714939Y-88609000D01*
X110914898Y-88569226D01*
X111103256Y-88491205D01*
X111272774Y-88377937D01*
X111416937Y-88233774D01*
X111530205Y-88064256D01*
X111608226Y-87875898D01*
X111648000Y-87675939D01*
X111648000Y-87472061D01*
X111608226Y-87272102D01*
X111530205Y-87083744D01*
X111416937Y-86914226D01*
X111373000Y-86870289D01*
X111373000Y-79760801D01*
X112695503Y-78438299D01*
X112724501Y-78414501D01*
X112819474Y-78298776D01*
X112890046Y-78166747D01*
X112933503Y-78023486D01*
X112944500Y-77911833D01*
X112948177Y-77874500D01*
X112944500Y-77837167D01*
X112944500Y-77607603D01*
X112974726Y-77637829D01*
X113144244Y-77751097D01*
X113332602Y-77829118D01*
X113362725Y-77835110D01*
X113364274Y-77842898D01*
X113442295Y-78031256D01*
X113555563Y-78200774D01*
X113699726Y-78344937D01*
X113869244Y-78458205D01*
X114057602Y-78536226D01*
X114257561Y-78576000D01*
X114461439Y-78576000D01*
X114661398Y-78536226D01*
X114849756Y-78458205D01*
X115019274Y-78344937D01*
X115163437Y-78200774D01*
X115276705Y-78031256D01*
X115354726Y-77842898D01*
X115394500Y-77642939D01*
X115394500Y-77439061D01*
X115371942Y-77325653D01*
X115375226Y-77328937D01*
X115544744Y-77442205D01*
X115733102Y-77520226D01*
X115933061Y-77560000D01*
X116136939Y-77560000D01*
X116336898Y-77520226D01*
X116525256Y-77442205D01*
X116694774Y-77328937D01*
X116838937Y-77184774D01*
X116952205Y-77015256D01*
X117030226Y-76826898D01*
X117070000Y-76626939D01*
X117070000Y-76423061D01*
X117032923Y-76236658D01*
X117194274Y-76128847D01*
X117338437Y-75984684D01*
X117451705Y-75815166D01*
X117529726Y-75626808D01*
X117569500Y-75426849D01*
X117569500Y-75222971D01*
X117529726Y-75023012D01*
X117451705Y-74834654D01*
X117338437Y-74665136D01*
X117294500Y-74621199D01*
X117294500Y-64314301D01*
X117855004Y-63753798D01*
X117884001Y-63730001D01*
X117910332Y-63697917D01*
X117978974Y-63614277D01*
X118049546Y-63482247D01*
X118061338Y-63443374D01*
X118093003Y-63338986D01*
X118104000Y-63227333D01*
X118104000Y-63227323D01*
X118107676Y-63190000D01*
X118104000Y-63152677D01*
X118104000Y-62734711D01*
X118147937Y-62690774D01*
X118261205Y-62521256D01*
X118339226Y-62332898D01*
X118379000Y-62132939D01*
X118379000Y-61929061D01*
X118339226Y-61729102D01*
X118276602Y-61577916D01*
X118439102Y-61645226D01*
X118639061Y-61685000D01*
X118842939Y-61685000D01*
X119042898Y-61645226D01*
X119231256Y-61567205D01*
X119400774Y-61453937D01*
X119544937Y-61309774D01*
X119658205Y-61140256D01*
X119736226Y-60951898D01*
X119776000Y-60751939D01*
X119776000Y-60548061D01*
X119736226Y-60348102D01*
X119658205Y-60159744D01*
X119544937Y-59990226D01*
X119400774Y-59846063D01*
X119231256Y-59732795D01*
X119042898Y-59654774D01*
X118842939Y-59615000D01*
X118639061Y-59615000D01*
X118439102Y-59654774D01*
X118250744Y-59732795D01*
X118081226Y-59846063D01*
X118037289Y-59890000D01*
X115402323Y-59890000D01*
X115365000Y-59886324D01*
X115327677Y-59890000D01*
X115327667Y-59890000D01*
X115216014Y-59900997D01*
X115072753Y-59944454D01*
X114940724Y-60015026D01*
X114824999Y-60109999D01*
X114801196Y-60139003D01*
X114573503Y-60366696D01*
X114544499Y-60390499D01*
X114489371Y-60457674D01*
X114449526Y-60506224D01*
X114428443Y-60545668D01*
X114378954Y-60638254D01*
X114335497Y-60781515D01*
X114324500Y-60893168D01*
X114324500Y-60893178D01*
X114320824Y-60930500D01*
X114324500Y-60967822D01*
X114324500Y-63933000D01*
X114257561Y-63933000D01*
X114057602Y-63972774D01*
X113869244Y-64050795D01*
X113699726Y-64164063D01*
X113555563Y-64308226D01*
X113468500Y-64438525D01*
X113468500Y-61284711D01*
X113512437Y-61240774D01*
X113625705Y-61071256D01*
X113703726Y-60882898D01*
X113743500Y-60682939D01*
X113743500Y-60479061D01*
X113703726Y-60279102D01*
X113625705Y-60090744D01*
X113512437Y-59921226D01*
X113368274Y-59777063D01*
X113198756Y-59663795D01*
X113010398Y-59585774D01*
X112810439Y-59546000D01*
X112606561Y-59546000D01*
X112406602Y-59585774D01*
X112218244Y-59663795D01*
X112048726Y-59777063D01*
X111904563Y-59921226D01*
X111883000Y-59953497D01*
X111861437Y-59921226D01*
X111717274Y-59777063D01*
X111547756Y-59663795D01*
X111359398Y-59585774D01*
X111159439Y-59546000D01*
X110955561Y-59546000D01*
X110755602Y-59585774D01*
X110567244Y-59663795D01*
X110397726Y-59777063D01*
X110253563Y-59921226D01*
X110140295Y-60090744D01*
X110062274Y-60279102D01*
X110022500Y-60479061D01*
X110022500Y-60682939D01*
X110062274Y-60882898D01*
X110140295Y-61071256D01*
X110253563Y-61240774D01*
X110299502Y-61286713D01*
X110299501Y-74870790D01*
X110255564Y-74914727D01*
X110142296Y-75084245D01*
X110064275Y-75272603D01*
X110024501Y-75472562D01*
X110024501Y-75676440D01*
X110064275Y-75876399D01*
X110142296Y-76064757D01*
X110255564Y-76234275D01*
X110399727Y-76378438D01*
X110569245Y-76491706D01*
X110757603Y-76569727D01*
X110957562Y-76609501D01*
X111161440Y-76609501D01*
X111361399Y-76569727D01*
X111424500Y-76543589D01*
X111424501Y-77559697D01*
X110102003Y-78882196D01*
X110072999Y-78905999D01*
X110036070Y-78950998D01*
X109978026Y-79021724D01*
X109976000Y-79025514D01*
X109976000Y-64221711D01*
X110056937Y-64140774D01*
X110170205Y-63971256D01*
X110248226Y-63782898D01*
X110288000Y-63582939D01*
X110288000Y-63379061D01*
X110248226Y-63179102D01*
X110170205Y-62990744D01*
X110056937Y-62821226D01*
X109912774Y-62677063D01*
X109743256Y-62563795D01*
X109554898Y-62485774D01*
X109354939Y-62446000D01*
X109151061Y-62446000D01*
X108951102Y-62485774D01*
X108762744Y-62563795D01*
X108593226Y-62677063D01*
X108452000Y-62818289D01*
X108452000Y-59507000D01*
X130808000Y-59507000D01*
X130808001Y-65026288D01*
X130764063Y-65070226D01*
X130650795Y-65239744D01*
X130572774Y-65428102D01*
X130533000Y-65628061D01*
X130533000Y-65831939D01*
X130572774Y-66031898D01*
X130650795Y-66220256D01*
X130764063Y-66389774D01*
X130908226Y-66533937D01*
X131077744Y-66647205D01*
X131266102Y-66725226D01*
X131466061Y-66765000D01*
X131669939Y-66765000D01*
X131869898Y-66725226D01*
X132058256Y-66647205D01*
X132227774Y-66533937D01*
X132371937Y-66389774D01*
X132485205Y-66220256D01*
X132563226Y-66031898D01*
X132603000Y-65831939D01*
X132603000Y-65628061D01*
X132563226Y-65428102D01*
X132485205Y-65239744D01*
X132371937Y-65070226D01*
X132328000Y-65026289D01*
X132328000Y-59774608D01*
X132456829Y-59903437D01*
X132626347Y-60016705D01*
X132814705Y-60094726D01*
X132847506Y-60101251D01*
X132858774Y-60157898D01*
X132936795Y-60346256D01*
X133050063Y-60515774D01*
X133194226Y-60659937D01*
X133363744Y-60773205D01*
X133552102Y-60851226D01*
X133752061Y-60891000D01*
X133955939Y-60891000D01*
X134046500Y-60872986D01*
X134046500Y-61343289D01*
X134002563Y-61387226D01*
X133889295Y-61556744D01*
X133811274Y-61745102D01*
X133771500Y-61945061D01*
X133771500Y-62148939D01*
X133811274Y-62348898D01*
X133889295Y-62537256D01*
X134002563Y-62706774D01*
X134146726Y-62850937D01*
X134316244Y-62964205D01*
X134504602Y-63042226D01*
X134704561Y-63082000D01*
X134908439Y-63082000D01*
X135108398Y-63042226D01*
X135296756Y-62964205D01*
X135466274Y-62850937D01*
X135473925Y-62843286D01*
X135647602Y-62915226D01*
X135847561Y-62955000D01*
X136051439Y-62955000D01*
X136251398Y-62915226D01*
X136439756Y-62837205D01*
X136609274Y-62723937D01*
X136753437Y-62579774D01*
X136866705Y-62410256D01*
X136944726Y-62221898D01*
X136984500Y-62021939D01*
X136984500Y-61818061D01*
X136944726Y-61618102D01*
X136866705Y-61429744D01*
X136753437Y-61260226D01*
X136709500Y-61216289D01*
X136709500Y-57543711D01*
X136753437Y-57499774D01*
X136866705Y-57330256D01*
X136944726Y-57141898D01*
X136984500Y-56941939D01*
X136984500Y-56738061D01*
X136944726Y-56538102D01*
X136866705Y-56349744D01*
X136753437Y-56180226D01*
X136609274Y-56036063D01*
X136439756Y-55922795D01*
X136251398Y-55844774D01*
X136051439Y-55805000D01*
X135847561Y-55805000D01*
X135647602Y-55844774D01*
X135459244Y-55922795D01*
X135289726Y-56036063D01*
X135145563Y-56180226D01*
X135032295Y-56349744D01*
X134954274Y-56538102D01*
X134914500Y-56738061D01*
X134914500Y-56941939D01*
X134954274Y-57141898D01*
X135032295Y-57330256D01*
X135145563Y-57499774D01*
X135189501Y-57543712D01*
X135189501Y-58481868D01*
X135108398Y-58448274D01*
X134908439Y-58408500D01*
X134704561Y-58408500D01*
X134614000Y-58426514D01*
X134614000Y-57543711D01*
X134657937Y-57499774D01*
X134771205Y-57330256D01*
X134849226Y-57141898D01*
X134889000Y-56941939D01*
X134889000Y-56738061D01*
X134849226Y-56538102D01*
X134771205Y-56349744D01*
X134657937Y-56180226D01*
X134513774Y-56036063D01*
X134344256Y-55922795D01*
X134155898Y-55844774D01*
X133955939Y-55805000D01*
X133876603Y-55805000D01*
X133876603Y-52439108D01*
X133895937Y-52419774D01*
X134009205Y-52250256D01*
X134087226Y-52061898D01*
X134127000Y-51861939D01*
X134127000Y-51658061D01*
X134087226Y-51458102D01*
X134009205Y-51269744D01*
X133895937Y-51100226D01*
X133751774Y-50956063D01*
X133582256Y-50842795D01*
X133393898Y-50764774D01*
X133193939Y-50725000D01*
X132990061Y-50725000D01*
X132790102Y-50764774D01*
X132601744Y-50842795D01*
X132457000Y-50939510D01*
X132457000Y-42260000D01*
X147003000Y-42260000D01*
X147003000Y-50600000D01*
X147005440Y-50624776D01*
X147012667Y-50648601D01*
X147024403Y-50670557D01*
X147040197Y-50689803D01*
X147059443Y-50705597D01*
X147081399Y-50717333D01*
X147105224Y-50724560D01*
X147130000Y-50727000D01*
X155470000Y-50727000D01*
X155470001Y-117940000D01*
X147257000Y-117940000D01*
X147257000Y-105600000D01*
X147254560Y-105575224D01*
X147247333Y-105551399D01*
X147235597Y-105529443D01*
X147219803Y-105510197D01*
X147200557Y-105494403D01*
X147178601Y-105482667D01*
X147154776Y-105475440D01*
X147130000Y-105473000D01*
X135130000Y-105473000D01*
X135105224Y-105475440D01*
X135081399Y-105482667D01*
X135059443Y-105494403D01*
X135040197Y-105510197D01*
X135024403Y-105529443D01*
X135012667Y-105551399D01*
X135005440Y-105575224D01*
X135003000Y-105600000D01*
X135003000Y-117940000D01*
X79257000Y-117940000D01*
X79257000Y-104600000D01*
X79254560Y-104575224D01*
X79247333Y-104551399D01*
X79235597Y-104529443D01*
X79219803Y-104510197D01*
X79200557Y-104494403D01*
X79178601Y-104482667D01*
X79154776Y-104475440D01*
X79130000Y-104473000D01*
X67130000Y-104473000D01*
X67105224Y-104475440D01*
X67081399Y-104482667D01*
X67059443Y-104494403D01*
X67040197Y-104510197D01*
X67024403Y-104529443D01*
X67012667Y-104551399D01*
X67005440Y-104575224D01*
X67003000Y-104600000D01*
X67003000Y-117940000D01*
X56790000Y-117940000D01*
X56790000Y-98750000D01*
X58447815Y-98750000D01*
X58476487Y-99041111D01*
X58561401Y-99321034D01*
X58699294Y-99579014D01*
X58884866Y-99805134D01*
X59110986Y-99990706D01*
X59165791Y-100020000D01*
X59110986Y-100049294D01*
X58884866Y-100234866D01*
X58699294Y-100460986D01*
X58561401Y-100718966D01*
X58476487Y-100998889D01*
X58447815Y-101290000D01*
X58476487Y-101581111D01*
X58561401Y-101861034D01*
X58699294Y-102119014D01*
X58884866Y-102345134D01*
X59110986Y-102530706D01*
X59165791Y-102560000D01*
X59110986Y-102589294D01*
X58884866Y-102774866D01*
X58699294Y-103000986D01*
X58561401Y-103258966D01*
X58476487Y-103538889D01*
X58447815Y-103830000D01*
X58476487Y-104121111D01*
X58561401Y-104401034D01*
X58699294Y-104659014D01*
X58884866Y-104885134D01*
X59110986Y-105070706D01*
X59165791Y-105100000D01*
X59110986Y-105129294D01*
X58884866Y-105314866D01*
X58699294Y-105540986D01*
X58561401Y-105798966D01*
X58476487Y-106078889D01*
X58447815Y-106370000D01*
X58476487Y-106661111D01*
X58561401Y-106941034D01*
X58699294Y-107199014D01*
X58884866Y-107425134D01*
X59110986Y-107610706D01*
X59165791Y-107640000D01*
X59110986Y-107669294D01*
X58884866Y-107854866D01*
X58699294Y-108080986D01*
X58561401Y-108338966D01*
X58476487Y-108618889D01*
X58447815Y-108910000D01*
X58476487Y-109201111D01*
X58561401Y-109481034D01*
X58699294Y-109739014D01*
X58884866Y-109965134D01*
X59110986Y-110150706D01*
X59165791Y-110180000D01*
X59110986Y-110209294D01*
X58884866Y-110394866D01*
X58699294Y-110620986D01*
X58561401Y-110878966D01*
X58476487Y-111158889D01*
X58447815Y-111450000D01*
X58476487Y-111741111D01*
X58561401Y-112021034D01*
X58699294Y-112279014D01*
X58884866Y-112505134D01*
X59110986Y-112690706D01*
X59165791Y-112720000D01*
X59110986Y-112749294D01*
X58884866Y-112934866D01*
X58699294Y-113160986D01*
X58561401Y-113418966D01*
X58476487Y-113698889D01*
X58447815Y-113990000D01*
X58476487Y-114281111D01*
X58561401Y-114561034D01*
X58699294Y-114819014D01*
X58884866Y-115045134D01*
X59110986Y-115230706D01*
X59368966Y-115368599D01*
X59648889Y-115453513D01*
X59867050Y-115475000D01*
X60012950Y-115475000D01*
X60231111Y-115453513D01*
X60511034Y-115368599D01*
X60769014Y-115230706D01*
X60995134Y-115045134D01*
X61180706Y-114819014D01*
X61318599Y-114561034D01*
X61403513Y-114281111D01*
X61432185Y-113990000D01*
X61403513Y-113698889D01*
X61318599Y-113418966D01*
X61180706Y-113160986D01*
X60995134Y-112934866D01*
X60769014Y-112749294D01*
X60714209Y-112720000D01*
X60769014Y-112690706D01*
X60995134Y-112505134D01*
X61180706Y-112279014D01*
X61318599Y-112021034D01*
X61403513Y-111741111D01*
X61432185Y-111450000D01*
X61403513Y-111158889D01*
X61318599Y-110878966D01*
X61180706Y-110620986D01*
X60995134Y-110394866D01*
X60769014Y-110209294D01*
X60714209Y-110180000D01*
X60769014Y-110150706D01*
X60995134Y-109965134D01*
X61180706Y-109739014D01*
X61318599Y-109481034D01*
X61403513Y-109201111D01*
X61432185Y-108910000D01*
X61403513Y-108618889D01*
X61318599Y-108338966D01*
X61180706Y-108080986D01*
X60995134Y-107854866D01*
X60769014Y-107669294D01*
X60714209Y-107640000D01*
X60769014Y-107610706D01*
X60995134Y-107425134D01*
X61180706Y-107199014D01*
X61318599Y-106941034D01*
X61403513Y-106661111D01*
X61432185Y-106370000D01*
X61403513Y-106078889D01*
X61318599Y-105798966D01*
X61180706Y-105540986D01*
X60995134Y-105314866D01*
X60769014Y-105129294D01*
X60714209Y-105100000D01*
X60769014Y-105070706D01*
X60995134Y-104885134D01*
X61180706Y-104659014D01*
X61318599Y-104401034D01*
X61403513Y-104121111D01*
X61432185Y-103830000D01*
X61403513Y-103538889D01*
X61318599Y-103258966D01*
X61180706Y-103000986D01*
X60995134Y-102774866D01*
X60769014Y-102589294D01*
X60714209Y-102560000D01*
X60769014Y-102530706D01*
X60995134Y-102345134D01*
X61180706Y-102119014D01*
X61318599Y-101861034D01*
X61403513Y-101581111D01*
X61432185Y-101290000D01*
X61403513Y-100998889D01*
X61318599Y-100718966D01*
X61180706Y-100460986D01*
X60995134Y-100234866D01*
X60769014Y-100049294D01*
X60714209Y-100020000D01*
X60769014Y-99990706D01*
X60995134Y-99805134D01*
X61180706Y-99579014D01*
X61318599Y-99321034D01*
X61403513Y-99041111D01*
X61432185Y-98750000D01*
X61403513Y-98458889D01*
X61318599Y-98178966D01*
X61180706Y-97920986D01*
X60995134Y-97694866D01*
X60965313Y-97670393D01*
X61034180Y-97649502D01*
X61144494Y-97590537D01*
X61241185Y-97511185D01*
X61320537Y-97414494D01*
X61379502Y-97304180D01*
X61415812Y-97184482D01*
X61428072Y-97060000D01*
X61428072Y-95360000D01*
X61415812Y-95235518D01*
X61379502Y-95115820D01*
X61320537Y-95005506D01*
X61241185Y-94908815D01*
X61144494Y-94829463D01*
X61034180Y-94770498D01*
X60914482Y-94734188D01*
X60790000Y-94721928D01*
X59090000Y-94721928D01*
X58965518Y-94734188D01*
X58845820Y-94770498D01*
X58735506Y-94829463D01*
X58638815Y-94908815D01*
X58559463Y-95005506D01*
X58500498Y-95115820D01*
X58464188Y-95235518D01*
X58451928Y-95360000D01*
X58451928Y-97060000D01*
X58464188Y-97184482D01*
X58500498Y-97304180D01*
X58559463Y-97414494D01*
X58638815Y-97511185D01*
X58735506Y-97590537D01*
X58845820Y-97649502D01*
X58914687Y-97670393D01*
X58884866Y-97694866D01*
X58699294Y-97920986D01*
X58561401Y-98178966D01*
X58476487Y-98458889D01*
X58447815Y-98750000D01*
X56790000Y-98750000D01*
X56790000Y-84628816D01*
X60285000Y-84628816D01*
X60285000Y-84931184D01*
X60343989Y-85227743D01*
X60459701Y-85507095D01*
X60627688Y-85758505D01*
X60841495Y-85972312D01*
X61092905Y-86140299D01*
X61372257Y-86256011D01*
X61668816Y-86315000D01*
X61971184Y-86315000D01*
X62267743Y-86256011D01*
X62547095Y-86140299D01*
X62798505Y-85972312D01*
X63012312Y-85758505D01*
X63180299Y-85507095D01*
X63296011Y-85227743D01*
X63355000Y-84931184D01*
X63355000Y-84628816D01*
X63485000Y-84628816D01*
X63485000Y-84931184D01*
X63543989Y-85227743D01*
X63659701Y-85507095D01*
X63827688Y-85758505D01*
X64041495Y-85972312D01*
X64292905Y-86140299D01*
X64572257Y-86256011D01*
X64868816Y-86315000D01*
X65171184Y-86315000D01*
X65467743Y-86256011D01*
X65747095Y-86140299D01*
X65998505Y-85972312D01*
X66212312Y-85758505D01*
X66380299Y-85507095D01*
X66496011Y-85227743D01*
X66555000Y-84931184D01*
X66555000Y-84628816D01*
X66496011Y-84332257D01*
X66380299Y-84052905D01*
X66212312Y-83801495D01*
X65998505Y-83587688D01*
X65747095Y-83419701D01*
X65467743Y-83303989D01*
X65171184Y-83245000D01*
X64868816Y-83245000D01*
X64572257Y-83303989D01*
X64292905Y-83419701D01*
X64041495Y-83587688D01*
X63827688Y-83801495D01*
X63659701Y-84052905D01*
X63543989Y-84332257D01*
X63485000Y-84628816D01*
X63355000Y-84628816D01*
X63296011Y-84332257D01*
X63180299Y-84052905D01*
X63012312Y-83801495D01*
X62798505Y-83587688D01*
X62580000Y-83441687D01*
X62580000Y-75086801D01*
X63752000Y-73914801D01*
X63752000Y-75186289D01*
X63708063Y-75230226D01*
X63594795Y-75399744D01*
X63516774Y-75588102D01*
X63477000Y-75788061D01*
X63477000Y-75991939D01*
X63516774Y-76191898D01*
X63594795Y-76380256D01*
X63708063Y-76549774D01*
X63752000Y-76593711D01*
X63752001Y-76964288D01*
X63708063Y-77008226D01*
X63594795Y-77177744D01*
X63516774Y-77366102D01*
X63477000Y-77566061D01*
X63477000Y-77769939D01*
X63516774Y-77969898D01*
X63594795Y-78158256D01*
X63708063Y-78327774D01*
X63852226Y-78471937D01*
X64021744Y-78585205D01*
X64210102Y-78663226D01*
X64410061Y-78703000D01*
X64613939Y-78703000D01*
X64813898Y-78663226D01*
X65002256Y-78585205D01*
X65171774Y-78471937D01*
X65315937Y-78327774D01*
X65429205Y-78158256D01*
X65507226Y-77969898D01*
X65547000Y-77769939D01*
X65547000Y-77566061D01*
X65507226Y-77366102D01*
X65429205Y-77177744D01*
X65315937Y-77008226D01*
X65272000Y-76964289D01*
X65272000Y-76593711D01*
X65315937Y-76549774D01*
X65429205Y-76380256D01*
X65507226Y-76191898D01*
X65547000Y-75991939D01*
X65547000Y-75788061D01*
X65507226Y-75588102D01*
X65429205Y-75399744D01*
X65315937Y-75230226D01*
X65272000Y-75186289D01*
X65272000Y-71570000D01*
X66207379Y-71570000D01*
X66240498Y-71679180D01*
X66299463Y-71789494D01*
X66378815Y-71886185D01*
X66475506Y-71965537D01*
X66585820Y-72024502D01*
X66705518Y-72060812D01*
X66830000Y-72073072D01*
X67075701Y-72073072D01*
X67024463Y-72135506D01*
X66965498Y-72245820D01*
X66929188Y-72365518D01*
X66916928Y-72490000D01*
X66916928Y-74050000D01*
X66929188Y-74174482D01*
X66965498Y-74294180D01*
X67024463Y-74404494D01*
X67103815Y-74501185D01*
X67200506Y-74580537D01*
X67274335Y-74620000D01*
X67200506Y-74659463D01*
X67103815Y-74738815D01*
X67024463Y-74835506D01*
X66965498Y-74945820D01*
X66929188Y-75065518D01*
X66916928Y-75190000D01*
X66920000Y-75684250D01*
X67078750Y-75843000D01*
X67753000Y-75843000D01*
X67753000Y-75823000D01*
X67866928Y-75823000D01*
X67866928Y-76117000D01*
X67753000Y-76117000D01*
X67753000Y-76097000D01*
X67078750Y-76097000D01*
X66920000Y-76255750D01*
X66916928Y-76750000D01*
X66929188Y-76874482D01*
X66965498Y-76994180D01*
X67024463Y-77104494D01*
X67103815Y-77201185D01*
X67200506Y-77280537D01*
X67310820Y-77339502D01*
X67430518Y-77375812D01*
X67555000Y-77388072D01*
X67594250Y-77385000D01*
X67752998Y-77226252D01*
X67752998Y-77385000D01*
X67831015Y-77385000D01*
X67795000Y-77566061D01*
X67795000Y-77769939D01*
X67834774Y-77969898D01*
X67912795Y-78158256D01*
X68026063Y-78327774D01*
X68070001Y-78371712D01*
X68070000Y-80170677D01*
X68066324Y-80208000D01*
X68070000Y-80245322D01*
X68070000Y-80245332D01*
X68080997Y-80356985D01*
X68112344Y-80460323D01*
X68124454Y-80500246D01*
X68195026Y-80632276D01*
X68234871Y-80680826D01*
X68289999Y-80748001D01*
X68319002Y-80771804D01*
X69086001Y-81538803D01*
X69086001Y-83512515D01*
X68947095Y-83419701D01*
X68667743Y-83303989D01*
X68371184Y-83245000D01*
X68068816Y-83245000D01*
X67772257Y-83303989D01*
X67492905Y-83419701D01*
X67241495Y-83587688D01*
X67027688Y-83801495D01*
X66859701Y-84052905D01*
X66743989Y-84332257D01*
X66685000Y-84628816D01*
X66685000Y-84931184D01*
X66743989Y-85227743D01*
X66859701Y-85507095D01*
X67027688Y-85758505D01*
X67241495Y-85972312D01*
X67492905Y-86140299D01*
X67772257Y-86256011D01*
X68068816Y-86315000D01*
X68371184Y-86315000D01*
X68667743Y-86256011D01*
X68947095Y-86140299D01*
X69086001Y-86047485D01*
X69086000Y-97792289D01*
X69042063Y-97836226D01*
X68928795Y-98005744D01*
X68850774Y-98194102D01*
X68811000Y-98394061D01*
X68811000Y-98597939D01*
X68850774Y-98797898D01*
X68928795Y-98986256D01*
X69042063Y-99155774D01*
X69186226Y-99299937D01*
X69355744Y-99413205D01*
X69544102Y-99491226D01*
X69744061Y-99531000D01*
X69947939Y-99531000D01*
X70147898Y-99491226D01*
X70336256Y-99413205D01*
X70505774Y-99299937D01*
X70649937Y-99155774D01*
X70763205Y-98986256D01*
X70841226Y-98797898D01*
X70881000Y-98597939D01*
X70881000Y-98394061D01*
X70841226Y-98194102D01*
X70763205Y-98005744D01*
X70649937Y-97836226D01*
X70606000Y-97792289D01*
X70606000Y-95296891D01*
X77548519Y-95296891D01*
X77645843Y-95571252D01*
X77794822Y-95821355D01*
X77989731Y-96037588D01*
X78223080Y-96211641D01*
X78485901Y-96336825D01*
X78633110Y-96381476D01*
X78863000Y-96260155D01*
X78863000Y-95067000D01*
X77669186Y-95067000D01*
X77548519Y-95296891D01*
X70606000Y-95296891D01*
X70606000Y-94583109D01*
X77548519Y-94583109D01*
X77669186Y-94813000D01*
X78863000Y-94813000D01*
X78863000Y-93619845D01*
X78633110Y-93498524D01*
X78485901Y-93543175D01*
X78223080Y-93668359D01*
X77989731Y-93842412D01*
X77794822Y-94058645D01*
X77645843Y-94308748D01*
X77548519Y-94583109D01*
X70606000Y-94583109D01*
X70606000Y-88195000D01*
X73526928Y-88195000D01*
X73539188Y-88319482D01*
X73575498Y-88439180D01*
X73634463Y-88549494D01*
X73713815Y-88646185D01*
X73810506Y-88725537D01*
X73920820Y-88784502D01*
X74040518Y-88820812D01*
X74165000Y-88833072D01*
X74894250Y-88830000D01*
X75053000Y-88671250D01*
X75053000Y-86997000D01*
X75307000Y-86997000D01*
X75307000Y-88671250D01*
X75465750Y-88830000D01*
X76195000Y-88833072D01*
X76319482Y-88820812D01*
X76439180Y-88784502D01*
X76549494Y-88725537D01*
X76646185Y-88646185D01*
X76725537Y-88549494D01*
X76784502Y-88439180D01*
X76820812Y-88319482D01*
X76833072Y-88195000D01*
X76830000Y-87155750D01*
X76671250Y-86997000D01*
X75307000Y-86997000D01*
X75053000Y-86997000D01*
X73688750Y-86997000D01*
X73530000Y-87155750D01*
X73526928Y-88195000D01*
X70606000Y-88195000D01*
X70606000Y-85545000D01*
X73526928Y-85545000D01*
X73530000Y-86584250D01*
X73688750Y-86743000D01*
X75053000Y-86743000D01*
X75053000Y-85068750D01*
X75307000Y-85068750D01*
X75307000Y-86743000D01*
X76671250Y-86743000D01*
X76830000Y-86584250D01*
X76833072Y-85545000D01*
X76820812Y-85420518D01*
X76784502Y-85300820D01*
X76725537Y-85190506D01*
X76646185Y-85093815D01*
X76549494Y-85014463D01*
X76439180Y-84955498D01*
X76319482Y-84919188D01*
X76195000Y-84906928D01*
X75465750Y-84910000D01*
X75307000Y-85068750D01*
X75053000Y-85068750D01*
X74894250Y-84910000D01*
X74165000Y-84906928D01*
X74040518Y-84919188D01*
X73920820Y-84955498D01*
X73810506Y-85014463D01*
X73713815Y-85093815D01*
X73634463Y-85190506D01*
X73575498Y-85300820D01*
X73539188Y-85420518D01*
X73526928Y-85545000D01*
X70606000Y-85545000D01*
X70606000Y-81365000D01*
X73526928Y-81365000D01*
X73526928Y-84015000D01*
X73539188Y-84139482D01*
X73575498Y-84259180D01*
X73634463Y-84369494D01*
X73713815Y-84466185D01*
X73810506Y-84545537D01*
X73920820Y-84604502D01*
X74040518Y-84640812D01*
X74165000Y-84653072D01*
X76195000Y-84653072D01*
X76319482Y-84640812D01*
X76439180Y-84604502D01*
X76549494Y-84545537D01*
X76646185Y-84466185D01*
X76725537Y-84369494D01*
X76784502Y-84259180D01*
X76820812Y-84139482D01*
X76833072Y-84015000D01*
X76833072Y-83569875D01*
X76975744Y-83665205D01*
X77164102Y-83743226D01*
X77364061Y-83783000D01*
X77567939Y-83783000D01*
X77767898Y-83743226D01*
X77956256Y-83665205D01*
X78125774Y-83551937D01*
X78269937Y-83407774D01*
X78383205Y-83238256D01*
X78461226Y-83049898D01*
X78501000Y-82849939D01*
X78501000Y-82646061D01*
X78461226Y-82446102D01*
X78383205Y-82257744D01*
X78269937Y-82088226D01*
X78125774Y-81944063D01*
X77956256Y-81830795D01*
X77767898Y-81752774D01*
X77567939Y-81713000D01*
X77364061Y-81713000D01*
X77164102Y-81752774D01*
X76975744Y-81830795D01*
X76833072Y-81926125D01*
X76833072Y-81365000D01*
X76820812Y-81240518D01*
X76784502Y-81120820D01*
X76725537Y-81010506D01*
X76646185Y-80913815D01*
X76549494Y-80834463D01*
X76439180Y-80775498D01*
X76319482Y-80739188D01*
X76195000Y-80726928D01*
X74165000Y-80726928D01*
X74040518Y-80739188D01*
X73920820Y-80775498D01*
X73810506Y-80834463D01*
X73713815Y-80913815D01*
X73634463Y-81010506D01*
X73575498Y-81120820D01*
X73539188Y-81240518D01*
X73526928Y-81365000D01*
X70606000Y-81365000D01*
X70606000Y-81261322D01*
X70609676Y-81224000D01*
X70606000Y-81186677D01*
X70606000Y-81186667D01*
X70595003Y-81075014D01*
X70551546Y-80931753D01*
X70514262Y-80862000D01*
X70480974Y-80799723D01*
X70409799Y-80712997D01*
X70386001Y-80683999D01*
X70357003Y-80660201D01*
X69590000Y-79893199D01*
X69590000Y-78371711D01*
X69633937Y-78327774D01*
X69747205Y-78158256D01*
X69825226Y-77969898D01*
X69865000Y-77769939D01*
X69865000Y-77566061D01*
X69828985Y-77385000D01*
X69907002Y-77385000D01*
X69907002Y-77226252D01*
X70065750Y-77385000D01*
X70105000Y-77388072D01*
X70229482Y-77375812D01*
X70349180Y-77339502D01*
X70459494Y-77280537D01*
X70556185Y-77201185D01*
X70635537Y-77104494D01*
X70694502Y-76994180D01*
X70730812Y-76874482D01*
X70743072Y-76750000D01*
X70742700Y-76690000D01*
X72471928Y-76690000D01*
X72484188Y-76814482D01*
X72520498Y-76934180D01*
X72579463Y-77044494D01*
X72658815Y-77141185D01*
X72755506Y-77220537D01*
X72865820Y-77279502D01*
X72985518Y-77315812D01*
X73110000Y-77328072D01*
X73624250Y-77325000D01*
X73783000Y-77166250D01*
X73783000Y-76017000D01*
X72633750Y-76017000D01*
X72475000Y-76175750D01*
X72471928Y-76690000D01*
X70742700Y-76690000D01*
X70740000Y-76255750D01*
X70581250Y-76097000D01*
X69907000Y-76097000D01*
X69907000Y-76117000D01*
X69793072Y-76117000D01*
X69793072Y-75823000D01*
X69907000Y-75823000D01*
X69907000Y-75843000D01*
X70581250Y-75843000D01*
X70740000Y-75684250D01*
X70743072Y-75190000D01*
X70733224Y-75090000D01*
X72471928Y-75090000D01*
X72475000Y-75604250D01*
X72633750Y-75763000D01*
X73783000Y-75763000D01*
X73783000Y-74613750D01*
X74037000Y-74613750D01*
X74037000Y-75763000D01*
X74057000Y-75763000D01*
X74057000Y-76017000D01*
X74037000Y-76017000D01*
X74037000Y-77166250D01*
X74195750Y-77325000D01*
X74710000Y-77328072D01*
X74834482Y-77315812D01*
X74954180Y-77279502D01*
X74990740Y-77259960D01*
X74946774Y-77366102D01*
X74907000Y-77566061D01*
X74907000Y-77769939D01*
X74946774Y-77969898D01*
X75024795Y-78158256D01*
X75138063Y-78327774D01*
X75282226Y-78471937D01*
X75451744Y-78585205D01*
X75640102Y-78663226D01*
X75840061Y-78703000D01*
X76043939Y-78703000D01*
X76243898Y-78663226D01*
X76432256Y-78585205D01*
X76601774Y-78471937D01*
X76745937Y-78327774D01*
X76859205Y-78158256D01*
X76937226Y-77969898D01*
X76977000Y-77769939D01*
X76977000Y-77566061D01*
X76937226Y-77366102D01*
X76859205Y-77177744D01*
X76768608Y-77042156D01*
X76824759Y-77004637D01*
X77024637Y-76804759D01*
X77181680Y-76569727D01*
X77289853Y-76308574D01*
X77345000Y-76031335D01*
X77345000Y-75748665D01*
X77289853Y-75471426D01*
X77181680Y-75210273D01*
X77024637Y-74975241D01*
X76824759Y-74775363D01*
X76589727Y-74618320D01*
X76328574Y-74510147D01*
X76051335Y-74455000D01*
X75768665Y-74455000D01*
X75491426Y-74510147D01*
X75230273Y-74618320D01*
X75174790Y-74655393D01*
X75161185Y-74638815D01*
X75064494Y-74559463D01*
X74954180Y-74500498D01*
X74834482Y-74464188D01*
X74710000Y-74451928D01*
X74195750Y-74455000D01*
X74037000Y-74613750D01*
X73783000Y-74613750D01*
X73624250Y-74455000D01*
X73110000Y-74451928D01*
X72985518Y-74464188D01*
X72865820Y-74500498D01*
X72755506Y-74559463D01*
X72658815Y-74638815D01*
X72579463Y-74735506D01*
X72520498Y-74845820D01*
X72484188Y-74965518D01*
X72471928Y-75090000D01*
X70733224Y-75090000D01*
X70730812Y-75065518D01*
X70694502Y-74945820D01*
X70635537Y-74835506D01*
X70556185Y-74738815D01*
X70459494Y-74659463D01*
X70385665Y-74620000D01*
X70459494Y-74580537D01*
X70556185Y-74501185D01*
X70635537Y-74404494D01*
X70694502Y-74294180D01*
X70730812Y-74174482D01*
X70743072Y-74050000D01*
X70743072Y-72640000D01*
X77726928Y-72640000D01*
X77726928Y-74140000D01*
X77739188Y-74264482D01*
X77775498Y-74384180D01*
X77834463Y-74494494D01*
X77913815Y-74591185D01*
X77973296Y-74640000D01*
X77913815Y-74688815D01*
X77834463Y-74785506D01*
X77775498Y-74895820D01*
X77739188Y-75015518D01*
X77726928Y-75140000D01*
X77726928Y-76640000D01*
X77739188Y-76764482D01*
X77775498Y-76884180D01*
X77834463Y-76994494D01*
X77913815Y-77091185D01*
X78010506Y-77170537D01*
X78120820Y-77229502D01*
X78236629Y-77264632D01*
X78240997Y-77308985D01*
X78281408Y-77442205D01*
X78284454Y-77452246D01*
X78355026Y-77584276D01*
X78389320Y-77626063D01*
X78449999Y-77700001D01*
X78479002Y-77723803D01*
X78934200Y-78179002D01*
X78957999Y-78208001D01*
X79073724Y-78302974D01*
X79205753Y-78373546D01*
X79349014Y-78417003D01*
X79460667Y-78428000D01*
X79460676Y-78428000D01*
X79497999Y-78431676D01*
X79535322Y-78428000D01*
X80318289Y-78428000D01*
X80362226Y-78471937D01*
X80531744Y-78585205D01*
X80720102Y-78663226D01*
X80920061Y-78703000D01*
X81123939Y-78703000D01*
X81323898Y-78663226D01*
X81512256Y-78585205D01*
X81681774Y-78471937D01*
X81825937Y-78327774D01*
X81939205Y-78158256D01*
X82017226Y-77969898D01*
X82057000Y-77769939D01*
X82057000Y-77566061D01*
X82017226Y-77366102D01*
X81939205Y-77177744D01*
X81825937Y-77008226D01*
X81681774Y-76864063D01*
X81512256Y-76750795D01*
X81323898Y-76672774D01*
X81123939Y-76633000D01*
X80920061Y-76633000D01*
X80720102Y-76672774D01*
X80531744Y-76750795D01*
X80362226Y-76864063D01*
X80318289Y-76908000D01*
X80191770Y-76908000D01*
X80204502Y-76884180D01*
X80240812Y-76764482D01*
X80253072Y-76640000D01*
X80253072Y-75140000D01*
X80240812Y-75015518D01*
X80204502Y-74895820D01*
X80145537Y-74785506D01*
X80066185Y-74688815D01*
X80006704Y-74640000D01*
X80066185Y-74591185D01*
X80145537Y-74494494D01*
X80204502Y-74384180D01*
X80240812Y-74264482D01*
X80253072Y-74140000D01*
X80253072Y-74099375D01*
X80412061Y-74131000D01*
X80615939Y-74131000D01*
X80815898Y-74091226D01*
X81004256Y-74013205D01*
X81173774Y-73899937D01*
X81317937Y-73755774D01*
X81431205Y-73586256D01*
X81509226Y-73397898D01*
X81549000Y-73197939D01*
X81549000Y-72994061D01*
X81509226Y-72794102D01*
X81431205Y-72605744D01*
X81317937Y-72436226D01*
X81173774Y-72292063D01*
X81004256Y-72178795D01*
X80815898Y-72100774D01*
X80615939Y-72061000D01*
X80412061Y-72061000D01*
X80212102Y-72100774D01*
X80043835Y-72170473D01*
X79969494Y-72109463D01*
X79859180Y-72050498D01*
X79739482Y-72014188D01*
X79615000Y-72001928D01*
X78365000Y-72001928D01*
X78240518Y-72014188D01*
X78120820Y-72050498D01*
X78010506Y-72109463D01*
X77913815Y-72188815D01*
X77834463Y-72285506D01*
X77775498Y-72395820D01*
X77739188Y-72515518D01*
X77726928Y-72640000D01*
X70743072Y-72640000D01*
X70743072Y-72490000D01*
X70730812Y-72365518D01*
X70694502Y-72245820D01*
X70635537Y-72135506D01*
X70584299Y-72073072D01*
X70830000Y-72073072D01*
X70954482Y-72060812D01*
X71074180Y-72024502D01*
X71184494Y-71965537D01*
X71281185Y-71886185D01*
X71360537Y-71789494D01*
X71419502Y-71679180D01*
X71455812Y-71559482D01*
X71468072Y-71435000D01*
X71468072Y-70185000D01*
X71455812Y-70060518D01*
X71419502Y-69940820D01*
X71360537Y-69830506D01*
X71281185Y-69733815D01*
X71184494Y-69654463D01*
X71074180Y-69595498D01*
X70954482Y-69559188D01*
X70840000Y-69547913D01*
X70840000Y-67025061D01*
X82019000Y-67025061D01*
X82019000Y-67228939D01*
X82058774Y-67428898D01*
X82136795Y-67617256D01*
X82250063Y-67786774D01*
X82294000Y-67830711D01*
X82294001Y-75694288D01*
X82250063Y-75738226D01*
X82136795Y-75907744D01*
X82058774Y-76096102D01*
X82019000Y-76296061D01*
X82019000Y-76499939D01*
X82058774Y-76699898D01*
X82136795Y-76888256D01*
X82250063Y-77057774D01*
X82394226Y-77201937D01*
X82563744Y-77315205D01*
X82752102Y-77393226D01*
X82952061Y-77433000D01*
X83155939Y-77433000D01*
X83355898Y-77393226D01*
X83544256Y-77315205D01*
X83713774Y-77201937D01*
X83857937Y-77057774D01*
X83971205Y-76888256D01*
X84049226Y-76699898D01*
X84089000Y-76499939D01*
X84089000Y-76296061D01*
X84049226Y-76096102D01*
X83971205Y-75907744D01*
X83857937Y-75738226D01*
X83814000Y-75694289D01*
X83814000Y-67830711D01*
X83857937Y-67786774D01*
X83971205Y-67617256D01*
X84049226Y-67428898D01*
X84089000Y-67228939D01*
X84089000Y-67025061D01*
X84049226Y-66825102D01*
X83971205Y-66636744D01*
X83857937Y-66467226D01*
X83713774Y-66323063D01*
X83544256Y-66209795D01*
X83355898Y-66131774D01*
X83155939Y-66092000D01*
X82952061Y-66092000D01*
X82752102Y-66131774D01*
X82563744Y-66209795D01*
X82394226Y-66323063D01*
X82250063Y-66467226D01*
X82136795Y-66636744D01*
X82058774Y-66825102D01*
X82019000Y-67025061D01*
X70840000Y-67025061D01*
X70840000Y-60103711D01*
X70903937Y-60039774D01*
X71017205Y-59870256D01*
X71095226Y-59681898D01*
X71135000Y-59481939D01*
X71135000Y-59278061D01*
X71095226Y-59078102D01*
X71017205Y-58889744D01*
X70903937Y-58720226D01*
X70759774Y-58576063D01*
X70590256Y-58462795D01*
X70401898Y-58384774D01*
X70201939Y-58345000D01*
X69998061Y-58345000D01*
X69798102Y-58384774D01*
X69609744Y-58462795D01*
X69440226Y-58576063D01*
X69296063Y-58720226D01*
X69182795Y-58889744D01*
X69104774Y-59078102D01*
X69065000Y-59278061D01*
X69065000Y-59481939D01*
X69104774Y-59681898D01*
X69182795Y-59870256D01*
X69296063Y-60039774D01*
X69320001Y-60063712D01*
X69320000Y-69547913D01*
X69205518Y-69559188D01*
X69085820Y-69595498D01*
X68975506Y-69654463D01*
X68878815Y-69733815D01*
X68830000Y-69793296D01*
X68781185Y-69733815D01*
X68684494Y-69654463D01*
X68574180Y-69595498D01*
X68454482Y-69559188D01*
X68330000Y-69546928D01*
X66830000Y-69546928D01*
X66705518Y-69559188D01*
X66585820Y-69595498D01*
X66475506Y-69654463D01*
X66378815Y-69733815D01*
X66299463Y-69830506D01*
X66240498Y-69940820D01*
X66207379Y-70050000D01*
X65272000Y-70050000D01*
X65272000Y-63385711D01*
X65315937Y-63341774D01*
X65429205Y-63172256D01*
X65507226Y-62983898D01*
X65547000Y-62783939D01*
X65547000Y-62580061D01*
X65507226Y-62380102D01*
X65429205Y-62191744D01*
X65315937Y-62022226D01*
X65171774Y-61878063D01*
X65002256Y-61764795D01*
X64813898Y-61686774D01*
X64613939Y-61647000D01*
X64410061Y-61647000D01*
X64210102Y-61686774D01*
X64021744Y-61764795D01*
X63852226Y-61878063D01*
X63708063Y-62022226D01*
X63594795Y-62191744D01*
X63516774Y-62380102D01*
X63477000Y-62580061D01*
X63477000Y-62783939D01*
X63516774Y-62983898D01*
X63594795Y-63172256D01*
X63708063Y-63341774D01*
X63752000Y-63385711D01*
X63752001Y-70772657D01*
X63748323Y-70810000D01*
X63752001Y-70847343D01*
X63752001Y-71807000D01*
X63648061Y-71807000D01*
X63448102Y-71846774D01*
X63259744Y-71924795D01*
X63090226Y-72038063D01*
X62946063Y-72182226D01*
X62832795Y-72351744D01*
X62754774Y-72540102D01*
X62715000Y-72740061D01*
X62715000Y-72802198D01*
X61309003Y-74208196D01*
X61279999Y-74231999D01*
X61236360Y-74285174D01*
X61185026Y-74347724D01*
X61127685Y-74455000D01*
X61114454Y-74479754D01*
X61070997Y-74623015D01*
X61060000Y-74734668D01*
X61060000Y-74734678D01*
X61056324Y-74772000D01*
X61060000Y-74809322D01*
X61060001Y-83441687D01*
X60841495Y-83587688D01*
X60627688Y-83801495D01*
X60459701Y-84052905D01*
X60343989Y-84332257D01*
X60285000Y-84628816D01*
X56790000Y-84628816D01*
X56790000Y-52727000D01*
X67130000Y-52727000D01*
X67154776Y-52724560D01*
X67178601Y-52717333D01*
X67200557Y-52705597D01*
X67219803Y-52689803D01*
X67235597Y-52670557D01*
X67247333Y-52648601D01*
X67254560Y-52624776D01*
X67257000Y-52600000D01*
X67257000Y-49970000D01*
X70407143Y-49970000D01*
X70407143Y-53790000D01*
X83762857Y-53790000D01*
X83762857Y-49970000D01*
X70407143Y-49970000D01*
X67257000Y-49970000D01*
X67257000Y-42260000D01*
X106803000Y-42260000D01*
X106803000Y-43177539D01*
M02*
