G04 #@! TF.GenerationSoftware,KiCad,Pcbnew,(5.1.0)-1*
G04 #@! TF.CreationDate,2019-05-22T11:13:20+02:00*
G04 #@! TF.ProjectId,USB_Tool,5553425f-546f-46f6-9c2e-6b696361645f,0*
G04 #@! TF.SameCoordinates,Original*
G04 #@! TF.FileFunction,Legend,Bot*
G04 #@! TF.FilePolarity,Positive*
%FSLAX46Y46*%
G04 Gerber Fmt 4.6, Leading zero omitted, Abs format (unit mm)*
G04 Created by KiCad (PCBNEW (5.1.0)-1) date 2019-05-22 11:13:20*
%MOMM*%
%LPD*%
G04 APERTURE LIST*
%ADD10C,0.300000*%
%ADD11C,0.120000*%
%ADD12C,0.150000*%
G04 APERTURE END LIST*
D10*
X82299285Y-42673571D02*
X82299285Y-43887857D01*
X82227857Y-44030714D01*
X82156428Y-44102142D01*
X82013571Y-44173571D01*
X81727857Y-44173571D01*
X81585000Y-44102142D01*
X81513571Y-44030714D01*
X81442142Y-43887857D01*
X81442142Y-42673571D01*
X80799285Y-44102142D02*
X80585000Y-44173571D01*
X80227857Y-44173571D01*
X80085000Y-44102142D01*
X80013571Y-44030714D01*
X79942142Y-43887857D01*
X79942142Y-43745000D01*
X80013571Y-43602142D01*
X80085000Y-43530714D01*
X80227857Y-43459285D01*
X80513571Y-43387857D01*
X80656428Y-43316428D01*
X80727857Y-43245000D01*
X80799285Y-43102142D01*
X80799285Y-42959285D01*
X80727857Y-42816428D01*
X80656428Y-42745000D01*
X80513571Y-42673571D01*
X80156428Y-42673571D01*
X79942142Y-42745000D01*
X78799285Y-43387857D02*
X78585000Y-43459285D01*
X78513571Y-43530714D01*
X78442142Y-43673571D01*
X78442142Y-43887857D01*
X78513571Y-44030714D01*
X78585000Y-44102142D01*
X78727857Y-44173571D01*
X79299285Y-44173571D01*
X79299285Y-42673571D01*
X78799285Y-42673571D01*
X78656428Y-42745000D01*
X78585000Y-42816428D01*
X78513571Y-42959285D01*
X78513571Y-43102142D01*
X78585000Y-43245000D01*
X78656428Y-43316428D01*
X78799285Y-43387857D01*
X79299285Y-43387857D01*
X78156428Y-44316428D02*
X77013571Y-44316428D01*
X76870714Y-42673571D02*
X76013571Y-42673571D01*
X76442142Y-44173571D02*
X76442142Y-42673571D01*
X75227857Y-42673571D02*
X74942142Y-42673571D01*
X74799285Y-42745000D01*
X74656428Y-42887857D01*
X74585000Y-43173571D01*
X74585000Y-43673571D01*
X74656428Y-43959285D01*
X74799285Y-44102142D01*
X74942142Y-44173571D01*
X75227857Y-44173571D01*
X75370714Y-44102142D01*
X75513571Y-43959285D01*
X75585000Y-43673571D01*
X75585000Y-43173571D01*
X75513571Y-42887857D01*
X75370714Y-42745000D01*
X75227857Y-42673571D01*
X73656428Y-42673571D02*
X73370714Y-42673571D01*
X73227857Y-42745000D01*
X73085000Y-42887857D01*
X73013571Y-43173571D01*
X73013571Y-43673571D01*
X73085000Y-43959285D01*
X73227857Y-44102142D01*
X73370714Y-44173571D01*
X73656428Y-44173571D01*
X73799285Y-44102142D01*
X73942142Y-43959285D01*
X74013571Y-43673571D01*
X74013571Y-43173571D01*
X73942142Y-42887857D01*
X73799285Y-42745000D01*
X73656428Y-42673571D01*
X71656428Y-44173571D02*
X72370714Y-44173571D01*
X72370714Y-42673571D01*
X83299285Y-45223571D02*
X83156428Y-45223571D01*
X83013571Y-45295000D01*
X82942142Y-45366428D01*
X82870714Y-45509285D01*
X82799285Y-45795000D01*
X82799285Y-46152142D01*
X82870714Y-46437857D01*
X82942142Y-46580714D01*
X83013571Y-46652142D01*
X83156428Y-46723571D01*
X83299285Y-46723571D01*
X83442142Y-46652142D01*
X83513571Y-46580714D01*
X83585000Y-46437857D01*
X83656428Y-46152142D01*
X83656428Y-45795000D01*
X83585000Y-45509285D01*
X83513571Y-45366428D01*
X83442142Y-45295000D01*
X83299285Y-45223571D01*
X81942142Y-45866428D02*
X82085000Y-45795000D01*
X82156428Y-45723571D01*
X82227857Y-45580714D01*
X82227857Y-45509285D01*
X82156428Y-45366428D01*
X82085000Y-45295000D01*
X81942142Y-45223571D01*
X81656428Y-45223571D01*
X81513571Y-45295000D01*
X81442142Y-45366428D01*
X81370714Y-45509285D01*
X81370714Y-45580714D01*
X81442142Y-45723571D01*
X81513571Y-45795000D01*
X81656428Y-45866428D01*
X81942142Y-45866428D01*
X82085000Y-45937857D01*
X82156428Y-46009285D01*
X82227857Y-46152142D01*
X82227857Y-46437857D01*
X82156428Y-46580714D01*
X82085000Y-46652142D01*
X81942142Y-46723571D01*
X81656428Y-46723571D01*
X81513571Y-46652142D01*
X81442142Y-46580714D01*
X81370714Y-46437857D01*
X81370714Y-46152142D01*
X81442142Y-46009285D01*
X81513571Y-45937857D01*
X81656428Y-45866428D01*
X80727857Y-46580714D02*
X80656428Y-46652142D01*
X80727857Y-46723571D01*
X80799285Y-46652142D01*
X80727857Y-46580714D01*
X80727857Y-46723571D01*
X79727857Y-45223571D02*
X79585000Y-45223571D01*
X79442142Y-45295000D01*
X79370714Y-45366428D01*
X79299285Y-45509285D01*
X79227857Y-45795000D01*
X79227857Y-46152142D01*
X79299285Y-46437857D01*
X79370714Y-46580714D01*
X79442142Y-46652142D01*
X79585000Y-46723571D01*
X79727857Y-46723571D01*
X79870714Y-46652142D01*
X79942142Y-46580714D01*
X80013571Y-46437857D01*
X80085000Y-46152142D01*
X80085000Y-45795000D01*
X80013571Y-45509285D01*
X79942142Y-45366428D01*
X79870714Y-45295000D01*
X79727857Y-45223571D01*
X77870714Y-45223571D02*
X78585000Y-45223571D01*
X78656428Y-45937857D01*
X78585000Y-45866428D01*
X78442142Y-45795000D01*
X78085000Y-45795000D01*
X77942142Y-45866428D01*
X77870714Y-45937857D01*
X77799285Y-46080714D01*
X77799285Y-46437857D01*
X77870714Y-46580714D01*
X77942142Y-46652142D01*
X78085000Y-46723571D01*
X78442142Y-46723571D01*
X78585000Y-46652142D01*
X78656428Y-46580714D01*
X77156428Y-46580714D02*
X77085000Y-46652142D01*
X77156428Y-46723571D01*
X77227857Y-46652142D01*
X77156428Y-46580714D01*
X77156428Y-46723571D01*
X75656428Y-46723571D02*
X76513571Y-46723571D01*
X76085000Y-46723571D02*
X76085000Y-45223571D01*
X76227857Y-45437857D01*
X76370714Y-45580714D01*
X76513571Y-45652142D01*
X74942142Y-46723571D02*
X74656428Y-46723571D01*
X74513571Y-46652142D01*
X74442142Y-46580714D01*
X74299285Y-46366428D01*
X74227857Y-46080714D01*
X74227857Y-45509285D01*
X74299285Y-45366428D01*
X74370714Y-45295000D01*
X74513571Y-45223571D01*
X74799285Y-45223571D01*
X74942142Y-45295000D01*
X75013571Y-45366428D01*
X75085000Y-45509285D01*
X75085000Y-45866428D01*
X75013571Y-46009285D01*
X74942142Y-46080714D01*
X74799285Y-46152142D01*
X74513571Y-46152142D01*
X74370714Y-46080714D01*
X74299285Y-46009285D01*
X74227857Y-45866428D01*
X72585000Y-45723571D02*
X72227857Y-46723571D01*
X71870714Y-45723571D01*
X70513571Y-46723571D02*
X71370714Y-46723571D01*
X70942142Y-46723571D02*
X70942142Y-45223571D01*
X71085000Y-45437857D01*
X71227857Y-45580714D01*
X71370714Y-45652142D01*
X81656428Y-48487857D02*
X81156428Y-48487857D01*
X80942142Y-49273571D02*
X81656428Y-49273571D01*
X81656428Y-47773571D01*
X80942142Y-47773571D01*
X80370714Y-49202142D02*
X80227857Y-49273571D01*
X79942142Y-49273571D01*
X79799285Y-49202142D01*
X79727857Y-49059285D01*
X79727857Y-48987857D01*
X79799285Y-48845000D01*
X79942142Y-48773571D01*
X80156428Y-48773571D01*
X80299285Y-48702142D01*
X80370714Y-48559285D01*
X80370714Y-48487857D01*
X80299285Y-48345000D01*
X80156428Y-48273571D01*
X79942142Y-48273571D01*
X79799285Y-48345000D01*
X79156428Y-49202142D02*
X79013571Y-49273571D01*
X78727857Y-49273571D01*
X78585000Y-49202142D01*
X78513571Y-49059285D01*
X78513571Y-48987857D01*
X78585000Y-48845000D01*
X78727857Y-48773571D01*
X78942142Y-48773571D01*
X79085000Y-48702142D01*
X79156428Y-48559285D01*
X79156428Y-48487857D01*
X79085000Y-48345000D01*
X78942142Y-48273571D01*
X78727857Y-48273571D01*
X78585000Y-48345000D01*
X77299285Y-49202142D02*
X77442142Y-49273571D01*
X77727857Y-49273571D01*
X77870714Y-49202142D01*
X77942142Y-49059285D01*
X77942142Y-48487857D01*
X77870714Y-48345000D01*
X77727857Y-48273571D01*
X77442142Y-48273571D01*
X77299285Y-48345000D01*
X77227857Y-48487857D01*
X77227857Y-48630714D01*
X77942142Y-48773571D01*
X76585000Y-49273571D02*
X76585000Y-48273571D01*
X76585000Y-47773571D02*
X76656428Y-47845000D01*
X76585000Y-47916428D01*
X76513571Y-47845000D01*
X76585000Y-47773571D01*
X76585000Y-47916428D01*
X76013571Y-48273571D02*
X75656428Y-49273571D01*
X75299285Y-48273571D01*
X74085000Y-49273571D02*
X74085000Y-48487857D01*
X74156428Y-48345000D01*
X74299285Y-48273571D01*
X74585000Y-48273571D01*
X74727857Y-48345000D01*
X74085000Y-49202142D02*
X74227857Y-49273571D01*
X74585000Y-49273571D01*
X74727857Y-49202142D01*
X74799285Y-49059285D01*
X74799285Y-48916428D01*
X74727857Y-48773571D01*
X74585000Y-48702142D01*
X74227857Y-48702142D01*
X74085000Y-48630714D01*
X73370714Y-49273571D02*
X73370714Y-47773571D01*
X72513571Y-49273571D01*
X72513571Y-47773571D01*
D11*
X98290000Y-73715000D02*
X98290000Y-71715000D01*
X100330000Y-71715000D02*
X100330000Y-73715000D01*
X78140000Y-75140000D02*
X78140000Y-74140000D01*
X79840000Y-74140000D02*
X79840000Y-75140000D01*
X69330000Y-71660000D02*
X68330000Y-71660000D01*
X68330000Y-69960000D02*
X69330000Y-69960000D01*
X118110000Y-83780000D02*
X118110000Y-85780000D01*
X116070000Y-85780000D02*
X116070000Y-83780000D01*
X76250000Y-85780000D02*
X76250000Y-83780000D01*
X74110000Y-83780000D02*
X74110000Y-85780000D01*
D12*
X100199000Y-67381000D02*
X100199000Y-69159000D01*
X95881000Y-67381000D02*
X100199000Y-67381000D01*
X95881000Y-69159000D02*
X95881000Y-67381000D01*
X100199000Y-69159000D02*
X95881000Y-69159000D01*
D11*
X67220000Y-75520000D02*
X67220000Y-73720000D01*
X70440000Y-73720000D02*
X70440000Y-76170000D01*
X93750000Y-69930000D02*
X97250000Y-69930000D01*
X97250000Y-69930000D02*
X97250000Y-74230000D01*
D12*
X101572142Y-71913333D02*
X101619761Y-71865714D01*
X101667380Y-71722857D01*
X101667380Y-71627619D01*
X101619761Y-71484761D01*
X101524523Y-71389523D01*
X101429285Y-71341904D01*
X101238809Y-71294285D01*
X101095952Y-71294285D01*
X100905476Y-71341904D01*
X100810238Y-71389523D01*
X100715000Y-71484761D01*
X100667380Y-71627619D01*
X100667380Y-71722857D01*
X100715000Y-71865714D01*
X100762619Y-71913333D01*
X100667380Y-72246666D02*
X100667380Y-72865714D01*
X101048333Y-72532380D01*
X101048333Y-72675238D01*
X101095952Y-72770476D01*
X101143571Y-72818095D01*
X101238809Y-72865714D01*
X101476904Y-72865714D01*
X101572142Y-72818095D01*
X101619761Y-72770476D01*
X101667380Y-72675238D01*
X101667380Y-72389523D01*
X101619761Y-72294285D01*
X101572142Y-72246666D01*
X81252142Y-74453333D02*
X81299761Y-74405714D01*
X81347380Y-74262857D01*
X81347380Y-74167619D01*
X81299761Y-74024761D01*
X81204523Y-73929523D01*
X81109285Y-73881904D01*
X80918809Y-73834285D01*
X80775952Y-73834285D01*
X80585476Y-73881904D01*
X80490238Y-73929523D01*
X80395000Y-74024761D01*
X80347380Y-74167619D01*
X80347380Y-74262857D01*
X80395000Y-74405714D01*
X80442619Y-74453333D01*
X80680714Y-75310476D02*
X81347380Y-75310476D01*
X80299761Y-75072380D02*
X81014047Y-74834285D01*
X81014047Y-75453333D01*
X68996666Y-69417142D02*
X69044285Y-69464761D01*
X69187142Y-69512380D01*
X69282380Y-69512380D01*
X69425238Y-69464761D01*
X69520476Y-69369523D01*
X69568095Y-69274285D01*
X69615714Y-69083809D01*
X69615714Y-68940952D01*
X69568095Y-68750476D01*
X69520476Y-68655238D01*
X69425238Y-68560000D01*
X69282380Y-68512380D01*
X69187142Y-68512380D01*
X69044285Y-68560000D01*
X68996666Y-68607619D01*
X68663333Y-68512380D02*
X67996666Y-68512380D01*
X68425238Y-69512380D01*
X115697142Y-84613333D02*
X115744761Y-84565714D01*
X115792380Y-84422857D01*
X115792380Y-84327619D01*
X115744761Y-84184761D01*
X115649523Y-84089523D01*
X115554285Y-84041904D01*
X115363809Y-83994285D01*
X115220952Y-83994285D01*
X115030476Y-84041904D01*
X114935238Y-84089523D01*
X114840000Y-84184761D01*
X114792380Y-84327619D01*
X114792380Y-84422857D01*
X114840000Y-84565714D01*
X114887619Y-84613333D01*
X115220952Y-85184761D02*
X115173333Y-85089523D01*
X115125714Y-85041904D01*
X115030476Y-84994285D01*
X114982857Y-84994285D01*
X114887619Y-85041904D01*
X114840000Y-85089523D01*
X114792380Y-85184761D01*
X114792380Y-85375238D01*
X114840000Y-85470476D01*
X114887619Y-85518095D01*
X114982857Y-85565714D01*
X115030476Y-85565714D01*
X115125714Y-85518095D01*
X115173333Y-85470476D01*
X115220952Y-85375238D01*
X115220952Y-85184761D01*
X115268571Y-85089523D01*
X115316190Y-85041904D01*
X115411428Y-84994285D01*
X115601904Y-84994285D01*
X115697142Y-85041904D01*
X115744761Y-85089523D01*
X115792380Y-85184761D01*
X115792380Y-85375238D01*
X115744761Y-85470476D01*
X115697142Y-85518095D01*
X115601904Y-85565714D01*
X115411428Y-85565714D01*
X115316190Y-85518095D01*
X115268571Y-85470476D01*
X115220952Y-85375238D01*
X77308571Y-84496666D02*
X77308571Y-84163333D01*
X77832380Y-84163333D02*
X76832380Y-84163333D01*
X76832380Y-84639523D01*
X77832380Y-85544285D02*
X77832380Y-84972857D01*
X77832380Y-85258571D02*
X76832380Y-85258571D01*
X76975238Y-85163333D01*
X77070476Y-85068095D01*
X77118095Y-84972857D01*
X98206666Y-66817380D02*
X98540000Y-66341190D01*
X98778095Y-66817380D02*
X98778095Y-65817380D01*
X98397142Y-65817380D01*
X98301904Y-65865000D01*
X98254285Y-65912619D01*
X98206666Y-66007857D01*
X98206666Y-66150714D01*
X98254285Y-66245952D01*
X98301904Y-66293571D01*
X98397142Y-66341190D01*
X98778095Y-66341190D01*
X97873333Y-65817380D02*
X97254285Y-65817380D01*
X97587619Y-66198333D01*
X97444761Y-66198333D01*
X97349523Y-66245952D01*
X97301904Y-66293571D01*
X97254285Y-66388809D01*
X97254285Y-66626904D01*
X97301904Y-66722142D01*
X97349523Y-66769761D01*
X97444761Y-66817380D01*
X97730476Y-66817380D01*
X97825714Y-66769761D01*
X97873333Y-66722142D01*
X71182380Y-73858095D02*
X71991904Y-73858095D01*
X72087142Y-73905714D01*
X72134761Y-73953333D01*
X72182380Y-74048571D01*
X72182380Y-74239047D01*
X72134761Y-74334285D01*
X72087142Y-74381904D01*
X71991904Y-74429523D01*
X71182380Y-74429523D01*
X71277619Y-74858095D02*
X71230000Y-74905714D01*
X71182380Y-75000952D01*
X71182380Y-75239047D01*
X71230000Y-75334285D01*
X71277619Y-75381904D01*
X71372857Y-75429523D01*
X71468095Y-75429523D01*
X71610952Y-75381904D01*
X72182380Y-74810476D01*
X72182380Y-75429523D01*
X92926190Y-71603809D02*
X93402380Y-71603809D01*
X92402380Y-71270476D02*
X92926190Y-71603809D01*
X92402380Y-71937142D01*
X93402380Y-72794285D02*
X93402380Y-72222857D01*
X93402380Y-72508571D02*
X92402380Y-72508571D01*
X92545238Y-72413333D01*
X92640476Y-72318095D01*
X92688095Y-72222857D01*
M02*
