M48
; DRILL file {KiCad (5.1.0)-1} date 28.04.2019 18:34:07
; FORMAT={-:-/ absolute / metric / decimal}
; #@! TF.CreationDate,2019-04-28T18:34:07+02:00
; #@! TF.GenerationSoftware,Kicad,Pcbnew,(5.1.0)-1
; #@! TF.FileFunction,Plated,1,2,PTH
FMAT,2
METRIC
T1C0.400
T2C0.800
T3C1.000
%
G90
G05
T1
X63.75Y-72.842
X64.512Y-62.682
X64.512Y-75.89
X64.512Y-77.668
X67.814Y-78.938
X68.83Y-77.668
X69.846Y-78.938
X69.846Y-98.496
X70.1Y-59.38
X72.894Y-78.938
X75.18Y-96.21
X75.942Y-77.668
X77.466Y-82.748
X80.514Y-73.096
X81.022Y-77.668
X81.53Y-65.73
X85.34Y-108.402
X86.61Y-107.386
X90.928Y-77.414
X91.626Y-105.735
X92.418Y-75.67
X92.452Y-74.366
X92.452Y-78.43
X92.706Y-65.73
X92.706Y-70.048
X92.833Y-106.497
X94.23Y-84.78
X95.373Y-84.055
X97.024Y-77.414
X97.024Y-85.542
X100.326Y-59.38
X100.58Y-108.402
X101.024Y-74.62
X101.024Y-97.734
X101.784Y-73.875
X101.784Y-98.43
X101.85Y-107.386
X102.71Y-73.425
X102.71Y-99.16
X103.12Y-104.592
X104.136Y-51.76
X104.136Y-96.591
X104.39Y-105.608
X104.898Y-86.304
X105.533Y-106.497
X105.623Y-72.975
X105.66Y-51.76
X105.66Y-67.254
X106.358Y-103.576
X106.358Y-105.608
X106.362Y-72.25
X106.676Y-54.3
X106.676Y-62.756
X107.184Y-44.14
X107.184Y-46.68
X107.692Y-56.84
X107.692Y-64.206
X109.216Y-89.606
X109.253Y-63.481
X111.057Y-60.581
X111.459Y-76.11
X112.137Y-67.254
X112.184Y-75.387
X112.709Y-60.581
X112.909Y-76.101
X113.28Y-108.402
X113.597Y-66.492
X113.634Y-76.834
X114.296Y-84.272
X114.296Y-86.05
X114.359Y-64.968
X114.359Y-77.541
X114.55Y-107.386
X115.084Y-76.834
X115.121Y-60.581
X115.809Y-62.031
X115.809Y-76.058
X115.82Y-104.592
X116.534Y-75.325
X116.539Y-61.306
X117.09Y-105.608
X118.233Y-106.497
X120.773Y-62.031
X120.773Y-81.033
X120.9Y-92.4
X120.9Y-96.591
X121.569Y-73.57
X121.599Y-76.843
X122.17Y-83.51
X122.17Y-85.288
X122.297Y-65.73
X122.306Y-76.117
X122.868Y-102.877
X123.031Y-75.392
X123.034Y-64.206
X123.62Y-101.078
X124.05Y-62.784
X124.05Y-75.28
X124.392Y-102.115
X125.98Y-97.734
X125.98Y-108.402
X126.996Y-63.19
X126.996Y-102.306
X127.033Y-83.954
X127.033Y-98.713
X127.25Y-103.83
X127.25Y-107.386
X127.758Y-71.064
X127.758Y-95.448
X128.52Y-72.334
X128.52Y-94.686
X128.52Y-104.592
X129.282Y-73.604
X129.282Y-93.924
X129.79Y-105.608
X130.044Y-74.874
X130.044Y-87.905
X130.806Y-76.144
X130.806Y-87.105
X131.06Y-97.48
X131.06Y-106.497
X131.568Y-56.84
X131.568Y-65.73
X131.568Y-77.414
X131.568Y-86.305
X132.33Y-78.684
X132.33Y-85.542
X133.092Y-51.76
X133.092Y-69.286
X133.092Y-92.4
X133.117Y-59.099
X133.854Y-56.84
X133.854Y-59.856
X133.854Y-68.524
X133.854Y-93.099
X134.579Y-96.183
X134.597Y-67.799
X134.806Y-59.444
X134.806Y-62.047
X135.36Y-67.074
X135.378Y-88.78
X135.95Y-56.84
X135.95Y-61.92
X137.664Y-86.558
X137.664Y-97.48
X139.061Y-79.827
X142.773Y-67.074
X142.818Y-55.697
X143.506Y-54.427
X143.543Y-67.799
X144.268Y-57.094
X144.268Y-69.286
X144.776Y-79.7
X145.03Y-58.11
X145.03Y-68.524
X145.792Y-61.92
X145.792Y-100.02
T2
X73.91Y-75.89
X75.91Y-75.89
T3
X61.82Y-84.78
X65.02Y-84.78
X68.22Y-84.78
X59.94Y-96.21
X59.94Y-98.75
X59.94Y-101.29
X59.94Y-103.83
X59.94Y-106.37
X59.94Y-108.91
X59.94Y-111.45
X59.94Y-113.99
T0
M30
