G04 #@! TF.GenerationSoftware,KiCad,Pcbnew,(5.1.0)-1*
G04 #@! TF.CreationDate,2019-05-22T11:13:20+02:00*
G04 #@! TF.ProjectId,USB_Tool,5553425f-546f-46f6-9c2e-6b696361645f,0*
G04 #@! TF.SameCoordinates,Original*
G04 #@! TF.FileFunction,Soldermask,Top*
G04 #@! TF.FilePolarity,Negative*
%FSLAX46Y46*%
G04 Gerber Fmt 4.6, Leading zero omitted, Abs format (unit mm)*
G04 Created by KiCad (PCBNEW (5.1.0)-1) date 2019-05-22 11:13:20*
%MOMM*%
%LPD*%
G04 APERTURE LIST*
%ADD10C,0.300000*%
%ADD11C,0.100000*%
G04 APERTURE END LIST*
D10*
X70835000Y-54827857D02*
X70335000Y-54827857D01*
X70335000Y-55613571D02*
X70335000Y-54113571D01*
X71049285Y-54113571D01*
X71620714Y-55470714D02*
X71692142Y-55542142D01*
X71620714Y-55613571D01*
X71549285Y-55542142D01*
X71620714Y-55470714D01*
X71620714Y-55613571D01*
X72335000Y-55613571D02*
X72335000Y-54113571D01*
X72835000Y-55185000D01*
X73335000Y-54113571D01*
X73335000Y-55613571D01*
X74692142Y-55613571D02*
X74692142Y-54827857D01*
X74620714Y-54685000D01*
X74477857Y-54613571D01*
X74192142Y-54613571D01*
X74049285Y-54685000D01*
X74692142Y-55542142D02*
X74549285Y-55613571D01*
X74192142Y-55613571D01*
X74049285Y-55542142D01*
X73977857Y-55399285D01*
X73977857Y-55256428D01*
X74049285Y-55113571D01*
X74192142Y-55042142D01*
X74549285Y-55042142D01*
X74692142Y-54970714D01*
X75335000Y-55542142D02*
X75477857Y-55613571D01*
X75763571Y-55613571D01*
X75906428Y-55542142D01*
X75977857Y-55399285D01*
X75977857Y-55327857D01*
X75906428Y-55185000D01*
X75763571Y-55113571D01*
X75549285Y-55113571D01*
X75406428Y-55042142D01*
X75335000Y-54899285D01*
X75335000Y-54827857D01*
X75406428Y-54685000D01*
X75549285Y-54613571D01*
X75763571Y-54613571D01*
X75906428Y-54685000D01*
X76620714Y-55613571D02*
X76620714Y-54113571D01*
X76763571Y-55042142D02*
X77192142Y-55613571D01*
X77192142Y-54613571D02*
X76620714Y-55185000D01*
X78977857Y-55042142D02*
X80120714Y-55042142D01*
X81835000Y-54613571D02*
X82192142Y-55613571D01*
X82549285Y-54613571D01*
X83906428Y-55613571D02*
X83049285Y-55613571D01*
X83477857Y-55613571D02*
X83477857Y-54113571D01*
X83335000Y-54327857D01*
X83192142Y-54470714D01*
X83049285Y-54542142D01*
D11*
G36*
X99781000Y-116951000D02*
G01*
X97679000Y-116951000D01*
X97679000Y-113349000D01*
X99781000Y-113349000D01*
X99781000Y-116951000D01*
X99781000Y-116951000D01*
G37*
G36*
X125181000Y-116951000D02*
G01*
X123079000Y-116951000D01*
X123079000Y-113349000D01*
X125181000Y-113349000D01*
X125181000Y-116951000D01*
X125181000Y-116951000D01*
G37*
G36*
X95741000Y-116951000D02*
G01*
X93639000Y-116951000D01*
X93639000Y-113349000D01*
X95741000Y-113349000D01*
X95741000Y-116951000D01*
X95741000Y-116951000D01*
G37*
G36*
X84541000Y-116951000D02*
G01*
X82439000Y-116951000D01*
X82439000Y-113349000D01*
X84541000Y-113349000D01*
X84541000Y-116951000D01*
X84541000Y-116951000D01*
G37*
G36*
X133881000Y-116951000D02*
G01*
X131779000Y-116951000D01*
X131779000Y-113349000D01*
X133881000Y-113349000D01*
X133881000Y-116951000D01*
X133881000Y-116951000D01*
G37*
G36*
X121181000Y-116951000D02*
G01*
X119079000Y-116951000D01*
X119079000Y-113349000D01*
X121181000Y-113349000D01*
X121181000Y-116951000D01*
X121181000Y-116951000D01*
G37*
G36*
X112481000Y-116951000D02*
G01*
X110379000Y-116951000D01*
X110379000Y-113349000D01*
X112481000Y-113349000D01*
X112481000Y-116951000D01*
X112481000Y-116951000D01*
G37*
G36*
X108481000Y-116951000D02*
G01*
X106379000Y-116951000D01*
X106379000Y-113349000D01*
X108481000Y-113349000D01*
X108481000Y-116951000D01*
X108481000Y-116951000D01*
G37*
G36*
X60050443Y-113095519D02*
G01*
X60116627Y-113102037D01*
X60286466Y-113153557D01*
X60442991Y-113237222D01*
X60478729Y-113266552D01*
X60580186Y-113349814D01*
X60663448Y-113451271D01*
X60692778Y-113487009D01*
X60776443Y-113643534D01*
X60827963Y-113813373D01*
X60845359Y-113990000D01*
X60827963Y-114166627D01*
X60776443Y-114336466D01*
X60692778Y-114492991D01*
X60663448Y-114528729D01*
X60580186Y-114630186D01*
X60478729Y-114713448D01*
X60442991Y-114742778D01*
X60286466Y-114826443D01*
X60116627Y-114877963D01*
X60050442Y-114884482D01*
X59984260Y-114891000D01*
X59895740Y-114891000D01*
X59829558Y-114884482D01*
X59763373Y-114877963D01*
X59593534Y-114826443D01*
X59437009Y-114742778D01*
X59401271Y-114713448D01*
X59299814Y-114630186D01*
X59216552Y-114528729D01*
X59187222Y-114492991D01*
X59103557Y-114336466D01*
X59052037Y-114166627D01*
X59034641Y-113990000D01*
X59052037Y-113813373D01*
X59103557Y-113643534D01*
X59187222Y-113487009D01*
X59216552Y-113451271D01*
X59299814Y-113349814D01*
X59401271Y-113266552D01*
X59437009Y-113237222D01*
X59593534Y-113153557D01*
X59763373Y-113102037D01*
X59829557Y-113095519D01*
X59895740Y-113089000D01*
X59984260Y-113089000D01*
X60050443Y-113095519D01*
X60050443Y-113095519D01*
G37*
G36*
X73578903Y-108343213D02*
G01*
X73801177Y-108387426D01*
X74219932Y-108560880D01*
X74596802Y-108812696D01*
X74917304Y-109133198D01*
X75169120Y-109510068D01*
X75342574Y-109928823D01*
X75431000Y-110373371D01*
X75431000Y-110826629D01*
X75342574Y-111271177D01*
X75169120Y-111689932D01*
X74917304Y-112066802D01*
X74596802Y-112387304D01*
X74219932Y-112639120D01*
X73801177Y-112812574D01*
X73578903Y-112856787D01*
X73356630Y-112901000D01*
X72903370Y-112901000D01*
X72681097Y-112856787D01*
X72458823Y-112812574D01*
X72040068Y-112639120D01*
X71663198Y-112387304D01*
X71342696Y-112066802D01*
X71090880Y-111689932D01*
X70917426Y-111271177D01*
X70829000Y-110826629D01*
X70829000Y-110373371D01*
X70917426Y-109928823D01*
X71090880Y-109510068D01*
X71342696Y-109133198D01*
X71663198Y-108812696D01*
X72040068Y-108560880D01*
X72458823Y-108387426D01*
X72681097Y-108343213D01*
X72903370Y-108299000D01*
X73356630Y-108299000D01*
X73578903Y-108343213D01*
X73578903Y-108343213D01*
G37*
G36*
X141578903Y-108343213D02*
G01*
X141801177Y-108387426D01*
X142219932Y-108560880D01*
X142596802Y-108812696D01*
X142917304Y-109133198D01*
X143169120Y-109510068D01*
X143342574Y-109928823D01*
X143431000Y-110373371D01*
X143431000Y-110826629D01*
X143342574Y-111271177D01*
X143169120Y-111689932D01*
X142917304Y-112066802D01*
X142596802Y-112387304D01*
X142219932Y-112639120D01*
X141801177Y-112812574D01*
X141578903Y-112856787D01*
X141356630Y-112901000D01*
X140903370Y-112901000D01*
X140681097Y-112856787D01*
X140458823Y-112812574D01*
X140040068Y-112639120D01*
X139663198Y-112387304D01*
X139342696Y-112066802D01*
X139090880Y-111689932D01*
X138917426Y-111271177D01*
X138829000Y-110826629D01*
X138829000Y-110373371D01*
X138917426Y-109928823D01*
X139090880Y-109510068D01*
X139342696Y-109133198D01*
X139663198Y-108812696D01*
X140040068Y-108560880D01*
X140458823Y-108387426D01*
X140681097Y-108343213D01*
X140903370Y-108299000D01*
X141356630Y-108299000D01*
X141578903Y-108343213D01*
X141578903Y-108343213D01*
G37*
G36*
X103431000Y-112351000D02*
G01*
X102729000Y-112351000D01*
X102729000Y-109749000D01*
X103431000Y-109749000D01*
X103431000Y-112351000D01*
X103431000Y-112351000D01*
G37*
G36*
X117381000Y-112351000D02*
G01*
X116679000Y-112351000D01*
X116679000Y-109749000D01*
X117381000Y-109749000D01*
X117381000Y-112351000D01*
X117381000Y-112351000D01*
G37*
G36*
X116131000Y-112351000D02*
G01*
X115429000Y-112351000D01*
X115429000Y-109749000D01*
X116131000Y-109749000D01*
X116131000Y-112351000D01*
X116131000Y-112351000D01*
G37*
G36*
X105931000Y-112351000D02*
G01*
X105229000Y-112351000D01*
X105229000Y-109749000D01*
X105931000Y-109749000D01*
X105931000Y-112351000D01*
X105931000Y-112351000D01*
G37*
G36*
X104681000Y-112351000D02*
G01*
X103979000Y-112351000D01*
X103979000Y-109749000D01*
X104681000Y-109749000D01*
X104681000Y-112351000D01*
X104681000Y-112351000D01*
G37*
G36*
X114881000Y-112351000D02*
G01*
X114179000Y-112351000D01*
X114179000Y-109749000D01*
X114881000Y-109749000D01*
X114881000Y-112351000D01*
X114881000Y-112351000D01*
G37*
G36*
X113631000Y-112351000D02*
G01*
X112929000Y-112351000D01*
X112929000Y-109749000D01*
X113631000Y-109749000D01*
X113631000Y-112351000D01*
X113631000Y-112351000D01*
G37*
G36*
X126331000Y-112351000D02*
G01*
X125629000Y-112351000D01*
X125629000Y-109749000D01*
X126331000Y-109749000D01*
X126331000Y-112351000D01*
X126331000Y-112351000D01*
G37*
G36*
X127581000Y-112351000D02*
G01*
X126879000Y-112351000D01*
X126879000Y-109749000D01*
X127581000Y-109749000D01*
X127581000Y-112351000D01*
X127581000Y-112351000D01*
G37*
G36*
X102181000Y-112351000D02*
G01*
X101479000Y-112351000D01*
X101479000Y-109749000D01*
X102181000Y-109749000D01*
X102181000Y-112351000D01*
X102181000Y-112351000D01*
G37*
G36*
X128831000Y-112351000D02*
G01*
X128129000Y-112351000D01*
X128129000Y-109749000D01*
X128831000Y-109749000D01*
X128831000Y-112351000D01*
X128831000Y-112351000D01*
G37*
G36*
X118631000Y-112351000D02*
G01*
X117929000Y-112351000D01*
X117929000Y-109749000D01*
X118631000Y-109749000D01*
X118631000Y-112351000D01*
X118631000Y-112351000D01*
G37*
G36*
X131331000Y-112351000D02*
G01*
X130629000Y-112351000D01*
X130629000Y-109749000D01*
X131331000Y-109749000D01*
X131331000Y-112351000D01*
X131331000Y-112351000D01*
G37*
G36*
X60050443Y-110555519D02*
G01*
X60116627Y-110562037D01*
X60286466Y-110613557D01*
X60442991Y-110697222D01*
X60478729Y-110726552D01*
X60580186Y-110809814D01*
X60663448Y-110911271D01*
X60692778Y-110947009D01*
X60776443Y-111103534D01*
X60827963Y-111273373D01*
X60845359Y-111450000D01*
X60827963Y-111626627D01*
X60776443Y-111796466D01*
X60692778Y-111952991D01*
X60663448Y-111988729D01*
X60580186Y-112090186D01*
X60478729Y-112173448D01*
X60442991Y-112202778D01*
X60286466Y-112286443D01*
X60116627Y-112337963D01*
X60050443Y-112344481D01*
X59984260Y-112351000D01*
X59895740Y-112351000D01*
X59829557Y-112344481D01*
X59763373Y-112337963D01*
X59593534Y-112286443D01*
X59437009Y-112202778D01*
X59401271Y-112173448D01*
X59299814Y-112090186D01*
X59216552Y-111988729D01*
X59187222Y-111952991D01*
X59103557Y-111796466D01*
X59052037Y-111626627D01*
X59034641Y-111450000D01*
X59052037Y-111273373D01*
X59103557Y-111103534D01*
X59187222Y-110947009D01*
X59216552Y-110911271D01*
X59299814Y-110809814D01*
X59401271Y-110726552D01*
X59437009Y-110697222D01*
X59593534Y-110613557D01*
X59763373Y-110562037D01*
X59829557Y-110555519D01*
X59895740Y-110549000D01*
X59984260Y-110549000D01*
X60050443Y-110555519D01*
X60050443Y-110555519D01*
G37*
G36*
X93191000Y-112351000D02*
G01*
X92489000Y-112351000D01*
X92489000Y-109749000D01*
X93191000Y-109749000D01*
X93191000Y-112351000D01*
X93191000Y-112351000D01*
G37*
G36*
X90691000Y-112351000D02*
G01*
X89989000Y-112351000D01*
X89989000Y-109749000D01*
X90691000Y-109749000D01*
X90691000Y-112351000D01*
X90691000Y-112351000D01*
G37*
G36*
X89441000Y-112351000D02*
G01*
X88739000Y-112351000D01*
X88739000Y-109749000D01*
X89441000Y-109749000D01*
X89441000Y-112351000D01*
X89441000Y-112351000D01*
G37*
G36*
X91941000Y-112351000D02*
G01*
X91239000Y-112351000D01*
X91239000Y-109749000D01*
X91941000Y-109749000D01*
X91941000Y-112351000D01*
X91941000Y-112351000D01*
G37*
G36*
X88191000Y-112351000D02*
G01*
X87489000Y-112351000D01*
X87489000Y-109749000D01*
X88191000Y-109749000D01*
X88191000Y-112351000D01*
X88191000Y-112351000D01*
G37*
G36*
X100931000Y-112351000D02*
G01*
X100229000Y-112351000D01*
X100229000Y-109749000D01*
X100931000Y-109749000D01*
X100931000Y-112351000D01*
X100931000Y-112351000D01*
G37*
G36*
X86941000Y-112351000D02*
G01*
X86239000Y-112351000D01*
X86239000Y-109749000D01*
X86941000Y-109749000D01*
X86941000Y-112351000D01*
X86941000Y-112351000D01*
G37*
G36*
X85691000Y-112351000D02*
G01*
X84989000Y-112351000D01*
X84989000Y-109749000D01*
X85691000Y-109749000D01*
X85691000Y-112351000D01*
X85691000Y-112351000D01*
G37*
G36*
X130081000Y-112351000D02*
G01*
X129379000Y-112351000D01*
X129379000Y-109749000D01*
X130081000Y-109749000D01*
X130081000Y-112351000D01*
X130081000Y-112351000D01*
G37*
G36*
X60050442Y-108015518D02*
G01*
X60116627Y-108022037D01*
X60286466Y-108073557D01*
X60442991Y-108157222D01*
X60478729Y-108186552D01*
X60580186Y-108269814D01*
X60663448Y-108371271D01*
X60692778Y-108407009D01*
X60776443Y-108563534D01*
X60827963Y-108733373D01*
X60845359Y-108910000D01*
X60827963Y-109086627D01*
X60776443Y-109256466D01*
X60692778Y-109412991D01*
X60663448Y-109448729D01*
X60580186Y-109550186D01*
X60478729Y-109633448D01*
X60442991Y-109662778D01*
X60286466Y-109746443D01*
X60116627Y-109797963D01*
X60050442Y-109804482D01*
X59984260Y-109811000D01*
X59895740Y-109811000D01*
X59829558Y-109804482D01*
X59763373Y-109797963D01*
X59593534Y-109746443D01*
X59437009Y-109662778D01*
X59401271Y-109633448D01*
X59299814Y-109550186D01*
X59216552Y-109448729D01*
X59187222Y-109412991D01*
X59103557Y-109256466D01*
X59052037Y-109086627D01*
X59034641Y-108910000D01*
X59052037Y-108733373D01*
X59103557Y-108563534D01*
X59187222Y-108407009D01*
X59216552Y-108371271D01*
X59299814Y-108269814D01*
X59401271Y-108186552D01*
X59437009Y-108157222D01*
X59593534Y-108073557D01*
X59763373Y-108022037D01*
X59829558Y-108015518D01*
X59895740Y-108009000D01*
X59984260Y-108009000D01*
X60050442Y-108015518D01*
X60050442Y-108015518D01*
G37*
G36*
X154341000Y-109271000D02*
G01*
X150739000Y-109271000D01*
X150739000Y-107169000D01*
X154341000Y-107169000D01*
X154341000Y-109271000D01*
X154341000Y-109271000D01*
G37*
G36*
X60050442Y-105475518D02*
G01*
X60116627Y-105482037D01*
X60286466Y-105533557D01*
X60442991Y-105617222D01*
X60478729Y-105646552D01*
X60580186Y-105729814D01*
X60663448Y-105831271D01*
X60692778Y-105867009D01*
X60776443Y-106023534D01*
X60827963Y-106193373D01*
X60845359Y-106370000D01*
X60827963Y-106546627D01*
X60776443Y-106716466D01*
X60692778Y-106872991D01*
X60663448Y-106908729D01*
X60580186Y-107010186D01*
X60478729Y-107093448D01*
X60442991Y-107122778D01*
X60286466Y-107206443D01*
X60116627Y-107257963D01*
X60050443Y-107264481D01*
X59984260Y-107271000D01*
X59895740Y-107271000D01*
X59829557Y-107264481D01*
X59763373Y-107257963D01*
X59593534Y-107206443D01*
X59437009Y-107122778D01*
X59401271Y-107093448D01*
X59299814Y-107010186D01*
X59216552Y-106908729D01*
X59187222Y-106872991D01*
X59103557Y-106716466D01*
X59052037Y-106546627D01*
X59034641Y-106370000D01*
X59052037Y-106193373D01*
X59103557Y-106023534D01*
X59187222Y-105867009D01*
X59216552Y-105831271D01*
X59299814Y-105729814D01*
X59401271Y-105646552D01*
X59437009Y-105617222D01*
X59593534Y-105533557D01*
X59763373Y-105482037D01*
X59829557Y-105475519D01*
X59895740Y-105469000D01*
X59984260Y-105469000D01*
X60050442Y-105475518D01*
X60050442Y-105475518D01*
G37*
G36*
X149741000Y-106721000D02*
G01*
X147139000Y-106721000D01*
X147139000Y-106019000D01*
X149741000Y-106019000D01*
X149741000Y-106721000D01*
X149741000Y-106721000D01*
G37*
G36*
X149741000Y-105471000D02*
G01*
X147139000Y-105471000D01*
X147139000Y-104769000D01*
X149741000Y-104769000D01*
X149741000Y-105471000D01*
X149741000Y-105471000D01*
G37*
G36*
X60050443Y-102935519D02*
G01*
X60116627Y-102942037D01*
X60286466Y-102993557D01*
X60442991Y-103077222D01*
X60478729Y-103106552D01*
X60580186Y-103189814D01*
X60663448Y-103291271D01*
X60692778Y-103327009D01*
X60776443Y-103483534D01*
X60827963Y-103653373D01*
X60845359Y-103830000D01*
X60827963Y-104006627D01*
X60776443Y-104176466D01*
X60692778Y-104332991D01*
X60663448Y-104368729D01*
X60580186Y-104470186D01*
X60478729Y-104553448D01*
X60442991Y-104582778D01*
X60286466Y-104666443D01*
X60116627Y-104717963D01*
X60050443Y-104724481D01*
X59984260Y-104731000D01*
X59895740Y-104731000D01*
X59829557Y-104724481D01*
X59763373Y-104717963D01*
X59593534Y-104666443D01*
X59437009Y-104582778D01*
X59401271Y-104553448D01*
X59299814Y-104470186D01*
X59216552Y-104368729D01*
X59187222Y-104332991D01*
X59103557Y-104176466D01*
X59052037Y-104006627D01*
X59034641Y-103830000D01*
X59052037Y-103653373D01*
X59103557Y-103483534D01*
X59187222Y-103327009D01*
X59216552Y-103291271D01*
X59299814Y-103189814D01*
X59401271Y-103106552D01*
X59437009Y-103077222D01*
X59593534Y-102993557D01*
X59763373Y-102942037D01*
X59829558Y-102935518D01*
X59895740Y-102929000D01*
X59984260Y-102929000D01*
X60050443Y-102935519D01*
X60050443Y-102935519D01*
G37*
G36*
X149741000Y-104221000D02*
G01*
X147139000Y-104221000D01*
X147139000Y-103519000D01*
X149741000Y-103519000D01*
X149741000Y-104221000D01*
X149741000Y-104221000D01*
G37*
G36*
X149741000Y-102971000D02*
G01*
X147139000Y-102971000D01*
X147139000Y-102269000D01*
X149741000Y-102269000D01*
X149741000Y-102971000D01*
X149741000Y-102971000D01*
G37*
G36*
X60050442Y-100395518D02*
G01*
X60116627Y-100402037D01*
X60286466Y-100453557D01*
X60442991Y-100537222D01*
X60478729Y-100566552D01*
X60580186Y-100649814D01*
X60663448Y-100751271D01*
X60692778Y-100787009D01*
X60776443Y-100943534D01*
X60827963Y-101113373D01*
X60845359Y-101290000D01*
X60827963Y-101466627D01*
X60776443Y-101636466D01*
X60692778Y-101792991D01*
X60663448Y-101828729D01*
X60580186Y-101930186D01*
X60478729Y-102013448D01*
X60442991Y-102042778D01*
X60286466Y-102126443D01*
X60116627Y-102177963D01*
X60050443Y-102184481D01*
X59984260Y-102191000D01*
X59895740Y-102191000D01*
X59829557Y-102184481D01*
X59763373Y-102177963D01*
X59593534Y-102126443D01*
X59437009Y-102042778D01*
X59401271Y-102013448D01*
X59299814Y-101930186D01*
X59216552Y-101828729D01*
X59187222Y-101792991D01*
X59103557Y-101636466D01*
X59052037Y-101466627D01*
X59034641Y-101290000D01*
X59052037Y-101113373D01*
X59103557Y-100943534D01*
X59187222Y-100787009D01*
X59216552Y-100751271D01*
X59299814Y-100649814D01*
X59401271Y-100566552D01*
X59437009Y-100537222D01*
X59593534Y-100453557D01*
X59763373Y-100402037D01*
X59829558Y-100395518D01*
X59895740Y-100389000D01*
X59984260Y-100389000D01*
X60050442Y-100395518D01*
X60050442Y-100395518D01*
G37*
G36*
X149741000Y-101721000D02*
G01*
X147139000Y-101721000D01*
X147139000Y-101019000D01*
X149741000Y-101019000D01*
X149741000Y-101721000D01*
X149741000Y-101721000D01*
G37*
G36*
X149741000Y-100471000D02*
G01*
X147139000Y-100471000D01*
X147139000Y-99769000D01*
X149741000Y-99769000D01*
X149741000Y-100471000D01*
X149741000Y-100471000D01*
G37*
G36*
X60050443Y-97855519D02*
G01*
X60116627Y-97862037D01*
X60286466Y-97913557D01*
X60442991Y-97997222D01*
X60478729Y-98026552D01*
X60580186Y-98109814D01*
X60663448Y-98211271D01*
X60692778Y-98247009D01*
X60776443Y-98403534D01*
X60827963Y-98573373D01*
X60845359Y-98750000D01*
X60827963Y-98926627D01*
X60776443Y-99096466D01*
X60692778Y-99252991D01*
X60663448Y-99288729D01*
X60580186Y-99390186D01*
X60478729Y-99473448D01*
X60442991Y-99502778D01*
X60286466Y-99586443D01*
X60116627Y-99637963D01*
X60050443Y-99644481D01*
X59984260Y-99651000D01*
X59895740Y-99651000D01*
X59829557Y-99644481D01*
X59763373Y-99637963D01*
X59593534Y-99586443D01*
X59437009Y-99502778D01*
X59401271Y-99473448D01*
X59299814Y-99390186D01*
X59216552Y-99288729D01*
X59187222Y-99252991D01*
X59103557Y-99096466D01*
X59052037Y-98926627D01*
X59034641Y-98750000D01*
X59052037Y-98573373D01*
X59103557Y-98403534D01*
X59187222Y-98247009D01*
X59216552Y-98211271D01*
X59299814Y-98109814D01*
X59401271Y-98026552D01*
X59437009Y-97997222D01*
X59593534Y-97913557D01*
X59763373Y-97862037D01*
X59829557Y-97855519D01*
X59895740Y-97849000D01*
X59984260Y-97849000D01*
X60050443Y-97855519D01*
X60050443Y-97855519D01*
G37*
G36*
X149741000Y-99221000D02*
G01*
X147139000Y-99221000D01*
X147139000Y-98519000D01*
X149741000Y-98519000D01*
X149741000Y-99221000D01*
X149741000Y-99221000D01*
G37*
G36*
X149741000Y-97971000D02*
G01*
X147139000Y-97971000D01*
X147139000Y-97269000D01*
X149741000Y-97269000D01*
X149741000Y-97971000D01*
X149741000Y-97971000D01*
G37*
G36*
X60841000Y-97111000D02*
G01*
X59039000Y-97111000D01*
X59039000Y-95309000D01*
X60841000Y-95309000D01*
X60841000Y-97111000D01*
X60841000Y-97111000D01*
G37*
G36*
X154341000Y-96821000D02*
G01*
X150739000Y-96821000D01*
X150739000Y-94719000D01*
X154341000Y-94719000D01*
X154341000Y-96821000D01*
X154341000Y-96821000D01*
G37*
G36*
X68041000Y-96761000D02*
G01*
X66639000Y-96761000D01*
X66639000Y-95659000D01*
X68041000Y-95659000D01*
X68041000Y-96761000D01*
X68041000Y-96761000D01*
G37*
G36*
X65941000Y-96761000D02*
G01*
X64539000Y-96761000D01*
X64539000Y-95659000D01*
X65941000Y-95659000D01*
X65941000Y-96761000D01*
X65941000Y-96761000D01*
G37*
G36*
X84971000Y-95841000D02*
G01*
X83169000Y-95841000D01*
X83169000Y-94039000D01*
X84971000Y-94039000D01*
X84971000Y-95841000D01*
X84971000Y-95841000D01*
G37*
G36*
X79100442Y-94045518D02*
G01*
X79166627Y-94052037D01*
X79336466Y-94103557D01*
X79492991Y-94187222D01*
X79528729Y-94216552D01*
X79630186Y-94299814D01*
X79713448Y-94401271D01*
X79742778Y-94437009D01*
X79826443Y-94593534D01*
X79877963Y-94763373D01*
X79895359Y-94940000D01*
X79877963Y-95116627D01*
X79826443Y-95286466D01*
X79742778Y-95442991D01*
X79713448Y-95478729D01*
X79630186Y-95580186D01*
X79534149Y-95659000D01*
X79492991Y-95692778D01*
X79336466Y-95776443D01*
X79166627Y-95827963D01*
X79100442Y-95834482D01*
X79034260Y-95841000D01*
X78945740Y-95841000D01*
X78879558Y-95834482D01*
X78813373Y-95827963D01*
X78643534Y-95776443D01*
X78487009Y-95692778D01*
X78445851Y-95659000D01*
X78349814Y-95580186D01*
X78266552Y-95478729D01*
X78237222Y-95442991D01*
X78153557Y-95286466D01*
X78102037Y-95116627D01*
X78084641Y-94940000D01*
X78102037Y-94763373D01*
X78153557Y-94593534D01*
X78237222Y-94437009D01*
X78266552Y-94401271D01*
X78349814Y-94299814D01*
X78451271Y-94216552D01*
X78487009Y-94187222D01*
X78643534Y-94103557D01*
X78813373Y-94052037D01*
X78879558Y-94045518D01*
X78945740Y-94039000D01*
X79034260Y-94039000D01*
X79100442Y-94045518D01*
X79100442Y-94045518D01*
G37*
G36*
X81640442Y-94045518D02*
G01*
X81706627Y-94052037D01*
X81876466Y-94103557D01*
X82032991Y-94187222D01*
X82068729Y-94216552D01*
X82170186Y-94299814D01*
X82253448Y-94401271D01*
X82282778Y-94437009D01*
X82366443Y-94593534D01*
X82417963Y-94763373D01*
X82435359Y-94940000D01*
X82417963Y-95116627D01*
X82366443Y-95286466D01*
X82282778Y-95442991D01*
X82253448Y-95478729D01*
X82170186Y-95580186D01*
X82074149Y-95659000D01*
X82032991Y-95692778D01*
X81876466Y-95776443D01*
X81706627Y-95827963D01*
X81640442Y-95834482D01*
X81574260Y-95841000D01*
X81485740Y-95841000D01*
X81419558Y-95834482D01*
X81353373Y-95827963D01*
X81183534Y-95776443D01*
X81027009Y-95692778D01*
X80985851Y-95659000D01*
X80889814Y-95580186D01*
X80806552Y-95478729D01*
X80777222Y-95442991D01*
X80693557Y-95286466D01*
X80642037Y-95116627D01*
X80624641Y-94940000D01*
X80642037Y-94763373D01*
X80693557Y-94593534D01*
X80777222Y-94437009D01*
X80806552Y-94401271D01*
X80889814Y-94299814D01*
X80991271Y-94216552D01*
X81027009Y-94187222D01*
X81183534Y-94103557D01*
X81353373Y-94052037D01*
X81419558Y-94045518D01*
X81485740Y-94039000D01*
X81574260Y-94039000D01*
X81640442Y-94045518D01*
X81640442Y-94045518D01*
G37*
G36*
X154341000Y-92616000D02*
G01*
X150739000Y-92616000D01*
X150739000Y-90514000D01*
X154341000Y-90514000D01*
X154341000Y-92616000D01*
X154341000Y-92616000D01*
G37*
G36*
X122686000Y-91281000D02*
G01*
X114034000Y-91281000D01*
X114034000Y-89679000D01*
X122686000Y-89679000D01*
X122686000Y-91281000D01*
X122686000Y-91281000D01*
G37*
G36*
X149741000Y-89566000D02*
G01*
X147139000Y-89566000D01*
X147139000Y-88864000D01*
X149741000Y-88864000D01*
X149741000Y-89566000D01*
X149741000Y-89566000D01*
G37*
G36*
X90071000Y-89141000D02*
G01*
X88669000Y-89141000D01*
X88669000Y-88039000D01*
X90071000Y-88039000D01*
X90071000Y-89141000D01*
X90071000Y-89141000D01*
G37*
G36*
X92171000Y-89141000D02*
G01*
X90769000Y-89141000D01*
X90769000Y-88039000D01*
X92171000Y-88039000D01*
X92171000Y-89141000D01*
X92171000Y-89141000D01*
G37*
G36*
X113461000Y-89106000D02*
G01*
X111859000Y-89106000D01*
X111859000Y-80454000D01*
X113461000Y-80454000D01*
X113461000Y-89106000D01*
X113461000Y-89106000D01*
G37*
G36*
X124861000Y-89106000D02*
G01*
X123259000Y-89106000D01*
X123259000Y-80454000D01*
X124861000Y-80454000D01*
X124861000Y-89106000D01*
X124861000Y-89106000D01*
G37*
G36*
X149741000Y-88316000D02*
G01*
X147139000Y-88316000D01*
X147139000Y-87614000D01*
X149741000Y-87614000D01*
X149741000Y-88316000D01*
X149741000Y-88316000D01*
G37*
G36*
X85521000Y-87631000D02*
G01*
X84519000Y-87631000D01*
X84519000Y-85529000D01*
X85521000Y-85529000D01*
X85521000Y-87631000D01*
X85521000Y-87631000D01*
G37*
G36*
X83621000Y-87631000D02*
G01*
X82619000Y-87631000D01*
X82619000Y-85529000D01*
X83621000Y-85529000D01*
X83621000Y-87631000D01*
X83621000Y-87631000D01*
G37*
G36*
X154341000Y-86666000D02*
G01*
X150739000Y-86666000D01*
X150739000Y-84564000D01*
X154341000Y-84564000D01*
X154341000Y-86666000D01*
X154341000Y-86666000D01*
G37*
G36*
X90071000Y-86601000D02*
G01*
X88669000Y-86601000D01*
X88669000Y-85499000D01*
X90071000Y-85499000D01*
X90071000Y-86601000D01*
X90071000Y-86601000D01*
G37*
G36*
X92171000Y-86601000D02*
G01*
X90769000Y-86601000D01*
X90769000Y-85499000D01*
X92171000Y-85499000D01*
X92171000Y-86601000D01*
X92171000Y-86601000D01*
G37*
G36*
X62097395Y-83865546D02*
G01*
X62270466Y-83937234D01*
X62270467Y-83937235D01*
X62426227Y-84041310D01*
X62558690Y-84173773D01*
X62558691Y-84173775D01*
X62662766Y-84329534D01*
X62734454Y-84502605D01*
X62771000Y-84686333D01*
X62771000Y-84873667D01*
X62734454Y-85057395D01*
X62662766Y-85230466D01*
X62662765Y-85230467D01*
X62558690Y-85386227D01*
X62426227Y-85518690D01*
X62410797Y-85529000D01*
X62270466Y-85622766D01*
X62097395Y-85694454D01*
X61913667Y-85731000D01*
X61726333Y-85731000D01*
X61542605Y-85694454D01*
X61369534Y-85622766D01*
X61229203Y-85529000D01*
X61213773Y-85518690D01*
X61081310Y-85386227D01*
X60977235Y-85230467D01*
X60977234Y-85230466D01*
X60905546Y-85057395D01*
X60869000Y-84873667D01*
X60869000Y-84686333D01*
X60905546Y-84502605D01*
X60977234Y-84329534D01*
X61081309Y-84173775D01*
X61081310Y-84173773D01*
X61213773Y-84041310D01*
X61369533Y-83937235D01*
X61369534Y-83937234D01*
X61542605Y-83865546D01*
X61726333Y-83829000D01*
X61913667Y-83829000D01*
X62097395Y-83865546D01*
X62097395Y-83865546D01*
G37*
G36*
X65297395Y-83865546D02*
G01*
X65470466Y-83937234D01*
X65470467Y-83937235D01*
X65626227Y-84041310D01*
X65758690Y-84173773D01*
X65758691Y-84173775D01*
X65862766Y-84329534D01*
X65934454Y-84502605D01*
X65971000Y-84686333D01*
X65971000Y-84873667D01*
X65934454Y-85057395D01*
X65862766Y-85230466D01*
X65862765Y-85230467D01*
X65758690Y-85386227D01*
X65626227Y-85518690D01*
X65610797Y-85529000D01*
X65470466Y-85622766D01*
X65297395Y-85694454D01*
X65113667Y-85731000D01*
X64926333Y-85731000D01*
X64742605Y-85694454D01*
X64569534Y-85622766D01*
X64429203Y-85529000D01*
X64413773Y-85518690D01*
X64281310Y-85386227D01*
X64177235Y-85230467D01*
X64177234Y-85230466D01*
X64105546Y-85057395D01*
X64069000Y-84873667D01*
X64069000Y-84686333D01*
X64105546Y-84502605D01*
X64177234Y-84329534D01*
X64281309Y-84173775D01*
X64281310Y-84173773D01*
X64413773Y-84041310D01*
X64569533Y-83937235D01*
X64569534Y-83937234D01*
X64742605Y-83865546D01*
X64926333Y-83829000D01*
X65113667Y-83829000D01*
X65297395Y-83865546D01*
X65297395Y-83865546D01*
G37*
G36*
X68497395Y-83865546D02*
G01*
X68670466Y-83937234D01*
X68670467Y-83937235D01*
X68826227Y-84041310D01*
X68958690Y-84173773D01*
X68958691Y-84173775D01*
X69062766Y-84329534D01*
X69134454Y-84502605D01*
X69171000Y-84686333D01*
X69171000Y-84873667D01*
X69134454Y-85057395D01*
X69062766Y-85230466D01*
X69062765Y-85230467D01*
X68958690Y-85386227D01*
X68826227Y-85518690D01*
X68810797Y-85529000D01*
X68670466Y-85622766D01*
X68497395Y-85694454D01*
X68313667Y-85731000D01*
X68126333Y-85731000D01*
X67942605Y-85694454D01*
X67769534Y-85622766D01*
X67629203Y-85529000D01*
X67613773Y-85518690D01*
X67481310Y-85386227D01*
X67377235Y-85230467D01*
X67377234Y-85230466D01*
X67305546Y-85057395D01*
X67269000Y-84873667D01*
X67269000Y-84686333D01*
X67305546Y-84502605D01*
X67377234Y-84329534D01*
X67481309Y-84173775D01*
X67481310Y-84173773D01*
X67613773Y-84041310D01*
X67769533Y-83937235D01*
X67769534Y-83937234D01*
X67942605Y-83865546D01*
X68126333Y-83829000D01*
X68313667Y-83829000D01*
X68497395Y-83865546D01*
X68497395Y-83865546D01*
G37*
G36*
X143001000Y-85631000D02*
G01*
X140899000Y-85631000D01*
X140899000Y-83929000D01*
X143001000Y-83929000D01*
X143001000Y-85631000D01*
X143001000Y-85631000D01*
G37*
G36*
X139001000Y-85631000D02*
G01*
X136899000Y-85631000D01*
X136899000Y-83929000D01*
X139001000Y-83929000D01*
X139001000Y-85631000D01*
X139001000Y-85631000D01*
G37*
G36*
X90071000Y-84061000D02*
G01*
X88669000Y-84061000D01*
X88669000Y-82959000D01*
X90071000Y-82959000D01*
X90071000Y-84061000D01*
X90071000Y-84061000D01*
G37*
G36*
X92171000Y-84061000D02*
G01*
X90769000Y-84061000D01*
X90769000Y-82959000D01*
X92171000Y-82959000D01*
X92171000Y-84061000D01*
X92171000Y-84061000D01*
G37*
G36*
X83621000Y-84031000D02*
G01*
X82619000Y-84031000D01*
X82619000Y-81929000D01*
X83621000Y-81929000D01*
X83621000Y-84031000D01*
X83621000Y-84031000D01*
G37*
G36*
X85521000Y-84031000D02*
G01*
X84519000Y-84031000D01*
X84519000Y-81929000D01*
X85521000Y-81929000D01*
X85521000Y-84031000D01*
X85521000Y-84031000D01*
G37*
G36*
X154341000Y-82601000D02*
G01*
X150739000Y-82601000D01*
X150739000Y-80499000D01*
X154341000Y-80499000D01*
X154341000Y-82601000D01*
X154341000Y-82601000D01*
G37*
G36*
X138051000Y-80178000D02*
G01*
X136449000Y-80178000D01*
X136449000Y-79476000D01*
X138051000Y-79476000D01*
X138051000Y-80178000D01*
X138051000Y-80178000D01*
G37*
G36*
X143451000Y-80178000D02*
G01*
X141849000Y-80178000D01*
X141849000Y-79476000D01*
X143451000Y-79476000D01*
X143451000Y-80178000D01*
X143451000Y-80178000D01*
G37*
G36*
X59671000Y-80151000D02*
G01*
X57669000Y-80151000D01*
X57669000Y-77049000D01*
X59671000Y-77049000D01*
X59671000Y-80151000D01*
X59671000Y-80151000D01*
G37*
G36*
X149741000Y-80051000D02*
G01*
X147139000Y-80051000D01*
X147139000Y-79349000D01*
X149741000Y-79349000D01*
X149741000Y-80051000D01*
X149741000Y-80051000D01*
G37*
G36*
X122686000Y-79881000D02*
G01*
X114034000Y-79881000D01*
X114034000Y-78279000D01*
X122686000Y-78279000D01*
X122686000Y-79881000D01*
X122686000Y-79881000D01*
G37*
G36*
X88661000Y-79106000D02*
G01*
X87059000Y-79106000D01*
X87059000Y-77754000D01*
X88661000Y-77754000D01*
X88661000Y-79106000D01*
X88661000Y-79106000D01*
G37*
G36*
X86161000Y-79106000D02*
G01*
X84559000Y-79106000D01*
X84559000Y-77754000D01*
X86161000Y-77754000D01*
X86161000Y-79106000D01*
X86161000Y-79106000D01*
G37*
G36*
X143451000Y-78908000D02*
G01*
X141849000Y-78908000D01*
X141849000Y-78206000D01*
X143451000Y-78206000D01*
X143451000Y-78908000D01*
X143451000Y-78908000D01*
G37*
G36*
X138051000Y-78908000D02*
G01*
X136449000Y-78908000D01*
X136449000Y-78206000D01*
X138051000Y-78206000D01*
X138051000Y-78908000D01*
X138051000Y-78908000D01*
G37*
G36*
X149741000Y-78801000D02*
G01*
X147139000Y-78801000D01*
X147139000Y-78099000D01*
X149741000Y-78099000D01*
X149741000Y-78801000D01*
X149741000Y-78801000D01*
G37*
G36*
X143451000Y-77638000D02*
G01*
X141849000Y-77638000D01*
X141849000Y-76936000D01*
X143451000Y-76936000D01*
X143451000Y-77638000D01*
X143451000Y-77638000D01*
G37*
G36*
X138051000Y-77638000D02*
G01*
X136449000Y-77638000D01*
X136449000Y-76936000D01*
X138051000Y-76936000D01*
X138051000Y-77638000D01*
X138051000Y-77638000D01*
G37*
G36*
X149741000Y-77551000D02*
G01*
X147139000Y-77551000D01*
X147139000Y-76849000D01*
X149741000Y-76849000D01*
X149741000Y-77551000D01*
X149741000Y-77551000D01*
G37*
G36*
X76158228Y-75071703D02*
G01*
X76313100Y-75135853D01*
X76452481Y-75228985D01*
X76571015Y-75347519D01*
X76664147Y-75486900D01*
X76728297Y-75641772D01*
X76761000Y-75806184D01*
X76761000Y-75973816D01*
X76728297Y-76138228D01*
X76664147Y-76293100D01*
X76571015Y-76432481D01*
X76452481Y-76551015D01*
X76313100Y-76644147D01*
X76158228Y-76708297D01*
X75993816Y-76741000D01*
X75826184Y-76741000D01*
X75661772Y-76708297D01*
X75506900Y-76644147D01*
X75367519Y-76551015D01*
X75248985Y-76432481D01*
X75155853Y-76293100D01*
X75091703Y-76138228D01*
X75059000Y-75973816D01*
X75059000Y-75806184D01*
X75091703Y-75641772D01*
X75155853Y-75486900D01*
X75248985Y-75347519D01*
X75367519Y-75228985D01*
X75506900Y-75135853D01*
X75661772Y-75071703D01*
X75826184Y-75039000D01*
X75993816Y-75039000D01*
X76158228Y-75071703D01*
X76158228Y-75071703D01*
G37*
G36*
X74761000Y-76741000D02*
G01*
X73059000Y-76741000D01*
X73059000Y-75039000D01*
X74761000Y-75039000D01*
X74761000Y-76741000D01*
X74761000Y-76741000D01*
G37*
G36*
X59671000Y-76601000D02*
G01*
X57669000Y-76601000D01*
X57669000Y-74699000D01*
X59671000Y-74699000D01*
X59671000Y-76601000D01*
X59671000Y-76601000D01*
G37*
G36*
X96051000Y-76371000D02*
G01*
X94949000Y-76371000D01*
X94949000Y-74969000D01*
X96051000Y-74969000D01*
X96051000Y-76371000D01*
X96051000Y-76371000D01*
G37*
G36*
X143451000Y-76368000D02*
G01*
X141849000Y-76368000D01*
X141849000Y-75666000D01*
X143451000Y-75666000D01*
X143451000Y-76368000D01*
X143451000Y-76368000D01*
G37*
G36*
X138051000Y-76368000D02*
G01*
X136449000Y-76368000D01*
X136449000Y-75666000D01*
X138051000Y-75666000D01*
X138051000Y-76368000D01*
X138051000Y-76368000D01*
G37*
G36*
X149741000Y-76301000D02*
G01*
X147139000Y-76301000D01*
X147139000Y-75599000D01*
X149741000Y-75599000D01*
X149741000Y-76301000D01*
X149741000Y-76301000D01*
G37*
G36*
X62921000Y-76076000D02*
G01*
X60619000Y-76076000D01*
X60619000Y-72924000D01*
X62921000Y-72924000D01*
X62921000Y-76076000D01*
X62921000Y-76076000D01*
G37*
G36*
X91136000Y-75281000D02*
G01*
X89284000Y-75281000D01*
X89284000Y-68879000D01*
X91136000Y-68879000D01*
X91136000Y-75281000D01*
X91136000Y-75281000D01*
G37*
G36*
X83936000Y-75281000D02*
G01*
X82084000Y-75281000D01*
X82084000Y-68879000D01*
X83936000Y-68879000D01*
X83936000Y-75281000D01*
X83936000Y-75281000D01*
G37*
G36*
X143451000Y-75098000D02*
G01*
X141849000Y-75098000D01*
X141849000Y-74396000D01*
X143451000Y-74396000D01*
X143451000Y-75098000D01*
X143451000Y-75098000D01*
G37*
G36*
X138051000Y-75098000D02*
G01*
X136449000Y-75098000D01*
X136449000Y-74396000D01*
X138051000Y-74396000D01*
X138051000Y-75098000D01*
X138051000Y-75098000D01*
G37*
G36*
X149741000Y-75051000D02*
G01*
X147139000Y-75051000D01*
X147139000Y-74349000D01*
X149741000Y-74349000D01*
X149741000Y-75051000D01*
X149741000Y-75051000D01*
G37*
G36*
X59671000Y-74301000D02*
G01*
X57669000Y-74301000D01*
X57669000Y-72399000D01*
X59671000Y-72399000D01*
X59671000Y-74301000D01*
X59671000Y-74301000D01*
G37*
G36*
X96051000Y-74271000D02*
G01*
X94949000Y-74271000D01*
X94949000Y-72869000D01*
X96051000Y-72869000D01*
X96051000Y-74271000D01*
X96051000Y-74271000D01*
G37*
G36*
X138051000Y-73828000D02*
G01*
X136449000Y-73828000D01*
X136449000Y-73126000D01*
X138051000Y-73126000D01*
X138051000Y-73828000D01*
X138051000Y-73828000D01*
G37*
G36*
X143451000Y-73828000D02*
G01*
X141849000Y-73828000D01*
X141849000Y-73126000D01*
X143451000Y-73126000D01*
X143451000Y-73828000D01*
X143451000Y-73828000D01*
G37*
G36*
X149741000Y-73801000D02*
G01*
X147139000Y-73801000D01*
X147139000Y-73099000D01*
X149741000Y-73099000D01*
X149741000Y-73801000D01*
X149741000Y-73801000D01*
G37*
G36*
X143451000Y-72558000D02*
G01*
X141849000Y-72558000D01*
X141849000Y-71856000D01*
X143451000Y-71856000D01*
X143451000Y-72558000D01*
X143451000Y-72558000D01*
G37*
G36*
X138051000Y-72558000D02*
G01*
X136449000Y-72558000D01*
X136449000Y-71856000D01*
X138051000Y-71856000D01*
X138051000Y-72558000D01*
X138051000Y-72558000D01*
G37*
G36*
X149741000Y-72551000D02*
G01*
X147139000Y-72551000D01*
X147139000Y-71849000D01*
X149741000Y-71849000D01*
X149741000Y-72551000D01*
X149741000Y-72551000D01*
G37*
G36*
X59671000Y-71951000D02*
G01*
X57669000Y-71951000D01*
X57669000Y-68849000D01*
X59671000Y-68849000D01*
X59671000Y-71951000D01*
X59671000Y-71951000D01*
G37*
G36*
X149741000Y-71301000D02*
G01*
X147139000Y-71301000D01*
X147139000Y-70599000D01*
X149741000Y-70599000D01*
X149741000Y-71301000D01*
X149741000Y-71301000D01*
G37*
G36*
X138051000Y-71288000D02*
G01*
X136449000Y-71288000D01*
X136449000Y-70586000D01*
X138051000Y-70586000D01*
X138051000Y-71288000D01*
X138051000Y-71288000D01*
G37*
G36*
X143451000Y-71288000D02*
G01*
X141849000Y-71288000D01*
X141849000Y-70586000D01*
X143451000Y-70586000D01*
X143451000Y-71288000D01*
X143451000Y-71288000D01*
G37*
G36*
X154341000Y-70151000D02*
G01*
X150739000Y-70151000D01*
X150739000Y-68049000D01*
X154341000Y-68049000D01*
X154341000Y-70151000D01*
X154341000Y-70151000D01*
G37*
G36*
X59346000Y-67801000D02*
G01*
X57994000Y-67801000D01*
X57994000Y-66199000D01*
X59346000Y-66199000D01*
X59346000Y-67801000D01*
X59346000Y-67801000D01*
G37*
G36*
X61761000Y-67261000D02*
G01*
X60659000Y-67261000D01*
X60659000Y-65859000D01*
X61761000Y-65859000D01*
X61761000Y-67261000D01*
X61761000Y-67261000D01*
G37*
G36*
X85821000Y-66281000D02*
G01*
X84419000Y-66281000D01*
X84419000Y-65179000D01*
X85821000Y-65179000D01*
X85821000Y-66281000D01*
X85821000Y-66281000D01*
G37*
G36*
X83721000Y-66281000D02*
G01*
X82319000Y-66281000D01*
X82319000Y-65179000D01*
X83721000Y-65179000D01*
X83721000Y-66281000D01*
X83721000Y-66281000D01*
G37*
G36*
X91026000Y-66281000D02*
G01*
X89524000Y-66281000D01*
X89524000Y-65179000D01*
X91026000Y-65179000D01*
X91026000Y-66281000D01*
X91026000Y-66281000D01*
G37*
G36*
X88776000Y-66281000D02*
G01*
X87274000Y-66281000D01*
X87274000Y-65179000D01*
X88776000Y-65179000D01*
X88776000Y-66281000D01*
X88776000Y-66281000D01*
G37*
G36*
X154341000Y-66091000D02*
G01*
X150739000Y-66091000D01*
X150739000Y-63989000D01*
X154341000Y-63989000D01*
X154341000Y-66091000D01*
X154341000Y-66091000D01*
G37*
G36*
X59346000Y-65301000D02*
G01*
X57994000Y-65301000D01*
X57994000Y-63699000D01*
X59346000Y-63699000D01*
X59346000Y-65301000D01*
X59346000Y-65301000D01*
G37*
G36*
X61761000Y-65161000D02*
G01*
X60659000Y-65161000D01*
X60659000Y-63759000D01*
X61761000Y-63759000D01*
X61761000Y-65161000D01*
X61761000Y-65161000D01*
G37*
G36*
X149741000Y-63541000D02*
G01*
X147139000Y-63541000D01*
X147139000Y-62839000D01*
X149741000Y-62839000D01*
X149741000Y-63541000D01*
X149741000Y-63541000D01*
G37*
G36*
X149741000Y-62291000D02*
G01*
X147139000Y-62291000D01*
X147139000Y-61589000D01*
X149741000Y-61589000D01*
X149741000Y-62291000D01*
X149741000Y-62291000D01*
G37*
G36*
X149741000Y-61041000D02*
G01*
X147139000Y-61041000D01*
X147139000Y-60339000D01*
X149741000Y-60339000D01*
X149741000Y-61041000D01*
X149741000Y-61041000D01*
G37*
G36*
X149741000Y-59791000D02*
G01*
X147139000Y-59791000D01*
X147139000Y-59089000D01*
X149741000Y-59089000D01*
X149741000Y-59791000D01*
X149741000Y-59791000D01*
G37*
G36*
X149741000Y-58541000D02*
G01*
X147139000Y-58541000D01*
X147139000Y-57839000D01*
X149741000Y-57839000D01*
X149741000Y-58541000D01*
X149741000Y-58541000D01*
G37*
G36*
X111807000Y-57907000D02*
G01*
X108657000Y-57907000D01*
X108657000Y-55773000D01*
X111807000Y-55773000D01*
X111807000Y-57907000D01*
X111807000Y-57907000D01*
G37*
G36*
X130603000Y-57907000D02*
G01*
X127453000Y-57907000D01*
X127453000Y-55773000D01*
X130603000Y-55773000D01*
X130603000Y-57907000D01*
X130603000Y-57907000D01*
G37*
G36*
X149741000Y-57291000D02*
G01*
X147139000Y-57291000D01*
X147139000Y-56589000D01*
X149741000Y-56589000D01*
X149741000Y-57291000D01*
X149741000Y-57291000D01*
G37*
G36*
X149741000Y-56041000D02*
G01*
X147139000Y-56041000D01*
X147139000Y-55339000D01*
X149741000Y-55339000D01*
X149741000Y-56041000D01*
X149741000Y-56041000D01*
G37*
G36*
X130603000Y-55367000D02*
G01*
X127453000Y-55367000D01*
X127453000Y-53233000D01*
X130603000Y-53233000D01*
X130603000Y-55367000D01*
X130603000Y-55367000D01*
G37*
G36*
X111807000Y-55367000D02*
G01*
X108657000Y-55367000D01*
X108657000Y-53233000D01*
X111807000Y-53233000D01*
X111807000Y-55367000D01*
X111807000Y-55367000D01*
G37*
G36*
X134521000Y-54851000D02*
G01*
X133119000Y-54851000D01*
X133119000Y-53749000D01*
X134521000Y-53749000D01*
X134521000Y-54851000D01*
X134521000Y-54851000D01*
G37*
G36*
X136621000Y-54851000D02*
G01*
X135219000Y-54851000D01*
X135219000Y-53749000D01*
X136621000Y-53749000D01*
X136621000Y-54851000D01*
X136621000Y-54851000D01*
G37*
G36*
X149741000Y-54791000D02*
G01*
X147139000Y-54791000D01*
X147139000Y-54089000D01*
X149741000Y-54089000D01*
X149741000Y-54791000D01*
X149741000Y-54791000D01*
G37*
G36*
X154341000Y-53641000D02*
G01*
X150739000Y-53641000D01*
X150739000Y-51539000D01*
X154341000Y-51539000D01*
X154341000Y-53641000D01*
X154341000Y-53641000D01*
G37*
G36*
X111807000Y-52827000D02*
G01*
X108657000Y-52827000D01*
X108657000Y-50693000D01*
X111807000Y-50693000D01*
X111807000Y-52827000D01*
X111807000Y-52827000D01*
G37*
G36*
X130603000Y-52827000D02*
G01*
X127453000Y-52827000D01*
X127453000Y-50693000D01*
X130603000Y-50693000D01*
X130603000Y-52827000D01*
X130603000Y-52827000D01*
G37*
G36*
X111807000Y-50287000D02*
G01*
X108657000Y-50287000D01*
X108657000Y-48153000D01*
X111807000Y-48153000D01*
X111807000Y-50287000D01*
X111807000Y-50287000D01*
G37*
G36*
X130603000Y-50287000D02*
G01*
X127453000Y-50287000D01*
X127453000Y-48153000D01*
X130603000Y-48153000D01*
X130603000Y-50287000D01*
X130603000Y-50287000D01*
G37*
G36*
X102771000Y-49771000D02*
G01*
X101369000Y-49771000D01*
X101369000Y-48669000D01*
X102771000Y-48669000D01*
X102771000Y-49771000D01*
X102771000Y-49771000D01*
G37*
G36*
X104871000Y-49771000D02*
G01*
X103469000Y-49771000D01*
X103469000Y-48669000D01*
X104871000Y-48669000D01*
X104871000Y-49771000D01*
X104871000Y-49771000D01*
G37*
G36*
X136991000Y-49731000D02*
G01*
X135289000Y-49731000D01*
X135289000Y-47629000D01*
X136991000Y-47629000D01*
X136991000Y-49731000D01*
X136991000Y-49731000D01*
G37*
G36*
X61578903Y-44343213D02*
G01*
X61801177Y-44387426D01*
X62219932Y-44560880D01*
X62596802Y-44812696D01*
X62917304Y-45133198D01*
X63169120Y-45510068D01*
X63342574Y-45928823D01*
X63431000Y-46373371D01*
X63431000Y-46826629D01*
X63342574Y-47271177D01*
X63169120Y-47689932D01*
X62917304Y-48066802D01*
X62596802Y-48387304D01*
X62219932Y-48639120D01*
X61801177Y-48812574D01*
X61578903Y-48856787D01*
X61356630Y-48901000D01*
X60903370Y-48901000D01*
X60681097Y-48856787D01*
X60458823Y-48812574D01*
X60040068Y-48639120D01*
X59663198Y-48387304D01*
X59342696Y-48066802D01*
X59090880Y-47689932D01*
X58917426Y-47271177D01*
X58829000Y-46826629D01*
X58829000Y-46373371D01*
X58917426Y-45928823D01*
X59090880Y-45510068D01*
X59342696Y-45133198D01*
X59663198Y-44812696D01*
X60040068Y-44560880D01*
X60458823Y-44387426D01*
X60681097Y-44343213D01*
X60903370Y-44299000D01*
X61356630Y-44299000D01*
X61578903Y-44343213D01*
X61578903Y-44343213D01*
G37*
G36*
X151578903Y-44343213D02*
G01*
X151801177Y-44387426D01*
X152219932Y-44560880D01*
X152596802Y-44812696D01*
X152917304Y-45133198D01*
X153169120Y-45510068D01*
X153342574Y-45928823D01*
X153431000Y-46373371D01*
X153431000Y-46826629D01*
X153342574Y-47271177D01*
X153169120Y-47689932D01*
X152917304Y-48066802D01*
X152596802Y-48387304D01*
X152219932Y-48639120D01*
X151801177Y-48812574D01*
X151578903Y-48856787D01*
X151356630Y-48901000D01*
X150903370Y-48901000D01*
X150681097Y-48856787D01*
X150458823Y-48812574D01*
X150040068Y-48639120D01*
X149663198Y-48387304D01*
X149342696Y-48066802D01*
X149090880Y-47689932D01*
X148917426Y-47271177D01*
X148829000Y-46826629D01*
X148829000Y-46373371D01*
X148917426Y-45928823D01*
X149090880Y-45510068D01*
X149342696Y-45133198D01*
X149663198Y-44812696D01*
X150040068Y-44560880D01*
X150458823Y-44387426D01*
X150681097Y-44343213D01*
X150903370Y-44299000D01*
X151356630Y-44299000D01*
X151578903Y-44343213D01*
X151578903Y-44343213D01*
G37*
G36*
X130603000Y-47747000D02*
G01*
X127453000Y-47747000D01*
X127453000Y-45613000D01*
X130603000Y-45613000D01*
X130603000Y-47747000D01*
X130603000Y-47747000D01*
G37*
G36*
X111807000Y-47747000D02*
G01*
X108657000Y-47747000D01*
X108657000Y-45613000D01*
X111807000Y-45613000D01*
X111807000Y-47747000D01*
X111807000Y-47747000D01*
G37*
G36*
X102771000Y-47231000D02*
G01*
X101369000Y-47231000D01*
X101369000Y-46129000D01*
X102771000Y-46129000D01*
X102771000Y-47231000D01*
X102771000Y-47231000D01*
G37*
G36*
X104871000Y-47231000D02*
G01*
X103469000Y-47231000D01*
X103469000Y-46129000D01*
X104871000Y-46129000D01*
X104871000Y-47231000D01*
X104871000Y-47231000D01*
G37*
G36*
X136991000Y-45731000D02*
G01*
X135289000Y-45731000D01*
X135289000Y-43629000D01*
X136991000Y-43629000D01*
X136991000Y-45731000D01*
X136991000Y-45731000D01*
G37*
G36*
X130603000Y-45207000D02*
G01*
X127453000Y-45207000D01*
X127453000Y-43073000D01*
X130603000Y-43073000D01*
X130603000Y-45207000D01*
X130603000Y-45207000D01*
G37*
G36*
X111807000Y-45207000D02*
G01*
X108657000Y-45207000D01*
X108657000Y-43073000D01*
X111807000Y-43073000D01*
X111807000Y-45207000D01*
X111807000Y-45207000D01*
G37*
M02*
