G04 #@! TF.GenerationSoftware,KiCad,Pcbnew,(5.1.0)-1*
G04 #@! TF.CreationDate,2019-06-24T11:39:16+02:00*
G04 #@! TF.ProjectId,USB_Tool,5553425f-546f-46f6-9c2e-6b696361645f,4*
G04 #@! TF.SameCoordinates,Original*
G04 #@! TF.FileFunction,Legend,Bot*
G04 #@! TF.FilePolarity,Positive*
%FSLAX46Y46*%
G04 Gerber Fmt 4.6, Leading zero omitted, Abs format (unit mm)*
G04 Created by KiCad (PCBNEW (5.1.0)-1) date 2019-06-24 11:39:16*
%MOMM*%
%LPD*%
G04 APERTURE LIST*
%ADD10C,0.300000*%
%ADD11C,0.120000*%
%ADD12C,0.150000*%
G04 APERTURE END LIST*
D10*
X142714285Y-66628571D02*
X142714285Y-67842857D01*
X142642857Y-67985714D01*
X142571428Y-68057142D01*
X142428571Y-68128571D01*
X142142857Y-68128571D01*
X142000000Y-68057142D01*
X141928571Y-67985714D01*
X141857142Y-67842857D01*
X141857142Y-66628571D01*
X141214285Y-68057142D02*
X141000000Y-68128571D01*
X140642857Y-68128571D01*
X140500000Y-68057142D01*
X140428571Y-67985714D01*
X140357142Y-67842857D01*
X140357142Y-67700000D01*
X140428571Y-67557142D01*
X140500000Y-67485714D01*
X140642857Y-67414285D01*
X140928571Y-67342857D01*
X141071428Y-67271428D01*
X141142857Y-67200000D01*
X141214285Y-67057142D01*
X141214285Y-66914285D01*
X141142857Y-66771428D01*
X141071428Y-66700000D01*
X140928571Y-66628571D01*
X140571428Y-66628571D01*
X140357142Y-66700000D01*
X139214285Y-67342857D02*
X139000000Y-67414285D01*
X138928571Y-67485714D01*
X138857142Y-67628571D01*
X138857142Y-67842857D01*
X138928571Y-67985714D01*
X139000000Y-68057142D01*
X139142857Y-68128571D01*
X139714285Y-68128571D01*
X139714285Y-66628571D01*
X139214285Y-66628571D01*
X139071428Y-66700000D01*
X139000000Y-66771428D01*
X138928571Y-66914285D01*
X138928571Y-67057142D01*
X139000000Y-67200000D01*
X139071428Y-67271428D01*
X139214285Y-67342857D01*
X139714285Y-67342857D01*
X138571428Y-68271428D02*
X137428571Y-68271428D01*
X137285714Y-66628571D02*
X136428571Y-66628571D01*
X136857142Y-68128571D02*
X136857142Y-66628571D01*
X135642857Y-66628571D02*
X135357142Y-66628571D01*
X135214285Y-66700000D01*
X135071428Y-66842857D01*
X135000000Y-67128571D01*
X135000000Y-67628571D01*
X135071428Y-67914285D01*
X135214285Y-68057142D01*
X135357142Y-68128571D01*
X135642857Y-68128571D01*
X135785714Y-68057142D01*
X135928571Y-67914285D01*
X136000000Y-67628571D01*
X136000000Y-67128571D01*
X135928571Y-66842857D01*
X135785714Y-66700000D01*
X135642857Y-66628571D01*
X134071428Y-66628571D02*
X133785714Y-66628571D01*
X133642857Y-66700000D01*
X133500000Y-66842857D01*
X133428571Y-67128571D01*
X133428571Y-67628571D01*
X133500000Y-67914285D01*
X133642857Y-68057142D01*
X133785714Y-68128571D01*
X134071428Y-68128571D01*
X134214285Y-68057142D01*
X134357142Y-67914285D01*
X134428571Y-67628571D01*
X134428571Y-67128571D01*
X134357142Y-66842857D01*
X134214285Y-66700000D01*
X134071428Y-66628571D01*
X132071428Y-68128571D02*
X132785714Y-68128571D01*
X132785714Y-66628571D01*
X144071428Y-69321428D02*
X144000000Y-69250000D01*
X143857142Y-69178571D01*
X143500000Y-69178571D01*
X143357142Y-69250000D01*
X143285714Y-69321428D01*
X143214285Y-69464285D01*
X143214285Y-69607142D01*
X143285714Y-69821428D01*
X144142857Y-70678571D01*
X143214285Y-70678571D01*
X141928571Y-69678571D02*
X141928571Y-70678571D01*
X142285714Y-69107142D02*
X142642857Y-70178571D01*
X141714285Y-70178571D01*
X141142857Y-70535714D02*
X141071428Y-70607142D01*
X141142857Y-70678571D01*
X141214285Y-70607142D01*
X141142857Y-70535714D01*
X141142857Y-70678571D01*
X140142857Y-69178571D02*
X140000000Y-69178571D01*
X139857142Y-69250000D01*
X139785714Y-69321428D01*
X139714285Y-69464285D01*
X139642857Y-69750000D01*
X139642857Y-70107142D01*
X139714285Y-70392857D01*
X139785714Y-70535714D01*
X139857142Y-70607142D01*
X140000000Y-70678571D01*
X140142857Y-70678571D01*
X140285714Y-70607142D01*
X140357142Y-70535714D01*
X140428571Y-70392857D01*
X140500000Y-70107142D01*
X140500000Y-69750000D01*
X140428571Y-69464285D01*
X140357142Y-69321428D01*
X140285714Y-69250000D01*
X140142857Y-69178571D01*
X138357142Y-69178571D02*
X138642857Y-69178571D01*
X138785714Y-69250000D01*
X138857142Y-69321428D01*
X139000000Y-69535714D01*
X139071428Y-69821428D01*
X139071428Y-70392857D01*
X139000000Y-70535714D01*
X138928571Y-70607142D01*
X138785714Y-70678571D01*
X138500000Y-70678571D01*
X138357142Y-70607142D01*
X138285714Y-70535714D01*
X138214285Y-70392857D01*
X138214285Y-70035714D01*
X138285714Y-69892857D01*
X138357142Y-69821428D01*
X138500000Y-69750000D01*
X138785714Y-69750000D01*
X138928571Y-69821428D01*
X139000000Y-69892857D01*
X139071428Y-70035714D01*
X137571428Y-70535714D02*
X137500000Y-70607142D01*
X137571428Y-70678571D01*
X137642857Y-70607142D01*
X137571428Y-70535714D01*
X137571428Y-70678571D01*
X136071428Y-70678571D02*
X136928571Y-70678571D01*
X136500000Y-70678571D02*
X136500000Y-69178571D01*
X136642857Y-69392857D01*
X136785714Y-69535714D01*
X136928571Y-69607142D01*
X135357142Y-70678571D02*
X135071428Y-70678571D01*
X134928571Y-70607142D01*
X134857142Y-70535714D01*
X134714285Y-70321428D01*
X134642857Y-70035714D01*
X134642857Y-69464285D01*
X134714285Y-69321428D01*
X134785714Y-69250000D01*
X134928571Y-69178571D01*
X135214285Y-69178571D01*
X135357142Y-69250000D01*
X135428571Y-69321428D01*
X135500000Y-69464285D01*
X135500000Y-69821428D01*
X135428571Y-69964285D01*
X135357142Y-70035714D01*
X135214285Y-70107142D01*
X134928571Y-70107142D01*
X134785714Y-70035714D01*
X134714285Y-69964285D01*
X134642857Y-69821428D01*
X133000000Y-69678571D02*
X132642857Y-70678571D01*
X132285714Y-69678571D01*
X131071428Y-69678571D02*
X131071428Y-70678571D01*
X131428571Y-69107142D02*
X131785714Y-70178571D01*
X130857142Y-70178571D01*
X141964285Y-72442857D02*
X141464285Y-72442857D01*
X141250000Y-73228571D02*
X141964285Y-73228571D01*
X141964285Y-71728571D01*
X141250000Y-71728571D01*
X140678571Y-73157142D02*
X140535714Y-73228571D01*
X140250000Y-73228571D01*
X140107142Y-73157142D01*
X140035714Y-73014285D01*
X140035714Y-72942857D01*
X140107142Y-72800000D01*
X140250000Y-72728571D01*
X140464285Y-72728571D01*
X140607142Y-72657142D01*
X140678571Y-72514285D01*
X140678571Y-72442857D01*
X140607142Y-72300000D01*
X140464285Y-72228571D01*
X140250000Y-72228571D01*
X140107142Y-72300000D01*
X139464285Y-73157142D02*
X139321428Y-73228571D01*
X139035714Y-73228571D01*
X138892857Y-73157142D01*
X138821428Y-73014285D01*
X138821428Y-72942857D01*
X138892857Y-72800000D01*
X139035714Y-72728571D01*
X139250000Y-72728571D01*
X139392857Y-72657142D01*
X139464285Y-72514285D01*
X139464285Y-72442857D01*
X139392857Y-72300000D01*
X139250000Y-72228571D01*
X139035714Y-72228571D01*
X138892857Y-72300000D01*
X137607142Y-73157142D02*
X137750000Y-73228571D01*
X138035714Y-73228571D01*
X138178571Y-73157142D01*
X138250000Y-73014285D01*
X138250000Y-72442857D01*
X138178571Y-72300000D01*
X138035714Y-72228571D01*
X137750000Y-72228571D01*
X137607142Y-72300000D01*
X137535714Y-72442857D01*
X137535714Y-72585714D01*
X138250000Y-72728571D01*
X136892857Y-73228571D02*
X136892857Y-72228571D01*
X136892857Y-71728571D02*
X136964285Y-71800000D01*
X136892857Y-71871428D01*
X136821428Y-71800000D01*
X136892857Y-71728571D01*
X136892857Y-71871428D01*
X136321428Y-72228571D02*
X135964285Y-73228571D01*
X135607142Y-72228571D01*
X134392857Y-73228571D02*
X134392857Y-72442857D01*
X134464285Y-72300000D01*
X134607142Y-72228571D01*
X134892857Y-72228571D01*
X135035714Y-72300000D01*
X134392857Y-73157142D02*
X134535714Y-73228571D01*
X134892857Y-73228571D01*
X135035714Y-73157142D01*
X135107142Y-73014285D01*
X135107142Y-72871428D01*
X135035714Y-72728571D01*
X134892857Y-72657142D01*
X134535714Y-72657142D01*
X134392857Y-72585714D01*
X133678571Y-72228571D02*
X133678571Y-73228571D01*
X133678571Y-72371428D02*
X133607142Y-72300000D01*
X133464285Y-72228571D01*
X133250000Y-72228571D01*
X133107142Y-72300000D01*
X133035714Y-72442857D01*
X133035714Y-73228571D01*
D11*
X93450000Y-106130000D02*
X95450000Y-106130000D01*
X95450000Y-108170000D02*
X93450000Y-108170000D01*
X65920000Y-61930000D02*
X65920000Y-60930000D01*
X64560000Y-60930000D02*
X64560000Y-61930000D01*
X63380000Y-61930000D02*
X63380000Y-60930000D01*
X62020000Y-60930000D02*
X62020000Y-61930000D01*
D12*
X70066000Y-80480000D02*
X68034000Y-80480000D01*
D11*
X80210000Y-91660000D02*
X78210000Y-91660000D01*
X78210000Y-89620000D02*
X80210000Y-89620000D01*
X72180000Y-62200000D02*
X72180000Y-63200000D01*
X73540000Y-63200000D02*
X73540000Y-62200000D01*
X74085000Y-62200000D02*
X74085000Y-63200000D01*
X75445000Y-63200000D02*
X75445000Y-62200000D01*
X73630000Y-59570000D02*
X74630000Y-59570000D01*
X74630000Y-58210000D02*
X73630000Y-58210000D01*
X78710000Y-87510000D02*
X79710000Y-87510000D01*
X79710000Y-86150000D02*
X78710000Y-86150000D01*
X83065000Y-61930000D02*
X83065000Y-60930000D01*
X81705000Y-60930000D02*
X81705000Y-61930000D01*
X110710000Y-141710000D02*
X110710000Y-143710000D01*
X108670000Y-143710000D02*
X108670000Y-141710000D01*
X77985000Y-61930000D02*
X77985000Y-60930000D01*
X76625000Y-60930000D02*
X76625000Y-61930000D01*
X67100000Y-60930000D02*
X67100000Y-61930000D01*
X68460000Y-61930000D02*
X68460000Y-60930000D01*
X69640000Y-60930000D02*
X69640000Y-61930000D01*
X71000000Y-61930000D02*
X71000000Y-60930000D01*
X80525000Y-61930000D02*
X80525000Y-60930000D01*
X79165000Y-60930000D02*
X79165000Y-61930000D01*
X68550000Y-84970000D02*
X69550000Y-84970000D01*
X69550000Y-83610000D02*
X68550000Y-83610000D01*
X68550000Y-90050000D02*
X69550000Y-90050000D01*
X69550000Y-88690000D02*
X68550000Y-88690000D01*
X77350000Y-139400000D02*
X77350000Y-138400000D01*
X75990000Y-138400000D02*
X75990000Y-139400000D01*
X105200000Y-140940000D02*
X105200000Y-141940000D01*
X106560000Y-141940000D02*
X106560000Y-140940000D01*
X105200000Y-146020000D02*
X105200000Y-147020000D01*
X106560000Y-147020000D02*
X106560000Y-146020000D01*
D12*
X94616666Y-105602142D02*
X94664285Y-105649761D01*
X94807142Y-105697380D01*
X94902380Y-105697380D01*
X95045238Y-105649761D01*
X95140476Y-105554523D01*
X95188095Y-105459285D01*
X95235714Y-105268809D01*
X95235714Y-105125952D01*
X95188095Y-104935476D01*
X95140476Y-104840238D01*
X95045238Y-104745000D01*
X94902380Y-104697380D01*
X94807142Y-104697380D01*
X94664285Y-104745000D01*
X94616666Y-104792619D01*
X94045238Y-105125952D02*
X94140476Y-105078333D01*
X94188095Y-105030714D01*
X94235714Y-104935476D01*
X94235714Y-104887857D01*
X94188095Y-104792619D01*
X94140476Y-104745000D01*
X94045238Y-104697380D01*
X93854761Y-104697380D01*
X93759523Y-104745000D01*
X93711904Y-104792619D01*
X93664285Y-104887857D01*
X93664285Y-104935476D01*
X93711904Y-105030714D01*
X93759523Y-105078333D01*
X93854761Y-105125952D01*
X94045238Y-105125952D01*
X94140476Y-105173571D01*
X94188095Y-105221190D01*
X94235714Y-105316428D01*
X94235714Y-105506904D01*
X94188095Y-105602142D01*
X94140476Y-105649761D01*
X94045238Y-105697380D01*
X93854761Y-105697380D01*
X93759523Y-105649761D01*
X93711904Y-105602142D01*
X93664285Y-105506904D01*
X93664285Y-105316428D01*
X93711904Y-105221190D01*
X93759523Y-105173571D01*
X93854761Y-105125952D01*
X65692380Y-56342142D02*
X65216190Y-56008809D01*
X65692380Y-55770714D02*
X64692380Y-55770714D01*
X64692380Y-56151666D01*
X64740000Y-56246904D01*
X64787619Y-56294523D01*
X64882857Y-56342142D01*
X65025714Y-56342142D01*
X65120952Y-56294523D01*
X65168571Y-56246904D01*
X65216190Y-56151666D01*
X65216190Y-55770714D01*
X65692380Y-57294523D02*
X65692380Y-56723095D01*
X65692380Y-57008809D02*
X64692380Y-57008809D01*
X64835238Y-56913571D01*
X64930476Y-56818333D01*
X64978095Y-56723095D01*
X64692380Y-58199285D02*
X64692380Y-57723095D01*
X65168571Y-57675476D01*
X65120952Y-57723095D01*
X65073333Y-57818333D01*
X65073333Y-58056428D01*
X65120952Y-58151666D01*
X65168571Y-58199285D01*
X65263809Y-58246904D01*
X65501904Y-58246904D01*
X65597142Y-58199285D01*
X65644761Y-58151666D01*
X65692380Y-58056428D01*
X65692380Y-57818333D01*
X65644761Y-57723095D01*
X65597142Y-57675476D01*
X63152380Y-56342142D02*
X62676190Y-56008809D01*
X63152380Y-55770714D02*
X62152380Y-55770714D01*
X62152380Y-56151666D01*
X62200000Y-56246904D01*
X62247619Y-56294523D01*
X62342857Y-56342142D01*
X62485714Y-56342142D01*
X62580952Y-56294523D01*
X62628571Y-56246904D01*
X62676190Y-56151666D01*
X62676190Y-55770714D01*
X63152380Y-57294523D02*
X63152380Y-56723095D01*
X63152380Y-57008809D02*
X62152380Y-57008809D01*
X62295238Y-56913571D01*
X62390476Y-56818333D01*
X62438095Y-56723095D01*
X62485714Y-58151666D02*
X63152380Y-58151666D01*
X62104761Y-57913571D02*
X62819047Y-57675476D01*
X62819047Y-58294523D01*
X69383333Y-77233571D02*
X69716666Y-77233571D01*
X69716666Y-77757380D02*
X69716666Y-76757380D01*
X69240476Y-76757380D01*
X68335714Y-77757380D02*
X68907142Y-77757380D01*
X68621428Y-77757380D02*
X68621428Y-76757380D01*
X68716666Y-76900238D01*
X68811904Y-76995476D01*
X68907142Y-77043095D01*
X79376666Y-92902142D02*
X79424285Y-92949761D01*
X79567142Y-92997380D01*
X79662380Y-92997380D01*
X79805238Y-92949761D01*
X79900476Y-92854523D01*
X79948095Y-92759285D01*
X79995714Y-92568809D01*
X79995714Y-92425952D01*
X79948095Y-92235476D01*
X79900476Y-92140238D01*
X79805238Y-92045000D01*
X79662380Y-91997380D01*
X79567142Y-91997380D01*
X79424285Y-92045000D01*
X79376666Y-92092619D01*
X78900476Y-92997380D02*
X78710000Y-92997380D01*
X78614761Y-92949761D01*
X78567142Y-92902142D01*
X78471904Y-92759285D01*
X78424285Y-92568809D01*
X78424285Y-92187857D01*
X78471904Y-92092619D01*
X78519523Y-92045000D01*
X78614761Y-91997380D01*
X78805238Y-91997380D01*
X78900476Y-92045000D01*
X78948095Y-92092619D01*
X78995714Y-92187857D01*
X78995714Y-92425952D01*
X78948095Y-92521190D01*
X78900476Y-92568809D01*
X78805238Y-92616428D01*
X78614761Y-92616428D01*
X78519523Y-92568809D01*
X78471904Y-92521190D01*
X78424285Y-92425952D01*
X72677380Y-65708333D02*
X72201190Y-65375000D01*
X72677380Y-65136904D02*
X71677380Y-65136904D01*
X71677380Y-65517857D01*
X71725000Y-65613095D01*
X71772619Y-65660714D01*
X71867857Y-65708333D01*
X72010714Y-65708333D01*
X72105952Y-65660714D01*
X72153571Y-65613095D01*
X72201190Y-65517857D01*
X72201190Y-65136904D01*
X72105952Y-66279761D02*
X72058333Y-66184523D01*
X72010714Y-66136904D01*
X71915476Y-66089285D01*
X71867857Y-66089285D01*
X71772619Y-66136904D01*
X71725000Y-66184523D01*
X71677380Y-66279761D01*
X71677380Y-66470238D01*
X71725000Y-66565476D01*
X71772619Y-66613095D01*
X71867857Y-66660714D01*
X71915476Y-66660714D01*
X72010714Y-66613095D01*
X72058333Y-66565476D01*
X72105952Y-66470238D01*
X72105952Y-66279761D01*
X72153571Y-66184523D01*
X72201190Y-66136904D01*
X72296428Y-66089285D01*
X72486904Y-66089285D01*
X72582142Y-66136904D01*
X72629761Y-66184523D01*
X72677380Y-66279761D01*
X72677380Y-66470238D01*
X72629761Y-66565476D01*
X72582142Y-66613095D01*
X72486904Y-66660714D01*
X72296428Y-66660714D01*
X72201190Y-66613095D01*
X72153571Y-66565476D01*
X72105952Y-66470238D01*
X76487380Y-65708333D02*
X76011190Y-65375000D01*
X76487380Y-65136904D02*
X75487380Y-65136904D01*
X75487380Y-65517857D01*
X75535000Y-65613095D01*
X75582619Y-65660714D01*
X75677857Y-65708333D01*
X75820714Y-65708333D01*
X75915952Y-65660714D01*
X75963571Y-65613095D01*
X76011190Y-65517857D01*
X76011190Y-65136904D01*
X75487380Y-66041666D02*
X75487380Y-66708333D01*
X76487380Y-66279761D01*
X74296666Y-57437380D02*
X74630000Y-56961190D01*
X74868095Y-57437380D02*
X74868095Y-56437380D01*
X74487142Y-56437380D01*
X74391904Y-56485000D01*
X74344285Y-56532619D01*
X74296666Y-56627857D01*
X74296666Y-56770714D01*
X74344285Y-56865952D01*
X74391904Y-56913571D01*
X74487142Y-56961190D01*
X74868095Y-56961190D01*
X73439523Y-56437380D02*
X73630000Y-56437380D01*
X73725238Y-56485000D01*
X73772857Y-56532619D01*
X73868095Y-56675476D01*
X73915714Y-56865952D01*
X73915714Y-57246904D01*
X73868095Y-57342142D01*
X73820476Y-57389761D01*
X73725238Y-57437380D01*
X73534761Y-57437380D01*
X73439523Y-57389761D01*
X73391904Y-57342142D01*
X73344285Y-57246904D01*
X73344285Y-57008809D01*
X73391904Y-56913571D01*
X73439523Y-56865952D01*
X73534761Y-56818333D01*
X73725238Y-56818333D01*
X73820476Y-56865952D01*
X73868095Y-56913571D01*
X73915714Y-57008809D01*
X79376666Y-85377380D02*
X79710000Y-84901190D01*
X79948095Y-85377380D02*
X79948095Y-84377380D01*
X79567142Y-84377380D01*
X79471904Y-84425000D01*
X79424285Y-84472619D01*
X79376666Y-84567857D01*
X79376666Y-84710714D01*
X79424285Y-84805952D01*
X79471904Y-84853571D01*
X79567142Y-84901190D01*
X79948095Y-84901190D01*
X78519523Y-84710714D02*
X78519523Y-85377380D01*
X78757619Y-84329761D02*
X78995714Y-85044047D01*
X78376666Y-85044047D01*
X82837380Y-57453333D02*
X82361190Y-57120000D01*
X82837380Y-56881904D02*
X81837380Y-56881904D01*
X81837380Y-57262857D01*
X81885000Y-57358095D01*
X81932619Y-57405714D01*
X82027857Y-57453333D01*
X82170714Y-57453333D01*
X82265952Y-57405714D01*
X82313571Y-57358095D01*
X82361190Y-57262857D01*
X82361190Y-56881904D01*
X81932619Y-57834285D02*
X81885000Y-57881904D01*
X81837380Y-57977142D01*
X81837380Y-58215238D01*
X81885000Y-58310476D01*
X81932619Y-58358095D01*
X82027857Y-58405714D01*
X82123095Y-58405714D01*
X82265952Y-58358095D01*
X82837380Y-57786666D01*
X82837380Y-58405714D01*
X112396666Y-143067142D02*
X112444285Y-143114761D01*
X112587142Y-143162380D01*
X112682380Y-143162380D01*
X112825238Y-143114761D01*
X112920476Y-143019523D01*
X112968095Y-142924285D01*
X113015714Y-142733809D01*
X113015714Y-142590952D01*
X112968095Y-142400476D01*
X112920476Y-142305238D01*
X112825238Y-142210000D01*
X112682380Y-142162380D01*
X112587142Y-142162380D01*
X112444285Y-142210000D01*
X112396666Y-142257619D01*
X112063333Y-142162380D02*
X111444285Y-142162380D01*
X111777619Y-142543333D01*
X111634761Y-142543333D01*
X111539523Y-142590952D01*
X111491904Y-142638571D01*
X111444285Y-142733809D01*
X111444285Y-142971904D01*
X111491904Y-143067142D01*
X111539523Y-143114761D01*
X111634761Y-143162380D01*
X111920476Y-143162380D01*
X112015714Y-143114761D01*
X112063333Y-143067142D01*
X77757380Y-57453333D02*
X77281190Y-57120000D01*
X77757380Y-56881904D02*
X76757380Y-56881904D01*
X76757380Y-57262857D01*
X76805000Y-57358095D01*
X76852619Y-57405714D01*
X76947857Y-57453333D01*
X77090714Y-57453333D01*
X77185952Y-57405714D01*
X77233571Y-57358095D01*
X77281190Y-57262857D01*
X77281190Y-56881904D01*
X76757380Y-57786666D02*
X76757380Y-58405714D01*
X77138333Y-58072380D01*
X77138333Y-58215238D01*
X77185952Y-58310476D01*
X77233571Y-58358095D01*
X77328809Y-58405714D01*
X77566904Y-58405714D01*
X77662142Y-58358095D01*
X77709761Y-58310476D01*
X77757380Y-58215238D01*
X77757380Y-57929523D01*
X77709761Y-57834285D01*
X77662142Y-57786666D01*
X68232380Y-56342142D02*
X67756190Y-56008809D01*
X68232380Y-55770714D02*
X67232380Y-55770714D01*
X67232380Y-56151666D01*
X67280000Y-56246904D01*
X67327619Y-56294523D01*
X67422857Y-56342142D01*
X67565714Y-56342142D01*
X67660952Y-56294523D01*
X67708571Y-56246904D01*
X67756190Y-56151666D01*
X67756190Y-55770714D01*
X68232380Y-57294523D02*
X68232380Y-56723095D01*
X68232380Y-57008809D02*
X67232380Y-57008809D01*
X67375238Y-56913571D01*
X67470476Y-56818333D01*
X67518095Y-56723095D01*
X67232380Y-58151666D02*
X67232380Y-57961190D01*
X67280000Y-57865952D01*
X67327619Y-57818333D01*
X67470476Y-57723095D01*
X67660952Y-57675476D01*
X68041904Y-57675476D01*
X68137142Y-57723095D01*
X68184761Y-57770714D01*
X68232380Y-57865952D01*
X68232380Y-58056428D01*
X68184761Y-58151666D01*
X68137142Y-58199285D01*
X68041904Y-58246904D01*
X67803809Y-58246904D01*
X67708571Y-58199285D01*
X67660952Y-58151666D01*
X67613333Y-58056428D01*
X67613333Y-57865952D01*
X67660952Y-57770714D01*
X67708571Y-57723095D01*
X67803809Y-57675476D01*
X70772380Y-56342142D02*
X70296190Y-56008809D01*
X70772380Y-55770714D02*
X69772380Y-55770714D01*
X69772380Y-56151666D01*
X69820000Y-56246904D01*
X69867619Y-56294523D01*
X69962857Y-56342142D01*
X70105714Y-56342142D01*
X70200952Y-56294523D01*
X70248571Y-56246904D01*
X70296190Y-56151666D01*
X70296190Y-55770714D01*
X70772380Y-57294523D02*
X70772380Y-56723095D01*
X70772380Y-57008809D02*
X69772380Y-57008809D01*
X69915238Y-56913571D01*
X70010476Y-56818333D01*
X70058095Y-56723095D01*
X69772380Y-57627857D02*
X69772380Y-58294523D01*
X70772380Y-57865952D01*
X80297380Y-56342142D02*
X79821190Y-56008809D01*
X80297380Y-55770714D02*
X79297380Y-55770714D01*
X79297380Y-56151666D01*
X79345000Y-56246904D01*
X79392619Y-56294523D01*
X79487857Y-56342142D01*
X79630714Y-56342142D01*
X79725952Y-56294523D01*
X79773571Y-56246904D01*
X79821190Y-56151666D01*
X79821190Y-55770714D01*
X80297380Y-57294523D02*
X80297380Y-56723095D01*
X80297380Y-57008809D02*
X79297380Y-57008809D01*
X79440238Y-56913571D01*
X79535476Y-56818333D01*
X79583095Y-56723095D01*
X79725952Y-57865952D02*
X79678333Y-57770714D01*
X79630714Y-57723095D01*
X79535476Y-57675476D01*
X79487857Y-57675476D01*
X79392619Y-57723095D01*
X79345000Y-57770714D01*
X79297380Y-57865952D01*
X79297380Y-58056428D01*
X79345000Y-58151666D01*
X79392619Y-58199285D01*
X79487857Y-58246904D01*
X79535476Y-58246904D01*
X79630714Y-58199285D01*
X79678333Y-58151666D01*
X79725952Y-58056428D01*
X79725952Y-57865952D01*
X79773571Y-57770714D01*
X79821190Y-57723095D01*
X79916428Y-57675476D01*
X80106904Y-57675476D01*
X80202142Y-57723095D01*
X80249761Y-57770714D01*
X80297380Y-57865952D01*
X80297380Y-58056428D01*
X80249761Y-58151666D01*
X80202142Y-58199285D01*
X80106904Y-58246904D01*
X79916428Y-58246904D01*
X79821190Y-58199285D01*
X79773571Y-58151666D01*
X79725952Y-58056428D01*
X69692857Y-86647380D02*
X70026190Y-86171190D01*
X70264285Y-86647380D02*
X70264285Y-85647380D01*
X69883333Y-85647380D01*
X69788095Y-85695000D01*
X69740476Y-85742619D01*
X69692857Y-85837857D01*
X69692857Y-85980714D01*
X69740476Y-86075952D01*
X69788095Y-86123571D01*
X69883333Y-86171190D01*
X70264285Y-86171190D01*
X68740476Y-86647380D02*
X69311904Y-86647380D01*
X69026190Y-86647380D02*
X69026190Y-85647380D01*
X69121428Y-85790238D01*
X69216666Y-85885476D01*
X69311904Y-85933095D01*
X68264285Y-86647380D02*
X68073809Y-86647380D01*
X67978571Y-86599761D01*
X67930952Y-86552142D01*
X67835714Y-86409285D01*
X67788095Y-86218809D01*
X67788095Y-85837857D01*
X67835714Y-85742619D01*
X67883333Y-85695000D01*
X67978571Y-85647380D01*
X68169047Y-85647380D01*
X68264285Y-85695000D01*
X68311904Y-85742619D01*
X68359523Y-85837857D01*
X68359523Y-86075952D01*
X68311904Y-86171190D01*
X68264285Y-86218809D01*
X68169047Y-86266428D01*
X67978571Y-86266428D01*
X67883333Y-86218809D01*
X67835714Y-86171190D01*
X67788095Y-86075952D01*
X69692857Y-87917380D02*
X70026190Y-87441190D01*
X70264285Y-87917380D02*
X70264285Y-86917380D01*
X69883333Y-86917380D01*
X69788095Y-86965000D01*
X69740476Y-87012619D01*
X69692857Y-87107857D01*
X69692857Y-87250714D01*
X69740476Y-87345952D01*
X69788095Y-87393571D01*
X69883333Y-87441190D01*
X70264285Y-87441190D01*
X69311904Y-87012619D02*
X69264285Y-86965000D01*
X69169047Y-86917380D01*
X68930952Y-86917380D01*
X68835714Y-86965000D01*
X68788095Y-87012619D01*
X68740476Y-87107857D01*
X68740476Y-87203095D01*
X68788095Y-87345952D01*
X69359523Y-87917380D01*
X68740476Y-87917380D01*
X68121428Y-86917380D02*
X68026190Y-86917380D01*
X67930952Y-86965000D01*
X67883333Y-87012619D01*
X67835714Y-87107857D01*
X67788095Y-87298333D01*
X67788095Y-87536428D01*
X67835714Y-87726904D01*
X67883333Y-87822142D01*
X67930952Y-87869761D01*
X68026190Y-87917380D01*
X68121428Y-87917380D01*
X68216666Y-87869761D01*
X68264285Y-87822142D01*
X68311904Y-87726904D01*
X68359523Y-87536428D01*
X68359523Y-87298333D01*
X68311904Y-87107857D01*
X68264285Y-87012619D01*
X68216666Y-86965000D01*
X68121428Y-86917380D01*
X74931666Y-139352380D02*
X75265000Y-138876190D01*
X75503095Y-139352380D02*
X75503095Y-138352380D01*
X75122142Y-138352380D01*
X75026904Y-138400000D01*
X74979285Y-138447619D01*
X74931666Y-138542857D01*
X74931666Y-138685714D01*
X74979285Y-138780952D01*
X75026904Y-138828571D01*
X75122142Y-138876190D01*
X75503095Y-138876190D01*
X74455476Y-139352380D02*
X74265000Y-139352380D01*
X74169761Y-139304761D01*
X74122142Y-139257142D01*
X74026904Y-139114285D01*
X73979285Y-138923809D01*
X73979285Y-138542857D01*
X74026904Y-138447619D01*
X74074523Y-138400000D01*
X74169761Y-138352380D01*
X74360238Y-138352380D01*
X74455476Y-138400000D01*
X74503095Y-138447619D01*
X74550714Y-138542857D01*
X74550714Y-138780952D01*
X74503095Y-138876190D01*
X74455476Y-138923809D01*
X74360238Y-138971428D01*
X74169761Y-138971428D01*
X74074523Y-138923809D01*
X74026904Y-138876190D01*
X73979285Y-138780952D01*
X103982857Y-141892380D02*
X104316190Y-141416190D01*
X104554285Y-141892380D02*
X104554285Y-140892380D01*
X104173333Y-140892380D01*
X104078095Y-140940000D01*
X104030476Y-140987619D01*
X103982857Y-141082857D01*
X103982857Y-141225714D01*
X104030476Y-141320952D01*
X104078095Y-141368571D01*
X104173333Y-141416190D01*
X104554285Y-141416190D01*
X103030476Y-141892380D02*
X103601904Y-141892380D01*
X103316190Y-141892380D02*
X103316190Y-140892380D01*
X103411428Y-141035238D01*
X103506666Y-141130476D01*
X103601904Y-141178095D01*
X102411428Y-140892380D02*
X102316190Y-140892380D01*
X102220952Y-140940000D01*
X102173333Y-140987619D01*
X102125714Y-141082857D01*
X102078095Y-141273333D01*
X102078095Y-141511428D01*
X102125714Y-141701904D01*
X102173333Y-141797142D01*
X102220952Y-141844761D01*
X102316190Y-141892380D01*
X102411428Y-141892380D01*
X102506666Y-141844761D01*
X102554285Y-141797142D01*
X102601904Y-141701904D01*
X102649523Y-141511428D01*
X102649523Y-141273333D01*
X102601904Y-141082857D01*
X102554285Y-140987619D01*
X102506666Y-140940000D01*
X102411428Y-140892380D01*
X104141666Y-146972380D02*
X104475000Y-146496190D01*
X104713095Y-146972380D02*
X104713095Y-145972380D01*
X104332142Y-145972380D01*
X104236904Y-146020000D01*
X104189285Y-146067619D01*
X104141666Y-146162857D01*
X104141666Y-146305714D01*
X104189285Y-146400952D01*
X104236904Y-146448571D01*
X104332142Y-146496190D01*
X104713095Y-146496190D01*
X103236904Y-145972380D02*
X103713095Y-145972380D01*
X103760714Y-146448571D01*
X103713095Y-146400952D01*
X103617857Y-146353333D01*
X103379761Y-146353333D01*
X103284523Y-146400952D01*
X103236904Y-146448571D01*
X103189285Y-146543809D01*
X103189285Y-146781904D01*
X103236904Y-146877142D01*
X103284523Y-146924761D01*
X103379761Y-146972380D01*
X103617857Y-146972380D01*
X103713095Y-146924761D01*
X103760714Y-146877142D01*
M02*
