G04 #@! TF.GenerationSoftware,KiCad,Pcbnew,(5.1.0)-1*
G04 #@! TF.CreationDate,2019-05-08T11:33:48+02:00*
G04 #@! TF.ProjectId,USB_Tool,5553425f-546f-46f6-9c2e-6b696361645f,0*
G04 #@! TF.SameCoordinates,Original*
G04 #@! TF.FileFunction,Legend,Top*
G04 #@! TF.FilePolarity,Positive*
%FSLAX46Y46*%
G04 Gerber Fmt 4.6, Leading zero omitted, Abs format (unit mm)*
G04 Created by KiCad (PCBNEW (5.1.0)-1) date 2019-05-08 11:33:48*
%MOMM*%
%LPD*%
G04 APERTURE LIST*
%ADD10C,0.300000*%
%ADD11C,0.150000*%
%ADD12C,0.120000*%
%ADD13C,0.304800*%
G04 APERTURE END LIST*
D10*
X71870714Y-42673571D02*
X71870714Y-43887857D01*
X71942142Y-44030714D01*
X72013571Y-44102142D01*
X72156428Y-44173571D01*
X72442142Y-44173571D01*
X72585000Y-44102142D01*
X72656428Y-44030714D01*
X72727857Y-43887857D01*
X72727857Y-42673571D01*
X73370714Y-44102142D02*
X73585000Y-44173571D01*
X73942142Y-44173571D01*
X74085000Y-44102142D01*
X74156428Y-44030714D01*
X74227857Y-43887857D01*
X74227857Y-43745000D01*
X74156428Y-43602142D01*
X74085000Y-43530714D01*
X73942142Y-43459285D01*
X73656428Y-43387857D01*
X73513571Y-43316428D01*
X73442142Y-43245000D01*
X73370714Y-43102142D01*
X73370714Y-42959285D01*
X73442142Y-42816428D01*
X73513571Y-42745000D01*
X73656428Y-42673571D01*
X74013571Y-42673571D01*
X74227857Y-42745000D01*
X75370714Y-43387857D02*
X75585000Y-43459285D01*
X75656428Y-43530714D01*
X75727857Y-43673571D01*
X75727857Y-43887857D01*
X75656428Y-44030714D01*
X75585000Y-44102142D01*
X75442142Y-44173571D01*
X74870714Y-44173571D01*
X74870714Y-42673571D01*
X75370714Y-42673571D01*
X75513571Y-42745000D01*
X75585000Y-42816428D01*
X75656428Y-42959285D01*
X75656428Y-43102142D01*
X75585000Y-43245000D01*
X75513571Y-43316428D01*
X75370714Y-43387857D01*
X74870714Y-43387857D01*
X76013571Y-44316428D02*
X77156428Y-44316428D01*
X77299285Y-42673571D02*
X78156428Y-42673571D01*
X77727857Y-44173571D02*
X77727857Y-42673571D01*
X78942142Y-42673571D02*
X79227857Y-42673571D01*
X79370714Y-42745000D01*
X79513571Y-42887857D01*
X79585000Y-43173571D01*
X79585000Y-43673571D01*
X79513571Y-43959285D01*
X79370714Y-44102142D01*
X79227857Y-44173571D01*
X78942142Y-44173571D01*
X78799285Y-44102142D01*
X78656428Y-43959285D01*
X78585000Y-43673571D01*
X78585000Y-43173571D01*
X78656428Y-42887857D01*
X78799285Y-42745000D01*
X78942142Y-42673571D01*
X80513571Y-42673571D02*
X80799285Y-42673571D01*
X80942142Y-42745000D01*
X81085000Y-42887857D01*
X81156428Y-43173571D01*
X81156428Y-43673571D01*
X81085000Y-43959285D01*
X80942142Y-44102142D01*
X80799285Y-44173571D01*
X80513571Y-44173571D01*
X80370714Y-44102142D01*
X80227857Y-43959285D01*
X80156428Y-43673571D01*
X80156428Y-43173571D01*
X80227857Y-42887857D01*
X80370714Y-42745000D01*
X80513571Y-42673571D01*
X82513571Y-44173571D02*
X81799285Y-44173571D01*
X81799285Y-42673571D01*
X70870714Y-45223571D02*
X71013571Y-45223571D01*
X71156428Y-45295000D01*
X71227857Y-45366428D01*
X71299285Y-45509285D01*
X71370714Y-45795000D01*
X71370714Y-46152142D01*
X71299285Y-46437857D01*
X71227857Y-46580714D01*
X71156428Y-46652142D01*
X71013571Y-46723571D01*
X70870714Y-46723571D01*
X70727857Y-46652142D01*
X70656428Y-46580714D01*
X70585000Y-46437857D01*
X70513571Y-46152142D01*
X70513571Y-45795000D01*
X70585000Y-45509285D01*
X70656428Y-45366428D01*
X70727857Y-45295000D01*
X70870714Y-45223571D01*
X72227857Y-45866428D02*
X72085000Y-45795000D01*
X72013571Y-45723571D01*
X71942142Y-45580714D01*
X71942142Y-45509285D01*
X72013571Y-45366428D01*
X72085000Y-45295000D01*
X72227857Y-45223571D01*
X72513571Y-45223571D01*
X72656428Y-45295000D01*
X72727857Y-45366428D01*
X72799285Y-45509285D01*
X72799285Y-45580714D01*
X72727857Y-45723571D01*
X72656428Y-45795000D01*
X72513571Y-45866428D01*
X72227857Y-45866428D01*
X72085000Y-45937857D01*
X72013571Y-46009285D01*
X71942142Y-46152142D01*
X71942142Y-46437857D01*
X72013571Y-46580714D01*
X72085000Y-46652142D01*
X72227857Y-46723571D01*
X72513571Y-46723571D01*
X72656428Y-46652142D01*
X72727857Y-46580714D01*
X72799285Y-46437857D01*
X72799285Y-46152142D01*
X72727857Y-46009285D01*
X72656428Y-45937857D01*
X72513571Y-45866428D01*
X73442142Y-46580714D02*
X73513571Y-46652142D01*
X73442142Y-46723571D01*
X73370714Y-46652142D01*
X73442142Y-46580714D01*
X73442142Y-46723571D01*
X74442142Y-45223571D02*
X74585000Y-45223571D01*
X74727857Y-45295000D01*
X74799285Y-45366428D01*
X74870714Y-45509285D01*
X74942142Y-45795000D01*
X74942142Y-46152142D01*
X74870714Y-46437857D01*
X74799285Y-46580714D01*
X74727857Y-46652142D01*
X74585000Y-46723571D01*
X74442142Y-46723571D01*
X74299285Y-46652142D01*
X74227857Y-46580714D01*
X74156428Y-46437857D01*
X74085000Y-46152142D01*
X74085000Y-45795000D01*
X74156428Y-45509285D01*
X74227857Y-45366428D01*
X74299285Y-45295000D01*
X74442142Y-45223571D01*
X76299285Y-45223571D02*
X75585000Y-45223571D01*
X75513571Y-45937857D01*
X75585000Y-45866428D01*
X75727857Y-45795000D01*
X76085000Y-45795000D01*
X76227857Y-45866428D01*
X76299285Y-45937857D01*
X76370714Y-46080714D01*
X76370714Y-46437857D01*
X76299285Y-46580714D01*
X76227857Y-46652142D01*
X76085000Y-46723571D01*
X75727857Y-46723571D01*
X75585000Y-46652142D01*
X75513571Y-46580714D01*
X77013571Y-46580714D02*
X77085000Y-46652142D01*
X77013571Y-46723571D01*
X76942142Y-46652142D01*
X77013571Y-46580714D01*
X77013571Y-46723571D01*
X78513571Y-46723571D02*
X77656428Y-46723571D01*
X78085000Y-46723571D02*
X78085000Y-45223571D01*
X77942142Y-45437857D01*
X77799285Y-45580714D01*
X77656428Y-45652142D01*
X79227857Y-46723571D02*
X79513571Y-46723571D01*
X79656428Y-46652142D01*
X79727857Y-46580714D01*
X79870714Y-46366428D01*
X79942142Y-46080714D01*
X79942142Y-45509285D01*
X79870714Y-45366428D01*
X79799285Y-45295000D01*
X79656428Y-45223571D01*
X79370714Y-45223571D01*
X79227857Y-45295000D01*
X79156428Y-45366428D01*
X79085000Y-45509285D01*
X79085000Y-45866428D01*
X79156428Y-46009285D01*
X79227857Y-46080714D01*
X79370714Y-46152142D01*
X79656428Y-46152142D01*
X79799285Y-46080714D01*
X79870714Y-46009285D01*
X79942142Y-45866428D01*
X81585000Y-45723571D02*
X81942142Y-46723571D01*
X82299285Y-45723571D01*
X83656428Y-46723571D02*
X82799285Y-46723571D01*
X83227857Y-46723571D02*
X83227857Y-45223571D01*
X83085000Y-45437857D01*
X82942142Y-45580714D01*
X82799285Y-45652142D01*
X72513571Y-48487857D02*
X73013571Y-48487857D01*
X73227857Y-49273571D02*
X72513571Y-49273571D01*
X72513571Y-47773571D01*
X73227857Y-47773571D01*
X73799285Y-49202142D02*
X73942142Y-49273571D01*
X74227857Y-49273571D01*
X74370714Y-49202142D01*
X74442142Y-49059285D01*
X74442142Y-48987857D01*
X74370714Y-48845000D01*
X74227857Y-48773571D01*
X74013571Y-48773571D01*
X73870714Y-48702142D01*
X73799285Y-48559285D01*
X73799285Y-48487857D01*
X73870714Y-48345000D01*
X74013571Y-48273571D01*
X74227857Y-48273571D01*
X74370714Y-48345000D01*
X75013571Y-49202142D02*
X75156428Y-49273571D01*
X75442142Y-49273571D01*
X75585000Y-49202142D01*
X75656428Y-49059285D01*
X75656428Y-48987857D01*
X75585000Y-48845000D01*
X75442142Y-48773571D01*
X75227857Y-48773571D01*
X75085000Y-48702142D01*
X75013571Y-48559285D01*
X75013571Y-48487857D01*
X75085000Y-48345000D01*
X75227857Y-48273571D01*
X75442142Y-48273571D01*
X75585000Y-48345000D01*
X76870714Y-49202142D02*
X76727857Y-49273571D01*
X76442142Y-49273571D01*
X76299285Y-49202142D01*
X76227857Y-49059285D01*
X76227857Y-48487857D01*
X76299285Y-48345000D01*
X76442142Y-48273571D01*
X76727857Y-48273571D01*
X76870714Y-48345000D01*
X76942142Y-48487857D01*
X76942142Y-48630714D01*
X76227857Y-48773571D01*
X77585000Y-49273571D02*
X77585000Y-48273571D01*
X77585000Y-47773571D02*
X77513571Y-47845000D01*
X77585000Y-47916428D01*
X77656428Y-47845000D01*
X77585000Y-47773571D01*
X77585000Y-47916428D01*
X78156428Y-48273571D02*
X78513571Y-49273571D01*
X78870714Y-48273571D01*
X80085000Y-49273571D02*
X80085000Y-48487857D01*
X80013571Y-48345000D01*
X79870714Y-48273571D01*
X79585000Y-48273571D01*
X79442142Y-48345000D01*
X80085000Y-49202142D02*
X79942142Y-49273571D01*
X79585000Y-49273571D01*
X79442142Y-49202142D01*
X79370714Y-49059285D01*
X79370714Y-48916428D01*
X79442142Y-48773571D01*
X79585000Y-48702142D01*
X79942142Y-48702142D01*
X80085000Y-48630714D01*
X80799285Y-49273571D02*
X80799285Y-47773571D01*
X81656428Y-49273571D01*
X81656428Y-47773571D01*
D11*
X123535000Y-89380000D02*
X124810000Y-89380000D01*
X113185000Y-89955000D02*
X113860000Y-89955000D01*
X113185000Y-79605000D02*
X113860000Y-79605000D01*
X123535000Y-79605000D02*
X122860000Y-79605000D01*
X123535000Y-89955000D02*
X122860000Y-89955000D01*
X123535000Y-79605000D02*
X123535000Y-80280000D01*
X113185000Y-79605000D02*
X113185000Y-80280000D01*
X113185000Y-89955000D02*
X113185000Y-89280000D01*
X123535000Y-89955000D02*
X123535000Y-89380000D01*
X89485000Y-75555000D02*
X91085000Y-75555000D01*
X89485000Y-68255000D02*
X83735000Y-68255000D01*
X89485000Y-75905000D02*
X83735000Y-75905000D01*
X89485000Y-68255000D02*
X89485000Y-68705000D01*
X83735000Y-68255000D02*
X83735000Y-68705000D01*
X83735000Y-75905000D02*
X83735000Y-75455000D01*
X89485000Y-75905000D02*
X89485000Y-75555000D01*
D12*
X57820000Y-65250000D02*
X57820000Y-66250000D01*
X59520000Y-66250000D02*
X59520000Y-65250000D01*
X77215722Y-74710277D02*
G75*
G03X72604420Y-74710000I-2305722J-1179723D01*
G01*
X77215722Y-77069723D02*
G75*
G02X72604420Y-77070000I-2305722J1179723D01*
G01*
X77215722Y-77069723D02*
G75*
G03X77215580Y-74710000I-2305722J1179723D01*
G01*
X74910000Y-73340000D02*
X74910000Y-78440000D01*
X74950000Y-73340000D02*
X74950000Y-74910000D01*
X74950000Y-76870000D02*
X74950000Y-78440000D01*
X74990000Y-73341000D02*
X74990000Y-74910000D01*
X74990000Y-76870000D02*
X74990000Y-78439000D01*
X75030000Y-73342000D02*
X75030000Y-74910000D01*
X75030000Y-76870000D02*
X75030000Y-78438000D01*
X75070000Y-73344000D02*
X75070000Y-74910000D01*
X75070000Y-76870000D02*
X75070000Y-78436000D01*
X75110000Y-73347000D02*
X75110000Y-74910000D01*
X75110000Y-76870000D02*
X75110000Y-78433000D01*
X75150000Y-73351000D02*
X75150000Y-74910000D01*
X75150000Y-76870000D02*
X75150000Y-78429000D01*
X75190000Y-73355000D02*
X75190000Y-74910000D01*
X75190000Y-76870000D02*
X75190000Y-78425000D01*
X75230000Y-73359000D02*
X75230000Y-74910000D01*
X75230000Y-76870000D02*
X75230000Y-78421000D01*
X75270000Y-73365000D02*
X75270000Y-74910000D01*
X75270000Y-76870000D02*
X75270000Y-78415000D01*
X75310000Y-73371000D02*
X75310000Y-74910000D01*
X75310000Y-76870000D02*
X75310000Y-78409000D01*
X75350000Y-73377000D02*
X75350000Y-74910000D01*
X75350000Y-76870000D02*
X75350000Y-78403000D01*
X75390000Y-73384000D02*
X75390000Y-74910000D01*
X75390000Y-76870000D02*
X75390000Y-78396000D01*
X75430000Y-73392000D02*
X75430000Y-74910000D01*
X75430000Y-76870000D02*
X75430000Y-78388000D01*
X75470000Y-73401000D02*
X75470000Y-74910000D01*
X75470000Y-76870000D02*
X75470000Y-78379000D01*
X75510000Y-73410000D02*
X75510000Y-74910000D01*
X75510000Y-76870000D02*
X75510000Y-78370000D01*
X75550000Y-73420000D02*
X75550000Y-74910000D01*
X75550000Y-76870000D02*
X75550000Y-78360000D01*
X75590000Y-73430000D02*
X75590000Y-74910000D01*
X75590000Y-76870000D02*
X75590000Y-78350000D01*
X75631000Y-73442000D02*
X75631000Y-74910000D01*
X75631000Y-76870000D02*
X75631000Y-78338000D01*
X75671000Y-73454000D02*
X75671000Y-74910000D01*
X75671000Y-76870000D02*
X75671000Y-78326000D01*
X75711000Y-73466000D02*
X75711000Y-74910000D01*
X75711000Y-76870000D02*
X75711000Y-78314000D01*
X75751000Y-73480000D02*
X75751000Y-74910000D01*
X75751000Y-76870000D02*
X75751000Y-78300000D01*
X75791000Y-73494000D02*
X75791000Y-74910000D01*
X75791000Y-76870000D02*
X75791000Y-78286000D01*
X75831000Y-73508000D02*
X75831000Y-74910000D01*
X75831000Y-76870000D02*
X75831000Y-78272000D01*
X75871000Y-73524000D02*
X75871000Y-74910000D01*
X75871000Y-76870000D02*
X75871000Y-78256000D01*
X75911000Y-73540000D02*
X75911000Y-74910000D01*
X75911000Y-76870000D02*
X75911000Y-78240000D01*
X75951000Y-73557000D02*
X75951000Y-74910000D01*
X75951000Y-76870000D02*
X75951000Y-78223000D01*
X75991000Y-73575000D02*
X75991000Y-74910000D01*
X75991000Y-76870000D02*
X75991000Y-78205000D01*
X76031000Y-73594000D02*
X76031000Y-74910000D01*
X76031000Y-76870000D02*
X76031000Y-78186000D01*
X76071000Y-73614000D02*
X76071000Y-74910000D01*
X76071000Y-76870000D02*
X76071000Y-78166000D01*
X76111000Y-73634000D02*
X76111000Y-74910000D01*
X76111000Y-76870000D02*
X76111000Y-78146000D01*
X76151000Y-73656000D02*
X76151000Y-74910000D01*
X76151000Y-76870000D02*
X76151000Y-78124000D01*
X76191000Y-73678000D02*
X76191000Y-74910000D01*
X76191000Y-76870000D02*
X76191000Y-78102000D01*
X76231000Y-73701000D02*
X76231000Y-74910000D01*
X76231000Y-76870000D02*
X76231000Y-78079000D01*
X76271000Y-73725000D02*
X76271000Y-74910000D01*
X76271000Y-76870000D02*
X76271000Y-78055000D01*
X76311000Y-73750000D02*
X76311000Y-74910000D01*
X76311000Y-76870000D02*
X76311000Y-78030000D01*
X76351000Y-73777000D02*
X76351000Y-74910000D01*
X76351000Y-76870000D02*
X76351000Y-78003000D01*
X76391000Y-73804000D02*
X76391000Y-74910000D01*
X76391000Y-76870000D02*
X76391000Y-77976000D01*
X76431000Y-73832000D02*
X76431000Y-74910000D01*
X76431000Y-76870000D02*
X76431000Y-77948000D01*
X76471000Y-73862000D02*
X76471000Y-74910000D01*
X76471000Y-76870000D02*
X76471000Y-77918000D01*
X76511000Y-73893000D02*
X76511000Y-74910000D01*
X76511000Y-76870000D02*
X76511000Y-77887000D01*
X76551000Y-73925000D02*
X76551000Y-74910000D01*
X76551000Y-76870000D02*
X76551000Y-77855000D01*
X76591000Y-73958000D02*
X76591000Y-74910000D01*
X76591000Y-76870000D02*
X76591000Y-77822000D01*
X76631000Y-73993000D02*
X76631000Y-74910000D01*
X76631000Y-76870000D02*
X76631000Y-77787000D01*
X76671000Y-74029000D02*
X76671000Y-74910000D01*
X76671000Y-76870000D02*
X76671000Y-77751000D01*
X76711000Y-74067000D02*
X76711000Y-74910000D01*
X76711000Y-76870000D02*
X76711000Y-77713000D01*
X76751000Y-74107000D02*
X76751000Y-74910000D01*
X76751000Y-76870000D02*
X76751000Y-77673000D01*
X76791000Y-74148000D02*
X76791000Y-74910000D01*
X76791000Y-76870000D02*
X76791000Y-77632000D01*
X76831000Y-74191000D02*
X76831000Y-74910000D01*
X76831000Y-76870000D02*
X76831000Y-77589000D01*
X76871000Y-74236000D02*
X76871000Y-74910000D01*
X76871000Y-76870000D02*
X76871000Y-77544000D01*
X76911000Y-74284000D02*
X76911000Y-77496000D01*
X76951000Y-74334000D02*
X76951000Y-77446000D01*
X76991000Y-74386000D02*
X76991000Y-77394000D01*
X77031000Y-74442000D02*
X77031000Y-77338000D01*
X77071000Y-74500000D02*
X77071000Y-77280000D01*
X77111000Y-74563000D02*
X77111000Y-77217000D01*
X77151000Y-74629000D02*
X77151000Y-77151000D01*
X77191000Y-74701000D02*
X77191000Y-77079000D01*
X77231000Y-74778000D02*
X77231000Y-77002000D01*
X77271000Y-74862000D02*
X77271000Y-76918000D01*
X77311000Y-74956000D02*
X77311000Y-76824000D01*
X77351000Y-75061000D02*
X77351000Y-76719000D01*
X77391000Y-75183000D02*
X77391000Y-76597000D01*
X77431000Y-75331000D02*
X77431000Y-76449000D01*
X77471000Y-75536000D02*
X77471000Y-76244000D01*
X71710000Y-75890000D02*
X72910000Y-75890000D01*
X72310000Y-75240000D02*
X72310000Y-76540000D01*
X87110000Y-77580000D02*
X86110000Y-77580000D01*
X86110000Y-79280000D02*
X87110000Y-79280000D01*
X135120000Y-45680000D02*
X135120000Y-47680000D01*
X137160000Y-47680000D02*
X137160000Y-45680000D01*
X138950000Y-85800000D02*
X140950000Y-85800000D01*
X140950000Y-83760000D02*
X138950000Y-83760000D01*
D11*
X91150000Y-66630000D02*
X91150000Y-64830000D01*
X89250000Y-64830000D02*
X89200000Y-64830000D01*
X91150000Y-64830000D02*
X88850000Y-64830000D01*
X91150000Y-66630000D02*
X88800000Y-66630000D01*
X82270000Y-86380000D02*
X82270000Y-83180000D01*
X85870000Y-83180000D02*
X85870000Y-86380000D01*
X81670000Y-85780000D02*
X82270000Y-86380000D01*
X81670000Y-85780000D02*
X81670000Y-83180000D01*
X81670000Y-83180000D02*
X82270000Y-83180000D01*
X60321000Y-63351000D02*
X60321000Y-67669000D01*
X60321000Y-67669000D02*
X62099000Y-67669000D01*
X62099000Y-67669000D02*
X62099000Y-63351000D01*
X62099000Y-63351000D02*
X60321000Y-63351000D01*
X86229000Y-66619000D02*
X86229000Y-64841000D01*
X81911000Y-66619000D02*
X86229000Y-66619000D01*
X81911000Y-64841000D02*
X81911000Y-66619000D01*
X86229000Y-64841000D02*
X81911000Y-64841000D01*
X96389000Y-76779000D02*
X96389000Y-72461000D01*
X96389000Y-72461000D02*
X94611000Y-72461000D01*
X94611000Y-72461000D02*
X94611000Y-76779000D01*
X94611000Y-76779000D02*
X96389000Y-76779000D01*
X100961000Y-45791000D02*
X100961000Y-47569000D01*
X105279000Y-45791000D02*
X100961000Y-45791000D01*
X105279000Y-47569000D02*
X105279000Y-45791000D01*
X100961000Y-47569000D02*
X105279000Y-47569000D01*
X92579000Y-82621000D02*
X88261000Y-82621000D01*
X88261000Y-82621000D02*
X88261000Y-84399000D01*
X88261000Y-84399000D02*
X92579000Y-84399000D01*
X92579000Y-84399000D02*
X92579000Y-82621000D01*
X92579000Y-85161000D02*
X88261000Y-85161000D01*
X88261000Y-85161000D02*
X88261000Y-86939000D01*
X88261000Y-86939000D02*
X92579000Y-86939000D01*
X92579000Y-86939000D02*
X92579000Y-85161000D01*
X92579000Y-89479000D02*
X92579000Y-87701000D01*
X88261000Y-89479000D02*
X92579000Y-89479000D01*
X88261000Y-87701000D02*
X88261000Y-89479000D01*
X92579000Y-87701000D02*
X88261000Y-87701000D01*
X137029000Y-53411000D02*
X132711000Y-53411000D01*
X132711000Y-53411000D02*
X132711000Y-55189000D01*
X132711000Y-55189000D02*
X137029000Y-55189000D01*
X137029000Y-55189000D02*
X137029000Y-53411000D01*
X100961000Y-48331000D02*
X100961000Y-50109000D01*
X105279000Y-48331000D02*
X100961000Y-48331000D01*
X105279000Y-50109000D02*
X105279000Y-48331000D01*
X100961000Y-50109000D02*
X105279000Y-50109000D01*
X64131000Y-97099000D02*
X68449000Y-97099000D01*
X68449000Y-97099000D02*
X68449000Y-95321000D01*
X68449000Y-95321000D02*
X64131000Y-95321000D01*
X64131000Y-95321000D02*
X64131000Y-97099000D01*
X126488000Y-58110000D02*
X112772000Y-58110000D01*
X137875000Y-70332000D02*
X136500000Y-70332000D01*
X137875000Y-80457000D02*
X142025000Y-80457000D01*
X137875000Y-70307000D02*
X142025000Y-70307000D01*
X137875000Y-80457000D02*
X137875000Y-80352000D01*
X142025000Y-80457000D02*
X142025000Y-80352000D01*
X142025000Y-70307000D02*
X142025000Y-70412000D01*
X137875000Y-70307000D02*
X137875000Y-70332000D01*
D12*
X58610000Y-94880000D02*
X59940000Y-94880000D01*
X58610000Y-96210000D02*
X58610000Y-94880000D01*
X58610000Y-97480000D02*
X61270000Y-97480000D01*
X61270000Y-97480000D02*
X61270000Y-115320000D01*
X58610000Y-97480000D02*
X58610000Y-115320000D01*
X58610000Y-115320000D02*
X61270000Y-115320000D01*
X77660000Y-93610000D02*
X77660000Y-96270000D01*
X82800000Y-93610000D02*
X77660000Y-93610000D01*
X82800000Y-96270000D02*
X77660000Y-96270000D01*
X82800000Y-93610000D02*
X82800000Y-96270000D01*
X84070000Y-93610000D02*
X85400000Y-93610000D01*
X85400000Y-93610000D02*
X85400000Y-94940000D01*
D11*
X117598095Y-91682380D02*
X117598095Y-92491904D01*
X117645714Y-92587142D01*
X117693333Y-92634761D01*
X117788571Y-92682380D01*
X117979047Y-92682380D01*
X118074285Y-92634761D01*
X118121904Y-92587142D01*
X118169523Y-92491904D01*
X118169523Y-91682380D01*
X119074285Y-92015714D02*
X119074285Y-92682380D01*
X118836190Y-91634761D02*
X118598095Y-92349047D01*
X119217142Y-92349047D01*
D13*
D11*
X82038095Y-76282380D02*
X82038095Y-77091904D01*
X82085714Y-77187142D01*
X82133333Y-77234761D01*
X82228571Y-77282380D01*
X82419047Y-77282380D01*
X82514285Y-77234761D01*
X82561904Y-77187142D01*
X82609523Y-77091904D01*
X82609523Y-76282380D01*
X82990476Y-76282380D02*
X83609523Y-76282380D01*
X83276190Y-76663333D01*
X83419047Y-76663333D01*
X83514285Y-76710952D01*
X83561904Y-76758571D01*
X83609523Y-76853809D01*
X83609523Y-77091904D01*
X83561904Y-77187142D01*
X83514285Y-77234761D01*
X83419047Y-77282380D01*
X83133333Y-77282380D01*
X83038095Y-77234761D01*
X82990476Y-77187142D01*
X61932380Y-71143333D02*
X62646666Y-71143333D01*
X62789523Y-71190952D01*
X62884761Y-71286190D01*
X62932380Y-71429047D01*
X62932380Y-71524285D01*
X62932380Y-70143333D02*
X62932380Y-70714761D01*
X62932380Y-70429047D02*
X61932380Y-70429047D01*
X62075238Y-70524285D01*
X62170476Y-70619523D01*
X62218095Y-70714761D01*
X58503333Y-62277142D02*
X58455714Y-62324761D01*
X58312857Y-62372380D01*
X58217619Y-62372380D01*
X58074761Y-62324761D01*
X57979523Y-62229523D01*
X57931904Y-62134285D01*
X57884285Y-61943809D01*
X57884285Y-61800952D01*
X57931904Y-61610476D01*
X57979523Y-61515238D01*
X58074761Y-61420000D01*
X58217619Y-61372380D01*
X58312857Y-61372380D01*
X58455714Y-61420000D01*
X58503333Y-61467619D01*
X59455714Y-62372380D02*
X58884285Y-62372380D01*
X59170000Y-62372380D02*
X59170000Y-61372380D01*
X59074761Y-61515238D01*
X58979523Y-61610476D01*
X58884285Y-61658095D01*
X71838333Y-73072142D02*
X71790714Y-73119761D01*
X71647857Y-73167380D01*
X71552619Y-73167380D01*
X71409761Y-73119761D01*
X71314523Y-73024523D01*
X71266904Y-72929285D01*
X71219285Y-72738809D01*
X71219285Y-72595952D01*
X71266904Y-72405476D01*
X71314523Y-72310238D01*
X71409761Y-72215000D01*
X71552619Y-72167380D01*
X71647857Y-72167380D01*
X71790714Y-72215000D01*
X71838333Y-72262619D01*
X72219285Y-72262619D02*
X72266904Y-72215000D01*
X72362142Y-72167380D01*
X72600238Y-72167380D01*
X72695476Y-72215000D01*
X72743095Y-72262619D01*
X72790714Y-72357857D01*
X72790714Y-72453095D01*
X72743095Y-72595952D01*
X72171666Y-73167380D01*
X72790714Y-73167380D01*
X86443333Y-80692142D02*
X86395714Y-80739761D01*
X86252857Y-80787380D01*
X86157619Y-80787380D01*
X86014761Y-80739761D01*
X85919523Y-80644523D01*
X85871904Y-80549285D01*
X85824285Y-80358809D01*
X85824285Y-80215952D01*
X85871904Y-80025476D01*
X85919523Y-79930238D01*
X86014761Y-79835000D01*
X86157619Y-79787380D01*
X86252857Y-79787380D01*
X86395714Y-79835000D01*
X86443333Y-79882619D01*
X87348095Y-79787380D02*
X86871904Y-79787380D01*
X86824285Y-80263571D01*
X86871904Y-80215952D01*
X86967142Y-80168333D01*
X87205238Y-80168333D01*
X87300476Y-80215952D01*
X87348095Y-80263571D01*
X87395714Y-80358809D01*
X87395714Y-80596904D01*
X87348095Y-80692142D01*
X87300476Y-80739761D01*
X87205238Y-80787380D01*
X86967142Y-80787380D01*
X86871904Y-80739761D01*
X86824285Y-80692142D01*
X134747142Y-46846666D02*
X134794761Y-46894285D01*
X134842380Y-47037142D01*
X134842380Y-47132380D01*
X134794761Y-47275238D01*
X134699523Y-47370476D01*
X134604285Y-47418095D01*
X134413809Y-47465714D01*
X134270952Y-47465714D01*
X134080476Y-47418095D01*
X133985238Y-47370476D01*
X133890000Y-47275238D01*
X133842380Y-47132380D01*
X133842380Y-47037142D01*
X133890000Y-46894285D01*
X133937619Y-46846666D01*
X133842380Y-45989523D02*
X133842380Y-46180000D01*
X133890000Y-46275238D01*
X133937619Y-46322857D01*
X134080476Y-46418095D01*
X134270952Y-46465714D01*
X134651904Y-46465714D01*
X134747142Y-46418095D01*
X134794761Y-46370476D01*
X134842380Y-46275238D01*
X134842380Y-46084761D01*
X134794761Y-45989523D01*
X134747142Y-45941904D01*
X134651904Y-45894285D01*
X134413809Y-45894285D01*
X134318571Y-45941904D01*
X134270952Y-45989523D01*
X134223333Y-46084761D01*
X134223333Y-46275238D01*
X134270952Y-46370476D01*
X134318571Y-46418095D01*
X134413809Y-46465714D01*
X139783333Y-87042142D02*
X139735714Y-87089761D01*
X139592857Y-87137380D01*
X139497619Y-87137380D01*
X139354761Y-87089761D01*
X139259523Y-86994523D01*
X139211904Y-86899285D01*
X139164285Y-86708809D01*
X139164285Y-86565952D01*
X139211904Y-86375476D01*
X139259523Y-86280238D01*
X139354761Y-86185000D01*
X139497619Y-86137380D01*
X139592857Y-86137380D01*
X139735714Y-86185000D01*
X139783333Y-86232619D01*
X140259523Y-87137380D02*
X140450000Y-87137380D01*
X140545238Y-87089761D01*
X140592857Y-87042142D01*
X140688095Y-86899285D01*
X140735714Y-86708809D01*
X140735714Y-86327857D01*
X140688095Y-86232619D01*
X140640476Y-86185000D01*
X140545238Y-86137380D01*
X140354761Y-86137380D01*
X140259523Y-86185000D01*
X140211904Y-86232619D01*
X140164285Y-86327857D01*
X140164285Y-86565952D01*
X140211904Y-86661190D01*
X140259523Y-86708809D01*
X140354761Y-86756428D01*
X140545238Y-86756428D01*
X140640476Y-86708809D01*
X140688095Y-86661190D01*
X140735714Y-86565952D01*
X102786666Y-116617380D02*
X102786666Y-117331666D01*
X102739047Y-117474523D01*
X102643809Y-117569761D01*
X102500952Y-117617380D01*
X102405714Y-117617380D01*
X103167619Y-116617380D02*
X103786666Y-116617380D01*
X103453333Y-116998333D01*
X103596190Y-116998333D01*
X103691428Y-117045952D01*
X103739047Y-117093571D01*
X103786666Y-117188809D01*
X103786666Y-117426904D01*
X103739047Y-117522142D01*
X103691428Y-117569761D01*
X103596190Y-117617380D01*
X103310476Y-117617380D01*
X103215238Y-117569761D01*
X103167619Y-117522142D01*
X115486666Y-116617380D02*
X115486666Y-117331666D01*
X115439047Y-117474523D01*
X115343809Y-117569761D01*
X115200952Y-117617380D01*
X115105714Y-117617380D01*
X116391428Y-116950714D02*
X116391428Y-117617380D01*
X116153333Y-116569761D02*
X115915238Y-117284047D01*
X116534285Y-117284047D01*
X128186666Y-116617380D02*
X128186666Y-117331666D01*
X128139047Y-117474523D01*
X128043809Y-117569761D01*
X127900952Y-117617380D01*
X127805714Y-117617380D01*
X129139047Y-116617380D02*
X128662857Y-116617380D01*
X128615238Y-117093571D01*
X128662857Y-117045952D01*
X128758095Y-116998333D01*
X128996190Y-116998333D01*
X129091428Y-117045952D01*
X129139047Y-117093571D01*
X129186666Y-117188809D01*
X129186666Y-117426904D01*
X129139047Y-117522142D01*
X129091428Y-117569761D01*
X128996190Y-117617380D01*
X128758095Y-117617380D01*
X128662857Y-117569761D01*
X128615238Y-117522142D01*
X88411904Y-64277380D02*
X88411904Y-63277380D01*
X88792857Y-63277380D01*
X88888095Y-63325000D01*
X88935714Y-63372619D01*
X88983333Y-63467857D01*
X88983333Y-63610714D01*
X88935714Y-63705952D01*
X88888095Y-63753571D01*
X88792857Y-63801190D01*
X88411904Y-63801190D01*
X89935714Y-64277380D02*
X89364285Y-64277380D01*
X89650000Y-64277380D02*
X89650000Y-63277380D01*
X89554761Y-63420238D01*
X89459523Y-63515476D01*
X89364285Y-63563095D01*
X79521904Y-85232380D02*
X79521904Y-84232380D01*
X79902857Y-84232380D01*
X79998095Y-84280000D01*
X80045714Y-84327619D01*
X80093333Y-84422857D01*
X80093333Y-84565714D01*
X80045714Y-84660952D01*
X79998095Y-84708571D01*
X79902857Y-84756190D01*
X79521904Y-84756190D01*
X80474285Y-84327619D02*
X80521904Y-84280000D01*
X80617142Y-84232380D01*
X80855238Y-84232380D01*
X80950476Y-84280000D01*
X80998095Y-84327619D01*
X81045714Y-84422857D01*
X81045714Y-84518095D01*
X80998095Y-84660952D01*
X80426666Y-85232380D01*
X81045714Y-85232380D01*
X61043333Y-62372380D02*
X60710000Y-61896190D01*
X60471904Y-62372380D02*
X60471904Y-61372380D01*
X60852857Y-61372380D01*
X60948095Y-61420000D01*
X60995714Y-61467619D01*
X61043333Y-61562857D01*
X61043333Y-61705714D01*
X60995714Y-61800952D01*
X60948095Y-61848571D01*
X60852857Y-61896190D01*
X60471904Y-61896190D01*
X61995714Y-62372380D02*
X61424285Y-62372380D01*
X61710000Y-62372380D02*
X61710000Y-61372380D01*
X61614761Y-61515238D01*
X61519523Y-61610476D01*
X61424285Y-61658095D01*
X83903333Y-64277380D02*
X83570000Y-63801190D01*
X83331904Y-64277380D02*
X83331904Y-63277380D01*
X83712857Y-63277380D01*
X83808095Y-63325000D01*
X83855714Y-63372619D01*
X83903333Y-63467857D01*
X83903333Y-63610714D01*
X83855714Y-63705952D01*
X83808095Y-63753571D01*
X83712857Y-63801190D01*
X83331904Y-63801190D01*
X84284285Y-63372619D02*
X84331904Y-63325000D01*
X84427142Y-63277380D01*
X84665238Y-63277380D01*
X84760476Y-63325000D01*
X84808095Y-63372619D01*
X84855714Y-63467857D01*
X84855714Y-63563095D01*
X84808095Y-63705952D01*
X84236666Y-64277380D01*
X84855714Y-64277380D01*
X97238333Y-75072380D02*
X96905000Y-74596190D01*
X96666904Y-75072380D02*
X96666904Y-74072380D01*
X97047857Y-74072380D01*
X97143095Y-74120000D01*
X97190714Y-74167619D01*
X97238333Y-74262857D01*
X97238333Y-74405714D01*
X97190714Y-74500952D01*
X97143095Y-74548571D01*
X97047857Y-74596190D01*
X96666904Y-74596190D01*
X98095476Y-74405714D02*
X98095476Y-75072380D01*
X97857380Y-74024761D02*
X97619285Y-74739047D01*
X98238333Y-74739047D01*
X99143333Y-47132380D02*
X98810000Y-46656190D01*
X98571904Y-47132380D02*
X98571904Y-46132380D01*
X98952857Y-46132380D01*
X99048095Y-46180000D01*
X99095714Y-46227619D01*
X99143333Y-46322857D01*
X99143333Y-46465714D01*
X99095714Y-46560952D01*
X99048095Y-46608571D01*
X98952857Y-46656190D01*
X98571904Y-46656190D01*
X100048095Y-46132380D02*
X99571904Y-46132380D01*
X99524285Y-46608571D01*
X99571904Y-46560952D01*
X99667142Y-46513333D01*
X99905238Y-46513333D01*
X100000476Y-46560952D01*
X100048095Y-46608571D01*
X100095714Y-46703809D01*
X100095714Y-46941904D01*
X100048095Y-47037142D01*
X100000476Y-47084761D01*
X99905238Y-47132380D01*
X99667142Y-47132380D01*
X99571904Y-47084761D01*
X99524285Y-47037142D01*
X93428333Y-83962380D02*
X93095000Y-83486190D01*
X92856904Y-83962380D02*
X92856904Y-82962380D01*
X93237857Y-82962380D01*
X93333095Y-83010000D01*
X93380714Y-83057619D01*
X93428333Y-83152857D01*
X93428333Y-83295714D01*
X93380714Y-83390952D01*
X93333095Y-83438571D01*
X93237857Y-83486190D01*
X92856904Y-83486190D01*
X94285476Y-82962380D02*
X94095000Y-82962380D01*
X93999761Y-83010000D01*
X93952142Y-83057619D01*
X93856904Y-83200476D01*
X93809285Y-83390952D01*
X93809285Y-83771904D01*
X93856904Y-83867142D01*
X93904523Y-83914761D01*
X93999761Y-83962380D01*
X94190238Y-83962380D01*
X94285476Y-83914761D01*
X94333095Y-83867142D01*
X94380714Y-83771904D01*
X94380714Y-83533809D01*
X94333095Y-83438571D01*
X94285476Y-83390952D01*
X94190238Y-83343333D01*
X93999761Y-83343333D01*
X93904523Y-83390952D01*
X93856904Y-83438571D01*
X93809285Y-83533809D01*
X93428333Y-86502380D02*
X93095000Y-86026190D01*
X92856904Y-86502380D02*
X92856904Y-85502380D01*
X93237857Y-85502380D01*
X93333095Y-85550000D01*
X93380714Y-85597619D01*
X93428333Y-85692857D01*
X93428333Y-85835714D01*
X93380714Y-85930952D01*
X93333095Y-85978571D01*
X93237857Y-86026190D01*
X92856904Y-86026190D01*
X93761666Y-85502380D02*
X94428333Y-85502380D01*
X93999761Y-86502380D01*
X93428333Y-89042380D02*
X93095000Y-88566190D01*
X92856904Y-89042380D02*
X92856904Y-88042380D01*
X93237857Y-88042380D01*
X93333095Y-88090000D01*
X93380714Y-88137619D01*
X93428333Y-88232857D01*
X93428333Y-88375714D01*
X93380714Y-88470952D01*
X93333095Y-88518571D01*
X93237857Y-88566190D01*
X92856904Y-88566190D01*
X93999761Y-88470952D02*
X93904523Y-88423333D01*
X93856904Y-88375714D01*
X93809285Y-88280476D01*
X93809285Y-88232857D01*
X93856904Y-88137619D01*
X93904523Y-88090000D01*
X93999761Y-88042380D01*
X94190238Y-88042380D01*
X94285476Y-88090000D01*
X94333095Y-88137619D01*
X94380714Y-88232857D01*
X94380714Y-88280476D01*
X94333095Y-88375714D01*
X94285476Y-88423333D01*
X94190238Y-88470952D01*
X93999761Y-88470952D01*
X93904523Y-88518571D01*
X93856904Y-88566190D01*
X93809285Y-88661428D01*
X93809285Y-88851904D01*
X93856904Y-88947142D01*
X93904523Y-88994761D01*
X93999761Y-89042380D01*
X94190238Y-89042380D01*
X94285476Y-88994761D01*
X94333095Y-88947142D01*
X94380714Y-88851904D01*
X94380714Y-88661428D01*
X94333095Y-88566190D01*
X94285476Y-88518571D01*
X94190238Y-88470952D01*
X138513333Y-54752380D02*
X138180000Y-54276190D01*
X137941904Y-54752380D02*
X137941904Y-53752380D01*
X138322857Y-53752380D01*
X138418095Y-53800000D01*
X138465714Y-53847619D01*
X138513333Y-53942857D01*
X138513333Y-54085714D01*
X138465714Y-54180952D01*
X138418095Y-54228571D01*
X138322857Y-54276190D01*
X137941904Y-54276190D01*
X138989523Y-54752380D02*
X139180000Y-54752380D01*
X139275238Y-54704761D01*
X139322857Y-54657142D01*
X139418095Y-54514285D01*
X139465714Y-54323809D01*
X139465714Y-53942857D01*
X139418095Y-53847619D01*
X139370476Y-53800000D01*
X139275238Y-53752380D01*
X139084761Y-53752380D01*
X138989523Y-53800000D01*
X138941904Y-53847619D01*
X138894285Y-53942857D01*
X138894285Y-54180952D01*
X138941904Y-54276190D01*
X138989523Y-54323809D01*
X139084761Y-54371428D01*
X139275238Y-54371428D01*
X139370476Y-54323809D01*
X139418095Y-54276190D01*
X139465714Y-54180952D01*
X98667142Y-49672380D02*
X98333809Y-49196190D01*
X98095714Y-49672380D02*
X98095714Y-48672380D01*
X98476666Y-48672380D01*
X98571904Y-48720000D01*
X98619523Y-48767619D01*
X98667142Y-48862857D01*
X98667142Y-49005714D01*
X98619523Y-49100952D01*
X98571904Y-49148571D01*
X98476666Y-49196190D01*
X98095714Y-49196190D01*
X99619523Y-49672380D02*
X99048095Y-49672380D01*
X99333809Y-49672380D02*
X99333809Y-48672380D01*
X99238571Y-48815238D01*
X99143333Y-48910476D01*
X99048095Y-48958095D01*
X100238571Y-48672380D02*
X100333809Y-48672380D01*
X100429047Y-48720000D01*
X100476666Y-48767619D01*
X100524285Y-48862857D01*
X100571904Y-49053333D01*
X100571904Y-49291428D01*
X100524285Y-49481904D01*
X100476666Y-49577142D01*
X100429047Y-49624761D01*
X100333809Y-49672380D01*
X100238571Y-49672380D01*
X100143333Y-49624761D01*
X100095714Y-49577142D01*
X100048095Y-49481904D01*
X100000476Y-49291428D01*
X100000476Y-49053333D01*
X100048095Y-48862857D01*
X100095714Y-48767619D01*
X100143333Y-48720000D01*
X100238571Y-48672380D01*
X65647142Y-94757380D02*
X65313809Y-94281190D01*
X65075714Y-94757380D02*
X65075714Y-93757380D01*
X65456666Y-93757380D01*
X65551904Y-93805000D01*
X65599523Y-93852619D01*
X65647142Y-93947857D01*
X65647142Y-94090714D01*
X65599523Y-94185952D01*
X65551904Y-94233571D01*
X65456666Y-94281190D01*
X65075714Y-94281190D01*
X66599523Y-94757380D02*
X66028095Y-94757380D01*
X66313809Y-94757380D02*
X66313809Y-93757380D01*
X66218571Y-93900238D01*
X66123333Y-93995476D01*
X66028095Y-94043095D01*
X67551904Y-94757380D02*
X66980476Y-94757380D01*
X67266190Y-94757380D02*
X67266190Y-93757380D01*
X67170952Y-93900238D01*
X67075714Y-93995476D01*
X66980476Y-94043095D01*
X63686666Y-80739761D02*
X63829523Y-80787380D01*
X64067619Y-80787380D01*
X64162857Y-80739761D01*
X64210476Y-80692142D01*
X64258095Y-80596904D01*
X64258095Y-80501666D01*
X64210476Y-80406428D01*
X64162857Y-80358809D01*
X64067619Y-80311190D01*
X63877142Y-80263571D01*
X63781904Y-80215952D01*
X63734285Y-80168333D01*
X63686666Y-80073095D01*
X63686666Y-79977857D01*
X63734285Y-79882619D01*
X63781904Y-79835000D01*
X63877142Y-79787380D01*
X64115238Y-79787380D01*
X64258095Y-79835000D01*
X64591428Y-79787380D02*
X64829523Y-80787380D01*
X65020000Y-80073095D01*
X65210476Y-80787380D01*
X65448571Y-79787380D01*
X66353333Y-80787380D02*
X65781904Y-80787380D01*
X66067619Y-80787380D02*
X66067619Y-79787380D01*
X65972380Y-79930238D01*
X65877142Y-80025476D01*
X65781904Y-80073095D01*
X118868095Y-58832380D02*
X118868095Y-59641904D01*
X118915714Y-59737142D01*
X118963333Y-59784761D01*
X119058571Y-59832380D01*
X119249047Y-59832380D01*
X119344285Y-59784761D01*
X119391904Y-59737142D01*
X119439523Y-59641904D01*
X119439523Y-58832380D01*
X120439523Y-59832380D02*
X119868095Y-59832380D01*
X120153809Y-59832380D02*
X120153809Y-58832380D01*
X120058571Y-58975238D01*
X119963333Y-59070476D01*
X119868095Y-59118095D01*
X139188095Y-68834380D02*
X139188095Y-69643904D01*
X139235714Y-69739142D01*
X139283333Y-69786761D01*
X139378571Y-69834380D01*
X139569047Y-69834380D01*
X139664285Y-69786761D01*
X139711904Y-69739142D01*
X139759523Y-69643904D01*
X139759523Y-68834380D01*
X140711904Y-68834380D02*
X140235714Y-68834380D01*
X140188095Y-69310571D01*
X140235714Y-69262952D01*
X140330952Y-69215333D01*
X140569047Y-69215333D01*
X140664285Y-69262952D01*
X140711904Y-69310571D01*
X140759523Y-69405809D01*
X140759523Y-69643904D01*
X140711904Y-69739142D01*
X140664285Y-69786761D01*
X140569047Y-69834380D01*
X140330952Y-69834380D01*
X140235714Y-69786761D01*
X140188095Y-69739142D01*
X88340476Y-116617380D02*
X89007142Y-117617380D01*
X89007142Y-116617380D02*
X88340476Y-117617380D01*
X89911904Y-117617380D02*
X89340476Y-117617380D01*
X89626190Y-117617380D02*
X89626190Y-116617380D01*
X89530952Y-116760238D01*
X89435714Y-116855476D01*
X89340476Y-116903095D01*
X154007380Y-59554523D02*
X155007380Y-58887857D01*
X154007380Y-58887857D02*
X155007380Y-59554523D01*
X154102619Y-58554523D02*
X154055000Y-58506904D01*
X154007380Y-58411666D01*
X154007380Y-58173571D01*
X154055000Y-58078333D01*
X154102619Y-58030714D01*
X154197857Y-57983095D01*
X154293095Y-57983095D01*
X154435952Y-58030714D01*
X155007380Y-58602142D01*
X155007380Y-57983095D01*
X154007380Y-76064523D02*
X155007380Y-75397857D01*
X154007380Y-75397857D02*
X155007380Y-76064523D01*
X154007380Y-75112142D02*
X154007380Y-74493095D01*
X154388333Y-74826428D01*
X154388333Y-74683571D01*
X154435952Y-74588333D01*
X154483571Y-74540714D01*
X154578809Y-74493095D01*
X154816904Y-74493095D01*
X154912142Y-74540714D01*
X154959761Y-74588333D01*
X155007380Y-74683571D01*
X155007380Y-74969285D01*
X154959761Y-75064523D01*
X154912142Y-75112142D01*
X154007380Y-89399523D02*
X155007380Y-88732857D01*
X154007380Y-88732857D02*
X155007380Y-89399523D01*
X154007380Y-87875714D02*
X154007380Y-88351904D01*
X154483571Y-88399523D01*
X154435952Y-88351904D01*
X154388333Y-88256666D01*
X154388333Y-88018571D01*
X154435952Y-87923333D01*
X154483571Y-87875714D01*
X154578809Y-87828095D01*
X154816904Y-87828095D01*
X154912142Y-87875714D01*
X154959761Y-87923333D01*
X155007380Y-88018571D01*
X155007380Y-88256666D01*
X154959761Y-88351904D01*
X154912142Y-88399523D01*
X59606666Y-92487380D02*
X59606666Y-93201666D01*
X59559047Y-93344523D01*
X59463809Y-93439761D01*
X59320952Y-93487380D01*
X59225714Y-93487380D01*
X60035238Y-92582619D02*
X60082857Y-92535000D01*
X60178095Y-92487380D01*
X60416190Y-92487380D01*
X60511428Y-92535000D01*
X60559047Y-92582619D01*
X60606666Y-92677857D01*
X60606666Y-92773095D01*
X60559047Y-92915952D01*
X59987619Y-93487380D01*
X60606666Y-93487380D01*
X80720476Y-91852380D02*
X81387142Y-92852380D01*
X81387142Y-91852380D02*
X80720476Y-92852380D01*
X82196666Y-91852380D02*
X82006190Y-91852380D01*
X81910952Y-91900000D01*
X81863333Y-91947619D01*
X81768095Y-92090476D01*
X81720476Y-92280952D01*
X81720476Y-92661904D01*
X81768095Y-92757142D01*
X81815714Y-92804761D01*
X81910952Y-92852380D01*
X82101428Y-92852380D01*
X82196666Y-92804761D01*
X82244285Y-92757142D01*
X82291904Y-92661904D01*
X82291904Y-92423809D01*
X82244285Y-92328571D01*
X82196666Y-92280952D01*
X82101428Y-92233333D01*
X81910952Y-92233333D01*
X81815714Y-92280952D01*
X81768095Y-92328571D01*
X81720476Y-92423809D01*
X154007380Y-102734523D02*
X155007380Y-102067857D01*
X154007380Y-102067857D02*
X155007380Y-102734523D01*
X154340714Y-101258333D02*
X155007380Y-101258333D01*
X153959761Y-101496428D02*
X154674047Y-101734523D01*
X154674047Y-101115476D01*
M02*
