M48
; DRILL file {KiCad (5.1.0)-1} date 23.06.2019 22:19:18
; FORMAT={-:-/ absolute / metric / decimal}
; #@! TF.CreationDate,2019-06-23T22:19:18+02:00
; #@! TF.GenerationSoftware,Kicad,Pcbnew,(5.1.0)-1
; #@! TF.FileFunction,Plated,1,2,PTH
FMAT,2
METRIC
T1C0.400
T2C1.000
%
G90
G05
T1
X52.54Y-73.368
X52.54Y-87.465
X58.128Y-67.907
X58.128Y-81.75
X58.128Y-90.005
X58.128Y-109.69
X62.319Y-83.274
X62.7Y-66.51
X63.589Y-75.4
X63.589Y-107.15
X65.24Y-66.51
X67.78Y-66.51
X68.034Y-85.941
X68.034Y-87.719
X70.066Y-83.274
X70.32Y-54.699
X70.32Y-56.604
X70.32Y-66.51
X71.717Y-57.493
X72.86Y-66.51
X73.056Y-56.281
X73.622Y-118.834
X73.622Y-132.423
X73.622Y-137.63
X74.003Y-84.163
X74.003Y-94.704
X74.003Y-102.07
X74.384Y-121.882
X74.384Y-138.328
X74.75Y-80.465
X74.765Y-66.51
X75.019Y-57.239
X75.146Y-121.12
X75.146Y-137.63
X75.781Y-80.48
X75.781Y-83.274
X75.908Y-65.367
X75.908Y-120.358
X75.908Y-135.09
X76.67Y-142.71
X77.178Y-93.942
X77.305Y-66.51
X77.94Y-131.28
X77.96Y-145.23
X79.845Y-66.51
X80.48Y-74.765
X80.48Y-104.61
X80.48Y-107.975
X81.242Y-106.325
X81.242Y-114.77
X82.004Y-107.15
X82.004Y-112.23
X82.385Y-66.51
X82.639Y-69.177
X82.766Y-104.737
X82.766Y-125.692
X83.274Y-54.699
X83.528Y-108.737
X83.528Y-124.93
X83.655Y-81.75
X83.655Y-83.655
X83.877Y-55.556
X84.29Y-109.563
X84.29Y-124.168
X84.417Y-90.132
X85.052Y-110.325
X85.052Y-123.406
X85.814Y-111.15
X85.814Y-122.644
X86.576Y-68.034
X86.576Y-73.622
X86.576Y-82.512
X86.576Y-87.846
X86.576Y-114.897
X86.576Y-119.596
X86.588Y-105.55
X87.338Y-69.177
X87.338Y-93.18
X87.338Y-115.659
X87.338Y-126.517
X88.1Y-60.16
X88.1Y-116.548
X88.862Y-60.922
X88.862Y-117.31
X89.624Y-62.954
X89.624Y-93.18
X89.624Y-118.072
X89.751Y-73.495
X89.751Y-85.179
X90.005Y-60.922
X90.64Y-62.954
X90.64Y-72.733
X90.64Y-84.29
X91.275Y-60.922
X91.656Y-62.954
X91.91Y-73.495
X91.91Y-83.274
X92.037Y-89.37
X92.037Y-97.117
X92.418Y-103.721
X92.418Y-110.071
X92.799Y-88.608
X92.799Y-97.879
X93.688Y-94.704
X93.688Y-97.117
X94.45Y-93.942
X94.45Y-97.879
X94.577Y-62.192
X95.212Y-97.117
X95.975Y-97.879
X96.482Y-103.594
X96.482Y-110.071
X96.736Y-97.117
X97.625Y-96.228
X98.514Y-95.466
X98.895Y-60.541
X99.53Y-71.844
X100.165Y-61.43
X100.8Y-72.733
X100.8Y-81.75
X100.8Y-87.592
X101.054Y-90.132
X101.054Y-114.96
X101.816Y-90.894
X101.816Y-109.563
X102.07Y-73.622
X102.07Y-82.512
X102.578Y-91.656
X102.578Y-108.674
X103.34Y-83.274
X103.34Y-107.912
X103.34Y-135.09
X104.102Y-84.29
X104.102Y-106.388
X104.102Y-137.503
X104.419Y-142.71
X104.419Y-145.25
X104.419Y-147.79
X104.864Y-104.737
X104.864Y-136.487
X105.626Y-98.387
X105.626Y-137.503
X106.388Y-110.325
X106.388Y-136.487
X107.15Y-85.179
X107.15Y-107.15
X107.15Y-120.358
X107.785Y-60.541
X107.912Y-105.562
X107.912Y-121.12
X108.674Y-103.975
X108.674Y-121.882
X109.055Y-61.43
X109.436Y-95.466
X109.436Y-114.96
X109.436Y-117.246
X109.436Y-131.28
X109.436Y-138.138
X109.69Y-62.954
X109.69Y-71.844
X110.198Y-96.228
X110.198Y-114.198
X110.579Y-62.192
X110.96Y-72.733
X111.658Y-132.423
X112.23Y-73.622
X113.754Y-109.182
X114.516Y-108.42
X115.278Y-94.317
X115.278Y-103.15
X116.04Y-99.149
X116.738Y-61.557
X116.802Y-86.322
X117.564Y-85.56
X118.008Y-61.557
X118.326Y-84.798
X119.088Y-84.036
X119.215Y-61.557
X119.85Y-71.844
X119.85Y-125.755
X120.485Y-61.557
X121.12Y-71.844
X121.12Y-123.406
X121.691Y-61.557
X122.326Y-126.517
X122.39Y-71.844
X122.39Y-76.67
X122.39Y-82.512
X122.39Y-106.896
X122.962Y-61.557
X123.66Y-71.844
X123.66Y-79.21
X123.66Y-83.274
X124.93Y-71.844
X124.93Y-81.75
X125.692Y-73.622
X131.788Y-86.322
X131.788Y-124.93
X133.121Y-114.96
X134.328Y-85.56
X134.328Y-124.168
X135.598Y-114.198
X136.868Y-84.798
X136.868Y-122.644
X136.868Y-125.692
X139.408Y-84.036
X139.408Y-119.596
X139.408Y-123.406
X141.948Y-109.182
X141.97Y-106.918
X143.599Y-108.42
X144.488Y-83.274
X144.488Y-115.659
X147.028Y-82.512
X147.028Y-116.421
T2
X126.73Y-94.3
X129.27Y-94.3
X131.81Y-94.3
X134.35Y-94.3
X136.89Y-94.3
X139.43Y-94.3
X141.97Y-94.3
X144.51Y-94.3
X147.05Y-94.3
X52.54Y-104.61
X52.54Y-107.15
X52.54Y-109.69
X52.54Y-112.23
X52.54Y-114.77
X126.73Y-134.3
X129.27Y-134.3
X131.81Y-134.3
X134.35Y-134.3
X136.89Y-134.3
X139.43Y-134.3
X141.97Y-134.3
X144.51Y-134.3
X147.05Y-134.3
X65.85Y-70.32
X69.05Y-70.32
X72.25Y-70.32
T0
M30
