G04 #@! TF.GenerationSoftware,KiCad,Pcbnew,(5.1.0)-1*
G04 #@! TF.CreationDate,2019-04-28T18:34:04+02:00*
G04 #@! TF.ProjectId,USB_Tool,5553425f-546f-46f6-9c2e-6b696361645f,0*
G04 #@! TF.SameCoordinates,Original*
G04 #@! TF.FileFunction,Soldermask,Bot*
G04 #@! TF.FilePolarity,Negative*
%FSLAX46Y46*%
G04 Gerber Fmt 4.6, Leading zero omitted, Abs format (unit mm)*
G04 Created by KiCad (PCBNEW (5.1.0)-1) date 2019-04-28 18:34:04*
%MOMM*%
%LPD*%
G04 APERTURE LIST*
%ADD10C,0.300000*%
%ADD11C,0.100000*%
G04 APERTURE END LIST*
D10*
X83442142Y-54827857D02*
X83227857Y-54899285D01*
X83156428Y-54970714D01*
X83085000Y-55113571D01*
X83085000Y-55327857D01*
X83156428Y-55470714D01*
X83227857Y-55542142D01*
X83370714Y-55613571D01*
X83942142Y-55613571D01*
X83942142Y-54113571D01*
X83442142Y-54113571D01*
X83299285Y-54185000D01*
X83227857Y-54256428D01*
X83156428Y-54399285D01*
X83156428Y-54542142D01*
X83227857Y-54685000D01*
X83299285Y-54756428D01*
X83442142Y-54827857D01*
X83942142Y-54827857D01*
X82442142Y-55470714D02*
X82370714Y-55542142D01*
X82442142Y-55613571D01*
X82513571Y-55542142D01*
X82442142Y-55470714D01*
X82442142Y-55613571D01*
X81727857Y-55613571D02*
X81727857Y-54113571D01*
X81227857Y-55185000D01*
X80727857Y-54113571D01*
X80727857Y-55613571D01*
X79370714Y-55613571D02*
X79370714Y-54827857D01*
X79442142Y-54685000D01*
X79585000Y-54613571D01*
X79870714Y-54613571D01*
X80013571Y-54685000D01*
X79370714Y-55542142D02*
X79513571Y-55613571D01*
X79870714Y-55613571D01*
X80013571Y-55542142D01*
X80085000Y-55399285D01*
X80085000Y-55256428D01*
X80013571Y-55113571D01*
X79870714Y-55042142D01*
X79513571Y-55042142D01*
X79370714Y-54970714D01*
X78727857Y-55542142D02*
X78585000Y-55613571D01*
X78299285Y-55613571D01*
X78156428Y-55542142D01*
X78085000Y-55399285D01*
X78085000Y-55327857D01*
X78156428Y-55185000D01*
X78299285Y-55113571D01*
X78513571Y-55113571D01*
X78656428Y-55042142D01*
X78727857Y-54899285D01*
X78727857Y-54827857D01*
X78656428Y-54685000D01*
X78513571Y-54613571D01*
X78299285Y-54613571D01*
X78156428Y-54685000D01*
X77442142Y-55613571D02*
X77442142Y-54113571D01*
X77299285Y-55042142D02*
X76870714Y-55613571D01*
X76870714Y-54613571D02*
X77442142Y-55185000D01*
X75085000Y-55042142D02*
X73942142Y-55042142D01*
X72227857Y-54613571D02*
X71870714Y-55613571D01*
X71513571Y-54613571D01*
X70656428Y-54113571D02*
X70513571Y-54113571D01*
X70370714Y-54185000D01*
X70299285Y-54256428D01*
X70227857Y-54399285D01*
X70156428Y-54685000D01*
X70156428Y-55042142D01*
X70227857Y-55327857D01*
X70299285Y-55470714D01*
X70370714Y-55542142D01*
X70513571Y-55613571D01*
X70656428Y-55613571D01*
X70799285Y-55542142D01*
X70870714Y-55470714D01*
X70942142Y-55327857D01*
X71013571Y-55042142D01*
X71013571Y-54685000D01*
X70942142Y-54399285D01*
X70870714Y-54256428D01*
X70799285Y-54185000D01*
X70656428Y-54113571D01*
D11*
G36*
X60050443Y-113095519D02*
G01*
X60116627Y-113102037D01*
X60286466Y-113153557D01*
X60442991Y-113237222D01*
X60478729Y-113266552D01*
X60580186Y-113349814D01*
X60663448Y-113451271D01*
X60692778Y-113487009D01*
X60776443Y-113643534D01*
X60827963Y-113813373D01*
X60845359Y-113990000D01*
X60827963Y-114166627D01*
X60776443Y-114336466D01*
X60692778Y-114492991D01*
X60663448Y-114528729D01*
X60580186Y-114630186D01*
X60478729Y-114713448D01*
X60442991Y-114742778D01*
X60286466Y-114826443D01*
X60116627Y-114877963D01*
X60050442Y-114884482D01*
X59984260Y-114891000D01*
X59895740Y-114891000D01*
X59829558Y-114884482D01*
X59763373Y-114877963D01*
X59593534Y-114826443D01*
X59437009Y-114742778D01*
X59401271Y-114713448D01*
X59299814Y-114630186D01*
X59216552Y-114528729D01*
X59187222Y-114492991D01*
X59103557Y-114336466D01*
X59052037Y-114166627D01*
X59034641Y-113990000D01*
X59052037Y-113813373D01*
X59103557Y-113643534D01*
X59187222Y-113487009D01*
X59216552Y-113451271D01*
X59299814Y-113349814D01*
X59401271Y-113266552D01*
X59437009Y-113237222D01*
X59593534Y-113153557D01*
X59763373Y-113102037D01*
X59829557Y-113095519D01*
X59895740Y-113089000D01*
X59984260Y-113089000D01*
X60050443Y-113095519D01*
X60050443Y-113095519D01*
G37*
G36*
X143578903Y-108343213D02*
G01*
X143801177Y-108387426D01*
X144219932Y-108560880D01*
X144596802Y-108812696D01*
X144917304Y-109133198D01*
X145169120Y-109510068D01*
X145342574Y-109928823D01*
X145431000Y-110373371D01*
X145431000Y-110826629D01*
X145342574Y-111271177D01*
X145169120Y-111689932D01*
X144917304Y-112066802D01*
X144596802Y-112387304D01*
X144219932Y-112639120D01*
X143801177Y-112812574D01*
X143578903Y-112856787D01*
X143356630Y-112901000D01*
X142903370Y-112901000D01*
X142681097Y-112856787D01*
X142458823Y-112812574D01*
X142040068Y-112639120D01*
X141663198Y-112387304D01*
X141342696Y-112066802D01*
X141090880Y-111689932D01*
X140917426Y-111271177D01*
X140829000Y-110826629D01*
X140829000Y-110373371D01*
X140917426Y-109928823D01*
X141090880Y-109510068D01*
X141342696Y-109133198D01*
X141663198Y-108812696D01*
X142040068Y-108560880D01*
X142458823Y-108387426D01*
X142681097Y-108343213D01*
X142903370Y-108299000D01*
X143356630Y-108299000D01*
X143578903Y-108343213D01*
X143578903Y-108343213D01*
G37*
G36*
X73578903Y-108343213D02*
G01*
X73801177Y-108387426D01*
X74219932Y-108560880D01*
X74596802Y-108812696D01*
X74917304Y-109133198D01*
X75169120Y-109510068D01*
X75342574Y-109928823D01*
X75431000Y-110373371D01*
X75431000Y-110826629D01*
X75342574Y-111271177D01*
X75169120Y-111689932D01*
X74917304Y-112066802D01*
X74596802Y-112387304D01*
X74219932Y-112639120D01*
X73801177Y-112812574D01*
X73578903Y-112856787D01*
X73356630Y-112901000D01*
X72903370Y-112901000D01*
X72681097Y-112856787D01*
X72458823Y-112812574D01*
X72040068Y-112639120D01*
X71663198Y-112387304D01*
X71342696Y-112066802D01*
X71090880Y-111689932D01*
X70917426Y-111271177D01*
X70829000Y-110826629D01*
X70829000Y-110373371D01*
X70917426Y-109928823D01*
X71090880Y-109510068D01*
X71342696Y-109133198D01*
X71663198Y-108812696D01*
X72040068Y-108560880D01*
X72458823Y-108387426D01*
X72681097Y-108343213D01*
X72903370Y-108299000D01*
X73356630Y-108299000D01*
X73578903Y-108343213D01*
X73578903Y-108343213D01*
G37*
G36*
X60050443Y-110555519D02*
G01*
X60116627Y-110562037D01*
X60286466Y-110613557D01*
X60442991Y-110697222D01*
X60478729Y-110726552D01*
X60580186Y-110809814D01*
X60663448Y-110911271D01*
X60692778Y-110947009D01*
X60776443Y-111103534D01*
X60827963Y-111273373D01*
X60845359Y-111450000D01*
X60827963Y-111626627D01*
X60776443Y-111796466D01*
X60692778Y-111952991D01*
X60663448Y-111988729D01*
X60580186Y-112090186D01*
X60478729Y-112173448D01*
X60442991Y-112202778D01*
X60286466Y-112286443D01*
X60116627Y-112337963D01*
X60050443Y-112344481D01*
X59984260Y-112351000D01*
X59895740Y-112351000D01*
X59829557Y-112344481D01*
X59763373Y-112337963D01*
X59593534Y-112286443D01*
X59437009Y-112202778D01*
X59401271Y-112173448D01*
X59299814Y-112090186D01*
X59216552Y-111988729D01*
X59187222Y-111952991D01*
X59103557Y-111796466D01*
X59052037Y-111626627D01*
X59034641Y-111450000D01*
X59052037Y-111273373D01*
X59103557Y-111103534D01*
X59187222Y-110947009D01*
X59216552Y-110911271D01*
X59299814Y-110809814D01*
X59401271Y-110726552D01*
X59437009Y-110697222D01*
X59593534Y-110613557D01*
X59763373Y-110562037D01*
X59829557Y-110555519D01*
X59895740Y-110549000D01*
X59984260Y-110549000D01*
X60050443Y-110555519D01*
X60050443Y-110555519D01*
G37*
G36*
X60050442Y-108015518D02*
G01*
X60116627Y-108022037D01*
X60286466Y-108073557D01*
X60442991Y-108157222D01*
X60478729Y-108186552D01*
X60580186Y-108269814D01*
X60663448Y-108371271D01*
X60692778Y-108407009D01*
X60776443Y-108563534D01*
X60827963Y-108733373D01*
X60845359Y-108910000D01*
X60827963Y-109086627D01*
X60776443Y-109256466D01*
X60692778Y-109412991D01*
X60663448Y-109448729D01*
X60580186Y-109550186D01*
X60478729Y-109633448D01*
X60442991Y-109662778D01*
X60286466Y-109746443D01*
X60116627Y-109797963D01*
X60050442Y-109804482D01*
X59984260Y-109811000D01*
X59895740Y-109811000D01*
X59829558Y-109804482D01*
X59763373Y-109797963D01*
X59593534Y-109746443D01*
X59437009Y-109662778D01*
X59401271Y-109633448D01*
X59299814Y-109550186D01*
X59216552Y-109448729D01*
X59187222Y-109412991D01*
X59103557Y-109256466D01*
X59052037Y-109086627D01*
X59034641Y-108910000D01*
X59052037Y-108733373D01*
X59103557Y-108563534D01*
X59187222Y-108407009D01*
X59216552Y-108371271D01*
X59299814Y-108269814D01*
X59401271Y-108186552D01*
X59437009Y-108157222D01*
X59593534Y-108073557D01*
X59763373Y-108022037D01*
X59829558Y-108015518D01*
X59895740Y-108009000D01*
X59984260Y-108009000D01*
X60050442Y-108015518D01*
X60050442Y-108015518D01*
G37*
G36*
X60050442Y-105475518D02*
G01*
X60116627Y-105482037D01*
X60286466Y-105533557D01*
X60442991Y-105617222D01*
X60478729Y-105646552D01*
X60580186Y-105729814D01*
X60663448Y-105831271D01*
X60692778Y-105867009D01*
X60776443Y-106023534D01*
X60827963Y-106193373D01*
X60845359Y-106370000D01*
X60827963Y-106546627D01*
X60776443Y-106716466D01*
X60692778Y-106872991D01*
X60663448Y-106908729D01*
X60580186Y-107010186D01*
X60478729Y-107093448D01*
X60442991Y-107122778D01*
X60286466Y-107206443D01*
X60116627Y-107257963D01*
X60050443Y-107264481D01*
X59984260Y-107271000D01*
X59895740Y-107271000D01*
X59829557Y-107264481D01*
X59763373Y-107257963D01*
X59593534Y-107206443D01*
X59437009Y-107122778D01*
X59401271Y-107093448D01*
X59299814Y-107010186D01*
X59216552Y-106908729D01*
X59187222Y-106872991D01*
X59103557Y-106716466D01*
X59052037Y-106546627D01*
X59034641Y-106370000D01*
X59052037Y-106193373D01*
X59103557Y-106023534D01*
X59187222Y-105867009D01*
X59216552Y-105831271D01*
X59299814Y-105729814D01*
X59401271Y-105646552D01*
X59437009Y-105617222D01*
X59593534Y-105533557D01*
X59763373Y-105482037D01*
X59829557Y-105475519D01*
X59895740Y-105469000D01*
X59984260Y-105469000D01*
X60050442Y-105475518D01*
X60050442Y-105475518D01*
G37*
G36*
X60050443Y-102935519D02*
G01*
X60116627Y-102942037D01*
X60286466Y-102993557D01*
X60442991Y-103077222D01*
X60478729Y-103106552D01*
X60580186Y-103189814D01*
X60663448Y-103291271D01*
X60692778Y-103327009D01*
X60776443Y-103483534D01*
X60827963Y-103653373D01*
X60845359Y-103830000D01*
X60827963Y-104006627D01*
X60776443Y-104176466D01*
X60692778Y-104332991D01*
X60663448Y-104368729D01*
X60580186Y-104470186D01*
X60478729Y-104553448D01*
X60442991Y-104582778D01*
X60286466Y-104666443D01*
X60116627Y-104717963D01*
X60050443Y-104724481D01*
X59984260Y-104731000D01*
X59895740Y-104731000D01*
X59829557Y-104724481D01*
X59763373Y-104717963D01*
X59593534Y-104666443D01*
X59437009Y-104582778D01*
X59401271Y-104553448D01*
X59299814Y-104470186D01*
X59216552Y-104368729D01*
X59187222Y-104332991D01*
X59103557Y-104176466D01*
X59052037Y-104006627D01*
X59034641Y-103830000D01*
X59052037Y-103653373D01*
X59103557Y-103483534D01*
X59187222Y-103327009D01*
X59216552Y-103291271D01*
X59299814Y-103189814D01*
X59401271Y-103106552D01*
X59437009Y-103077222D01*
X59593534Y-102993557D01*
X59763373Y-102942037D01*
X59829558Y-102935518D01*
X59895740Y-102929000D01*
X59984260Y-102929000D01*
X60050443Y-102935519D01*
X60050443Y-102935519D01*
G37*
G36*
X60050442Y-100395518D02*
G01*
X60116627Y-100402037D01*
X60286466Y-100453557D01*
X60442991Y-100537222D01*
X60478729Y-100566552D01*
X60580186Y-100649814D01*
X60663448Y-100751271D01*
X60692778Y-100787009D01*
X60776443Y-100943534D01*
X60827963Y-101113373D01*
X60845359Y-101290000D01*
X60827963Y-101466627D01*
X60776443Y-101636466D01*
X60692778Y-101792991D01*
X60663448Y-101828729D01*
X60580186Y-101930186D01*
X60478729Y-102013448D01*
X60442991Y-102042778D01*
X60286466Y-102126443D01*
X60116627Y-102177963D01*
X60050443Y-102184481D01*
X59984260Y-102191000D01*
X59895740Y-102191000D01*
X59829557Y-102184481D01*
X59763373Y-102177963D01*
X59593534Y-102126443D01*
X59437009Y-102042778D01*
X59401271Y-102013448D01*
X59299814Y-101930186D01*
X59216552Y-101828729D01*
X59187222Y-101792991D01*
X59103557Y-101636466D01*
X59052037Y-101466627D01*
X59034641Y-101290000D01*
X59052037Y-101113373D01*
X59103557Y-100943534D01*
X59187222Y-100787009D01*
X59216552Y-100751271D01*
X59299814Y-100649814D01*
X59401271Y-100566552D01*
X59437009Y-100537222D01*
X59593534Y-100453557D01*
X59763373Y-100402037D01*
X59829558Y-100395518D01*
X59895740Y-100389000D01*
X59984260Y-100389000D01*
X60050442Y-100395518D01*
X60050442Y-100395518D01*
G37*
G36*
X60050443Y-97855519D02*
G01*
X60116627Y-97862037D01*
X60286466Y-97913557D01*
X60442991Y-97997222D01*
X60478729Y-98026552D01*
X60580186Y-98109814D01*
X60663448Y-98211271D01*
X60692778Y-98247009D01*
X60776443Y-98403534D01*
X60827963Y-98573373D01*
X60845359Y-98750000D01*
X60827963Y-98926627D01*
X60776443Y-99096466D01*
X60692778Y-99252991D01*
X60663448Y-99288729D01*
X60580186Y-99390186D01*
X60478729Y-99473448D01*
X60442991Y-99502778D01*
X60286466Y-99586443D01*
X60116627Y-99637963D01*
X60050443Y-99644481D01*
X59984260Y-99651000D01*
X59895740Y-99651000D01*
X59829557Y-99644481D01*
X59763373Y-99637963D01*
X59593534Y-99586443D01*
X59437009Y-99502778D01*
X59401271Y-99473448D01*
X59299814Y-99390186D01*
X59216552Y-99288729D01*
X59187222Y-99252991D01*
X59103557Y-99096466D01*
X59052037Y-98926627D01*
X59034641Y-98750000D01*
X59052037Y-98573373D01*
X59103557Y-98403534D01*
X59187222Y-98247009D01*
X59216552Y-98211271D01*
X59299814Y-98109814D01*
X59401271Y-98026552D01*
X59437009Y-97997222D01*
X59593534Y-97913557D01*
X59763373Y-97862037D01*
X59829557Y-97855519D01*
X59895740Y-97849000D01*
X59984260Y-97849000D01*
X60050443Y-97855519D01*
X60050443Y-97855519D01*
G37*
G36*
X60841000Y-97111000D02*
G01*
X59039000Y-97111000D01*
X59039000Y-95309000D01*
X60841000Y-95309000D01*
X60841000Y-97111000D01*
X60841000Y-97111000D01*
G37*
G36*
X76246000Y-88246000D02*
G01*
X74114000Y-88246000D01*
X74114000Y-85494000D01*
X76246000Y-85494000D01*
X76246000Y-88246000D01*
X76246000Y-88246000D01*
G37*
G36*
X117941000Y-87831000D02*
G01*
X116239000Y-87831000D01*
X116239000Y-85729000D01*
X117941000Y-85729000D01*
X117941000Y-87831000D01*
X117941000Y-87831000D01*
G37*
G36*
X68497395Y-83865546D02*
G01*
X68670466Y-83937234D01*
X68670467Y-83937235D01*
X68826227Y-84041310D01*
X68958690Y-84173773D01*
X68958691Y-84173775D01*
X69062766Y-84329534D01*
X69134454Y-84502605D01*
X69171000Y-84686333D01*
X69171000Y-84873667D01*
X69134454Y-85057395D01*
X69062766Y-85230466D01*
X69062765Y-85230467D01*
X68958690Y-85386227D01*
X68826227Y-85518690D01*
X68747818Y-85571081D01*
X68670466Y-85622766D01*
X68497395Y-85694454D01*
X68313667Y-85731000D01*
X68126333Y-85731000D01*
X67942605Y-85694454D01*
X67769534Y-85622766D01*
X67692182Y-85571081D01*
X67613773Y-85518690D01*
X67481310Y-85386227D01*
X67377235Y-85230467D01*
X67377234Y-85230466D01*
X67305546Y-85057395D01*
X67269000Y-84873667D01*
X67269000Y-84686333D01*
X67305546Y-84502605D01*
X67377234Y-84329534D01*
X67481309Y-84173775D01*
X67481310Y-84173773D01*
X67613773Y-84041310D01*
X67769533Y-83937235D01*
X67769534Y-83937234D01*
X67942605Y-83865546D01*
X68126333Y-83829000D01*
X68313667Y-83829000D01*
X68497395Y-83865546D01*
X68497395Y-83865546D01*
G37*
G36*
X65297395Y-83865546D02*
G01*
X65470466Y-83937234D01*
X65470467Y-83937235D01*
X65626227Y-84041310D01*
X65758690Y-84173773D01*
X65758691Y-84173775D01*
X65862766Y-84329534D01*
X65934454Y-84502605D01*
X65971000Y-84686333D01*
X65971000Y-84873667D01*
X65934454Y-85057395D01*
X65862766Y-85230466D01*
X65862765Y-85230467D01*
X65758690Y-85386227D01*
X65626227Y-85518690D01*
X65547818Y-85571081D01*
X65470466Y-85622766D01*
X65297395Y-85694454D01*
X65113667Y-85731000D01*
X64926333Y-85731000D01*
X64742605Y-85694454D01*
X64569534Y-85622766D01*
X64492182Y-85571081D01*
X64413773Y-85518690D01*
X64281310Y-85386227D01*
X64177235Y-85230467D01*
X64177234Y-85230466D01*
X64105546Y-85057395D01*
X64069000Y-84873667D01*
X64069000Y-84686333D01*
X64105546Y-84502605D01*
X64177234Y-84329534D01*
X64281309Y-84173775D01*
X64281310Y-84173773D01*
X64413773Y-84041310D01*
X64569533Y-83937235D01*
X64569534Y-83937234D01*
X64742605Y-83865546D01*
X64926333Y-83829000D01*
X65113667Y-83829000D01*
X65297395Y-83865546D01*
X65297395Y-83865546D01*
G37*
G36*
X62097395Y-83865546D02*
G01*
X62270466Y-83937234D01*
X62270467Y-83937235D01*
X62426227Y-84041310D01*
X62558690Y-84173773D01*
X62558691Y-84173775D01*
X62662766Y-84329534D01*
X62734454Y-84502605D01*
X62771000Y-84686333D01*
X62771000Y-84873667D01*
X62734454Y-85057395D01*
X62662766Y-85230466D01*
X62662765Y-85230467D01*
X62558690Y-85386227D01*
X62426227Y-85518690D01*
X62347818Y-85571081D01*
X62270466Y-85622766D01*
X62097395Y-85694454D01*
X61913667Y-85731000D01*
X61726333Y-85731000D01*
X61542605Y-85694454D01*
X61369534Y-85622766D01*
X61292182Y-85571081D01*
X61213773Y-85518690D01*
X61081310Y-85386227D01*
X60977235Y-85230467D01*
X60977234Y-85230466D01*
X60905546Y-85057395D01*
X60869000Y-84873667D01*
X60869000Y-84686333D01*
X60905546Y-84502605D01*
X60977234Y-84329534D01*
X61081309Y-84173775D01*
X61081310Y-84173773D01*
X61213773Y-84041310D01*
X61369533Y-83937235D01*
X61369534Y-83937234D01*
X61542605Y-83865546D01*
X61726333Y-83829000D01*
X61913667Y-83829000D01*
X62097395Y-83865546D01*
X62097395Y-83865546D01*
G37*
G36*
X76246000Y-84066000D02*
G01*
X74114000Y-84066000D01*
X74114000Y-81314000D01*
X76246000Y-81314000D01*
X76246000Y-84066000D01*
X76246000Y-84066000D01*
G37*
G36*
X117941000Y-83831000D02*
G01*
X116239000Y-83831000D01*
X116239000Y-81729000D01*
X117941000Y-81729000D01*
X117941000Y-83831000D01*
X117941000Y-83831000D01*
G37*
G36*
X70156000Y-76801000D02*
G01*
X67504000Y-76801000D01*
X67504000Y-75139000D01*
X70156000Y-75139000D01*
X70156000Y-76801000D01*
X70156000Y-76801000D01*
G37*
G36*
X76158228Y-75071703D02*
G01*
X76313100Y-75135853D01*
X76452481Y-75228985D01*
X76571015Y-75347519D01*
X76664147Y-75486900D01*
X76728297Y-75641772D01*
X76761000Y-75806184D01*
X76761000Y-75973816D01*
X76728297Y-76138228D01*
X76664147Y-76293100D01*
X76571015Y-76432481D01*
X76452481Y-76551015D01*
X76313100Y-76644147D01*
X76158228Y-76708297D01*
X75993816Y-76741000D01*
X75826184Y-76741000D01*
X75661772Y-76708297D01*
X75506900Y-76644147D01*
X75367519Y-76551015D01*
X75248985Y-76432481D01*
X75155853Y-76293100D01*
X75091703Y-76138228D01*
X75059000Y-75973816D01*
X75059000Y-75806184D01*
X75091703Y-75641772D01*
X75155853Y-75486900D01*
X75248985Y-75347519D01*
X75367519Y-75228985D01*
X75506900Y-75135853D01*
X75661772Y-75071703D01*
X75826184Y-75039000D01*
X75993816Y-75039000D01*
X76158228Y-75071703D01*
X76158228Y-75071703D01*
G37*
G36*
X74761000Y-76741000D02*
G01*
X73059000Y-76741000D01*
X73059000Y-75039000D01*
X74761000Y-75039000D01*
X74761000Y-76741000D01*
X74761000Y-76741000D01*
G37*
G36*
X79666000Y-76691000D02*
G01*
X78314000Y-76691000D01*
X78314000Y-75089000D01*
X79666000Y-75089000D01*
X79666000Y-76691000D01*
X79666000Y-76691000D01*
G37*
G36*
X100161000Y-75766000D02*
G01*
X98459000Y-75766000D01*
X98459000Y-73664000D01*
X100161000Y-73664000D01*
X100161000Y-75766000D01*
X100161000Y-75766000D01*
G37*
G36*
X97126000Y-74256000D02*
G01*
X95674000Y-74256000D01*
X95674000Y-72504000D01*
X97126000Y-72504000D01*
X97126000Y-74256000D01*
X97126000Y-74256000D01*
G37*
G36*
X95326000Y-74256000D02*
G01*
X93874000Y-74256000D01*
X93874000Y-72504000D01*
X95326000Y-72504000D01*
X95326000Y-74256000D01*
X95326000Y-74256000D01*
G37*
G36*
X79666000Y-74191000D02*
G01*
X78314000Y-74191000D01*
X78314000Y-72589000D01*
X79666000Y-72589000D01*
X79666000Y-74191000D01*
X79666000Y-74191000D01*
G37*
G36*
X68256000Y-74101000D02*
G01*
X67504000Y-74101000D01*
X67504000Y-72439000D01*
X68256000Y-72439000D01*
X68256000Y-74101000D01*
X68256000Y-74101000D01*
G37*
G36*
X70156000Y-74101000D02*
G01*
X69404000Y-74101000D01*
X69404000Y-72439000D01*
X70156000Y-72439000D01*
X70156000Y-74101000D01*
X70156000Y-74101000D01*
G37*
G36*
X100161000Y-71766000D02*
G01*
X98459000Y-71766000D01*
X98459000Y-69664000D01*
X100161000Y-69664000D01*
X100161000Y-71766000D01*
X100161000Y-71766000D01*
G37*
G36*
X95326000Y-71656000D02*
G01*
X93874000Y-71656000D01*
X93874000Y-69904000D01*
X95326000Y-69904000D01*
X95326000Y-71656000D01*
X95326000Y-71656000D01*
G37*
G36*
X97126000Y-71656000D02*
G01*
X95674000Y-71656000D01*
X95674000Y-69904000D01*
X97126000Y-69904000D01*
X97126000Y-71656000D01*
X97126000Y-71656000D01*
G37*
G36*
X70881000Y-71486000D02*
G01*
X69279000Y-71486000D01*
X69279000Y-70134000D01*
X70881000Y-70134000D01*
X70881000Y-71486000D01*
X70881000Y-71486000D01*
G37*
G36*
X68381000Y-71486000D02*
G01*
X66779000Y-71486000D01*
X66779000Y-70134000D01*
X68381000Y-70134000D01*
X68381000Y-71486000D01*
X68381000Y-71486000D01*
G37*
G36*
X97691000Y-68821000D02*
G01*
X96289000Y-68821000D01*
X96289000Y-67719000D01*
X97691000Y-67719000D01*
X97691000Y-68821000D01*
X97691000Y-68821000D01*
G37*
G36*
X99791000Y-68821000D02*
G01*
X98389000Y-68821000D01*
X98389000Y-67719000D01*
X99791000Y-67719000D01*
X99791000Y-68821000D01*
X99791000Y-68821000D01*
G37*
G36*
X151578903Y-44343213D02*
G01*
X151801177Y-44387426D01*
X152219932Y-44560880D01*
X152596802Y-44812696D01*
X152917304Y-45133198D01*
X153169120Y-45510068D01*
X153342574Y-45928823D01*
X153431000Y-46373371D01*
X153431000Y-46826629D01*
X153342574Y-47271177D01*
X153169120Y-47689932D01*
X152917304Y-48066802D01*
X152596802Y-48387304D01*
X152219932Y-48639120D01*
X151801177Y-48812574D01*
X151578903Y-48856787D01*
X151356630Y-48901000D01*
X150903370Y-48901000D01*
X150681097Y-48856787D01*
X150458823Y-48812574D01*
X150040068Y-48639120D01*
X149663198Y-48387304D01*
X149342696Y-48066802D01*
X149090880Y-47689932D01*
X148917426Y-47271177D01*
X148829000Y-46826629D01*
X148829000Y-46373371D01*
X148917426Y-45928823D01*
X149090880Y-45510068D01*
X149342696Y-45133198D01*
X149663198Y-44812696D01*
X150040068Y-44560880D01*
X150458823Y-44387426D01*
X150681097Y-44343213D01*
X150903370Y-44299000D01*
X151356630Y-44299000D01*
X151578903Y-44343213D01*
X151578903Y-44343213D01*
G37*
G36*
X61578903Y-44343213D02*
G01*
X61801177Y-44387426D01*
X62219932Y-44560880D01*
X62596802Y-44812696D01*
X62917304Y-45133198D01*
X63169120Y-45510068D01*
X63342574Y-45928823D01*
X63431000Y-46373371D01*
X63431000Y-46826629D01*
X63342574Y-47271177D01*
X63169120Y-47689932D01*
X62917304Y-48066802D01*
X62596802Y-48387304D01*
X62219932Y-48639120D01*
X61801177Y-48812574D01*
X61578903Y-48856787D01*
X61356630Y-48901000D01*
X60903370Y-48901000D01*
X60681097Y-48856787D01*
X60458823Y-48812574D01*
X60040068Y-48639120D01*
X59663198Y-48387304D01*
X59342696Y-48066802D01*
X59090880Y-47689932D01*
X58917426Y-47271177D01*
X58829000Y-46826629D01*
X58829000Y-46373371D01*
X58917426Y-45928823D01*
X59090880Y-45510068D01*
X59342696Y-45133198D01*
X59663198Y-44812696D01*
X60040068Y-44560880D01*
X60458823Y-44387426D01*
X60681097Y-44343213D01*
X60903370Y-44299000D01*
X61356630Y-44299000D01*
X61578903Y-44343213D01*
X61578903Y-44343213D01*
G37*
M02*
